<?xml version="1.0" encoding="utf-8"?>
<svg version="1.1" xmlns:xlink="http://www.w3.org/1999/xlink" width="131px" height="179px" xmlns="http://www.w3.org/2000/svg">
  <defs>
    <linearGradient gradientUnits="userSpaceOnUse" x1="131" y1="89.5" x2="0" y2="89.5" id="LinearGradient1560">
      <stop id="Stop1561" stop-color="#450604" offset="0" />
      <stop id="Stop1562" stop-color="#641e20" offset="1" />
    </linearGradient>
  </defs>
  <g transform="matrix(1 0 0 1 -241 -687 )">
    <path d="M 10.5883458646617 35.1436210847976  L 0.738721804511306 52.2368220015279  L 27.8251879699249 69.3300229182582  L 33.3656015037595 83.0045836516425  L 57.374060150376 120  L 73.3796992481204 120  L 93.6945488721805 120  L 99.2349624060151 113.772345301757  L 93.6945488721805 147.958747135218  L 84.4605263157895 169.154316271963  L 99.2349624060151 178  L 116.471804511278 178  L 130.630639097744 169.154316271963  L 125.09022556391 147.958747135218  L 121.396616541353 83.0045836516425  L 125.09022556391 52.2368220015279  L 121.396616541353 35.1436210847976  L 116.471804511278 24.2039724980902  L 99.2349624060151 1  L 78.3045112781955 1  L 44.4464285714287 7.11077158135983  L 27.8251879699249 20.1016042780749  L 10.5883458646617 35.1436210847976  Z " fill-rule="nonzero" fill="url(#LinearGradient1560)" stroke="none" transform="matrix(1 0 0 1 241 687 )" />
  </g>
</svg>