<?xml version="1.0" encoding="utf-8"?>
<svg version="1.1" xmlns:xlink="http://www.w3.org/1999/xlink" width="59px" height="91px" xmlns="http://www.w3.org/2000/svg">
  <defs>
    <linearGradient gradientUnits="userSpaceOnUse" x1="59" y1="45.5" x2="0" y2="45.5" id="LinearGradient1534">
      <stop id="Stop1535" stop-color="#450604" offset="0" />
      <stop id="Stop1536" stop-color="#641e20" offset="1" />
    </linearGradient>
  </defs>
  <g transform="matrix(1 0 0 1 -161 -3102 )">
    <path d="M 4.76879699248122 17.8663101604278  L 0.332706766917306 26.5561497326203  L 12.5319548872181 35.2459893048128  L 15.0272556390978 42.1978609625669  L 25.8402255639098 60.9679144385027  L 33.0488721804512 60.9679144385027  L 42.1983082706767 60.9679144385027  L 44.6936090225564 57.8395721925134  L 42.1983082706767 75.2192513368984  L 38.0394736842105 85.9946524064171  L 44.6936090225564 90.8609625668449  L 52.4567669172933 90.8609625668449  L 58.8336466165414 85.9946524064171  L 56.3383458646617 75.2192513368984  L 54.6748120300752 42.1978609625669  L 56.3383458646617 26.5561497326203  L 54.6748120300752 17.8663101604278  L 52.4567669172933 12.3048128342246  L 44.6936090225564 0.13903743315509  L 35.2669172932331 0.13903743315509  L 20.0178571428572 3.61497326203209  L 12.5319548872181 10.2192513368984  L 4.76879699248122 17.8663101604278  Z " fill-rule="nonzero" fill="url(#LinearGradient1534)" stroke="none" transform="matrix(1 0 0 1 161 3102 )" />
  </g>
</svg>