<?xml version="1.0" encoding="utf-8"?>
<svg version="1.1" xmlns:xlink="http://www.w3.org/1999/xlink" width="183px" height="254px" xmlns="http://www.w3.org/2000/svg">
  <defs>
    <linearGradient gradientUnits="userSpaceOnUse" x1="183" y1="127" x2="0" y2="127" id="LinearGradient1563">
      <stop id="Stop1564" stop-color="#450604" offset="0" />
      <stop id="Stop1565" stop-color="#641e20" offset="1" />
    </linearGradient>
  </defs>
  <g transform="matrix(1 0 0 1 -903 -386 )">
    <path d="M 14.7913533834587 49.8686019862491  L 1.03195488721808 74.1237585943469  L 38.8703007518798 98.3789152024446  L 46.6099624060151 117.783040488923  L 80.1484962406016 170  L 102.507518796993 170  L 130.886278195489 170.174178762414  L 138.625939849624 161.442322383499  L 130.886278195489 209.952635599694  L 117.986842105263 240.029029793736  L 138.625939849624 253  L 162.704887218045 253  L 182.484022556391 240.029029793736  L 174.744360902256 209.952635599694  L 169.584586466165 117.783040488923  L 174.744360902256 74.1237585943469  L 169.584586466165 49.8686019862491  L 162.704887218045 34.3453017570665  L 138.625939849624 1  L 109.387218045113 1  L 62.0892857142858 10.0901451489687  L 38.8703007518798 28.524064171123  L 14.7913533834587 49.8686019862491  Z " fill-rule="nonzero" fill="url(#LinearGradient1563)" stroke="none" transform="matrix(1 0 0 1 903 386 )" />
  </g>
</svg>