<?xml version="1.0" encoding="utf-8"?>
<svg version="1.1" xmlns:xlink="http://www.w3.org/1999/xlink" width="127px" height="148px" xmlns="http://www.w3.org/2000/svg">
  <defs>
    <linearGradient gradientUnits="userSpaceOnUse" x1="127" y1="74" x2="0" y2="74" id="LinearGradient1554">
      <stop id="Stop1555" stop-color="#450604" offset="0" />
      <stop id="Stop1556" stop-color="#641e20" offset="1" />
    </linearGradient>
  </defs>
  <g transform="matrix(1 0 0 1 -993 -362 )">
    <path d="M 10.265037593985 29.0572956455309  L 0.716165413533862 43.1902215431628  L 26.9755639097745 57.3231474407945  L 32.3468045112783 68.6294881588999  L 55.6221804511279 99  L 71.139097744361 99  L 90.8336466165414 99.1566080977846  L 96.2048872180452 94.0687547746372  L 90.8336466165414 122.334606569901  L 81.8815789473684 139.859434682964  L 96.2048872180452 147  L 112.915413533835 147  L 126.641917293233 139.859434682964  L 121.270676691729 122.334606569901  L 117.68984962406 68.6294881588999  L 121.270676691729 43.1902215431628  L 117.68984962406 29.0572956455309  L 112.915413533835 20.0122230710466  L 96.2048872180452 1  L 75.9135338345865 1  L 43.0892857142858 5.87929717341483  L 26.9755639097745 16.620320855615  L 10.265037593985 29.0572956455309  Z " fill-rule="nonzero" fill="url(#LinearGradient1554)" stroke="none" transform="matrix(1 0 0 1 993 362 )" />
  </g>
</svg>