<?xml version="1.0" encoding="utf-8"?>
<svg version="1.1" xmlns:xlink="http://www.w3.org/1999/xlink" width="126px" height="155px" xmlns="http://www.w3.org/2000/svg">
  <defs>
    <linearGradient gradientUnits="userSpaceOnUse" x1="126" y1="77.5" x2="0" y2="77.5" id="LinearGradient1548">
      <stop id="Stop1549" stop-color="#450604" offset="0" />
      <stop id="Stop1550" stop-color="#641e20" offset="1" />
    </linearGradient>
  </defs>
  <g transform="matrix(1 0 0 1 -942 -362 )">
    <path d="M 10.1842105263158 30.4316271963331  L 0.710526315789501 45.2330022918259  L 26.7631578947369 60.0343773873186  L 32.092105263158 71.8754774637128  L 55.1842105263159 103  L 70.5789473684211 103  L 90.1184210526316 103.846447669977  L 95.4473684210527 98.5179526355997  L 90.1184210526316 128.120702826585  L 81.2368421052632 146.474407944996  L 95.4473684210527 154  L 112.026315789474 154  L 125.644736842105 146.474407944996  L 120.315789473684 128.120702826585  L 116.763157894737 71.8754774637128  L 120.315789473684 45.2330022918259  L 116.763157894737 30.4316271963331  L 112.026315789474 20.9587471352177  L 95.4473684210527 1  L 75.3157894736842 1  L 42.7500000000001 6.15737203972499  L 26.7631578947369 17.4064171122995  L 10.1842105263158 30.4316271963331  Z " fill-rule="nonzero" fill="url(#LinearGradient1548)" stroke="none" transform="matrix(1 0 0 1 942 362 )" />
  </g>
</svg>