<?xml version="1.0" encoding="utf-8"?>
<svg version="1.1" xmlns:xlink="http://www.w3.org/1999/xlink" width="147px" height="217px" xmlns="http://www.w3.org/2000/svg">
  <defs>
    <linearGradient gradientUnits="userSpaceOnUse" x1="147" y1="108.5" x2="0" y2="108.5" id="LinearGradient1531">
      <stop id="Stop1532" stop-color="#450604" offset="0" />
      <stop id="Stop1533" stop-color="#641e20" offset="1" />
    </linearGradient>
  </defs>
  <g transform="matrix(1 0 0 1 -953 -314 )">
    <path d="M 11.8815789473685 42.6042780748663  L 0.828947368421084 63.3262032085562  L 31.2236842105264 84.048128342246  L 37.4407894736843 100.625668449198  L 64.3815789473685 145  L 82.342105263158 145  L 105.138157894737 145.385026737968  L 111.355263157895 137.92513368984  L 105.138157894737 179.368983957219  L 94.7763157894737 205.064171122995  L 111.355263157895 216  L 130.697368421053 216  L 146.58552631579 205.064171122995  L 140.368421052632 179.368983957219  L 136.223684210526 100.625668449198  L 140.368421052632 63.3262032085562  L 136.223684210526 42.6042780748663  L 130.697368421053 29.3422459893048  L 111.355263157895 1  L 87.8684210526316 1  L 49.8750000000001 8.62032085561499  L 31.2236842105264 24.3689839572193  L 11.8815789473685 42.6042780748663  Z " fill-rule="nonzero" fill="url(#LinearGradient1531)" stroke="none" transform="matrix(1 0 0 1 953 314 )" />
  </g>
</svg>