<?xml version="1.0" encoding="utf-8"?>
<svg version="1.1" xmlns:xlink="http://www.w3.org/1999/xlink" width="153px" height="236px" xmlns="http://www.w3.org/2000/svg">
  <defs>
    <linearGradient gradientUnits="userSpaceOnUse" x1="153" y1="118" x2="0" y2="118" id="LinearGradient1541">
      <stop id="Stop1542" stop-color="#450604" offset="0" />
      <stop id="Stop1543" stop-color="#641e20" offset="1" />
    </linearGradient>
  </defs>
  <g transform="matrix(1 0 0 1 -960 -308 )">
    <path d="M 12.3665413533835 46.3346065699007  L 0.862781954887251 68.8708938120703  L 32.4981203007519 91.4071810542399  L 38.9689849624061 109.436210847976  L 67.0093984962407 158  L 85.7030075187971 158  L 109.429511278196 158.114591291062  L 115.90037593985 150.001527883881  L 109.429511278196 195.07410236822  L 98.6447368421053 223.01909854851  L 115.90037593985 235  L 136.031954887218 235  L 152.568609022556 223.01909854851  L 146.097744360902 195.07410236822  L 141.783834586466 109.436210847976  L 146.097744360902 68.8708938120703  L 141.783834586466 46.3346065699007  L 136.031954887218 31.9113827349122  L 115.90037593985 1  L 91.4548872180451 1  L 51.9107142857144 9.37509549274257  L 32.4981203007519 26.5026737967915  L 12.3665413533835 46.3346065699007  Z " fill-rule="nonzero" fill="url(#LinearGradient1541)" stroke="none" transform="matrix(1 0 0 1 960 308 )" />
  </g>
</svg>