<?xml version="1.0" encoding="utf-8"?>
<svg version="1.1" xmlns:xlink="http://www.w3.org/1999/xlink" width="170px" height="261px" xmlns="http://www.w3.org/2000/svg">
  <defs>
    <linearGradient gradientUnits="userSpaceOnUse" x1="170" y1="130.5" x2="0" y2="130.5" id="LinearGradient1588">
      <stop id="Stop1589" stop-color="#450604" offset="0" />
      <stop id="Stop1590" stop-color="#641e20" offset="1" />
    </linearGradient>
  </defs>
  <g transform="matrix(1 0 0 1 -912 -234 )">
    <path d="M 13.7406015037595 51.2429335370512  L 0.95864661654139 76.16653934301  L 36.109022556391 101.090145148969  L 43.2988721804512 121.029029793736  L 74.4548872180452 174  L 95.2255639097745 174  L 121.588345864662 174.864018334607  L 128.778195488722 165.891520244461  L 121.588345864662 215.738731856379  L 109.605263157895 246.644003055768  L 128.778195488722 260  L 151.146616541353 260  L 169.520676691729 246.644003055768  L 162.330827067669 215.738731856379  L 157.537593984962 121.029029793736  L 162.330827067669 76.16653934301  L 157.537593984962 51.2429335370512  L 151.146616541353 35.2918258212376  L 128.778195488722 1  L 101.616541353383 1  L 57.6785714285715 10.3682200152789  L 36.109022556391 29.3101604278075  L 13.7406015037595 51.2429335370512  Z " fill-rule="nonzero" fill="url(#LinearGradient1588)" stroke="none" transform="matrix(1 0 0 1 912 234 )" />
  </g>
</svg>