<?xml version="1.0" encoding="utf-8"?>
<svg version="1.1" xmlns:xlink="http://www.w3.org/1999/xlink" width="180px" height="290px" xmlns="http://www.w3.org/2000/svg">
  <defs>
    <linearGradient gradientUnits="userSpaceOnUse" x1="180" y1="145" x2="0" y2="145" id="LinearGradient1528">
      <stop id="Stop1529" stop-color="#450604" offset="0" />
      <stop id="Stop1530" stop-color="#641e20" offset="1" />
    </linearGradient>
  </defs>
  <g transform="matrix(1 0 0 1 -910 -400 )">
    <path d="M 14.5488721804512 56.9365928189458  L 1.015037593985 84.6294881589  L 38.233082706767 112.322383498854  L 45.8458646616542 134.476699770817  L 78.8345864661655 194  L 100.827067669173 194  L 128.740601503759 194.293353705119  L 136.353383458647 184.323911382735  L 128.740601503759 239.709702062643  L 116.052631578947 274.048892284186  L 136.353383458647 289  L 160.037593984963 289  L 179.492481203008 274.048892284186  L 171.87969924812 239.709702062643  L 166.804511278196 134.476699770817  L 171.87969924812 84.6294881589  L 166.804511278196 56.9365928189458  L 160.037593984963 39.2131398013751  L 136.353383458647 1  L 107.593984962406 1  L 61.0714285714287 11.520244461421  L 38.233082706767 32.5668449197861  L 14.5488721804512 56.9365928189458  Z " fill-rule="nonzero" fill="url(#LinearGradient1528)" stroke="none" transform="matrix(1 0 0 1 910 400 )" />
  </g>
</svg>