<?xml version="1.0" encoding="utf-8"?>
<svg version="1.1" xmlns:xlink="http://www.w3.org/1999/xlink" width="166px" height="254px" xmlns="http://www.w3.org/2000/svg">
  <defs>
    <linearGradient gradientUnits="userSpaceOnUse" x1="166" y1="127" x2="0" y2="127" id="LinearGradient1538">
      <stop id="Stop1539" stop-color="#450604" offset="0" />
      <stop id="Stop1540" stop-color="#641e20" offset="1" />
    </linearGradient>
  </defs>
  <g transform="matrix(1 0 0 1 -915 -301 )">
    <path d="M 13.4172932330828 49.8686019862491  L 0.936090225563945 74.1237585943469  L 35.2593984962406 98.3789152024446  L 42.28007518797 117.783040488923  L 72.7030075187971 170  L 92.9849624060151 170  L 118.727443609023 170.174178762414  L 125.748120300752 161.442322383499  L 118.727443609023 209.952635599694  L 107.026315789474 240.029029793736  L 125.748120300752 253  L 147.59022556391 253  L 165.531954887218 240.029029793736  L 158.511278195489 209.952635599694  L 153.830827067669 117.783040488923  L 158.511278195489 74.1237585943469  L 153.830827067669 49.8686019862491  L 147.59022556391 34.3453017570665  L 125.748120300752 1  L 99.2255639097745 1  L 56.3214285714287 10.0901451489687  L 35.2593984962406 28.524064171123  L 13.4172932330828 49.8686019862491  Z " fill-rule="nonzero" fill="url(#LinearGradient1538)" stroke="none" transform="matrix(1 0 0 1 915 301 )" />
  </g>
</svg>