<?xml version="1.0" encoding="utf-8"?>
<svg version="1.1" xmlns:xlink="http://www.w3.org/1999/xlink" width="119px" height="147px" xmlns="http://www.w3.org/2000/svg">
  <defs>
    <linearGradient gradientUnits="userSpaceOnUse" x1="119" y1="73.5" x2="0" y2="73.5" id="LinearGradient1545">
      <stop id="Stop1546" stop-color="#450604" offset="0" />
      <stop id="Stop1547" stop-color="#641e20" offset="1" />
    </linearGradient>
  </defs>
  <g transform="matrix(1 0 0 1 -995 -362 )">
    <path d="M 9.61842105263162 28.8609625668449  L 0.671052631578973 42.8983957219252  L 25.2763157894737 56.9358288770054  L 30.3092105263158 68.1657754010695  L 52.1184210526317 98  L 66.6578947368422 98  L 85.1118421052632 98.4866310160428  L 90.1447368421053 93.4331550802139  L 85.1118421052632 121.508021390374  L 76.7236842105263 138.914438502674  L 90.1447368421053 146  L 105.802631578947 146  L 118.664473684211 138.914438502674  L 113.631578947368 121.508021390374  L 110.276315789474 68.1657754010695  L 113.631578947368 42.8983957219252  L 110.276315789474 28.8609625668449  L 105.802631578947 19.8770053475936  L 90.1447368421053 1  L 71.1315789473684 1  L 40.3750000000001 5.83957219251338  L 25.2763157894737 16.5080213903744  L 9.61842105263162 28.8609625668449  Z " fill-rule="nonzero" fill="url(#LinearGradient1545)" stroke="none" transform="matrix(1 0 0 1 995 362 )" />
  </g>
</svg>