<?xml version="1.0" encoding="utf-8"?>
<svg version="1.1" xmlns:xlink="http://www.w3.org/1999/xlink" width="112px" height="154px" xmlns="http://www.w3.org/2000/svg">
  <defs>
    <linearGradient gradientUnits="userSpaceOnUse" x1="112" y1="77" x2="0" y2="77" id="LinearGradient1566">
      <stop id="Stop1567" stop-color="#450604" offset="0" />
      <stop id="Stop1568" stop-color="#641e20" offset="1" />
    </linearGradient>
  </defs>
  <g transform="matrix(1 0 0 1 -230 -689 )">
    <path d="M 9.0526315789474 30.2352941176471  L 0.631578947368445 44.9411764705883  L 23.7894736842106 59.6470588235294  L 28.5263157894737 71.4117647058824  L 49.0526315789474 103  L 62.7368421052632 103  L 80.1052631578948 103.176470588235  L 84.8421052631579 97.8823529411765  L 80.1052631578948 127.294117647059  L 72.2105263157895 145.529411764706  L 84.8421052631579 153  L 99.5789473684211 153  L 111.684210526316 145.529411764706  L 106.947368421053 127.294117647059  L 103.789473684211 71.4117647058824  L 106.947368421053 44.9411764705883  L 103.789473684211 30.2352941176471  L 99.5789473684211 20.8235294117647  L 84.8421052631579 1  L 66.9473684210526 1  L 38.0000000000001 6.11764705882354  L 23.7894736842106 17.2941176470588  L 9.0526315789474 30.2352941176471  Z " fill-rule="nonzero" fill="url(#LinearGradient1566)" stroke="none" transform="matrix(1 0 0 1 230 689 )" />
  </g>
</svg>