<?xml version="1.0" encoding="utf-8"?>
<svg version="1.1" xmlns:xlink="http://www.w3.org/1999/xlink" width="357px" height="134px" xmlns="http://www.w3.org/2000/svg">
  <defs>
    <mask fill="white" id="clip1609">
      <path d="M 38 40  L 46.8 0.399999999999977  L 307.6 0.399999999999977  L 308 21  L 356.4 21  L 357 71.6  L 301.2 72  L 297.2 134  L 14.8 134  L 0.399999999999977 111.6  L 9.19999999999999 40  L 38 40  Z " fill-rule="evenodd" />
    </mask>
  </defs>
  <g transform="matrix(1 0 0 1 -498 -454 )">
    <path d="M 38 40  L 46.8 0.399999999999977  L 307.6 0.399999999999977  L 308 21  L 356.4 21  L 357 71.6  L 301.2 72  L 297.2 134  L 14.8 134  L 0.399999999999977 111.6  L 9.19999999999999 40  L 38 40  Z " fill-rule="nonzero" fill="#00ffff" stroke="none" fill-opacity="0.6" transform="matrix(1 0 0 1 498 454 )" />
    <path d="M 38 40  L 46.8 0.399999999999977  L 307.6 0.399999999999977  L 308 21  L 356.4 21  L 357 71.6  L 301.2 72  L 297.2 134  L 14.8 134  L 0.399999999999977 111.6  L 9.19999999999999 40  L 38 40  Z " stroke-width="2" stroke-dasharray="9,4" stroke="#0000ff" fill="none" transform="matrix(1 0 0 1 498 454 )" mask="url(#clip1609)" />
  </g>
</svg>