<?xml version="1.0" encoding="utf-8"?>
<svg version="1.1" xmlns:xlink="http://www.w3.org/1999/xlink" width="382px" height="136px" xmlns="http://www.w3.org/2000/svg">
  <defs>
    <mask fill="white" id="clip1606">
      <path d="M 328.333333333333 0  L 46.2820512820513 0.846153846153811  L 41.1538461538462 41.2307692307692  L 8.46153846153834 42  L 0.769230769230717 113.666666666667  L 14.2307692307693 135.461538461538  L 314.230769230769 135.461538461538  L 320 74  L 381.538461538461 74  L 381.538461538461 20  L 332.179487179487 20  L 328.333333333333 0  Z " fill-rule="evenodd" />
    </mask>
  </defs>
  <g transform="matrix(1 0 0 1 -1105 -453 )">
    <path d="M 328.333333333333 0  L 46.2820512820513 0.846153846153811  L 41.1538461538462 41.2307692307692  L 8.46153846153834 42  L 0.769230769230717 113.666666666667  L 14.2307692307693 135.461538461538  L 314.230769230769 135.461538461538  L 320 74  L 381.538461538461 74  L 381.538461538461 20  L 332.179487179487 20  L 328.333333333333 0  Z " fill-rule="nonzero" fill="#00ffff" stroke="none" fill-opacity="0.6" transform="matrix(1 0 0 1 1105 453 )" />
    <path d="M 328.333333333333 0  L 46.2820512820513 0.846153846153811  L 41.1538461538462 41.2307692307692  L 8.46153846153834 42  L 0.769230769230717 113.666666666667  L 14.2307692307693 135.461538461538  L 314.230769230769 135.461538461538  L 320 74  L 381.538461538461 74  L 381.538461538461 20  L 332.179487179487 20  L 328.333333333333 0  Z " stroke-width="2" stroke-dasharray="9,4" stroke="#0000ff" fill="none" transform="matrix(1 0 0 1 1105 453 )" mask="url(#clip1606)" />
  </g>
</svg>