<?xml version="1.0" encoding="utf-8"?>
<svg version="1.1" xmlns:xlink="http://www.w3.org/1999/xlink" width="32px" height="32px" xmlns="http://www.w3.org/2000/svg">
  <defs>
    <mask fill="white" id="clip1615">
      <path d="M 31.2457912457912 23.9191919191919  C 31.7485970819304 24.4219977553311  32 25.0325476992144  32 25.7508417508418  C 32 26.4691358024691  31.7485970819304 27.0796857463524  31.2457912457912 27.5824915824916  L 27.5824915824916 31.2457912457912  C 27.0796857463524 31.7485970819304  26.4691358024691 32  25.7508417508418 32  C 25.0325476992144 32  24.4219977553311 31.7485970819304  23.9191919191919 31.2457912457912  L 16 23.3265993265993  L 8.08080808080808 31.2457912457912  C 7.57800224466891 31.7485970819304  6.96745230078563 32  6.24915824915825 32  C 5.53086419753086 32  4.92031425364759 31.7485970819304  4.41750841750842 31.2457912457912  L 0.754208754208754 27.5824915824916  C 0.251402918069585 27.0796857463524  0 26.4691358024691  0 25.7508417508418  C 0 25.0325476992144  0.251402918069585 24.4219977553311  0.754208754208754 23.9191919191919  L 8.67340067340067 16  L 0.754208754208754 8.08080808080808  C 0.251402918069585 7.57800224466891  0 6.96745230078563  0 6.24915824915825  C 0 5.53086419753086  0.251402918069585 4.92031425364758  0.754208754208754 4.41750841750842  L 4.41750841750842 0.754208754208754  C 4.92031425364759 0.251402918069584  5.53086419753086 0  6.24915824915825 0  C 6.96745230078563 0  7.57800224466891 0.251402918069584  8.08080808080808 0.754208754208754  L 16 8.67340067340067  L 23.9191919191919 0.754208754208754  C 24.4219977553311 0.251402918069584  25.0325476992144 0  25.7508417508418 0  C 26.4691358024691 0  27.0796857463524 0.251402918069584  27.5824915824916 0.754208754208754  L 31.2457912457912 4.41750841750842  C 31.7485970819304 4.92031425364758  32 5.53086419753086  32 6.24915824915825  C 32 6.96745230078563  31.7485970819304 7.57800224466891  31.2457912457912 8.08080808080808  L 23.3265993265993 16  L 31.2457912457912 23.9191919191919  Z " fill-rule="evenodd" />
    </mask>
  </defs>
  <g transform="matrix(1 0 0 1 -1815 -146 )">
    <path d="M 31.2457912457912 23.9191919191919  C 31.7485970819304 24.4219977553311  32 25.0325476992144  32 25.7508417508418  C 32 26.4691358024691  31.7485970819304 27.0796857463524  31.2457912457912 27.5824915824916  L 27.5824915824916 31.2457912457912  C 27.0796857463524 31.7485970819304  26.4691358024691 32  25.7508417508418 32  C 25.0325476992144 32  24.4219977553311 31.7485970819304  23.9191919191919 31.2457912457912  L 16 23.3265993265993  L 8.08080808080808 31.2457912457912  C 7.57800224466891 31.7485970819304  6.96745230078563 32  6.24915824915825 32  C 5.53086419753086 32  4.92031425364759 31.7485970819304  4.41750841750842 31.2457912457912  L 0.754208754208754 27.5824915824916  C 0.251402918069585 27.0796857463524  0 26.4691358024691  0 25.7508417508418  C 0 25.0325476992144  0.251402918069585 24.4219977553311  0.754208754208754 23.9191919191919  L 8.67340067340067 16  L 0.754208754208754 8.08080808080808  C 0.251402918069585 7.57800224466891  0 6.96745230078563  0 6.24915824915825  C 0 5.53086419753086  0.251402918069585 4.92031425364758  0.754208754208754 4.41750841750842  L 4.41750841750842 0.754208754208754  C 4.92031425364759 0.251402918069584  5.53086419753086 0  6.24915824915825 0  C 6.96745230078563 0  7.57800224466891 0.251402918069584  8.08080808080808 0.754208754208754  L 16 8.67340067340067  L 23.9191919191919 0.754208754208754  C 24.4219977553311 0.251402918069584  25.0325476992144 0  25.7508417508418 0  C 26.4691358024691 0  27.0796857463524 0.251402918069584  27.5824915824916 0.754208754208754  L 31.2457912457912 4.41750841750842  C 31.7485970819304 4.92031425364758  32 5.53086419753086  32 6.24915824915825  C 32 6.96745230078563  31.7485970819304 7.57800224466891  31.2457912457912 8.08080808080808  L 23.3265993265993 16  L 31.2457912457912 23.9191919191919  Z " fill-rule="nonzero" fill="#d9001b" stroke="none" transform="matrix(1 0 0 1 1815 146 )" />
    <path d="M 31.2457912457912 23.9191919191919  C 31.7485970819304 24.4219977553311  32 25.0325476992144  32 25.7508417508418  C 32 26.4691358024691  31.7485970819304 27.0796857463524  31.2457912457912 27.5824915824916  L 27.5824915824916 31.2457912457912  C 27.0796857463524 31.7485970819304  26.4691358024691 32  25.7508417508418 32  C 25.0325476992144 32  24.4219977553311 31.7485970819304  23.9191919191919 31.2457912457912  L 16 23.3265993265993  L 8.08080808080808 31.2457912457912  C 7.57800224466891 31.7485970819304  6.96745230078563 32  6.24915824915825 32  C 5.53086419753086 32  4.92031425364759 31.7485970819304  4.41750841750842 31.2457912457912  L 0.754208754208754 27.5824915824916  C 0.251402918069585 27.0796857463524  0 26.4691358024691  0 25.7508417508418  C 0 25.0325476992144  0.251402918069585 24.4219977553311  0.754208754208754 23.9191919191919  L 8.67340067340067 16  L 0.754208754208754 8.08080808080808  C 0.251402918069585 7.57800224466891  0 6.96745230078563  0 6.24915824915825  C 0 5.53086419753086  0.251402918069585 4.92031425364758  0.754208754208754 4.41750841750842  L 4.41750841750842 0.754208754208754  C 4.92031425364759 0.251402918069584  5.53086419753086 0  6.24915824915825 0  C 6.96745230078563 0  7.57800224466891 0.251402918069584  8.08080808080808 0.754208754208754  L 16 8.67340067340067  L 23.9191919191919 0.754208754208754  C 24.4219977553311 0.251402918069584  25.0325476992144 0  25.7508417508418 0  C 26.4691358024691 0  27.0796857463524 0.251402918069584  27.5824915824916 0.754208754208754  L 31.2457912457912 4.41750841750842  C 31.7485970819304 4.92031425364758  32 5.53086419753086  32 6.24915824915825  C 32 6.96745230078563  31.7485970819304 7.57800224466891  31.2457912457912 8.08080808080808  L 23.3265993265993 16  L 31.2457912457912 23.9191919191919  Z " stroke-width="2" stroke="#d9001b" fill="none" transform="matrix(1 0 0 1 1815 146 )" mask="url(#clip1615)" />
  </g>
</svg>