<?xml version="1.0" encoding="utf-8"?>
<svg version="1.1" xmlns:xlink="http://www.w3.org/1999/xlink" width="75px" height="75px" xmlns="http://www.w3.org/2000/svg">
  <g transform="matrix(1 0 0 1 -923 -503 )">
    <path d="M 18.6767578125 5.029296875  C 24.4222005208333 1.67643229166666  30.6966145833333 0  37.5 0  C 44.3033854166667 0  50.5777994791667 1.67643229166666  56.3232421875 5.029296875  C 62.0686848958333 8.38216145833333  66.6178385416667 12.9313151041667  69.970703125 18.6767578125  C 73.3235677083333 24.4222005208333  75 30.6966145833333  75 37.5  C 75 44.3033854166667  73.3235677083333 50.5777994791667  69.970703125 56.3232421875  C 66.6178385416667 62.0686848958333  62.0686848958333 66.6178385416667  56.3232421875 69.970703125  C 50.5777994791667 73.3235677083333  44.3033854166667 75  37.5 75  C 30.6966145833333 75  24.4222005208333 73.3235677083333  18.6767578125 69.970703125  C 12.9313151041667 66.6178385416667  8.38216145833333 62.0686848958333  5.029296875 56.3232421875  C 1.67643229166667 50.5777994791667  0 44.3033854166667  0 37.5  C 0 30.6966145833333  1.67643229166667 24.4222005208333  5.029296875 18.6767578125  C 8.38216145833333 12.9313151041667  12.9313151041667 8.38216145833333  18.6767578125 5.029296875  Z M 29.6875 55.810546875  L 56.25 40.185546875  C 57.2916666666667 39.599609375  57.8125 38.7044270833333  57.8125 37.5  C 57.8125 36.2955729166667  57.2916666666667 35.400390625  56.25 34.814453125  L 29.6875 19.189453125  C 28.6783854166667 18.5709635416667  27.63671875 18.5546875  26.5625 19.140625  C 25.5208333333333 19.7591145833333  25 20.6705729166667  25 21.875  L 25 53.125  C 25 54.3294270833333  25.5208333333333 55.2408854166667  26.5625 55.859375  C 27.0833333333333 56.1197916666667  27.6041666666667 56.25  28.125 56.25  C 28.6783854166667 56.25  29.19921875 56.103515625  29.6875 55.810546875  Z " fill-rule="nonzero" fill="#333333" stroke="none" transform="matrix(1 0 0 1 923 503 )" />
  </g>
</svg>