<?xml version="1.0" encoding="utf-8"?>
<svg version="1.1" xmlns:xlink="http://www.w3.org/1999/xlink" width="100px" height="22px" xmlns="http://www.w3.org/2000/svg">
  <g transform="matrix(1 0 0 1 -260 -970 )">
    <path d="M 99.4212962962963 10.2704811443433  C 99.8070987654321 10.4612050281751  100 10.6805374945817  100 10.9284785435631  C 100 11.1954919809276  99.8070987654321 11.4243606415258  99.4212962962963 11.6150845253576  L 77.1990740740741 21.742522756827  C 76.5817901234568 22.0095361941916  75.9066358024691 22.0667533593411  75.1736111111111 21.9141742522757  C 74.4405864197531 21.742522756827  74.0740740740741 21.4659731252709  74.0740740740741 21.0845253576073  L 74.0740740740741 14.6762028608583  L 1.85185185185185 14.6762028608583  C 1.31172839506173 14.6762028608583  0.868055555555556 14.5903771131339  0.520833333333333 14.4187256176853  C 0.173611111111111 14.2470741222367  0 14.0277416558301  0 13.7607282184655  L 0 8.26788036410923  C 0 8.00086692674469  0.173611111111111 7.7815344603381  0.520833333333333 7.60988296488947  C 0.868055555555556 7.43823146944083  1.31172839506173 7.35240572171652  1.85185185185185 7.35240572171652  L 74.0740740740741 7.35240572171652  L 74.0740740740741 0.944083224967491  C 74.0740740740741 0.543563068920677  74.4405864197531 0.267013437364541  75.1736111111111 0.11443433029909  C 75.9066358024691 -0.0381447767663659  76.5817901234568 0.00953619419158902  77.1990740740741 0.257477243172952  L 99.4212962962963 10.2704811443433  Z " fill-rule="nonzero" fill="#80ffff" stroke="none" transform="matrix(1 0 0 1 260 970 )" />
  </g>
</svg>