<?xml version="1.0" encoding="utf-8"?>
<svg version="1.1" xmlns:xlink="http://www.w3.org/1999/xlink" width="179px" height="175px" xmlns="http://www.w3.org/2000/svg">
  <defs>
    <linearGradient gradientUnits="userSpaceOnUse" x1="179" y1="87.5" x2="0" y2="87.5" id="LinearGradient1616">
      <stop id="Stop1617" stop-color="#81353f" offset="0" />
      <stop id="Stop1618" stop-color="#6d2b33" offset="1" />
    </linearGradient>
  </defs>
  <g transform="matrix(1 0 0 1 -1481 -430 )">
    <path d="M 25.5156505616751 173.91975308642  L 36.5782891627584 175  L 178 173.91975308642  L 178 158.014985635531  L 171.282182717126 140.350570696483  L 164.774748245901 125.40375805575  L 159.568800668921 115.892150011647  L 151.75987930345 107.059942542123  L 151.75987930345 98.9071356471776  L 151.75987930345 92.7925304759686  L 141.998727596612 86.6779253047597  L 136.792780019631 77.8457178352356  L 136 69.0135103657116  L 136 56.7843000232937  L 136.792780019631 49.3108937029272  L 141.998727596612 37.7610839350881  L 141.998727596612 30.2876776147216  L 146.55393172647 18.7378678468825  L 146.55393172647 11.264461526516  L 141.998727596612 6.5086575044646  L 133.539062784018 1.07345290783444  L 127.031628312793 0  L 122.476424182935 0  L 122.476424182935 6.5086575044646  L 122.476424182935 12  L 112.064529028974 12  L 97.0974297451558 12  L 82.7810739084596 12  L 77.5751263314792 6.5086575044646  L 72.3691787544987 7  L 61.3065401534154 7  L 52.8468753408224 11.264461526516  L 48.9424146580869 23.4936718689339  L 52.8468753408224 30.2876776147216  L 61.3065401534154 30.2876776147216  L 67.1632311775183 37.7610839350881  L 72.3691787544987 42.5168879571395  L 67.1632311775183 42.5168879571395  L 67.1632311775183 49.3108937029272  L 61.3065401534154 52.7078965758211  L 61.3065401534154 60.8607034707664  L 61.3065401534154 69.0135103657116  L 52.8468753408224 77.8457178352356  L 43.7364670811064 86.6779253047597  L 43.7364670811064 92.7925304759686  L 36.5782891627584 98.9071356471776  L 25.5156505616751 107.059942542123  L 13.8022685134692 119.96855345912  L 13.8022685134692 125.40375805575  L 5.34260370087612 134.915366099852  L 0.136656123895665 140.350570696483  L 5.34260370087612 150.541579315164  L 13.8022685134692 158.014985635531  L 9.89780783073396 164.808991381318  L 18.357472643327 164.808991381318  L 25.5156505616751 173.91975308642  Z " fill-rule="nonzero" fill="url(#LinearGradient1616)" stroke="none" transform="matrix(1 0 0 1 1481 430 )" />
  </g>
</svg>