<?xml version="1.0" encoding="utf-8"?>
<svg version="1.1" xmlns:xlink="http://www.w3.org/1999/xlink" width="145px" height="184px" xmlns="http://www.w3.org/2000/svg">
  <defs>
    <mask fill="white" id="clip1380">
      <path d="M 374 781  L 374 597  L 504 597  C 512.325 597  519 603.675  519 612  L 519 766  C 519 774.325  512.325 781  504 781  " fill-rule="evenodd" />
    </mask>
  </defs>
  <g transform="matrix(1 0 0 1 -374 -597 )">
    <path d="M 374 597  L 519 597  L 519 781  L 374 781  L 374 597  " fill-rule="nonzero" fill="#cccccc" stroke="none" mask="url(#clip1380)" />
    <path d="M 384 607  L 509 607  L 509 771  L 384 771  L 384 607  " fill-rule="nonzero" fill="#ffffff" stroke="none" mask="url(#clip1380)" />
    <path d="M 460.275 646.35  C 454.185 646.35  449.4 641.565  449.4 635.475  C 449.4 629.385  454.185 624.6  460.275 624.6  C 466.365 624.6  471.15 629.385  471.15 635.475  C 471.15 641.565  466.365 646.35  460.275 646.35  " fill-rule="nonzero" fill="#cccccc" stroke="none" mask="url(#clip1380)" />
    <path d="M 388 768  L 388 681.65  L 417.5 642.4  L 458.8 673.8  L 482.4 665.95  L 506 673.8  L 506 768  L 388 768  " fill-rule="nonzero" fill="#169bd5" stroke="none" mask="url(#clip1380)" />
  </g>
</svg>