<?xml version="1.0" encoding="utf-8"?>
<svg version="1.1" xmlns:xlink="http://www.w3.org/1999/xlink" width="73px" height="184px" xmlns="http://www.w3.org/2000/svg">
  <defs>
    <mask fill="white" id="clip1384">
      <path d="M 447 330  L 447 146  L 505 146  C 513.325 146  520 152.675  520 161  L 520 315  C 520 323.325  513.325 330  505 330  " fill-rule="evenodd" />
    </mask>
  </defs>
  <g transform="matrix(1 0 0 1 -447 -146 )">
    <path d="M 447 146  L 520 146  L 520 330  L 447 330  L 447 146  " fill-rule="nonzero" fill="#cccccc" stroke="none" mask="url(#clip1384)" />
    <path d="M 452 151  L 515 151  L 515 325  L 452 325  L 452 151  " fill-rule="nonzero" fill="#ffffff" stroke="none" mask="url(#clip1384)" />
    <path d="M 490.435 184.55  C 487.369 184.55  484.96 182.141  484.96 179.075  C 484.96 176.009  487.369 173.6  490.435 173.6  C 493.501 173.6  495.91 176.009  495.91 179.075  C 495.91 182.141  493.501 184.55  490.435 184.55  " fill-rule="nonzero" fill="#cccccc" stroke="none" mask="url(#clip1384)" />
    <path d="M 454 323  L 454 229.5  L 468.75 187  L 489.4 221  L 501.2 212.5  L 513 221  L 513 323  L 454 323  " fill-rule="nonzero" fill="#169bd5" stroke="none" mask="url(#clip1384)" />
  </g>
</svg>