<?xml version="1.0" encoding="utf-8"?>
<svg version="1.1" xmlns:xlink="http://www.w3.org/1999/xlink" width="436px" height="184px" xmlns="http://www.w3.org/2000/svg">
  <g transform="matrix(1 0 0 1 -83 -146 )">
    <path d="M 93 161  A 5 5 0 0 1 98 156 L 504 156  A 5 5 0 0 1 509 161 L 509 315  A 5 5 0 0 1 504 320 L 98 320  A 5 5 0 0 1 93 315 L 93 161  Z " fill-rule="nonzero" fill="#ffffff" stroke="none" fill-opacity="0" />
    <path d="M 88 161  A 10 10 0 0 1 98 151 L 504 151  A 10 10 0 0 1 514 161 L 514 315  A 10 10 0 0 1 504 325 L 98 325  A 10 10 0 0 1 88 315 L 88 161  Z " stroke-width="10" stroke="#ec80db" fill="none" stroke-opacity="0.996078431372549" />
  </g>
</svg>