<?xml version="1.0" encoding="utf-8"?>
<svg version="1.1" xmlns:xlink="http://www.w3.org/1999/xlink" width="218px" height="184px" xmlns="http://www.w3.org/2000/svg">
  <defs>
    <mask fill="white" id="clip1410">
      <path d="M 98 1007  C 89.675 1007  83 1000.325  83 992  L 83 838  C 83 829.675  89.675 823  98 823  L 301 823  L 301 1007  " fill-rule="evenodd" />
    </mask>
  </defs>
  <g transform="matrix(1 0 0 1 -83 -823 )">
    <path d="M 83 823  L 301 823  L 301 1007  L 83 1007  L 83 823  " fill-rule="nonzero" fill="#cccccc" stroke="none" mask="url(#clip1410)" />
    <path d="M 96 836  L 288 836  L 288 994  L 96 994  L 96 836  " fill-rule="nonzero" fill="#ffffff" stroke="none" mask="url(#clip1410)" />
    <path d="M 210.16 878.2  C 202.432 878.2  196.36 872.128  196.36 864.4  C 196.36 856.672  202.432 850.6  210.16 850.6  C 217.888 850.6  223.96 856.672  223.96 864.4  C 223.96 872.128  217.888 878.2  210.16 878.2  " fill-rule="nonzero" fill="#cccccc" stroke="none" mask="url(#clip1410)" />
    <path d="M 101 990  L 101 908.05  L 146.75 870.8  L 210.8 914.543119266055  L 247.4 893.15  L 284 914.543119266055  L 284 990  L 101 990  " fill-rule="nonzero" fill="#169bd5" stroke="none" mask="url(#clip1410)" />
  </g>
</svg>