<?xml version="1.0" encoding="utf-8"?>
<svg version="1.1" xmlns:xlink="http://www.w3.org/1999/xlink" width="434px" height="182px" xmlns="http://www.w3.org/2000/svg">
  <defs>
    <linearGradient gradientUnits="userSpaceOnUse" x1="298" y1="554" x2="298" y2="372" id="LinearGradient1437">
      <stop id="Stop1438" stop-color="#ffffff" stop-opacity="0" offset="0" />
      <stop id="Stop1439" stop-color="#ffffff" stop-opacity="0.996078431372549" offset="1" />
    </linearGradient>
  </defs>
  <g transform="matrix(1 0 0 1 -81 -372 )">
    <path d="M 91 387  A 5 5 0 0 1 96 382 L 500 382  A 5 5 0 0 1 505 387 L 505 539  A 5 5 0 0 1 500 544 L 96 544  A 5 5 0 0 1 91 539 L 91 387  Z " fill-rule="nonzero" fill="url(#LinearGradient1437)" stroke="none" />
    <path d="M 86 387  A 10 10 0 0 1 96 377 L 500 377  A 10 10 0 0 1 510 387 L 510 539  A 10 10 0 0 1 500 549 L 96 549  A 10 10 0 0 1 86 539 L 86 387  Z " stroke-width="10" stroke="#ec80db" fill="none" stroke-opacity="0.996078431372549" />
  </g>
</svg>