<?xml version="1.0" encoding="utf-8"?>
<svg version="1.1" xmlns:xlink="http://www.w3.org/1999/xlink" width="217px" height="184px" xmlns="http://www.w3.org/2000/svg">
  <defs>
    <mask fill="white" id="clip1440">
      <path d="M 88 1007  C 79.675 1007  73 1000.325  73 992  L 73 838  C 73 829.675  79.675 823  88 823  L 290 823  L 290 1007  " fill-rule="evenodd" />
    </mask>
  </defs>
  <g transform="matrix(1 0 0 1 -73 -823 )">
    <path d="M 73 823  L 290 823  L 290 1007  L 73 1007  L 73 823  " fill-rule="nonzero" fill="#cccccc" stroke="none" mask="url(#clip1440)" />
    <path d="M 86 836  L 277 836  L 277 994  L 86 994  L 86 836  " fill-rule="nonzero" fill="#ffffff" stroke="none" mask="url(#clip1440)" />
    <path d="M 199.64 878.2  C 191.912 878.2  185.84 872.128  185.84 864.4  C 185.84 856.672  191.912 850.6  199.64 850.6  C 207.368 850.6  213.44 856.672  213.44 864.4  C 213.44 872.128  207.368 878.2  199.64 878.2  " fill-rule="nonzero" fill="#cccccc" stroke="none" mask="url(#clip1440)" />
    <path d="M 91 990  L 91 908.05  L 136.5 870.8  L 200.2 914.195391705069  L 236.6 893.15  L 273 914.195391705069  L 273 990  L 91 990  " fill-rule="nonzero" fill="#169bd5" stroke="none" mask="url(#clip1440)" />
  </g>
</svg>