<?xml version="1.0" encoding="utf-8"?>
<svg version="1.1" xmlns:xlink="http://www.w3.org/1999/xlink" width="435px" height="184px" xmlns="http://www.w3.org/2000/svg">
  <defs>
    <linearGradient gradientUnits="userSpaceOnUse" x1="290.5" y1="823" x2="290.5" y2="1007" id="LinearGradient1448">
      <stop id="Stop1449" stop-color="#ffffff" offset="0" />
      <stop id="Stop1450" stop-color="#fdfdfd" stop-opacity="0.149019607843137" offset="1" />
    </linearGradient>
  </defs>
  <g transform="matrix(1 0 0 1 -73 -823 )">
    <path d="M 83 838  A 5 5 0 0 1 88 833 L 493 833  A 5 5 0 0 1 498 838 L 498 992  A 5 5 0 0 1 493 997 L 88 997  A 5 5 0 0 1 83 992 L 83 838  Z " fill-rule="nonzero" fill="url(#LinearGradient1448)" stroke="none" />
    <path d="M 78 838  A 10 10 0 0 1 88 828 L 493 828  A 10 10 0 0 1 503 838 L 503 992  A 10 10 0 0 1 493 1002 L 88 1002  A 10 10 0 0 1 78 992 L 78 838  Z " stroke-width="10" stroke="#ec80db" fill="none" stroke-opacity="0.996078431372549" />
  </g>
</svg>