<?xml version="1.0" encoding="utf-8"?>
<svg version="1.1" xmlns:xlink="http://www.w3.org/1999/xlink" width="47px" height="38px" xmlns="http://www.w3.org/2000/svg">
  <g transform="matrix(1 0 0 1 -1860 -18 )">
    <path d="M 19.1237244897959 34.74921875  C 19.1037414965986 34.8580729166667  19.1237244897959 34.9916666666667  19.1836734693878 35.15  C 19.1836734693878 35.2291666666667  19.1936649659864 35.4270833333333  19.2136479591837 35.74375  C 19.233630952381 36.0604166666667  19.2386267006803 36.32265625  19.2286352040816 36.53046875  C 19.218643707483 36.73828125  19.1886692176871 36.9708333333333  19.1387117346939 37.228125  C 19.0887542517007 37.4854166666667  18.9888392857143 37.6783854166667  18.8389668367347 37.80703125  C 18.6890943877551 37.9356770833333  18.484268707483 38  18.2244897959184 38  L 8.63265306122449 38  C 6.2546768707483 38  4.22140731292517 37.1638020833333  2.5328443877551 35.49140625  C 0.844281462585034 33.8190104166667  0 31.8052083333333  0 29.45  L 0 8.55  C 0 6.19479166666666  0.844281462585034 4.18098958333333  2.5328443877551 2.50859375  C 4.22140731292517 0.836197916666661  6.2546768707483 0  8.63265306122449 0  L 18.2244897959184 0  C 18.484268707483 0  18.7090773809524 0.0940104166666613  18.8989158163265 0.282031250000001  C 19.0887542517007 0.470052083333332  19.1836734693878 0.692708333333332  19.1836734693878 0.950000000000001  C 19.1836734693878 1.02916666666666  19.1936649659864 1.22708333333333  19.2136479591837 1.54375  C 19.233630952381 1.86041666666666  19.2386267006803 2.12265625  19.2286352040816 2.33046875  C 19.218643707483 2.53828125  19.1886692176871 2.77083333333333  19.1387117346939 3.028125  C 19.0887542517007 3.28541666666666  18.9888392857143 3.47838541666666  18.8389668367347 3.60703125  C 18.6890943877551 3.73567708333333  18.484268707483 3.8  18.2244897959184 3.8  L 8.63265306122449 3.8  C 7.31377551020408 3.8  6.18473639455782 4.26510416666666  5.24553571428571 5.1953125  C 4.30633503401361 6.12552083333333  3.83673469387755 7.24375  4 8.55  L 4 29.45  C 3.83673469387755 30.75625  4.30633503401361 31.8744791666667  5.24553571428571 32.8046875  C 6.18473639455782 33.7348958333333  7.31377551020408 34.2  8.63265306122449 34.2  L 17.265306122449 34.2  L 17.5950255102041 34.2  L 17.984693877551 34.2  C 17.984693877551 34.2  18.0995960884354 34.2098958333333  18.3294005102041 34.2296875  C 18.5592049319728 34.2494791666667  18.6741071428571 34.2791666666667  18.6741071428571 34.31875  C 18.6741071428571 34.3583333333333  18.7540391156463 34.4127604166667  18.9139030612245 34.48203125  C 19.0737670068027 34.5513020833333  19.1437074829932 34.6403645833333  19.1237244897959 34.74921875  Z M 46.4304846938776 17.6640625  C 46.8101615646259 18.0401041666667  47 18.4854166666667  47 19  C 47 19.5145833333333  46.8101615646259 19.9598958333333  46.4304846938776 20.3359375  L 30.124362244898 36.4859375  C 29.7446853741497 36.8619791666667  29.2950680272109 37.05  28.7755102040816 37.05  C 28.2559523809524 37.05  27.8063350340136 36.8619791666667  27.4266581632653 36.4859375  C 27.046981292517 36.1098958333333  26.8571428571429 35.6645833333333  26.8571428571429 35.15  L 26.8571428571429 26  L 13.4285714285714 26  C 12.9090136054422 26.6  12.4593962585034 26.4119791666667  12.0797193877551 26.0359375  C 11.7000425170068 25.6598958333333  11.5102040816327 25.2145833333333  12 24.7  L 12 13.3  C 11.5102040816327 12.7854166666667  11.7000425170068 12.3401041666667  12.0797193877551 11.9640625  C 12.4593962585034 11.5880208333333  12.9090136054422 11.4  13.4285714285714 12  L 26.8571428571429 12  L 26.8571428571429 2.85  C 26.8571428571429 2.33541666666666  27.046981292517 1.89010416666666  27.4266581632653 1.5140625  C 27.8063350340136 1.13802083333333  28.2559523809524 0.950000000000001  28.7755102040816 0.950000000000001  C 29.2950680272109 0.950000000000001  29.7446853741497 1.13802083333333  30.124362244898 1.5140625  L 46.4304846938776 17.6640625  Z " fill-rule="nonzero" fill="#d7d7d7" stroke="none" fill-opacity="0.996078431372549" transform="matrix(1 0 0 1 1860 18 )" />
  </g>
</svg>