<?xml version="1.0" encoding="utf-8"?>
<svg version="1.1" xmlns:xlink="http://www.w3.org/1999/xlink" width="407px" height="575px" xmlns="http://www.w3.org/2000/svg">
  <defs>
    <mask fill="white" id="clip1479">
      <path d="M 342 735  C 333.675 735  327 728.325  327 720  L 327 175  C 327 166.675  333.675 160  342 160  L 719 160  C 727.325 160  734 166.675  734 175  L 734 720  C 734 728.325  727.325 735  719 735  " fill-rule="evenodd" />
    </mask>
  </defs>
  <g transform="matrix(1 0 0 1 -327 -160 )">
    <path d="M 327 160  L 734 160  L 734 735  L 327 735  L 327 160  " fill-rule="nonzero" fill="#cccccc" stroke="none" mask="url(#clip1479)" />
    <path d="M 355 188  L 706 188  L 706 707  L 355 707  L 355 188  " fill-rule="nonzero" fill="#ffffff" stroke="none" mask="url(#clip1479)" />
    <path d="M 569.165 307.3  C 552.071 307.3  538.64 293.869  538.64 276.775  C 538.64 259.681  552.071 246.25  569.165 246.25  C 586.259 246.25  599.69 259.681  599.69 276.775  C 599.69 293.869  586.259 307.3  569.165 307.3  " fill-rule="nonzero" fill="#cccccc" stroke="none" mask="url(#clip1479)" />
    <path d="M 365 697  L 365 422.55  L 447.75 297.8  L 563.6 397.6  L 629.8 372.65  L 696 397.6  L 696 697  L 365 697  " fill-rule="nonzero" fill="#169bd5" stroke="none" mask="url(#clip1479)" />
  </g>
</svg>