<?xml version="1.0" encoding="utf-8"?>
<svg version="1.1" xmlns:xlink="http://www.w3.org/1999/xlink" width="27px" height="22px" xmlns="http://www.w3.org/2000/svg">
  <g transform="matrix(1 0 0 1 -1827 -5 )">
    <path d="M 23.1189591078067 12.5689789555729  C 23.1301115241636 12.5918420368927  23.135687732342 12.6261366588724  23.135687732342 12.6718628215121  L 23.135687732342 20.9025720966485  C 23.135687732342 21.1997921538062  23.0297397769517 21.4570018186542  22.817843866171 21.6742010911925  C 22.6059479553903 21.8914003637308  22.3550185873606 22  22.0650557620818 22  L 15.6412639405204 22  L 15.6412639405204 15.4154325798909  L 11.3587360594796 15.4154325798909  L 11.3587360594796 22  L 4.93494423791822 22  C 4.64498141263941 22  4.39405204460967 21.8914003637308  4.182156133829 21.6742010911925  C 3.97026022304833 21.4570018186542  3.86431226765799 21.1997921538062  3.86431226765799 20.9025720966485  L 3.86431226765799 12.6718628215121  C 3.86431226765799 12.6604312808522  3.86710037174721 12.6432839698623  3.87267657992565 12.6204208885425  C 3.87825278810409 12.5975578072227  3.88104089219331 12.5804104962328  3.88104089219331 12.5689789555729  L 13.5 4.44115354637568  L 23.1189591078067 12.5689789555729  Z M 26.9832713754647 11.0857365549493  C 26.9944237918216 11.2400623538581  26.9553903345725 11.3743829566121  26.8661710037175 11.4886983632112  L 25.8289962825279 12.7575993764614  C 25.7397769516729 12.8604832424006  25.6226765799257 12.9233567160301  25.4776951672862 12.94621979735  L 25.4275092936803 12.94621979735  C 25.2825278810409 12.94621979735  25.1654275092937 12.9062094050403  25.0762081784387 12.8261886204209  L 13.5 2.93219017926734  L 1.92379182156134 12.8261886204209  C 1.78996282527881 12.9176409457002  1.65613382899628 12.9576513380099  1.52230483271375 12.94621979735  C 1.37732342007435 12.9233567160301  1.26022304832714 12.8604832424006  1.17100371747212 12.7575993764614  L 0.133828996282528 11.4886983632112  C 0.0446096654275093 11.3743829566121  0.0055762081784387 11.2400623538581  0.016728624535316 11.0857365549493  C 0.0278810408921934 10.9314107560405  0.0892193308550186 10.8085216939465  0.200743494423792 10.7170693686672  L 12.228624535316 0.445830085736556  C 12.5855018587361 0.148610028578849  13.0092936802974 0  13.5 0  C 13.9907063197026 0  14.4144981412639 0.148610028578849  14.771375464684 0.445830085736556  L 18.8531598513011 3.94388152766952  L 18.8531598513011 0.600155884645361  C 18.8531598513011 0.440114315406597  18.9033457249071 0.308651597817614  19.003717472119 0.205767731878411  C 19.1040892193309 0.102883865939206  19.2323420074349 0.0514419329696028  19.3884758364312 0.0514419329696028  L 22.6003717472119 0.0514419329696028  C 22.7565055762082 0.0514419329696028  22.8847583643123 0.102883865939206  22.9851301115242 0.205767731878411  C 23.0855018587361 0.308651597817614  23.135687732342 0.440114315406597  23.135687732342 0.600155884645361  L 23.135687732342 7.5962587685113  L 26.7992565055762 10.7170693686672  C 26.910780669145 10.8085216939465  26.9721189591078 10.9314107560405  26.9832713754647 11.0857365549493  Z " fill-rule="nonzero" fill="#7f7f7f" stroke="none" transform="matrix(1 0 0 1 1827 5 )" />
  </g>
</svg>