<?xml version="1.0" encoding="utf-8"?>
<svg version="1.1" xmlns:xlink="http://www.w3.org/1999/xlink" width="22px" height="24px" xmlns="http://www.w3.org/2000/svg">
  <g transform="matrix(1 0 0 1 -1881 -4 )">
    <path d="M 20.8470052083333 7.97596153846154  C 21.6156684027778 9.52403846153846  22 11.1730769230769  22 12.9230769230769  C 22 14.4230769230769  21.7087673611111 15.8557692307692  21.1263020833333 17.2211538461538  C 20.5438368055556 18.5865384615385  19.7608506944444 19.7644230769231  18.77734375 20.7548076923077  C 17.7938368055556 21.7451923076923  16.6241319444444 22.5336538461538  15.2682291666667 23.1201923076923  C 13.9123263888889 23.7067307692308  12.4895833333333 24  11 24  C 9.51041666666667 24  8.08767361111111 23.7067307692308  6.73177083333333 23.1201923076923  C 5.37586805555556 22.5336538461538  4.20616319444444 21.7451923076923  3.22265625 20.7548076923077  C 2.23914930555556 19.7644230769231  1.45616319444444 18.5865384615385  0.873697916666667 17.2211538461538  C 0.291232638888889 15.8557692307692  0 14.4230769230769  0 12.9230769230769  C 0 11.1730769230769  0.384331597222222 9.52403846153846  1.15299479166667 7.97596153846154  C 1.92165798611111 6.42788461538461  3.00303819444445 5.12980769230769  4.39713541666667 4.08173076923077  C 4.80772569444444 3.77403846153846  5.263671875 3.65384615384615  5.76497395833333 3.72115384615384  C 6.26627604166667 3.78846153846154  6.66493055555556 4.02884615384615  6.9609375 4.44230769230769  C 7.26649305555556 4.84615384615384  7.38346354166667 5.30048076923077  7.31184895833333 5.80528846153846  C 7.240234375 6.31009615384616  7.00390625 6.71634615384615  6.60286458333333 7.02403846153846  C 5.66710069444444 7.73557692307692  4.94379340277778 8.60576923076923  4.43294270833333 9.63461538461539  C 3.92209201388889 10.6634615384615  3.66666666666667 11.7596153846154  3.66666666666667 12.9230769230769  C 3.66666666666667 13.9230769230769  3.86002604166667 14.8774038461538  4.24674479166667 15.7860576923077  C 4.63346354166667 16.6947115384615  5.15625 17.4807692307692  5.81510416666667 18.1442307692308  C 6.47395833333333 18.8076923076923  7.25455729166667 19.3341346153846  8.15690104166667 19.7235576923077  C 9.05924479166667 20.1129807692308  10.0069444444444 20.3076923076923  11 20.3076923076923  C 11.9930555555556 20.3076923076923  12.9407552083333 20.1129807692308  13.8430989583333 19.7235576923077  C 14.7454427083333 19.3341346153846  15.5260416666667 18.8076923076923  16.1848958333333 18.1442307692308  C 16.84375 17.4807692307692  17.3665364583333 16.6947115384615  17.7532552083333 15.7860576923077  C 18.1399739583333 14.8774038461538  18.3333333333333 13.9230769230769  18.3333333333333 12.9230769230769  C 18.3333333333333 11.7596153846154  18.0779079861111 10.6634615384615  17.5670572916667 9.63461538461539  C 17.0562065972222 8.60576923076923  16.3328993055556 7.73557692307692  15.3971354166667 7.02403846153846  C 14.99609375 6.71634615384615  14.759765625 6.31009615384616  14.6881510416667 5.80528846153846  C 14.6165364583333 5.30048076923077  14.7335069444444 4.84615384615384  15.0390625 4.44230769230769  C 15.3350694444444 4.02884615384615  15.7361111111111 3.78846153846154  16.2421875 3.72115384615384  C 16.7482638888889 3.65384615384615  17.2018229166667 3.77403846153846  17.6028645833333 4.08173076923077  C 18.9969618055556 5.12980769230769  20.0783420138889 6.42788461538461  20.8470052083333 7.97596153846154  Z M 12.2890625 0.548076923076922  C 12.6519097222222 0.913461538461537  12.8333333333333 1.34615384615384  12.8333333333333 1.84615384615384  L 12.8333333333333 11.0769230769231  C 12.8333333333333 11.5769230769231  12.6519097222222 12.0096153846154  12.2890625 12.375  C 11.9262152777778 12.7403846153846  11.4965277777778 12.9230769230769  11 12.9230769230769  C 10.5034722222222 12.9230769230769  10.0737847222222 12.7403846153846  9.7109375 12.375  C 9.34809027777778 12.0096153846154  9.16666666666667 11.5769230769231  9.16666666666667 11.0769230769231  L 9.16666666666667 1.84615384615384  C 9.16666666666667 1.34615384615384  9.34809027777778 0.913461538461537  9.7109375 0.548076923076922  C 10.0737847222222 0.182692307692308  10.5034722222222 0  11 0  C 11.4965277777778 0  11.9262152777778 0.182692307692308  12.2890625 0.548076923076922  Z " fill-rule="nonzero" fill="#7f7f7f" stroke="none" transform="matrix(1 0 0 1 1881 4 )" />
  </g>
</svg>