<?xml version="1.0" encoding="utf-8"?>
<svg version="1.1" xmlns:xlink="http://www.w3.org/1999/xlink" width="28px" height="50px" xmlns="http://www.w3.org/2000/svg">
  <g transform="matrix(1 0 0 1 -90 -705 )">
    <path d="M 27.0763888888889 0.927734375  C 27.6921296296296 1.54622395833333  28 2.27864583333333  28 3.125  L 28 46.875  C 28 47.7213541666667  27.6921296296296 48.4537760416667  27.0763888888889 49.072265625  C 26.4606481481482 49.6907552083333  25.7314814814815 50  24.8888888888889 50  C 24.0462962962963 50  23.3171296296296 49.6907552083333  22.7013888888889 49.072265625  L 0.923611111111111 27.197265625  C 0.307870370370371 26.5787760416667  0 25.8463541666667  0 25  C 0 24.1536458333333  0.307870370370371 23.4212239583333  0.923611111111111 22.802734375  L 22.7013888888889 0.927734375  C 23.3171296296296 0.309244791666663  24.0462962962963 0  24.8888888888889 0  C 25.7314814814815 0  26.4606481481482 0.309244791666663  27.0763888888889 0.927734375  Z " fill-rule="nonzero" fill="#555555" stroke="none" transform="matrix(1 0 0 1 90 705 )" />
  </g>
</svg>