<?xml version="1.0" encoding="utf-8"?>
<svg version="1.1" xmlns:xlink="http://www.w3.org/1999/xlink" width="342px" height="36px" xmlns="http://www.w3.org/2000/svg">
  <g transform="matrix(1 0 0 1 -139 -58 )">
    <path d="M 468.158669775502 59  C 468.158669775502 59  469.704219649379 59.0813447302041  469.704219649379 59.0813447302041  C 469.704219649379 59.0813447302041  479.963404227872 76  479.963404227872 76  C 479.963404227872 76  469.704219649379 92.9186552697959  469.704219649379 92.9186552697959  C 469.704219649379 92.9186552697959  468.158669775502 93  468.158669775502 93  C 468.158669775502 93  140 93  140 93  C 140 93  140 59  140 59  C 140 59  468.158669775502 59  468.158669775502 59  Z " fill-rule="nonzero" fill="#7f7f7f" stroke="none" fill-opacity="0.996078431372549" />
    <path d="M 467.379334887751 58.5  C 467.379334887751 58.5  469.952109824689 58.6354092072073  469.952109824689 58.6354092072073  C 469.952109824689 58.6354092072073  480.481702113936 76  480.481702113936 76  C 480.481702113936 76  469.952109824689 93.3645907927927  469.952109824689 93.3645907927927  C 469.952109824689 93.3645907927927  467.379334887751 93.5  467.379334887751 93.5  C 467.379334887751 93.5  139.5 93.5  139.5 93.5  C 139.5 93.5  139.5 58.5  139.5 58.5  C 139.5 58.5  467.379334887751 58.5  467.379334887751 58.5  Z " stroke-width="1" stroke="#aaaaaa" fill="none" stroke-opacity="0.996078431372549" />
  </g>
</svg>