<?xml version="1.0" encoding="utf-8"?>
<svg version="1.1" xmlns:xlink="http://www.w3.org/1999/xlink" width="140px" height="62px" xmlns="http://www.w3.org/2000/svg">
  <g transform="matrix(1 0 0 1 -610 -251 )">
    <path d="M 139.189814814815 28.9440832249675  C 139.729938271605 29.4815778066753  140 30.0996965756394  140 30.7984395318596  C 140 31.5509319462505  139.729938271605 32.1959254443  139.189814814815 32.7334200260078  L 108.078703703704 61.2743823146944  C 107.21450617284 62.0268747290854  106.269290123457 62.1881231035977  105.243055555556 61.7581274382315  C 104.216820987654 61.2743823146944  103.703703703704 60.495015171218  103 59.4200260078023  L 103 41  L 2.59259259259259 41  C 1.83641975308642 41.3602080624187  1.21527777777778 41.1183355006502  0.729166666666667 40.6345903771131  C 0.243055555555556 40.1508452535761  0 39.532726484612  0 38.7802340702211  L 0 23.3003901170351  C 0 22.5478977026441  0.243055555555556 21.9297789336801  0.729166666666667 21.446033810143  C 1.21527777777778 20.962288686606  1.83641975308642 20.7204161248374  2.59259259259259 21  L 103 21  L 103 2.66059817945384  C 103.703703703704 1.53185955786736  104.216820987654 0.75249241439098  105.243055555556 0.322496749024709  C 106.269290123457 -0.107498916341576  107.21450617284 0.0268747290853872  108.078703703704 0.725617685305593  L 139.189814814815 28.9440832249675  Z " fill-rule="nonzero" fill="#00ffff" stroke="none" transform="matrix(1 0 0 1 610 251 )" />
  </g>
</svg>