<?xml version="1.0" encoding="utf-8"?>
<svg version="1.1" xmlns:xlink="http://www.w3.org/1999/xlink" width="115px" height="79px" xmlns="http://www.w3.org/2000/svg">
  <defs>
    <mask fill="white" id="clip1511">
      <path d="M 3.02936096718361 40.1951640759918  L 0.0932642487047133 36.7409326424871  L 0.0932642487047133 32.0777202072539  L 30.4905008635566 19.9879101899815  L 35 13.9430051813472  L 35 0.816925734022959  L 37.2262521588934 0.816925734022959  L 38.7806563039711 13.9430051813472  L 72.1139896373057 2.54404145077723  L 87.8307426597557 0  L 99.0569948186529 0  L 100.784110535403 2.54404145077723  L 94.2210708117432 5.65284974093265  L 61.578583765111 13.9430051813472  L 45.8618307426573 24.1329879101887  L 37.2262521588934 28.7962003454219  L 38.7806563039711 33.8048359240082  L 45.8618307426573 28.7962003454219  L 45.8618307426573 32.0777202072539  L 40.3350604490489 37  L 38.7806563039711 40.1951640759918  L 42.0621761658032 43.1312607944745  L 59.6787564766839 46.9309153713286  L 87.8307426597557 53.3212435233161  L 109.246977547494 66.6200345423131  L 114.255613126077 76.119170984456  L 114.255613126077 78.7098445595855  L 103.20207253886 74.2193436960289  L 89.55785837651 66.6200345423131  L 73.4956822107068 58.6753022452517  L 54.4974093264249 55.9119170984456  L 38.7806563039711 53.3212435233161  L 37.2262521588934 63.1658031088083  L 37.2262521588934 65.2383419689119  L 34.4628670120874 63.1658031088083  L 32.3903281519837 55.9119170984456  L 32.3903281519837 53.3212435233161  L 28.7633851468023 49.5215889464582  L 26.8635578583753 43.1312607944745  L 22.5457685664915 40.1951640759918  L 13.737478411051 40.1951640759918  L 7.51986183074018 40.1951640759918  L 3.02936096718361 40.1951640759918  Z " fill-rule="evenodd" />
    </mask>
  </defs>
  <g transform="matrix(1 0 0 1 -738 -483 )">
    <path d="M 3.02936096718361 40.1951640759918  L 0.0932642487047133 36.7409326424871  L 0.0932642487047133 32.0777202072539  L 30.4905008635566 19.9879101899815  L 35 13.9430051813472  L 35 0.816925734022959  L 37.2262521588934 0.816925734022959  L 38.7806563039711 13.9430051813472  L 72.1139896373057 2.54404145077723  L 87.8307426597557 0  L 99.0569948186529 0  L 100.784110535403 2.54404145077723  L 94.2210708117432 5.65284974093265  L 61.578583765111 13.9430051813472  L 45.8618307426573 24.1329879101887  L 37.2262521588934 28.7962003454219  L 38.7806563039711 33.8048359240082  L 45.8618307426573 28.7962003454219  L 45.8618307426573 32.0777202072539  L 40.3350604490489 37  L 38.7806563039711 40.1951640759918  L 42.0621761658032 43.1312607944745  L 59.6787564766839 46.9309153713286  L 87.8307426597557 53.3212435233161  L 109.246977547494 66.6200345423131  L 114.255613126077 76.119170984456  L 114.255613126077 78.7098445595855  L 103.20207253886 74.2193436960289  L 89.55785837651 66.6200345423131  L 73.4956822107068 58.6753022452517  L 54.4974093264249 55.9119170984456  L 38.7806563039711 53.3212435233161  L 37.2262521588934 63.1658031088083  L 37.2262521588934 65.2383419689119  L 34.4628670120874 63.1658031088083  L 32.3903281519837 55.9119170984456  L 32.3903281519837 53.3212435233161  L 28.7633851468023 49.5215889464582  L 26.8635578583753 43.1312607944745  L 22.5457685664915 40.1951640759918  L 13.737478411051 40.1951640759918  L 7.51986183074018 40.1951640759918  L 3.02936096718361 40.1951640759918  Z " fill-rule="nonzero" fill="#ffffff" stroke="none" fill-opacity="0" transform="matrix(1 0 0 1 738 483 )" />
    <path d="M 3.02936096718361 40.1951640759918  L 0.0932642487047133 36.7409326424871  L 0.0932642487047133 32.0777202072539  L 30.4905008635566 19.9879101899815  L 35 13.9430051813472  L 35 0.816925734022959  L 37.2262521588934 0.816925734022959  L 38.7806563039711 13.9430051813472  L 72.1139896373057 2.54404145077723  L 87.8307426597557 0  L 99.0569948186529 0  L 100.784110535403 2.54404145077723  L 94.2210708117432 5.65284974093265  L 61.578583765111 13.9430051813472  L 45.8618307426573 24.1329879101887  L 37.2262521588934 28.7962003454219  L 38.7806563039711 33.8048359240082  L 45.8618307426573 28.7962003454219  L 45.8618307426573 32.0777202072539  L 40.3350604490489 37  L 38.7806563039711 40.1951640759918  L 42.0621761658032 43.1312607944745  L 59.6787564766839 46.9309153713286  L 87.8307426597557 53.3212435233161  L 109.246977547494 66.6200345423131  L 114.255613126077 76.119170984456  L 114.255613126077 78.7098445595855  L 103.20207253886 74.2193436960289  L 89.55785837651 66.6200345423131  L 73.4956822107068 58.6753022452517  L 54.4974093264249 55.9119170984456  L 38.7806563039711 53.3212435233161  L 37.2262521588934 63.1658031088083  L 37.2262521588934 65.2383419689119  L 34.4628670120874 63.1658031088083  L 32.3903281519837 55.9119170984456  L 32.3903281519837 53.3212435233161  L 28.7633851468023 49.5215889464582  L 26.8635578583753 43.1312607944745  L 22.5457685664915 40.1951640759918  L 13.737478411051 40.1951640759918  L 7.51986183074018 40.1951640759918  L 3.02936096718361 40.1951640759918  Z " stroke-width="6" stroke="#00ffff" fill="none" transform="matrix(1 0 0 1 738 483 )" mask="url(#clip1511)" />
  </g>
</svg>