<?xml version="1.0" encoding="utf-8"?>
<svg version="1.1" xmlns:xlink="http://www.w3.org/1999/xlink" width="47px" height="30px" xmlns="http://www.w3.org/2000/svg">
  <defs>
    <mask fill="white" id="clip1514">
      <path d="M 47 11.1542513167785  L 44.7870579383006 7.09104589917126  L 37.7140707298711 7.09104589917126  L 30.7915726109868 2.12490594431796  L 22.2136945071494 2  L 17.097065462754 0.469525959367957  L 10.4755455229507 2.12490594431796  L 4.15500376222838 8  L 0.242287434159948 15.2174567343857  L 0.242287434159948 22.4409330323541  L 7.46576373212838 29.0624529721607  L 13.1843491346889 30  L 19.3544018058691 30  L 26.1264108352145 26.9556057185843  L 30.7915726109868 23.9458239277653  L 36.2091798344632 20.183596689239  L 39.0684725357401 17.0233258088778  L 43.1316779533473 15.2174567343857  L 46.7434161023315 12.9601203912706  L 47 11.1542513167785  Z " fill-rule="evenodd" />
    </mask>
  </defs>
  <g transform="matrix(1 0 0 1 -696 -514 )">
    <path d="M 47 11.1542513167785  L 44.7870579383006 7.09104589917126  L 37.7140707298711 7.09104589917126  L 30.7915726109868 2.12490594431796  L 22.2136945071494 2  L 17.097065462754 0.469525959367957  L 10.4755455229507 2.12490594431796  L 4.15500376222838 8  L 0.242287434159948 15.2174567343857  L 0.242287434159948 22.4409330323541  L 7.46576373212838 29.0624529721607  L 13.1843491346889 30  L 19.3544018058691 30  L 26.1264108352145 26.9556057185843  L 30.7915726109868 23.9458239277653  L 36.2091798344632 20.183596689239  L 39.0684725357401 17.0233258088778  L 43.1316779533473 15.2174567343857  L 46.7434161023315 12.9601203912706  L 47 11.1542513167785  Z " fill-rule="nonzero" fill="#ffffff" stroke="none" fill-opacity="0" transform="matrix(1 0 0 1 696 514 )" />
    <path d="M 47 11.1542513167785  L 44.7870579383006 7.09104589917126  L 37.7140707298711 7.09104589917126  L 30.7915726109868 2.12490594431796  L 22.2136945071494 2  L 17.097065462754 0.469525959367957  L 10.4755455229507 2.12490594431796  L 4.15500376222838 8  L 0.242287434159948 15.2174567343857  L 0.242287434159948 22.4409330323541  L 7.46576373212838 29.0624529721607  L 13.1843491346889 30  L 19.3544018058691 30  L 26.1264108352145 26.9556057185843  L 30.7915726109868 23.9458239277653  L 36.2091798344632 20.183596689239  L 39.0684725357401 17.0233258088778  L 43.1316779533473 15.2174567343857  L 46.7434161023315 12.9601203912706  L 47 11.1542513167785  Z " stroke-width="6" stroke="#00ffff" fill="none" transform="matrix(1 0 0 1 696 514 )" mask="url(#clip1514)" />
  </g>
</svg>