<?xml version="1.0" encoding="utf-8"?>
<svg version="1.1" xmlns:xlink="http://www.w3.org/1999/xlink" width="65px" height="295px" xmlns="http://www.w3.org/2000/svg">
  <defs>
    <mask fill="white" id="clip1513">
      <path d="M 63.3508005822395 0.280931586609483  L 41.6893542757405 8.28446771378839  L 21.0959860383957 23.9912739965109  L 5.73821989528801 52.2635253054114  L 0.502617801047109 107.41186736475  L 9.92670157068062 147.20244328098  L 21.0959860383957 194.322862129147  L 26.3315881326365 211.774869109948  L 26.3315881326365 215.614310645726  L 26.3315881326365 222.246073298429  L 29.8219895287958 231.670157068063  L 32.9633507853404 250.51832460733  L 38.1989528795812 257.848167539267  L 38.1989528795812 261.33856893543  L 33 264.130890052356  L 33 279.837696335079  L 32.9633507853404 288.563699825482  L 32.9633507853404 294.497382198953  L 46.5759162303665 294.497382198953  L 47 272.85689354276  L 46.5759162303665 261.33856893543  L 41 217.880407124681  L 41 207.447837150128  L 35.5165394402045 186.837150127227  L 29.8219895287958 157.692810457518  L 21.0959860383957 119  L 17.3071895424847 93.640522875818  L 21.0959860383957 55.7320261437928  L 38.1989528795812 30.3725490196078  L 46.5759162303665 21.2222222222242  L 58.3529411764706 16.7777777777787  L 64.8064046579319 16.7777777777787  L 63.3508005822395 14.5458515283843  L 63.3508005822395 0.280931586609483  Z " fill-rule="evenodd" />
    </mask>
  </defs>
  <g transform="matrix(1 0 0 1 -658 -531 )">
    <path d="M 63.3508005822395 0.280931586609483  L 41.6893542757405 8.28446771378839  L 21.0959860383957 23.9912739965109  L 5.73821989528801 52.2635253054114  L 0.502617801047109 107.41186736475  L 9.92670157068062 147.20244328098  L 21.0959860383957 194.322862129147  L 26.3315881326365 211.774869109948  L 26.3315881326365 215.614310645726  L 26.3315881326365 222.246073298429  L 29.8219895287958 231.670157068063  L 32.9633507853404 250.51832460733  L 38.1989528795812 257.848167539267  L 38.1989528795812 261.33856893543  L 33 264.130890052356  L 33 279.837696335079  L 32.9633507853404 288.563699825482  L 32.9633507853404 294.497382198953  L 46.5759162303665 294.497382198953  L 47 272.85689354276  L 46.5759162303665 261.33856893543  L 41 217.880407124681  L 41 207.447837150128  L 35.5165394402045 186.837150127227  L 29.8219895287958 157.692810457518  L 21.0959860383957 119  L 17.3071895424847 93.640522875818  L 21.0959860383957 55.7320261437928  L 38.1989528795812 30.3725490196078  L 46.5759162303665 21.2222222222242  L 58.3529411764706 16.7777777777787  L 64.8064046579319 16.7777777777787  L 63.3508005822395 14.5458515283843  L 63.3508005822395 0.280931586609483  Z " fill-rule="nonzero" fill="#ffffff" stroke="none" fill-opacity="0" transform="matrix(1 0 0 1 658 531 )" />
    <path d="M 63.3508005822395 0.280931586609483  L 41.6893542757405 8.28446771378839  L 21.0959860383957 23.9912739965109  L 5.73821989528801 52.2635253054114  L 0.502617801047109 107.41186736475  L 9.92670157068062 147.20244328098  L 21.0959860383957 194.322862129147  L 26.3315881326365 211.774869109948  L 26.3315881326365 215.614310645726  L 26.3315881326365 222.246073298429  L 29.8219895287958 231.670157068063  L 32.9633507853404 250.51832460733  L 38.1989528795812 257.848167539267  L 38.1989528795812 261.33856893543  L 33 264.130890052356  L 33 279.837696335079  L 32.9633507853404 288.563699825482  L 32.9633507853404 294.497382198953  L 46.5759162303665 294.497382198953  L 47 272.85689354276  L 46.5759162303665 261.33856893543  L 41 217.880407124681  L 41 207.447837150128  L 35.5165394402045 186.837150127227  L 29.8219895287958 157.692810457518  L 21.0959860383957 119  L 17.3071895424847 93.640522875818  L 21.0959860383957 55.7320261437928  L 38.1989528795812 30.3725490196078  L 46.5759162303665 21.2222222222242  L 58.3529411764706 16.7777777777787  L 64.8064046579319 16.7777777777787  L 63.3508005822395 14.5458515283843  L 63.3508005822395 0.280931586609483  Z " stroke-width="6" stroke="#00ffff" fill="none" transform="matrix(1 0 0 1 658 531 )" mask="url(#clip1513)" />
  </g>
</svg>