<?xml version="1.0" encoding="utf-8"?>
<svg version="1.1" xmlns:xlink="http://www.w3.org/1999/xlink" width="113px" height="303px" xmlns="http://www.w3.org/2000/svg">
  <defs>
    <mask fill="white" id="clip1512">
      <path d="M 80.4438305708997 0.679245283018872  L 37.125786163522 0.679245283018872  L 26.2243186582793 8.64570230607814  L 8.61425576519764 15.7735849056604  L 0.228511530399828 39.2536687631019  L 4 134.012578616352  L 4 190.197064989519  L 9 243.865828092242  L 9 279.924528301887  L 16.171270718232 290.268876611417  L 30.167587476977 298.740331491713  L 39.7440147329636 299  L 58.8968692449329 302.60773480663  L 69.7624309392265 302.60773480663  L 80.4438305708997 298.740331491713  L 85.7845303867404 293.21546961326  L 95.1767955801105 285.296500920809  L 98.4917127071823 279.924528301887  L 101 272.589318600367  L 101 256.198895027624  L 105.469601677152 203.194968553459  L 112.178197064986 90.4067085953863  L 113 23.7400419287196  L 105.469601677152 15.7735849056604  L 80.4438305708997 0.679245283018872  Z " fill-rule="evenodd" />
    </mask>
  </defs>
  <g transform="matrix(1 0 0 1 -697 -558 )">
    <path d="M 80.4438305708997 0.679245283018872  L 37.125786163522 0.679245283018872  L 26.2243186582793 8.64570230607814  L 8.61425576519764 15.7735849056604  L 0.228511530399828 39.2536687631019  L 4 134.012578616352  L 4 190.197064989519  L 9 243.865828092242  L 9 279.924528301887  L 16.171270718232 290.268876611417  L 30.167587476977 298.740331491713  L 39.7440147329636 299  L 58.8968692449329 302.60773480663  L 69.7624309392265 302.60773480663  L 80.4438305708997 298.740331491713  L 85.7845303867404 293.21546961326  L 95.1767955801105 285.296500920809  L 98.4917127071823 279.924528301887  L 101 272.589318600367  L 101 256.198895027624  L 105.469601677152 203.194968553459  L 112.178197064986 90.4067085953863  L 113 23.7400419287196  L 105.469601677152 15.7735849056604  L 80.4438305708997 0.679245283018872  Z " fill-rule="nonzero" fill="#ffffff" stroke="none" fill-opacity="0" transform="matrix(1 0 0 1 697 558 )" />
    <path d="M 80.4438305708997 0.679245283018872  L 37.125786163522 0.679245283018872  L 26.2243186582793 8.64570230607814  L 8.61425576519764 15.7735849056604  L 0.228511530399828 39.2536687631019  L 4 134.012578616352  L 4 190.197064989519  L 9 243.865828092242  L 9 279.924528301887  L 16.171270718232 290.268876611417  L 30.167587476977 298.740331491713  L 39.7440147329636 299  L 58.8968692449329 302.60773480663  L 69.7624309392265 302.60773480663  L 80.4438305708997 298.740331491713  L 85.7845303867404 293.21546961326  L 95.1767955801105 285.296500920809  L 98.4917127071823 279.924528301887  L 101 272.589318600367  L 101 256.198895027624  L 105.469601677152 203.194968553459  L 112.178197064986 90.4067085953863  L 113 23.7400419287196  L 105.469601677152 15.7735849056604  L 80.4438305708997 0.679245283018872  Z " stroke-width="6" stroke="#00ffff" fill="none" transform="matrix(1 0 0 1 697 558 )" mask="url(#clip1512)" />
  </g>
</svg>