<?xml version="1.0" encoding="utf-8"?>
<svg version="1.1" xmlns:xlink="http://www.w3.org/1999/xlink" width="15px" height="32px" xmlns="http://www.w3.org/2000/svg">
  <defs>
    <mask fill="white" id="clip1517">
      <path d="M 2.55813953488382 22.3964562569215  L 0 1.13399778516066  L 12.7906976744187 0  L 14.8837209302326 24.1683277962348  L 12.7906976744187 18.1439645625692  L 8.83720930232562 15.3089700996678  L 6.2790697674418 18.1439645625692  L 6.2790697674418 26.2945736434109  L 6.2790697674418 31.2558139534884  L 2.55813953488382 22.3964562569215  Z " fill-rule="evenodd" />
    </mask>
  </defs>
  <g transform="matrix(1 0 0 1 -1031 -665 )">
    <path d="M 2.55813953488382 22.3964562569215  L 0 1.13399778516066  L 12.7906976744187 0  L 14.8837209302326 24.1683277962348  L 12.7906976744187 18.1439645625692  L 8.83720930232562 15.3089700996678  L 6.2790697674418 18.1439645625692  L 6.2790697674418 26.2945736434109  L 6.2790697674418 31.2558139534884  L 2.55813953488382 22.3964562569215  Z " fill-rule="nonzero" fill="#00ffff" stroke="none" fill-opacity="0" transform="matrix(1 0 0 1 1031 665 )" />
    <path d="M 2.55813953488382 22.3964562569215  L 0 1.13399778516066  L 12.7906976744187 0  L 14.8837209302326 24.1683277962348  L 12.7906976744187 18.1439645625692  L 8.83720930232562 15.3089700996678  L 6.2790697674418 18.1439645625692  L 6.2790697674418 26.2945736434109  L 6.2790697674418 31.2558139534884  L 2.55813953488382 22.3964562569215  Z " stroke-width="4" stroke="#00ffff" fill="none" transform="matrix(1 0 0 1 1031 665 )" mask="url(#clip1517)" />
  </g>
</svg>