<?xml version="1.0" encoding="utf-8"?>
<svg version="1.1" xmlns:xlink="http://www.w3.org/1999/xlink" width="100px" height="44px" xmlns="http://www.w3.org/2000/svg">
  <g transform="matrix(1 0 0 1 -920 -657 )">
    <path d="M 99.4212962962963 20.5409622886866  C 99.8070987654321 20.9224100563502  100 21.3610749891634  100 21.8569570871261  C 100 22.3909839618552  99.8070987654321 22.8487212830516  99.4212962962963 23.2301690507152  L 77.1990740740741 43.4850455136541  C 76.5817901234568 44.0190723883832  75.9066358024691 44.1335067186823  75.1736111111111 43.8283485045514  C 74.4405864197531 43.4850455136541  74.0740740740741 42.9319462505418  74 42.1690507152146  L 74 29  L 1.85185185185185 29  C 1.31172839506173 29.3524057217165  0.868055555555556 29.1807542262679  0.520833333333333 28.8374512353706  C 0.173611111111111 28.4941482444733  0 28.0554833116602  0 27.5214564369311  L 0 16.5357607282185  C 0 16.0017338534894  0.173611111111111 15.5630689206762  0.520833333333333 15.2197659297789  C 0.868055555555556 14.8764629388817  1.31172839506173 14.704811443433  1.85185185185185 15  L 74 15  L 74 1.88816644993498  C 74.0740740740741 1.08712613784135  74.4405864197531 0.534026874729083  75.1736111111111 0.22886866059818  C 75.9066358024691 -0.0762895535327317  76.5817901234568 0.019072388383178  77.1990740740741 0.514954486345905  L 99.4212962962963 20.5409622886866  Z " fill-rule="nonzero" fill="#00ffff" stroke="none" transform="matrix(1 0 0 1 920 657 )" />
  </g>
</svg>