<?xml version="1.0" encoding="utf-8"?>
<svg version="1.1" xmlns:xlink="http://www.w3.org/1999/xlink" width="48px" height="70px" xmlns="http://www.w3.org/2000/svg">
  <g transform="matrix(1 0 0 1 -1402 -650 )">
    <path d="M 45.9428571428571 51  C 46.8155844155844 51.8518518518518  47.4181818181818 52.1084104938272  47.7506493506494 52.6215277777778  C 48.0831168831169 53.1346450617284  47.9792207792208 53.6072530864197  47.438961038961 54.0393518518518  L 25.6207792207792 69.5949074074074  C 25.2051948051948 69.8649691358025  24.7272727272727 70  24.187012987013 70  C 23.6051948051948 70  23.1064935064935 69.8649691358025  22.6909090909091 69.5949074074074  L 0.561038961038961 54.0393518518518  C 0.0207792207792207 53.6072530864197  -0.0831168831168832 53.1346450617284  0.249350649350649 52.6215277777778  C 0.623376623376623 52.1084104938272  1.22597402597403 51.8518518518518  2.05714285714286 51  L 16 51  L 16 1.29629629629629  C 16.0207792207792 0.918209876543202  16.2077922077922 0.607638888888891  16.5818181818182 0.364583333333336  C 16.9558441558442 0.121527777777781  17.4337662337662 0  18.0155844155844 0  L 29.9844155844156 0  C 30.5662337662338 0  31.0441558441558 0.121527777777781  31.4181818181818 0.364583333333336  C 31.7922077922078 0.607638888888891  31.9792207792208 0.918209876543202  32 1.29629629629629  L 32 51  L 45.9428571428571 51  Z " fill-rule="nonzero" fill="#00ffff" stroke="none" transform="matrix(1 0 0 1 1402 650 )" />
  </g>
</svg>