<?xml version="1.0" encoding="utf-8"?>
<svg version="1.1" xmlns:xlink="http://www.w3.org/1999/xlink" width="140px" height="140px" xmlns="http://www.w3.org/2000/svg">
  <g transform="matrix(1 0 0 1 -629 -418 )">
    <path d="M 80.8463541666667 35.8203125  C 81.3932291666667 36.3671875  81.6666666666667 37.0659722222222  81 37.9166666666667  L 81 78.75  C 81.6666666666667 79.6006944444444  81.3932291666667 80.2994791666667  80.8463541666667 80.8463541666667  C 80.2994791666667 81.3932291666667  79.6006944444445 81.6666666666667  78.75 81  L 49.5833333333333 81  C 48.7326388888889 81.6666666666667  48.0338541666667 81.3932291666667  47.4869791666667 80.8463541666667  C 46.9401041666667 80.2994791666667  46.6666666666667 79.6006944444444  46.6666666666667 78.75  L 46.6666666666667 72.9166666666667  C 46.6666666666667 72.0659722222222  46.9401041666667 71.3671875  47.4869791666667 70.8203125  C 48.0338541666667 70.2734375  48.7326388888889 70  49.5833333333333 70  L 70 70  L 70 37.9166666666667  C 70 37.0659722222222  70.2734375 36.3671875  70.8203125 35.8203125  C 71.3671875 35.2734375  72.0659722222222 35  72.9166666666667 35  L 78.75 35  C 79.6006944444445 35  80.2994791666667 35.2734375  80.8463541666667 35.8203125  Z M 112.9296875 94.8828125  C 117.365451388889 87.2873263888889  119.583333333333 78.9930555555556  119.583333333333 70  C 119.583333333333 61.0069444444444  117.365451388889 52.7126736111111  112.9296875 45.1171875  C 108.493923611111 37.5217013888889  102.478298611111 31.5060763888889  94.8828125 27.0703125  C 87.2873263888889 22.6345486111111  78.9930555555556 20.4166666666667  70 20.4166666666667  C 61.0069444444444 20.4166666666667  52.7126736111111 22.6345486111111  45.1171875 27.0703125  C 37.5217013888889 31.5060763888889  31.5060763888889 37.5217013888889  27.0703125 45.1171875  C 22.6345486111111 52.7126736111111  20.4166666666667 61.0069444444444  20.4166666666667 70  C 20.4166666666667 78.9930555555556  22.6345486111111 87.2873263888889  27.0703125 94.8828125  C 31.5060763888889 102.478298611111  37.5217013888889 108.493923611111  45.1171875 112.9296875  C 52.7126736111111 117.365451388889  61.0069444444444 119.583333333333  70 119.583333333333  C 78.9930555555556 119.583333333333  87.2873263888889 117.365451388889  94.8828125 112.9296875  C 102.478298611111 108.493923611111  108.493923611111 102.478298611111  112.9296875 94.8828125  Z M 130.611979166667 34.86328125  C 136.870659722222 45.5881076388889  140 57.3003472222222  140 70  C 140 82.6996527777778  136.870659722222 94.4118923611111  130.611979166667 105.13671875  C 124.353298611111 115.861545138889  115.861545138889 124.353298611111  105.13671875 130.611979166667  C 94.4118923611111 136.870659722222  82.6996527777778 140  70 140  C 57.3003472222222 140  45.5881076388889 136.870659722222  34.86328125 130.611979166667  C 24.1384548611111 124.353298611111  15.6467013888889 115.861545138889  9.38802083333333 105.13671875  C 3.12934027777778 94.4118923611111  0 82.6996527777778  0 70  C 0 57.3003472222222  3.12934027777778 45.5881076388889  9.38802083333333 34.86328125  C 15.6467013888889 24.1384548611111  24.1384548611111 15.6467013888889  34.86328125 9.38802083333333  C 45.5881076388889 3.12934027777777  57.3003472222222 0  70 0  C 82.6996527777778 0  94.4118923611111 3.12934027777777  105.13671875 9.38802083333333  C 115.861545138889 15.6467013888889  124.353298611111 24.1384548611111  130.611979166667 34.86328125  Z " fill-rule="nonzero" fill="#00ffff" stroke="none" transform="matrix(1 0 0 1 629 418 )" />
  </g>
</svg>