<?xml version="1.0" encoding="utf-8"?>
<svg version="1.1" xmlns:xlink="http://www.w3.org/1999/xlink" width="48px" height="110px" xmlns="http://www.w3.org/2000/svg">
  <g transform="matrix(1 0 0 1 -1733 -214 )">
    <path d="M 45.9428571428571 81  C 46.8155844155844 81.4814814814815  47.4181818181818 81.8846450617284  47.7506493506494 82.6909722222222  C 48.0831168831169 83.4972993827161  47.9792207792208 84.2399691358025  47.438961038961 84.9189814814815  L 25.6207792207792 109.363425925926  C 25.2051948051948 109.787808641975  24.7272727272727 110  24.187012987013 110  C 23.6051948051948 110  23.1064935064935 109.787808641975  22.6909090909091 109.363425925926  L 0.561038961038961 84.9189814814815  C 0.0207792207792207 84.2399691358025  -0.0831168831168832 83.4972993827161  0.249350649350649 82.6909722222222  C 0.623376623376623 81.8846450617284  1.22597402597403 81.4814814814815  2.05714285714286 81  L 16 81  L 16 2.03703703703703  C 16.0207792207792 1.44290123456789  16.2077922077922 0.954861111111114  16.5818181818182 0.572916666666671  C 16.9558441558442 0.190972222222228  17.4337662337662 0  18.0155844155844 0  L 29.9844155844156 0  C 30.5662337662338 0  31.0441558441558 0.190972222222228  31.4181818181818 0.572916666666671  C 31.7922077922078 0.954861111111114  31.9792207792208 1.44290123456789  32 2.03703703703703  L 32 81  L 45.9428571428571 81  Z " fill-rule="nonzero" fill="#00ffff" stroke="none" transform="matrix(1 0 0 1 1733 214 )" />
  </g>
</svg>