<?xml version="1.0" encoding="utf-8"?>
<svg version="1.1" xmlns:xlink="http://www.w3.org/1999/xlink" width="161px" height="175px" xmlns="http://www.w3.org/2000/svg">
  <defs>
    <mask fill="white" id="clip1523">
      <path d="M 57.5163352272727 66.650390625  C 58.2024147727273 67.333984375  58.5454545454545 68.2074652777778  59 69.2708333333333  L 59 134.895833333333  C 58.5454545454545 135.959201388889  58.2024147727273 136.832682291667  57.5163352272727 137.516276041667  C 56.8302556818182 138.199869791667  55.9535984848485 138.541666666667  54.8863636363636 138.541666666667  L 47.5681818181818 138.541666666667  C 46.500946969697 138.541666666667  45.6242897727273 138.199869791667  44.9382102272727 137.516276041667  C 44.2521306818182 136.832682291667  43.9090909090909 135.959201388889  44 134.895833333333  L 44 69.2708333333333  C 43.9090909090909 68.2074652777778  44.2521306818182 67.333984375  44.9382102272727 66.650390625  C 45.6242897727273 65.966796875  46.500946969697 65.625  47.5681818181818 65.625  L 54.8863636363636 65.625  C 55.9535984848485 65.625  56.8302556818182 65.966796875  57.5163352272727 66.650390625  Z M 86.7890625 66.650390625  C 87.4751420454545 67.333984375  87.8181818181818 68.2074652777778  87 69.2708333333333  L 87 134.895833333333  C 87.8181818181818 135.959201388889  87.4751420454545 136.832682291667  86.7890625 137.516276041667  C 86.1029829545455 138.199869791667  85.2263257575758 138.541666666667  84.1590909090909 138.541666666667  L 76.8409090909091 138.541666666667  C 75.7736742424242 138.541666666667  74.8970170454545 138.199869791667  74.2109375 137.516276041667  C 73.5248579545455 136.832682291667  73.1818181818182 135.959201388889  74 134.895833333333  L 74 69.2708333333333  C 73.1818181818182 68.2074652777778  73.5248579545455 67.333984375  74.2109375 66.650390625  C 74.8970170454545 65.966796875  75.7736742424242 65.625  76.8409090909091 65.625  L 84.1590909090909 65.625  C 85.2263257575758 65.625  86.1029829545455 65.966796875  86.7890625 66.650390625  Z M 116.061789772727 66.650390625  C 116.747869318182 67.333984375  117.090909090909 68.2074652777778  117 69.2708333333333  L 117 134.895833333333  C 117.090909090909 135.959201388889  116.747869318182 136.832682291667  116.061789772727 137.516276041667  C 115.375710227273 138.199869791667  114.499053030303 138.541666666667  113.431818181818 138.541666666667  L 106.113636363636 138.541666666667  C 105.046401515152 138.541666666667  104.169744318182 138.199869791667  103.483664772727 137.516276041667  C 102.797585227273 136.832682291667  102.454545454545 135.959201388889  102 134.895833333333  L 102 69.2708333333333  C 102.454545454545 68.2074652777778  102.797585227273 67.333984375  103.483664772727 66.650390625  C 104.169744318182 65.966796875  105.046401515152 65.625  106.113636363636 65.625  L 113.431818181818 65.625  C 114.499053030303 65.625  115.375710227273 65.966796875  116.061789772727 66.650390625  Z M 130.926846590909 156.3720703125  C 131.460464015152 154.966905381944  131.727272727273 153.428819444444  131 151.7578125  L 131 44  L 30 44  L 30 151.7578125  C 29.2727272727273 153.428819444444  29.5395359848485 154.966905381944  30.0731534090909 156.3720703125  C 30.6067708333333 157.777235243056  31.1594460227273 158.802625868056  31.7311789772727 159.4482421875  C 32.3029119318182 160.093858506944  32.703125 160.416666666667  32.9318181818182 160  L 128.068181818182 160  C 128.296875 160.416666666667  128.697088068182 160.093858506944  129.268821022727 159.4482421875  C 129.840553977273 158.802625868056  130.393229166667 157.777235243056  130.926846590909 156.3720703125  Z M 60.4893465909091 15.8365885416667  L 54.8863636363636 30  L 106.113636363636 30  L 100.625 15.8365885416667  C 100.091382575758 15.1529947916667  99.4434185606061 14.7352430555555  98.6811079545455 15  L 62.4332386363636 15  C 61.670928030303 14.7352430555555  61.0229640151515 15.1529947916667  60.4893465909091 15.8365885416667  Z M 159.970880681818 30.1920572916667  C 160.656960227273 30.8756510416667  161 31.7491319444444  161 32.8125  L 161 40.1041666666667  C 161 41.1675347222222  160.656960227273 42.041015625  159.970880681818 42.724609375  C 159.284801136364 43.408203125  158.408143939394 43.75  157.340909090909 44  L 146 44  L 146 151.7578125  C 146.363636363636 158.062065972222  144.572206439394 163.511827256944  140.989346590909 168.107096354167  C 137.406486742424 172.702365451389  133.099431818182 175  128.068181818182 175  L 32.9318181818182 175  C 27.9005681818182 175  23.5935132575758 172.7783203125  20.0106534090909 168.3349609375  C 16.4277935606061 163.8916015625  14.6363636363636 158.517795138889  15 152.213541666667  L 15 44  L 3.65909090909091 44  C 2.59185606060606 43.75  1.71519886363636 43.408203125  1.02911931818182 42.724609375  C 0.343039772727273 42.041015625  0 41.1675347222222  0 40.1041666666667  L 0 32.8125  C 0 31.7491319444444  0.343039772727273 30.8756510416667  1.02911931818182 30.1920572916667  C 1.71519886363636 29.5084635416667  2.59185606060606 29.1666666666667  3.65909090909091 30  L 38.9921875 30  L 46.9964488636364 10.1399739583333  C 48.1399147727273 7.32964409722221  50.1981534090909 4.93706597222221  53.1711647727273 2.96223958333334  C 56.1441761363636 0.987413194444434  59.155303030303 0  62.2045454545455 0  L 98.7954545454545 0  C 101.844696969697 0  104.855823863636 0.987413194444434  107.828835227273 2.96223958333334  C 110.801846590909 4.93706597222221  112.860085227273 7.32964409722221  114.003551136364 10.1399739583333  L 122.0078125 30  L 157.340909090909 30  C 158.408143939394 29.1666666666667  159.284801136364 29.5084635416667  159.970880681818 30.1920572916667  Z " fill-rule="evenodd" />
    </mask>
  </defs>
  <g transform="matrix(1 0 0 1 -1676 -361 )">
    <path d="M 57.5163352272727 66.650390625  C 58.2024147727273 67.333984375  58.5454545454545 68.2074652777778  59 69.2708333333333  L 59 134.895833333333  C 58.5454545454545 135.959201388889  58.2024147727273 136.832682291667  57.5163352272727 137.516276041667  C 56.8302556818182 138.199869791667  55.9535984848485 138.541666666667  54.8863636363636 138.541666666667  L 47.5681818181818 138.541666666667  C 46.500946969697 138.541666666667  45.6242897727273 138.199869791667  44.9382102272727 137.516276041667  C 44.2521306818182 136.832682291667  43.9090909090909 135.959201388889  44 134.895833333333  L 44 69.2708333333333  C 43.9090909090909 68.2074652777778  44.2521306818182 67.333984375  44.9382102272727 66.650390625  C 45.6242897727273 65.966796875  46.500946969697 65.625  47.5681818181818 65.625  L 54.8863636363636 65.625  C 55.9535984848485 65.625  56.8302556818182 65.966796875  57.5163352272727 66.650390625  Z M 86.7890625 66.650390625  C 87.4751420454545 67.333984375  87.8181818181818 68.2074652777778  87 69.2708333333333  L 87 134.895833333333  C 87.8181818181818 135.959201388889  87.4751420454545 136.832682291667  86.7890625 137.516276041667  C 86.1029829545455 138.199869791667  85.2263257575758 138.541666666667  84.1590909090909 138.541666666667  L 76.8409090909091 138.541666666667  C 75.7736742424242 138.541666666667  74.8970170454545 138.199869791667  74.2109375 137.516276041667  C 73.5248579545455 136.832682291667  73.1818181818182 135.959201388889  74 134.895833333333  L 74 69.2708333333333  C 73.1818181818182 68.2074652777778  73.5248579545455 67.333984375  74.2109375 66.650390625  C 74.8970170454545 65.966796875  75.7736742424242 65.625  76.8409090909091 65.625  L 84.1590909090909 65.625  C 85.2263257575758 65.625  86.1029829545455 65.966796875  86.7890625 66.650390625  Z M 116.061789772727 66.650390625  C 116.747869318182 67.333984375  117.090909090909 68.2074652777778  117 69.2708333333333  L 117 134.895833333333  C 117.090909090909 135.959201388889  116.747869318182 136.832682291667  116.061789772727 137.516276041667  C 115.375710227273 138.199869791667  114.499053030303 138.541666666667  113.431818181818 138.541666666667  L 106.113636363636 138.541666666667  C 105.046401515152 138.541666666667  104.169744318182 138.199869791667  103.483664772727 137.516276041667  C 102.797585227273 136.832682291667  102.454545454545 135.959201388889  102 134.895833333333  L 102 69.2708333333333  C 102.454545454545 68.2074652777778  102.797585227273 67.333984375  103.483664772727 66.650390625  C 104.169744318182 65.966796875  105.046401515152 65.625  106.113636363636 65.625  L 113.431818181818 65.625  C 114.499053030303 65.625  115.375710227273 65.966796875  116.061789772727 66.650390625  Z M 130.926846590909 156.3720703125  C 131.460464015152 154.966905381944  131.727272727273 153.428819444444  131 151.7578125  L 131 44  L 30 44  L 30 151.7578125  C 29.2727272727273 153.428819444444  29.5395359848485 154.966905381944  30.0731534090909 156.3720703125  C 30.6067708333333 157.777235243056  31.1594460227273 158.802625868056  31.7311789772727 159.4482421875  C 32.3029119318182 160.093858506944  32.703125 160.416666666667  32.9318181818182 160  L 128.068181818182 160  C 128.296875 160.416666666667  128.697088068182 160.093858506944  129.268821022727 159.4482421875  C 129.840553977273 158.802625868056  130.393229166667 157.777235243056  130.926846590909 156.3720703125  Z M 60.4893465909091 15.8365885416667  L 54.8863636363636 30  L 106.113636363636 30  L 100.625 15.8365885416667  C 100.091382575758 15.1529947916667  99.4434185606061 14.7352430555555  98.6811079545455 15  L 62.4332386363636 15  C 61.670928030303 14.7352430555555  61.0229640151515 15.1529947916667  60.4893465909091 15.8365885416667  Z M 159.970880681818 30.1920572916667  C 160.656960227273 30.8756510416667  161 31.7491319444444  161 32.8125  L 161 40.1041666666667  C 161 41.1675347222222  160.656960227273 42.041015625  159.970880681818 42.724609375  C 159.284801136364 43.408203125  158.408143939394 43.75  157.340909090909 44  L 146 44  L 146 151.7578125  C 146.363636363636 158.062065972222  144.572206439394 163.511827256944  140.989346590909 168.107096354167  C 137.406486742424 172.702365451389  133.099431818182 175  128.068181818182 175  L 32.9318181818182 175  C 27.9005681818182 175  23.5935132575758 172.7783203125  20.0106534090909 168.3349609375  C 16.4277935606061 163.8916015625  14.6363636363636 158.517795138889  15 152.213541666667  L 15 44  L 3.65909090909091 44  C 2.59185606060606 43.75  1.71519886363636 43.408203125  1.02911931818182 42.724609375  C 0.343039772727273 42.041015625  0 41.1675347222222  0 40.1041666666667  L 0 32.8125  C 0 31.7491319444444  0.343039772727273 30.8756510416667  1.02911931818182 30.1920572916667  C 1.71519886363636 29.5084635416667  2.59185606060606 29.1666666666667  3.65909090909091 30  L 38.9921875 30  L 46.9964488636364 10.1399739583333  C 48.1399147727273 7.32964409722221  50.1981534090909 4.93706597222221  53.1711647727273 2.96223958333334  C 56.1441761363636 0.987413194444434  59.155303030303 0  62.2045454545455 0  L 98.7954545454545 0  C 101.844696969697 0  104.855823863636 0.987413194444434  107.828835227273 2.96223958333334  C 110.801846590909 4.93706597222221  112.860085227273 7.32964409722221  114.003551136364 10.1399739583333  L 122.0078125 30  L 157.340909090909 30  C 158.408143939394 29.1666666666667  159.284801136364 29.5084635416667  159.970880681818 30.1920572916667  Z " fill-rule="nonzero" fill="#333333" stroke="none" transform="matrix(1 0 0 1 1676 361 )" />
    <path d="M 57.5163352272727 66.650390625  C 58.2024147727273 67.333984375  58.5454545454545 68.2074652777778  59 69.2708333333333  L 59 134.895833333333  C 58.5454545454545 135.959201388889  58.2024147727273 136.832682291667  57.5163352272727 137.516276041667  C 56.8302556818182 138.199869791667  55.9535984848485 138.541666666667  54.8863636363636 138.541666666667  L 47.5681818181818 138.541666666667  C 46.500946969697 138.541666666667  45.6242897727273 138.199869791667  44.9382102272727 137.516276041667  C 44.2521306818182 136.832682291667  43.9090909090909 135.959201388889  44 134.895833333333  L 44 69.2708333333333  C 43.9090909090909 68.2074652777778  44.2521306818182 67.333984375  44.9382102272727 66.650390625  C 45.6242897727273 65.966796875  46.500946969697 65.625  47.5681818181818 65.625  L 54.8863636363636 65.625  C 55.9535984848485 65.625  56.8302556818182 65.966796875  57.5163352272727 66.650390625  Z " stroke-width="4" stroke="#7f7f7f" fill="none" transform="matrix(1 0 0 1 1676 361 )" mask="url(#clip1523)" />
    <path d="M 86.7890625 66.650390625  C 87.4751420454545 67.333984375  87.8181818181818 68.2074652777778  87 69.2708333333333  L 87 134.895833333333  C 87.8181818181818 135.959201388889  87.4751420454545 136.832682291667  86.7890625 137.516276041667  C 86.1029829545455 138.199869791667  85.2263257575758 138.541666666667  84.1590909090909 138.541666666667  L 76.8409090909091 138.541666666667  C 75.7736742424242 138.541666666667  74.8970170454545 138.199869791667  74.2109375 137.516276041667  C 73.5248579545455 136.832682291667  73.1818181818182 135.959201388889  74 134.895833333333  L 74 69.2708333333333  C 73.1818181818182 68.2074652777778  73.5248579545455 67.333984375  74.2109375 66.650390625  C 74.8970170454545 65.966796875  75.7736742424242 65.625  76.8409090909091 65.625  L 84.1590909090909 65.625  C 85.2263257575758 65.625  86.1029829545455 65.966796875  86.7890625 66.650390625  Z " stroke-width="4" stroke="#7f7f7f" fill="none" transform="matrix(1 0 0 1 1676 361 )" mask="url(#clip1523)" />
    <path d="M 116.061789772727 66.650390625  C 116.747869318182 67.333984375  117.090909090909 68.2074652777778  117 69.2708333333333  L 117 134.895833333333  C 117.090909090909 135.959201388889  116.747869318182 136.832682291667  116.061789772727 137.516276041667  C 115.375710227273 138.199869791667  114.499053030303 138.541666666667  113.431818181818 138.541666666667  L 106.113636363636 138.541666666667  C 105.046401515152 138.541666666667  104.169744318182 138.199869791667  103.483664772727 137.516276041667  C 102.797585227273 136.832682291667  102.454545454545 135.959201388889  102 134.895833333333  L 102 69.2708333333333  C 102.454545454545 68.2074652777778  102.797585227273 67.333984375  103.483664772727 66.650390625  C 104.169744318182 65.966796875  105.046401515152 65.625  106.113636363636 65.625  L 113.431818181818 65.625  C 114.499053030303 65.625  115.375710227273 65.966796875  116.061789772727 66.650390625  Z " stroke-width="4" stroke="#7f7f7f" fill="none" transform="matrix(1 0 0 1 1676 361 )" mask="url(#clip1523)" />
    <path d="M 130.926846590909 156.3720703125  C 131.460464015152 154.966905381944  131.727272727273 153.428819444444  131 151.7578125  L 131 44  L 30 44  L 30 151.7578125  C 29.2727272727273 153.428819444444  29.5395359848485 154.966905381944  30.0731534090909 156.3720703125  C 30.6067708333333 157.777235243056  31.1594460227273 158.802625868056  31.7311789772727 159.4482421875  C 32.3029119318182 160.093858506944  32.703125 160.416666666667  32.9318181818182 160  L 128.068181818182 160  C 128.296875 160.416666666667  128.697088068182 160.093858506944  129.268821022727 159.4482421875  C 129.840553977273 158.802625868056  130.393229166667 157.777235243056  130.926846590909 156.3720703125  Z " stroke-width="4" stroke="#7f7f7f" fill="none" transform="matrix(1 0 0 1 1676 361 )" mask="url(#clip1523)" />
    <path d="M 60.4893465909091 15.8365885416667  L 54.8863636363636 30  L 106.113636363636 30  L 100.625 15.8365885416667  C 100.091382575758 15.1529947916667  99.4434185606061 14.7352430555555  98.6811079545455 15  L 62.4332386363636 15  C 61.670928030303 14.7352430555555  61.0229640151515 15.1529947916667  60.4893465909091 15.8365885416667  Z " stroke-width="4" stroke="#7f7f7f" fill="none" transform="matrix(1 0 0 1 1676 361 )" mask="url(#clip1523)" />
    <path d="M 159.970880681818 30.1920572916667  C 160.656960227273 30.8756510416667  161 31.7491319444444  161 32.8125  L 161 40.1041666666667  C 161 41.1675347222222  160.656960227273 42.041015625  159.970880681818 42.724609375  C 159.284801136364 43.408203125  158.408143939394 43.75  157.340909090909 44  L 146 44  L 146 151.7578125  C 146.363636363636 158.062065972222  144.572206439394 163.511827256944  140.989346590909 168.107096354167  C 137.406486742424 172.702365451389  133.099431818182 175  128.068181818182 175  L 32.9318181818182 175  C 27.9005681818182 175  23.5935132575758 172.7783203125  20.0106534090909 168.3349609375  C 16.4277935606061 163.8916015625  14.6363636363636 158.517795138889  15 152.213541666667  L 15 44  L 3.65909090909091 44  C 2.59185606060606 43.75  1.71519886363636 43.408203125  1.02911931818182 42.724609375  C 0.343039772727273 42.041015625  0 41.1675347222222  0 40.1041666666667  L 0 32.8125  C 0 31.7491319444444  0.343039772727273 30.8756510416667  1.02911931818182 30.1920572916667  C 1.71519886363636 29.5084635416667  2.59185606060606 29.1666666666667  3.65909090909091 30  L 38.9921875 30  L 46.9964488636364 10.1399739583333  C 48.1399147727273 7.32964409722221  50.1981534090909 4.93706597222221  53.1711647727273 2.96223958333334  C 56.1441761363636 0.987413194444434  59.155303030303 0  62.2045454545455 0  L 98.7954545454545 0  C 101.844696969697 0  104.855823863636 0.987413194444434  107.828835227273 2.96223958333334  C 110.801846590909 4.93706597222221  112.860085227273 7.32964409722221  114.003551136364 10.1399739583333  L 122.0078125 30  L 157.340909090909 30  C 158.408143939394 29.1666666666667  159.284801136364 29.5084635416667  159.970880681818 30.1920572916667  Z " stroke-width="4" stroke="#7f7f7f" fill="none" transform="matrix(1 0 0 1 1676 361 )" mask="url(#clip1523)" />
  </g>
</svg>