<?xml version="1.0" encoding="utf-8"?>
<svg version="1.1" xmlns:xlink="http://www.w3.org/1999/xlink" width="60px" height="60px" xmlns="http://www.w3.org/2000/svg">
  <g transform="matrix(1 0 0 1 -1000 -649 )">
    <path d="M 42.36328125 42.36328125  C 44.4596354166667 40.2669270833333  45.9244791666667 37.8125  46.7578125 35  L 42.5 35  C 41.8229166666667 35  41.2369791666667 34.7526041666667  40.7421875 34.2578125  C 40.2473958333333 33.7630208333333  40 33.1770833333333  40 32.5  L 40 27.5  C 40 26.8229166666667  40.2473958333333 26.2369791666667  40.7421875 25.7421875  C 41.2369791666667 25.2473958333333  41.8229166666667 25  42.5 25  L 46.7578125 25  C 45.9244791666667 22.1875  44.4596354166667 19.7330729166667  42.36328125 17.63671875  C 40.2669270833333 15.5403645833333  37.8125 14.0755208333333  35 13.2421875  L 35 17.5  C 35 18.1770833333333  34.7526041666667 18.7630208333333  34.2578125 19.2578125  C 33.7630208333333 19.7526041666667  33.1770833333333 20  32.5 20  L 27.5 20  C 26.8229166666667 20  26.2369791666667 19.7526041666667  25.7421875 19.2578125  C 25.2473958333333 18.7630208333333  25 18.1770833333333  25 17.5  L 25 13.2421875  C 22.1875 14.0755208333333  19.7330729166667 15.5403645833333  17.63671875 17.63671875  C 15.5403645833333 19.7330729166667  14.0755208333333 22.1875  13.2421875 25  L 17.5 25  C 18.1770833333333 25  18.7630208333333 25.2473958333333  19.2578125 25.7421875  C 19.7526041666667 26.2369791666667  20 26.8229166666667  20 27.5  L 20 32.5  C 20 33.1770833333333  19.7526041666667 33.7630208333333  19.2578125 34.2578125  C 18.7630208333333 34.7526041666667  18.1770833333333 35  17.5 35  L 13.2421875 35  C 14.0755208333333 37.8125  15.5403645833333 40.2669270833333  17.63671875 42.36328125  C 19.7330729166667 44.4596354166667  22.1875 45.9244791666667  25 46.7578125  L 25 42.5  C 25 41.8229166666667  25.2473958333333 41.2369791666667  25.7421875 40.7421875  C 26.2369791666667 40.2473958333333  26.8229166666667 40  27.5 40  L 32.5 40  C 33.1770833333333 40  33.7630208333333 40.2473958333333  34.2578125 40.7421875  C 34.7526041666667 41.2369791666667  35 41.8229166666667  35 42.5  L 35 46.7578125  C 37.8125 45.9244791666667  40.2669270833333 44.4596354166667  42.36328125 42.36328125  Z M 59.2578125 25.7421875  C 59.7526041666667 26.2369791666667  60 26.8229166666667  60 27.5  L 60 32.5  C 60 33.1770833333333  59.7526041666667 33.7630208333333  59.2578125 34.2578125  C 58.7630208333333 34.7526041666667  58.1770833333333 35  57.5 35  L 51.9140625 35  C 50.9505208333333 39.1927083333333  48.9388020833333 42.8190104166667  45.87890625 45.87890625  C 42.8190104166667 48.9388020833333  39.1927083333333 50.9505208333333  35 51.9140625  L 35 57.5  C 35 58.1770833333333  34.7526041666667 58.7630208333333  34.2578125 59.2578125  C 33.7630208333333 59.7526041666667  33.1770833333333 60  32.5 60  L 27.5 60  C 26.8229166666667 60  26.2369791666667 59.7526041666667  25.7421875 59.2578125  C 25.2473958333333 58.7630208333333  25 58.1770833333333  25 57.5  L 25 51.9140625  C 20.8072916666667 50.9505208333333  17.1809895833333 48.9388020833333  14.12109375 45.87890625  C 11.0611979166667 42.8190104166667  9.04947916666667 39.1927083333333  8.0859375 35  L 2.5 35  C 1.82291666666667 35  1.23697916666667 34.7526041666667  0.7421875 34.2578125  C 0.247395833333333 33.7630208333333  0 33.1770833333333  0 32.5  L 0 27.5  C 0 26.8229166666667  0.247395833333333 26.2369791666667  0.7421875 25.7421875  C 1.23697916666667 25.2473958333333  1.82291666666667 25  2.5 25  L 8.0859375 25  C 9.04947916666667 20.8072916666667  11.0611979166667 17.1809895833333  14.12109375 14.12109375  C 17.1809895833333 11.0611979166667  20.8072916666667 9.04947916666666  25 8.0859375  L 25 2.5  C 25 1.82291666666666  25.2473958333333 1.23697916666666  25.7421875 0.742187499999998  C 26.2369791666667 0.24739583333333  26.8229166666667 0  27.5 0  L 32.5 0  C 33.1770833333333 0  33.7630208333333 0.24739583333333  34.2578125 0.742187499999998  C 34.7526041666667 1.23697916666666  35 1.82291666666666  35 2.5  L 35 8.0859375  C 39.1927083333333 9.04947916666666  42.8190104166667 11.0611979166667  45.87890625 14.12109375  C 48.9388020833333 17.1809895833333  50.9505208333333 20.8072916666667  51.9140625 25  L 57.5 25  C 58.1770833333333 25  58.7630208333333 25.2473958333333  59.2578125 25.7421875  Z " fill-rule="nonzero" fill="#00ffff" stroke="none" transform="matrix(1 0 0 1 1000 649 )" />
  </g>
</svg>