<?xml version="1.0" encoding="utf-8"?>
<svg version="1.1" xmlns:xlink="http://www.w3.org/1999/xlink" width="226px" height="148px" xmlns="http://www.w3.org/2000/svg">
  <g transform="matrix(1 0 0 1 -702 -442 )">
    <path d="M 702.5 545.1  C 702.5 545.1  702.5 442.5  702.5 442.5  C 702.5 442.5  927.5 442.5  927.5 442.5  C 927.5 442.5  927.5 545.1  927.5 545.1  C 927.5 545.1  860.027046584811 545.1  860.027046584811 545.1  C 860.027046584811 545.1  803.7 589.364086165763  803.7 589.364086165763  C 803.7 589.364086165763  747.372953415186 545.1  747.372953415186 545.1  C 747.372953415186 545.1  702.5 545.1  702.5 545.1  Z " fill-rule="nonzero" fill="#ffffff" stroke="none" />
    <path d="M 702 545.6  C 702 545.6  702 442  702 442  C 702 442  928 442  928 442  C 928 442  928 545.6  928 545.6  C 928 545.6  860.2 545.6  860.2 545.6  C 860.2 545.6  803.7 590  803.7 590  C 803.7 590  747.2 545.6  747.2 545.6  C 747.2 545.6  702 545.6  702 545.6  Z M 703 544.6  C 703 544.6  747.545906830378 544.6  747.545906830378 544.6  C 747.545906830378 544.6  803.7 588.728172331527  803.7 588.728172331527  C 803.7 588.728172331527  859.854093169623 544.6  859.854093169623 544.6  C 859.854093169623 544.6  927 544.6  927 544.6  C 927 544.6  927 443  927 443  C 927 443  703 443  703 443  C 703 443  703 544.6  703 544.6  Z " fill-rule="nonzero" fill="#797979" stroke="none" />
  </g>
</svg>