<?xml version="1.0" encoding="utf-8"?>
<svg version="1.1" xmlns:xlink="http://www.w3.org/1999/xlink" width="36px" height="36px" xmlns="http://www.w3.org/2000/svg">
  <g transform="matrix(1 0 0 1 -734 -523 )">
    <path d="M 752 524  C 761.52 524  769 531.48  769 541  C 769 550.52  761.52 558  752 558  C 742.48 558  735 550.52  735 541  C 735 531.48  742.48 524  752 524  Z " fill-rule="nonzero" fill="#ffffff" stroke="none" fill-opacity="0" />
    <path d="M 752 524  C 761.52 524  769 531.48  769 541  C 769 550.52  761.52 558  752 558  C 742.48 558  735 550.52  735 541  C 735 531.48  742.48 524  752 524  Z " stroke-width="2" stroke="#00ffff" fill="none" />
  </g>
</svg>