<?xml version="1.0" encoding="utf-8"?>
<svg version="1.1" xmlns:xlink="http://www.w3.org/1999/xlink" width="55px" height="55px" xmlns="http://www.w3.org/2000/svg">
  <defs>
    <filter x="291px" y="686px" width="55px" height="55px" filterUnits="userSpaceOnUse" id="filter1578">
      <feOffset dx="1" dy="1" in="SourceAlpha" result="shadowOffsetInner" />
      <feGaussianBlur stdDeviation="2.5" in="shadowOffsetInner" result="shadowGaussian" />
      <feComposite in2="shadowGaussian" operator="atop" in="SourceAlpha" result="shadowComposite" />
      <feColorMatrix type="matrix" values="0 0 0 0 0  0 0 0 0 0  0 0 0 0 0  0 0 0 0.698039215686274 0  " in="shadowComposite" />
    </filter>
    <g id="widget1579">
      <path d="M 317.5 692.5  C 328.7 692.5  337.5 701.3  337.5 712.5  C 337.5 723.7  328.7 732.5  317.5 732.5  C 306.3 732.5  297.5 723.7  297.5 712.5  C 297.5 701.3  306.3 692.5  317.5 692.5  Z " fill-rule="nonzero" fill="#00ffff" stroke="none" />
      <path d="M 317.5 691.5  C 329.26 691.5  338.5 700.74  338.5 712.5  C 338.5 724.26  329.26 733.5  317.5 733.5  C 305.74 733.5  296.5 724.26  296.5 712.5  C 296.5 700.74  305.74 691.5  317.5 691.5  Z " stroke-width="3" stroke="#0000ff" fill="none" stroke-opacity="0.996078431372549" />
    </g>
  </defs>
  <g transform="matrix(1 0 0 1 -291 -686 )">
    <use xlink:href="#widget1579" filter="url(#filter1578)" />
    <use xlink:href="#widget1579" />
  </g>
</svg>