<?xml version="1.0" encoding="utf-8"?>
<svg version="1.1" xmlns:xlink="http://www.w3.org/1999/xlink" width="52px" height="52px" xmlns="http://www.w3.org/2000/svg">
  <defs>
    <filter x="291px" y="567px" width="52px" height="52px" filterUnits="userSpaceOnUse" id="filter1582">
      <feOffset dx="1" dy="1" in="SourceAlpha" result="shadowOffsetInner" />
      <feGaussianBlur stdDeviation="2.5" in="shadowOffsetInner" result="shadowGaussian" />
      <feComposite in2="shadowGaussian" operator="atop" in="SourceAlpha" result="shadowComposite" />
      <feColorMatrix type="matrix" values="0 0 0 0 0  0 0 0 0 0  0 0 0 0 0  0 0 0 0.698039215686274 0  " in="shadowComposite" />
    </filter>
    <g id="widget1583">
      <path d="M 316 573.5  C 326.36 573.5  334.5 581.64  334.5 592  C 334.5 602.36  326.36 610.5  316 610.5  C 305.64 610.5  297.5 602.36  297.5 592  C 297.5 581.64  305.64 573.5  316 573.5  Z " fill-rule="nonzero" fill="#00ffff" stroke="none" />
      <path d="M 316 572.5  C 326.92 572.5  335.5 581.08  335.5 592  C 335.5 602.92  326.92 611.5  316 611.5  C 305.08 611.5  296.5 602.92  296.5 592  C 296.5 581.08  305.08 572.5  316 572.5  Z " stroke-width="3" stroke="#0000ff" fill="none" stroke-opacity="0.996078431372549" />
    </g>
  </defs>
  <g transform="matrix(1 0 0 1 -291 -567 )">
    <use xlink:href="#widget1583" filter="url(#filter1582)" />
    <use xlink:href="#widget1583" />
  </g>
</svg>