<?xml version="1.0" encoding="utf-8"?>
<svg version="1.1" xmlns:xlink="http://www.w3.org/1999/xlink" width="140px" height="62px" xmlns="http://www.w3.org/2000/svg">
  <g transform="matrix(1 0 0 1 -1220 -255 )">
    <path d="M 0.810185185185193 28.9440832249675  C 0.270061728395044 29.4815778066753  0 30.0996965756394  0 30.7984395318596  C 0 31.5509319462505  0.270061728395044 32.1959254443  0.810185185185193 32.7334200260078  L 31.9212962962963 61.2743823146944  C 32.7854938271605 62.0268747290854  33.7307098765432 62.1881231035977  34.7569444444444 61.7581274382315  C 35.7831790123457 61.2743823146944  36.2962962962963 60.495015171218  37 59.4200260078023  L 37 41  L 137.407407407407 41  C 138.163580246914 41.3602080624187  138.784722222222 41.1183355006502  139.270833333333 40.6345903771131  C 139.756944444444 40.1508452535761  140 39.532726484612  140 38.7802340702211  L 140 23.3003901170351  C 140 22.5478977026441  139.756944444444 21.9297789336801  139.270833333333 21.446033810143  C 138.784722222222 20.962288686606  138.163580246914 20.7204161248374  137.407407407407 21  L 37 21  L 37 2.66059817945384  C 36.2962962962963 1.53185955786736  35.7831790123457 0.75249241439098  34.7569444444444 0.322496749024709  C 33.7307098765432 -0.107498916341576  32.7854938271605 0.0268747290853872  31.9212962962963 0.725617685305593  L 0.810185185185193 28.9440832249675  Z " fill-rule="nonzero" fill="#00ffff" stroke="none" transform="matrix(1 0 0 1 1220 255 )" />
  </g>
</svg>