<?xml version="1.0" encoding="utf-8"?>
<svg version="1.1" xmlns:xlink="http://www.w3.org/1999/xlink" width="109px" height="140px" xmlns="http://www.w3.org/2000/svg">
  <defs>
    <mask fill="white" id="clip1584">
      <path d="M 108.264559659091 130.7421875  C 108.754853219697 131.236979166667  109 131.822916666667  109 132.5  L 109 137.5  C 109 138.177083333333  108.754853219697 138.763020833333  108.264559659091 139.2578125  C 107.774266098485 139.752604166667  107.19365530303 140  106.522727272727 140  L 2.47727272727273 140  C 1.8063446969697 140  1.22573390151515 139.752604166667  0.735440340909091 139.2578125  C 0.24514678030303 138.763020833333  0 138.177083333333  0 137.5  L 0 132.5  C 0 131.822916666667  0.24514678030303 131.236979166667  0.735440340909091 130.7421875  C 1.22573390151515 130.247395833333  1.8063446969697 130  2.47727272727273 130  L 106.522727272727 130  C 107.19365530303 130  107.774266098485 130.247395833333  108.264559659091 130.7421875  Z M 87.0529119318182 35.625  C 88.4721827651515 40.1041666666667  89.1818181818182 44.8958333333333  89.1818181818182 50  C 89.1818181818182 54.0625  88.5495975378788 57.8125  87.28515625 61.25  C 86.0207149621212 64.6875  84.3691998106061 67.6171875  82.3306107954545 70.0390625  C 80.292021780303 72.4609375  78.0340909090909 74.7526041666667  75.5568181818182 76.9140625  C 73.0795454545455 79.0755208333333  70.6022727272727 81.09375  68.125 82.96875  C 65.6477272727273 84.84375  63.3897964015151 86.71875  61.3512073863636 88.59375  C 59.3126183712121 90.46875  57.661103219697 92.5911458333333  56.3966619318182 94.9609375  C 55.1322206439394 97.3307291666667  54.5 99.84375  54.5 102.5  C 54.5 107.5  56.2289299242424 113.333333333333  59.6867897727273 120  L 59.3771306818182 119.921875  L 59.4545454545455 120  C 54.8096590909091 117.864583333333  50.6808712121212 115.703125  47.0681818181818 113.515625  C 43.4554924242424 111.328125  39.8815104166667 108.723958333333  36.3462357954545 105.703125  C 32.8109611742424 102.682291666667  29.8821022727273 99.4921875  27.5596590909091 96.1328125  C 25.2372159090909 92.7734375  23.3663589015152 88.8541666666667  21.9470880681818 84.375  C 20.5278172348485 79.8958333333333  19.8181818181818 75.1041666666667  19.8181818181818 70  C 19.8181818181818 65.9375  20.4504024621212 62.1875  21.71484375 58.75  C 22.9792850378788 55.3125  24.6308001893939 52.3828125  26.6693892045455 49.9609375  C 28.707978219697 47.5390625  30.9659090909091 45.2473958333333  33.4431818181818 43.0859375  C 35.9204545454545 40.9244791666667  38.3977272727273 38.90625  40.875 37.03125  C 43.3522727272727 35.15625  45.6102035984849 33.28125  47.6487926136364 31.40625  C 49.6873816287879 29.53125  51.338896780303 27.4088541666667  52.6033380681818 25.0390625  C 53.8677793560606 22.6692708333333  54.5 20.15625  54.5 17.5  C 54.5 12.6041666666667  52.796875 6.77083333333332  49.390625 0  L 49.6228693181818 0.0781249999999978  L 49.5454545454545 0  C 54.1903409090909 2.13541666666666  58.3191287878788 4.296875  61.9318181818182 6.484375  C 65.5445075757576 8.671875  69.1184895833333 11.2760416666667  72.6537642045455 14.296875  C 76.1890388257576 17.3177083333333  79.1178977272727 20.5078125  81.4403409090909 23.8671875  C 83.7627840909091 27.2265625  85.6336410984848 31.1458333333333  87.0529119318182 35.625  Z " fill-rule="evenodd" />
    </mask>
  </defs>
  <g transform="matrix(1 0 0 1 -1670 -240 )">
    <path d="M 108.264559659091 130.7421875  C 108.754853219697 131.236979166667  109 131.822916666667  109 132.5  L 109 137.5  C 109 138.177083333333  108.754853219697 138.763020833333  108.264559659091 139.2578125  C 107.774266098485 139.752604166667  107.19365530303 140  106.522727272727 140  L 2.47727272727273 140  C 1.8063446969697 140  1.22573390151515 139.752604166667  0.735440340909091 139.2578125  C 0.24514678030303 138.763020833333  0 138.177083333333  0 137.5  L 0 132.5  C 0 131.822916666667  0.24514678030303 131.236979166667  0.735440340909091 130.7421875  C 1.22573390151515 130.247395833333  1.8063446969697 130  2.47727272727273 130  L 106.522727272727 130  C 107.19365530303 130  107.774266098485 130.247395833333  108.264559659091 130.7421875  Z M 87.0529119318182 35.625  C 88.4721827651515 40.1041666666667  89.1818181818182 44.8958333333333  89.1818181818182 50  C 89.1818181818182 54.0625  88.5495975378788 57.8125  87.28515625 61.25  C 86.0207149621212 64.6875  84.3691998106061 67.6171875  82.3306107954545 70.0390625  C 80.292021780303 72.4609375  78.0340909090909 74.7526041666667  75.5568181818182 76.9140625  C 73.0795454545455 79.0755208333333  70.6022727272727 81.09375  68.125 82.96875  C 65.6477272727273 84.84375  63.3897964015151 86.71875  61.3512073863636 88.59375  C 59.3126183712121 90.46875  57.661103219697 92.5911458333333  56.3966619318182 94.9609375  C 55.1322206439394 97.3307291666667  54.5 99.84375  54.5 102.5  C 54.5 107.5  56.2289299242424 113.333333333333  59.6867897727273 120  L 59.3771306818182 119.921875  L 59.4545454545455 120  C 54.8096590909091 117.864583333333  50.6808712121212 115.703125  47.0681818181818 113.515625  C 43.4554924242424 111.328125  39.8815104166667 108.723958333333  36.3462357954545 105.703125  C 32.8109611742424 102.682291666667  29.8821022727273 99.4921875  27.5596590909091 96.1328125  C 25.2372159090909 92.7734375  23.3663589015152 88.8541666666667  21.9470880681818 84.375  C 20.5278172348485 79.8958333333333  19.8181818181818 75.1041666666667  19.8181818181818 70  C 19.8181818181818 65.9375  20.4504024621212 62.1875  21.71484375 58.75  C 22.9792850378788 55.3125  24.6308001893939 52.3828125  26.6693892045455 49.9609375  C 28.707978219697 47.5390625  30.9659090909091 45.2473958333333  33.4431818181818 43.0859375  C 35.9204545454545 40.9244791666667  38.3977272727273 38.90625  40.875 37.03125  C 43.3522727272727 35.15625  45.6102035984849 33.28125  47.6487926136364 31.40625  C 49.6873816287879 29.53125  51.338896780303 27.4088541666667  52.6033380681818 25.0390625  C 53.8677793560606 22.6692708333333  54.5 20.15625  54.5 17.5  C 54.5 12.6041666666667  52.796875 6.77083333333332  49.390625 0  L 49.6228693181818 0.0781249999999978  L 49.5454545454545 0  C 54.1903409090909 2.13541666666666  58.3191287878788 4.296875  61.9318181818182 6.484375  C 65.5445075757576 8.671875  69.1184895833333 11.2760416666667  72.6537642045455 14.296875  C 76.1890388257576 17.3177083333333  79.1178977272727 20.5078125  81.4403409090909 23.8671875  C 83.7627840909091 27.2265625  85.6336410984848 31.1458333333333  87.0529119318182 35.625  Z " fill-rule="nonzero" fill="#ffff00" stroke="none" transform="matrix(1 0 0 1 1670 240 )" />
    <path d="M 108.264559659091 130.7421875  C 108.754853219697 131.236979166667  109 131.822916666667  109 132.5  L 109 137.5  C 109 138.177083333333  108.754853219697 138.763020833333  108.264559659091 139.2578125  C 107.774266098485 139.752604166667  107.19365530303 140  106.522727272727 140  L 2.47727272727273 140  C 1.8063446969697 140  1.22573390151515 139.752604166667  0.735440340909091 139.2578125  C 0.24514678030303 138.763020833333  0 138.177083333333  0 137.5  L 0 132.5  C 0 131.822916666667  0.24514678030303 131.236979166667  0.735440340909091 130.7421875  C 1.22573390151515 130.247395833333  1.8063446969697 130  2.47727272727273 130  L 106.522727272727 130  C 107.19365530303 130  107.774266098485 130.247395833333  108.264559659091 130.7421875  Z " stroke-width="36" stroke="#d9001b" fill="none" transform="matrix(1 0 0 1 1670 240 )" mask="url(#clip1584)" />
    <path d="M 87.0529119318182 35.625  C 88.4721827651515 40.1041666666667  89.1818181818182 44.8958333333333  89.1818181818182 50  C 89.1818181818182 54.0625  88.5495975378788 57.8125  87.28515625 61.25  C 86.0207149621212 64.6875  84.3691998106061 67.6171875  82.3306107954545 70.0390625  C 80.292021780303 72.4609375  78.0340909090909 74.7526041666667  75.5568181818182 76.9140625  C 73.0795454545455 79.0755208333333  70.6022727272727 81.09375  68.125 82.96875  C 65.6477272727273 84.84375  63.3897964015151 86.71875  61.3512073863636 88.59375  C 59.3126183712121 90.46875  57.661103219697 92.5911458333333  56.3966619318182 94.9609375  C 55.1322206439394 97.3307291666667  54.5 99.84375  54.5 102.5  C 54.5 107.5  56.2289299242424 113.333333333333  59.6867897727273 120  L 59.3771306818182 119.921875  L 59.4545454545455 120  C 54.8096590909091 117.864583333333  50.6808712121212 115.703125  47.0681818181818 113.515625  C 43.4554924242424 111.328125  39.8815104166667 108.723958333333  36.3462357954545 105.703125  C 32.8109611742424 102.682291666667  29.8821022727273 99.4921875  27.5596590909091 96.1328125  C 25.2372159090909 92.7734375  23.3663589015152 88.8541666666667  21.9470880681818 84.375  C 20.5278172348485 79.8958333333333  19.8181818181818 75.1041666666667  19.8181818181818 70  C 19.8181818181818 65.9375  20.4504024621212 62.1875  21.71484375 58.75  C 22.9792850378788 55.3125  24.6308001893939 52.3828125  26.6693892045455 49.9609375  C 28.707978219697 47.5390625  30.9659090909091 45.2473958333333  33.4431818181818 43.0859375  C 35.9204545454545 40.9244791666667  38.3977272727273 38.90625  40.875 37.03125  C 43.3522727272727 35.15625  45.6102035984849 33.28125  47.6487926136364 31.40625  C 49.6873816287879 29.53125  51.338896780303 27.4088541666667  52.6033380681818 25.0390625  C 53.8677793560606 22.6692708333333  54.5 20.15625  54.5 17.5  C 54.5 12.6041666666667  52.796875 6.77083333333332  49.390625 0  L 49.6228693181818 0.0781249999999978  L 49.5454545454545 0  C 54.1903409090909 2.13541666666666  58.3191287878788 4.296875  61.9318181818182 6.484375  C 65.5445075757576 8.671875  69.1184895833333 11.2760416666667  72.6537642045455 14.296875  C 76.1890388257576 17.3177083333333  79.1178977272727 20.5078125  81.4403409090909 23.8671875  C 83.7627840909091 27.2265625  85.6336410984848 31.1458333333333  87.0529119318182 35.625  Z " stroke-width="36" stroke="#d9001b" fill="none" transform="matrix(1 0 0 1 1670 240 )" mask="url(#clip1584)" />
  </g>
</svg>