<?xml version="1.0" encoding="utf-8"?>
<svg version="1.1" xmlns:xlink="http://www.w3.org/1999/xlink" width="166px" height="115px" xmlns="http://www.w3.org/2000/svg">
  <g transform="matrix(1 0 0 1 -1350 -570 )">
    <path d="M 1350.5 650  C 1350.5 650  1350.5 570.5  1350.5 570.5  C 1350.5 570.5  1515.5 570.5  1515.5 570.5  C 1515.5 570.5  1515.5 650  1515.5 650  C 1515.5 650  1466.0193103933 650  1466.0193103933 650  C 1466.0193103933 650  1424.7 684.349788158285  1424.7 684.349788158285  C 1424.7 684.349788158285  1383.3806896067 650  1383.3806896067 650  C 1383.3806896067 650  1350.5 650  1350.5 650  Z " fill-rule="nonzero" fill="#ffffff" stroke="none" />
    <path d="M 1350 650.5  C 1350 650.5  1350 570  1350 570  C 1350 570  1516 570  1516 570  C 1516 570  1516 650.5  1516 650.5  C 1516 650.5  1466.2 650.5  1466.2 650.5  C 1466.2 650.5  1424.7 685  1424.7 685  C 1424.7 685  1383.2 650.5  1383.2 650.5  C 1383.2 650.5  1350 650.5  1350 650.5  Z M 1351 649.5  C 1351 649.5  1383.5613792134 649.5  1383.5613792134 649.5  C 1383.5613792134 649.5  1424.7 683.699576316571  1424.7 683.699576316571  C 1424.7 683.699576316571  1465.8386207866 649.5  1465.8386207866 649.5  C 1465.8386207866 649.5  1515 649.5  1515 649.5  C 1515 649.5  1515 571  1515 571  C 1515 571  1351 571  1351 571  C 1351 571  1351 649.5  1351 649.5  Z " fill-rule="nonzero" fill="#797979" stroke="none" />
  </g>
</svg>