<?xml version="1.0" encoding="utf-8"?>
<svg version="1.1" xmlns:xlink="http://www.w3.org/1999/xlink" width="119px" height="80px" xmlns="http://www.w3.org/2000/svg">
  <g transform="matrix(1 0 0 1 -733 -480 )">
    <path d="M 94.8253070147238 8.84170333636006  L 107.1608289477 7.48052715124222  L 112.854178732405 5.11794455313966  L 112.854178732405 1.27874783122303  L 104.77194110461 0.0118497771434051  L 94.8253070147238 0.0118497771434051  L 82.4739921558542 2.92043143961326  L 63.2365460039864 10.245748219167  L 49.1363724040378 15.8474610505905  L 44 18.5800471453114  L 44 2.92043143961326  L 39 4.1967317911223  L 39 19.6987494506373  L 5.29745572247377 34.7437835573987  L 1 36.9587278756642  L 1 47.5064924687362  L 1.88749897800668 48.1553398058252  L 3.34690540430052 49.4242678492948  L 4.80631183059436 48.1553398058252  L 5.91059602649007 48.6990291262136  L 7.80198675496687 46.4466019417476  L 10.4814569536424 45.747572815534  L 12.3728476821192 45.0485436893204  L 14.3430463576159 45.0485436893204  L 16.8649006622516 44.5825242718446  L 17.8894039735099 44.5825242718446  L 19.623178807947 44.5825242718446  L 21.1205298013245 45.0485436893204  L 22.6966887417219 45.747572815534  L 23.9576158940397 46.4466019417476  L 25.0609271523179 46.4466019417476  L 25.9278145695364 46.4466019417476  L 26.4794701986755 47.5064924687362  L 28.0556291390729 48.1553398058252  L 29.2377483443709 48.6990291262136  L 29.8682119205298 49.7087378640777  L 31.2867549668874 51.0291262135922  L 32.3112582781457 52.1165048543689  L 32.705298013245 52.8155339805825  L 33.8086092715232 54.6019417475728  L 36.2062985373291 57.8277572117064  L 38.3726596353528 57.8277572117064  L 38.3726596353528 61.1804148913879  L 38.3726596353528 64.905590091034  L 38.3726596353528 67.5132127307863  L 38.3726596353528 69.3758003306093  L 39.6080804230787 69.9029126213592  L 39.6080804230787 71.05212917045  L 43 71.05212917045  L 43 59.6903448115294  L 43.5616602621753 59.6903448115294  L 47.1675957247447 59.6903448115294  L 50.4370860927152 61.1804148913879  L 54.1596725348597 61.1804148913879  L 61.2880295517322 61.1804148913879  L 66.1986754966887 63.4155200111756  L 74.1928629282005 63.4155200111756  L 76.4607175187003 63.4155200111756  L 82.4739921558542 64.905590091034  L 89.8788571791574 66.5819189308747  L 96.3044451855734 69.3758003306093  L 104.77194110461 73.2165682782846  L 110.790508835569 78.4466019417476  L 115.581209204822 80  L 118.79400320803 80  L 115.581209204822 71.05212917045  L 102.919021074531 63.4155200111756  L 84.2092207029079 54.6019417475728  L 47.1675957247447 47.5064924687362  L 43.5616602621753 42.9270564131219  L 50.4370860927152 36.9587278756642  L 49.1363724040378 31.8446601941748  L 47.1675957247447 33.0553421340597  L 43.5616602621753 33.9866359339713  L 43.5616602621753 30.8202370142721  L 56.4280019692855 24.673697934856  L 70.2241173948259 17.5958650555284  L 80.9964266996999 13.3119135759354  L 94.8253070147238 8.84170333636006  Z " fill-rule="nonzero" fill="#6698ad" stroke="none" transform="matrix(1 0 0 1 733 480 )" />
  </g>
</svg>