<?xml version="1.0" encoding="utf-8"?>
<svg version="1.1" xmlns:xlink="http://www.w3.org/1999/xlink" width="112px" height="302px" xmlns="http://www.w3.org/2000/svg">
  <g transform="matrix(1 0 0 1 -698 -559 )">
    <path d="M 0.108369617803565 31.3985550277118  L 8.32075471698113 15.333135391924  L 14.9245283018868 7.11361836896284  L 23.7295597484277 6.45605700712589  L 32.9014675052411 0.388558986540039  L 36.937106918239 0.388558986540039  L 43.1740041928721 3.37747426761681  L 51.6121593291405 3.37747426761681  L 61.1509433962264 3.37747426761681  L 70.3228511530399 3.37747426761681  L 77.293501048218 3.37747426761681  L 82.4297693920336 3.37747426761681  L 90.1341719077568 7.11361836896284  L 103.708595387841 17.9484362628662  L 108.844863731656 25.0471100554237  L 111.412997903564 31.3985550277118  L 103.708595387841 183.344661672453  L 103.708595387841 187.942992874109  L 103.708595387841 197.139655277422  L 99.447185937752 277.150618186248  L 82.4297693920336 302  L 14.9245283018868 299.222607954199  L 9 269.333455143431  L 9 254.320202362958  L 6.2481417953116 197.139655277422  L 0.108369617803565 31.3985550277118  Z " fill-rule="nonzero" fill="#6698ad" stroke="none" transform="matrix(1 0 0 1 698 559 )" />
  </g>
</svg>