<?xml version="1.0" encoding="utf-8"?>
<svg version="1.1" xmlns:xlink="http://www.w3.org/1999/xlink" width="75px" height="299px" xmlns="http://www.w3.org/2000/svg">
  <g transform="matrix(1 0 0 1 -660 -530 )">
    <path d="M 58.8256397990911 1  L 74.3721597703898 1  L 71.8309016981583 5.05475208865038  L 71.6814159292035 8.64199550640225  L 70.9339870844295 12.2292389241542  L 71.8309016981583 15.9795388608948  L 66.89787132265 16.6513317191283  L 58.8256397990911 16.6513317191283  L 53.7431236546281 18.751499683703  L 44.6244917483856 22.1756865824662  L 32.2171729251375 33.5896429116767  L 24.8525073746313 46.5218366065824  L 18.952802359882 59.9287059456551  L 16 81.1115595013899  L 16 100.417451349655  L 20.4277286135693 134.202762084118  L 32.2171729251375 178.981705676621  L 37.8810226155359 205.259169581203  L 38.4955752212389 209.4344517468  L 41 209.4344517468  L 41 222.362504323763  L 40.0040225261464 222.983050847458  L 41.7279623031835 245.397943460897  L 43.236409608091 267.493160592434  L 44.6244917483856 281.126379673595  L 46.4687966900356 292.644099242162  L 44.6244917483856 298.520486777145  L 32.2171729251375 294.759598754756  L 31 290.293544228169  L 31 267.493160592434  L 32.2171729251375 267.493160592434  L 33.5392483622572 259.501273544857  L 29.4448913917941 253.859941511273  L 27.2899666704976 224.948114839156  L 23.1956097000345 219.071727304173  L 23.1956097000345 215.075783780384  L 24.8525073746313 213.900506273388  L 8.55617545209695 150.302663438257  L 0.259715275105795 110.169491525424  L 2.06329357445171 59.9287059456551  L 11.4419007310504 33.5896429116767  L 24.8525073746313 15.9795388608948  L 32.2171729251375 8.64199550640225  L 41.7279623031835 5.05475208865038  L 58.8256397990911 1  Z " fill-rule="nonzero" fill="#6698ad" stroke="none" transform="matrix(1 0 0 1 660 530 )" />
  </g>
</svg>