<?xml version="1.0" encoding="utf-8"?>
<svg version="1.1" xmlns:xlink="http://www.w3.org/1999/xlink" width="95px" height="124px" xmlns="http://www.w3.org/2000/svg">
  <defs>
    <mask fill="white" id="clip1524">
      <path d="M 94.3590198863636 115.800223214286  C 94.7863399621212 116.238467261905  95 116.75744047619  95 117.357142857143  L 95 121.785714285714  C 95 122.385416666667  94.7863399621212 122.904389880952  94.3590198863636 123.342633928571  C 93.9316998106061 123.78087797619  93.4256628787879 124  92.8409090909091 124  L 2.15909090909091 124  C 1.57433712121212 124  1.06830018939394 123.78087797619  0.640980113636364 123.342633928571  C 0.213660037878788 122.904389880952  0 122.385416666667  0 121.785714285714  L 0 117.357142857143  C 0 116.75744047619  0.213660037878788 116.238467261905  0.640980113636364 115.800223214286  C 1.06830018939394 115.361979166667  1.57433712121212 115.142857142857  2.15909090909091 115.142857142857  L 92.8409090909091 115.142857142857  C 93.4256628787879 115.142857142857  93.9316998106061 115.361979166667  94.3590198863636 115.800223214286  Z M 75.8718039772727 31.5535714285714  C 77.1087831439394 35.5208333333333  77.7272727272727 39.7648809523809  77.7272727272727 44.2857142857143  C 77.7272727272727 47.8839285714286  77.1762547348485 51.2053571428571  76.07421875 54.25  C 74.9721827651515 57.2946428571429  73.5327888257576 59.8895089285714  71.7560369318182 62.0345982142857  C 69.9792850378788 64.1796875  68.0113636363636 66.2094494047619  65.8522727272727 68.1238839285714  C 63.6931818181818 70.0383184523809  61.5340909090909 71.8258928571428  59.375 73.4866071428572  C 57.2159090909091 75.1473214285714  55.2479876893939 76.8080357142857  53.4712357954545 78.46875  C 51.6944839015152 80.1294642857143  50.2550899621212 82.0093005952381  49.1530539772727 84.1082589285714  C 48.0510179924242 86.2072172619048  47.5 88.4330357142857  47.5 90.7857142857143  C 47.5 95.2142857142857  49.006865530303 100.380952380952  52.0205965909091 106.285714285714  L 51.7507102272727 106.216517857143  L 51.8181818181818 106.285714285714  C 47.7698863636364 104.394345238095  44.1714015151515 102.479910714286  41.0227272727273 100.542410714286  C 37.874053030303 98.6049107142857  34.7591145833333 96.2983630952381  31.6779119318182 93.6227678571428  C 28.596709280303 90.9471726190476  26.0440340909091 88.1216517857143  24.0198863636364 85.1462053571428  C 21.9957386363636 82.1707589285714  20.3651751893939 78.6994047619048  19.1281960227273 74.7321428571428  C 17.8912168560606 70.7648809523809  17.2727272727273 66.5208333333333  17.2727272727273 62  C 17.2727272727273 58.4017857142857  17.8237452651515 55.0803571428571  18.92578125 52.0357142857143  C 20.0278172348485 48.9910714285714  21.4672111742424 46.3962053571429  23.2439630681818 44.2511160714286  C 25.0207149621212 42.1060267857143  26.9886363636364 40.0762648809524  29.1477272727273 38.1618303571429  C 31.3068181818182 36.2473958333333  33.4659090909091 34.4598214285714  35.625 32.7991071428571  C 37.7840909090909 31.1383928571429  39.7520123106061 29.4776785714286  41.5287642045455 27.8169642857143  C 43.3055160984849 26.15625  44.7449100378788 24.2764136904762  45.8469460227273 22.1774553571429  C 46.9489820075758 20.0784970238095  47.5 17.8526785714286  47.5 15.5  C 47.5 11.1636904761905  46.015625 5.9970238095238  43.046875 0  L 43.2492897727273 0.0691964285714266  L 43.1818181818182 0  C 47.2301136363636 1.89136904761904  50.8285984848485 3.80580357142857  53.9772727272727 5.74330357142857  C 57.125946969697 7.68080357142857  60.2408854166667 9.98735119047619  63.3220880681818 12.6629464285714  C 66.403290719697 15.3385416666667  68.9559659090909 18.1640625  70.9801136363636 21.1395089285714  C 73.0042613636364 24.1149553571429  74.6348248106061 27.5863095238095  75.8718039772727 31.5535714285714  Z " fill-rule="evenodd" />
    </mask>
  </defs>
  <g transform="matrix(1 0 0 1 -1742 -880 )">
    <path d="M 94.3590198863636 115.800223214286  C 94.7863399621212 116.238467261905  95 116.75744047619  95 117.357142857143  L 95 121.785714285714  C 95 122.385416666667  94.7863399621212 122.904389880952  94.3590198863636 123.342633928571  C 93.9316998106061 123.78087797619  93.4256628787879 124  92.8409090909091 124  L 2.15909090909091 124  C 1.57433712121212 124  1.06830018939394 123.78087797619  0.640980113636364 123.342633928571  C 0.213660037878788 122.904389880952  0 122.385416666667  0 121.785714285714  L 0 117.357142857143  C 0 116.75744047619  0.213660037878788 116.238467261905  0.640980113636364 115.800223214286  C 1.06830018939394 115.361979166667  1.57433712121212 115.142857142857  2.15909090909091 115.142857142857  L 92.8409090909091 115.142857142857  C 93.4256628787879 115.142857142857  93.9316998106061 115.361979166667  94.3590198863636 115.800223214286  Z M 75.8718039772727 31.5535714285714  C 77.1087831439394 35.5208333333333  77.7272727272727 39.7648809523809  77.7272727272727 44.2857142857143  C 77.7272727272727 47.8839285714286  77.1762547348485 51.2053571428571  76.07421875 54.25  C 74.9721827651515 57.2946428571429  73.5327888257576 59.8895089285714  71.7560369318182 62.0345982142857  C 69.9792850378788 64.1796875  68.0113636363636 66.2094494047619  65.8522727272727 68.1238839285714  C 63.6931818181818 70.0383184523809  61.5340909090909 71.8258928571428  59.375 73.4866071428572  C 57.2159090909091 75.1473214285714  55.2479876893939 76.8080357142857  53.4712357954545 78.46875  C 51.6944839015152 80.1294642857143  50.2550899621212 82.0093005952381  49.1530539772727 84.1082589285714  C 48.0510179924242 86.2072172619048  47.5 88.4330357142857  47.5 90.7857142857143  C 47.5 95.2142857142857  49.006865530303 100.380952380952  52.0205965909091 106.285714285714  L 51.7507102272727 106.216517857143  L 51.8181818181818 106.285714285714  C 47.7698863636364 104.394345238095  44.1714015151515 102.479910714286  41.0227272727273 100.542410714286  C 37.874053030303 98.6049107142857  34.7591145833333 96.2983630952381  31.6779119318182 93.6227678571428  C 28.596709280303 90.9471726190476  26.0440340909091 88.1216517857143  24.0198863636364 85.1462053571428  C 21.9957386363636 82.1707589285714  20.3651751893939 78.6994047619048  19.1281960227273 74.7321428571428  C 17.8912168560606 70.7648809523809  17.2727272727273 66.5208333333333  17.2727272727273 62  C 17.2727272727273 58.4017857142857  17.8237452651515 55.0803571428571  18.92578125 52.0357142857143  C 20.0278172348485 48.9910714285714  21.4672111742424 46.3962053571429  23.2439630681818 44.2511160714286  C 25.0207149621212 42.1060267857143  26.9886363636364 40.0762648809524  29.1477272727273 38.1618303571429  C 31.3068181818182 36.2473958333333  33.4659090909091 34.4598214285714  35.625 32.7991071428571  C 37.7840909090909 31.1383928571429  39.7520123106061 29.4776785714286  41.5287642045455 27.8169642857143  C 43.3055160984849 26.15625  44.7449100378788 24.2764136904762  45.8469460227273 22.1774553571429  C 46.9489820075758 20.0784970238095  47.5 17.8526785714286  47.5 15.5  C 47.5 11.1636904761905  46.015625 5.9970238095238  43.046875 0  L 43.2492897727273 0.0691964285714266  L 43.1818181818182 0  C 47.2301136363636 1.89136904761904  50.8285984848485 3.80580357142857  53.9772727272727 5.74330357142857  C 57.125946969697 7.68080357142857  60.2408854166667 9.98735119047619  63.3220880681818 12.6629464285714  C 66.403290719697 15.3385416666667  68.9559659090909 18.1640625  70.9801136363636 21.1395089285714  C 73.0042613636364 24.1149553571429  74.6348248106061 27.5863095238095  75.8718039772727 31.5535714285714  Z " fill-rule="nonzero" fill="#ffff00" stroke="none" transform="matrix(1 0 0 1 1742 880 )" />
    <path d="M 94.3590198863636 115.800223214286  C 94.7863399621212 116.238467261905  95 116.75744047619  95 117.357142857143  L 95 121.785714285714  C 95 122.385416666667  94.7863399621212 122.904389880952  94.3590198863636 123.342633928571  C 93.9316998106061 123.78087797619  93.4256628787879 124  92.8409090909091 124  L 2.15909090909091 124  C 1.57433712121212 124  1.06830018939394 123.78087797619  0.640980113636364 123.342633928571  C 0.213660037878788 122.904389880952  0 122.385416666667  0 121.785714285714  L 0 117.357142857143  C 0 116.75744047619  0.213660037878788 116.238467261905  0.640980113636364 115.800223214286  C 1.06830018939394 115.361979166667  1.57433712121212 115.142857142857  2.15909090909091 115.142857142857  L 92.8409090909091 115.142857142857  C 93.4256628787879 115.142857142857  93.9316998106061 115.361979166667  94.3590198863636 115.800223214286  Z " stroke-width="20" stroke="#d9001b" fill="none" transform="matrix(1 0 0 1 1742 880 )" mask="url(#clip1524)" />
    <path d="M 75.8718039772727 31.5535714285714  C 77.1087831439394 35.5208333333333  77.7272727272727 39.7648809523809  77.7272727272727 44.2857142857143  C 77.7272727272727 47.8839285714286  77.1762547348485 51.2053571428571  76.07421875 54.25  C 74.9721827651515 57.2946428571429  73.5327888257576 59.8895089285714  71.7560369318182 62.0345982142857  C 69.9792850378788 64.1796875  68.0113636363636 66.2094494047619  65.8522727272727 68.1238839285714  C 63.6931818181818 70.0383184523809  61.5340909090909 71.8258928571428  59.375 73.4866071428572  C 57.2159090909091 75.1473214285714  55.2479876893939 76.8080357142857  53.4712357954545 78.46875  C 51.6944839015152 80.1294642857143  50.2550899621212 82.0093005952381  49.1530539772727 84.1082589285714  C 48.0510179924242 86.2072172619048  47.5 88.4330357142857  47.5 90.7857142857143  C 47.5 95.2142857142857  49.006865530303 100.380952380952  52.0205965909091 106.285714285714  L 51.7507102272727 106.216517857143  L 51.8181818181818 106.285714285714  C 47.7698863636364 104.394345238095  44.1714015151515 102.479910714286  41.0227272727273 100.542410714286  C 37.874053030303 98.6049107142857  34.7591145833333 96.2983630952381  31.6779119318182 93.6227678571428  C 28.596709280303 90.9471726190476  26.0440340909091 88.1216517857143  24.0198863636364 85.1462053571428  C 21.9957386363636 82.1707589285714  20.3651751893939 78.6994047619048  19.1281960227273 74.7321428571428  C 17.8912168560606 70.7648809523809  17.2727272727273 66.5208333333333  17.2727272727273 62  C 17.2727272727273 58.4017857142857  17.8237452651515 55.0803571428571  18.92578125 52.0357142857143  C 20.0278172348485 48.9910714285714  21.4672111742424 46.3962053571429  23.2439630681818 44.2511160714286  C 25.0207149621212 42.1060267857143  26.9886363636364 40.0762648809524  29.1477272727273 38.1618303571429  C 31.3068181818182 36.2473958333333  33.4659090909091 34.4598214285714  35.625 32.7991071428571  C 37.7840909090909 31.1383928571429  39.7520123106061 29.4776785714286  41.5287642045455 27.8169642857143  C 43.3055160984849 26.15625  44.7449100378788 24.2764136904762  45.8469460227273 22.1774553571429  C 46.9489820075758 20.0784970238095  47.5 17.8526785714286  47.5 15.5  C 47.5 11.1636904761905  46.015625 5.9970238095238  43.046875 0  L 43.2492897727273 0.0691964285714266  L 43.1818181818182 0  C 47.2301136363636 1.89136904761904  50.8285984848485 3.80580357142857  53.9772727272727 5.74330357142857  C 57.125946969697 7.68080357142857  60.2408854166667 9.98735119047619  63.3220880681818 12.6629464285714  C 66.403290719697 15.3385416666667  68.9559659090909 18.1640625  70.9801136363636 21.1395089285714  C 73.0042613636364 24.1149553571429  74.6348248106061 27.5863095238095  75.8718039772727 31.5535714285714  Z " stroke-width="20" stroke="#d9001b" fill="none" transform="matrix(1 0 0 1 1742 880 )" mask="url(#clip1524)" />
  </g>
</svg>