<?xml version="1.0" encoding="utf-8"?>
<svg version="1.1" xmlns:xlink="http://www.w3.org/1999/xlink" width="73px" height="95px" xmlns="http://www.w3.org/2000/svg">
  <defs>
    <mask fill="white" id="clip1527">
      <path d="M 72.5074573863636 88.7179129464286  C 72.8358191287879 89.0536644345238  73 89.4512648809524  73 89.9107142857143  L 73 93.3035714285714  C 73 93.7630208333333  72.8358191287879 94.1606212797619  72.5074573863636 94.4963727678571  C 72.1790956439394 94.8321242559524  71.7902462121212 95  71.3409090909091 95  L 1.65909090909091 95  C 1.20975378787879 95  0.820904356060606 94.8321242559524  0.492542613636364 94.4963727678571  C 0.164180871212121 94.1606212797619  0 93.7630208333333  0 93.3035714285714  L 0 89.9107142857143  C 0 89.4512648809524  0.164180871212121 89.0536644345238  0.492542613636364 88.7179129464286  C 0.820904356060606 88.3821614583333  1.20975378787879 88.2142857142857  1.65909090909091 88.2142857142857  L 71.3409090909091 88.2142857142857  C 71.7902462121212 88.2142857142857  72.1790956439394 88.3821614583333  72.5074573863636 88.7179129464286  Z M 58.3014914772727 24.1741071428571  C 59.2520123106061 27.2135416666667  59.7272727272727 30.4650297619048  59.7272727272727 33.9285714285714  C 59.7272727272727 36.6852678571429  59.3038589015152 39.2299107142857  58.45703125 41.5625  C 57.6102035984849 43.8950892857143  56.5041429924242 45.8830915178571  55.1388494318182 47.5265066964286  C 53.7735558712121 49.169921875  52.2613636363636 50.7249813988095  50.6022727272727 52.1916852678571  C 48.9431818181818 53.6583891369048  47.2840909090909 55.0279017857143  45.625 56.3002232142857  C 43.9659090909091 57.5725446428571  42.4537168560606 58.8448660714286  41.0884232954545 60.1171875  C 39.7231297348485 61.3895089285714  38.6170691287879 62.8297061011905  37.7702414772727 64.4377790178571  C 36.9234138257576 66.0458519345238  36.5 67.7511160714286  36.5 69.5535714285714  C 36.5 72.9464285714286  37.6579071969697 76.9047619047619  39.9737215909091 81.4285714285714  L 39.7663352272727 81.3755580357143  L 39.8181818181818 81.4285714285714  C 36.7073863636364 79.9795386904762  33.9422348484849 78.5128348214286  31.5227272727273 77.0284598214286  C 29.1032196969697 75.5440848214286  26.7096354166667 73.7769717261905  24.3419744318182 71.7271205357143  C 21.9743134469697 69.6772693452381  20.0127840909091 67.5125558035714  18.4573863636364 65.2329799107143  C 16.9019886363636 62.9534040178571  15.6490293560606 60.2938988095238  14.6985085227273 57.2544642857143  C 13.7479876893939 54.2150297619048  13.2727272727273 50.9635416666667  13.2727272727273 47.5  C 13.2727272727273 44.7433035714286  13.6961410984848 42.1986607142857  14.54296875 39.8660714285714  C 15.3897964015152 37.5334821428571  16.4958570075758 35.5454799107143  17.8611505681818 33.9020647321429  C 19.2264441287879 32.2586495535714  20.7386363636364 30.7035900297619  22.3977272727273 29.2368861607143  C 24.0568181818182 27.7701822916667  25.7159090909091 26.4006696428571  27.375 25.1283482142857  C 29.0340909090909 23.8560267857143  30.5462831439394 22.5837053571429  31.9115767045455 21.3113839285714  C 33.2768702651515 20.0390625  34.3829308712121 18.598865327381  35.2297585227273 16.9907924107143  C 36.0765861742424 15.3827194940476  36.5 13.6774553571429  36.5 11.875  C 36.5 8.55282738095238  35.359375 4.59449404761904  33.078125 0  L 33.2336647727273 0.0530133928571414  L 33.1818181818182 0  C 36.2926136363636 1.44903273809524  39.0577651515151 2.91573660714286  41.4772727272727 4.40011160714286  C 43.8967803030303 5.88448660714286  46.2903645833333 7.65159970238095  48.6580255681818 9.70145089285714  C 51.0256865530303 11.7513020833333  52.9872159090909 13.916015625  54.5426136363636 16.1955915178571  C 56.0980113636364 18.4751674107143  57.3509706439394 21.1346726190476  58.3014914772727 24.1741071428571  Z " fill-rule="evenodd" />
    </mask>
  </defs>
  <g transform="matrix(1 0 0 1 -1774 -882 )">
    <path d="M 72.5074573863636 88.7179129464286  C 72.8358191287879 89.0536644345238  73 89.4512648809524  73 89.9107142857143  L 73 93.3035714285714  C 73 93.7630208333333  72.8358191287879 94.1606212797619  72.5074573863636 94.4963727678571  C 72.1790956439394 94.8321242559524  71.7902462121212 95  71.3409090909091 95  L 1.65909090909091 95  C 1.20975378787879 95  0.820904356060606 94.8321242559524  0.492542613636364 94.4963727678571  C 0.164180871212121 94.1606212797619  0 93.7630208333333  0 93.3035714285714  L 0 89.9107142857143  C 0 89.4512648809524  0.164180871212121 89.0536644345238  0.492542613636364 88.7179129464286  C 0.820904356060606 88.3821614583333  1.20975378787879 88.2142857142857  1.65909090909091 88.2142857142857  L 71.3409090909091 88.2142857142857  C 71.7902462121212 88.2142857142857  72.1790956439394 88.3821614583333  72.5074573863636 88.7179129464286  Z M 58.3014914772727 24.1741071428571  C 59.2520123106061 27.2135416666667  59.7272727272727 30.4650297619048  59.7272727272727 33.9285714285714  C 59.7272727272727 36.6852678571429  59.3038589015152 39.2299107142857  58.45703125 41.5625  C 57.6102035984849 43.8950892857143  56.5041429924242 45.8830915178571  55.1388494318182 47.5265066964286  C 53.7735558712121 49.169921875  52.2613636363636 50.7249813988095  50.6022727272727 52.1916852678571  C 48.9431818181818 53.6583891369048  47.2840909090909 55.0279017857143  45.625 56.3002232142857  C 43.9659090909091 57.5725446428571  42.4537168560606 58.8448660714286  41.0884232954545 60.1171875  C 39.7231297348485 61.3895089285714  38.6170691287879 62.8297061011905  37.7702414772727 64.4377790178571  C 36.9234138257576 66.0458519345238  36.5 67.7511160714286  36.5 69.5535714285714  C 36.5 72.9464285714286  37.6579071969697 76.9047619047619  39.9737215909091 81.4285714285714  L 39.7663352272727 81.3755580357143  L 39.8181818181818 81.4285714285714  C 36.7073863636364 79.9795386904762  33.9422348484849 78.5128348214286  31.5227272727273 77.0284598214286  C 29.1032196969697 75.5440848214286  26.7096354166667 73.7769717261905  24.3419744318182 71.7271205357143  C 21.9743134469697 69.6772693452381  20.0127840909091 67.5125558035714  18.4573863636364 65.2329799107143  C 16.9019886363636 62.9534040178571  15.6490293560606 60.2938988095238  14.6985085227273 57.2544642857143  C 13.7479876893939 54.2150297619048  13.2727272727273 50.9635416666667  13.2727272727273 47.5  C 13.2727272727273 44.7433035714286  13.6961410984848 42.1986607142857  14.54296875 39.8660714285714  C 15.3897964015152 37.5334821428571  16.4958570075758 35.5454799107143  17.8611505681818 33.9020647321429  C 19.2264441287879 32.2586495535714  20.7386363636364 30.7035900297619  22.3977272727273 29.2368861607143  C 24.0568181818182 27.7701822916667  25.7159090909091 26.4006696428571  27.375 25.1283482142857  C 29.0340909090909 23.8560267857143  30.5462831439394 22.5837053571429  31.9115767045455 21.3113839285714  C 33.2768702651515 20.0390625  34.3829308712121 18.598865327381  35.2297585227273 16.9907924107143  C 36.0765861742424 15.3827194940476  36.5 13.6774553571429  36.5 11.875  C 36.5 8.55282738095238  35.359375 4.59449404761904  33.078125 0  L 33.2336647727273 0.0530133928571414  L 33.1818181818182 0  C 36.2926136363636 1.44903273809524  39.0577651515151 2.91573660714286  41.4772727272727 4.40011160714286  C 43.8967803030303 5.88448660714286  46.2903645833333 7.65159970238095  48.6580255681818 9.70145089285714  C 51.0256865530303 11.7513020833333  52.9872159090909 13.916015625  54.5426136363636 16.1955915178571  C 56.0980113636364 18.4751674107143  57.3509706439394 21.1346726190476  58.3014914772727 24.1741071428571  Z " fill-rule="nonzero" fill="#ffff00" stroke="none" transform="matrix(1 0 0 1 1774 882 )" />
    <path d="M 72.5074573863636 88.7179129464286  C 72.8358191287879 89.0536644345238  73 89.4512648809524  73 89.9107142857143  L 73 93.3035714285714  C 73 93.7630208333333  72.8358191287879 94.1606212797619  72.5074573863636 94.4963727678571  C 72.1790956439394 94.8321242559524  71.7902462121212 95  71.3409090909091 95  L 1.65909090909091 95  C 1.20975378787879 95  0.820904356060606 94.8321242559524  0.492542613636364 94.4963727678571  C 0.164180871212121 94.1606212797619  0 93.7630208333333  0 93.3035714285714  L 0 89.9107142857143  C 0 89.4512648809524  0.164180871212121 89.0536644345238  0.492542613636364 88.7179129464286  C 0.820904356060606 88.3821614583333  1.20975378787879 88.2142857142857  1.65909090909091 88.2142857142857  L 71.3409090909091 88.2142857142857  C 71.7902462121212 88.2142857142857  72.1790956439394 88.3821614583333  72.5074573863636 88.7179129464286  Z " stroke-width="20" stroke="#d9001b" fill="none" transform="matrix(1 0 0 1 1774 882 )" mask="url(#clip1527)" />
    <path d="M 58.3014914772727 24.1741071428571  C 59.2520123106061 27.2135416666667  59.7272727272727 30.4650297619048  59.7272727272727 33.9285714285714  C 59.7272727272727 36.6852678571429  59.3038589015152 39.2299107142857  58.45703125 41.5625  C 57.6102035984849 43.8950892857143  56.5041429924242 45.8830915178571  55.1388494318182 47.5265066964286  C 53.7735558712121 49.169921875  52.2613636363636 50.7249813988095  50.6022727272727 52.1916852678571  C 48.9431818181818 53.6583891369048  47.2840909090909 55.0279017857143  45.625 56.3002232142857  C 43.9659090909091 57.5725446428571  42.4537168560606 58.8448660714286  41.0884232954545 60.1171875  C 39.7231297348485 61.3895089285714  38.6170691287879 62.8297061011905  37.7702414772727 64.4377790178571  C 36.9234138257576 66.0458519345238  36.5 67.7511160714286  36.5 69.5535714285714  C 36.5 72.9464285714286  37.6579071969697 76.9047619047619  39.9737215909091 81.4285714285714  L 39.7663352272727 81.3755580357143  L 39.8181818181818 81.4285714285714  C 36.7073863636364 79.9795386904762  33.9422348484849 78.5128348214286  31.5227272727273 77.0284598214286  C 29.1032196969697 75.5440848214286  26.7096354166667 73.7769717261905  24.3419744318182 71.7271205357143  C 21.9743134469697 69.6772693452381  20.0127840909091 67.5125558035714  18.4573863636364 65.2329799107143  C 16.9019886363636 62.9534040178571  15.6490293560606 60.2938988095238  14.6985085227273 57.2544642857143  C 13.7479876893939 54.2150297619048  13.2727272727273 50.9635416666667  13.2727272727273 47.5  C 13.2727272727273 44.7433035714286  13.6961410984848 42.1986607142857  14.54296875 39.8660714285714  C 15.3897964015152 37.5334821428571  16.4958570075758 35.5454799107143  17.8611505681818 33.9020647321429  C 19.2264441287879 32.2586495535714  20.7386363636364 30.7035900297619  22.3977272727273 29.2368861607143  C 24.0568181818182 27.7701822916667  25.7159090909091 26.4006696428571  27.375 25.1283482142857  C 29.0340909090909 23.8560267857143  30.5462831439394 22.5837053571429  31.9115767045455 21.3113839285714  C 33.2768702651515 20.0390625  34.3829308712121 18.598865327381  35.2297585227273 16.9907924107143  C 36.0765861742424 15.3827194940476  36.5 13.6774553571429  36.5 11.875  C 36.5 8.55282738095238  35.359375 4.59449404761904  33.078125 0  L 33.2336647727273 0.0530133928571414  L 33.1818181818182 0  C 36.2926136363636 1.44903273809524  39.0577651515151 2.91573660714286  41.4772727272727 4.40011160714286  C 43.8967803030303 5.88448660714286  46.2903645833333 7.65159970238095  48.6580255681818 9.70145089285714  C 51.0256865530303 11.7513020833333  52.9872159090909 13.916015625  54.5426136363636 16.1955915178571  C 56.0980113636364 18.4751674107143  57.3509706439394 21.1346726190476  58.3014914772727 24.1741071428571  Z " stroke-width="20" stroke="#d9001b" fill="none" transform="matrix(1 0 0 1 1774 882 )" mask="url(#clip1527)" />
  </g>
</svg>