<?xml version="1.0" encoding="utf-8"?>
<svg version="1.1" xmlns:xlink="http://www.w3.org/1999/xlink" width="133px" height="170px" xmlns="http://www.w3.org/2000/svg">
  <defs>
    <mask fill="white" id="clip1516">
      <path d="M 132.102627840909 158.758370535714  C 132.70087594697 159.359188988095  133 160.07068452381  133 160.892857142857  L 133 166.964285714286  C 133 167.786458333333  132.70087594697 168.497953869048  132.102627840909 169.098772321429  C 131.504379734848 169.69959077381  130.795928030303 170  129.977272727273 170  L 3.02272727272727 170  C 2.20407196969697 170  1.49562026515152 169.69959077381  0.897372159090909 169.098772321429  C 0.299124053030303 168.497953869048  0 167.786458333333  0 166.964285714286  L 0 160.892857142857  C 0 160.07068452381  0.299124053030303 159.359188988095  0.897372159090909 158.758370535714  C 1.49562026515152 158.157552083333  2.20407196969697 157.857142857143  3.02272727272727 157.857142857143  L 129.977272727273 157.857142857143  C 130.795928030303 157.857142857143  131.504379734848 158.157552083333  132.102627840909 158.758370535714  Z M 106.220525568182 43.2589285714286  C 107.952296401515 48.6979166666667  108.818181818182 54.516369047619  108.818181818182 60.7142857142857  C 108.818181818182 65.6473214285714  108.046756628788 70.2008928571429  106.50390625 74.375  C 104.961055871212 78.5491071428571  102.945904356061 82.1065848214286  100.458451704545 85.0474330357143  C 97.9709990530303 87.98828125  95.2159090909091 90.7710193452381  92.1931818181818 93.3956473214286  C 89.1704545454545 96.020275297619  86.1477272727273 98.4709821428571  83.125 100.747767857143  C 80.1022727272727 103.024553571429  77.3471827651515 105.301339285714  74.8597301136364 107.578125  C 72.3722774621212 109.854910714286  70.3571259469697 112.432105654762  68.8142755681818 115.309709821429  C 67.271425189394 118.187313988095  66.5 121.238839285714  66.5 124.464285714286  C 66.5 130.535714285714  68.6096117424242 137.619047619048  72.8288352272727 145.714285714286  L 72.4509943181818 145.619419642857  L 72.5454545454545 145.714285714286  C 66.8778409090909 143.121279761905  61.8399621212121 140.496651785714  57.4318181818182 137.840401785714  C 53.0236742424242 135.184151785714  48.6627604166667 132.021949404762  44.3490767045455 128.353794642857  C 40.0353929924242 124.685639880952  36.4616477272727 120.811941964286  33.6278409090909 116.732700892857  C 30.7940340909091 112.653459821429  28.5112452651515 107.894345238095  26.7794744318182 102.455357142857  C 25.0477035984849 97.016369047619  24.1818181818182 91.1979166666667  24.1818181818182 85  C 24.1818181818182 80.0669642857143  24.9532433712121 75.5133928571429  26.49609375 71.3392857142857  C 28.0389441287879 67.1651785714286  30.0540956439394 63.6077008928571  32.5415482954545 60.6668526785714  C 35.0290009469697 57.7260044642857  37.7840909090909 54.9432663690476  40.8068181818182 52.3186383928571  C 43.8295454545455 49.6940104166667  46.8522727272727 47.2433035714286  49.875 44.9665178571429  C 52.8977272727273 42.6897321428571  55.6528172348485 40.4129464285714  58.1402698863636 38.1361607142857  C 60.6277225378788 35.859375  62.6428740530303 33.2821800595238  64.1857244318182 30.4045758928571  C 65.7285748106061 27.5269717261905  66.5 24.4754464285714  66.5 21.25  C 66.5 15.3050595238095  64.421875 8.22172619047617  60.265625 0  L 60.5490056818182 0.0948660714285687  L 60.4545454545455 0  C 66.1221590909091 2.59300595238095  71.1600378787879 5.21763392857143  75.5681818181818 7.87388392857143  C 79.9763257575758 10.5301339285714  84.3372395833334 13.6923363095238  88.6509232954545 17.3604910714286  C 92.9646070075758 21.0286458333333  96.5383522727273 24.90234375  99.3721590909091 28.9815848214286  C 102.205965909091 33.0608258928571  104.488754734848 37.8199404761905  106.220525568182 43.2589285714286  Z " fill-rule="evenodd" />
    </mask>
  </defs>
  <g transform="matrix(1 0 0 1 -929 -455 )">
    <path d="M 132.102627840909 158.758370535714  C 132.70087594697 159.359188988095  133 160.07068452381  133 160.892857142857  L 133 166.964285714286  C 133 167.786458333333  132.70087594697 168.497953869048  132.102627840909 169.098772321429  C 131.504379734848 169.69959077381  130.795928030303 170  129.977272727273 170  L 3.02272727272727 170  C 2.20407196969697 170  1.49562026515152 169.69959077381  0.897372159090909 169.098772321429  C 0.299124053030303 168.497953869048  0 167.786458333333  0 166.964285714286  L 0 160.892857142857  C 0 160.07068452381  0.299124053030303 159.359188988095  0.897372159090909 158.758370535714  C 1.49562026515152 158.157552083333  2.20407196969697 157.857142857143  3.02272727272727 157.857142857143  L 129.977272727273 157.857142857143  C 130.795928030303 157.857142857143  131.504379734848 158.157552083333  132.102627840909 158.758370535714  Z M 106.220525568182 43.2589285714286  C 107.952296401515 48.6979166666667  108.818181818182 54.516369047619  108.818181818182 60.7142857142857  C 108.818181818182 65.6473214285714  108.046756628788 70.2008928571429  106.50390625 74.375  C 104.961055871212 78.5491071428571  102.945904356061 82.1065848214286  100.458451704545 85.0474330357143  C 97.9709990530303 87.98828125  95.2159090909091 90.7710193452381  92.1931818181818 93.3956473214286  C 89.1704545454545 96.020275297619  86.1477272727273 98.4709821428571  83.125 100.747767857143  C 80.1022727272727 103.024553571429  77.3471827651515 105.301339285714  74.8597301136364 107.578125  C 72.3722774621212 109.854910714286  70.3571259469697 112.432105654762  68.8142755681818 115.309709821429  C 67.271425189394 118.187313988095  66.5 121.238839285714  66.5 124.464285714286  C 66.5 130.535714285714  68.6096117424242 137.619047619048  72.8288352272727 145.714285714286  L 72.4509943181818 145.619419642857  L 72.5454545454545 145.714285714286  C 66.8778409090909 143.121279761905  61.8399621212121 140.496651785714  57.4318181818182 137.840401785714  C 53.0236742424242 135.184151785714  48.6627604166667 132.021949404762  44.3490767045455 128.353794642857  C 40.0353929924242 124.685639880952  36.4616477272727 120.811941964286  33.6278409090909 116.732700892857  C 30.7940340909091 112.653459821429  28.5112452651515 107.894345238095  26.7794744318182 102.455357142857  C 25.0477035984849 97.016369047619  24.1818181818182 91.1979166666667  24.1818181818182 85  C 24.1818181818182 80.0669642857143  24.9532433712121 75.5133928571429  26.49609375 71.3392857142857  C 28.0389441287879 67.1651785714286  30.0540956439394 63.6077008928571  32.5415482954545 60.6668526785714  C 35.0290009469697 57.7260044642857  37.7840909090909 54.9432663690476  40.8068181818182 52.3186383928571  C 43.8295454545455 49.6940104166667  46.8522727272727 47.2433035714286  49.875 44.9665178571429  C 52.8977272727273 42.6897321428571  55.6528172348485 40.4129464285714  58.1402698863636 38.1361607142857  C 60.6277225378788 35.859375  62.6428740530303 33.2821800595238  64.1857244318182 30.4045758928571  C 65.7285748106061 27.5269717261905  66.5 24.4754464285714  66.5 21.25  C 66.5 15.3050595238095  64.421875 8.22172619047617  60.265625 0  L 60.5490056818182 0.0948660714285687  L 60.4545454545455 0  C 66.1221590909091 2.59300595238095  71.1600378787879 5.21763392857143  75.5681818181818 7.87388392857143  C 79.9763257575758 10.5301339285714  84.3372395833334 13.6923363095238  88.6509232954545 17.3604910714286  C 92.9646070075758 21.0286458333333  96.5383522727273 24.90234375  99.3721590909091 28.9815848214286  C 102.205965909091 33.0608258928571  104.488754734848 37.8199404761905  106.220525568182 43.2589285714286  Z " fill-rule="nonzero" fill="#ffff00" stroke="none" transform="matrix(1 0 0 1 929 455 )" />
    <path d="M 132.102627840909 158.758370535714  C 132.70087594697 159.359188988095  133 160.07068452381  133 160.892857142857  L 133 166.964285714286  C 133 167.786458333333  132.70087594697 168.497953869048  132.102627840909 169.098772321429  C 131.504379734848 169.69959077381  130.795928030303 170  129.977272727273 170  L 3.02272727272727 170  C 2.20407196969697 170  1.49562026515152 169.69959077381  0.897372159090909 169.098772321429  C 0.299124053030303 168.497953869048  0 167.786458333333  0 166.964285714286  L 0 160.892857142857  C 0 160.07068452381  0.299124053030303 159.359188988095  0.897372159090909 158.758370535714  C 1.49562026515152 158.157552083333  2.20407196969697 157.857142857143  3.02272727272727 157.857142857143  L 129.977272727273 157.857142857143  C 130.795928030303 157.857142857143  131.504379734848 158.157552083333  132.102627840909 158.758370535714  Z " stroke-width="40" stroke="#d9001b" fill="none" transform="matrix(1 0 0 1 929 455 )" mask="url(#clip1516)" />
    <path d="M 106.220525568182 43.2589285714286  C 107.952296401515 48.6979166666667  108.818181818182 54.516369047619  108.818181818182 60.7142857142857  C 108.818181818182 65.6473214285714  108.046756628788 70.2008928571429  106.50390625 74.375  C 104.961055871212 78.5491071428571  102.945904356061 82.1065848214286  100.458451704545 85.0474330357143  C 97.9709990530303 87.98828125  95.2159090909091 90.7710193452381  92.1931818181818 93.3956473214286  C 89.1704545454545 96.020275297619  86.1477272727273 98.4709821428571  83.125 100.747767857143  C 80.1022727272727 103.024553571429  77.3471827651515 105.301339285714  74.8597301136364 107.578125  C 72.3722774621212 109.854910714286  70.3571259469697 112.432105654762  68.8142755681818 115.309709821429  C 67.271425189394 118.187313988095  66.5 121.238839285714  66.5 124.464285714286  C 66.5 130.535714285714  68.6096117424242 137.619047619048  72.8288352272727 145.714285714286  L 72.4509943181818 145.619419642857  L 72.5454545454545 145.714285714286  C 66.8778409090909 143.121279761905  61.8399621212121 140.496651785714  57.4318181818182 137.840401785714  C 53.0236742424242 135.184151785714  48.6627604166667 132.021949404762  44.3490767045455 128.353794642857  C 40.0353929924242 124.685639880952  36.4616477272727 120.811941964286  33.6278409090909 116.732700892857  C 30.7940340909091 112.653459821429  28.5112452651515 107.894345238095  26.7794744318182 102.455357142857  C 25.0477035984849 97.016369047619  24.1818181818182 91.1979166666667  24.1818181818182 85  C 24.1818181818182 80.0669642857143  24.9532433712121 75.5133928571429  26.49609375 71.3392857142857  C 28.0389441287879 67.1651785714286  30.0540956439394 63.6077008928571  32.5415482954545 60.6668526785714  C 35.0290009469697 57.7260044642857  37.7840909090909 54.9432663690476  40.8068181818182 52.3186383928571  C 43.8295454545455 49.6940104166667  46.8522727272727 47.2433035714286  49.875 44.9665178571429  C 52.8977272727273 42.6897321428571  55.6528172348485 40.4129464285714  58.1402698863636 38.1361607142857  C 60.6277225378788 35.859375  62.6428740530303 33.2821800595238  64.1857244318182 30.4045758928571  C 65.7285748106061 27.5269717261905  66.5 24.4754464285714  66.5 21.25  C 66.5 15.3050595238095  64.421875 8.22172619047617  60.265625 0  L 60.5490056818182 0.0948660714285687  L 60.4545454545455 0  C 66.1221590909091 2.59300595238095  71.1600378787879 5.21763392857143  75.5681818181818 7.87388392857143  C 79.9763257575758 10.5301339285714  84.3372395833334 13.6923363095238  88.6509232954545 17.3604910714286  C 92.9646070075758 21.0286458333333  96.5383522727273 24.90234375  99.3721590909091 28.9815848214286  C 102.205965909091 33.0608258928571  104.488754734848 37.8199404761905  106.220525568182 43.2589285714286  Z " stroke-width="40" stroke="#d9001b" fill="none" transform="matrix(1 0 0 1 929 455 )" mask="url(#clip1516)" />
  </g>
</svg>