<?xml version="1.0" encoding="utf-8"?>
<svg version="1.1" xmlns:xlink="http://www.w3.org/1999/xlink" width="200px" height="375px" xmlns="http://www.w3.org/2000/svg">
  <defs>
    <mask fill="white" id="clip1515">
      <path d="M 131.671497584542 28.5458937198059  L 185.294685990339 1.49275362318843  L 166.937198067632 0  L 123.942028985507 13.0869565217392  L 119.11111111111 0  L 114.280193236716 0  L 114 9.70531400966098  L 114.280193236716 17.9178743961361  L 79.9806763285015 32.4106280193246  L 70.3188405797102 32.4106280193246  L 54.376811594203 28.5458937198059  L 39.400966183574 39.1739130434783  L 39 47.8695652173913  L 21.5265700483101 64.7777777777769  L 0.27053140096541 112.120772946861  L 0 171.541062801933  L 16.2125603864725 232.893719806762  L 31.1884057971015 291.347826086957  L 35 320.333333333333  L 35 341.106280193238  L 39.400966183574 347  L 54.376811594203 347  L 63.5555555555565 374.922705314009  L 90.1256038647334 374.922705314009  L 123.942028985507 374.922705314009  L 140.367149758455 360.913043478261  L 144.231884057971 341.106280193238  L 148.096618357487 271.057971014493  L 156.309178743962 162.84541062802  L 152.444444444444 97.1449275362319  L 148.096618357487 78.304347826087  L 124 72.5072463768116  L 124 59  L 148.096618357487 59  L 166.937198067632 64.7777777777769  L 185.294685990339 79  L 199.304347826087 79  L 199.304347826087 72.5072463768116  L 185.294685990339 58.9806763285015  L 162.589371980676 48  L 131.671497584542 48  L 123.942028985507 39.1739130434783  L 123.942028985507 32.4106280193246  L 131.671497584542 28.5458937198059  Z " fill-rule="evenodd" />
    </mask>
  </defs>
  <g transform="matrix(1 0 0 1 -656 -483 )">
    <path d="M 131.671497584542 28.5458937198059  L 185.294685990339 1.49275362318843  L 166.937198067632 0  L 123.942028985507 13.0869565217392  L 119.11111111111 0  L 114.280193236716 0  L 114 9.70531400966098  L 114.280193236716 17.9178743961361  L 79.9806763285015 32.4106280193246  L 70.3188405797102 32.4106280193246  L 54.376811594203 28.5458937198059  L 39.400966183574 39.1739130434783  L 39 47.8695652173913  L 21.5265700483101 64.7777777777769  L 0.27053140096541 112.120772946861  L 0 171.541062801933  L 16.2125603864725 232.893719806762  L 31.1884057971015 291.347826086957  L 35 320.333333333333  L 35 341.106280193238  L 39.400966183574 347  L 54.376811594203 347  L 63.5555555555565 374.922705314009  L 90.1256038647334 374.922705314009  L 123.942028985507 374.922705314009  L 140.367149758455 360.913043478261  L 144.231884057971 341.106280193238  L 148.096618357487 271.057971014493  L 156.309178743962 162.84541062802  L 152.444444444444 97.1449275362319  L 148.096618357487 78.304347826087  L 124 72.5072463768116  L 124 59  L 148.096618357487 59  L 166.937198067632 64.7777777777769  L 185.294685990339 79  L 199.304347826087 79  L 199.304347826087 72.5072463768116  L 185.294685990339 58.9806763285015  L 162.589371980676 48  L 131.671497584542 48  L 123.942028985507 39.1739130434783  L 123.942028985507 32.4106280193246  L 131.671497584542 28.5458937198059  Z " fill-rule="nonzero" fill="#ffffff" stroke="none" fill-opacity="0" transform="matrix(1 0 0 1 656 483 )" />
    <path d="M 131.671497584542 28.5458937198059  L 185.294685990339 1.49275362318843  L 166.937198067632 0  L 123.942028985507 13.0869565217392  L 119.11111111111 0  L 114.280193236716 0  L 114 9.70531400966098  L 114.280193236716 17.9178743961361  L 79.9806763285015 32.4106280193246  L 70.3188405797102 32.4106280193246  L 54.376811594203 28.5458937198059  L 39.400966183574 39.1739130434783  L 39 47.8695652173913  L 21.5265700483101 64.7777777777769  L 0.27053140096541 112.120772946861  L 0 171.541062801933  L 16.2125603864725 232.893719806762  L 31.1884057971015 291.347826086957  L 35 320.333333333333  L 35 341.106280193238  L 39.400966183574 347  L 54.376811594203 347  L 63.5555555555565 374.922705314009  L 90.1256038647334 374.922705314009  L 123.942028985507 374.922705314009  L 140.367149758455 360.913043478261  L 144.231884057971 341.106280193238  L 148.096618357487 271.057971014493  L 156.309178743962 162.84541062802  L 152.444444444444 97.1449275362319  L 148.096618357487 78.304347826087  L 124 72.5072463768116  L 124 59  L 148.096618357487 59  L 166.937198067632 64.7777777777769  L 185.294685990339 79  L 199.304347826087 79  L 199.304347826087 72.5072463768116  L 185.294685990339 58.9806763285015  L 162.589371980676 48  L 131.671497584542 48  L 123.942028985507 39.1739130434783  L 123.942028985507 32.4106280193246  L 131.671497584542 28.5458937198059  Z " stroke-width="4" stroke="#00ffff" fill="none" transform="matrix(1 0 0 1 656 483 )" mask="url(#clip1515)" />
  </g>
</svg>