<?xml version="1.0" encoding="utf-8"?>
<svg version="1.1" xmlns:xlink="http://www.w3.org/1999/xlink" width="48px" height="153px" xmlns="http://www.w3.org/2000/svg">
  <g transform="matrix(1 0 0 1 -658 -413 )">
    <path d="M 47.438961038961 34.8854166666667  C 47.9792207792208 35.8298611111111  48.0831168831169 36.8628472222222  47.7506493506494 37.984375  C 47.3766233766234 39.1059027777778  46.774025974026 39.6666666666667  45.9428571428571 40  L 32 40  L 32 150.166666666667  C 31.9792207792208 150.993055555556  31.7922077922078 151.671875  31.4181818181818 152.203125  C 31.0441558441558 152.734375  30.5662337662338 153  29.9844155844156 153  L 18.0155844155844 153  C 17.4337662337662 153  16.9558441558442 152.734375  16.5818181818182 152.203125  C 16.2077922077922 151.671875  16.0207792207792 150.993055555556  16 150.166666666667  L 16 40  L 2.05714285714286 40  C 1.18441558441558 39.6666666666667  0.581818181818182 39.1059027777778  0.249350649350649 37.984375  C -0.0831168831168832 36.8628472222222  0.0207792207792207 35.8298611111111  0.561038961038961 34.8854166666667  L 22.3792207792208 0.885416666666675  C 22.7948051948052 0.295138888888886  23.2727272727273 0  23.812987012987 0  C 24.3948051948052 0  24.8935064935065 0.295138888888886  25.3090909090909 0.885416666666675  L 47.438961038961 34.8854166666667  Z " fill-rule="nonzero" fill="#80ffff" stroke="none" transform="matrix(1 0 0 1 658 413 )" />
  </g>
</svg>