<?xml version="1.0" encoding="utf-8"?>
<svg version="1.1" xmlns:xlink="http://www.w3.org/1999/xlink" width="48px" height="153px" xmlns="http://www.w3.org/2000/svg">
  <g transform="matrix(1 0 0 1 -1208 -423 )">
    <path d="M 0.561038961038959 34.8854166666667  C 0.0207792207792163 35.8298611111111  -0.0831168831168867 36.8628472222222  0.249350649350649 37.984375  C 0.623376623376624 39.1059027777778  1.22597402597403 39.6666666666667  2.05714285714286 40  L 16 40  L 16 150.166666666667  C 16.0207792207792 150.993055555556  16.2077922077922 151.671875  16.5818181818182 152.203125  C 16.9558441558442 152.734375  17.4337662337662 153  18.0155844155844 153  L 29.9844155844156 153  C 30.5662337662338 153  31.0441558441558 152.734375  31.4181818181818 152.203125  C 31.7922077922078 151.671875  31.9792207792208 150.993055555556  32 150.166666666667  L 32 40  L 45.9428571428571 40  C 46.8155844155844 39.6666666666667  47.4181818181818 39.1059027777778  47.7506493506494 37.984375  C 48.0831168831169 36.8628472222222  47.9792207792208 35.8298611111111  47.438961038961 34.8854166666667  L 25.6207792207792 0.885416666666675  C 25.2051948051948 0.295138888888886  24.7272727272727 0  24.187012987013 0  C 23.6051948051948 0  23.1064935064935 0.295138888888886  22.6909090909091 0.885416666666675  L 0.561038961038959 34.8854166666667  Z " fill-rule="nonzero" fill="#80ffff" stroke="none" transform="matrix(1 0 0 1 1208 423 )" />
  </g>
</svg>