<?xml version="1.0" encoding="utf-8"?>
<svg version="1.1" xmlns:xlink="http://www.w3.org/1999/xlink" width="48px" height="110px" xmlns="http://www.w3.org/2000/svg">
  <g transform="matrix(1 0 0 1 -1061 -230 )">
    <path d="M 47.438961038961 25.0810185185185  C 47.9792207792208 25.7600308641975  48.0831168831169 26.5027006172839  47.7506493506494 27.3090277777778  C 47.3766233766234 28.1153549382716  46.774025974026 28.5185185185185  45.9428571428571 29  L 32 29  L 32 107.962962962963  C 31.9792207792208 108.557098765432  31.7922077922078 109.045138888889  31.4181818181818 109.427083333333  C 31.0441558441558 109.809027777778  30.5662337662338 110  29.9844155844156 110  L 18.0155844155844 110  C 17.4337662337662 110  16.9558441558442 109.809027777778  16.5818181818182 109.427083333333  C 16.2077922077922 109.045138888889  16.0207792207792 108.557098765432  16 107.962962962963  L 16 29  L 2.05714285714286 29  C 1.18441558441558 28.5185185185185  0.581818181818182 28.1153549382716  0.249350649350649 27.3090277777778  C -0.0831168831168832 26.5027006172839  0.0207792207792207 25.7600308641975  0.561038961038961 25.0810185185185  L 22.3792207792208 0.63657407407408  C 22.7948051948052 0.212191358024689  23.2727272727273 0  23.812987012987 0  C 24.3948051948052 0  24.8935064935065 0.212191358024689  25.3090909090909 0.63657407407408  L 47.438961038961 25.0810185185185  Z " fill-rule="nonzero" fill="#80ffff" stroke="none" transform="matrix(1 0 0 1 1061 230 )" />
  </g>
</svg>