<?xml version="1.0" encoding="utf-8"?>
<svg version="1.1" xmlns:xlink="http://www.w3.org/1999/xlink" width="48px" height="140px" xmlns="http://www.w3.org/2000/svg">
  <defs>
    <mask fill="white" id="clip1537">
      <path d="M 47.438961038961 108.078703703704  C 47.9792207792208 107.21450617284  48.0831168831169 106.269290123457  47.7506493506494 105.243055555556  C 47.3766233766234 104.216820987654  46.774025974026 103.703703703704  45.9428571428571 103  L 32 103  L 32 2.59259259259259  C 31.9792207792208 1.83641975308642  31.7922077922078 1.21527777777778  31.4181818181818 0.729166666666672  C 31.0441558441558 0.243055555555562  30.5662337662338 0  29.9844155844156 0  L 18.0155844155844 0  C 17.4337662337662 0  16.9558441558442 0.243055555555562  16.5818181818182 0.729166666666672  C 16.2077922077922 1.21527777777778  16.0207792207792 1.83641975308642  16 2.59259259259259  L 16 103  L 2.05714285714286 103  C 1.18441558441558 103.703703703704  0.58181818181818 104.216820987654  0.249350649350649 105.243055555556  C -0.0831168831168867 106.269290123457  0.0207792207792217 107.21450617284  0.561038961038959 108.078703703704  L 22.3792207792208 139.189814814815  C 22.7948051948052 139.729938271605  23.2727272727273 140  23.812987012987 140  C 24.3948051948052 140  24.8935064935065 139.729938271605  25.3090909090909 139.189814814815  L 47.438961038961 108.078703703704  Z " fill-rule="evenodd" />
    </mask>
  </defs>
  <g transform="matrix(1 0 0 1 -949 -889 )">
    <path d="M 47.438961038961 108.078703703704  C 47.9792207792208 107.21450617284  48.0831168831169 106.269290123457  47.7506493506494 105.243055555556  C 47.3766233766234 104.216820987654  46.774025974026 103.703703703704  45.9428571428571 103  L 32 103  L 32 2.59259259259259  C 31.9792207792208 1.83641975308642  31.7922077922078 1.21527777777778  31.4181818181818 0.729166666666672  C 31.0441558441558 0.243055555555562  30.5662337662338 0  29.9844155844156 0  L 18.0155844155844 0  C 17.4337662337662 0  16.9558441558442 0.243055555555562  16.5818181818182 0.729166666666672  C 16.2077922077922 1.21527777777778  16.0207792207792 1.83641975308642  16 2.59259259259259  L 16 103  L 2.05714285714286 103  C 1.18441558441558 103.703703703704  0.58181818181818 104.216820987654  0.249350649350649 105.243055555556  C -0.0831168831168867 106.269290123457  0.0207792207792217 107.21450617284  0.561038961038959 108.078703703704  L 22.3792207792208 139.189814814815  C 22.7948051948052 139.729938271605  23.2727272727273 140  23.812987012987 140  C 24.3948051948052 140  24.8935064935065 139.729938271605  25.3090909090909 139.189814814815  L 47.438961038961 108.078703703704  Z " fill-rule="nonzero" fill="#80ffff" stroke="none" transform="matrix(1 0 0 1 949 889 )" />
    <path d="M 47.438961038961 108.078703703704  C 47.9792207792208 107.21450617284  48.0831168831169 106.269290123457  47.7506493506494 105.243055555556  C 47.3766233766234 104.216820987654  46.774025974026 103.703703703704  45.9428571428571 103  L 32 103  L 32 2.59259259259259  C 31.9792207792208 1.83641975308642  31.7922077922078 1.21527777777778  31.4181818181818 0.729166666666672  C 31.0441558441558 0.243055555555562  30.5662337662338 0  29.9844155844156 0  L 18.0155844155844 0  C 17.4337662337662 0  16.9558441558442 0.243055555555562  16.5818181818182 0.729166666666672  C 16.2077922077922 1.21527777777778  16.0207792207792 1.83641975308642  16 2.59259259259259  L 16 103  L 2.05714285714286 103  C 1.18441558441558 103.703703703704  0.58181818181818 104.216820987654  0.249350649350649 105.243055555556  C -0.0831168831168867 106.269290123457  0.0207792207792217 107.21450617284  0.561038961038959 108.078703703704  L 22.3792207792208 139.189814814815  C 22.7948051948052 139.729938271605  23.2727272727273 140  23.812987012987 140  C 24.3948051948052 140  24.8935064935065 139.729938271605  25.3090909090909 139.189814814815  L 47.438961038961 108.078703703704  Z " stroke-width="2" stroke="#ffffff" fill="none" transform="matrix(1 0 0 1 949 889 )" mask="url(#clip1537)" />
  </g>
</svg>