<?xml version="1.0" encoding="utf-8"?>
<svg version="1.1" xmlns:xlink="http://www.w3.org/1999/xlink" width="48px" height="110px" xmlns="http://www.w3.org/2000/svg">
  <g transform="matrix(1 0 0 1 -309 -655 )">
    <path d="M 47.438961038961 84.9189814814815  C 47.9792207792208 84.2399691358025  48.0831168831169 83.4972993827161  47.7506493506494 82.6909722222222  C 47.3766233766234 81.8846450617284  46.774025974026 81.4814814814815  45.9428571428571 81  L 32 81  L 32 2.03703703703703  C 31.9792207792208 1.4429012345679  31.7922077922078 0.954861111111114  31.4181818181818 0.572916666666671  C 31.0441558441558 0.190972222222228  30.5662337662338 0  29.9844155844156 0  L 18.0155844155844 0  C 17.4337662337662 0  16.9558441558442 0.190972222222228  16.5818181818182 0.572916666666671  C 16.2077922077922 0.954861111111114  16.0207792207792 1.4429012345679  16 2.03703703703703  L 16 81  L 2.05714285714286 81  C 1.18441558441558 81.4814814814815  0.581818181818182 81.8846450617284  0.249350649350649 82.6909722222222  C -0.0831168831168832 83.4972993827161  0.0207792207792207 84.2399691358025  0.561038961038961 84.9189814814815  L 22.3792207792208 109.363425925926  C 22.7948051948052 109.787808641975  23.2727272727273 110  23.812987012987 110  C 24.3948051948052 110  24.8935064935065 109.787808641975  25.3090909090909 109.363425925926  L 47.438961038961 84.9189814814815  Z " fill-rule="nonzero" fill="#80ffff" stroke="none" transform="matrix(1 0 0 1 309 655 )" />
  </g>
</svg>