<?xml version="1.0" encoding="utf-8"?>
<svg version="1.1" xmlns:xlink="http://www.w3.org/1999/xlink" width="56px" height="129px" xmlns="http://www.w3.org/2000/svg">
  <g transform="matrix(1 0 0 1 -1214 -561 )">
    <path d="M 55.3454545454546 29.4131944444445  C 55.9757575757576 30.2094907407407  56.0969696969697 31.0804398148148  55.7090909090909 32.0260416666667  C 55.2727272727273 32.9716435185185  54.569696969697 33.4444444444445  53.6 34  L 37 34  L 37 126.611111111111  C 37.3090909090909 127.30787037037  37.0909090909091 127.880208333333  36.6545454545455 128.328125  C 36.2181818181818 128.776041666667  35.6606060606061 129  34.9818181818182 129  L 21.0181818181818 129  C 20.3393939393939 129  19.7818181818182 128.776041666667  19.3454545454545 128.328125  C 18.9090909090909 127.880208333333  18.6909090909091 127.30787037037  19 126.611111111111  L 19 34  L 2.4 34  C 1.38181818181818 33.4444444444445  0.678787878787879 32.9716435185185  0.290909090909091 32.0260416666667  C -0.096969696969697 31.0804398148148  0.0242424242424242 30.2094907407407  0.654545454545455 29.4131944444445  L 26.1090909090909 0.746527777777785  C 26.5939393939394 0.24884259259259  27.1515151515152 0  27.7818181818182 0  C 28.4606060606061 0  29.0424242424242 0.24884259259259  29.5272727272727 0.746527777777785  L 55.3454545454546 29.4131944444445  Z " fill-rule="nonzero" fill="#00ffff" stroke="none" transform="matrix(1 0 0 1 1214 561 )" />
  </g>
</svg>