<?xml version="1.0" encoding="utf-8"?>
<svg version="1.1" xmlns:xlink="http://www.w3.org/1999/xlink" width="68px" height="156px" xmlns="http://www.w3.org/2000/svg">
  <g transform="matrix(1 0 0 1 -1430 -524 )">
    <path d="M 67.2051948051948 35.5694444444445  C 67.9705627705628 36.5324074074074  68.1177489177489 37.5856481481481  67.6467532467532 38.7291666666667  C 67.1168831168831 39.8726851851852  66.2632034632035 40.4444444444445  65.0857142857143 41  L 45 41  L 45 153.111111111111  C 45.3038961038961 153.953703703704  45.038961038961 154.645833333333  44.5090909090909 155.1875  C 43.9792207792208 155.729166666667  43.3021645021645 156  42.4779220779221 156  L 25.5220779220779 156  C 24.6978354978355 156  24.0207792207792 155.729166666667  23.4909090909091 155.1875  C 22.961038961039 154.645833333333  22.6961038961039 153.953703703704  23 153.111111111111  L 23 41  L 2.91428571428571 41  C 1.67792207792208 40.4444444444445  0.824242424242424 39.8726851851852  0.353246753246753 38.7291666666667  C -0.117748917748918 37.5856481481481  0.0294372294372294 36.5324074074074  0.794805194805195 35.5694444444445  L 31.7038961038961 0.902777777777786  C 32.2926406926407 0.300925925925923  32.969696969697 0  33.7350649350649 0  C 34.5593073593074 0  35.2658008658009 0.300925925925923  35.8545454545455 0.902777777777786  L 67.2051948051948 35.5694444444445  Z " fill-rule="nonzero" fill="#00ffff" stroke="none" transform="matrix(1 0 0 1 1430 524 )" />
  </g>
</svg>