<?xml version="1.0" encoding="utf-8"?>
<svg version="1.1" xmlns:xlink="http://www.w3.org/1999/xlink" width="69px" height="157px" xmlns="http://www.w3.org/2000/svg">
  <g transform="matrix(1 0 0 1 -1430 -536 )">
    <path d="M 68.1935064935065 35.7974537037037  C 68.9701298701299 36.7665895061728  69.1194805194805 37.8265817901235  68.6415584415584 38.9774305555556  C 68.1038961038961 40.1282793209876  67.2376623376623 40.7037037037037  66.0428571428571 41  L 46 41  L 46 154.092592592593  C 45.9701298701299 154.940586419753  45.7012987012987 155.637152777778  45.1636363636364 156.182291666667  C 44.625974025974 156.727430555556  43.938961038961 157  43.1025974025974 157  L 25.8974025974026 157  C 25.061038961039 157  24.374025974026 156.727430555556  23.8363636363636 156.182291666667  C 23.2987012987013 155.637152777778  23.0298701298701 154.940586419753  23 154.092592592593  L 23 41  L 2.95714285714286 41  C 1.7025974025974 40.7037037037037  0.836363636363636 40.1282793209876  0.358441558441558 38.9774305555556  C -0.11948051948052 37.8265817901235  0.0298701298701298 36.7665895061728  0.806493506493506 35.7974537037037  L 32.1701298701299 0.908564814814823  C 32.7675324675325 0.302854938271602  33.4545454545455 0  34.2311688311688 0  C 35.0675324675325 0  35.7844155844156 0.302854938271602  36.3818181818182 0.908564814814823  L 68.1935064935065 35.7974537037037  Z " fill-rule="nonzero" fill="#00ffff" stroke="none" transform="matrix(1 0 0 1 1430 536 )" />
  </g>
</svg>