<?xml version="1.0" encoding="utf-8"?>
<svg version="1.1" xmlns:xlink="http://www.w3.org/1999/xlink" width="64px" height="147px" xmlns="http://www.w3.org/2000/svg">
  <g transform="matrix(1 0 0 1 -1206 -523 )">
    <path d="M 63.2519480519481 33.5173611111111  C 63.9722943722944 34.4247685185185  64.1108225108225 35.4172453703704  63.6675324675325 36.4947916666667  C 63.1688311688312 37.5723379629629  62.365367965368 38.1111111111111  61.2571428571429 39  L 42 39  L 42 144.277777777778  C 42.638961038961 145.071759259259  42.3896103896104 145.723958333333  41.8909090909091 146.234375  C 41.3922077922078 146.744791666667  40.7549783549784 147  39.9792207792208 147  L 24.0207792207792 147  C 23.2450216450216 147  22.6077922077922 146.744791666667  22.1090909090909 146.234375  C 21.6103896103896 145.723958333333  21.361038961039 145.071759259259  22 144.277777777778  L 22 39  L 2.74285714285714 39  C 1.57922077922078 38.1111111111111  0.775757575757576 37.5723379629629  0.332467532467532 36.4947916666667  C -0.110822510822511 35.4172453703704  0.0277056277056276 34.4247685185185  0.748051948051948 33.5173611111111  L 29.838961038961 0.850694444444452  C 30.3930735930736 0.283564814814812  31.030303030303 0  31.7506493506494 0  C 32.5264069264069 0  33.191341991342 0.283564814814812  33.7454545454545 0.850694444444452  L 63.2519480519481 33.5173611111111  Z " fill-rule="nonzero" fill="#00ffff" stroke="none" transform="matrix(1 0 0 1 1206 523 )" />
  </g>
</svg>