<?xml version="1.0" encoding="utf-8"?>
<svg version="1.1" xmlns:xlink="http://www.w3.org/1999/xlink" width="436px" height="182px" xmlns="http://www.w3.org/2000/svg">
  <defs>
    <linearGradient gradientUnits="userSpaceOnUse" x1="291" y1="554" x2="291" y2="372" id="LinearGradient1470">
      <stop id="Stop1471" stop-color="#ffffff" stop-opacity="0" offset="0" />
      <stop id="Stop1472" stop-color="#ffffff" stop-opacity="0.996078431372549" offset="1" />
    </linearGradient>
  </defs>
  <g transform="matrix(1 0 0 1 -73 -372 )">
    <path d="M 82.5 387  A 5.5 5.5 0 0 1 88 381.5 L 494 381.5  A 5.5 5.5 0 0 1 499.5 387 L 499.5 539  A 5.5 5.5 0 0 1 494 544.5 L 88 544.5  A 5.5 5.5 0 0 1 82.5 539 L 82.5 387  Z " fill-rule="nonzero" fill="url(#LinearGradient1470)" stroke="none" />
    <path d="M 78 387  A 10 10 0 0 1 88 377 L 494 377  A 10 10 0 0 1 504 387 L 504 539  A 10 10 0 0 1 494 549 L 88 549  A 10 10 0 0 1 78 539 L 78 387  Z " stroke-width="10" stroke="#ec80db" fill="none" />
  </g>
</svg>