<?xml version="1.0" encoding="utf-8"?>
<svg version="1.1" xmlns:xlink="http://www.w3.org/1999/xlink" width="240px" height="417px" xmlns="http://www.w3.org/2000/svg">
  <g transform="matrix(1 0 0 1 -220 -197 )">
    <path d="M 1 363.852941176471  L 1 416  L 186.052254437218 416  L 186.052254437218 410.368144626272  L 186.528497409326 403.451957098629  L 214.559195917254 391.924977885891  L 225.77895515992 380.397998673154  L 226.321243523316 371.176415302963  L 214.559195917254 364  L 186.052254437218 364  L 174.355058631034 363.852941176471  L 169.680158946589 355.80710968598  L 161.26533951459 334.290081822203  L 144.43570065059 318.15231092437  L 136.955861155479 298.172213622291  L 151.915540145701 297  L 179.964938252367 297  L 186.528497409326 297.419117647059  L 192 305.088401149934  L 192 326.605429013711  L 214.559195917254 334.290081822203  L 225.77895515992 326.605429013711  L 238.868674276364 318.15231092437  L 240 302.783005307386  L 240 272.044394073419  L 226 250.404411764706  L 226 228.941176470588  L 240 206.455882352941  L 240 180.904411764706  L 225 163.529411764706  L 225 132.867647058824  L 240 91.9852941176471  L 240 64.3897058823529  L 240 27.5955882352941  L 226.321243523316 8.17647058823529  L 126.839378238342 0  L 70.880829015544 0  L 53 27.5955882352941  L 53 70.5220588235294  L 71 109.360294117647  L 71 132.867647058824  L 106.943005181347 146.154411764706  L 116.891191709845 170.683823529412  L 136.955861155479 191.125  L 151.915540145701 214.632352941176  L 161 228.941176470588  L 161 250.404411764706  L 169.680158946589 250.404411764706  L 136.955861155479 256.536764705882  L 116.891191709845 250  L 84.559585492228 250  L 70.880829015544 236.095588235294  L 53 244.272058823529  L 53 266.757352941176  L 52.2279792746114 272.044394073419  L 39.7927461139896 280  L 21.139896373057 280  L 0.846654172638101 280  L 0 291.286764705882  L 0 305.088401149934  L 1 318.15231092437  L 1 334.290081822203  L 1 363.852941176471  Z " fill-rule="nonzero" fill="#664962" stroke="none" transform="matrix(1 0 0 1 220 197 )" />
  </g>
</svg>