<?xml version="1.0" encoding="utf-8"?>
<svg version="1.1" xmlns:xlink="http://www.w3.org/1999/xlink" width="342px" height="36px" xmlns="http://www.w3.org/2000/svg">
  <g transform="matrix(1 0 0 1 -1184 -58 )">
    <path d="M 1512.37933488775 58.5  C 1512.37933488775 58.5  1514.95210982469 58.6354092072073  1514.95210982469 58.6354092072073  C 1514.95210982469 58.6354092072073  1525.48170211394 76  1525.48170211394 76  C 1525.48170211394 76  1514.95210982469 93.3645907927927  1514.95210982469 93.3645907927927  C 1514.95210982469 93.3645907927927  1512.37933488775 93.5  1512.37933488775 93.5  C 1512.37933488775 93.5  1184.5 93.5  1184.5 93.5  C 1184.5 93.5  1184.5 58.5  1184.5 58.5  C 1184.5 58.5  1512.37933488775 58.5  1512.37933488775 58.5  Z " fill-rule="nonzero" fill="#ec80db" stroke="none" fill-opacity="0.996078431372549" />
    <path d="M 1512.37933488775 58.5  C 1512.37933488775 58.5  1514.95210982469 58.6354092072073  1514.95210982469 58.6354092072073  C 1514.95210982469 58.6354092072073  1525.48170211394 76  1525.48170211394 76  C 1525.48170211394 76  1514.95210982469 93.3645907927927  1514.95210982469 93.3645907927927  C 1514.95210982469 93.3645907927927  1512.37933488775 93.5  1512.37933488775 93.5  C 1512.37933488775 93.5  1184.5 93.5  1184.5 93.5  C 1184.5 93.5  1184.5 58.5  1184.5 58.5  C 1184.5 58.5  1512.37933488775 58.5  1512.37933488775 58.5  Z " stroke-width="1" stroke="#797979" fill="none" />
  </g>
</svg>