<?xml version="1.0" encoding="utf-8"?>
<svg version="1.1" xmlns:xlink="http://www.w3.org/1999/xlink" width="221px" height="137px" xmlns="http://www.w3.org/2000/svg">
  <g transform="matrix(1 0 0 1 -689 -430 )">
    <path d="M 689.5 525.4  C 689.5 525.4  689.5 430.5  689.5 430.5  C 689.5 430.5  909.5 430.5  909.5 430.5  C 909.5 430.5  909.5 525.4  909.5 525.4  C 909.5 525.4  843.534421784272 525.4  843.534421784272 525.4  C 843.534421784272 525.4  788.45 566.376827788843  788.45 566.376827788843  C 788.45 566.376827788843  733.365578215734 525.4  733.365578215734 525.4  C 733.365578215734 525.4  689.5 525.4  689.5 525.4  Z " fill-rule="nonzero" fill="#ffffff" stroke="none" />
    <path d="M 689 525.9  C 689 525.9  689 430  689 430  C 689 430  910 430  910 430  C 910 430  910 525.9  910 525.9  C 910 525.9  843.7 525.9  843.7 525.9  C 843.7 525.9  788.45 567  788.45 567  C 788.45 567  733.2 525.9  733.2 525.9  C 733.2 525.9  689 525.9  689 525.9  Z M 690 524.9  C 690 524.9  733.531156431459 524.9  733.531156431459 524.9  C 733.531156431459 524.9  788.45 565.753655577686  788.45 565.753655577686  C 788.45 565.753655577686  843.368843568544 524.9  843.368843568544 524.9  C 843.368843568544 524.9  909 524.9  909 524.9  C 909 524.9  909 431  909 431  C 909 431  690 431  690 431  C 690 431  690 524.9  690 524.9  Z " fill-rule="nonzero" fill="#797979" stroke="none" />
  </g>
</svg>