<?xml version="1.0" encoding="utf-8"?>
<svg version="1.1" xmlns:xlink="http://www.w3.org/1999/xlink" width="50px" height="50px" xmlns="http://www.w3.org/2000/svg">
  <g transform="matrix(1 0 0 1 -1630 -115 )">
    <path d="M 28.8736979166667 41.3736979166667  C 29.0690104166667 41.1783854166667  29.1666666666667 40.9288194444444  29.1666666666667 40.625  L 29.1666666666667 34.375  C 29.1666666666667 34.0711805555556  29.0690104166667 33.8216145833333  28.8736979166667 33.6263020833333  C 28.6783854166667 33.4309895833333  28.4288194444444 33.3333333333333  28.125 33.3333333333333  L 21.875 33.3333333333333  C 21.5711805555556 33.3333333333333  21.3216145833333 33.4309895833333  21.1263020833333 33.6263020833333  C 20.9309895833333 33.8216145833333  20.8333333333333 34.0711805555556  20.8333333333333 34.375  L 20.8333333333333 40.625  C 20.8333333333333 40.9288194444444  20.9309895833333 41.1783854166667  21.1263020833333 41.3736979166667  C 21.3216145833333 41.5690104166667  21.5711805555556 41.6666666666667  21.875 41.6666666666667  L 28.125 41.6666666666667  C 28.4288194444444 41.6666666666667  28.6783854166667 41.5690104166667  28.8736979166667 41.3736979166667  Z M 37.0930989583333 21.38671875  C 37.3643663194445 20.5837673611111  37.5 19.7048611111111  37.5 18.75  C 37.5 16.8402777777778  36.8977864583333 15.0716145833333  35.693359375 13.4440104166667  C 34.4889322916667 11.81640625  32.9861111111111 10.5577256944444  31.1848958333333 9.66796875  C 29.3836805555556 8.77821180555555  27.5390625 8.33333333333333  25.6510416666667 8.33333333333333  C 20.3776041666667 8.33333333333333  16.3519965277778 10.64453125  13.57421875 15.2669270833333  C 13.2486979166667 15.7877604166667  13.3355034722222 16.2434895833333  13.8346354166667 16.6341145833333  L 18.1315104166667 19.8893229166667  C 18.2834201388889 20.01953125  18.4895833333333 20.0846354166667  18.75 20.0846354166667  C 19.0972222222222 20.0846354166667  19.3684895833333 19.9544270833333  19.5638020833333 19.6940104166667  C 20.7139756944444 18.2183159722222  21.6471354166667 17.2200520833333  22.36328125 16.69921875  C 23.1011284722222 16.1783854166667  24.0342881944444 15.91796875  25.1627604166667 15.91796875  C 26.2044270833333 15.91796875  27.1321614583333 16.2000868055556  27.9459635416667 16.7643229166667  C 28.759765625 17.3285590277778  29.1666666666667 17.96875  29.1666666666667 18.6848958333333  C 29.1666666666667 19.5095486111111  28.9496527777778 20.1714409722222  28.515625 20.6705729166667  C 28.0815972222222 21.1697048611111  27.34375 21.6579861111111  26.3020833333333 22.1354166666667  C 24.9348958333333 22.7430555555556  23.681640625 23.681640625  22.5423177083333 24.951171875  C 21.4029947916667 26.220703125  20.8333333333333 27.5824652777778  20.8333333333333 29.0364583333333  L 20.8333333333333 30.2083333333333  C 20.8333333333333 30.5121527777778  20.9309895833333 30.76171875  21.1263020833333 30.95703125  C 21.3216145833333 31.15234375  21.5711805555556 31.25  21.875 31.25  L 28.125 31.25  C 28.4288194444444 31.25  28.6783854166667 31.15234375  28.8736979166667 30.95703125  C 29.0690104166667 30.76171875  29.1666666666667 30.5121527777778  29.1666666666667 30.2083333333333  C 29.1666666666667 29.7960069444444  29.3999565972222 29.2588975694444  29.8665364583333 28.5970052083333  C 30.3331163194444 27.9351128472222  30.9244791666667 27.3980034722222  31.640625 26.9856770833333  C 32.3350694444445 26.5950520833333  32.8667534722222 26.2858072916667  33.2356770833333 26.0579427083333  C 33.6046006944445 25.830078125  34.1037326388889 25.4503038194444  34.7330729166667 24.9186197916667  C 35.3624131944445 24.3869357638889  35.8452690972222 23.8661024305556  36.181640625 23.3561197916667  C 36.5180121527778 22.8461371527778  36.8218315972222 22.1896701388889  37.0930989583333 21.38671875  Z M 46.6471354166667 12.451171875  C 48.8823784722222 16.2814670138889  50 20.4644097222222  50 25  C 50 29.5355902777778  48.8823784722222 33.7185329861111  46.6471354166667 37.548828125  C 44.4118923611111 41.3791232638889  41.3791232638889 44.4118923611111  37.548828125 46.6471354166667  C 33.7185329861111 48.8823784722222  29.5355902777778 50  25 50  C 20.4644097222222 50  16.2814670138889 48.8823784722222  12.451171875 46.6471354166667  C 8.62087673611111 44.4118923611111  5.58810763888889 41.3791232638889  3.35286458333333 37.548828125  C 1.11762152777778 33.7185329861111  0 29.5355902777778  0 25  C 0 20.4644097222222  1.11762152777778 16.2814670138889  3.35286458333333 12.451171875  C 5.58810763888889 8.62087673611111  8.62087673611111 5.58810763888888  12.451171875 3.35286458333333  C 16.2814670138889 1.11762152777777  20.4644097222222 0  25 0  C 29.5355902777778 0  33.7185329861111 1.11762152777777  37.548828125 3.35286458333333  C 41.3791232638889 5.58810763888888  44.4118923611111 8.62087673611111  46.6471354166667 12.451171875  Z " fill-rule="nonzero" fill="#ffffff" stroke="none" transform="matrix(1 0 0 1 1630 115 )" />
  </g>
</svg>