<?xml version="1.0" encoding="utf-8"?>
<svg version="1.1" xmlns:xlink="http://www.w3.org/1999/xlink" width="76px" height="106px" xmlns="http://www.w3.org/2000/svg">
  <defs>
    <mask fill="white" id="clip1559">
      <path d="M 49.0508108108108 80.49375  C 49.7081081081081 81.15625  50.0367567567568 81.9291666666667  50 82.8125  L 50 102.6875  C 50.0367567567568 103.570833333333  49.7081081081081 104.34375  49.0508108108108 105.00625  C 48.3935135135135 105.66875  47.6266666666667 106  46.7502702702703 106  L 27.0313513513514 106  C 26.154954954955 106  25.3881081081081 105.66875  24.7308108108108 105.00625  C 24.0735135135135 104.34375  23.7448648648649 103.570833333333  24 102.6875  L 24 82.8125  C 23.7448648648649 81.9291666666667  24.0735135135135 81.15625  24.7308108108108 80.49375  C 25.3881081081081 79.83125  26.154954954955 79.5  27.0313513513514 79  L 46.7502702702703 79  C 47.6266666666667 79.5  48.3935135135135 79.83125  49.0508108108108 80.49375  Z M 72.6313513513514 19.99921875  C 74.8771171171171 24.1674479166667  76 28.5427083333333  76 33.125  C 76 36.10625  75.5754954954955 38.8942708333333  74.7264864864865 41.4890625  C 73.8774774774775 44.0838541666667  72.9189189189189 46.1955729166667  71.8508108108108 47.82421875  C 70.7827027027027 49.4528645833333  69.2763963963964 51.0953125  67.3318918918919 52.7515625  C 65.3873873873874 54.4078125  63.8126126126126 55.60859375  62.6075675675676 56.35390625  C 61.4025225225225 57.09921875  59.7318918918919 58.0791666666667  57.5956756756757 59.29375  C 55.3499099099099 60.5635416666667  53.4738738738739 62.3578125  51.9675675675676 64.6765625  C 50.4612612612613 66.9953125  49.7081081081081 68.8447916666667  49.7081081081081 70.225  C 49.7081081081081 71.1635416666667  49.3794594594595 72.0606770833333  48.7221621621622 72.91640625  C 48.0648648648649 73.7721354166667  47.298018018018 74.2  46.4216216216216 74  L 26.7027027027027 74  C 25.8810810810811 74.2  25.1827027027027 73.6893229166667  24.6075675675676 72.66796875  C 24.0324324324324 71.6466145833333  23.7448648648649 70.6114583333333  23.7448648648649 69.5625  L 23.7448648648649 65.8359375  C 23.7448648648649 61.2536458333333  25.525045045045 56.93359375  29.0854054054054 52.87578125  C 32.6457657657658 48.81796875  36.5621621621622 45.8229166666667  40.8345945945946 43.890625  C 44.0663063063063 42.4  46.3668468468468 40.8541666666667  47.7362162162162 39.253125  C 49.1055855855856 37.6520833333333  49.7902702702703 35.5541666666667  49.7902702702703 32.959375  C 49.7902702702703 30.640625  48.5167567567568 28.5979166666667  45.9697297297297 26.83125  C 43.4227027027027 25.0645833333333  40.4785585585586 24.18125  37.1372972972973 24.18125  C 33.5769369369369 24.18125  30.6190990990991 24.9817708333333  28.2637837837838 26.5828125  C 26.3466666666667 27.9630208333333  23.4162162162162 31.1375  19.4724324324324 36.10625  C 18.7603603603604 36.9895833333333  17.9113513513514 37.43125  16.9254054054054 37.43125  C 16.2681081081081 37.43125  15.5834234234234 37.2104166666667  14.8713513513514 36.76875  L 1.39675675675676 26.4171875  C 0.684684684684685 25.8651041666667  0.260180180180182 25.175  0.123243243243243 24.346875  C -0.0136936936936929 23.51875  0.136936936936937 22.7458333333333  0.575135135135135 22.028125  C 9.3390990990991 7.34270833333332  22.0468468468469 0  38.6983783783784 0  C 43.0803603603604 0  47.4897297297297 0.855729166666665  51.9264864864865 2.5671875  C 56.3632432432432 4.27864583333333  60.3618018018018 6.56979166666666  63.9221621621622 9.440625  C 67.4825225225225 12.3114583333333  70.3855855855856 15.8309895833333  72.6313513513514 19.99921875  Z " fill-rule="evenodd" />
    </mask>
  </defs>
  <g transform="matrix(1 0 0 1 -995 -650 )">
    <path d="M 49.0508108108108 80.49375  C 49.7081081081081 81.15625  50.0367567567568 81.9291666666667  50 82.8125  L 50 102.6875  C 50.0367567567568 103.570833333333  49.7081081081081 104.34375  49.0508108108108 105.00625  C 48.3935135135135 105.66875  47.6266666666667 106  46.7502702702703 106  L 27.0313513513514 106  C 26.154954954955 106  25.3881081081081 105.66875  24.7308108108108 105.00625  C 24.0735135135135 104.34375  23.7448648648649 103.570833333333  24 102.6875  L 24 82.8125  C 23.7448648648649 81.9291666666667  24.0735135135135 81.15625  24.7308108108108 80.49375  C 25.3881081081081 79.83125  26.154954954955 79.5  27.0313513513514 79  L 46.7502702702703 79  C 47.6266666666667 79.5  48.3935135135135 79.83125  49.0508108108108 80.49375  Z M 72.6313513513514 19.99921875  C 74.8771171171171 24.1674479166667  76 28.5427083333333  76 33.125  C 76 36.10625  75.5754954954955 38.8942708333333  74.7264864864865 41.4890625  C 73.8774774774775 44.0838541666667  72.9189189189189 46.1955729166667  71.8508108108108 47.82421875  C 70.7827027027027 49.4528645833333  69.2763963963964 51.0953125  67.3318918918919 52.7515625  C 65.3873873873874 54.4078125  63.8126126126126 55.60859375  62.6075675675676 56.35390625  C 61.4025225225225 57.09921875  59.7318918918919 58.0791666666667  57.5956756756757 59.29375  C 55.3499099099099 60.5635416666667  53.4738738738739 62.3578125  51.9675675675676 64.6765625  C 50.4612612612613 66.9953125  49.7081081081081 68.8447916666667  49.7081081081081 70.225  C 49.7081081081081 71.1635416666667  49.3794594594595 72.0606770833333  48.7221621621622 72.91640625  C 48.0648648648649 73.7721354166667  47.298018018018 74.2  46.4216216216216 74  L 26.7027027027027 74  C 25.8810810810811 74.2  25.1827027027027 73.6893229166667  24.6075675675676 72.66796875  C 24.0324324324324 71.6466145833333  23.7448648648649 70.6114583333333  23.7448648648649 69.5625  L 23.7448648648649 65.8359375  C 23.7448648648649 61.2536458333333  25.525045045045 56.93359375  29.0854054054054 52.87578125  C 32.6457657657658 48.81796875  36.5621621621622 45.8229166666667  40.8345945945946 43.890625  C 44.0663063063063 42.4  46.3668468468468 40.8541666666667  47.7362162162162 39.253125  C 49.1055855855856 37.6520833333333  49.7902702702703 35.5541666666667  49.7902702702703 32.959375  C 49.7902702702703 30.640625  48.5167567567568 28.5979166666667  45.9697297297297 26.83125  C 43.4227027027027 25.0645833333333  40.4785585585586 24.18125  37.1372972972973 24.18125  C 33.5769369369369 24.18125  30.6190990990991 24.9817708333333  28.2637837837838 26.5828125  C 26.3466666666667 27.9630208333333  23.4162162162162 31.1375  19.4724324324324 36.10625  C 18.7603603603604 36.9895833333333  17.9113513513514 37.43125  16.9254054054054 37.43125  C 16.2681081081081 37.43125  15.5834234234234 37.2104166666667  14.8713513513514 36.76875  L 1.39675675675676 26.4171875  C 0.684684684684685 25.8651041666667  0.260180180180182 25.175  0.123243243243243 24.346875  C -0.0136936936936929 23.51875  0.136936936936937 22.7458333333333  0.575135135135135 22.028125  C 9.3390990990991 7.34270833333332  22.0468468468469 0  38.6983783783784 0  C 43.0803603603604 0  47.4897297297297 0.855729166666665  51.9264864864865 2.5671875  C 56.3632432432432 4.27864583333333  60.3618018018018 6.56979166666666  63.9221621621622 9.440625  C 67.4825225225225 12.3114583333333  70.3855855855856 15.8309895833333  72.6313513513514 19.99921875  Z " fill-rule="nonzero" fill="#ec80db" stroke="none" fill-opacity="0.996078431372549" transform="matrix(1 0 0 1 995 650 )" />
    <path d="M 49.0508108108108 80.49375  C 49.7081081081081 81.15625  50.0367567567568 81.9291666666667  50 82.8125  L 50 102.6875  C 50.0367567567568 103.570833333333  49.7081081081081 104.34375  49.0508108108108 105.00625  C 48.3935135135135 105.66875  47.6266666666667 106  46.7502702702703 106  L 27.0313513513514 106  C 26.154954954955 106  25.3881081081081 105.66875  24.7308108108108 105.00625  C 24.0735135135135 104.34375  23.7448648648649 103.570833333333  24 102.6875  L 24 82.8125  C 23.7448648648649 81.9291666666667  24.0735135135135 81.15625  24.7308108108108 80.49375  C 25.3881081081081 79.83125  26.154954954955 79.5  27.0313513513514 79  L 46.7502702702703 79  C 47.6266666666667 79.5  48.3935135135135 79.83125  49.0508108108108 80.49375  Z " stroke-width="2" stroke="#0000ff" fill="none" transform="matrix(1 0 0 1 995 650 )" mask="url(#clip1559)" />
    <path d="M 72.6313513513514 19.99921875  C 74.8771171171171 24.1674479166667  76 28.5427083333333  76 33.125  C 76 36.10625  75.5754954954955 38.8942708333333  74.7264864864865 41.4890625  C 73.8774774774775 44.0838541666667  72.9189189189189 46.1955729166667  71.8508108108108 47.82421875  C 70.7827027027027 49.4528645833333  69.2763963963964 51.0953125  67.3318918918919 52.7515625  C 65.3873873873874 54.4078125  63.8126126126126 55.60859375  62.6075675675676 56.35390625  C 61.4025225225225 57.09921875  59.7318918918919 58.0791666666667  57.5956756756757 59.29375  C 55.3499099099099 60.5635416666667  53.4738738738739 62.3578125  51.9675675675676 64.6765625  C 50.4612612612613 66.9953125  49.7081081081081 68.8447916666667  49.7081081081081 70.225  C 49.7081081081081 71.1635416666667  49.3794594594595 72.0606770833333  48.7221621621622 72.91640625  C 48.0648648648649 73.7721354166667  47.298018018018 74.2  46.4216216216216 74  L 26.7027027027027 74  C 25.8810810810811 74.2  25.1827027027027 73.6893229166667  24.6075675675676 72.66796875  C 24.0324324324324 71.6466145833333  23.7448648648649 70.6114583333333  23.7448648648649 69.5625  L 23.7448648648649 65.8359375  C 23.7448648648649 61.2536458333333  25.525045045045 56.93359375  29.0854054054054 52.87578125  C 32.6457657657658 48.81796875  36.5621621621622 45.8229166666667  40.8345945945946 43.890625  C 44.0663063063063 42.4  46.3668468468468 40.8541666666667  47.7362162162162 39.253125  C 49.1055855855856 37.6520833333333  49.7902702702703 35.5541666666667  49.7902702702703 32.959375  C 49.7902702702703 30.640625  48.5167567567568 28.5979166666667  45.9697297297297 26.83125  C 43.4227027027027 25.0645833333333  40.4785585585586 24.18125  37.1372972972973 24.18125  C 33.5769369369369 24.18125  30.6190990990991 24.9817708333333  28.2637837837838 26.5828125  C 26.3466666666667 27.9630208333333  23.4162162162162 31.1375  19.4724324324324 36.10625  C 18.7603603603604 36.9895833333333  17.9113513513514 37.43125  16.9254054054054 37.43125  C 16.2681081081081 37.43125  15.5834234234234 37.2104166666667  14.8713513513514 36.76875  L 1.39675675675676 26.4171875  C 0.684684684684685 25.8651041666667  0.260180180180182 25.175  0.123243243243243 24.346875  C -0.0136936936936929 23.51875  0.136936936936937 22.7458333333333  0.575135135135135 22.028125  C 9.3390990990991 7.34270833333332  22.0468468468469 0  38.6983783783784 0  C 43.0803603603604 0  47.4897297297297 0.855729166666665  51.9264864864865 2.5671875  C 56.3632432432432 4.27864583333333  60.3618018018018 6.56979166666666  63.9221621621622 9.440625  C 67.4825225225225 12.3114583333333  70.3855855855856 15.8309895833333  72.6313513513514 19.99921875  Z " stroke-width="2" stroke="#0000ff" fill="none" transform="matrix(1 0 0 1 995 650 )" mask="url(#clip1559)" />
  </g>
</svg>