<?xml version="1.0" encoding="utf-8"?>
<svg version="1.1" xmlns:xlink="http://www.w3.org/1999/xlink" width="73px" height="102px" xmlns="http://www.w3.org/2000/svg">
  <defs>
    <mask fill="white" id="clip1595">
      <path d="M 47.1145945945946 77.45625  C 47.7459459459459 78.09375  48.0616216216216 78.8375  48 79.6875  L 48 98.8125  C 48.0616216216216 99.6625  47.7459459459459 100.40625  47.1145945945946 101.04375  C 46.4832432432432 101.68125  45.7466666666667 102  44.9048648648649 102  L 25.9643243243243 102  C 25.1225225225225 102  24.385945945946 101.68125  23.7545945945946 101.04375  C 23.1232432432432 100.40625  22.8075675675676 99.6625  23 98.8125  L 23 79.6875  C 22.8075675675676 78.8375  23.1232432432432 78.09375  23.7545945945946 77.45625  C 24.385945945946 76.81875  25.1225225225225 76.5  25.9643243243243 76  L 44.9048648648649 76  C 45.7466666666667 76.5  46.4832432432432 76.81875  47.1145945945946 77.45625  Z M 69.7643243243243 19.24453125  C 71.9214414414415 23.25546875  73 27.465625  73 31.875  C 73 34.74375  72.5922522522523 37.4265625  71.7767567567568 39.9234375  C 70.9612612612613 42.4203125  70.0405405405405 44.45234375  69.0145945945946 46.01953125  C 67.9886486486486 47.58671875  66.5418018018018 49.1671875  64.6740540540541 50.7609375  C 62.8063063063063 52.3546875  61.2936936936937 53.51015625  60.1362162162162 54.22734375  C 58.9787387387387 54.94453125  57.374054054054 55.8875  55.3221621621622 57.05625  C 53.1650450450451 58.278125  51.3630630630631 60.0046875  49.9162162162162 62.2359375  C 48.4693693693694 64.4671875  47.7459459459459 66.246875  47.7459459459459 67.575  C 47.7459459459459 68.478125  47.4302702702703 69.34140625  46.7989189189189 70.16484375  C 46.1675675675676 70.98828125  45.430990990991 71.4  44.5891891891892 71  L 25.6486486486486 71  C 24.8594594594595 71.4  24.1886486486487 70.90859375  23.6362162162162 69.92578125  C 23.0837837837838 68.94296875  22.8075675675676 67.946875  22.8075675675676 66.9375  L 22.8075675675676 63.3515625  C 22.8075675675676 58.9421875  24.5174774774775 54.78515625  27.9372972972973 50.88046875  C 31.3571171171171 46.97578125  35.1189189189189 44.09375  39.2227027027027 42.234375  C 42.3268468468469 40.8  44.5365765765766 39.3125  45.8518918918919 37.771875  C 47.1672072072072 36.23125  47.8248648648649 34.2125  47.8248648648649 31.715625  C 47.8248648648649 29.484375  46.6016216216216 27.51875  44.1551351351351 25.81875  C 41.7086486486487 24.11875  38.8807207207207 23.26875  35.6713513513514 23.26875  C 32.2515315315315 23.26875  29.4104504504505 24.0390625  27.1481081081081 25.5796875  C 25.3066666666667 26.9078125  22.4918918918919 29.9625  18.7037837837838 34.74375  C 18.0198198198198 35.59375  17.2043243243243 36.01875  16.2572972972973 36.01875  C 15.6259459459459 36.01875  14.9682882882883 35.80625  14.2843243243243 35.38125  L 1.34162162162162 25.4203125  C 0.657657657657658 24.8890625  0.249909909909911 24.225  0.118378378378378 23.428125  C -0.0131531531531524 22.63125  0.131531531531532 21.8875  0.552432432432432 21.196875  C 8.97045045045045 7.06562499999998  21.1765765765766 0  37.1708108108108 0  C 41.3798198198198 0  45.6151351351351 0.823437499999998  49.8767567567568 2.4703125  C 54.1383783783784 4.11718749999999  57.9790990990991 6.32187499999999  61.3989189189189 9.08437500000001  C 64.8187387387387 11.846875  67.6072072072072 15.23359375  69.7643243243243 19.24453125  Z " fill-rule="evenodd" />
    </mask>
  </defs>
  <g transform="matrix(1 0 0 1 -647 -518 )">
    <path d="M 47.1145945945946 77.45625  C 47.7459459459459 78.09375  48.0616216216216 78.8375  48 79.6875  L 48 98.8125  C 48.0616216216216 99.6625  47.7459459459459 100.40625  47.1145945945946 101.04375  C 46.4832432432432 101.68125  45.7466666666667 102  44.9048648648649 102  L 25.9643243243243 102  C 25.1225225225225 102  24.385945945946 101.68125  23.7545945945946 101.04375  C 23.1232432432432 100.40625  22.8075675675676 99.6625  23 98.8125  L 23 79.6875  C 22.8075675675676 78.8375  23.1232432432432 78.09375  23.7545945945946 77.45625  C 24.385945945946 76.81875  25.1225225225225 76.5  25.9643243243243 76  L 44.9048648648649 76  C 45.7466666666667 76.5  46.4832432432432 76.81875  47.1145945945946 77.45625  Z M 69.7643243243243 19.24453125  C 71.9214414414415 23.25546875  73 27.465625  73 31.875  C 73 34.74375  72.5922522522523 37.4265625  71.7767567567568 39.9234375  C 70.9612612612613 42.4203125  70.0405405405405 44.45234375  69.0145945945946 46.01953125  C 67.9886486486486 47.58671875  66.5418018018018 49.1671875  64.6740540540541 50.7609375  C 62.8063063063063 52.3546875  61.2936936936937 53.51015625  60.1362162162162 54.22734375  C 58.9787387387387 54.94453125  57.374054054054 55.8875  55.3221621621622 57.05625  C 53.1650450450451 58.278125  51.3630630630631 60.0046875  49.9162162162162 62.2359375  C 48.4693693693694 64.4671875  47.7459459459459 66.246875  47.7459459459459 67.575  C 47.7459459459459 68.478125  47.4302702702703 69.34140625  46.7989189189189 70.16484375  C 46.1675675675676 70.98828125  45.430990990991 71.4  44.5891891891892 71  L 25.6486486486486 71  C 24.8594594594595 71.4  24.1886486486487 70.90859375  23.6362162162162 69.92578125  C 23.0837837837838 68.94296875  22.8075675675676 67.946875  22.8075675675676 66.9375  L 22.8075675675676 63.3515625  C 22.8075675675676 58.9421875  24.5174774774775 54.78515625  27.9372972972973 50.88046875  C 31.3571171171171 46.97578125  35.1189189189189 44.09375  39.2227027027027 42.234375  C 42.3268468468469 40.8  44.5365765765766 39.3125  45.8518918918919 37.771875  C 47.1672072072072 36.23125  47.8248648648649 34.2125  47.8248648648649 31.715625  C 47.8248648648649 29.484375  46.6016216216216 27.51875  44.1551351351351 25.81875  C 41.7086486486487 24.11875  38.8807207207207 23.26875  35.6713513513514 23.26875  C 32.2515315315315 23.26875  29.4104504504505 24.0390625  27.1481081081081 25.5796875  C 25.3066666666667 26.9078125  22.4918918918919 29.9625  18.7037837837838 34.74375  C 18.0198198198198 35.59375  17.2043243243243 36.01875  16.2572972972973 36.01875  C 15.6259459459459 36.01875  14.9682882882883 35.80625  14.2843243243243 35.38125  L 1.34162162162162 25.4203125  C 0.657657657657658 24.8890625  0.249909909909911 24.225  0.118378378378378 23.428125  C -0.0131531531531524 22.63125  0.131531531531532 21.8875  0.552432432432432 21.196875  C 8.97045045045045 7.06562499999998  21.1765765765766 0  37.1708108108108 0  C 41.3798198198198 0  45.6151351351351 0.823437499999998  49.8767567567568 2.4703125  C 54.1383783783784 4.11718749999999  57.9790990990991 6.32187499999999  61.3989189189189 9.08437500000001  C 64.8187387387387 11.846875  67.6072072072072 15.23359375  69.7643243243243 19.24453125  Z " fill-rule="nonzero" fill="#00ffff" stroke="none" transform="matrix(1 0 0 1 647 518 )" />
    <path d="M 47.1145945945946 77.45625  C 47.7459459459459 78.09375  48.0616216216216 78.8375  48 79.6875  L 48 98.8125  C 48.0616216216216 99.6625  47.7459459459459 100.40625  47.1145945945946 101.04375  C 46.4832432432432 101.68125  45.7466666666667 102  44.9048648648649 102  L 25.9643243243243 102  C 25.1225225225225 102  24.385945945946 101.68125  23.7545945945946 101.04375  C 23.1232432432432 100.40625  22.8075675675676 99.6625  23 98.8125  L 23 79.6875  C 22.8075675675676 78.8375  23.1232432432432 78.09375  23.7545945945946 77.45625  C 24.385945945946 76.81875  25.1225225225225 76.5  25.9643243243243 76  L 44.9048648648649 76  C 45.7466666666667 76.5  46.4832432432432 76.81875  47.1145945945946 77.45625  Z " stroke-width="2" stroke="#0000ff" fill="none" transform="matrix(1 0 0 1 647 518 )" mask="url(#clip1595)" />
    <path d="M 69.7643243243243 19.24453125  C 71.9214414414415 23.25546875  73 27.465625  73 31.875  C 73 34.74375  72.5922522522523 37.4265625  71.7767567567568 39.9234375  C 70.9612612612613 42.4203125  70.0405405405405 44.45234375  69.0145945945946 46.01953125  C 67.9886486486486 47.58671875  66.5418018018018 49.1671875  64.6740540540541 50.7609375  C 62.8063063063063 52.3546875  61.2936936936937 53.51015625  60.1362162162162 54.22734375  C 58.9787387387387 54.94453125  57.374054054054 55.8875  55.3221621621622 57.05625  C 53.1650450450451 58.278125  51.3630630630631 60.0046875  49.9162162162162 62.2359375  C 48.4693693693694 64.4671875  47.7459459459459 66.246875  47.7459459459459 67.575  C 47.7459459459459 68.478125  47.4302702702703 69.34140625  46.7989189189189 70.16484375  C 46.1675675675676 70.98828125  45.430990990991 71.4  44.5891891891892 71  L 25.6486486486486 71  C 24.8594594594595 71.4  24.1886486486487 70.90859375  23.6362162162162 69.92578125  C 23.0837837837838 68.94296875  22.8075675675676 67.946875  22.8075675675676 66.9375  L 22.8075675675676 63.3515625  C 22.8075675675676 58.9421875  24.5174774774775 54.78515625  27.9372972972973 50.88046875  C 31.3571171171171 46.97578125  35.1189189189189 44.09375  39.2227027027027 42.234375  C 42.3268468468469 40.8  44.5365765765766 39.3125  45.8518918918919 37.771875  C 47.1672072072072 36.23125  47.8248648648649 34.2125  47.8248648648649 31.715625  C 47.8248648648649 29.484375  46.6016216216216 27.51875  44.1551351351351 25.81875  C 41.7086486486487 24.11875  38.8807207207207 23.26875  35.6713513513514 23.26875  C 32.2515315315315 23.26875  29.4104504504505 24.0390625  27.1481081081081 25.5796875  C 25.3066666666667 26.9078125  22.4918918918919 29.9625  18.7037837837838 34.74375  C 18.0198198198198 35.59375  17.2043243243243 36.01875  16.2572972972973 36.01875  C 15.6259459459459 36.01875  14.9682882882883 35.80625  14.2843243243243 35.38125  L 1.34162162162162 25.4203125  C 0.657657657657658 24.8890625  0.249909909909911 24.225  0.118378378378378 23.428125  C -0.0131531531531524 22.63125  0.131531531531532 21.8875  0.552432432432432 21.196875  C 8.97045045045045 7.06562499999998  21.1765765765766 0  37.1708108108108 0  C 41.3798198198198 0  45.6151351351351 0.823437499999998  49.8767567567568 2.4703125  C 54.1383783783784 4.11718749999999  57.9790990990991 6.32187499999999  61.3989189189189 9.08437500000001  C 64.8187387387387 11.846875  67.6072072072072 15.23359375  69.7643243243243 19.24453125  Z " stroke-width="2" stroke="#0000ff" fill="none" transform="matrix(1 0 0 1 647 518 )" mask="url(#clip1595)" />
  </g>
</svg>