<?xml version="1.0" encoding="utf-8"?>
<svg version="1.1" xmlns:xlink="http://www.w3.org/1999/xlink" width="111px" height="91px" xmlns="http://www.w3.org/2000/svg">
  <g transform="matrix(1 0 0 1 -1779 -29 )">
    <path d="M 45.1645408163265 83.215234375  C 45.1173469387755 83.4759114583333  45.1645408163265 83.7958333333333  45.3061224489796 84.175  C 45.3061224489796 84.3645833333333  45.3297193877551 84.8385416666667  45.3769132653061 85.596875  C 45.4241071428571 86.3552083333333  45.4359056122449 86.983203125  45.4123086734694 87.480859375  C 45.3887117346939 87.978515625  45.3179209183673 88.5354166666667  45.1999362244898 89.1515625  C 45.0819515306122 89.7677083333333  44.8459821428571 90.2298177083333  44.4920280612245 90.537890625  C 44.1380739795918 90.8459635416667  43.6543367346939 91  43.0408163265306 91  L 20.3877551020408 91  C 14.7716836734694 91  9.96970663265306 88.9975260416667  5.98182397959184 84.992578125  C 1.99394132653061 80.9876302083333  0 76.1651041666667  0 70.525  L 0 20.475  C 0 14.8348958333333  1.99394132653061 10.0123697916667  5.98182397959184 6.007421875  C 9.96970663265306 2.00247395833332  14.7716836734694 0  20.3877551020408 0  L 43.0408163265306 0  C 43.6543367346939 0  44.1852678571429 0.225130208333321  44.6336096938776 0.675390625000002  C 45.0819515306122 1.12565104166666  45.3061224489796 1.65885416666666  45.3061224489796 2.275  C 45.3061224489796 2.46458333333332  45.3297193877551 2.93854166666666  45.3769132653061 3.696875  C 45.4241071428571 4.45520833333332  45.4359056122449 5.083203125  45.4123086734694 5.580859375  C 45.3887117346939 6.078515625  45.3179209183673 6.63541666666666  45.1999362244898 7.2515625  C 45.0819515306122 7.86770833333332  44.8459821428571 8.32981770833332  44.4920280612245 8.637890625  C 44.1380739795918 8.94596354166666  43.6543367346939 9.1  43.0408163265306 9  L 20.3877551020408 9  C 17.2729591836735 9.1  14.6065051020408 10.2138020833333  12.3883928571429 12.44140625  C 10.1702806122449 14.6690104166667  9.06122448979592 17.346875  9 20.475  L 9 70.525  C 9.06122448979592 73.653125  10.1702806122449 76.3309895833333  12.3883928571429 78.55859375  C 14.6065051020408 80.7861979166667  17.2729591836735 81.9  20.3877551020408 82  L 40.7755102040816 82  L 41.5542091836735 81.9  L 42.4744897959184 81.9  C 42.4744897959184 81.9  42.7458545918367 81.9236979166667  43.2885841836735 81.97109375  C 43.8313137755102 82.0184895833333  44.1026785714286 82.0895833333333  44.1026785714286 82.184375  C 44.1026785714286 82.2791666666667  44.2914540816327 82.4095052083333  44.6690051020408 82.575390625  C 45.046556122449 82.7412760416667  45.2117346938776 82.9545572916667  45.1645408163265 83.215234375  Z M 109.654974489796 42.30078125  C 110.551658163265 43.2013020833333  111 44.2677083333333  111 45.5  C 111 46.7322916666667  110.551658163265 47.7986979166667  109.654974489796 48.69921875  L 71.1447704081633 87.37421875  C 70.2480867346939 88.2747395833333  69.1862244897959 88.725  67.9591836734694 88.725  C 66.7321428571429 88.725  65.6702806122449 88.2747395833333  64.7735969387755 87.37421875  C 63.8769132653061 86.4736979166667  63.4285714285714 85.4072916666667  63 84.175  L 63 63  L 31.7142857142857 63  C 30.4872448979592 63.7  29.4253826530612 63.2497395833333  28.5286989795918 62.34921875  C 27.6320153061224 61.4486979166667  27.1836734693878 60.3822916666667  28 59.15  L 28 31.85  C 27.1836734693878 30.6177083333333  27.6320153061224 29.5513020833333  28.5286989795918 28.65078125  C 29.4253826530612 27.7502604166667  30.4872448979592 27.3  31.7142857142857 28  L 63 28  L 63 6.825  C 63.4285714285714 5.59270833333332  63.8769132653061 4.52630208333332  64.7735969387755 3.62578125  C 65.6702806122449 2.72526041666666  66.7321428571429 2.275  67.9591836734694 2.275  C 69.1862244897959 2.275  70.2480867346939 2.72526041666666  71.1447704081633 3.62578125  L 109.654974489796 42.30078125  Z " fill-rule="nonzero" fill="#169bd5" stroke="none" transform="matrix(1 0 0 1 1779 29 )" />
  </g>
</svg>