<?xml version="1.0" encoding="utf-8"?>
<svg version="1.1" xmlns:xlink="http://www.w3.org/1999/xlink" width="125px" height="100px" xmlns="http://www.w3.org/2000/svg">
  <g transform="matrix(1 0 0 1 -55 -95 )">
    <path d="M 107.032218091698 57.1317225253313  C 107.083849648905 57.2356456222395  107.109665427509 57.391530267602  107 57.5993764614186  L 107 95.0116913484022  C 107.109665427509 96.3626916082099  106.619165634036 97.5318264484282  105.638166047088 98.5190958690569  C 104.65716646014 99.5063652896856  103.495456422966 100  102.153035935564 100  L 72 100  L 72 70  L 53 70  L 53 100  L 22.8469640644362 100  C 21.5045435770343 100  20.3428335398596 99.5063652896856  19.361833952912 98.5190958690569  C 18.3808343659645 97.5318264484282  17.8903345724907 96.3626916082099  18 95.0116913484022  L 18 57.5993764614186  C 17.8903345724907 57.5474149129644  17.9032424617926 57.4694725902832  17.9290582403965 57.3655494933749  C 17.9548740190004 57.2616263964666  17.9677819083024 57.1836840737854  17.9677819083024 57.1317225253313  L 62.5 20.1870615744349  L 107.032218091698 57.1317225253313  Z M 124.922552664188 50.3897116134061  C 124.974184221396 51.091192517537  124.793473771169 51.7017407118732  124.380421313507 52.2213561964147  L 119.578686493185 57.9890880748246  C 119.165634035523 58.4567420109119  118.623502684841 58.7425305274097  117.95229244114 58.846453624318  L 117.719950433705 58.846453624318  C 117.048740190004 58.846453624318  116.506608839323 58.6645882047285  116.09355638166 58.3008573655495  L 62.5 13.3281371784879  L 8.90644361833953 58.3008573655495  C 8.28686493184635 58.7165497531826  7.66728624535316 58.8984151727721  7.04770755885998 58.846453624318  C 6.37649731515903 58.7425305274097  5.83436596447749 58.4567420109119  5.42131350681537 57.9890880748246  L 0.619578686493185 52.2213561964147  C 0.206526228831062 51.7017407118732  0.0258157786038829 51.091192517537  0.0774473358116481 50.3897116134061  C 0.129078893019414 49.6882307092751  0.413052457662123 49.1296440633931  0.929368029739777 48.7139516757599  L 56.6140024783147 2.02650038971162  C 58.2662123089632 0.675500129903861  60.2282114828583 0  62.5 0  C 64.7717885171417 0  66.7337876910368 0.675500129903861  68.3859975216853 2.02650038971162  L 87 17.9267342166797  L 87 2.72798129384255  C 87.2831474597274 2.00051961548453  87.5154894671623 1.40296180826188  87.9801734820322 0.935307872174596  C 88.4448574969021 0.467653936087298  89.0386204047914 0.233826968043649  89.7614622057001 1  L 104.631350681537 1  C 105.354192482445 0.233826968043649  105.947955390335 0.467653936087298  106.412639405204 0.935307872174596  C 106.877323420074 1.40296180826188  107.109665427509 2.00051961548453  107 2.72798129384255  L 107 34.5284489477786  L 124.07063197026 48.7139516757599  C 124.586947542338 49.1296440633931  124.870921106981 49.6882307092751  124.922552664188 50.3897116134061  Z " fill-rule="nonzero" fill="#f2f2f2" stroke="none" transform="matrix(1 0 0 1 55 95 )" />
  </g>
</svg>