<?xml version="1.0" encoding="utf-8"?>
<svg version="1.1" xmlns:xlink="http://www.w3.org/1999/xlink" width="78px" height="70px" xmlns="http://www.w3.org/2000/svg">
  <g transform="matrix(1 0 0 1 -270 -130 )">
    <path d="M 75.6930803571428 31.63125  C 77.2310267857143 35.5395833333333  78 40.3958333333333  78 46.2  C 78 51.0416666666667  76.1573660714286 57.61875  72.4720982142857 65.93125  C 72.3850446428572 66.1354166666667  72.2327008928572 66.4854166666667  72.0150669642857 66.98125  C 71.7974330357143 67.4770833333333  71.6015625 67.9145833333333  71.4274553571428 68.29375  C 71.2533482142857 68.6729166666667  71.0647321428572 68.99375  70.8616071428572 69.25625  C 70.5133928571428 69.7520833333333  70.1071428571429 70  69.6428571428572 70  C 69.2075892857143 70  68.8666294642857 69.8541666666667  68.6199776785714 69.5625  C 68.3733258928572 69.2708333333333  68.25 68.90625  68.25 68.46875  C 68.25 68.20625  68.2862723214286 67.8197916666667  68.3588169642857 67.309375  C 68.4313616071429 66.7989583333333  68.4676339285714 66.45625  68.4676339285714 66.28125  C 68.6127232142857 64.2979166666667  68.6852678571429 62.5041666666667  68.6852678571428 60.9  C 68.6852678571429 57.9541666666667  68.4313616071429 55.3145833333333  67.9235491071428 52.98125  C 67.4157366071429 50.6479166666667  66.7120535714286 48.628125  65.8125 46.921875  C 64.9129464285714 45.215625  63.7522321428571 43.7427083333333  62.3303571428571 42.503125  C 60.9084821428572 41.2635416666667  59.3777901785714 40.25  57.73828125 39.4625  C 56.0987723214286 38.675  54.1690848214286 38.0552083333333  51.94921875 37.603125  C 49.7293526785714 37.1510416666667  47.4949776785714 36.8375  45.24609375 36.6625  C 42.9972098214286 36.4875  40.4508928571429 36.4  37.6071428571429 36.4  L 28 36.4  L 28 47.6  C 27.8571428571429 48.3583333333333  27.5814732142857 49.0145833333333  27.0301339285714 49.56875  C 26.4787946428571 50.1229166666667  25.8258928571429 50.4  25.0714285714286 50.4  C 24.3169642857143 50.4  23.6640625 50.1229166666667  23.1127232142857 49.56875  L 0.827008928571429 27.16875  C 0.275669642857143 26.6145833333333  0 25.9583333333333  0 25.2  C 0 24.4416666666667  0.275669642857143 23.7854166666667  0.827008928571429 23.23125  L 23.1127232142857 0.831249999999998  C 23.6640625 0.27708333333333  24.3169642857143 0  25.0714285714286 0  C 25.8258928571429 0  26.4787946428571 0.27708333333333  27.0301339285714 0.831249999999998  C 27.5814732142857 1.38541666666666  27.8571428571429 2.04166666666666  28 2.8  L 28 14  L 37.6071428571429 14  C 58.296875 14  70.9921875 19.8770833333333  75.6930803571428 31.63125  Z " fill-rule="nonzero" fill="#02a7f0" stroke="none" transform="matrix(1 0 0 1 270 130 )" />
  </g>
</svg>