<?xml version="1.0" encoding="utf-8"?>
<svg version="1.1" xmlns:xlink="http://www.w3.org/1999/xlink" width="180px" height="180px" xmlns="http://www.w3.org/2000/svg">
  <defs>
    <filter x="230px" y="520px" width="180px" height="180px" filterUnits="userSpaceOnUse" id="filter1285">
      <feOffset dx="5" dy="5" in="SourceAlpha" result="shadowOffsetInner" />
      <feGaussianBlur stdDeviation="2.5" in="shadowOffsetInner" result="shadowGaussian" />
      <feComposite in2="shadowGaussian" operator="atop" in="SourceAlpha" result="shadowComposite" />
      <feColorMatrix type="matrix" values="0 0 0 0 0  0 0 0 0 0  0 0 0 0 0  0 0 0 0.349019607843137 0  " in="shadowComposite" />
    </filter>
    <g id="widget1286">
      <path d="M 315 520  C 362.6 520  400 557.4  400 605  C 400 652.6  362.6 690  315 690  C 267.4 690  230 652.6  230 605  C 230 557.4  267.4 520  315 520  Z " fill-rule="nonzero" fill="#ffffff" stroke="none" />
      <path d="M 315 520.5  C 362.32 520.5  399.5 557.68  399.5 605  C 399.5 652.32  362.32 689.5  315 689.5  C 267.68 689.5  230.5 652.32  230.5 605  C 230.5 557.68  267.68 520.5  315 520.5  Z " stroke-width="1" stroke="#797979" fill="none" />
    </g>
  </defs>
  <g transform="matrix(1 0 0 1 -230 -520 )">
    <use xlink:href="#widget1286" filter="url(#filter1285)" />
    <use xlink:href="#widget1286" />
  </g>
</svg>