<?xml version="1.0" encoding="utf-8"?>
<svg version="1.1" xmlns:xlink="http://www.w3.org/1999/xlink" width="220px" height="220px" xmlns="http://www.w3.org/2000/svg">
  <defs>
    <filter x="1270px" y="340px" width="220px" height="220px" filterUnits="userSpaceOnUse" id="filter1295">
      <feOffset dx="5" dy="5" in="SourceAlpha" result="shadowOffsetInner" />
      <feGaussianBlur stdDeviation="2.5" in="shadowOffsetInner" result="shadowGaussian" />
      <feComposite in2="shadowGaussian" operator="atop" in="SourceAlpha" result="shadowComposite" />
      <feColorMatrix type="matrix" values="0 0 0 0 0  0 0 0 0 0  0 0 0 0 0  0 0 0 0.349019607843137 0  " in="shadowComposite" />
    </filter>
    <g id="widget1296">
      <path d="M 1375 344  C 1431.56 344  1476 388.44  1476 445  C 1476 501.56  1431.56 546  1375 546  C 1318.44 546  1274 501.56  1274 445  C 1274 388.44  1318.44 344  1375 344  Z " fill-rule="nonzero" fill="#facd91" stroke="none" />
      <path d="M 1375 342.5  C 1432.4 342.5  1477.5 387.6  1477.5 445  C 1477.5 502.4  1432.4 547.5  1375 547.5  C 1317.6 547.5  1272.5 502.4  1272.5 445  C 1272.5 387.6  1317.6 342.5  1375 342.5  Z " stroke-width="5" stroke="#f59a23" fill="none" />
    </g>
  </defs>
  <g transform="matrix(1 0 0 1 -1270 -340 )">
    <use xlink:href="#widget1296" filter="url(#filter1295)" />
    <use xlink:href="#widget1296" />
  </g>
</svg>