<?xml version="1.0" encoding="utf-8"?>
<svg version="1.1" xmlns:xlink="http://www.w3.org/1999/xlink" width="67px" height="78px" xmlns="http://www.w3.org/2000/svg">
  <g transform="matrix(1 0 0 1 -113 -123 )">
    <path d="M 65.6041666666667 5.57142857142857  L 61.4166666666667 5.57142857142857  C 61.4166666666667 13.1450892857143  59.8681640625 19.8409598214286  56.7711588541667 25.6590401785714  C 53.6741536458333 31.4771205357143  49.7992621527778 35.9241071428571  45.146484375 39  C 49.7992621527778 42.0758928571428  53.6741536458333 46.5228794642857  56.7711588541667 52.3409598214286  C 59.8681640625 58.1590401785714  61.4166666666667 64.8549107142857  61.4166666666667 72.4285714285714  L 65.6041666666667 72.4285714285714  C 66.0112847222222 72.4285714285714  66.345703125 72.5591517857143  66.607421875 72.8203125  C 66.869140625 73.0814732142857  67 73.4151785714286  67 73.8214285714286  L 67 76.6071428571428  C 67 77.0133928571429  66.869140625 77.3470982142857  66.607421875 77.6082589285714  C 66.345703125 77.8694196428572  66.0112847222222 78  65.6041666666667 78  L 1.39583333333333 78  C 0.988715277777778 78  0.654296875 77.8694196428572  0.392578125 77.6082589285714  C 0.130859375 77.3470982142857  0 77.0133928571429  0 76.6071428571428  L 0 73.8214285714286  C 0 73.4151785714286  0.130859375 73.0814732142857  0.392578125 72.8203125  C 0.654296875 72.5591517857143  0.988715277777778 72.4285714285714  1.39583333333333 72.4285714285714  L 5.58333333333333 72.4285714285714  C 5.58333333333333 64.8549107142857  7.1318359375 58.1590401785714  10.2288411458333 52.3409598214286  C 13.3258463541667 46.5228794642857  17.2007378472222 42.0758928571428  21.853515625 39  C 17.2007378472222 35.9241071428571  13.3258463541667 31.4771205357143  10.2288411458333 25.6590401785714  C 7.1318359375 19.8409598214286  5.58333333333333 13.1450892857143  5.58333333333333 5.57142857142857  L 1.39583333333333 5.57142857142857  C 0.988715277777778 5.57142857142857  0.654296875 5.44084821428572  0.392578125 5.1796875  C 0.130859375 4.91852678571428  0 4.58482142857143  0 4.17857142857143  L 0 1.39285714285715  C 0 0.986607142857135  0.130859375 0.652901785714284  0.392578125 0.391741071428569  C 0.654296875 0.130580357142853  0.988715277777778 0  1.39583333333333 0  L 65.6041666666667 0  C 66.0112847222222 0  66.345703125 0.130580357142853  66.607421875 0.391741071428569  C 66.869140625 0.652901785714284  67 0.986607142857135  67 1.39285714285715  L 67 4.17857142857143  C 67 4.58482142857143  66.869140625 4.91852678571428  66.607421875 5.1796875  C 66.345703125 5.44084821428572  66.0112847222222 5.57142857142857  65.6041666666667 5.57142857142857  Z M 52.1256510416667 23  C 54.5974392361111 17.1205357142857  55.8333333333333 11.5491071428571  55.8333333333333 6  L 11.1666666666667 6  C 11.1666666666667 11.5491071428571  12.4025607638889 17.1205357142857  14.8743489583333 23  L 52.1256510416667 23  Z M 13.6529947916667 58  L 53.3470052083333 58  C 51.7766927083333 54.4084821428571  49.6611328125 50.9045758928571  47.0003255208333 47.98828125  C 44.3395182291667 45.0719866071429  41.5115017361111 43.0044642857143  38.5162760416667 41  L 28.4837239583333 41  C 25.4884982638889 43.0044642857143  22.6604817708333 45.0719866071429  19.9996744791667 47.98828125  C 17.3388671875 50.9045758928571  15.2233072916667 54.4084821428571  13.6529947916667 58  Z " fill-rule="nonzero" fill="#d9001b" stroke="none" transform="matrix(1 0 0 1 113 123 )" />
  </g>
</svg>