<?xml version="1.0" encoding="utf-8"?>
<svg version="1.1" xmlns:xlink="http://www.w3.org/1999/xlink" width="377px" height="147px" xmlns="http://www.w3.org/2000/svg">
  <g transform="matrix(1 0 0 1 -832 -377 )">
    <path d="M 832.5 397  A 19.5 19.5 0 0 1 852 377.5 L 1189 377.5  A 19.5 19.5 0 0 1 1208.5 397 L 1208.5 504  A 19.5 19.5 0 0 1 1189 523.5 L 852 523.5  A 19.5 19.5 0 0 1 832.5 504 L 832.5 397  Z " fill-rule="nonzero" fill="#d7d7d7" stroke="none" />
    <path d="M 832.5 397  A 19.5 19.5 0 0 1 852 377.5 L 1189 377.5  A 19.5 19.5 0 0 1 1208.5 397 L 1208.5 504  A 19.5 19.5 0 0 1 1189 523.5 L 852 523.5  A 19.5 19.5 0 0 1 832.5 504 L 832.5 397  Z " stroke-width="1" stroke="#797979" fill="none" />
  </g>
</svg>