<?xml version="1.0" encoding="utf-8"?>
<svg version="1.1" xmlns:xlink="http://www.w3.org/1999/xlink" width="424px" height="84px" xmlns="http://www.w3.org/2000/svg">
  <g transform="matrix(1 0 0 1 -300 -377 )">
    <path d="M 302 397  A 18 18 0 0 1 320 379 L 704 379  A 18 18 0 0 1 722 397 L 722 441  A 18 18 0 0 1 704 459 L 320 459  A 18 18 0 0 1 302 441 L 302 397  Z " fill-rule="nonzero" fill="#d7d7d7" stroke="none" />
    <path d="M 301 397  A 19 19 0 0 1 320 378 L 704 378  A 19 19 0 0 1 723 397 L 723 441  A 19 19 0 0 1 704 460 L 320 460  A 19 19 0 0 1 301 441 L 301 397  Z " stroke-width="2" stroke="#00ffff" fill="none" stroke-opacity="0.996078431372549" />
  </g>
</svg>