<?xml version="1.0" encoding="utf-8"?>
<svg version="1.1" xmlns:xlink="http://www.w3.org/1999/xlink" width="377px" height="147px" xmlns="http://www.w3.org/2000/svg">
  <g transform="matrix(1 0 0 1 -832 -377 )">
    <path d="M 834 397  A 18 18 0 0 1 852 379 L 1189 379  A 18 18 0 0 1 1207 397 L 1207 504  A 18 18 0 0 1 1189 522 L 852 522  A 18 18 0 0 1 834 504 L 834 397  Z " fill-rule="nonzero" fill="#d7d7d7" stroke="none" />
    <path d="M 833 397  A 19 19 0 0 1 852 378 L 1189 378  A 19 19 0 0 1 1208 397 L 1208 504  A 19 19 0 0 1 1189 523 L 852 523  A 19 19 0 0 1 833 504 L 833 397  Z " stroke-width="2" stroke="#00ffff" fill="none" stroke-opacity="0.996078431372549" />
  </g>
</svg>