<?xml version="1.0" encoding="utf-8"?>
<svg version="1.1" xmlns:xlink="http://www.w3.org/1999/xlink" width="57px" height="57px" xmlns="http://www.w3.org/2000/svg">
  <defs>
    <filter x="376px" y="396px" width="57px" height="57px" filterUnits="userSpaceOnUse" id="filter1307">
      <feOffset dx="5" dy="5" in="SourceAlpha" result="shadowOffsetInner" />
      <feGaussianBlur stdDeviation="2.5" in="shadowOffsetInner" result="shadowGaussian" />
      <feComposite in2="shadowGaussian" operator="atop" in="SourceAlpha" result="shadowComposite" />
      <feColorMatrix type="matrix" values="0 0 0 0 0.498039215686275  0 0 0 0 0.498039215686275  0 0 0 0 0.498039215686275  0 0 0 0.349019607843137 0  " in="shadowComposite" />
    </filter>
    <g id="widget1308">
      <path d="M 399.5 396  C 412.66 396  423 406.34  423 419.5  C 423 432.66  412.66 443  399.5 443  C 386.34 443  376 432.66  376 419.5  C 376 406.34  386.34 396  399.5 396  Z " fill-rule="nonzero" fill="#ec808d" stroke="none" />
      <path d="M 399.5 396.5  C 412.38 396.5  422.5 406.62  422.5 419.5  C 422.5 432.38  412.38 442.5  399.5 442.5  C 386.62 442.5  376.5 432.38  376.5 419.5  C 376.5 406.62  386.62 396.5  399.5 396.5  Z " stroke-width="1" stroke="#d9001b" fill="none" />
    </g>
  </defs>
  <g transform="matrix(1 0 0 1 -376 -396 )">
    <use xlink:href="#widget1308" filter="url(#filter1307)" />
    <use xlink:href="#widget1308" />
  </g>
</svg>