<?xml version="1.0" encoding="utf-8"?>
<svg version="1.1" xmlns:xlink="http://www.w3.org/1999/xlink" width="317px" height="84px" xmlns="http://www.w3.org/2000/svg">
  <g transform="matrix(1 0 0 1 -1311 -379 )">
    <path d="M 1311.5 399  A 19.5 19.5 0 0 1 1331 379.5 L 1608 379.5  A 19.5 19.5 0 0 1 1627.5 399 L 1627.5 443  A 19.5 19.5 0 0 1 1608 462.5 L 1331 462.5  A 19.5 19.5 0 0 1 1311.5 443 L 1311.5 399  Z " fill-rule="nonzero" fill="#ffffff" stroke="none" fill-opacity="0" />
    <path d="M 1311.5 399  A 19.5 19.5 0 0 1 1331 379.5 L 1608 379.5  A 19.5 19.5 0 0 1 1627.5 399 L 1627.5 443  A 19.5 19.5 0 0 1 1608 462.5 L 1331 462.5  A 19.5 19.5 0 0 1 1311.5 443 L 1311.5 399  Z " stroke-width="1" stroke="#797979" fill="none" />
  </g>
</svg>