<?xml version="1.0" encoding="utf-8"?>
<svg version="1.1" xmlns:xlink="http://www.w3.org/1999/xlink" width="57px" height="57px" xmlns="http://www.w3.org/2000/svg">
  <defs>
    <filter x="658px" y="396px" width="57px" height="57px" filterUnits="userSpaceOnUse" id="filter1309">
      <feOffset dx="5" dy="5" in="SourceAlpha" result="shadowOffsetInner" />
      <feGaussianBlur stdDeviation="2.5" in="shadowOffsetInner" result="shadowGaussian" />
      <feComposite in2="shadowGaussian" operator="atop" in="SourceAlpha" result="shadowComposite" />
      <feColorMatrix type="matrix" values="0 0 0 0 0.498039215686275  0 0 0 0 0.498039215686275  0 0 0 0 0.498039215686275  0 0 0 0.349019607843137 0  " in="shadowComposite" />
    </filter>
    <g id="widget1310">
      <path d="M 681.5 396  C 694.66 396  705 406.34  705 419.5  C 705 432.66  694.66 443  681.5 443  C 668.34 443  658 432.66  658 419.5  C 658 406.34  668.34 396  681.5 396  Z " fill-rule="nonzero" fill="#02a7f0" stroke="none" />
      <path d="M 681.5 396.5  C 694.38 396.5  704.5 406.62  704.5 419.5  C 704.5 432.38  694.38 442.5  681.5 442.5  C 668.62 442.5  658.5 432.38  658.5 419.5  C 658.5 406.62  668.62 396.5  681.5 396.5  Z " stroke-width="1" stroke="#81d3f8" fill="none" />
    </g>
  </defs>
  <g transform="matrix(1 0 0 1 -658 -396 )">
    <use xlink:href="#widget1310" filter="url(#filter1309)" />
    <use xlink:href="#widget1310" />
  </g>
</svg>