<?xml version="1.0" encoding="utf-8"?>
<svg version="1.1" xmlns:xlink="http://www.w3.org/1999/xlink" width="424px" height="84px" xmlns="http://www.w3.org/2000/svg">
  <g transform="matrix(1 0 0 1 -300 -377 )">
    <path d="M 303 397  A 17 17 0 0 1 320 380 L 704 380  A 17 17 0 0 1 721 397 L 721 441  A 17 17 0 0 1 704 458 L 320 458  A 17 17 0 0 1 303 441 L 303 397  Z " fill-rule="nonzero" fill="#aaaaaa" stroke="none" />
    <path d="M 301.5 397  A 18.5 18.5 0 0 1 320 378.5 L 704 378.5  A 18.5 18.5 0 0 1 722.5 397 L 722.5 441  A 18.5 18.5 0 0 1 704 459.5 L 320 459.5  A 18.5 18.5 0 0 1 301.5 441 L 301.5 397  Z " stroke-width="3" stroke="#81d3f8" fill="none" stroke-opacity="0.996078431372549" />
  </g>
</svg>