<?xml version="1.0" encoding="utf-8"?>
<svg version="1.1" xmlns:xlink="http://www.w3.org/1999/xlink" width="240px" height="240px" xmlns="http://www.w3.org/2000/svg">
  <defs>
    <filter x="936px" y="536px" width="240px" height="240px" filterUnits="userSpaceOnUse" id="filter1321">
      <feOffset dx="1" dy="1" in="SourceAlpha" result="shadowOffsetInner" />
      <feGaussianBlur stdDeviation="2.5" in="shadowOffsetInner" result="shadowGaussian" />
      <feComposite in2="shadowGaussian" operator="atop" in="SourceAlpha" result="shadowComposite" />
      <feColorMatrix type="matrix" values="0 0 0 0 0  0 0 0 0 0  0 0 0 0 0  0 0 0 0.698039215686274 0  " in="shadowComposite" />
    </filter>
    <g id="widget1322">
      <path d="M 1055 540  C 1119.4 540  1170 590.6  1170 655  C 1170 719.4  1119.4 770  1055 770  C 990.6 770  940 719.4  940 655  C 940 590.6  990.6 540  1055 540  Z " fill-rule="nonzero" fill="#420080" stroke="none" fill-opacity="0.549019607843137" />
      <path d="M 1055 540.5  C 1119.12 540.5  1169.5 590.88  1169.5 655  C 1169.5 719.12  1119.12 769.5  1055 769.5  C 990.88 769.5  940.5 719.12  940.5 655  C 940.5 590.88  990.88 540.5  1055 540.5  Z " stroke-width="1" stroke="#ffffff" fill="none" />
    </g>
  </defs>
  <g transform="matrix(1 0 0 1 -936 -536 )">
    <use xlink:href="#widget1322" filter="url(#filter1321)" />
    <use xlink:href="#widget1322" />
  </g>
</svg>