<?xml version="1.0" encoding="utf-8"?>
<svg version="1.1" xmlns:xlink="http://www.w3.org/1999/xlink" width="240px" height="240px" xmlns="http://www.w3.org/2000/svg">
  <defs>
    <filter x="122px" y="492px" width="240px" height="240px" filterUnits="userSpaceOnUse" id="filter1311">
      <feOffset dx="1" dy="1" in="SourceAlpha" result="shadowOffsetInner" />
      <feGaussianBlur stdDeviation="2.5" in="shadowOffsetInner" result="shadowGaussian" />
      <feComposite in2="shadowGaussian" operator="atop" in="SourceAlpha" result="shadowComposite" />
      <feColorMatrix type="matrix" values="0 0 0 0 0  0 0 0 0 0  0 0 0 0 0  0 0 0 0.698039215686274 0  " in="shadowComposite" />
    </filter>
    <g id="widget1312">
      <path d="M 241 496  C 305.4 496  356 546.6  356 611  C 356 675.4  305.4 726  241 726  C 176.6 726  126 675.4  126 611  C 126 546.6  176.6 496  241 496  Z " fill-rule="nonzero" fill="#f59a23" stroke="none" fill-opacity="0.8" />
      <path d="M 241 496.5  C 305.12 496.5  355.5 546.88  355.5 611  C 355.5 675.12  305.12 725.5  241 725.5  C 176.88 725.5  126.5 675.12  126.5 611  C 126.5 546.88  176.88 496.5  241 496.5  Z " stroke-width="1" stroke="#ffffff" fill="none" />
    </g>
  </defs>
  <g transform="matrix(1 0 0 1 -122 -492 )">
    <use xlink:href="#widget1312" filter="url(#filter1311)" />
    <use xlink:href="#widget1312" />
  </g>
</svg>