<?xml version="1.0" encoding="utf-8"?>
<svg version="1.1" xmlns:xlink="http://www.w3.org/1999/xlink" width="240px" height="240px" xmlns="http://www.w3.org/2000/svg">
  <defs>
    <filter x="1196px" y="456px" width="240px" height="240px" filterUnits="userSpaceOnUse" id="filter1317">
      <feOffset dx="1" dy="1" in="SourceAlpha" result="shadowOffsetInner" />
      <feGaussianBlur stdDeviation="2.5" in="shadowOffsetInner" result="shadowGaussian" />
      <feComposite in2="shadowGaussian" operator="atop" in="SourceAlpha" result="shadowComposite" />
      <feColorMatrix type="matrix" values="0 0 0 0 0  0 0 0 0 0  0 0 0 0 0  0 0 0 0.698039215686274 0  " in="shadowComposite" />
    </filter>
    <g id="widget1318">
      <path d="M 1315 460  C 1379.4 460  1430 510.6  1430 575  C 1430 639.4  1379.4 690  1315 690  C 1250.6 690  1200 639.4  1200 575  C 1200 510.6  1250.6 460  1315 460  Z " fill-rule="nonzero" fill="#ffff80" stroke="none" />
      <path d="M 1315 460.5  C 1379.12 460.5  1429.5 510.88  1429.5 575  C 1429.5 639.12  1379.12 689.5  1315 689.5  C 1250.88 689.5  1200.5 639.12  1200.5 575  C 1200.5 510.88  1250.88 460.5  1315 460.5  Z " stroke-width="1" stroke="#ffffff" fill="none" />
    </g>
  </defs>
  <g transform="matrix(1 0 0 1 -1196 -456 )">
    <use xlink:href="#widget1318" filter="url(#filter1317)" />
    <use xlink:href="#widget1318" />
  </g>
</svg>