<?xml version="1.0" encoding="utf-8"?>
<svg version="1.1" xmlns:xlink="http://www.w3.org/1999/xlink" width="240px" height="240px" xmlns="http://www.w3.org/2000/svg">
  <defs>
    <filter x="376px" y="556px" width="240px" height="240px" filterUnits="userSpaceOnUse" id="filter1315">
      <feOffset dx="1" dy="1" in="SourceAlpha" result="shadowOffsetInner" />
      <feGaussianBlur stdDeviation="2.5" in="shadowOffsetInner" result="shadowGaussian" />
      <feComposite in2="shadowGaussian" operator="atop" in="SourceAlpha" result="shadowComposite" />
      <feColorMatrix type="matrix" values="0 0 0 0 0  0 0 0 0 0  0 0 0 0 0  0 0 0 0.698039215686274 0  " in="shadowComposite" />
    </filter>
    <g id="widget1316">
      <path d="M 495 560  C 559.4 560  610 610.6  610 675  C 610 739.4  559.4 790  495 790  C 430.6 790  380 739.4  380 675  C 380 610.6  430.6 560  495 560  Z " fill-rule="nonzero" fill="#70b603" stroke="none" />
      <path d="M 495 560.5  C 559.12 560.5  609.5 610.88  609.5 675  C 609.5 739.12  559.12 789.5  495 789.5  C 430.88 789.5  380.5 739.12  380.5 675  C 380.5 610.88  430.88 560.5  495 560.5  Z " stroke-width="1" stroke="#ffffff" fill="none" />
    </g>
  </defs>
  <g transform="matrix(1 0 0 1 -376 -556 )">
    <use xlink:href="#widget1316" filter="url(#filter1315)" />
    <use xlink:href="#widget1316" />
  </g>
</svg>