<?xml version="1.0" encoding="utf-8"?>
<svg version="1.1" xmlns:xlink="http://www.w3.org/1999/xlink" width="572px" height="572px" xmlns="http://www.w3.org/2000/svg">
  <defs>
    <radialGradient cx="955.882352941176" cy="523.529411764706" r="324.010337739304" gradientTransform="matrix(0.0544644931598704 0.998515707930946 -0.998515707930944 0.0544644931598703 1426.57304627868 -459.447896647101 )" gradientUnits="userSpaceOnUse" id="RadialGradient1336">
      <stop id="Stop1337" stop-color="#c280ff" stop-opacity="0.996078431372549" offset="0" />
      <stop id="Stop1338" stop-color="#f2f2f2" offset="1" />
    </radialGradient>
  </defs>
  <g transform="matrix(1 0 0 1 -673 -253 )">
    <path d="M 959 253  C 1119.16 253  1245 378.84  1245 539  C 1245 699.16  1119.16 825  959 825  C 798.84 825  673 699.16  673 539  C 673 378.84  798.84 253  959 253  Z " fill-rule="nonzero" fill="url(#RadialGradient1336)" stroke="none" />
    <path d="M 959 253.5  C 1118.88 253.5  1244.5 379.12  1244.5 539  C 1244.5 698.88  1118.88 824.5  959 824.5  C 799.12 824.5  673.5 698.88  673.5 539  C 673.5 379.12  799.12 253.5  959 253.5  Z " stroke-width="1" stroke="#797979" fill="none" />
  </g>
</svg>