<?xml version="1.0" encoding="utf-8"?>
<svg version="1.1" xmlns:xlink="http://www.w3.org/1999/xlink" width="80px" height="80px" xmlns="http://www.w3.org/2000/svg">
  <g transform="matrix(1 0 0 1 -751 -450 )">
    <path d="M 791 450  C 813.4 450  831 467.6  831 490  C 831 512.4  813.4 530  791 530  C 768.6 530  751 512.4  751 490  C 751 467.6  768.6 450  791 450  Z " fill-rule="nonzero" fill="#ffffff" stroke="none" />
    <path d="M 791 450.5  C 813.12 450.5  830.5 467.88  830.5 490  C 830.5 512.12  813.12 529.5  791 529.5  C 768.88 529.5  751.5 512.12  751.5 490  C 751.5 467.88  768.88 450.5  791 450.5  Z " stroke-width="1" stroke="#797979" fill="none" />
  </g>
</svg>