<?xml version="1.0" encoding="utf-8"?>
<svg version="1.1" xmlns:xlink="http://www.w3.org/1999/xlink" width="103px" height="89px" xmlns="http://www.w3.org/2000/svg">
  <defs>
    <mask fill="white" id="clip1350">
      <path d="M 13.6222098214286 73.0657552083333  C 14.3502604166667 72.3318142361111  14.7142857142857 71.4626736111111  14.7142857142857 70.4583333333333  C 14.7142857142857 69.4539930555556  14.3502604166667 68.5848524305556  13.6222098214286 67.8509114583333  C 12.8941592261905 67.1169704861111  12.031994047619 66.75  11.0357142857143 66.75  C 10.0394345238095 66.75  9.1772693452381 67.1169704861111  8.44921875 67.8509114583333  C 7.72116815476191 68.5848524305556  7.35714285714286 69.4539930555556  7.35714285714286 70.4583333333333  C 7.35714285714286 71.4626736111111  7.72116815476191 72.3318142361111  8.44921875 73.0657552083333  C 9.1772693452381 73.7996961805556  10.0394345238095 74.1666666666667  11.0357142857143 74.1666666666667  C 12.031994047619 74.1666666666667  12.8941592261905 73.7996961805556  13.6222098214286 73.0657552083333  Z M 93.4587053571428 42.2981770833333  C 94.9148065476191 40.8302951388889  95.6428571428572 39.0920138888889  95.6428571428572 37.0833333333333  C 95.6428571428572 35.11328125  94.8956473214286 33.3846571180555  93.4012276785714 31.8974609375  C 91.9068080357143 30.4102647569444  90.2016369047619 29.6666666666667  88.2857142857143 30  L 55.1785714285714 30  C 55.1785714285714 28.8940972222222  55.4659598214286 27.9573567708333  56.0407366071429 26.8564453125  C 56.6155133928571 25.7555338541667  57.2477678571429 24.6932508680555  57.9375 23.6695963541667  C 58.6272321428571 22.6459418402778  59.2594866071429 21.3325737847222  59.8342633928571 19.7294921875  C 60.4090401785714 18.1264105902778  60.6964285714286 16.4943576388889  60.6964285714286 14.8333333333333  C 60.6964285714286 12.2452256944444  59.8438430059524 10.3620876736111  58.138671875 9.18391927083333  C 56.4335007440476 8.00575086805554  54.2206101190476 7.41666666666667  51.5 7.41666666666667  C 50.5803571428571 7.41666666666667  48.8560267857143 10.1013454861111  46.3270089285714 15.470703125  C 45.4073660714286 17.1703559027778  44.698474702381 18.42578125  44.2003348214286 19.2369791666667  C 42.6675967261905 21.7092013888889  40.5217633928571 24.509765625  37.7628348214286 27.638671875  C 35.042224702381 30.767578125  33.1071428571429 32.8148871527778  31.9575892857143 33.7805989583333  C 29.3136160714286 35.982421875  26.6313244047619 37.0833333333333  23.9107142857143 37.0833333333333  L 22 37.0833333333333  L 22 74.1666666666667  L 23.9107142857143 74.1666666666667  C 26.6696428571429 74.1666666666667  29.8692336309524 74.7847222222222  33.5094866071429 76.0208333333333  C 37.1497395833333 77.2569444444444  40.8570498511905 78.4930555555556  44.6314174107143 79.7291666666667  C 48.4057849702381 80.9652777777778  51.8448660714286 81.5833333333333  54.9486607142857 81.5833333333333  C 62.1908482142857 81.5833333333333  65.8119419642857 78.3578559027778  65.8119419642857 71.9069010416667  C 65.8119419642857 70.9025607638889  65.7161458333333 69.8209635416667  65.5245535714286 68.662109375  C 66.6741071428572 68.0440538194444  67.5841703869048 67.0300564236111  68.2547433035714 65.6201171875  C 68.9253162202381 64.2101779513889  69.2606026785714 62.7905815972222  69.2606026785714 61.361328125  C 69.2606026785714 59.9320746527778  68.9157366071428 58.5993923611111  68.2260044642857 57.36328125  C 70.2568824404762 55.4318576388889  71.2723214285714 53.1334635416667  71.2723214285714 50.4680989583333  C 71.2723214285714 49.5023871527778  71.0807291666667 48.4304470486111  70.6975446428572 47.2522786458333  C 70.3143601190476 46.0741102430556  69.8353794642857 45.1566840277778  69.2606026785714 44  L 88.2857142857143 44  C 90.2782738095238 44.5  92.0026041666667 43.7660590277778  93.4587053571428 42.2981770833333  Z M 98.6316964285714 26.6536458333333  C 101.543898809524 29.5894097222222  103 33.0466579861111  103 37.025390625  C 103 41.0813802083333  101.553478422619 44.5772569444445  98.6604352678572 47.5130208333333  C 95.7673921130953 50.4487847222222  92.3091517857143 51.9166666666667  88.2857142857143 51.9166666666667  L 78.5719866071428 51.9166666666667  C 78.4187127976191 54.3116319444445  77.7098214285714 56.6100260416667  76.4453125 58.8118489583333  C 76.5602678571428 59.623046875  76.6177455357143 60.4535590277778  76.6177455357143 61.3033854166667  C 76.6177455357143 65.2048611111111  75.4681919642857 68.6427951388889  73.1690848214286 71.6171875  C 73.2074032738095 76.9865451388889  71.5788690476191 81.2260199652778  68.2834821428572 84.3356119791667  C 64.9880952380952 87.4452039930556  60.6389508928571 89  55.2360491071429 89  C 50.1396949404762 89  43.9704241071429 87.6673177083333  36.7282366071429 85.001953125  C 30.4440104166667 82.7228732638889  26.1715029761905 81.5833333333333  23.9107142857143 81  L 7.35714285714286 81  C 5.32626488095238 81.5833333333333  3.59235491071429 80.8590494791667  2.15541294642857 79.4104817708333  C 0.718470982142857 77.9619140625  0 76.2139756944444  0 74.1666666666667  L 0 37.0833333333333  C 0 35.0360243055556  0.718470982142857 33.2880859375  2.15541294642857 31.8395182291667  C 3.59235491071429 30.3909505208333  5.32626488095238 29.6666666666667  7.35714285714286 30  L 23.9107142857143 30  C 24.2938988095238 29.6666666666667  24.7058221726191 29.5797526041667  25.146484375 29.4059244791667  C 25.587146577381 29.2320963541667  26.0373883928571 28.9616970486111  26.4972098214286 28.5947265625  C 26.95703125 28.2277560763889  27.3881138392857 27.8800998263889  27.7904575892857 27.5517578125  C 28.1928013392857 27.2234157986111  28.6526227678571 26.7888454861111  29.169921875 26.248046875  C 29.6872209821429 25.7072482638889  30.0799851190476 25.2919921875  30.3482142857143 25.0022786458333  C 30.616443452381 24.7125651041667  30.98046875 24.2973090277778  31.4402901785714 23.7565104166667  C 31.9001116071429 23.2157118055555  32.1683407738095 22.8873697916667  32.2449776785714 22.771484375  C 34.7356770833333 19.9129774305555  36.651599702381 17.4214409722222  37.9927455357143 15.296875  C 38.4908854166667 14.4856770833333  39.1231398809524 13.2881944444444  39.8895089285714 11.7044270833333  C 40.6558779761905 10.1206597222222  41.3647693452381 8.73003472222221  42.0161830357143 7.53255208333333  C 42.6675967261905 6.33506944444444  43.4435453869048 5.11827256944444  44.3440290178571 3.88216145833333  C 45.2445126488095 2.64605034722221  46.2982700892857 1.68999565972221  47.5053013392857 1.01399739583333  C 48.7123325892857 0.337999131944437  50.0438988095238 0  51.5 0  C 56.289806547619 0  60.2461867559524 1.29405381944444  63.369140625 3.88216145833333  C 66.4920944940476 6.47026909722221  68.0535714285714 10.1206597222222  68.0535714285714 14.8333333333333  C 68.0535714285714 17.4600694444444  67.6320684523809 19.9322916666667  66.7890625 23  L 88.2857142857143 23  C 92.2708333333333 22.25  95.7194940476191 23.7178819444444  98.6316964285714 26.6536458333333  Z " fill-rule="evenodd" />
    </mask>
  </defs>
  <g transform="matrix(1 0 0 1 -1344 -51 )">
    <path d="M 13.6222098214286 73.0657552083333  C 14.3502604166667 72.3318142361111  14.7142857142857 71.4626736111111  14.7142857142857 70.4583333333333  C 14.7142857142857 69.4539930555556  14.3502604166667 68.5848524305556  13.6222098214286 67.8509114583333  C 12.8941592261905 67.1169704861111  12.031994047619 66.75  11.0357142857143 66.75  C 10.0394345238095 66.75  9.1772693452381 67.1169704861111  8.44921875 67.8509114583333  C 7.72116815476191 68.5848524305556  7.35714285714286 69.4539930555556  7.35714285714286 70.4583333333333  C 7.35714285714286 71.4626736111111  7.72116815476191 72.3318142361111  8.44921875 73.0657552083333  C 9.1772693452381 73.7996961805556  10.0394345238095 74.1666666666667  11.0357142857143 74.1666666666667  C 12.031994047619 74.1666666666667  12.8941592261905 73.7996961805556  13.6222098214286 73.0657552083333  Z M 93.4587053571428 42.2981770833333  C 94.9148065476191 40.8302951388889  95.6428571428572 39.0920138888889  95.6428571428572 37.0833333333333  C 95.6428571428572 35.11328125  94.8956473214286 33.3846571180555  93.4012276785714 31.8974609375  C 91.9068080357143 30.4102647569444  90.2016369047619 29.6666666666667  88.2857142857143 30  L 55.1785714285714 30  C 55.1785714285714 28.8940972222222  55.4659598214286 27.9573567708333  56.0407366071429 26.8564453125  C 56.6155133928571 25.7555338541667  57.2477678571429 24.6932508680555  57.9375 23.6695963541667  C 58.6272321428571 22.6459418402778  59.2594866071429 21.3325737847222  59.8342633928571 19.7294921875  C 60.4090401785714 18.1264105902778  60.6964285714286 16.4943576388889  60.6964285714286 14.8333333333333  C 60.6964285714286 12.2452256944444  59.8438430059524 10.3620876736111  58.138671875 9.18391927083333  C 56.4335007440476 8.00575086805554  54.2206101190476 7.41666666666667  51.5 7.41666666666667  C 50.5803571428571 7.41666666666667  48.8560267857143 10.1013454861111  46.3270089285714 15.470703125  C 45.4073660714286 17.1703559027778  44.698474702381 18.42578125  44.2003348214286 19.2369791666667  C 42.6675967261905 21.7092013888889  40.5217633928571 24.509765625  37.7628348214286 27.638671875  C 35.042224702381 30.767578125  33.1071428571429 32.8148871527778  31.9575892857143 33.7805989583333  C 29.3136160714286 35.982421875  26.6313244047619 37.0833333333333  23.9107142857143 37.0833333333333  L 22 37.0833333333333  L 22 74.1666666666667  L 23.9107142857143 74.1666666666667  C 26.6696428571429 74.1666666666667  29.8692336309524 74.7847222222222  33.5094866071429 76.0208333333333  C 37.1497395833333 77.2569444444444  40.8570498511905 78.4930555555556  44.6314174107143 79.7291666666667  C 48.4057849702381 80.9652777777778  51.8448660714286 81.5833333333333  54.9486607142857 81.5833333333333  C 62.1908482142857 81.5833333333333  65.8119419642857 78.3578559027778  65.8119419642857 71.9069010416667  C 65.8119419642857 70.9025607638889  65.7161458333333 69.8209635416667  65.5245535714286 68.662109375  C 66.6741071428572 68.0440538194444  67.5841703869048 67.0300564236111  68.2547433035714 65.6201171875  C 68.9253162202381 64.2101779513889  69.2606026785714 62.7905815972222  69.2606026785714 61.361328125  C 69.2606026785714 59.9320746527778  68.9157366071428 58.5993923611111  68.2260044642857 57.36328125  C 70.2568824404762 55.4318576388889  71.2723214285714 53.1334635416667  71.2723214285714 50.4680989583333  C 71.2723214285714 49.5023871527778  71.0807291666667 48.4304470486111  70.6975446428572 47.2522786458333  C 70.3143601190476 46.0741102430556  69.8353794642857 45.1566840277778  69.2606026785714 44  L 88.2857142857143 44  C 90.2782738095238 44.5  92.0026041666667 43.7660590277778  93.4587053571428 42.2981770833333  Z M 98.6316964285714 26.6536458333333  C 101.543898809524 29.5894097222222  103 33.0466579861111  103 37.025390625  C 103 41.0813802083333  101.553478422619 44.5772569444445  98.6604352678572 47.5130208333333  C 95.7673921130953 50.4487847222222  92.3091517857143 51.9166666666667  88.2857142857143 51.9166666666667  L 78.5719866071428 51.9166666666667  C 78.4187127976191 54.3116319444445  77.7098214285714 56.6100260416667  76.4453125 58.8118489583333  C 76.5602678571428 59.623046875  76.6177455357143 60.4535590277778  76.6177455357143 61.3033854166667  C 76.6177455357143 65.2048611111111  75.4681919642857 68.6427951388889  73.1690848214286 71.6171875  C 73.2074032738095 76.9865451388889  71.5788690476191 81.2260199652778  68.2834821428572 84.3356119791667  C 64.9880952380952 87.4452039930556  60.6389508928571 89  55.2360491071429 89  C 50.1396949404762 89  43.9704241071429 87.6673177083333  36.7282366071429 85.001953125  C 30.4440104166667 82.7228732638889  26.1715029761905 81.5833333333333  23.9107142857143 81  L 7.35714285714286 81  C 5.32626488095238 81.5833333333333  3.59235491071429 80.8590494791667  2.15541294642857 79.4104817708333  C 0.718470982142857 77.9619140625  0 76.2139756944444  0 74.1666666666667  L 0 37.0833333333333  C 0 35.0360243055556  0.718470982142857 33.2880859375  2.15541294642857 31.8395182291667  C 3.59235491071429 30.3909505208333  5.32626488095238 29.6666666666667  7.35714285714286 30  L 23.9107142857143 30  C 24.2938988095238 29.6666666666667  24.7058221726191 29.5797526041667  25.146484375 29.4059244791667  C 25.587146577381 29.2320963541667  26.0373883928571 28.9616970486111  26.4972098214286 28.5947265625  C 26.95703125 28.2277560763889  27.3881138392857 27.8800998263889  27.7904575892857 27.5517578125  C 28.1928013392857 27.2234157986111  28.6526227678571 26.7888454861111  29.169921875 26.248046875  C 29.6872209821429 25.7072482638889  30.0799851190476 25.2919921875  30.3482142857143 25.0022786458333  C 30.616443452381 24.7125651041667  30.98046875 24.2973090277778  31.4402901785714 23.7565104166667  C 31.9001116071429 23.2157118055555  32.1683407738095 22.8873697916667  32.2449776785714 22.771484375  C 34.7356770833333 19.9129774305555  36.651599702381 17.4214409722222  37.9927455357143 15.296875  C 38.4908854166667 14.4856770833333  39.1231398809524 13.2881944444444  39.8895089285714 11.7044270833333  C 40.6558779761905 10.1206597222222  41.3647693452381 8.73003472222221  42.0161830357143 7.53255208333333  C 42.6675967261905 6.33506944444444  43.4435453869048 5.11827256944444  44.3440290178571 3.88216145833333  C 45.2445126488095 2.64605034722221  46.2982700892857 1.68999565972221  47.5053013392857 1.01399739583333  C 48.7123325892857 0.337999131944437  50.0438988095238 0  51.5 0  C 56.289806547619 0  60.2461867559524 1.29405381944444  63.369140625 3.88216145833333  C 66.4920944940476 6.47026909722221  68.0535714285714 10.1206597222222  68.0535714285714 14.8333333333333  C 68.0535714285714 17.4600694444444  67.6320684523809 19.9322916666667  66.7890625 23  L 88.2857142857143 23  C 92.2708333333333 22.25  95.7194940476191 23.7178819444444  98.6316964285714 26.6536458333333  Z " fill-rule="nonzero" fill="#ec80db" stroke="none" fill-opacity="0.996078431372549" transform="matrix(1 0 0 1 1344 51 )" />
    <path d="M 13.6222098214286 73.0657552083333  C 14.3502604166667 72.3318142361111  14.7142857142857 71.4626736111111  14.7142857142857 70.4583333333333  C 14.7142857142857 69.4539930555556  14.3502604166667 68.5848524305556  13.6222098214286 67.8509114583333  C 12.8941592261905 67.1169704861111  12.031994047619 66.75  11.0357142857143 66.75  C 10.0394345238095 66.75  9.1772693452381 67.1169704861111  8.44921875 67.8509114583333  C 7.72116815476191 68.5848524305556  7.35714285714286 69.4539930555556  7.35714285714286 70.4583333333333  C 7.35714285714286 71.4626736111111  7.72116815476191 72.3318142361111  8.44921875 73.0657552083333  C 9.1772693452381 73.7996961805556  10.0394345238095 74.1666666666667  11.0357142857143 74.1666666666667  C 12.031994047619 74.1666666666667  12.8941592261905 73.7996961805556  13.6222098214286 73.0657552083333  Z " stroke-width="4" stroke="#027db4" fill="none" transform="matrix(1 0 0 1 1344 51 )" mask="url(#clip1350)" />
    <path d="M 93.4587053571428 42.2981770833333  C 94.9148065476191 40.8302951388889  95.6428571428572 39.0920138888889  95.6428571428572 37.0833333333333  C 95.6428571428572 35.11328125  94.8956473214286 33.3846571180555  93.4012276785714 31.8974609375  C 91.9068080357143 30.4102647569444  90.2016369047619 29.6666666666667  88.2857142857143 30  L 55.1785714285714 30  C 55.1785714285714 28.8940972222222  55.4659598214286 27.9573567708333  56.0407366071429 26.8564453125  C 56.6155133928571 25.7555338541667  57.2477678571429 24.6932508680555  57.9375 23.6695963541667  C 58.6272321428571 22.6459418402778  59.2594866071429 21.3325737847222  59.8342633928571 19.7294921875  C 60.4090401785714 18.1264105902778  60.6964285714286 16.4943576388889  60.6964285714286 14.8333333333333  C 60.6964285714286 12.2452256944444  59.8438430059524 10.3620876736111  58.138671875 9.18391927083333  C 56.4335007440476 8.00575086805554  54.2206101190476 7.41666666666667  51.5 7.41666666666667  C 50.5803571428571 7.41666666666667  48.8560267857143 10.1013454861111  46.3270089285714 15.470703125  C 45.4073660714286 17.1703559027778  44.698474702381 18.42578125  44.2003348214286 19.2369791666667  C 42.6675967261905 21.7092013888889  40.5217633928571 24.509765625  37.7628348214286 27.638671875  C 35.042224702381 30.767578125  33.1071428571429 32.8148871527778  31.9575892857143 33.7805989583333  C 29.3136160714286 35.982421875  26.6313244047619 37.0833333333333  23.9107142857143 37.0833333333333  L 22 37.0833333333333  L 22 74.1666666666667  L 23.9107142857143 74.1666666666667  C 26.6696428571429 74.1666666666667  29.8692336309524 74.7847222222222  33.5094866071429 76.0208333333333  C 37.1497395833333 77.2569444444444  40.8570498511905 78.4930555555556  44.6314174107143 79.7291666666667  C 48.4057849702381 80.9652777777778  51.8448660714286 81.5833333333333  54.9486607142857 81.5833333333333  C 62.1908482142857 81.5833333333333  65.8119419642857 78.3578559027778  65.8119419642857 71.9069010416667  C 65.8119419642857 70.9025607638889  65.7161458333333 69.8209635416667  65.5245535714286 68.662109375  C 66.6741071428572 68.0440538194444  67.5841703869048 67.0300564236111  68.2547433035714 65.6201171875  C 68.9253162202381 64.2101779513889  69.2606026785714 62.7905815972222  69.2606026785714 61.361328125  C 69.2606026785714 59.9320746527778  68.9157366071428 58.5993923611111  68.2260044642857 57.36328125  C 70.2568824404762 55.4318576388889  71.2723214285714 53.1334635416667  71.2723214285714 50.4680989583333  C 71.2723214285714 49.5023871527778  71.0807291666667 48.4304470486111  70.6975446428572 47.2522786458333  C 70.3143601190476 46.0741102430556  69.8353794642857 45.1566840277778  69.2606026785714 44  L 88.2857142857143 44  C 90.2782738095238 44.5  92.0026041666667 43.7660590277778  93.4587053571428 42.2981770833333  Z " stroke-width="4" stroke="#027db4" fill="none" transform="matrix(1 0 0 1 1344 51 )" mask="url(#clip1350)" />
    <path d="M 98.6316964285714 26.6536458333333  C 101.543898809524 29.5894097222222  103 33.0466579861111  103 37.025390625  C 103 41.0813802083333  101.553478422619 44.5772569444445  98.6604352678572 47.5130208333333  C 95.7673921130953 50.4487847222222  92.3091517857143 51.9166666666667  88.2857142857143 51.9166666666667  L 78.5719866071428 51.9166666666667  C 78.4187127976191 54.3116319444445  77.7098214285714 56.6100260416667  76.4453125 58.8118489583333  C 76.5602678571428 59.623046875  76.6177455357143 60.4535590277778  76.6177455357143 61.3033854166667  C 76.6177455357143 65.2048611111111  75.4681919642857 68.6427951388889  73.1690848214286 71.6171875  C 73.2074032738095 76.9865451388889  71.5788690476191 81.2260199652778  68.2834821428572 84.3356119791667  C 64.9880952380952 87.4452039930556  60.6389508928571 89  55.2360491071429 89  C 50.1396949404762 89  43.9704241071429 87.6673177083333  36.7282366071429 85.001953125  C 30.4440104166667 82.7228732638889  26.1715029761905 81.5833333333333  23.9107142857143 81  L 7.35714285714286 81  C 5.32626488095238 81.5833333333333  3.59235491071429 80.8590494791667  2.15541294642857 79.4104817708333  C 0.718470982142857 77.9619140625  0 76.2139756944444  0 74.1666666666667  L 0 37.0833333333333  C 0 35.0360243055556  0.718470982142857 33.2880859375  2.15541294642857 31.8395182291667  C 3.59235491071429 30.3909505208333  5.32626488095238 29.6666666666667  7.35714285714286 30  L 23.9107142857143 30  C 24.2938988095238 29.6666666666667  24.7058221726191 29.5797526041667  25.146484375 29.4059244791667  C 25.587146577381 29.2320963541667  26.0373883928571 28.9616970486111  26.4972098214286 28.5947265625  C 26.95703125 28.2277560763889  27.3881138392857 27.8800998263889  27.7904575892857 27.5517578125  C 28.1928013392857 27.2234157986111  28.6526227678571 26.7888454861111  29.169921875 26.248046875  C 29.6872209821429 25.7072482638889  30.0799851190476 25.2919921875  30.3482142857143 25.0022786458333  C 30.616443452381 24.7125651041667  30.98046875 24.2973090277778  31.4402901785714 23.7565104166667  C 31.9001116071429 23.2157118055555  32.1683407738095 22.8873697916667  32.2449776785714 22.771484375  C 34.7356770833333 19.9129774305555  36.651599702381 17.4214409722222  37.9927455357143 15.296875  C 38.4908854166667 14.4856770833333  39.1231398809524 13.2881944444444  39.8895089285714 11.7044270833333  C 40.6558779761905 10.1206597222222  41.3647693452381 8.73003472222221  42.0161830357143 7.53255208333333  C 42.6675967261905 6.33506944444444  43.4435453869048 5.11827256944444  44.3440290178571 3.88216145833333  C 45.2445126488095 2.64605034722221  46.2982700892857 1.68999565972221  47.5053013392857 1.01399739583333  C 48.7123325892857 0.337999131944437  50.0438988095238 0  51.5 0  C 56.289806547619 0  60.2461867559524 1.29405381944444  63.369140625 3.88216145833333  C 66.4920944940476 6.47026909722221  68.0535714285714 10.1206597222222  68.0535714285714 14.8333333333333  C 68.0535714285714 17.4600694444444  67.6320684523809 19.9322916666667  66.7890625 23  L 88.2857142857143 23  C 92.2708333333333 22.25  95.7194940476191 23.7178819444444  98.6316964285714 26.6536458333333  Z " stroke-width="4" stroke="#027db4" fill="none" transform="matrix(1 0 0 1 1344 51 )" mask="url(#clip1350)" />
  </g>
</svg>