<?xml version="1.0" encoding="utf-8"?>
<svg version="1.1" xmlns:xlink="http://www.w3.org/1999/xlink" width="20px" height="23px" xmlns="http://www.w3.org/2000/svg">
  <g transform="matrix(1 0 0 1 -2118 -13441 )">
    <path d="M 1.53846153846154 17.6607142857143  L 1.53846153846154 21.3571428571429  L 5 21.3571428571429  L 5 17.6607142857143  L 1.53846153846154 17.6607142857143  Z M 5.76923076923077 17.6607142857143  L 5.76923076923077 21.3571428571429  L 9.61538461538462 21.3571428571429  L 9.61538461538462 17.6607142857143  L 5.76923076923077 17.6607142857143  Z M 1.53846153846154 12.7321428571429  L 1.53846153846154 16.8392857142857  L 5 16.8392857142857  L 5 12.7321428571429  L 1.53846153846154 12.7321428571429  Z M 5.76923076923077 12.7321428571429  L 5.76923076923077 16.8392857142857  L 9.61538461538462 16.8392857142857  L 9.61538461538462 12.7321428571429  L 5.76923076923077 12.7321428571429  Z M 1.53846153846154 8.21428571428571  L 1.53846153846154 11.9107142857143  L 5 11.9107142857143  L 5 8.21428571428571  L 1.53846153846154 8.21428571428571  Z M 10.3846153846154 17.6607142857143  L 10.3846153846154 21.3571428571429  L 14.2307692307692 21.3571428571429  L 14.2307692307692 17.6607142857143  L 10.3846153846154 17.6607142857143  Z M 5.76923076923077 8.21428571428571  L 5.76923076923077 11.9107142857143  L 9.61538461538462 11.9107142857143  L 9.61538461538462 8.21428571428571  L 5.76923076923077 8.21428571428571  Z M 15 17.6607142857143  L 15 21.3571428571429  L 18.4615384615385 21.3571428571429  L 18.4615384615385 17.6607142857143  L 15 17.6607142857143  Z M 10.3846153846154 12.7321428571429  L 10.3846153846154 16.8392857142857  L 14.2307692307692 16.8392857142857  L 14.2307692307692 12.7321428571429  L 10.3846153846154 12.7321428571429  Z M 6.03966346153846 6.03878348214286  C 6.11578525641026 5.9574962797619  6.15384615384615 5.86123511904762  6.15384615384615 5.75  L 6.15384615384615 2.05357142857143  C 6.15384615384615 1.94233630952381  6.11578525641026 1.84607514880952  6.03966346153846 1.76478794642857  C 5.96354166666667 1.68350074404762  5.87339743589744 1.64285714285714  5.76923076923077 1.64285714285714  L 5 1.64285714285714  C 4.89583333333333 1.64285714285714  4.8056891025641 1.68350074404762  4.72956730769231 1.76478794642857  C 4.65344551282051 1.84607514880952  4.61538461538462 1.94233630952381  4.61538461538462 2.05357142857143  L 4.61538461538462 5.75  C 4.61538461538462 5.86123511904762  4.65344551282051 5.9574962797619  4.72956730769231 6.03878348214286  C 4.8056891025641 6.12007068452381  4.89583333333333 6.16071428571429  5 6.16071428571429  L 5.76923076923077 6.16071428571429  C 5.87339743589744 6.16071428571429  5.96354166666667 6.12007068452381  6.03966346153846 6.03878348214286  Z M 15 12.7321428571429  L 15 16.8392857142857  L 18.4615384615385 16.8392857142857  L 18.4615384615385 12.7321428571429  L 15 12.7321428571429  Z M 10.3846153846154 8.21428571428571  L 10.3846153846154 11.9107142857143  L 14.2307692307692 11.9107142857143  L 14.2307692307692 8.21428571428571  L 10.3846153846154 8.21428571428571  Z M 15 8.21428571428571  L 15 11.9107142857143  L 18.4615384615385 11.9107142857143  L 18.4615384615385 8.21428571428571  L 15 8.21428571428571  Z M 15.2704326923077 6.03878348214286  C 15.3465544871795 5.9574962797619  15.3846153846154 5.86123511904762  15.3846153846154 5.75  L 15.3846153846154 2.05357142857143  C 15.3846153846154 1.94233630952381  15.3465544871795 1.84607514880952  15.2704326923077 1.76478794642857  C 15.1943108974359 1.68350074404762  15.1041666666667 1.64285714285714  15 1.64285714285714  L 14.2307692307692 1.64285714285714  C 14.1266025641026 1.64285714285714  14.0364583333333 1.68350074404762  13.9603365384615 1.76478794642857  C 13.8842147435897 1.84607514880952  13.8461538461538 1.94233630952381  13.8461538461538 2.05357142857143  L 13.8461538461538 5.75  C 13.8461538461538 5.86123511904762  13.8842147435897 5.9574962797619  13.9603365384615 6.03878348214286  C 14.0364583333333 6.12007068452381  14.1266025641026 6.16071428571429  14.2307692307692 6.16071428571429  L 15 6.16071428571429  C 15.1041666666667 6.16071428571429  15.1943108974359 6.12007068452381  15.2704326923077 6.03878348214286  Z M 19.5432692307692 3.7734375  C 19.8477564102564 4.09858630952381  20 4.48363095238095  20 4.92857142857143  L 20 21.3571428571429  C 20 21.8020833333333  19.8477564102564 22.1871279761905  19.5432692307692 22.5122767857143  C 19.2387820512821 22.8374255952381  18.8782051282051 23  18.4615384615385 23  L 1.53846153846154 23  C 1.12179487179487 23  0.761217948717949 22.8374255952381  0.456730769230769 22.5122767857143  C 0.15224358974359 22.1871279761905  0 21.8020833333333  0 21.3571428571429  L 0 4.92857142857143  C 0 4.48363095238095  0.15224358974359 4.09858630952381  0.456730769230769 3.7734375  C 0.761217948717949 3.44828869047619  1.12179487179487 3.28571428571429  1.53846153846154 3.28571428571429  L 3.07692307692308 3.28571428571429  L 3.07692307692308 2.05357142857143  C 3.07692307692308 1.48883928571429  3.26522435897436 1.00539434523809  3.64182692307692 0.603236607142858  C 4.01842948717949 0.201078869047619  4.47115384615385 0  5 0  L 5.76923076923077 0  C 6.29807692307692 0  6.75080128205128 0.201078869047619  7.12740384615385 0.603236607142858  C 7.50400641025641 1.00539434523809  7.69230769230769 1.48883928571429  7.69230769230769 2.05357142857143  L 7.69230769230769 3.28571428571429  L 12.3076923076923 3.28571428571429  L 12.3076923076923 2.05357142857143  C 12.3076923076923 1.48883928571429  12.4959935897436 1.00539434523809  12.8725961538462 0.603236607142858  C 13.2491987179487 0.201078869047619  13.7019230769231 0  14.2307692307692 0  L 15 0  C 15.5288461538462 0  15.9815705128205 0.201078869047619  16.3581730769231 0.603236607142858  C 16.7347756410256 1.00539434523809  16.9230769230769 1.48883928571429  16.9230769230769 2.05357142857143  L 16.9230769230769 3.28571428571429  L 18.4615384615385 3.28571428571429  C 18.8782051282051 3.28571428571429  19.2387820512821 3.44828869047619  19.5432692307692 3.7734375  Z " fill-rule="nonzero" fill="#8c8c8c" stroke="none" transform="matrix(1 0 0 1 2118 13441 )" />
  </g>
</svg>