<?xml version="1.0" encoding="utf-8"?>
<svg version="1.1" xmlns:xlink="http://www.w3.org/1999/xlink" width="46px" height="46px" xmlns="http://www.w3.org/2000/svg">
  <g transform="matrix(1 0 0 1 -2786 -269 )">
    <path d="M 44.9158249158249 34.3838383838384  C 45.638608305275 35.1066217732884  46 35.9842873176206  46 37.016835016835  C 46 38.0493827160494  45.638608305275 38.9270482603816  44.9158249158249 39.6498316498316  L 39.6498316498316 44.9158249158249  C 38.9270482603816 45.638608305275  38.0493827160494 46  37.016835016835 46  C 35.9842873176207 46  35.1066217732884 45.638608305275  34.3838383838384 44.9158249158249  L 23 33.5319865319865  L 11.6161616161616 44.9158249158249  C 10.8933782267116 45.638608305275  10.0157126823794 46  8.98316498316498 46  C 7.95061728395062 46  7.07295173961841 45.638608305275  6.35016835016835 44.9158249158249  L 1.08417508417508 39.6498316498316  C 0.361391694725028 38.9270482603816  0 38.0493827160494  0 37.016835016835  C 0 35.9842873176206  0.361391694725028 35.1066217732884  1.08417508417508 34.3838383838384  L 12.4680134680135 23  L 1.08417508417508 11.6161616161616  C 0.361391694725028 10.8933782267116  0 10.0157126823794  0 8.98316498316498  C 0 7.95061728395062  0.361391694725028 7.0729517396184  1.08417508417508 6.35016835016835  L 6.35016835016835 1.08417508417508  C 7.07295173961841 0.361391694725026  7.95061728395062 0  8.98316498316498 0  C 10.0157126823794 0  10.8933782267116 0.361391694725026  11.6161616161616 1.08417508417508  L 23 12.4680134680135  L 34.3838383838384 1.08417508417508  C 35.1066217732884 0.361391694725026  35.9842873176207 0  37.016835016835 0  C 38.0493827160494 0  38.9270482603816 0.361391694725026  39.6498316498316 1.08417508417508  L 44.9158249158249 6.35016835016835  C 45.638608305275 7.0729517396184  46 7.95061728395062  46 8.98316498316498  C 46 10.0157126823794  45.638608305275 10.8933782267116  44.9158249158249 11.6161616161616  L 33.5319865319865 23  L 44.9158249158249 34.3838383838384  Z " fill-rule="nonzero" fill="#333333" stroke="none" transform="matrix(1 0 0 1 2786 269 )" />
  </g>
</svg>