<?xml version="1.0" encoding="utf-8"?>
<svg version="1.1" xmlns:xlink="http://www.w3.org/1999/xlink" width="402px" height="160px" xmlns="http://www.w3.org/2000/svg">
  <g transform="matrix(1 0 0 1 -59 -99 )">
    <path d="M 0 134.675373134328  C 0 134.675373134328  12.438406729903 132.377058215442  44.5555555555555 120.634328358209  C 56.4664960084641 116.279428835733  80.1830135001767 90.8104397345897  93.8980716253444 92.1567164179103  C 115.461334275095 94.2733766213704  126.395160701328 125.949470750302  141.767676767677 137.246268656716  C 166.431847598149 155.371223101295  190.373737373737 158.60447761194  190.373737373737 158.60447761194  C 190.373737373737 158.60447761194  224.767802927545 154.174846262904  252.235996326905 123.007462686567  C 265.489460458076 107.96913110481  256.231339056666 68.4145652847131  275.618457300276 53.9888059701493  C 292.409641873148 41.4946547398841  312.967688470701 31.077819953019  332.517229516298 22.8342995857767  C 332.649535135859 22.7785098326054  332.781794563953 22.7228196213533  332.914006320343 22.6672289817777  C 368.397749761861 7.74749683150417  400.447658402204 0  400.447658402204 0  " stroke-width="1" stroke="#ec80db" fill="none" stroke-opacity="0.996078431372549" transform="matrix(1 0 0 1 59 99 )" />
  </g>
</svg>