<?xml version="1.0" encoding="utf-8"?>
<svg version="1.1" xmlns:xlink="http://www.w3.org/1999/xlink" width="180px" height="118px" xmlns="http://www.w3.org/2000/svg">
  <defs>
    <mask fill="white" id="clip1887">
      <path d="M 172 0.786666666667024  L 0.479999999999891 0.786666666667024  L 0.479999999999891 117.213333333333  L 172 117.213333333333  L 172 71.586666666667  L 179.04 62.146666666667  L 172 44.84  L 172 0.786666666667024  Z " fill-rule="evenodd" />
    </mask>
  </defs>
  <g transform="matrix(1 0 0 1 -133 -78 )">
    <path d="M 172 0.786666666667024  L 0.479999999999891 0.786666666667024  L 0.479999999999891 117.213333333333  L 172 117.213333333333  L 172 71.586666666667  L 179.04 62.146666666667  L 172 44.84  L 172 0.786666666667024  Z " fill-rule="nonzero" fill="#aaaaaa" stroke="none" fill-opacity="0.698039215686274" transform="matrix(1 0 0 1 133 78 )" />
    <path d="M 172 0.786666666667024  L 0.479999999999891 0.786666666667024  L 0.479999999999891 117.213333333333  L 172 117.213333333333  L 172 71.586666666667  L 179.04 62.146666666667  L 172 44.84  L 172 0.786666666667024  Z " stroke-width="2" stroke="#ffffff" fill="none" transform="matrix(1 0 0 1 133 78 )" mask="url(#clip1887)" />
  </g>
</svg>