<?xml version="1.0" encoding="utf-8"?>
<svg version="1.1" xmlns:xlink="http://www.w3.org/1999/xlink" width="128px" height="22px" preserveAspectRatio="xMinYMid meet" viewBox="256 131  128 20" xmlns="http://www.w3.org/2000/svg">
  <g transform="matrix(-0.798635510047294 0.601815023152048 -0.601815023152047 -0.798635510047294 660.419281479573 61.0267995080129 )">
    <path d="M 401 24.3246268656717  C 401 24.3246268656717  388.561593270097 26.622941784558  356.444444444445 38.3656716417912  C 344.533503991536 42.7205711642668  320.816986499823 68.1895602654103  307.101928374656 66.8432835820897  C 285.538665724905 64.7266233786296  274.604839298672 33.0505292496977  259.232323232323 21.7537313432838  C 234.568152401851 3.62877689870497  210.626262626263 0.395522388059885  210.626262626263 0.395522388059885  C 210.626262626263 0.395522388059885  176.232197072455 4.82515373709644  148.764003673095 35.992537313433  C 135.510539541924 51.0308688951899  144.768660943334 90.5854347152869  125.381542699725 105.011194029851  C 108.590358126852 117.505345260116  88.0323115292988 127.922180046981  68.482770483702 136.165700414223  C 68.3504648641415 136.221490167395  68.2182054360466 136.277180378647  68.0859936796568 136.332771018222  C 32.6022502381392 151.252503168496  0.552341597796127 159  0.552341597796127 159  " stroke-width="1" stroke="#00ffff" fill="none" transform="matrix(1 0 0 1 58 111 )" />
  </g>
</svg>