<?xml version="1.0" encoding="utf-8"?>
<svg version="1.1" xmlns:xlink="http://www.w3.org/1999/xlink" width="132px" height="86px" xmlns="http://www.w3.org/2000/svg">
  <defs>
    <mask fill="white" id="clip1886">
      <path d="M 126 0.573333333333594  L 0.35199999999992 0.573333333333594  L 0.35199999999992 85.4266666666664  L 126 85.4266666666664  L 126 52.1733333333336  L 131.296 45.2933333333336  L 126 32.68  L 126 0.573333333333594  Z " fill-rule="evenodd" />
    </mask>
  </defs>
  <g transform="matrix(1 0 0 1 -180 -76 )">
    <path d="M 126 0.573333333333594  L 0.35199999999992 0.573333333333594  L 0.35199999999992 85.4266666666664  L 126 85.4266666666664  L 126 52.1733333333336  L 131.296 45.2933333333336  L 126 32.68  L 126 0.573333333333594  Z " fill-rule="nonzero" fill="#aaaaaa" stroke="none" transform="matrix(1 0 0 1 180 76 )" />
    <path d="M 126 0.573333333333594  L 0.35199999999992 0.573333333333594  L 0.35199999999992 85.4266666666664  L 126 85.4266666666664  L 126 52.1733333333336  L 131.296 45.2933333333336  L 126 32.68  L 126 0.573333333333594  Z " stroke-width="2" stroke="#ffffff" fill="none" transform="matrix(1 0 0 1 180 76 )" mask="url(#clip1886)" />
  </g>
</svg>