<?xml version="1.0" encoding="utf-8"?>
<svg version="1.1" xmlns:xlink="http://www.w3.org/1999/xlink" width="403px" height="159px" xmlns="http://www.w3.org/2000/svg">
  <g transform="matrix(1 0 0 1 -76 -99 )">
    <path d="M 0 133.828358208955  C 0 133.828358208955  12.4694252005511 131.544498100879  44.6666666666666 119.875621890547  C 56.6073102129739 115.548111673244  80.382971139828 90.2393048934916  94.1322314049587 91.5771144278605  C 115.749267777028 93.680462302997  126.710360603326 125.157335714137  142.121212121212 136.383084577114  C 166.84688961211 154.394045597513  190.848484848485 157.606965174129  190.848484848485 157.606965174129  C 190.848484848485 157.606965174129  225.328321139334 153.205193141753  252.865013774105 122.233830845771  C 266.151528938021 107.290079965786  256.87031995207 67.9842849999036  276.305785123967 53.6492537313433  C 293.138842975077 41.2336820685641  313.74815652175 30.8823619658931  333.346449540029 22.6906876386964  C 333.479085098791 22.6352487644758  333.611674350896 22.5799088061247  333.744215812414 22.524667793213  C 369.31644739219 7.69877043633748  401.446280991736 0  401.446280991736 0  " stroke-width="1" stroke="#ec80db" fill="none" stroke-opacity="0.996078431372549" transform="matrix(1 0 0 1 76 99 )" />
  </g>
</svg>