<?xml version="1.0" encoding="utf-8"?>
<svg version="1.1" xmlns:xlink="http://www.w3.org/1999/xlink" width="170px" height="59px" xmlns="http://www.w3.org/2000/svg">
  <defs>
    <mask fill="white" id="clip1888">
      <path d="M 162 0.393333333333512  L 0.45333333333323 0.393333333333512  L 0.45333333333323 58.6066666666665  L 162 58.6066666666665  L 162 35.7933333333335  L 169.093333333333 31.0733333333335  L 162 22.42  L 162 0.393333333333512  Z " fill-rule="evenodd" />
    </mask>
  </defs>
  <g transform="matrix(1 0 0 1 -166 -89 )">
    <path d="M 162 0.393333333333512  L 0.45333333333323 0.393333333333512  L 0.45333333333323 58.6066666666665  L 162 58.6066666666665  L 162 35.7933333333335  L 169.093333333333 31.0733333333335  L 162 22.42  L 162 0.393333333333512  Z " fill-rule="nonzero" fill="#aaaaaa" stroke="none" fill-opacity="0.698039215686274" transform="matrix(1 0 0 1 166 89 )" />
    <path d="M 162 0.393333333333512  L 0.45333333333323 0.393333333333512  L 0.45333333333323 58.6066666666665  L 162 58.6066666666665  L 162 35.7933333333335  L 169.093333333333 31.0733333333335  L 162 22.42  L 162 0.393333333333512  Z " stroke-width="2" stroke="#ffffff" fill="none" transform="matrix(1 0 0 1 166 89 )" mask="url(#clip1888)" />
  </g>
</svg>