<?xml version="1.0" encoding="utf-8"?>
<svg version="1.1" xmlns:xlink="http://www.w3.org/1999/xlink" width="404px" height="159px" xmlns="http://www.w3.org/2000/svg">
  <g transform="matrix(1 0 0 1 -60 -99 )">
    <path d="M 0 133.828358208955  C 0 133.828358208955  12.5004436711992 131.544498100879  44.7777777777777 119.875621890547  C 56.7481244174838 115.548111673244  80.5829287794793 90.2393048934916  94.366391184573 91.5771144278605  C 116.037201278961 93.680462302997  127.025560505324 125.157335714137  142.474747474747 136.383084577114  C 167.26193162607 154.394045597513  191.323232323232 157.606965174129  191.323232323232 157.606965174129  C 191.323232323232 157.606965174129  225.888839351124 153.205193141753  253.494031221304 122.233830845771  C 266.813597417966 107.290079965786  257.509300847473 67.9842849999036  276.993112947658 53.6492537313433  C 293.868044077005 41.2336820685641  314.528624572799 30.8823619658931  334.175669563761 22.6906876386964  C 334.308635061723 22.6352487644758  334.441554137838 22.5799088061247  334.574425304485 22.524667793213  C 370.235145022519 7.69877043633748  402.444903581267 0  402.444903581267 0  " stroke-width="1" stroke="#ec80db" fill="none" stroke-opacity="0.996078431372549" transform="matrix(1 0 0 1 60 99 )" />
  </g>
</svg>