<?xml version="1.0" encoding="utf-8"?>
<svg version="1.1" xmlns:xlink="http://www.w3.org/1999/xlink" width="76px" height="4px" preserveAspectRatio="xMinYMid meet" viewBox="56 257  76 2" xmlns="http://www.w3.org/2000/svg">
  <g transform="matrix(-0.951056516295153 -0.309016994374947 0.30901699437495 -0.951056516295153 103.672927983007 532.420178675394 )">
    <path d="M 403 24.1716417910448  C 403 24.1716417910448  390.499556328801 26.4555018991205  358.222222222222 38.1243781094529  C 346.251875582516 42.4518883267557  322.417071220521 67.7606951065084  308.633608815427 66.4228855721395  C 286.962798721039 64.319537697003  275.974439494676 32.8426642858631  260.525252525253 21.6169154228857  C 235.73806837393 3.6059544024867  211.676767676768 0.393034825870829  211.676767676768 0.393034825870829  C 211.676767676768 0.393034825870829  177.111160648876 4.79480685824678  149.505968778696 35.766169154229  C 136.186402582034 50.7099200342139  145.490699152527 90.0157150000964  126.006887052342 104.350746268657  C 109.131955922995 116.766317931436  88.4713754272005 127.117638034107  68.8243304362392 135.309312361304  C 68.6913649382768 135.364751235524  68.5584458621615 135.420091193875  68.4255746955154 135.475332206787  C 32.7648549774815 150.301229563663  0.555096418732766 158  0.555096418732766 158  " stroke-width="1" stroke="#00ffff" fill="none" transform="matrix(1 0 0 1 59 111 )" />
  </g>
</svg>