<?xml version="1.0" encoding="utf-8"?>
<svg version="1.1" xmlns:xlink="http://www.w3.org/1999/xlink" width="34px" height="34px" xmlns="http://www.w3.org/2000/svg">
  <g transform="matrix(1 0 0 1 -4180 -542 )">
    <path d="M 21.0065104166667 21.0065104166667  C 22.11328125 19.8997395833333  22.6666666666667 18.5642361111111  22.6666666666667 17  C 22.6666666666667 15.4357638888889  22.11328125 14.1002604166667  21.0065104166667 12.9934895833333  C 19.8997395833333 11.88671875  18.5642361111111 11.3333333333333  17 11.3333333333333  C 15.4357638888889 11.3333333333333  14.1002604166667 11.88671875  12.9934895833333 12.9934895833333  C 11.88671875 14.1002604166667  11.3333333333333 15.4357638888889  11.3333333333333 17  C 11.3333333333333 18.5642361111111  11.88671875 19.8997395833333  12.9934895833333 21.0065104166667  C 14.1002604166667 22.11328125  15.4357638888889 22.6666666666667  17 22.6666666666667  C 18.5642361111111 22.6666666666667  19.8997395833333 22.11328125  21.0065104166667 21.0065104166667  Z M 33.8229166666667 14.0670572916667  C 33.9409722222222 14.2220052083333  34 14.3953993055556  34 14.5872395833333  L 34 19.5013020833333  C 34 19.6783854166667  33.9409722222222 19.8480902777778  33.8229166666667 20.0104166666667  C 33.7048611111111 20.1727430555556  33.5572916666667 20.2686631944444  33.3802083333333 20.2981770833333  L 29.28515625 20.91796875  C 29.0047743055556 21.71484375  28.7170138888889 22.3862847222222  28.421875 22.9322916666667  C 28.9383680555556 23.6701388888889  29.7278645833333 24.6883680555556  30.7903645833333 25.9869791666667  C 30.9379340277778 26.1640625  31.01171875 26.3485243055556  31.01171875 26.5403645833333  C 31.01171875 26.7322048611111  30.9453125 26.9019097222222  30.8125 27.0494791666667  C 30.4140625 27.5954861111111  29.68359375 28.3923611111111  28.62109375 29.4401041666667  C 27.55859375 30.4878472222222  26.8650173611111 31.01171875  26.5403645833333 31.01171875  C 26.36328125 31.01171875  26.1714409722222 30.9453125  25.96484375 30.8125  L 22.91015625 28.421875  C 22.2608506944444 28.7612847222222  21.5894097222222 29.0416666666667  20.8958333333333 29.2630208333333  C 20.6597222222222 31.2699652777778  20.4457465277778 32.6423611111111  20.25390625 33.3802083333333  C 20.1506076388889 33.7934027777778  19.8849826388889 34  19.45703125 34  L 14.54296875 34  C 14.3363715277778 34  14.1555989583333 33.9372829861111  14.0006510416667 33.8118489583333  C 13.845703125 33.6864149305556  13.7608506944444 33.5277777777778  13.74609375 33.3359375  L 13.1263020833333 29.2630208333333  C 12.4032118055556 29.0269097222222  11.7391493055556 28.75390625  11.1341145833333 28.4440104166667  L 8.01302083333333 30.8125  C 7.86545138888889 30.9453125  7.68098958333333 31.01171875  7.45963541666667 31.01171875  C 7.25303819444444 31.01171875  7.06857638888889 30.9305555555556  6.90625 30.7682291666667  C 5.046875 29.0859375  3.82942708333333 27.8463541666667  3.25390625 27.0494791666667  C 3.15060763888889 26.9019097222222  3.09895833333333 26.7322048611111  3.09895833333333 26.5403645833333  C 3.09895833333333 26.36328125  3.15798611111111 26.1935763888889  3.27604166666667 26.03125  C 3.49739583333333 25.7213541666667  3.87369791666667 25.2306857638889  4.40494791666667 24.5592447916667  C 4.93619791666667 23.8878038194444  5.33463541666667 23.3676215277778  5.60026041666667 22.9986979166667  C 5.20182291666667 22.2608506944444  4.89930555555556 21.5303819444444  4.69270833333333 20.8072916666667  L 0.641927083333333 20.2096354166667  C 0.450086805555556 20.1801215277778  0.295138888888889 20.087890625  0.177083333333333 19.9329427083333  C 0.0590277777777778 19.7779947916667  0 19.6046006944444  0 19.4127604166667  L 0 14.4986979166667  C 0 14.3216145833333  0.0590277777777778 14.1519097222222  0.177083333333333 13.9895833333333  C 0.295138888888889 13.8272569444444  0.435329861111111 13.7313368055556  0.59765625 13.7018229166667  L 4.71484375 13.08203125  C 4.92144097222222 12.4032118055556  5.20920138888889 11.7243923611111  5.578125 11.0455729166667  C 4.98784722222222 10.2044270833333  4.19835069444444 9.18619791666667  3.20963541666667 7.99088541666667  C 3.06206597222222 7.81380208333333  2.98828125 7.63671875  2.98828125 7.45963541666667  C 2.98828125 7.31206597222222  3.0546875 7.14236111111111  3.1875 6.95052083333333  C 3.57118055555556 6.41927083333333  4.29796006944444 5.62608506944444  5.36783854166667 4.57096354166667  C 6.43771701388889 3.51584201388889  7.13498263888889 2.98828125  7.45963541666667 2.98828125  C 7.65147569444444 2.98828125  7.84331597222222 3.06206597222222  8.03515625 3.20963541666667  L 11.08984375 5.578125  C 11.7391493055556 5.23871527777778  12.4105902777778 4.95833333333333  13.1041666666667 4.73697916666667  C 13.3402777777778 2.73003472222222  13.5542534722222 1.35763888888889  13.74609375 0.619791666666665  C 13.8493923611111 0.206597222222221  14.1150173611111 0  14.54296875 0  L 19.45703125 0  C 19.6636284722222 0  19.8444010416667 0.062717013888886  19.9993489583333 0.188151041666665  C 20.154296875 0.313585069444441  20.2391493055556 0.472222222222221  20.25390625 0.6640625  L 20.8736979166667 4.73697916666667  C 21.5967881944444 4.97309027777778  22.2608506944444 5.24609375  22.8658854166667 5.55598958333333  L 26.0091145833333 3.1875  C 26.1419270833333 3.0546875  26.3190104166667 2.98828125  26.5403645833333 2.98828125  C 26.7322048611111 2.98828125  26.9166666666667 3.06206597222222  27.09375 3.20963541666667  C 28.9973958333333 4.96571180555556  30.21484375 6.22005208333333  30.74609375 6.97265625  C 30.8493923611111 7.09071180555556  30.9010416666667 7.25303819444444  30.9010416666667 7.45963541666667  C 30.9010416666667 7.63671875  30.8420138888889 7.80642361111111  30.7239583333333 7.96875  C 30.5026041666667 8.27864583333333  30.1263020833333 8.76931423611111  29.5950520833333 9.44075520833333  C 29.0638020833333 10.1121961805556  28.6653645833333 10.6323784722222  28.3997395833333 11.0013020833333  C 28.7834201388889 11.7391493055556  29.0859375 12.4622395833333  29.3072916666667 13.1705729166667  L 33.3580729166667 13.7903645833333  C 33.5499131944444 13.8198784722222  33.7048611111111 13.912109375  33.8229166666667 14.0670572916667  Z " fill-rule="nonzero" fill="#555555" stroke="none" transform="matrix(1 0 0 1 4180 542 )" />
  </g>
</svg>