<?xml version="1.0" encoding="utf-8"?>
<svg version="1.1" xmlns:xlink="http://www.w3.org/1999/xlink" width="170px" height="87px" xmlns="http://www.w3.org/2000/svg">
  <defs>
    <mask fill="white" id="clip1889">
      <path d="M 162 0.580000000000264  L 0.45333333333323 0.580000000000264  L 0.45333333333323 86.4199999999997  L 162 86.4199999999997  L 162 52.7800000000003  L 169.093333333333 45.8200000000003  L 162 33.06  L 162 0.580000000000264  Z " fill-rule="evenodd" />
    </mask>
  </defs>
  <g transform="matrix(1 0 0 1 -167 -76 )">
    <path d="M 162 0.580000000000264  L 0.45333333333323 0.580000000000264  L 0.45333333333323 86.4199999999997  L 162 86.4199999999997  L 162 52.7800000000003  L 169.093333333333 45.8200000000003  L 162 33.06  L 162 0.580000000000264  Z " fill-rule="nonzero" fill="#aaaaaa" stroke="none" fill-opacity="0.698039215686274" transform="matrix(1 0 0 1 167 76 )" />
    <path d="M 162 0.580000000000264  L 0.45333333333323 0.580000000000264  L 0.45333333333323 86.4199999999997  L 162 86.4199999999997  L 162 52.7800000000003  L 169.093333333333 45.8200000000003  L 162 33.06  L 162 0.580000000000264  Z " stroke-width="2" stroke="#ffffff" fill="none" transform="matrix(1 0 0 1 167 76 )" mask="url(#clip1889)" />
  </g>
</svg>