<?xml version="1.0" encoding="utf-8"?>
<svg version="1.1" xmlns:xlink="http://www.w3.org/1999/xlink" width="50px" height="50px" xmlns="http://www.w3.org/2000/svg">
  <g transform="matrix(1 0 0 1 -1136 -1 )">
    <path d="M 46.4518229166667 18.1315104166667  L 41.7643229166667 13.4440104166667  L 30.2083333333333 25  L 41.7643229166667 36.5559895833333  L 46.4518229166667 31.8684895833333  C 47.0811631944445 31.1957465277778  47.8407118055556 31.0438368055555  48.73046875 31.4127604166667  C 49.5768229166667 31.7816840277778  50 32.421875  50 33.3333333333333  L 50 47.9166666666667  C 50 48.4809027777778  49.7938368055556 48.9691840277778  49.3815104166667 49.3815104166667  C 48.9691840277778 49.7938368055556  48.4809027777778 50  47.9166666666667 50  L 33.3333333333333 50  C 32.421875 50  31.7816840277778 49.5659722222222  31.4127604166667 48.6979166666667  C 31.0438368055556 47.8515625  31.1957465277778 47.1028645833333  31.8684895833333 46.4518229166667  L 36.5559895833333 41.7643229166667  L 25 30.2083333333333  L 13.4440104166667 41.7643229166667  L 18.1315104166667 46.4518229166667  C 18.8042534722222 47.1028645833333  18.9561631944444 47.8515625  18.5872395833333 48.6979166666667  C 18.2183159722222 49.5659722222222  17.578125 50  16.6666666666667 50  L 2.08333333333333 50  C 1.51909722222222 50  1.03081597222222 49.7938368055556  0.618489583333333 49.3815104166667  C 0.206163194444444 48.9691840277778  0 48.4809027777778  0 47.9166666666667  L 0 33.3333333333333  C 0 32.421875  0.434027777777778 31.7816840277778  1.30208333333333 31.4127604166667  C 2.1484375 31.0438368055555  2.89713541666667 31.1957465277778  3.54817708333333 31.8684895833333  L 8.23567708333333 36.5559895833333  L 19.7916666666667 25  L 8.23567708333333 13.4440104166667  L 3.54817708333333 18.1315104166667  C 3.13585069444444 18.5438368055556  2.64756944444444 18.75  2.08333333333333 18.75  C 1.82291666666667 18.75  1.5625 18.6957465277778  1.30208333333333 18.5872395833333  C 0.434027777777778 18.2183159722222  0 17.578125  0 16.6666666666667  L 0 2.08333333333333  C 0 1.51909722222222  0.206163194444444 1.03081597222222  0.618489583333333 0.618489583333331  C 1.03081597222222 0.206163194444442  1.51909722222222 0  2.08333333333333 0  L 16.6666666666667 0  C 17.578125 0  18.2183159722222 0.434027777777773  18.5872395833333 1.30208333333333  C 18.9561631944444 2.1484375  18.8042534722222 2.89713541666667  18.1315104166667 3.54817708333333  L 13.4440104166667 8.23567708333333  L 25 19.7916666666667  L 36.5559895833333 8.23567708333333  L 31.8684895833333 3.54817708333333  C 31.1957465277778 2.89713541666667  31.0438368055556 2.1484375  31.4127604166667 1.30208333333333  C 31.7816840277778 0.434027777777773  32.421875 0  33.3333333333333 0  L 47.9166666666667 0  C 48.4809027777778 0  48.9691840277778 0.206163194444442  49.3815104166667 0.618489583333331  C 49.7938368055556 1.03081597222222  50 1.51909722222222  50 2.08333333333333  L 50 16.6666666666667  C 50 17.578125  49.5768229166667 18.2183159722222  48.73046875 18.5872395833333  C 48.4483506944445 18.6957465277778  48.1770833333333 18.75  47.9166666666667 18.75  C 47.3524305555556 18.75  46.8641493055556 18.5438368055556  46.4518229166667 18.1315104166667  Z " fill-rule="nonzero" fill="#169bd5" stroke="none" transform="matrix(1 0 0 1 1136 1 )" />
  </g>
</svg>