<?xml version="1.0" encoding="utf-8"?>
<svg version="1.1" xmlns:xlink="http://www.w3.org/1999/xlink" width="28px" height="28px" xmlns="http://www.w3.org/2000/svg">
  <g transform="matrix(1 0 0 1 -2658 -804 )">
    <path d="M 27.2890625 1.2578125  C 27.7630208333333 1.46440972222222  28 1.82291666666667  28 2.33333333333333  L 28 10.5  C 28 10.8159722222222  27.8845486111111 11.0894097222222  27.6536458333333 11.3203125  C 27.4227430555556 11.5512152777778  27.1493055555556 11.6666666666667  26.8333333333333 11.6666666666667  L 18.6666666666667 11.6666666666667  C 18.15625 11.6666666666667  17.7977430555556 11.4236111111111  17.5911458333333 10.9375  C 17.3845486111111 10.4635416666667  17.4696180555556 10.0442708333333  17.8463541666667 9.6796875  L 20.3619791666667 7.1640625  C 18.5633680555556 5.49913194444444  16.4427083333333 4.66666666666667  14 4.66666666666667  C 12.7361111111111 4.66666666666667  11.5299479166667 4.91276041666667  10.3815104166667 5.40494791666667  C 9.23307291666667 5.89713541666667  8.23958333333333 6.5625  7.40104166666667 7.40104166666667  C 6.5625 8.23958333333333  5.89713541666667 9.23307291666667  5.40494791666667 10.3815104166667  C 4.91276041666667 11.5299479166667  4.66666666666667 12.7361111111111  4.66666666666667 14  C 4.66666666666667 15.2638888888889  4.91276041666667 16.4700520833333  5.40494791666667 17.6184895833333  C 5.89713541666667 18.7669270833333  6.5625 19.7604166666667  7.40104166666667 20.5989583333333  C 8.23958333333333 21.4375  9.23307291666667 22.1028645833333  10.3815104166667 22.5950520833333  C 11.5299479166667 23.0872395833333  12.7361111111111 23.3333333333333  14 23.3333333333333  C 15.4461805555556 23.3333333333333  16.8133680555556 23.0173611111111  18.1015625 22.3854166666667  C 19.3897569444444 21.7534722222222  20.4774305555556 20.8602430555556  21.3645833333333 19.7057291666667  C 21.4496527777778 19.5842013888889  21.5894097222222 19.5112847222222  21.7838541666667 19.4869791666667  C 21.9661458333333 19.4869791666667  22.1180555555556 19.5416666666667  22.2395833333333 19.6510416666667  L 24.7369791666667 22.1666666666667  C 24.8463541666667 22.2638888888889  24.9040798611111 22.3884548611111  24.91015625 22.5403645833333  C 24.9162326388889 22.6922743055556  24.8706597222222 22.8289930555556  24.7734375 22.9505208333333  C 23.4487847222222 24.5546875  21.8446180555556 25.7973090277778  19.9609375 26.6783854166667  C 18.0772569444444 27.5594618055556  16.0902777777778 28  14 28  C 12.1041666666667 28  10.2934027777778 27.6293402777778  8.56770833333333 26.8880208333333  C 6.84201388888889 26.1467013888889  5.35329861111111 25.1501736111111  4.1015625 23.8984375  C 2.84982638888889 22.6467013888889  1.85329861111111 21.1579861111111  1.11197916666667 19.4322916666667  C 0.370659722222222 17.7065972222222  0 15.8958333333333  0 14  C 0 12.1041666666667  0.370659722222222 10.2934027777778  1.11197916666667 8.56770833333333  C 1.85329861111111 6.84201388888889  2.84982638888889 5.35329861111111  4.1015625 4.1015625  C 5.35329861111111 2.84982638888889  6.84201388888889 1.85329861111111  8.56770833333333 1.11197916666667  C 10.2934027777778 0.370659722222222  12.1041666666667 0  14 0  C 15.7864583333333 0  17.5151909722222 0.337239583333334  19.1861979166667 1.01171875  C 20.8572048611111 1.68619791666667  22.3428819444444 2.63715277777778  23.6432291666667 3.86458333333333  L 26.0130208333333 1.51302083333333  C 26.3654513888889 1.13628472222222  26.7907986111111 1.05121527777778  27.2890625 1.2578125  Z " fill-rule="nonzero" fill="#169bd5" stroke="none" transform="matrix(1 0 0 1 2658 804 )" />
  </g>
</svg>