<?xml version="1.0" encoding="utf-8"?>
<svg version="1.1" xmlns:xlink="http://www.w3.org/1999/xlink" width="823px" height="463px" xmlns="http://www.w3.org/2000/svg">
  <g transform="matrix(1 0 0 1 -1201 -1072 )">
    <path d="M 1201 1072  L 2024 1072  L 2024 1535  L 1201 1535  L 1201 1072  " fill-rule="nonzero" fill="#cccccc" stroke="none" />
    <path d="M 1233 1104  L 1992 1104  L 1992 1503  L 1233 1503  L 1233 1104  " fill-rule="nonzero" fill="#ffffff" stroke="none" />
    <path d="M 1663.685 1210.9  C 1644.239 1210.9  1628.96 1195.621  1628.96 1176.175  C 1628.96 1156.729  1644.239 1141.45  1663.685 1141.45  C 1683.131 1141.45  1698.41 1156.729  1698.41 1176.175  C 1698.41 1195.621  1683.131 1210.9  1663.685 1210.9  " fill-rule="nonzero" fill="#cccccc" stroke="none" />
    <path d="M 1245 1492  L 1245 1285.2  L 1429 1191.2  L 1686.6 1365.08286755772  L 1833.8 1247.6  L 1981 1365.08286755772  L 1981 1492  L 1245 1492  " fill-rule="nonzero" fill="#169bd5" stroke="none" />
    <path d="M 1201.5 1534.5  L 1201.5 1072.5  L 2023.5 1072.5  L 2023.5 1534.5  L 1201.5 1534.5  Z " stroke-width="1" stroke="#797979" fill="none" />
  </g>
</svg>