<?xml version="1.0" encoding="utf-8"?>
<svg version="1.1" xmlns:xlink="http://www.w3.org/1999/xlink" width="60px" height="38px" xmlns="http://www.w3.org/2000/svg">
  <g transform="matrix(1 0 0 1 -2652 -384 )">
    <path d="M 39.78125 36.2517361111111  C 39.9270833333333 36.4716435185185  40 36.7025462962963  40 36.9444444444444  C 40 37.2303240740741  39.9010416666667 37.4777199074074  39.703125 37.6866319444444  C 39.5052083333333 37.8955439814815  39.2708333333333 38  39 38  L 9 38  C 8.83333333333333 38  8.69270833333333 37.9780092592593  8.578125 37.9340277777778  C 8.46354166666667 37.8900462962963  8.36979166666667 37.8130787037037  8.296875 37.703125  C 8.22395833333333 37.5931712962963  8.16666666666667 37.5052083333333  8.125 37.4392361111111  C 8.08333333333333 37.3732638888889  8.05208333333333 37.2468171296296  8.03125 37.0598958333333  C 8.01041666666667 36.872974537037  8 36.7465277777778  8 36.6805555555556  L 8 36.2517361111111  L 8 35.8888888888889  L 8 30.6111111111111  L 8 16.8888888888889  L 2 16.8888888888889  C 1.45833333333333 16.8888888888889  0.989583333333333 16.6799768518518  0.59375 16.2621527777778  C 0.197916666666667 15.8443287037037  0 15.349537037037  0 14.7777777777778  C 0 14.25  0.15625 13.7991898148148  0.46875 13.4253472222222  L 10.46875 0.758680555555556  C 10.8645833333333 0.274884259259259  11.375 0.032986111111112  12 0.032986111111112  C 12.625 0.032986111111112  13.1354166666667 0.274884259259259  13.53125 0.758680555555556  L 23.53125 13.4253472222222  C 23.84375 13.7991898148148  24 14.25  24 14.7777777777778  C 24 15.349537037037  23.8020833333333 15.8443287037037  23.40625 16.2621527777778  C 23.0104166666667 16.6799768518518  22.5416666666667 16.8888888888889  22 16.8888888888889  L 16 16.8888888888889  L 16 29  L 34 29  C 34.3333333333333 29.5555555555556  34.59375 29.6765046296296  34.78125 29.9184027777778  L 39.78125 36.2517361111111  Z M 59.40625 21.7378472222222  C 59.8020833333333 22.1556712962963  60 22.650462962963  60 23.2222222222222  C 60 23.75  59.84375 24.2008101851852  59.53125 24.5746527777778  L 49.53125 37.2413194444444  C 49.1145833333333 37.7471064814815  48.6041666666667 38  48 38  C 47.3958333333333 38  46.8854166666667 37.7471064814815  46.46875 37.2413194444444  L 36.46875 24.5746527777778  C 36.15625 24.2008101851852  36 23.75  36 23.2222222222222  C 36 22.650462962963  36.1979166666667 22.1556712962963  36.59375 21.7378472222222  C 36.9895833333333 21.3200231481481  37.4583333333333 21.1111111111111  38 21.1111111111111  L 44 21.1111111111111  L 44 9  L 26 9  C 25.6666666666667 8.44444444444444  25.40625 8.3125  25.21875 8.04861111111111  L 20.21875 1.71527777777778  C 20.0729166666667 1.51736111111111  20 1.2974537037037  20 1.05555555555556  C 20 0.769675925925922  20.0989583333333 0.522280092592591  20.296875 0.313368055555556  C 20.4947916666667 0.104456018518513  20.7291666666667 0  21 0  L 51 0  C 51.1666666666667 0  51.3072916666667 0.0219907407407371  51.421875 0.0659722222222241  C 51.5364583333333 0.109953703703703  51.6302083333333 0.186921296296293  51.703125 0.296875  C 51.7760416666667 0.406828703703703  51.8333333333333 0.494791666666668  51.875 0.560763888888888  C 51.9166666666667 0.626736111111112  51.9479166666667 0.753182870370366  51.96875 0.940104166666668  C 51.9895833333333 1.12702546296296  52 1.25347222222222  52 1.31944444444444  L 52 1.74826388888889  L 52 2.11111111111111  L 52 7.38888888888889  L 52 21.1111111111111  L 58 21.1111111111111  C 58.5416666666667 21.1111111111111  59.0104166666667 21.3200231481481  59.40625 21.7378472222222  Z " fill-rule="nonzero" fill="#333333" stroke="none" transform="matrix(1 0 0 1 2652 384 )" />
  </g>
</svg>