<?xml version="1.0" encoding="utf-8"?>
<svg version="1.1" xmlns:xlink="http://www.w3.org/1999/xlink" width="100px" height="100px" xmlns="http://www.w3.org/2000/svg">
  <g transform="matrix(1 0 0 1 -2249 -3 )">
    <path d="M 48.7417218543046 51.2582781456954  C 49.5805739514349 52.0971302428256  50 53.0905077262693  50 54.2384105960265  L 50 83.9072847682119  C 50 85.0551876379691  49.5805739514349 86.0485651214128  48.7417218543046 86.8874172185431  C 47.9028697571744 87.7262693156733  46.9094922737307 88.1456953642384  45.7615894039735 88.1456953642384  C 44.6136865342163 88.1456953642384  43.6203090507726 87.7262693156733  42.7814569536424 86.8874172185431  L 33.2450331125828 77.3509933774834  L 11.2582781456954 99.3377483443709  C 10.8167770419426 99.7792494481236  10.3090507726269 100  9.73509933774834 100  C 9.16114790286976 100  8.65342163355409 99.7792494481236  8.21192052980132 99.3377483443709  L 0.662251655629139 91.7880794701987  C 0.22075055187638 91.3465783664459  0 90.8388520971303  0 90.2649006622517  C 0 89.6909492273731  0.22075055187638 89.1832229580574  0.662251655629139 88.7417218543046  L 22.6490066225166 66.7549668874172  L 13.112582781457 57.2185430463576  C 12.2737306843267 56.3796909492274  11.8543046357616 55.3863134657837  11.8543046357616 54.2384105960265  C 11.8543046357616 53.0905077262693  12.2737306843267 52.0971302428256  13.112582781457 51.2582781456954  C 13.9514348785872 50.4194260485651  14.9448123620309 50  16.0927152317881 50  L 45.7615894039735 50  C 46.9094922737307 50  47.9028697571744 50.4194260485651  48.7417218543046 51.2582781456954  Z M 99.3377483443709 8.21192052980132  C 99.7792494481236 8.65342163355407  100 9.16114790286975  100 9.73509933774834  C 100 10.3090507726269  99.7792494481236 10.8167770419426  99.3377483443709 11.2582781456954  L 77.3509933774834 33.2450331125828  L 86.8874172185431 42.7814569536424  C 87.7262693156733 43.6203090507726  88.1456953642384 44.6136865342163  88.1456953642384 45.7615894039735  C 88.1456953642384 46.9094922737307  87.7262693156733 47.9028697571744  86.8874172185431 48.7417218543046  C 86.0485651214128 49.5805739514349  85.0551876379691 50  83.9072847682119 50  L 54.2384105960265 50  C 53.0905077262693 50  52.0971302428256 49.5805739514349  51.2582781456954 48.7417218543046  C 50.4194260485651 47.9028697571744  50 46.9094922737307  50 45.7615894039735  L 50 16.0927152317881  C 50 14.9448123620309  50.4194260485651 13.9514348785872  51.2582781456954 13.112582781457  C 52.0971302428256 12.2737306843267  53.0905077262693 11.8543046357616  54.2384105960265 11.8543046357616  C 55.3863134657837 11.8543046357616  56.3796909492274 12.2737306843267  57.2185430463576 13.112582781457  L 66.7549668874172 22.6490066225166  L 88.7417218543046 0.662251655629142  C 89.1832229580574 0.22075055187637  89.6909492273731 0  90.2649006622517 0  C 90.8388520971303 0  91.3465783664459 0.22075055187637  91.7880794701987 0.662251655629142  L 99.3377483443709 8.21192052980132  Z " fill-rule="nonzero" fill="#555555" stroke="none" transform="matrix(1 0 0 1 2249 3 )" />
  </g>
</svg>