<?xml version="1.0" encoding="utf-8"?>
<svg version="1.1" xmlns:xlink="http://www.w3.org/1999/xlink" width="43px" height="43px" xmlns="http://www.w3.org/2000/svg">
  <g transform="matrix(1 0 0 1 -3539 -1032 )">
    <path d="M 41.986531986532 32.1414141414141  C 42.662177328844 32.8170594837261  43 33.6374859708193  43 34.6026936026936  C 43 35.5679012345679  42.662177328844 36.388327721661  41.986531986532 37.0639730639731  L 37.0639730639731 41.986531986532  C 36.3883277216611 42.662177328844  35.5679012345679 43  34.6026936026936 43  C 33.6374859708193 43  32.8170594837262 42.662177328844  32.1414141414141 41.986531986532  L 21.5 31.3451178451178  L 10.8585858585859 41.986531986532  C 10.1829405162739 42.662177328844  9.3625140291807 43  8.3973063973064 43  C 7.4320987654321 43  6.61167227833895 42.662177328844  5.93602693602694 41.986531986532  L 1.01346801346801 37.0639730639731  C 0.337822671156005 36.388327721661  0 35.5679012345679  0 34.6026936026936  C 0 33.6374859708193  0.337822671156005 32.8170594837261  1.01346801346801 32.1414141414141  L 11.6548821548822 21.5  L 1.01346801346801 10.8585858585859  C 0.337822671156005 10.1829405162738  0 9.3625140291807  0 8.3973063973064  C 0 7.4320987654321  0.337822671156005 6.61167227833894  1.01346801346801 5.93602693602694  L 5.93602693602694 1.01346801346801  C 6.61167227833895 0.337822671156003  7.4320987654321 0  8.3973063973064 0  C 9.3625140291807 0  10.1829405162739 0.337822671156003  10.8585858585859 1.01346801346801  L 21.5 11.6548821548822  L 32.1414141414141 1.01346801346801  C 32.8170594837262 0.337822671156003  33.6374859708193 0  34.6026936026936 0  C 35.5679012345679 0  36.3883277216611 0.337822671156003  37.0639730639731 1.01346801346801  L 41.986531986532 5.93602693602694  C 42.662177328844 6.61167227833894  43 7.4320987654321  43 8.3973063973064  C 43 9.3625140291807  42.662177328844 10.1829405162738  41.986531986532 10.8585858585859  L 31.3451178451178 21.5  L 41.986531986532 32.1414141414141  Z " fill-rule="nonzero" fill="#565656" stroke="none" transform="matrix(1 0 0 1 3539 1032 )" />
  </g>
</svg>