<?xml version="1.0" encoding="utf-8"?>
<svg version="1.1" xmlns:xlink="http://www.w3.org/1999/xlink" width="43px" height="43px" xmlns="http://www.w3.org/2000/svg">
  <g transform="matrix(1 0 0 1 -3381 -1032 )">
    <path d="M 41.908203125 1.931640625  C 42.6360677083333 2.24891493055555  43 2.79947916666667  43 3.58333333333333  L 43 16.125  C 43 16.6102430555556  42.8226996527778 17.0301649305556  42.4680989583333 17.384765625  C 42.1134982638889 17.7393663194444  41.6935763888889 17.9166666666667  41.2083333333333 18  L 28.6666666666667 18  C 27.8828125 17.9166666666667  27.3322482638889 17.5434027777778  27.0149739583333 16.796875  C 26.6976996527778 16.0690104166667  26.8283420138889 15.4251302083333  27.4069010416667 14.865234375  L 31.2701822916667 11.001953125  C 28.5080295138889 8.44509548611111  25.2513020833333 7.16666666666667  21.5 7.16666666666667  C 19.5590277777778 7.16666666666667  17.7067057291667 7.54459635416667  15.9430338541667 8.30045572916666  C 14.1793619791667 9.05631510416666  12.6536458333333 10.078125  11.3658854166667 11.3658854166667  C 10.078125 12.6536458333333  9.05631510416667 14.1793619791667  8.30045572916667 15.9430338541667  C 7.54459635416667 17.7067057291667  7.16666666666667 19.5590277777778  7.16666666666667 21.5  C 7.16666666666667 23.4409722222222  7.54459635416667 25.2932942708333  8.30045572916667 27.0569661458333  C 9.05631510416667 28.8206380208333  10.078125 30.3463541666667  11.3658854166667 31.6341145833333  C 12.6536458333333 32.921875  14.1793619791667 33.9436848958333  15.9430338541667 34.6995442708333  C 17.7067057291667 35.4554036458333  19.5590277777778 35.8333333333333  21.5 35.8333333333333  C 23.7209201388889 35.8333333333333  25.8205295138889 35.3480902777778  27.798828125 34.3776041666667  C 29.7771267361111 33.4071180555556  31.4474826388889 32.0353732638889  32.8098958333333 30.2623697916667  C 32.9405381944444 30.0757378472222  33.1551649305556 29.9637586805556  33.4537760416667 29.9264322916667  C 33.7337239583333 29.9264322916667  33.9670138888889 30.0104166666667  34.1536458333333 30.1783854166667  L 37.9889322916667 34.0416666666667  C 38.1569010416667 34.1909722222222  38.2455512152778 34.3822699652778  38.2548828125 34.6155598958333  C 38.2642144097222 34.8488498263889  38.1942274305556 35.0588107638889  38.044921875 35.2454427083333  C 36.0106336805556 37.708984375  33.5470920138889 39.6172960069444  30.654296875 40.9703776041667  C 27.7615017361111 42.3234592013889  24.7100694444444 43  21.5 43  C 18.5885416666667 43  15.8077256944444 42.4307725694444  13.1575520833333 41.2923177083333  C 10.5073784722222 40.1538628472222  8.22113715277778 38.6234809027778  6.298828125 36.701171875  C 4.37651909722222 34.7788628472222  2.84613715277778 32.4926215277778  1.70768229166667 29.8424479166667  C 0.569227430555556 27.1922743055556  0 24.4114583333333  0 21.5  C 0 18.5885416666667  0.569227430555556 15.8077256944444  1.70768229166667 13.1575520833333  C 2.84613715277778 10.5073784722222  4.37651909722222 8.22113715277778  6.298828125 6.298828125  C 8.22113715277778 4.37651909722222  10.5073784722222 2.84613715277778  13.1575520833333 1.70768229166667  C 15.8077256944444 0.569227430555555  18.5885416666667 0  21.5 0  C 24.2434895833333 0  26.8983289930556 0.517903645833335  29.4645182291667 1.5537109375  C 32.0307074652778 2.58951822916667  34.3122829861111 4.04991319444444  36.3092447916667 5.93489583333333  L 39.9485677083333 2.32356770833333  C 40.4898003472222 1.74500868055555  41.1430121527778 1.61436631944444  41.908203125 1.931640625  Z " fill-rule="nonzero" fill="#565656" stroke="none" transform="matrix(1 0 0 1 3381 1032 )" />
  </g>
</svg>