<?xml version="1.0" encoding="utf-8"?>
<svg version="1.1" xmlns:xlink="http://www.w3.org/1999/xlink" width="2472px" height="1392px" xmlns="http://www.w3.org/2000/svg">
  <g transform="matrix(1 0 0 1 -1202 -52 )">
    <path d="M 1202 52  L 3674 52  L 3674 1444  L 1202 1444  L 1202 52  " fill-rule="nonzero" fill="#cccccc" stroke="none" />
    <path d="M 1299 149  L 3577 149  L 3577 1347  L 1299 1347  L 1299 149  " fill-rule="nonzero" fill="#ffffff" stroke="none" />
    <path d="M 2591.84 469.6  C 2533.376 469.6  2487.44 423.664  2487.44 365.2  C 2487.44 306.736  2533.376 260.8  2591.84 260.8  C 2650.304 260.8  2696.24 306.736  2696.24 365.2  C 2696.24 423.664  2650.304 469.6  2591.84 469.6  " fill-rule="nonzero" fill="#cccccc" stroke="none" />
    <path d="M 1334 1312  L 1334 691.6  L 1886 409.6  L 2658.8 930.88932038835  L 3100.4 578.8  L 3542 930.88932038835  L 3542 1312  L 1334 1312  " fill-rule="nonzero" fill="#169bd5" stroke="none" />
    <path d="M 1202.5 1443.5  L 1202.5 52.5  L 3673.5 52.5  L 3673.5 1443.5  L 1202.5 1443.5  Z " stroke-width="1" stroke="#797979" fill="none" />
  </g>
</svg>