<?xml version="1.0" encoding="utf-8"?>
<svg version="1.1" xmlns:xlink="http://www.w3.org/1999/xlink" width="91px" height="57px" xmlns="http://www.w3.org/2000/svg">
  <g transform="matrix(1 0 0 1 -3372 -391 )">
    <path d="M 60.3348958333333 54.3776041666667  C 60.5560763888889 54.7074652777778  60.6666666666667 55.0538194444444  60.6666666666667 55.4166666666667  C 60.6666666666667 55.8454861111111  60.5165798611111 56.2165798611111  60.21640625 56.5299479166667  C 59.9162326388889 56.8433159722222  59.5607638888889 57  59.15 57  L 13.65 57  C 13.3972222222222 57  13.1839409722222 56.9670138888889  13.01015625 56.9010416666667  C 12.8363715277778 56.8350694444444  12.6941840277778 56.7196180555556  12.58359375 56.5546875  C 12.4730034722222 56.3897569444444  12.3861111111111 56.2578125  12.3229166666667 56.1588541666667  C 12.2597222222222 56.0598958333333  12.2123263888889 55.8702256944445  12.1807291666667 55.58984375  C 12.1491319444444 55.3094618055556  12.1333333333333 55.1197916666667  12.1333333333333 55.0208333333333  L 12.1333333333333 54.3776041666667  L 12.1333333333333 53.8333333333333  L 13 45.9166666666667  L 13 25.3333333333333  L 3.03333333333333 25.3333333333333  C 2.21180555555556 25.3333333333333  1.50086805555556 25.0199652777778  0.900520833333333 24.3932291666667  C 0.300173611111111 23.7664930555556  0 23.0243055555556  0 22.1666666666667  C 0 21.375  0.236979166666667 20.6987847222222  0.7109375 20.1380208333333  L 15.8776041666667 1.13802083333333  C 16.4779513888889 0.412326388888888  17.2520833333333 0.0494791666666681  18.2 0.0494791666666681  C 19.1479166666667 0.0494791666666681  19.9220486111111 0.412326388888888  20.5223958333333 1.13802083333333  L 35.6890625 20.1380208333333  C 36.1630208333333 20.6987847222222  36.4 21.375  36.4 22.1666666666667  C 36.4 23.0243055555556  36.0998263888889 23.7664930555556  35.4994791666667 24.3932291666667  C 34.8991319444444 25.0199652777778  34.1881944444444 25.3333333333333  33.3666666666667 25.3333333333333  L 25 25.3333333333333  L 25 44  L 51.5666666666667 44  C 52.0722222222222 44.3333333333333  52.4671875 44.5147569444445  52.7515625 44.8776041666667  L 60.3348958333333 54.3776041666667  Z M 90.0994791666667 32.6067708333333  C 90.6998263888889 33.2335069444444  91 33.9756944444444  91 34.8333333333333  C 91 35.625  90.7630208333333 36.3012152777778  90.2890625 36.8619791666667  L 75.1223958333333 55.8619791666667  C 74.4904513888889 56.6206597222222  73.7163194444445 57  72.8 57  C 71.8836805555556 57  71.1095486111111 56.6206597222222  70.4776041666667 55.8619791666667  L 55.3109375 36.8619791666667  C 54.8369791666667 36.3012152777778  54.6 35.625  54.6 34.8333333333333  C 54.6 33.9756944444444  54.9001736111111 33.2335069444444  55.5005208333333 32.6067708333333  C 56.1008680555556 31.9800347222222  56.8118055555556 31.6666666666667  57.6333333333333 31.6666666666667  L 66 31.6666666666667  L 66 13  L 39.4333333333333 13  C 38.9277777777778 12.6666666666667  38.5328125 12.46875  38.2484375 12.0729166666667  L 30.6651041666667 2.57291666666666  C 30.4439236111111 2.27604166666667  30.3333333333333 1.94618055555555  30.3333333333333 1.58333333333333  C 30.3333333333333 1.15451388888888  30.4834201388889 0.783420138888886  30.78359375 0.470052083333334  C 31.0837673611111 0.15668402777777  31.4392361111111 0  31.85 0  L 77.35 0  C 77.6027777777778 0  77.8160590277778 0.0329861111111057  77.98984375 0.0989583333333361  C 78.1636284722222 0.164930555555554  78.3058159722222 0.28038194444444  78.41640625 0.4453125  C 78.5269965277778 0.610243055555554  78.6138888888889 0.742187500000002  78.6770833333333 0.841145833333332  C 78.7402777777778 0.940104166666668  78.7876736111111 1.12977430555555  78.8192708333333 1.41015625  C 78.8508680555556 1.69053819444444  78.8666666666667 1.88020833333334  78.8666666666667 1.97916666666667  L 78.8666666666667 2.62239583333333  L 78.8666666666667 3.16666666666667  L 78 11.0833333333333  L 78 31.6666666666667  L 87.9666666666667 31.6666666666667  C 88.7881944444445 31.6666666666667  89.4991319444445 31.9800347222222  90.0994791666667 32.6067708333333  Z " fill-rule="nonzero" fill="#333333" stroke="none" transform="matrix(1 0 0 1 3372 391 )" />
  </g>
</svg>