<?xml version="1.0" encoding="utf-8"?>
<svg version="1.1" xmlns:xlink="http://www.w3.org/1999/xlink" width="43px" height="43px" xmlns="http://www.w3.org/2000/svg">
  <g transform="matrix(1 0 0 1 -3459 -1032 )">
    <path d="M 26.5670572916667 26.5670572916667  C 27.966796875 25.1673177083333  28.6666666666667 23.4782986111111  28.6666666666667 21.5  C 28.6666666666667 19.5217013888889  27.966796875 17.8326822916667  26.5670572916667 16.4329427083333  C 25.1673177083333 15.033203125  23.4782986111111 14.3333333333333  21.5 14.3333333333333  C 19.5217013888889 14.3333333333333  17.8326822916667 15.033203125  16.4329427083333 16.4329427083333  C 15.033203125 17.8326822916667  14.3333333333333 19.5217013888889  14.3333333333333 21.5  C 14.3333333333333 23.4782986111111  15.033203125 25.1673177083333  16.4329427083333 26.5670572916667  C 17.8326822916667 27.966796875  19.5217013888889 28.6666666666667  21.5 28.6666666666667  C 23.4782986111111 28.6666666666667  25.1673177083333 27.966796875  26.5670572916667 26.5670572916667  Z M 42.7760416666667 17.7906901041667  C 42.9253472222222 17.9866536458333  43 18.2059461805556  43 18.4485677083333  L 43 24.6634114583333  C 43 24.8873697916667  42.9253472222222 25.1019965277778  42.7760416666667 25.3072916666667  C 42.6267361111111 25.5125868055556  42.4401041666667 25.6338975694444  42.2161458333333 25.6712239583333  L 37.037109375 26.455078125  C 36.6825086805556 27.462890625  36.3185763888889 28.3120659722222  35.9453125 29.0026041666667  C 36.5985243055556 29.9357638888889  37.5970052083333 31.2235243055556  38.9407552083333 32.8658854166667  C 39.1273871527778 33.08984375  39.220703125 33.3231336805556  39.220703125 33.5657552083333  C 39.220703125 33.8083767361111  39.13671875 34.0230034722222  38.96875 34.2096354166667  C 38.46484375 34.9001736111111  37.541015625 35.9079861111111  36.197265625 37.2330729166667  C 34.853515625 38.5581597222222  33.9763454861111 39.220703125  33.5657552083333 39.220703125  C 33.341796875 39.220703125  33.0991753472222 39.13671875  32.837890625 38.96875  L 28.974609375 35.9453125  C 28.1534288194444 36.3745659722222  27.3042534722222 36.7291666666667  26.4270833333333 37.0091145833333  C 26.1284722222222 39.5473090277778  25.8578559027778 41.2829861111111  25.615234375 42.2161458333333  C 25.4845920138889 42.7387152777778  25.1486545138889 43  24.607421875 43  L 18.392578125 43  C 18.1312934027778 43  17.9026692708333 42.9206814236111  17.7067057291667 42.7620442708333  C 17.5107421875 42.6034071180556  17.4034288194444 42.4027777777778  17.384765625 42.16015625  L 16.6009114583333 37.0091145833333  C 15.6864149305556 36.7105034722222  14.8465711805556 36.365234375  14.0813802083333 35.9733072916667  L 10.1341145833333 38.96875  C 9.94748263888889 39.13671875  9.71419270833333 39.220703125  9.43424479166667 39.220703125  C 9.17296006944444 39.220703125  8.93967013888889 39.1180555555556  8.734375 38.9127604166667  C 6.3828125 36.78515625  4.84309895833333 35.2174479166667  4.115234375 34.2096354166667  C 3.98459201388889 34.0230034722222  3.91927083333333 33.8083767361111  3.91927083333333 33.5657552083333  C 3.91927083333333 33.341796875  3.99392361111111 33.1271701388889  4.14322916666667 32.921875  C 4.42317708333333 32.5299479166667  4.89908854166667 31.9093967013889  5.57096354166667 31.0602213541667  C 6.24283854166667 30.2110460069444  6.74674479166667 29.5531684027778  7.08268229166667 29.0865885416667  C 6.57877604166667 28.1534288194444  6.19618055555556 27.2296006944444  5.93489583333333 26.3151041666667  L 0.811848958333333 25.5592447916667  C 0.569227430555556 25.5219184027778  0.373263888888889 25.4052734375  0.223958333333333 25.2093098958333  C 0.0746527777777778 25.0133463541667  0 24.7940538194444  0 24.5514322916667  L 0 18.3365885416667  C 0 18.1126302083333  0.0746527777777778 17.8980034722222  0.223958333333333 17.6927083333333  C 0.373263888888889 17.4874131944444  0.550564236111111 17.3661024305556  0.755859375 17.3287760416667  L 5.962890625 16.544921875  C 6.22417534722222 15.6864149305556  6.58810763888889 14.8279079861111  7.0546875 13.9694010416667  C 6.30815972222222 12.9055989583333  5.30967881944444 11.6178385416667  4.05924479166667 10.1061197916667  C 3.87261284722222 9.88216145833334  3.779296875 9.658203125  3.779296875 9.43424479166666  C 3.779296875 9.24761284722222  3.86328125 9.03298611111111  4.03125 8.79036458333334  C 4.51649305555556 8.11848958333334  5.43565538194444 7.11534288194444  6.78873697916667 5.78092447916667  C 8.14181857638889 4.44650607638888  9.02365451388889 3.779296875  9.43424479166667 3.779296875  C 9.67686631944444 3.779296875  9.91948784722222 3.87261284722222  10.162109375 4.05924479166667  L 14.025390625 7.0546875  C 14.8465711805556 6.62543402777778  15.6957465277778 6.27083333333333  16.5729166666667 5.99088541666667  C 16.8715277777778 3.45269097222222  17.1421440972222 1.71701388888889  17.384765625 0.783854166666665  C 17.5154079861111 0.26128472222222  17.8513454861111 0  18.392578125 0  L 24.607421875 0  C 24.8687065972222 0  25.0973307291667 0.0793185763888852  25.2932942708333 0.237955729166665  C 25.4892578125 0.39659288194444  25.5965711805556 0.59722222222222  25.615234375 0.83984375  L 26.3990885416667 5.99088541666667  C 27.3135850694444 6.28949652777778  28.1534288194444 6.634765625  28.9186197916667 7.02669270833333  L 32.8938802083333 4.03125  C 33.0618489583333 3.86328125  33.2858072916667 3.779296875  33.5657552083333 3.779296875  C 33.8083767361111 3.779296875  34.0416666666667 3.87261284722222  34.265625 4.05924479166667  C 36.6731770833333 6.28016493055556  38.212890625 7.86653645833333  38.884765625 8.818359375  C 39.0154079861111 8.96766493055556  39.0807291666667 9.17296006944444  39.0807291666667 9.43424479166666  C 39.0807291666667 9.658203125  39.0060763888889 9.87282986111111  38.8567708333333 10.078125  C 38.5768229166667 10.4700520833333  38.1009114583333 11.0906032986111  37.4290364583333 11.9397786458333  C 36.7571614583333 12.7889539930556  36.2532552083333 13.4468315972222  35.9173177083333 13.9134114583333  C 36.4025607638889 14.8465711805556  36.78515625 15.7610677083333  37.0651041666667 16.6569010416667  L 42.1881510416667 17.4407552083333  C 42.4307725694444 17.4780815972222  42.6267361111111 17.5947265625  42.7760416666667 17.7906901041667  Z " fill-rule="nonzero" fill="#555555" stroke="none" fill-opacity="0.996078431372549" transform="matrix(1 0 0 1 3459 1032 )" />
  </g>
</svg>