<?xml version="1.0" encoding="utf-8"?>
<svg version="1.1" xmlns:xlink="http://www.w3.org/1999/xlink" width="65px" height="65px" xmlns="http://www.w3.org/2000/svg">
  <defs>
    <mask fill="white" id="clip1928">
      <path d="M 63.4680134680135 48.5858585858586  C 64.4893378226712 49.6071829405163  65 50.8473625140292  65 52.3063973063973  C 65 53.7654320987654  64.4893378226712 55.0056116722783  63.4680134680135 56.026936026936  L 56.026936026936 63.4680134680135  C 55.0056116722783 64.4893378226712  53.7654320987654 65  52.3063973063973 65  C 50.8473625140292 65  49.6071829405163 64.4893378226712  48.5858585858586 63.4680134680135  L 32.5 47.3821548821549  L 16.4141414141414 63.4680134680135  C 15.3928170594837 64.4893378226712  14.1526374859708 65  12.6936026936027 65  C 11.2345679012346 65  9.99438832772166 64.4893378226712  8.97306397306397 63.4680134680135  L 1.53198653198653 56.026936026936  C 0.510662177328844 55.0056116722783  0 53.7654320987654  0 52.3063973063973  C 0 50.8473625140292  0.510662177328844 49.6071829405163  1.53198653198653 48.5858585858586  L 17.6178451178451 32.5  L 1.53198653198653 16.4141414141414  C 0.510662177328844 15.3928170594837  0 14.1526374859708  0 12.6936026936027  C 0 11.2345679012346  0.510662177328844 9.99438832772165  1.53198653198653 8.97306397306398  L 8.97306397306397 1.53198653198653  C 9.99438832772166 0.510662177328842  11.2345679012346 0  12.6936026936027 0  C 14.1526374859708 0  15.3928170594837 0.510662177328842  16.4141414141414 1.53198653198653  L 32.5 17.6178451178451  L 48.5858585858586 1.53198653198653  C 49.6071829405163 0.510662177328842  50.8473625140292 0  52.3063973063973 0  C 53.7654320987654 0  55.0056116722783 0.510662177328842  56.026936026936 1.53198653198653  L 63.4680134680135 8.97306397306398  C 64.4893378226712 9.99438832772165  65 11.2345679012346  65 12.6936026936027  C 65 14.1526374859708  64.4893378226712 15.3928170594837  63.4680134680135 16.4141414141414  L 47.3821548821549 32.5  L 63.4680134680135 48.5858585858586  Z " fill-rule="evenodd" />
    </mask>
  </defs>
  <g transform="matrix(1 0 0 1 -3251 -13400 )">
    <path d="M 63.4680134680135 48.5858585858586  C 64.4893378226712 49.6071829405163  65 50.8473625140292  65 52.3063973063973  C 65 53.7654320987654  64.4893378226712 55.0056116722783  63.4680134680135 56.026936026936  L 56.026936026936 63.4680134680135  C 55.0056116722783 64.4893378226712  53.7654320987654 65  52.3063973063973 65  C 50.8473625140292 65  49.6071829405163 64.4893378226712  48.5858585858586 63.4680134680135  L 32.5 47.3821548821549  L 16.4141414141414 63.4680134680135  C 15.3928170594837 64.4893378226712  14.1526374859708 65  12.6936026936027 65  C 11.2345679012346 65  9.99438832772166 64.4893378226712  8.97306397306397 63.4680134680135  L 1.53198653198653 56.026936026936  C 0.510662177328844 55.0056116722783  0 53.7654320987654  0 52.3063973063973  C 0 50.8473625140292  0.510662177328844 49.6071829405163  1.53198653198653 48.5858585858586  L 17.6178451178451 32.5  L 1.53198653198653 16.4141414141414  C 0.510662177328844 15.3928170594837  0 14.1526374859708  0 12.6936026936027  C 0 11.2345679012346  0.510662177328844 9.99438832772165  1.53198653198653 8.97306397306398  L 8.97306397306397 1.53198653198653  C 9.99438832772166 0.510662177328842  11.2345679012346 0  12.6936026936027 0  C 14.1526374859708 0  15.3928170594837 0.510662177328842  16.4141414141414 1.53198653198653  L 32.5 17.6178451178451  L 48.5858585858586 1.53198653198653  C 49.6071829405163 0.510662177328842  50.8473625140292 0  52.3063973063973 0  C 53.7654320987654 0  55.0056116722783 0.510662177328842  56.026936026936 1.53198653198653  L 63.4680134680135 8.97306397306398  C 64.4893378226712 9.99438832772165  65 11.2345679012346  65 12.6936026936027  C 65 14.1526374859708  64.4893378226712 15.3928170594837  63.4680134680135 16.4141414141414  L 47.3821548821549 32.5  L 63.4680134680135 48.5858585858586  Z " fill-rule="nonzero" fill="#000000" stroke="none" transform="matrix(1 0 0 1 3251 13400 )" />
    <path d="M 63.4680134680135 48.5858585858586  C 64.4893378226712 49.6071829405163  65 50.8473625140292  65 52.3063973063973  C 65 53.7654320987654  64.4893378226712 55.0056116722783  63.4680134680135 56.026936026936  L 56.026936026936 63.4680134680135  C 55.0056116722783 64.4893378226712  53.7654320987654 65  52.3063973063973 65  C 50.8473625140292 65  49.6071829405163 64.4893378226712  48.5858585858586 63.4680134680135  L 32.5 47.3821548821549  L 16.4141414141414 63.4680134680135  C 15.3928170594837 64.4893378226712  14.1526374859708 65  12.6936026936027 65  C 11.2345679012346 65  9.99438832772166 64.4893378226712  8.97306397306397 63.4680134680135  L 1.53198653198653 56.026936026936  C 0.510662177328844 55.0056116722783  0 53.7654320987654  0 52.3063973063973  C 0 50.8473625140292  0.510662177328844 49.6071829405163  1.53198653198653 48.5858585858586  L 17.6178451178451 32.5  L 1.53198653198653 16.4141414141414  C 0.510662177328844 15.3928170594837  0 14.1526374859708  0 12.6936026936027  C 0 11.2345679012346  0.510662177328844 9.99438832772165  1.53198653198653 8.97306397306398  L 8.97306397306397 1.53198653198653  C 9.99438832772166 0.510662177328842  11.2345679012346 0  12.6936026936027 0  C 14.1526374859708 0  15.3928170594837 0.510662177328842  16.4141414141414 1.53198653198653  L 32.5 17.6178451178451  L 48.5858585858586 1.53198653198653  C 49.6071829405163 0.510662177328842  50.8473625140292 0  52.3063973063973 0  C 53.7654320987654 0  55.0056116722783 0.510662177328842  56.026936026936 1.53198653198653  L 63.4680134680135 8.97306397306398  C 64.4893378226712 9.99438832772165  65 11.2345679012346  65 12.6936026936027  C 65 14.1526374859708  64.4893378226712 15.3928170594837  63.4680134680135 16.4141414141414  L 47.3821548821549 32.5  L 63.4680134680135 48.5858585858586  Z " stroke-width="6" stroke="#f2f2f2" fill="none" transform="matrix(1 0 0 1 3251 13400 )" mask="url(#clip1928)" />
  </g>
</svg>