<?xml version="1.0" encoding="utf-8"?>
<svg version="1.1" xmlns:xlink="http://www.w3.org/1999/xlink" width="573px" height="319px" xmlns="http://www.w3.org/2000/svg">
  <g transform="matrix(1 0 0 1 -905 -397 )">
    <path d="M 905 397  L 1478 397  L 1478 716  L 905 716  L 905 397  " fill-rule="nonzero" fill="#cccccc" stroke="none" />
    <path d="M 927 419  L 1456 419  L 1456 694  L 927 694  L 927 419  " fill-rule="nonzero" fill="#ffffff" stroke="none" />
    <path d="M 1226.885 492.7  C 1213.487 492.7  1202.96 482.173  1202.96 468.775  C 1202.96 455.377  1213.487 444.85  1226.885 444.85  C 1240.283 444.85  1250.81 455.377  1250.81 468.775  C 1250.81 482.173  1240.283 492.7  1226.885 492.7  " fill-rule="nonzero" fill="#cccccc" stroke="none" />
    <path d="M 935 686  L 935 543.55  L 1063.25 478.8  L 1242.8 599.485863874346  L 1345.4 517.65  L 1448 599.485863874346  L 1448 686  L 935 686  " fill-rule="nonzero" fill="#169bd5" stroke="none" />
  </g>
</svg>