<?xml version="1.0" encoding="utf-8"?>
<svg version="1.1" xmlns:xlink="http://www.w3.org/1999/xlink" width="218px" height="218px" xmlns="http://www.w3.org/2000/svg">
  <g transform="matrix(1 0 0 1 -1068 -659 )">
    <path d="M 163.5 101.194010416667  C 166.527777777778 102.897135416667  168.041666666667 105.499131944444  168.041666666667 109  C 168.041666666667 112.500868055556  166.527777777778 115.102864583333  163.5 116.805989583333  L 86.2916666666667 162.22265625  C 84.8723958333333 163.07421875  83.3585069444445 163.5  81.75 163.5  C 80.2361111111111 163.5  78.7222222222222 163.121527777778  77.2083333333333 162.364583333333  C 74.1805555555556 160.566840277778  72.6666666666667 157.917534722222  73 154.416666666667  L 73 63.5833333333333  C 72.6666666666667 60.0824652777778  74.1805555555556 57.4331597222222  77.2083333333333 55.6354166666667  C 80.3307291666667 53.9322916666667  83.3585069444445 53.9796006944444  86.2916666666667 55.77734375  L 163.5 101.194010416667  Z M 175.84765625 147.74609375  C 182.754774305556 135.918836805556  186.208333333333 123.003472222222  186.208333333333 109  C 186.208333333333 94.9965277777778  182.754774305556 82.0811631944444  175.84765625 70.25390625  C 168.940538194444 58.4266493055555  159.573350694444 49.0594618055555  147.74609375 42.15234375  C 135.918836805556 35.2452256944444  123.003472222222 31.7916666666667  109 31.7916666666667  C 94.9965277777778 31.7916666666667  82.0811631944445 35.2452256944444  70.25390625 42.15234375  C 58.4266493055556 49.0594618055555  49.0594618055556 58.4266493055555  42.15234375 70.25390625  C 35.2452256944445 82.0811631944444  31.7916666666667 94.9965277777778  31.7916666666667 109  C 31.7916666666667 123.003472222222  35.2452256944445 135.918836805556  42.15234375 147.74609375  C 49.0594618055556 159.573350694444  58.4266493055556 168.940538194444  70.25390625 175.84765625  C 82.0811631944445 182.754774305556  94.9965277777778 186.208333333333  109 186.208333333333  C 123.003472222222 186.208333333333  135.918836805556 182.754774305556  147.74609375 175.84765625  C 159.573350694444 168.940538194444  168.940538194444 159.573350694444  175.84765625 147.74609375  Z M 203.381510416667 54.287109375  C 213.127170138889 70.9871961805555  218 89.2248263888889  218 109  C 218 128.775173611111  213.127170138889 147.012803819444  203.381510416667 163.712890625  C 193.635850694444 180.412977430556  180.412977430556 193.635850694444  163.712890625 203.381510416667  C 147.012803819444 213.127170138889  128.775173611111 218  109 218  C 89.2248263888889 218  70.9871961805556 213.127170138889  54.287109375 203.381510416667  C 37.5870225694445 193.635850694444  24.3641493055556 180.412977430556  14.6184895833333 163.712890625  C 4.87282986111111 147.012803819444  0 128.775173611111  0 109  C 0 89.2248263888889  4.87282986111111 70.9871961805555  14.6184895833333 54.287109375  C 24.3641493055556 37.5870225694444  37.5870225694445 24.3641493055555  54.287109375 14.6184895833333  C 70.9871961805556 4.87282986111109  89.2248263888889 0  109 0  C 128.775173611111 0  147.012803819444 4.87282986111109  163.712890625 14.6184895833333  C 180.412977430556 24.3641493055555  193.635850694444 37.5870225694444  203.381510416667 54.287109375  Z " fill-rule="nonzero" fill="#02a7f0" stroke="none" transform="matrix(1 0 0 1 1068 659 )" />
  </g>
</svg>