<?xml version="1.0" encoding="utf-8"?>
<svg version="1.1" xmlns:xlink="http://www.w3.org/1999/xlink" width="218px" height="218px" xmlns="http://www.w3.org/2000/svg">
  <g transform="matrix(1 0 0 1 -1068 -659 )">
    <path d="M 54.287109375 14.6184895833333  C 70.9871961805556 4.87282986111109  89.2248263888889 0  109 0  C 128.775173611111 0  147.012803819444 4.87282986111109  163.712890625 14.6184895833333  C 180.412977430556 24.3641493055555  193.635850694444 37.5870225694444  203.381510416667 54.287109375  C 213.127170138889 70.9871961805555  218 89.2248263888889  218 109  C 218 128.775173611111  213.127170138889 147.012803819444  203.381510416667 163.712890625  C 193.635850694444 180.412977430556  180.412977430556 193.635850694444  163.712890625 203.381510416667  C 147.012803819444 213.127170138889  128.775173611111 218  109 218  C 89.2248263888889 218  70.9871961805556 213.127170138889  54.287109375 203.381510416667  C 37.5870225694445 193.635850694444  24.3641493055556 180.412977430556  14.6184895833333 163.712890625  C 4.87282986111111 147.012803819444  0 128.775173611111  0 109  C 0 89.2248263888889  4.87282986111111 70.9871961805555  14.6184895833333 54.287109375  C 24.3641493055556 37.5870225694444  37.5870225694445 24.3641493055555  54.287109375 14.6184895833333  Z M 70.25390625 175.84765625  C 82.0811631944445 182.754774305556  94.9965277777778 186.208333333333  109 186.208333333333  C 123.003472222222 186.208333333333  135.918836805556 182.754774305556  147.74609375 175.84765625  C 159.573350694444 168.940538194444  168.940538194444 159.573350694444  175.84765625 147.74609375  C 182.754774305556 135.918836805556  186.208333333333 123.003472222222  186.208333333333 109  C 186.208333333333 94.9965277777778  182.754774305556 82.0811631944444  175.84765625 70.25390625  C 168.940538194444 58.4266493055555  159.573350694444 49.0594618055555  147.74609375 42.15234375  C 135.918836805556 35.2452256944444  123.003472222222 31.7916666666667  109 31.7916666666667  C 94.9965277777778 31.7916666666667  82.0811631944445 35.2452256944444  70.25390625 42.15234375  C 58.4266493055556 49.0594618055555  49.0594618055556 58.4266493055555  42.15234375 70.25390625  C 35.2452256944445 82.0811631944444  31.7916666666667 94.9965277777778  31.7916666666667 109  C 31.7916666666667 123.003472222222  35.2452256944445 135.918836805556  42.15234375 147.74609375  C 49.0594618055556 159.573350694444  58.4266493055556 168.940538194444  70.25390625 175.84765625  Z M 149.875 154  L 122.625 154  C 121.300347222222 154.416666666667  120.212239583333 153.990885416667  119.360677083333 153.139322916667  C 118.509114583333 152.287760416667  118.083333333333 151.199652777778  118 149.875  L 118 68.125  C 118.083333333333 66.8003472222222  118.509114583333 65.7122395833333  119.360677083333 64.8606770833333  C 120.212239583333 64.0091145833333  121.300347222222 63.5833333333333  122.625 64  L 149.875 64  C 151.199652777778 63.5833333333333  152.287760416667 64.0091145833333  153.139322916667 64.8606770833333  C 153.990885416667 65.7122395833333  154.416666666667 66.8003472222222  154 68.125  L 154 149.875  C 154.416666666667 151.199652777778  153.990885416667 152.287760416667  153.139322916667 153.139322916667  C 152.287760416667 153.990885416667  151.199652777778 154.416666666667  149.875 154  Z M 95.375 154  L 68.125 154  C 66.8003472222222 154.416666666667  65.7122395833333 153.990885416667  64.8606770833333 153.139322916667  C 64.0091145833333 152.287760416667  63.5833333333333 151.199652777778  64 149.875  L 64 68.125  C 63.5833333333333 66.8003472222222  64.0091145833333 65.7122395833333  64.8606770833333 64.8606770833333  C 65.7122395833333 64.0091145833333  66.8003472222222 63.5833333333333  68.125 64  L 95.375 64  C 96.6996527777778 63.5833333333333  97.7877604166667 64.0091145833333  98.6393229166667 64.8606770833333  C 99.4908854166667 65.7122395833333  99.9166666666667 66.8003472222222  100 68.125  L 100 149.875  C 99.9166666666667 151.199652777778  99.4908854166667 152.287760416667  98.6393229166667 153.139322916667  C 97.7877604166667 153.990885416667  96.6996527777778 154.416666666667  95.375 154  Z " fill-rule="nonzero" fill="#02a7f0" stroke="none" transform="matrix(1 0 0 1 1068 659 )" />
  </g>
</svg>