<?xml version="1.0" encoding="utf-8"?>
<svg version="1.1" xmlns:xlink="http://www.w3.org/1999/xlink" width="110px" height="110px" xmlns="http://www.w3.org/2000/svg">
  <g transform="matrix(1 0 0 1 -540 -333 )">
    <path d="M 82.5 51.0611979166667  C 84.0277777777778 51.9205729166667  84.7916666666667 53.2335069444444  84.7916666666667 55  C 84.7916666666667 56.7664930555555  84.0277777777778 58.0794270833333  82.5 58.9388020833333  L 43.5416666666667 81.85546875  C 42.8255208333333 82.28515625  42.0616319444445 82.5  41.25 82.5  C 40.4861111111111 82.5  39.7222222222222 82.3090277777778  38.9583333333333 81.9270833333333  C 37.4305555555556 81.0199652777778  36.6666666666667 79.6831597222222  37 77.9166666666667  L 37 32.0833333333333  C 36.6666666666667 30.3168402777778  37.4305555555556 28.9800347222222  38.9583333333333 28.0729166666667  C 40.5338541666667 27.2135416666667  42.0616319444445 27.2374131944444  43.5416666666667 28.14453125  L 82.5 51.0611979166667  Z M 88.73046875 74.55078125  C 92.2157118055556 68.5828993055555  93.9583333333333 62.0659722222222  93.9583333333333 55  C 93.9583333333333 47.9340277777778  92.2157118055556 41.4171006944444  88.73046875 35.44921875  C 85.2452256944445 29.4813368055555  80.5186631944445 24.7547743055555  74.55078125 21.26953125  C 68.5828993055556 17.7842881944444  62.0659722222222 16.0416666666667  55 16.0416666666667  C 47.9340277777778 16.0416666666667  41.4171006944445 17.7842881944444  35.44921875 21.26953125  C 29.4813368055556 24.7547743055555  24.7547743055556 29.4813368055555  21.26953125 35.44921875  C 17.7842881944444 41.4171006944444  16.0416666666667 47.9340277777778  16.0416666666667 55  C 16.0416666666667 62.0659722222222  17.7842881944444 68.5828993055555  21.26953125 74.55078125  C 24.7547743055556 80.5186631944444  29.4813368055556 85.2452256944444  35.44921875 88.73046875  C 41.4171006944445 92.2157118055556  47.9340277777778 93.9583333333333  55 93.9583333333333  C 62.0659722222222 93.9583333333333  68.5828993055556 92.2157118055556  74.55078125 88.73046875  C 80.5186631944445 85.2452256944444  85.2452256944445 80.5186631944444  88.73046875 74.55078125  Z M 102.623697916667 27.392578125  C 107.541232638889 35.8192274305555  110 45.0217013888889  110 55  C 110 64.9782986111111  107.541232638889 74.1807725694444  102.623697916667 82.607421875  C 97.7061631944445 91.0340711805556  91.0340711805556 97.7061631944444  82.607421875 102.623697916667  C 74.1807725694445 107.541232638889  64.9782986111111 110  55 110  C 45.0217013888889 110  35.8192274305556 107.541232638889  27.392578125 102.623697916667  C 18.9659288194444 97.7061631944444  12.2938368055556 91.0340711805556  7.37630208333333 82.607421875  C 2.45876736111111 74.1807725694444  0 64.9782986111111  0 55  C 0 45.0217013888889  2.45876736111111 35.8192274305555  7.37630208333333 27.392578125  C 12.2938368055556 18.9659288194444  18.9659288194444 12.2938368055555  27.392578125 7.37630208333333  C 35.8192274305556 2.4587673611111  45.0217013888889 0  55 0  C 64.9782986111111 0  74.1807725694445 2.4587673611111  82.607421875 7.37630208333333  C 91.0340711805556 12.2938368055555  97.7061631944445 18.9659288194444  102.623697916667 27.392578125  Z " fill-rule="nonzero" fill="#02a7f0" stroke="none" transform="matrix(1 0 0 1 540 333 )" />
  </g>
</svg>