<?xml version="1.0" encoding="utf-8"?>
<svg version="1.1" xmlns:xlink="http://www.w3.org/1999/xlink" width="110px" height="110px" xmlns="http://www.w3.org/2000/svg">
  <g transform="matrix(1 0 0 1 -540 -333 )">
    <path d="M 27.392578125 7.37630208333333  C 35.8192274305556 2.4587673611111  45.0217013888889 0  55 0  C 64.9782986111111 0  74.1807725694445 2.4587673611111  82.607421875 7.37630208333333  C 91.0340711805556 12.2938368055555  97.7061631944445 18.9659288194444  102.623697916667 27.392578125  C 107.541232638889 35.8192274305555  110 45.0217013888889  110 55  C 110 64.9782986111111  107.541232638889 74.1807725694444  102.623697916667 82.607421875  C 97.7061631944445 91.0340711805556  91.0340711805556 97.7061631944444  82.607421875 102.623697916667  C 74.1807725694445 107.541232638889  64.9782986111111 110  55 110  C 45.0217013888889 110  35.8192274305556 107.541232638889  27.392578125 102.623697916667  C 18.9659288194444 97.7061631944444  12.2938368055556 91.0340711805556  7.37630208333333 82.607421875  C 2.45876736111111 74.1807725694444  0 64.9782986111111  0 55  C 0 45.0217013888889  2.45876736111111 35.8192274305555  7.37630208333333 27.392578125  C 12.2938368055556 18.9659288194444  18.9659288194444 12.2938368055555  27.392578125 7.37630208333333  Z M 35.44921875 88.73046875  C 41.4171006944445 92.2157118055556  47.9340277777778 93.9583333333333  55 93.9583333333333  C 62.0659722222222 93.9583333333333  68.5828993055556 92.2157118055556  74.55078125 88.73046875  C 80.5186631944445 85.2452256944444  85.2452256944445 80.5186631944444  88.73046875 74.55078125  C 92.2157118055556 68.5828993055555  93.9583333333333 62.0659722222222  93.9583333333333 55  C 93.9583333333333 47.9340277777778  92.2157118055556 41.4171006944444  88.73046875 35.44921875  C 85.2452256944445 29.4813368055555  80.5186631944445 24.7547743055555  74.55078125 21.26953125  C 68.5828993055556 17.7842881944444  62.0659722222222 16.0416666666667  55 16.0416666666667  C 47.9340277777778 16.0416666666667  41.4171006944445 17.7842881944444  35.44921875 21.26953125  C 29.4813368055556 24.7547743055555  24.7547743055556 29.4813368055555  21.26953125 35.44921875  C 17.7842881944444 41.4171006944444  16.0416666666667 47.9340277777778  16.0416666666667 55  C 16.0416666666667 62.0659722222222  17.7842881944444 68.5828993055555  21.26953125 74.55078125  C 24.7547743055556 80.5186631944444  29.4813368055556 85.2452256944444  35.44921875 88.73046875  Z M 75.625 78  L 61.875 78  C 61.2065972222222 77.9166666666667  60.6575520833333 77.7018229166667  60.2278645833333 77.2721354166667  C 59.7981770833333 76.8424479166667  59.5833333333333 76.2934027777778  59 75.625  L 59 34.375  C 59.5833333333333 33.7065972222222  59.7981770833333 33.1575520833333  60.2278645833333 32.7278645833333  C 60.6575520833333 32.2981770833333  61.2065972222222 32.0833333333333  61.875 32  L 75.625 32  C 76.2934027777778 32.0833333333333  76.8424479166667 32.2981770833333  77.2721354166667 32.7278645833333  C 77.7018229166667 33.1575520833333  77.9166666666667 33.7065972222222  78 34.375  L 78 75.625  C 77.9166666666667 76.2934027777778  77.7018229166667 76.8424479166667  77.2721354166667 77.2721354166667  C 76.8424479166667 77.7018229166667  76.2934027777778 77.9166666666667  75.625 78  Z M 48.125 78  L 34.375 78  C 33.7065972222222 77.9166666666667  33.1575520833333 77.7018229166667  32.7278645833333 77.2721354166667  C 32.2981770833333 76.8424479166667  32.0833333333333 76.2934027777778  32 75.625  L 32 34.375  C 32.0833333333333 33.7065972222222  32.2981770833333 33.1575520833333  32.7278645833333 32.7278645833333  C 33.1575520833333 32.2981770833333  33.7065972222222 32.0833333333333  34.375 32  L 48.125 32  C 48.7934027777778 32.0833333333333  49.3424479166667 32.2981770833333  49.7721354166667 32.7278645833333  C 50.2018229166667 33.1575520833333  50.4166666666667 33.7065972222222  51 34.375  L 51 75.625  C 50.4166666666667 76.2934027777778  50.2018229166667 76.8424479166667  49.7721354166667 77.2721354166667  C 49.3424479166667 77.7018229166667  48.7934027777778 77.9166666666667  48.125 78  Z " fill-rule="nonzero" fill="#333333" stroke="none" transform="matrix(1 0 0 1 540 333 )" />
  </g>
</svg>