<?xml version="1.0" encoding="utf-8"?>
<svg version="1.1" xmlns:xlink="http://www.w3.org/1999/xlink" width="230px" height="230px" xmlns="http://www.w3.org/2000/svg">
  <g transform="matrix(1 0 0 1 -130 -764 )">
    <path d="M 188.183558405284 779.591036452674  C 205.483733273473 769.703225310782  225.067743434695 764.5  245 764.5  C 308.236603855626 764.5  359.5 815.763396144374  359.5 879  C 359.5 942.236603855626  308.236603855626 993.5  245 993.5  C 181.763396144374 993.5  130.5 942.236603855626  130.5 879  C 130.5 859.067743434695  135.703225310782 839.483733273473  145.591036452673 822.183558405284  L 244.75 879.433012701892  A 0.5 0.5 0 0 0 245.433012701892 878.75 L 188.18355840528 779.591036452676  Z " fill-rule="nonzero" fill="#ec808d" stroke="none" fill-opacity="0.698039215686274" />
    <path d="M 188.183558405284 779.591036452674  C 205.483733273473 769.703225310782  225.067743434695 764.5  245 764.5  C 308.236603855626 764.5  359.5 815.763396144374  359.5 879  C 359.5 942.236603855626  308.236603855626 993.5  245 993.5  C 181.763396144374 993.5  130.5 942.236603855626  130.5 879  C 130.5 859.067743434695  135.703225310782 839.483733273473  145.591036452673 822.183558405284  L 244.75 879.433012701892  A 0.5 0.5 0 0 0 245.433012701892 878.75 L 188.18355840528 779.591036452676  Z " stroke-width="1" stroke="#797979" fill="none" />
  </g>
</svg>