<?xml version="1.0" encoding="utf-8"?>
<svg version="1.1" xmlns:xlink="http://www.w3.org/1999/xlink" width="230px" height="230px" xmlns="http://www.w3.org/2000/svg">
  <g transform="matrix(1 0 0 1 -130 -764 )">
    <path d="M 284.286804316155 771.450945933472  C 329.437042379333 787.942173721142  359.5 830.896795879072  359.5 879  C 359.5 942.236603855626  308.236603855626 993.5  245 993.5  C 181.763396144374 993.5  130.5 942.236603855626  130.5 879  C 130.5 858.933452876011  135.773532763694 839.222291826181  145.788112764567 821.84012331995  L 244.748504055849 879.432145565841  A 0.5 0.5 0 0 0 245.470391172115 879.169505590458 L 284.286804281911 771.450945920964  Z " fill-rule="nonzero" fill="#facd91" stroke="none" fill-opacity="0.996078431372549" />
    <path d="M 284.286804316155 771.450945933472  C 329.437042379333 787.942173721142  359.5 830.896795879072  359.5 879  C 359.5 942.236603855626  308.236603855626 993.5  245 993.5  C 181.763396144374 993.5  130.5 942.236603855626  130.5 879  C 130.5 858.933452876011  135.773532763694 839.222291826181  145.788112764567 821.84012331995  L 244.748504055849 879.432145565841  A 0.5 0.5 0 0 0 245.470391172115 879.169505590458 L 284.286804281911 771.450945920964  Z " stroke-width="1" stroke="#797979" fill="none" />
  </g>
</svg>