<?xml version="1.0" encoding="utf-8"?>
<svg version="1.1" xmlns:xlink="http://www.w3.org/1999/xlink" width="191px" height="191px" xmlns="http://www.w3.org/2000/svg">
  <g transform="matrix(1 0 0 1 -4410 -182 )">
    <path d="M 4458.43367042137 194.978725844019  C 4472.76937384446 186.802275153545  4488.99071354398 182.5  4505.5 182.5  C 4557.96705123393 182.5  4600.5 225.032948766075  4600.5 277.5  C 4600.5 329.967051233925  4557.96705123393 372.5  4505.5 372.5  C 4453.03294876607 372.5  4410.5 329.967051233925  4410.5 277.5  C 4410.5 260.990713543979  4414.80227515354 244.769373844462  4422.97872584402 230.433670421365  L 4505.25 277.933012701892  A 0.5 0.5 0 0 0 4505.93301270189 277.25 L 4458.43367042136 194.97872584402  Z " fill-rule="nonzero" fill="#ec808d" stroke="none" fill-opacity="0.698039215686274" />
    <path d="M 4458.43367042137 194.978725844019  C 4472.76937384446 186.802275153545  4488.99071354398 182.5  4505.5 182.5  C 4557.96705123393 182.5  4600.5 225.032948766075  4600.5 277.5  C 4600.5 329.967051233925  4557.96705123393 372.5  4505.5 372.5  C 4453.03294876607 372.5  4410.5 329.967051233925  4410.5 277.5  C 4410.5 260.990713543979  4414.80227515354 244.769373844462  4422.97872584402 230.433670421365  L 4505.25 277.933012701892  A 0.5 0.5 0 0 0 4505.93301270189 277.25 L 4458.43367042136 194.97872584402  Z " stroke-width="1" stroke="#797979" fill="none" />
  </g>
</svg>