<?xml version="1.0" encoding="utf-8"?>
<svg version="1.1" xmlns:xlink="http://www.w3.org/1999/xlink" width="191px" height="191px" xmlns="http://www.w3.org/2000/svg">
  <g transform="matrix(1 0 0 1 -4410 -182 )">
    <path d="M 4538.17601090998 188.296410797256  C 4575.59242989384 202.000574964551  4600.5 237.617452320001  4600.5 277.5  C 4600.5 329.967051233925  4557.96705123393 372.5  4505.5 372.5  C 4453.03294876607 372.5  4410.5 329.967051233925  4410.5 277.5  C 4410.5 260.879293492679  4414.86050905499 244.552443924118  4423.14198345999 230.1485778274  L 4505.24850405585 277.932145565841  A 0.5 0.5 0 0 0 4505.97039117212 277.669505590457 L 4538.17601088511 188.296410788149  Z " fill-rule="nonzero" fill="#facd91" stroke="none" fill-opacity="0.996078431372549" />
    <path d="M 4538.17601090998 188.296410797256  C 4575.59242989384 202.000574964551  4600.5 237.617452320001  4600.5 277.5  C 4600.5 329.967051233925  4557.96705123393 372.5  4505.5 372.5  C 4453.03294876607 372.5  4410.5 329.967051233925  4410.5 277.5  C 4410.5 260.879293492679  4414.86050905499 244.552443924118  4423.14198345999 230.1485778274  L 4505.24850405585 277.932145565841  A 0.5 0.5 0 0 0 4505.97039117212 277.669505590457 L 4538.17601088511 188.296410788149  Z " stroke-width="1" stroke="#797979" fill="none" />
  </g>
</svg>