<?xml version="1.0" encoding="utf-8"?>
<svg version="1.1" xmlns:xlink="http://www.w3.org/1999/xlink" width="117px" height="91px" xmlns="http://www.w3.org/2000/svg">
  <g transform="matrix(1 0 0 1 -4423 -13 )">
    <path d="M 24.451171875 66.7958096590909  C 24.8646763392857 67.2051373106061  25.0714285714286 67.6898674242424  25.0714285714286 68.25  L 25.0714285714286 72.3863636363636  C 25.0714285714286 72.9464962121212  24.8646763392857 73.4312263257576  24.451171875 73.8405539772727  C 24.0376674107143 74.2498816287879  23.5479910714286 74.4545454545455  22.9821428571429 74.4545454545455  L 18.8035714285714 74.4545454545455  C 18.2377232142857 74.4545454545455  17.748046875 74.2498816287879  17.3345424107143 73.8405539772727  C 16.9210379464286 73.4312263257576  16.7142857142857 72.9464962121212  16.7142857142857 72.3863636363636  L 16.7142857142857 68.25  C 16.7142857142857 67.6898674242424  16.9210379464286 67.2051373106061  17.3345424107143 66.7958096590909  C 17.748046875 66.3864820075758  18.2377232142857 66.1818181818182  18.8035714285714 66.1818181818182  L 22.9821428571429 66.1818181818182  C 23.5479910714286 66.1818181818182  24.0376674107143 66.3864820075758  24.451171875 66.7958096590909  Z M 24.451171875 50.2503551136364  C 24.8646763392857 50.6596827651515  25.0714285714286 51.1444128787879  25.0714285714286 51.7045454545454  L 25.0714285714286 55.8409090909091  C 25.0714285714286 56.4010416666667  24.8646763392857 56.885771780303  24.451171875 57.2950994318182  C 24.0376674107143 57.7044270833333  23.5479910714286 57.9090909090909  22.9821428571429 57.9090909090909  L 18.8035714285714 57.9090909090909  C 18.2377232142857 57.9090909090909  17.748046875 57.7044270833333  17.3345424107143 57.2950994318182  C 16.9210379464286 56.885771780303  16.7142857142857 56.4010416666667  16.7142857142857 55.8409090909091  L 16.7142857142857 51.7045454545454  C 16.7142857142857 51.1444128787879  16.9210379464286 50.6596827651515  17.3345424107143 50.2503551136364  C 17.748046875 49.8410274621212  18.2377232142857 49.6363636363636  18.8035714285714 49.6363636363636  L 22.9821428571429 49.6363636363636  C 23.5479910714286 49.6363636363636  24.0376674107143 49.8410274621212  24.451171875 50.2503551136364  Z M 24.451171875 33.7049005681818  C 24.8646763392857 34.114228219697  25.0714285714286 34.5989583333333  25.0714285714286 35.1590909090909  L 25.0714285714286 39.2954545454545  C 25.0714285714286 39.8555871212121  24.8646763392857 40.3403172348485  24.451171875 40.7496448863636  C 24.0376674107143 41.1589725378788  23.5479910714286 41.3636363636364  22.9821428571429 41.3636363636364  L 18.8035714285714 41.3636363636364  C 18.2377232142857 41.3636363636364  17.748046875 41.1589725378788  17.3345424107143 40.7496448863636  C 16.9210379464286 40.3403172348485  16.7142857142857 39.8555871212121  16.7142857142857 39.2954545454545  L 16.7142857142857 35.1590909090909  C 16.7142857142857 34.5989583333333  16.9210379464286 34.114228219697  17.3345424107143 33.7049005681818  C 17.748046875 33.2955729166667  18.2377232142857 33.0909090909091  18.8035714285714 33.0909090909091  L 22.9821428571429 33.0909090909091  C 23.5479910714286 33.0909090909091  24.0376674107143 33.2955729166667  24.451171875 33.7049005681818  Z M 99.6654575892857 66.7958096590909  C 100.078962053571 67.2051373106061  100.285714285714 67.6898674242424  100.285714285714 68.25  L 100.285714285714 72.3863636363636  C 100.285714285714 72.9464962121212  100.078962053571 73.4312263257576  99.6654575892857 73.8405539772727  C 99.251953125 74.2498816287879  98.7622767857143 74.4545454545455  98.1964285714286 74  L 35.5178571428571 74  C 34.9520089285714 74.4545454545455  34.4623325892857 74.2498816287879  34.048828125 73.8405539772727  C 33.6353236607143 73.4312263257576  33.4285714285714 72.9464962121212  33.4285714285714 72.3863636363636  L 33.4285714285714 68.25  C 33.4285714285714 67.6898674242424  33.6353236607143 67.2051373106061  34.048828125 66.7958096590909  C 34.4623325892857 66.3864820075758  34.9520089285714 66.1818181818182  35.5178571428571 66  L 98.1964285714286 66  C 98.7622767857143 66.1818181818182  99.251953125 66.3864820075758  99.6654575892857 66.7958096590909  Z M 99.6654575892857 50.2503551136364  C 100.078962053571 50.6596827651515  100.285714285714 51.1444128787879  100.285714285714 51.7045454545454  L 100.285714285714 55.8409090909091  C 100.285714285714 56.4010416666667  100.078962053571 56.885771780303  99.6654575892857 57.2950994318182  C 99.251953125 57.7044270833333  98.7622767857143 57.9090909090909  98.1964285714286 58  L 35.5178571428571 58  C 34.9520089285714 57.9090909090909  34.4623325892857 57.7044270833333  34.048828125 57.2950994318182  C 33.6353236607143 56.885771780303  33.4285714285714 56.4010416666667  33.4285714285714 55.8409090909091  L 33.4285714285714 51.7045454545454  C 33.4285714285714 51.1444128787879  33.6353236607143 50.6596827651515  34.048828125 50.2503551136364  C 34.4623325892857 49.8410274621212  34.9520089285714 49.6363636363636  35.5178571428571 49  L 98.1964285714286 49  C 98.7622767857143 49.6363636363636  99.251953125 49.8410274621212  99.6654575892857 50.2503551136364  Z M 99.6654575892857 33.7049005681818  C 100.078962053571 34.114228219697  100.285714285714 34.5989583333333  100.285714285714 35.1590909090909  L 100.285714285714 39.2954545454545  C 100.285714285714 39.8555871212121  100.078962053571 40.3403172348485  99.6654575892857 40.7496448863636  C 99.251953125 41.1589725378788  98.7622767857143 41.3636363636364  98.1964285714286 42  L 35.5178571428571 42  C 34.9520089285714 41.3636363636364  34.4623325892857 41.1589725378788  34.048828125 40.7496448863636  C 33.6353236607143 40.3403172348485  33.4285714285714 39.8555871212121  33.4285714285714 39.2954545454545  L 33.4285714285714 35.1590909090909  C 33.4285714285714 34.5989583333333  33.6353236607143 34.114228219697  34.048828125 33.7049005681818  C 34.4623325892857 33.2955729166667  34.9520089285714 33.0909090909091  35.5178571428571 33  L 98.1964285714286 33  C 98.7622767857143 33.0909090909091  99.251953125 33.2955729166667  99.6654575892857 33.7049005681818  Z M 108.022600446429 82.11328125  C 108.436104910714 81.7039535984849  108.642857142857 81.2192234848485  108 80.6590909090909  L 108 26.8863636363636  C 108.642857142857 26.3262310606061  108.436104910714 25.8415009469697  108.022600446429 25.4321732954545  C 107.609095982143 25.0228456439394  107.119419642857 24.8181818181818  106.553571428571 25  L 10.4464285714286 25  C 9.88058035714286 24.8181818181818  9.39090401785714 25.0228456439394  8.97739955357143 25.4321732954545  C 8.56389508928572 25.8415009469697  8.35714285714286 26.3262310606061  9 26.8863636363636  L 9 80.6590909090909  C 8.35714285714286 81.2192234848485  8.56389508928572 81.7039535984849  8.97739955357143 82.11328125  C 9.39090401785714 82.5226089015151  9.88058035714286 82.7272727272727  10.4464285714286 82  L 106.553571428571 82  C 107.119419642857 82.7272727272727  107.609095982143 82.5226089015151  108.022600446429 82.11328125  Z M 113.931361607143 3.03764204545454  C 115.977120535714 5.06273674242424  117 7.49715909090909  117 10.3409090909091  L 117 80.6590909090909  C 117 83.5028409090909  115.977120535714 85.9372632575758  113.931361607143 87.9623579545455  C 111.885602678571 89.9874526515151  109.426339285714 91  106.553571428571 91  L 10.4464285714286 91  C 7.57366071428572 91  5.11439732142857 89.9874526515151  3.06863839285714 87.9623579545455  C 1.02287946428571 85.9372632575758  0 83.5028409090909  0 80.6590909090909  L 0 10.3409090909091  C 0 7.49715909090909  1.02287946428571 5.06273674242424  3.06863839285714 3.03764204545454  C 5.11439732142857 1.01254734848484  7.57366071428572 0  10.4464285714286 0  L 106.553571428571 0  C 109.426339285714 0  111.885602678571 1.01254734848484  113.931361607143 3.03764204545454  Z " fill-rule="nonzero" fill="#333333" stroke="none" transform="matrix(1 0 0 1 4423 13 )" />
  </g>
</svg>