<?xml version="1.0" encoding="utf-8"?>
<svg version="1.1" xmlns:xlink="http://www.w3.org/1999/xlink" width="60px" height="52px" xmlns="http://www.w3.org/2000/svg">
  <g transform="matrix(1 0 0 1 -2259 -608 )">
    <path d="M 38.5714285714286 40.7265625  C 38.8616071428571 40.7265625  39.1183035714286 40.6137152777778  39.3415178571429 40.3880208333333  L 44.2299107142857 35.4453125  C 44.453125 35.2196180555556  44.5647321428571 34.9600694444444  44.5647321428571 34.6666666666667  C 44.5647321428571 34.3732638888889  44.453125 34.1137152777778  44.2299107142857 33.8880208333333  L 36.4285714285714 26  L 44.2299107142857 18.1119791666667  C 44.453125 17.8862847222222  44.5647321428571 17.6267361111111  44.5647321428571 17.3333333333333  C 44.5647321428571 17.0399305555556  44.453125 16.7803819444444  44.2299107142857 16.5546875  L 39.3415178571429 11.6119791666667  C 39.1183035714286 11.3862847222222  38.8616071428571 11.2734375  38.5714285714286 11.2734375  C 38.28125 11.2734375  38.0245535714286 11.3862847222222  37.8013392857143 11.6119791666667  L 30 19.5  L 22.1986607142857 11.6119791666667  C 21.9754464285714 11.3862847222222  21.71875 11.2734375  21.4285714285714 11.2734375  C 21.1383928571429 11.2734375  20.8816964285714 11.3862847222222  20.6584821428571 11.6119791666667  L 15.7700892857143 16.5546875  C 15.546875 16.7803819444444  15.4352678571429 17.0399305555556  15.4352678571429 17.3333333333333  C 15.4352678571429 17.6267361111111  15.546875 17.8862847222222  15.7700892857143 18.1119791666667  L 23.5714285714286 26  L 15.7700892857143 33.8880208333333  C 15.546875 34.1137152777778  15.4352678571429 34.3732638888889  15.4352678571429 34.6666666666667  C 15.4352678571429 34.9600694444444  15.546875 35.2196180555556  15.7700892857143 35.4453125  L 20.6584821428571 40.3880208333333  C 20.8816964285714 40.6137152777778  21.1383928571429 40.7265625  21.4285714285714 40.7265625  C 21.71875 40.7265625  21.9754464285714 40.6137152777778  22.1986607142857 40.3880208333333  L 30 32.5  L 37.8013392857143 40.3880208333333  C 38.0245535714286 40.6137152777778  38.28125 40.7265625  38.5714285714286 40.7265625  Z M 58.4263392857143 1.59114583333334  C 59.4754464285714 2.65190972222222  60 3.92708333333334  60 5.41666666666666  L 60 46.5833333333333  C 60 48.0729166666667  59.4754464285714 49.3480902777778  58.4263392857143 50.4088541666667  C 57.3772321428572 51.4696180555556  56.1160714285714 52  54.6428571428571 52  L 5.35714285714286 52  C 3.88392857142857 52  2.62276785714286 51.4696180555556  1.57366071428571 50.4088541666667  C 0.524553571428571 49.3480902777778  0 48.0729166666667  0 46.5833333333333  L 0 5.41666666666666  C 0 3.92708333333334  0.524553571428571 2.65190972222222  1.57366071428571 1.59114583333334  C 2.62276785714286 0.530381944444439  3.88392857142857 0  5.35714285714286 0  L 54.6428571428571 0  C 56.1160714285714 0  57.3772321428572 0.530381944444439  58.4263392857143 1.59114583333334  Z " fill-rule="nonzero" fill="#000000" stroke="none" transform="matrix(1 0 0 1 2259 608 )" />
  </g>
</svg>