<?xml version="1.0" encoding="utf-8"?>
<svg version="1.1" xmlns:xlink="http://www.w3.org/1999/xlink" width="258px" height="243px" xmlns="http://www.w3.org/2000/svg">
  <g transform="matrix(1 0 0 1 -634 -210 )">
    <path d="M 807.027262479642 217.823614635724  C 857.717534994317 235.237817222943  891.5 280.635804140092  891.5 331.5  C 891.5 398.342509518765  833.951544527645 452.5  763 452.5  C 692.048455472355 452.5  634.5 398.342509518765  634.5 331.5  C 634.5 310.277313781911  640.431821102086 289.433070708882  651.68263699438 271.053249895889  L 762.759668694114 331.938452806367  A 0.5 0.5 0 0 0 763.466988335539 331.678666993231 L 807.027262386339 217.82361460367  Z " fill-rule="nonzero" fill="#facd91" stroke="none" fill-opacity="0.996078431372549" />
    <path d="M 807.027262479642 217.823614635724  C 857.717534994317 235.237817222943  891.5 280.635804140092  891.5 331.5  C 891.5 398.342509518765  833.951544527645 452.5  763 452.5  C 692.048455472355 452.5  634.5 398.342509518765  634.5 331.5  C 634.5 310.277313781911  640.431821102086 289.433070708882  651.68263699438 271.053249895889  L 762.759668694114 331.938452806367  A 0.5 0.5 0 0 0 763.466988335539 331.678666993231 L 807.027262386339 217.82361460367  Z " stroke-width="1" stroke="#797979" fill="none" />
  </g>
</svg>