<?xml version="1.0" encoding="utf-8"?>
<svg version="1.1" xmlns:xlink="http://www.w3.org/1999/xlink" width="258px" height="243px" xmlns="http://www.w3.org/2000/svg">
  <g transform="matrix(1 0 0 1 -634 -585 )">
    <path d="M 807.027262479641 592.823614635723  C 857.717534994317 610.237817222943  891.5 655.635804140092  891.5 706.5  C 891.5 773.342509518765  833.951544527645 827.5  763 827.5  C 692.048455472355 827.5  634.5 773.342509518765  634.5 706.5  C 634.5 685.277313781911  640.431821102086 664.433070708882  651.68263699438 646.053249895889  L 762.759668694114 706.938452806367  A 0.5 0.5 0 0 0 763.466988335539 706.678666993231 L 807.027262386339 592.82361460367  Z " fill-rule="nonzero" fill="#ffff80" stroke="none" fill-opacity="0.996078431372549" />
    <path d="M 807.027262479641 592.823614635723  C 857.717534994317 610.237817222943  891.5 655.635804140092  891.5 706.5  C 891.5 773.342509518765  833.951544527645 827.5  763 827.5  C 692.048455472355 827.5  634.5 773.342509518765  634.5 706.5  C 634.5 685.277313781911  640.431821102086 664.433070708882  651.68263699438 646.053249895889  L 762.759668694114 706.938452806367  A 0.5 0.5 0 0 0 763.466988335539 706.678666993231 L 807.027262386339 592.82361460367  Z " stroke-width="1" stroke="#797979" fill="none" />
  </g>
</svg>