<?xml version="1.0" encoding="utf-8"?>
<svg version="1.1" xmlns:xlink="http://www.w3.org/1999/xlink" width="258px" height="243px" xmlns="http://www.w3.org/2000/svg">
  <g transform="matrix(1 0 0 1 -634 -210 )">
    <path d="M 699.20165743454 226.465835787987  C 718.625056457839 216.000021828959  740.618265850604 210.5  763 210.5  C 833.951544527645 210.5  891.5 264.657490481235  891.5 331.5  C 891.5 398.342509518765  833.951544527645 452.5  763 452.5  C 692.048455472355 452.5  634.5 398.342509518765  634.5 331.5  C 634.5 310.419290478852  640.352777558916 289.70942639087  651.46124108962 271.4162193979  L 762.761139876904 331.939256009173  A 0.5 0.5 0 0 0 763.426284301492 331.238692337843 L 699.201657434541 226.465835787987  Z " fill-rule="nonzero" fill="#ec808d" stroke="none" fill-opacity="0.698039215686274" />
    <path d="M 699.20165743454 226.465835787987  C 718.625056457839 216.000021828959  740.618265850604 210.5  763 210.5  C 833.951544527645 210.5  891.5 264.657490481235  891.5 331.5  C 891.5 398.342509518765  833.951544527645 452.5  763 452.5  C 692.048455472355 452.5  634.5 398.342509518765  634.5 331.5  C 634.5 310.419290478852  640.352777558916 289.70942639087  651.46124108962 271.4162193979  L 762.761139876904 331.939256009173  A 0.5 0.5 0 0 0 763.426284301492 331.238692337843 L 699.201657434541 226.465835787987  Z " stroke-width="1" stroke="#797979" fill="none" />
  </g>
</svg>