<?xml version="1.0" encoding="utf-8"?>
<svg version="1.1" xmlns:xlink="http://www.w3.org/1999/xlink" width="258px" height="243px" xmlns="http://www.w3.org/2000/svg">
  <g transform="matrix(1 0 0 1 -634 -585 )">
    <path d="M 699.20165743454 601.465835787987  C 718.625056457839 591.000021828959  740.618265850604 585.5  763 585.5  C 833.951544527645 585.5  891.5 639.657490481235  891.5 706.5  C 891.5 773.342509518765  833.951544527645 827.5  763 827.5  C 692.048455472355 827.5  634.5 773.342509518765  634.5 706.5  C 634.5 685.419290478852  640.352777558915 664.70942639087  651.46124108962 646.4162193979  L 762.761139876904 706.939256009173  A 0.5 0.5 0 0 0 763.426284301492 706.238692337843 L 699.201657434541 601.465835787987  Z " fill-rule="nonzero" fill="#95f204" stroke="none" fill-opacity="0.698039215686274" />
    <path d="M 699.20165743454 601.465835787987  C 718.625056457839 591.000021828959  740.618265850604 585.5  763 585.5  C 833.951544527645 585.5  891.5 639.657490481235  891.5 706.5  C 891.5 773.342509518765  833.951544527645 827.5  763 827.5  C 692.048455472355 827.5  634.5 773.342509518765  634.5 706.5  C 634.5 685.419290478852  640.352777558915 664.70942639087  651.46124108962 646.4162193979  L 762.761139876904 706.939256009173  A 0.5 0.5 0 0 0 763.426284301492 706.238692337843 L 699.201657434541 601.465835787987  Z " stroke-width="1" stroke="#797979" fill="none" />
  </g>
</svg>