<?xml version="1.0" encoding="utf-8"?>
<svg version="1.1" xmlns:xlink="http://www.w3.org/1999/xlink" width="271px" height="240px" xmlns="http://www.w3.org/2000/svg">
  <g transform="matrix(1 0 0 1 -3712 -219 )">
    <path d="M 3780.47120788829 235.267678881439  C 3800.87728704325 224.926239815826  3823.98618728514 219.5  3847.5 219.5  C 3922.02277283706 219.5  3982.5 272.970384153071  3982.5 339  C 3982.5 405.029615846929  3922.02277283706 458.5  3847.5 458.5  C 3772.97722716294 458.5  3712.5 405.029615846929  3712.5 339  C 3712.5 318.175478516328  3718.65502330277 297.719264555134  3730.32512989471 279.649293908043  L 3847.27237550174 339.445182083861  A 0.5 0.5 0 0 0 3847.91885305779 338.726939354766 L 3780.47120788829 235.267678881439  Z " fill-rule="nonzero" fill="#ec808d" stroke="none" fill-opacity="0.698039215686274" />
    <path d="M 3780.47120788829 235.267678881439  C 3800.87728704325 224.926239815826  3823.98618728514 219.5  3847.5 219.5  C 3922.02277283706 219.5  3982.5 272.970384153071  3982.5 339  C 3982.5 405.029615846929  3922.02277283706 458.5  3847.5 458.5  C 3772.97722716294 458.5  3712.5 405.029615846929  3712.5 339  C 3712.5 318.175478516328  3718.65502330277 297.719264555134  3730.32512989471 279.649293908043  L 3847.27237550174 339.445182083861  A 0.5 0.5 0 0 0 3847.91885305779 338.726939354766 L 3780.47120788829 235.267678881439  Z " stroke-width="1" stroke="#797979" fill="none" />
  </g>
</svg>