<?xml version="1.0" encoding="utf-8"?>
<svg version="1.1" xmlns:xlink="http://www.w3.org/1999/xlink" width="301px" height="296px" xmlns="http://www.w3.org/2000/svg">
  <g transform="matrix(1 0 0 1 -5229 -975 )">
    <path d="M 5304.93842027414 995.013244450166  C 5327.63398503685 982.227046414446  5353.33837459179 975.5  5379.5 975.5  C 5462.33804790748 975.5  5529.5 1041.53341231732  5529.5 1123  C 5529.5 1204.46658768268  5462.33804790748 1270.5  5379.5 1270.5  C 5296.66195209252 1270.5  5229.5 1204.46658768268  5229.5 1123  C 5229.5 1097.27288429149  5236.34430736743 1071.99681310515  5249.34554970484 1049.678511664  L 5379.25313404578 1123.43480708441  A 0.5 0.5 0 0 0 5379.93118035339 1122.74685280398 L 5304.93842027414 995.013244450168  Z " fill-rule="nonzero" fill="#ec808d" stroke="none" fill-opacity="0.698039215686274" />
    <path d="M 5304.93842027414 995.013244450166  C 5327.63398503685 982.227046414446  5353.33837459179 975.5  5379.5 975.5  C 5462.33804790748 975.5  5529.5 1041.53341231732  5529.5 1123  C 5529.5 1204.46658768268  5462.33804790748 1270.5  5379.5 1270.5  C 5296.66195209252 1270.5  5229.5 1204.46658768268  5229.5 1123  C 5229.5 1097.27288429149  5236.34430736743 1071.99681310515  5249.34554970484 1049.678511664  L 5379.25313404578 1123.43480708441  A 0.5 0.5 0 0 0 5379.93118035339 1122.74685280398 L 5304.93842027414 995.013244450168  Z " stroke-width="1" stroke="#797979" fill="none" />
  </g>
</svg>