<?xml version="1.0" encoding="utf-8"?>
<svg version="1.1" xmlns:xlink="http://www.w3.org/1999/xlink" width="301px" height="296px" xmlns="http://www.w3.org/2000/svg">
  <g transform="matrix(1 0 0 1 -5229 -975 )">
    <path d="M 5430.82018030318 984.401469555501  C 5490.04651894625 1005.60742401949  5529.5 1060.9789808215  5529.5 1123  C 5529.5 1204.46658768268  5462.33804790748 1270.5  5379.5 1270.5  C 5296.66195209252 1270.5  5229.5 1204.46658768268  5229.5 1123  C 5229.5 1097.0998718278  5236.43661427641 1071.66002284584  5249.6042047574 1049.2363192244  L 5379.25164447563 1123.43395798589  A 0.5 0.5 0 0 0 5379.96947295572 1123.17203239185 L 5430.82018023599 984.401469531444  Z " fill-rule="nonzero" fill="#facd91" stroke="none" fill-opacity="0.996078431372549" />
    <path d="M 5430.82018030318 984.401469555501  C 5490.04651894625 1005.60742401949  5529.5 1060.9789808215  5529.5 1123  C 5529.5 1204.46658768268  5462.33804790748 1270.5  5379.5 1270.5  C 5296.66195209252 1270.5  5229.5 1204.46658768268  5229.5 1123  C 5229.5 1097.0998718278  5236.43661427641 1071.66002284584  5249.6042047574 1049.2363192244  L 5379.25164447563 1123.43395798589  A 0.5 0.5 0 0 0 5379.96947295572 1123.17203239185 L 5430.82018023599 984.401469531444  Z " stroke-width="1" stroke="#797979" fill="none" />
  </g>
</svg>