<?xml version="1.0" encoding="utf-8"?>
<svg version="1.1" xmlns:xlink="http://www.w3.org/1999/xlink" width="271px" height="240px" xmlns="http://www.w3.org/2000/svg">
  <g transform="matrix(1 0 0 1 -3712 -219 )">
    <path d="M 3893.72501639586 226.722506089137  C 3946.9797631442 243.916623736189  3982.5 288.748123607904  3982.5 339  C 3982.5 405.029615846929  3922.02277283706 458.5  3847.5 458.5  C 3772.97722716294 458.5  3712.5 405.029615846929  3712.5 339  C 3712.5 318.035201360538  3718.73815662077 297.44625508051  3730.55783323638 279.290723104701  L 3847.27093507507 339.444442639908  A 0.5 0.5 0 0 0 3847.96312896957 339.188445104849 L 3893.72501620541 226.722506027648  Z " fill-rule="nonzero" fill="#facd91" stroke="none" fill-opacity="0.996078431372549" />
    <path d="M 3893.72501639586 226.722506089137  C 3946.9797631442 243.916623736189  3982.5 288.748123607904  3982.5 339  C 3982.5 405.029615846929  3922.02277283706 458.5  3847.5 458.5  C 3772.97722716294 458.5  3712.5 405.029615846929  3712.5 339  C 3712.5 318.035201360538  3718.73815662077 297.44625508051  3730.55783323638 279.290723104701  L 3847.27093507507 339.444442639908  A 0.5 0.5 0 0 0 3847.96312896957 339.188445104849 L 3893.72501620541 226.722506027648  Z " stroke-width="1" stroke="#797979" fill="none" />
  </g>
</svg>