<?xml version="1.0" encoding="utf-8"?>
<svg version="1.1" xmlns:xlink="http://www.w3.org/1999/xlink" width="241px" height="101px" xmlns="http://www.w3.org/2000/svg">
  <defs>
    <mask fill="white" id="clip1768">
      <path d="M 11 0.67333333333364  L 240.357333333333 0.67333333333364  L 240.357333333333 100.326666666666  L 11 100.326666666666  L 11 61.2733333333336  L 1.28533333333349 53.1933333333336  L 11 38.38  L 11 0.67333333333364  Z " fill-rule="evenodd" />
    </mask>
  </defs>
  <g transform="matrix(1 0 0 1 -4259 -609 )">
    <path d="M 11 0.67333333333364  L 240.357333333333 0.67333333333364  L 240.357333333333 100.326666666666  L 11 100.326666666666  L 11 61.2733333333336  L 1.28533333333349 53.1933333333336  L 11 38.38  L 11 0.67333333333364  Z " fill-rule="nonzero" fill="#aaaaaa" stroke="none" fill-opacity="0.698039215686274" transform="matrix(1 0 0 1 4259 609 )" />
    <path d="M 11 0.67333333333364  L 240.357333333333 0.67333333333364  L 240.357333333333 100.326666666666  L 11 100.326666666666  L 11 61.2733333333336  L 1.28533333333349 53.1933333333336  L 11 38.38  L 11 0.67333333333364  Z " stroke-width="2" stroke="#ffffff" fill="none" transform="matrix(1 0 0 1 4259 609 )" mask="url(#clip1768)" />
  </g>
</svg>