<?xml version="1.0" encoding="utf-8"?>
<svg version="1.1" xmlns:xlink="http://www.w3.org/1999/xlink" width="28px" height="50px" xmlns="http://www.w3.org/2000/svg">
  <g transform="matrix(1 0 0 1 -1895 -408 )">
    <path d="M 0.923611111111112 0.927734375  C 0.307870370370367 1.54622395833333  0 2.27864583333333  0 3.125  L 0 46.875  C 0 47.7213541666667  0.307870370370367 48.4537760416667  0.923611111111112 49.072265625  C 1.53935185185185 49.6907552083333  2.26851851851852 50  3.11111111111111 50  C 3.9537037037037 50  4.68287037037037 49.6907552083333  5.29861111111111 49.072265625  L 27.0763888888889 27.197265625  C 27.6921296296296 26.5787760416667  28 25.8463541666667  28 25  C 28 24.1536458333333  27.6921296296296 23.4212239583333  27.0763888888889 22.802734375  L 5.29861111111111 0.927734375  C 4.68287037037037 0.309244791666663  3.9537037037037 0  3.11111111111111 0  C 2.26851851851852 0  1.53935185185185 0.309244791666663  0.923611111111112 0.927734375  Z " fill-rule="nonzero" fill="#333333" stroke="none" transform="matrix(1 0 0 1 1895 408 )" />
  </g>
</svg>