<?xml version="1.0" encoding="utf-8"?>
<svg version="1.1" xmlns:xlink="http://www.w3.org/1999/xlink" width="51px" height="51px" xmlns="http://www.w3.org/2000/svg">
  <defs>
    <mask fill="white" id="clip1243">
      <path d="M 49.7979797979798 38.1212121212121  C 50.5993265993266 38.9225589225589  51 39.8956228956229  51 41.040404040404  C 51 42.1851851851852  50.5993265993266 43.1582491582492  49.7979797979798 43.959595959596  L 43.959595959596 49.7979797979798  C 43.1582491582492 50.5993265993266  42.1851851851852 51  41.040404040404 51  C 39.8956228956229 51  38.9225589225589 50.5993265993266  38.1212121212121 49.7979797979798  L 25.5 37.1767676767677  L 12.8787878787879 49.7979797979798  C 12.0774410774411 50.5993265993266  11.1043771043771 51  9.95959595959596 51  C 8.81481481481481 51  7.84175084175084 50.5993265993266  7.04040404040404 49.7979797979798  L 1.2020202020202 43.959595959596  C 0.400673400673401 43.1582491582492  0 42.1851851851852  0 41.040404040404  C 0 39.8956228956229  0.400673400673401 38.9225589225589  1.2020202020202 38.1212121212121  L 13.8232323232323 25.5  L 1.2020202020202 12.8787878787879  C 0.400673400673401 12.0774410774411  0 11.1043771043771  0 9.95959595959596  C 0 8.81481481481481  0.400673400673401 7.84175084175083  1.2020202020202 7.04040404040404  L 7.04040404040404 1.2020202020202  C 7.84175084175084 0.400673400673399  8.81481481481481 0  9.95959595959596 0  C 11.1043771043771 0  12.0774410774411 0.400673400673399  12.8787878787879 1.2020202020202  L 25.5 13.8232323232323  L 38.1212121212121 1.2020202020202  C 38.9225589225589 0.400673400673399  39.8956228956229 0  41.040404040404 0  C 42.1851851851852 0  43.1582491582492 0.400673400673399  43.959595959596 1.2020202020202  L 49.7979797979798 7.04040404040404  C 50.5993265993266 7.84175084175083  51 8.81481481481481  51 9.95959595959596  C 51 11.1043771043771  50.5993265993266 12.0774410774411  49.7979797979798 12.8787878787879  L 37.1767676767677 25.5  L 49.7979797979798 38.1212121212121  Z " fill-rule="evenodd" />
    </mask>
  </defs>
  <g transform="matrix(1 0 0 1 -1804 -127 )">
    <path d="M 49.7979797979798 38.1212121212121  C 50.5993265993266 38.9225589225589  51 39.8956228956229  51 41.040404040404  C 51 42.1851851851852  50.5993265993266 43.1582491582492  49.7979797979798 43.959595959596  L 43.959595959596 49.7979797979798  C 43.1582491582492 50.5993265993266  42.1851851851852 51  41.040404040404 51  C 39.8956228956229 51  38.9225589225589 50.5993265993266  38.1212121212121 49.7979797979798  L 25.5 37.1767676767677  L 12.8787878787879 49.7979797979798  C 12.0774410774411 50.5993265993266  11.1043771043771 51  9.95959595959596 51  C 8.81481481481481 51  7.84175084175084 50.5993265993266  7.04040404040404 49.7979797979798  L 1.2020202020202 43.959595959596  C 0.400673400673401 43.1582491582492  0 42.1851851851852  0 41.040404040404  C 0 39.8956228956229  0.400673400673401 38.9225589225589  1.2020202020202 38.1212121212121  L 13.8232323232323 25.5  L 1.2020202020202 12.8787878787879  C 0.400673400673401 12.0774410774411  0 11.1043771043771  0 9.95959595959596  C 0 8.81481481481481  0.400673400673401 7.84175084175083  1.2020202020202 7.04040404040404  L 7.04040404040404 1.2020202020202  C 7.84175084175084 0.400673400673399  8.81481481481481 0  9.95959595959596 0  C 11.1043771043771 0  12.0774410774411 0.400673400673399  12.8787878787879 1.2020202020202  L 25.5 13.8232323232323  L 38.1212121212121 1.2020202020202  C 38.9225589225589 0.400673400673399  39.8956228956229 0  41.040404040404 0  C 42.1851851851852 0  43.1582491582492 0.400673400673399  43.959595959596 1.2020202020202  L 49.7979797979798 7.04040404040404  C 50.5993265993266 7.84175084175083  51 8.81481481481481  51 9.95959595959596  C 51 11.1043771043771  50.5993265993266 12.0774410774411  49.7979797979798 12.8787878787879  L 37.1767676767677 25.5  L 49.7979797979798 38.1212121212121  Z " fill-rule="nonzero" fill="#000000" stroke="none" transform="matrix(1 0 0 1 1804 127 )" />
    <path d="M 49.7979797979798 38.1212121212121  C 50.5993265993266 38.9225589225589  51 39.8956228956229  51 41.040404040404  C 51 42.1851851851852  50.5993265993266 43.1582491582492  49.7979797979798 43.959595959596  L 43.959595959596 49.7979797979798  C 43.1582491582492 50.5993265993266  42.1851851851852 51  41.040404040404 51  C 39.8956228956229 51  38.9225589225589 50.5993265993266  38.1212121212121 49.7979797979798  L 25.5 37.1767676767677  L 12.8787878787879 49.7979797979798  C 12.0774410774411 50.5993265993266  11.1043771043771 51  9.95959595959596 51  C 8.81481481481481 51  7.84175084175084 50.5993265993266  7.04040404040404 49.7979797979798  L 1.2020202020202 43.959595959596  C 0.400673400673401 43.1582491582492  0 42.1851851851852  0 41.040404040404  C 0 39.8956228956229  0.400673400673401 38.9225589225589  1.2020202020202 38.1212121212121  L 13.8232323232323 25.5  L 1.2020202020202 12.8787878787879  C 0.400673400673401 12.0774410774411  0 11.1043771043771  0 9.95959595959596  C 0 8.81481481481481  0.400673400673401 7.84175084175083  1.2020202020202 7.04040404040404  L 7.04040404040404 1.2020202020202  C 7.84175084175084 0.400673400673399  8.81481481481481 0  9.95959595959596 0  C 11.1043771043771 0  12.0774410774411 0.400673400673399  12.8787878787879 1.2020202020202  L 25.5 13.8232323232323  L 38.1212121212121 1.2020202020202  C 38.9225589225589 0.400673400673399  39.8956228956229 0  41.040404040404 0  C 42.1851851851852 0  43.1582491582492 0.400673400673399  43.959595959596 1.2020202020202  L 49.7979797979798 7.04040404040404  C 50.5993265993266 7.84175084175083  51 8.81481481481481  51 9.95959595959596  C 51 11.1043771043771  50.5993265993266 12.0774410774411  49.7979797979798 12.8787878787879  L 37.1767676767677 25.5  L 49.7979797979798 38.1212121212121  Z " stroke-width="10" stroke="#d7d7d7" fill="none" transform="matrix(1 0 0 1 1804 127 )" mask="url(#clip1243)" />
  </g>
</svg>