<?xml version="1.0" encoding="utf-8"?>
<svg version="1.1" xmlns:xlink="http://www.w3.org/1999/xlink" width="64px" height="64px" xmlns="http://www.w3.org/2000/svg">
  <defs>
    <mask fill="white" id="clip1245">
      <path d="M 62.4915824915825 47.8383838383838  C 63.4971941638608 48.8439955106622  64 50.0650953984287  64 51.5016835016835  C 64 52.9382716049383  63.4971941638608 54.1593714927048  62.4915824915825 55.1649831649832  L 55.1649831649832 62.4915824915825  C 54.1593714927048 63.4971941638608  52.9382716049383 64  51.5016835016835 64  C 50.0650953984287 64  48.8439955106622 63.4971941638608  47.8383838383838 62.4915824915825  L 32 46.6531986531987  L 16.1616161616162 62.4915824915825  C 15.1560044893378 63.4971941638608  13.9349046015713 64  12.4983164983165 64  C 11.0617283950617 64  9.84062850729518 63.4971941638608  8.83501683501684 62.4915824915825  L 1.50841750841751 55.1649831649832  C 0.50280583613917 54.1593714927048  0 52.9382716049383  0 51.5016835016835  C 0 50.0650953984287  0.50280583613917 48.8439955106622  1.50841750841751 47.8383838383838  L 17.3468013468013 32  L 1.50841750841751 16.1616161616162  C 0.50280583613917 15.1560044893378  0 13.9349046015713  0 12.4983164983165  C 0 11.0617283950617  0.50280583613917 9.84062850729516  1.50841750841751 8.83501683501684  L 8.83501683501684 1.50841750841751  C 9.84062850729518 0.502805836139167  11.0617283950617 0  12.4983164983165 0  C 13.9349046015713 0  15.1560044893378 0.502805836139167  16.1616161616162 1.50841750841751  L 32 17.3468013468014  L 47.8383838383838 1.50841750841751  C 48.8439955106622 0.502805836139167  50.0650953984287 0  51.5016835016835 0  C 52.9382716049383 0  54.1593714927048 0.502805836139167  55.1649831649832 1.50841750841751  L 62.4915824915825 8.83501683501684  C 63.4971941638608 9.84062850729516  64 11.0617283950617  64 12.4983164983165  C 64 13.9349046015713  63.4971941638608 15.1560044893378  62.4915824915825 16.1616161616162  L 46.6531986531987 32  L 62.4915824915825 47.8383838383838  Z " fill-rule="evenodd" />
    </mask>
  </defs>
  <g transform="matrix(1 0 0 1 -2496 1682 )">
    <path d="M 62.4915824915825 47.8383838383838  C 63.4971941638608 48.8439955106622  64 50.0650953984287  64 51.5016835016835  C 64 52.9382716049383  63.4971941638608 54.1593714927048  62.4915824915825 55.1649831649832  L 55.1649831649832 62.4915824915825  C 54.1593714927048 63.4971941638608  52.9382716049383 64  51.5016835016835 64  C 50.0650953984287 64  48.8439955106622 63.4971941638608  47.8383838383838 62.4915824915825  L 32 46.6531986531987  L 16.1616161616162 62.4915824915825  C 15.1560044893378 63.4971941638608  13.9349046015713 64  12.4983164983165 64  C 11.0617283950617 64  9.84062850729518 63.4971941638608  8.83501683501684 62.4915824915825  L 1.50841750841751 55.1649831649832  C 0.50280583613917 54.1593714927048  0 52.9382716049383  0 51.5016835016835  C 0 50.0650953984287  0.50280583613917 48.8439955106622  1.50841750841751 47.8383838383838  L 17.3468013468013 32  L 1.50841750841751 16.1616161616162  C 0.50280583613917 15.1560044893378  0 13.9349046015713  0 12.4983164983165  C 0 11.0617283950617  0.50280583613917 9.84062850729516  1.50841750841751 8.83501683501684  L 8.83501683501684 1.50841750841751  C 9.84062850729518 0.502805836139167  11.0617283950617 0  12.4983164983165 0  C 13.9349046015713 0  15.1560044893378 0.502805836139167  16.1616161616162 1.50841750841751  L 32 17.3468013468014  L 47.8383838383838 1.50841750841751  C 48.8439955106622 0.502805836139167  50.0650953984287 0  51.5016835016835 0  C 52.9382716049383 0  54.1593714927048 0.502805836139167  55.1649831649832 1.50841750841751  L 62.4915824915825 8.83501683501684  C 63.4971941638608 9.84062850729516  64 11.0617283950617  64 12.4983164983165  C 64 13.9349046015713  63.4971941638608 15.1560044893378  62.4915824915825 16.1616161616162  L 46.6531986531987 32  L 62.4915824915825 47.8383838383838  Z " fill-rule="nonzero" fill="#000000" stroke="none" transform="matrix(1 0 0 1 2496 -1682 )" />
    <path d="M 62.4915824915825 47.8383838383838  C 63.4971941638608 48.8439955106622  64 50.0650953984287  64 51.5016835016835  C 64 52.9382716049383  63.4971941638608 54.1593714927048  62.4915824915825 55.1649831649832  L 55.1649831649832 62.4915824915825  C 54.1593714927048 63.4971941638608  52.9382716049383 64  51.5016835016835 64  C 50.0650953984287 64  48.8439955106622 63.4971941638608  47.8383838383838 62.4915824915825  L 32 46.6531986531987  L 16.1616161616162 62.4915824915825  C 15.1560044893378 63.4971941638608  13.9349046015713 64  12.4983164983165 64  C 11.0617283950617 64  9.84062850729518 63.4971941638608  8.83501683501684 62.4915824915825  L 1.50841750841751 55.1649831649832  C 0.50280583613917 54.1593714927048  0 52.9382716049383  0 51.5016835016835  C 0 50.0650953984287  0.50280583613917 48.8439955106622  1.50841750841751 47.8383838383838  L 17.3468013468013 32  L 1.50841750841751 16.1616161616162  C 0.50280583613917 15.1560044893378  0 13.9349046015713  0 12.4983164983165  C 0 11.0617283950617  0.50280583613917 9.84062850729516  1.50841750841751 8.83501683501684  L 8.83501683501684 1.50841750841751  C 9.84062850729518 0.502805836139167  11.0617283950617 0  12.4983164983165 0  C 13.9349046015713 0  15.1560044893378 0.502805836139167  16.1616161616162 1.50841750841751  L 32 17.3468013468014  L 47.8383838383838 1.50841750841751  C 48.8439955106622 0.502805836139167  50.0650953984287 0  51.5016835016835 0  C 52.9382716049383 0  54.1593714927048 0.502805836139167  55.1649831649832 1.50841750841751  L 62.4915824915825 8.83501683501684  C 63.4971941638608 9.84062850729516  64 11.0617283950617  64 12.4983164983165  C 64 13.9349046015713  63.4971941638608 15.1560044893378  62.4915824915825 16.1616161616162  L 46.6531986531987 32  L 62.4915824915825 47.8383838383838  Z " stroke-width="10" stroke="#f2f2f2" fill="none" transform="matrix(1 0 0 1 2496 -1682 )" mask="url(#clip1245)" />
  </g>
</svg>