<?xml version="1.0" encoding="utf-8"?>
<svg version="1.1" xmlns:xlink="http://www.w3.org/1999/xlink" width="9px" height="5px" xmlns="http://www.w3.org/2000/svg">
  <g transform="matrix(1 0 0 1 -50 -210 )">
    <path d="M 54.5 210  C 57.02 210  59 211.1  59 212.5  C 59 213.9  57.02 215  54.5 215  C 51.98 215  50 213.9  50 212.5  C 50 211.1  51.98 210  54.5 210  Z " fill-rule="nonzero" fill="#ffffff" stroke="none" />
    <path d="M 54.5 210.5  C 56.74 210.5  58.5 211.38  58.5 212.5  C 58.5 213.62  56.74 214.5  54.5 214.5  C 52.26 214.5  50.5 213.62  50.5 212.5  C 50.5 211.38  52.26 210.5  54.5 210.5  Z " stroke-width="1" stroke="#c280ff" fill="none" />
  </g>
</svg>