<?xml version="1.0" encoding="utf-8"?>
<svg version="1.1" xmlns:xlink="http://www.w3.org/1999/xlink" width="8px" height="5px" xmlns="http://www.w3.org/2000/svg">
  <g transform="matrix(1 0 0 1 -78 -218 )">
    <path d="M 82 218  C 84.24 218  86 219.1  86 220.5  C 86 221.9  84.24 223  82 223  C 79.76 223  78 221.9  78 220.5  C 78 219.1  79.76 218  82 218  Z " fill-rule="nonzero" fill="#ffffff" stroke="none" />
    <path d="M 82 218.5  C 83.96 218.5  85.5 219.38  85.5 220.5  C 85.5 221.62  83.96 222.5  82 222.5  C 80.04 222.5  78.5 221.62  78.5 220.5  C 78.5 219.38  80.04 218.5  82 218.5  Z " stroke-width="1" stroke="#ff0000" fill="none" />
  </g>
</svg>