<?xml version="1.0" encoding="utf-8"?>
<svg version="1.1" xmlns:xlink="http://www.w3.org/1999/xlink" width="9px" height="5px" xmlns="http://www.w3.org/2000/svg">
  <g transform="matrix(1 0 0 1 -26 -266 )">
    <path d="M 30.5 266  C 33.02 266  35 267.1  35 268.5  C 35 269.9  33.02 271  30.5 271  C 27.98 271  26 269.9  26 268.5  C 26 267.1  27.98 266  30.5 266  Z " fill-rule="nonzero" fill="#ffffff" stroke="none" />
    <path d="M 30.5 266.5  C 32.74 266.5  34.5 267.38  34.5 268.5  C 34.5 269.62  32.74 270.5  30.5 270.5  C 28.26 270.5  26.5 269.62  26.5 268.5  C 26.5 267.38  28.26 266.5  30.5 266.5  Z " stroke-width="1" stroke="#f59a23" fill="none" />
  </g>
</svg>