<?xml version="1.0" encoding="utf-8"?>
<svg version="1.1" xmlns:xlink="http://www.w3.org/1999/xlink" width="8px" height="5px" xmlns="http://www.w3.org/2000/svg">
  <g transform="matrix(1 0 0 1 -79 -268 )">
    <path d="M 83 268  C 85.24 268  87 269.1  87 270.5  C 87 271.9  85.24 273  83 273  C 80.76 273  79 271.9  79 270.5  C 79 269.1  80.76 268  83 268  Z " fill-rule="nonzero" fill="#ffffff" stroke="none" />
    <path d="M 83 268.5  C 84.96 268.5  86.5 269.38  86.5 270.5  C 86.5 271.62  84.96 272.5  83 272.5  C 81.04 272.5  79.5 271.62  79.5 270.5  C 79.5 269.38  81.04 268.5  83 268.5  Z " stroke-width="1" stroke="#70b603" fill="none" />
  </g>
</svg>