<?xml version="1.0" encoding="utf-8"?>
<svg version="1.1" xmlns:xlink="http://www.w3.org/1999/xlink" width="49px" height="22px" xmlns="http://www.w3.org/2000/svg">
  <g transform="matrix(1 0 0 1 -1243 -109 )">
    <path d="M 1267.5 111  C 1280.1 111  1290 114.96  1290 120  C 1290 125.04  1280.1 129  1267.5 129  C 1254.9 129  1245 125.04  1245 120  C 1245 114.96  1254.9 111  1267.5 111  Z " fill-rule="nonzero" fill="#00ffff" stroke="none" fill-opacity="0.6" />
    <path d="M 1267.5 110.5  C 1280.38 110.5  1290.5 114.68  1290.5 120  C 1290.5 125.32  1280.38 129.5  1267.5 129.5  C 1254.62 129.5  1244.5 125.32  1244.5 120  C 1244.5 114.68  1254.62 110.5  1267.5 110.5  Z " stroke-width="3" stroke="#ffff00" fill="none" />
  </g>
</svg>