<?xml version="1.0" encoding="utf-8"?>
<svg version="1.1" xmlns:xlink="http://www.w3.org/1999/xlink" width="50px" height="47px" xmlns="http://www.w3.org/2000/svg">
  <defs>
    <mask fill="white" id="clip1233">
      <path d="M 48.8125802310655 21.9673913043478  C 49.6041934103552 22.7975543478261  50 23.7660778985507  50 24.8729619565217  C 50 25.9585597826087  49.6041934103552 26.9164402173913  48.8125802310655 27.7466032608696  L 46.405648267009 30.1413043478261  C 45.5926401369277 30.9501811594203  44.6191698759093 31.3546195652174  43.4852374839538 31.3546195652174  C 42.3299101412067 31.3546195652174  41.3671373555841 30.9501811594203  40.596919127086 30.1413043478261  L 31 20.7860054347826  L 31 43.2642663043478  C 31.1617458279846 44.3711503623188  30.7605905006419 45.2704936594203  29.9582798459564 45.9622961956522  C 29.1559691912709 46.6540987318841  28.1878476679504 47  27.0539152759949 47  L 22.9460847240051 47  C 21.8121523320496 47  20.8440308087291 46.6540987318841  20.0417201540436 45.9622961956522  C 19.2394094993582 45.2704936594203  18.8382541720154 44.3711503623188  19 43.2642663043478  L 19 20.7860054347826  L 9.40308087291399 30.1413043478261  C 8.63286264441592 30.9501811594203  7.67008985879332 31.3546195652174  6.51476251604621 31.3546195652174  C 5.3594351732991 31.3546195652174  4.39666238767651 30.9501811594203  3.62644415917843 30.1413043478261  L 1.21951219512195 27.7466032608696  C 0.406504065040651 26.9377264492754  0 25.9798460144928  0 24.8729619565217  C 0 23.7447916666667  0.406504065040651 22.776268115942  1.21951219512195 21.9673913043478  L 22.1116816431322 1.18138586956522  C 22.8605049208387 0.393795289855071  23.8232777064613 0  25 0  C 26.1553273427471 0  27.1287976037655 0.393795289855071  27.9204107830552 1.18138586956522  L 48.8125802310655 21.9673913043478  Z " fill-rule="evenodd" />
    </mask>
  </defs>
  <g transform="matrix(1 0 0 1 -1145 -252 )">
    <path d="M 48.8125802310655 21.9673913043478  C 49.6041934103552 22.7975543478261  50 23.7660778985507  50 24.8729619565217  C 50 25.9585597826087  49.6041934103552 26.9164402173913  48.8125802310655 27.7466032608696  L 46.405648267009 30.1413043478261  C 45.5926401369277 30.9501811594203  44.6191698759093 31.3546195652174  43.4852374839538 31.3546195652174  C 42.3299101412067 31.3546195652174  41.3671373555841 30.9501811594203  40.596919127086 30.1413043478261  L 31 20.7860054347826  L 31 43.2642663043478  C 31.1617458279846 44.3711503623188  30.7605905006419 45.2704936594203  29.9582798459564 45.9622961956522  C 29.1559691912709 46.6540987318841  28.1878476679504 47  27.0539152759949 47  L 22.9460847240051 47  C 21.8121523320496 47  20.8440308087291 46.6540987318841  20.0417201540436 45.9622961956522  C 19.2394094993582 45.2704936594203  18.8382541720154 44.3711503623188  19 43.2642663043478  L 19 20.7860054347826  L 9.40308087291399 30.1413043478261  C 8.63286264441592 30.9501811594203  7.67008985879332 31.3546195652174  6.51476251604621 31.3546195652174  C 5.3594351732991 31.3546195652174  4.39666238767651 30.9501811594203  3.62644415917843 30.1413043478261  L 1.21951219512195 27.7466032608696  C 0.406504065040651 26.9377264492754  0 25.9798460144928  0 24.8729619565217  C 0 23.7447916666667  0.406504065040651 22.776268115942  1.21951219512195 21.9673913043478  L 22.1116816431322 1.18138586956522  C 22.8605049208387 0.393795289855071  23.8232777064613 0  25 0  C 26.1553273427471 0  27.1287976037655 0.393795289855071  27.9204107830552 1.18138586956522  L 48.8125802310655 21.9673913043478  Z " fill-rule="nonzero" fill="#02a7f0" stroke="none" fill-opacity="0.8" transform="matrix(1 0 0 1 1145 252 )" />
    <path d="M 48.8125802310655 21.9673913043478  C 49.6041934103552 22.7975543478261  50 23.7660778985507  50 24.8729619565217  C 50 25.9585597826087  49.6041934103552 26.9164402173913  48.8125802310655 27.7466032608696  L 46.405648267009 30.1413043478261  C 45.5926401369277 30.9501811594203  44.6191698759093 31.3546195652174  43.4852374839538 31.3546195652174  C 42.3299101412067 31.3546195652174  41.3671373555841 30.9501811594203  40.596919127086 30.1413043478261  L 31 20.7860054347826  L 31 43.2642663043478  C 31.1617458279846 44.3711503623188  30.7605905006419 45.2704936594203  29.9582798459564 45.9622961956522  C 29.1559691912709 46.6540987318841  28.1878476679504 47  27.0539152759949 47  L 22.9460847240051 47  C 21.8121523320496 47  20.8440308087291 46.6540987318841  20.0417201540436 45.9622961956522  C 19.2394094993582 45.2704936594203  18.8382541720154 44.3711503623188  19 43.2642663043478  L 19 20.7860054347826  L 9.40308087291399 30.1413043478261  C 8.63286264441592 30.9501811594203  7.67008985879332 31.3546195652174  6.51476251604621 31.3546195652174  C 5.3594351732991 31.3546195652174  4.39666238767651 30.9501811594203  3.62644415917843 30.1413043478261  L 1.21951219512195 27.7466032608696  C 0.406504065040651 26.9377264492754  0 25.9798460144928  0 24.8729619565217  C 0 23.7447916666667  0.406504065040651 22.776268115942  1.21951219512195 21.9673913043478  L 22.1116816431322 1.18138586956522  C 22.8605049208387 0.393795289855071  23.8232777064613 0  25 0  C 26.1553273427471 0  27.1287976037655 0.393795289855071  27.9204107830552 1.18138586956522  L 48.8125802310655 21.9673913043478  Z " stroke-width="6" stroke="#ffff00" fill="none" transform="matrix(1 0 0 1 1145 252 )" mask="url(#clip1233)" />
  </g>
</svg>