<?xml version="1.0" encoding="utf-8"?>
<svg version="1.1" xmlns:xlink="http://www.w3.org/1999/xlink" width="247px" height="36px" xmlns="http://www.w3.org/2000/svg">
  <defs>
    <mask fill="white" id="clip1251">
      <path d="M 75 36  L 0 18  L 74.1 0  L 74.1 10  L 247 10  L 247 26  L 75 26  L 75 36  Z " fill-rule="evenodd" />
    </mask>
  </defs>
  <g transform="matrix(1 0 0 1 -1123 -10985 )">
    <path d="M 75 36  L 0 18  L 74.1 0  L 74.1 10  L 247 10  L 247 26  L 75 26  L 75 36  Z " fill-rule="nonzero" fill="#caf982" stroke="none" fill-opacity="0.498039215686275" transform="matrix(1 0 0 1 1123 10985 )" />
    <path d="M 75 36  L 0 18  L 74.1 0  L 74.1 10  L 247 10  L 247 26  L 75 26  L 75 36  Z " stroke-width="6" stroke-dasharray="9,3" stroke="#95f204" fill="none" transform="matrix(1 0 0 1 1123 10985 )" mask="url(#clip1251)" />
  </g>
</svg>