<?xml version="1.0" encoding="utf-8"?>
<svg version="1.1" xmlns:xlink="http://www.w3.org/1999/xlink" width="106px" height="106px" xmlns="http://www.w3.org/2000/svg">
  <defs>
    <filter x="406px" y="3072px" width="106px" height="106px" filterUnits="userSpaceOnUse" id="filter1366">
      <feOffset dx="1" dy="1" in="SourceAlpha" result="shadowOffsetInner" />
      <feGaussianBlur stdDeviation="2.5" in="shadowOffsetInner" result="shadowGaussian" />
      <feComposite in2="shadowGaussian" operator="atop" in="SourceAlpha" result="shadowComposite" />
      <feColorMatrix type="matrix" values="0 0 0 0 0  0 0 0 0 0  0 0 0 0 0  0 0 0 0.698039215686274 0  " in="shadowComposite" />
    </filter>
    <g id="widget1367">
      <path d="M 458 3076  C 484.88 3076  506 3097.12  506 3124  C 506 3150.88  484.88 3172  458 3172  C 431.12 3172  410 3150.88  410 3124  C 410 3097.12  431.12 3076  458 3076  Z " fill-rule="nonzero" fill="#009dd9" stroke="none" />
      <path d="M 458 3076.5  C 484.6 3076.5  505.5 3097.4  505.5 3124  C 505.5 3150.6  484.6 3171.5  458 3171.5  C 431.4 3171.5  410.5 3150.6  410.5 3124  C 410.5 3097.4  431.4 3076.5  458 3076.5  Z " stroke-width="1" stroke="#ffffff" fill="none" />
    </g>
  </defs>
  <g transform="matrix(1 0 0 1 -406 -3072 )">
    <use xlink:href="#widget1367" filter="url(#filter1366)" />
    <use xlink:href="#widget1367" />
  </g>
</svg>