<?xml version="1.0" encoding="utf-8"?>
<svg version="1.1" xmlns:xlink="http://www.w3.org/1999/xlink" width="20px" height="19px" xmlns="http://www.w3.org/2000/svg">
  <g transform="matrix(1 0 0 1 252 1081 )">
    <path d="M 19.6333333333343 0  L 0.366666666668607 0  L 2.36666666666861 0.933333333334303  L 4.5 2.33333333333428  L 6.23333333333426 3  L 7 3.39999999999998  L 8.23333333333426 4  L 9.7666666666687 5.19999999999999  L 10.7666666666687 6  L 11 6.33333333333428  L 11.5666666666687 7  L 12 8.39999999999998  L 12.8333333333344 9  L 14.0999999999999 10.1333333333343  L 15 11  L 15 12.2666666666686  L 15.7 13  L 16 14.3333333333343  L 17.0999999999999 16.0666666666686  L 18 17  L 18 18.2  L 19.0333333333342 18.2  L 19.6333333333343 18.2  L 19.6333333333343 0  Z " fill-rule="nonzero" fill="#cdd1c7" stroke="none" transform="matrix(1 0 0 1 -252 -1081 )" />
  </g>
</svg>