<?xml version="1.0" encoding="utf-8"?>
<svg version="1.1" xmlns:xlink="http://www.w3.org/1999/xlink" width="418px" height="202px" xmlns="http://www.w3.org/2000/svg">
  <g transform="matrix(1 0 0 1 -1844 -580 )">
    <path d="M 327.83870967742 11.2903225806451  L 326.125 0  L 354.25 16.25  L 367.375 29.375  L 373.625 38.75  L 384.875 43.75  L 397.375 48.75  L 410.5 58.125  L 418 66.25  L 418 75  L 418 82.5  L 414.875 88.125  L 414.875 93.75  L 410.5 101.25  L 418 106.875  L 418 113.75  L 414.875 120  L 410.5 121.231527093596  L 405.266009852217 118.275862068966  L 403.049261083744 120  L 403.049261083744 125.172413793104  L 403.049261083744 132.56157635468  L 398.615763546798 136.748768472906  L 390.487684729064 141.182266009852  L 391.96551724138 143.399014778325  L 398.615763546798 143.399014778325  L 403.049261083744 147.586206896552  L 405.266009852217 152.758620689655  L 405.266009852217 156.699507389163  L 403.049261083744 159.901477832512  L 400.339901477833 164.581280788177  L 392.950738916256 165  L 382.35960591133 162.857142857143  L 373.625 156.699507389163  L 370.536945812808 152.758620689655  L 368.812807881774 145.369458128079  L 367.375 145.369458128079  L 366.103448275862 149.310344827586  L 367.375 154.975369458128  L 370.536945812808 159.901477832512  L 368.812807881774 162.857142857143  L 366.103448275862 165  L 370.536945812808 165  L 375.709359605912 169.014778325123  L 379.896551724138 170  L 379.896551724138 175.911330049261  L 375.709359605912 179.113300492611  L 373.625 179.113300492611  L 366.103448275862 175.911330049261  L 359.206896551724 174.433497536946  L 346.891625615764 172.955665024631  L 341.96551724138 169.014778325123  L 338.270935960591 167.290640394089  L 338.270935960591 170  L 338.270935960591 172.955665024631  L 345.660098522168 174.433497536946  L 354.25 175.911330049261  L 362.901477832513 180  L 370.536945812808 184.778325123153  L 378.418719211823 191.428571428572  L 379.896551724138 195.369458128079  L 382.35960591133 198.325123152709  L 379.896551724138 201.773399014778  L 375.463054187192 202  L 370.536945812808 201.773399014778  L 346.891625615764 195.369458128079  L 331.374384236453 191.428571428572  L 322.014778325123 184.778325123153  L 317.581280788178 175.911330049261  L 311.423645320197 172.955665024631  L 295.660098522168 165  L 259.991869918699 154.975369458128  L 226.658536585366 152  L 213.243902439025 152  L 201.861788617886 154.975369458128  L 192.512195121951 156.699507389163  L 179.910569105691 154.975369458128  L 162.024390243902 145.369458128079  L 148.609756097561 136.748768472906  L 131.536585365854 127.723577235772  L 113.650406504065 121.231527093596  L 105.113821138211 120  L 93.7317073170734 113.75  L 85.1951219512193 113.75  L 72.5934959349593 110.650406504065  L 66.0894308943091 103.333333333333  L 60.3983739837402 98.8617886178862  L 42.9074074074074 90.8333333333333  L 37.351851851852 82.5  L 37.351851851852 75  L 42.9074074074074 71.8518518518518  L 47.5370370370372 66.25  L 42.9074074074074 62.1296296296296  L 37.351851851852 62.1296296296296  L 33.6481481481483 62.1296296296296  L 23 58.125  L 8.18518518518499 62.1296296296296  L 0.777777777777601 62.1296296296296  L 4.01851851851848 53.3333333333333  L 8.18518518518499 53.3333333333333  L 14.6666666666665 53.3333333333333  L 18.8333333333333 48.75  L 30.4074074074072 53.3333333333333  L 37.351851851852 53.3333333333333  L 42.9074074074074 53.3333333333333  L 50.3148148148148 58.125  L 60.3983739837402 62.1296296296296  L 60.3983739837402 69.074074074074  L 53.0925925925924 75  L 47.5370370370372 77.8703703703703  L 53.0925925925924 88.125  L 60.3983739837402 88.125  L 66.0894308943091 90.8333333333333  L 72.5934959349593 93.75  L 79.0185185185182 101.25  L 93.7317073170734 103.333333333333  L 105.113821138211 110.650406504065  L 126.24074074074 113.75  L 134.111111111111 120  L 145.222222222222 125.172413793104  L 162.024390243902 132.56157635468  L 174.851851851852 141.182266009852  L 192.512195121951 145.369458128079  L 201.861788617886 147  L 216.055555555555 147  L 237.351851851852 147  L 248.925925925926 147  L 268.37037037037 149.310344827586  L 295.660098522168 159.901477832512  L 305.58064516129 162.857142857143  L 317.581280788178 170  L 322.014778325123 175.911330049261  L 327.83870967742 182.258064516129  L 341.96551724138 186.774193548387  L 356.870967741936 191.428571428572  L 366.103448275862 195.369458128079  L 370.536945812808 195.369458128079  L 368.812807881774 191.428571428572  L 359.206896551724 182.258064516129  L 345.660098522168 179.113300492611  L 335.903225806452 175.911330049261  L 331.374384236453 172.955665024631  L 327.83870967742 165  L 331.374384236453 162.857142857143  L 335.903225806452 159.901477832512  L 341.96551724138 159.901477832512  L 345.660098522168 164.581280788177  L 346.891625615764 167.290640394089  L 354.25 169.014778325123  L 359.206896551724 169.014778325123  L 356.870967741936 165  L 354.25 159.901477832512  L 354.25 154.975369458128  L 356.870967741936 152.758620689655  L 359.206896551724 152.758620689655  L 362.901477832513 154.975369458128  L 359.206896551724 147.586206896552  L 362.901477832513 136.748768472906  L 367.375 136.748768472906  L 373.625 141.182266009852  L 375.709359605912 147.586206896552  L 382.35960591133 154.975369458128  L 384.875 156.699507389163  L 395.258064516129 159.901477832512  L 400.339901477833 152.758620689655  L 392.950738916256 149.310344827586  L 384.875 145.369458128079  L 382.35960591133 143.399014778325  L 382.35960591133 136.748768472906  L 392.950738916256 132.56157635468  L 395.258064516129 125.172413793104  L 397.375 121.231527093596  L 397.375 113.75  L 392.950738916256 110.650406504065  L 397.375 110.650406504065  L 403.049261083744 110.650406504065  L 405.266009852217 110.650406504065  L 410.5 113.75  L 412.677419354839 110.650406504065  L 412.677419354839 106.875  L 405.266009852217 105.161290322581  L 403.049261083744 101.25  L 405.266009852217 90.8333333333333  L 405.266009852217 86.4516129032257  L 410.5 77.8703703703703  L 410.5 69.074074074074  L 398.615763546798 56.4516129032257  L 387.516129032258 53.3333333333333  L 373.625 51.2903225806451  L 362.901477832513 35.8064516129032  L 345.660098522168 19.3548387096774  L 331.374384236453 16.25  L 327.83870967742 11.2903225806451  Z " fill-rule="nonzero" fill="#00ffff" stroke="none" transform="matrix(1 0 0 1 1844 580 )" />
  </g>
</svg>