<?xml version="1.0" encoding="utf-8"?>
<svg version="1.1" xmlns:xlink="http://www.w3.org/1999/xlink" width="230px" height="120px" xmlns="http://www.w3.org/2000/svg">
  <g transform="matrix(1 0 0 1 -1602 -758 )">
    <path d="M 1 11.6245733788395  L 1 0.703071672354895  L 21.3139931740614 11.6245733788395  L 30.8703071672353 11.6245733788395  L 44.5221843003412 12  L 57.8327645051193 14.013651877133  L 63.2935153583617 16.7440273037543  L 68.0716723549488 22.5460750853242  L 75.5802047781569 24.9351535836176  L 91.6211604095563 28.0068259385665  L 97.0819112627985 29  L 103.225255972696 30.7372013651876  L 114.488054607509 40.976109215017  L 139.402730375426 50.5324232081911  L 156.467576791809 54.9692832764505  L 175.921501706485 62.4778156996587  L 189.914675767918 66.5733788395904  L 196.740614334471 67  L 202.883959044369 72.3754266211604  L 215.170648464164 87.7337883959044  L 221.655290102389 102.750853242321  L 229.846416382253 119.815699658703  L 221.655290102389 119.815699658703  L 215.170648464164 102.750853242321  L 208.003412969283 87.7337883959044  L 193.668941979522 72  L 181.723549488054 72  L 158.856655290102 64.8668941979522  L 146.911262798635 60.4300341296928  L 127.457337883959 54.9692832764505  L 106.296928327645 43.0238907849829  L 97.0819112627985 34.4914675767918  L 87.5255972696245 34.4914675767918  L 68.0716723549488 30.7372013651876  L 60.9044368600682 28.0068259385665  L 54.0784982935152 22.5460750853242  L 37.6962457337884 21  L 27.4573378839589 21  L 12.4402730375425 14.013651877133  L 1 11.6245733788395  Z " fill-rule="nonzero" fill="#00ffff" stroke="none" transform="matrix(1 0 0 1 1602 758 )" />
  </g>
</svg>