<?xml version="1.0" encoding="utf-8"?>
<svg version="1.1" xmlns:xlink="http://www.w3.org/1999/xlink" width="258px" height="232px" xmlns="http://www.w3.org/2000/svg">
  <defs>
    <mask fill="white" id="clip2021">
      <path d="M 257.279569892473 49.8709677419355  L 253.893617021277 39.758865248227  L 236.872340425532 31.9574468085106  L 217.014184397163 11.3900709219858  L 202.829787234043 0.751773049645408  L 187.936170212766 6  L 173.751773049645 6  L 165.241134751773 11.3900709219858  L 160.276595744681 16  L 148.219858156029 16  L 110 46.8510638297873  L 110 63.1631205673759  L 118 75.2198581560284  L 118 92.9503546099291  L 109.212765957447 108.553191489362  L 109.212765957447 114.22695035461  L 102.120567375887 124.86524822695  L 102.120567375887 129.120567375887  L 63.822695035461 147.560283687943  L 28.3617021276596 169.54609929078  L 24.1063829787236 183.021276595745  L 9.21276595744689 207.843971631206  L 0.702127659574444 231.957446808511  L 8.50354609929082 232  L 20.5602836879434 207.843971631206  L 28.3617021276596 194.368794326241  L 37.9247311827955 176.215053763441  L 63.822695035461 155.784946236559  L 98.1397849462364 139.655913978495  L 114.268817204301 133.204301075269  L 117.723404255319 133.204301075269  L 121.258064516129 124.86524822695  L 124.483870967742 118.688172043011  L 124.483870967742 114.22695035461  L 121.258064516129 108.553191489362  L 127.709677419355 99.8709677419355  L 124.483870967742 75.2198581560284  L 121.258064516129 63.1631205673759  L 121.258064516129 55.247311827957  L 130.935483870968 46.8510638297873  L 148.219858156029 31.9574468085106  L 154.591397849462 28  L 165.241134751773 28  L 177.172043010753 16  L 187.936170212766 16  L 202.829787234043 15.645390070922  L 208.354838709677 15.645390070922  L 211.58064516129 25.1397849462365  L 217.014184397163 31.9574468085106  L 225.559139784946 34.8172043010753  L 225.559139784946 42.8817204301075  L 228.784946236559 46.8510638297873  L 236.872340425532 49.8709677419355  L 244.913978494624 46.8510638297873  L 257.279569892473 49.8709677419355  Z " fill-rule="evenodd" />
    </mask>
  </defs>
  <g transform="matrix(1 0 0 1 -1328 -134 )">
    <path d="M 257.279569892473 49.8709677419355  L 253.893617021277 39.758865248227  L 236.872340425532 31.9574468085106  L 217.014184397163 11.3900709219858  L 202.829787234043 0.751773049645408  L 187.936170212766 6  L 173.751773049645 6  L 165.241134751773 11.3900709219858  L 160.276595744681 16  L 148.219858156029 16  L 110 46.8510638297873  L 110 63.1631205673759  L 118 75.2198581560284  L 118 92.9503546099291  L 109.212765957447 108.553191489362  L 109.212765957447 114.22695035461  L 102.120567375887 124.86524822695  L 102.120567375887 129.120567375887  L 63.822695035461 147.560283687943  L 28.3617021276596 169.54609929078  L 24.1063829787236 183.021276595745  L 9.21276595744689 207.843971631206  L 0.702127659574444 231.957446808511  L 8.50354609929082 232  L 20.5602836879434 207.843971631206  L 28.3617021276596 194.368794326241  L 37.9247311827955 176.215053763441  L 63.822695035461 155.784946236559  L 98.1397849462364 139.655913978495  L 114.268817204301 133.204301075269  L 117.723404255319 133.204301075269  L 121.258064516129 124.86524822695  L 124.483870967742 118.688172043011  L 124.483870967742 114.22695035461  L 121.258064516129 108.553191489362  L 127.709677419355 99.8709677419355  L 124.483870967742 75.2198581560284  L 121.258064516129 63.1631205673759  L 121.258064516129 55.247311827957  L 130.935483870968 46.8510638297873  L 148.219858156029 31.9574468085106  L 154.591397849462 28  L 165.241134751773 28  L 177.172043010753 16  L 187.936170212766 16  L 202.829787234043 15.645390070922  L 208.354838709677 15.645390070922  L 211.58064516129 25.1397849462365  L 217.014184397163 31.9574468085106  L 225.559139784946 34.8172043010753  L 225.559139784946 42.8817204301075  L 228.784946236559 46.8510638297873  L 236.872340425532 49.8709677419355  L 244.913978494624 46.8510638297873  L 257.279569892473 49.8709677419355  Z " fill-rule="nonzero" fill="#7f7f7f" stroke="none" transform="matrix(1 0 0 1 1328 134 )" />
    <path d="M 257.279569892473 49.8709677419355  L 253.893617021277 39.758865248227  L 236.872340425532 31.9574468085106  L 217.014184397163 11.3900709219858  L 202.829787234043 0.751773049645408  L 187.936170212766 6  L 173.751773049645 6  L 165.241134751773 11.3900709219858  L 160.276595744681 16  L 148.219858156029 16  L 110 46.8510638297873  L 110 63.1631205673759  L 118 75.2198581560284  L 118 92.9503546099291  L 109.212765957447 108.553191489362  L 109.212765957447 114.22695035461  L 102.120567375887 124.86524822695  L 102.120567375887 129.120567375887  L 63.822695035461 147.560283687943  L 28.3617021276596 169.54609929078  L 24.1063829787236 183.021276595745  L 9.21276595744689 207.843971631206  L 0.702127659574444 231.957446808511  L 8.50354609929082 232  L 20.5602836879434 207.843971631206  L 28.3617021276596 194.368794326241  L 37.9247311827955 176.215053763441  L 63.822695035461 155.784946236559  L 98.1397849462364 139.655913978495  L 114.268817204301 133.204301075269  L 117.723404255319 133.204301075269  L 121.258064516129 124.86524822695  L 124.483870967742 118.688172043011  L 124.483870967742 114.22695035461  L 121.258064516129 108.553191489362  L 127.709677419355 99.8709677419355  L 124.483870967742 75.2198581560284  L 121.258064516129 63.1631205673759  L 121.258064516129 55.247311827957  L 130.935483870968 46.8510638297873  L 148.219858156029 31.9574468085106  L 154.591397849462 28  L 165.241134751773 28  L 177.172043010753 16  L 187.936170212766 16  L 202.829787234043 15.645390070922  L 208.354838709677 15.645390070922  L 211.58064516129 25.1397849462365  L 217.014184397163 31.9574468085106  L 225.559139784946 34.8172043010753  L 225.559139784946 42.8817204301075  L 228.784946236559 46.8510638297873  L 236.872340425532 49.8709677419355  L 244.913978494624 46.8510638297873  L 257.279569892473 49.8709677419355  Z " stroke-width="6" stroke="#0000ff" fill="none" transform="matrix(1 0 0 1 1328 134 )" mask="url(#clip2021)" />
  </g>
</svg>