<?xml version="1.0" encoding="utf-8"?>
<svg version="1.1" xmlns:xlink="http://www.w3.org/1999/xlink" width="171px" height="82px" xmlns="http://www.w3.org/2000/svg">
  <g transform="matrix(1 0 0 1 -1631 -581 )">
    <path d="M 170.36018957346 59  L 168.65306122449 51  L 157.632653061224 51  L 157 58.5918367346939  L 151.102040816326 59  L 142.938775510204 54.9183673469387  L 135.183673469388 51.6530612244898  L 130.69387755102 59  L 130 67.1632653061224  L 135.183673469388 72.8775510204081  L 115.591836734694 70.0204081632653  L 106.204081632653 58.5918367346939  L 111.510204081633 40.2244897959183  L 111.510204081633 35.3265306122448  L 115.591836734694 35.3265306122448  L 123.34693877551 35.3265306122448  L 123.34693877551 28.7959183673469  L 118.040816326531 21.8571428571428  L 106.204081632653 8.79591836734687  L 96.0000000000002 0.63265306122446  L 86.2040816326532 0.63265306122446  L 79.2653061224491 4.71428571428567  L 76 12.8775510204081  L 71.5102040816325 17.3673469387754  L 64.9099526066352 19.4739336492892  L 54.9573459715641 19.4739336492892  L 44.2938388625594 26.5829383886256  L 37.658767772512 30.3744075829384  L 29.8388625592418 37.957345971564  L 28.654028436019 40.2244897959183  L 16.3317535545025 35.3265306122448  L 5.90521327014221 19.4739336492892  L 0.454976303317608 23.5023696682465  L 9.93364928909955 41.9857819905213  L 26.5213270142181 54.9183673469387  L 34.8151658767774 58.5918367346939  L 37.658767772512 56.6777251184834  L 36.4739336492892 48.3838862559242  L 34.8151658767774 41.9857819905213  L 49.2701421800948 30.3744075829384  L 59.2227488151659 28.7959183673469  L 71.5102040816325 26.5829383886256  L 79.2653061224491 21.8571428571428  L 84.8151658767774 10.4691943127963  L 89.3175355450237 8.79591836734687  L 96.0000000000002 10.4691943127963  L 106.204081632653 23.5023696682465  L 111.510204081633 26.5829383886256  L 104.009478672986 30.3744075829384  L 101.402843601896 44.3554502369668  L 99.2701421800948 67.1632653061224  L 115.591836734694 78.9526066350711  L 137.421800947867 81.0853080568721  L 145.004739336493 76.5829383886256  L 141.450236966825 67.1632653061224  L 137.421800947867 64.0236966824644  L 138.843601895735 61.654028436019  L 145.004739336493 67.1632653061224  L 151.102040816326 70.0204081632653  L 157.632653061224 70.0204081632653  L 160.407582938389 64.0236966824644  L 164.436018957346 59  L 170.36018957346 59  Z " fill-rule="nonzero" fill="#00ffff" stroke="none" transform="matrix(1 0 0 1 1631 581 )" />
  </g>
</svg>