<?xml version="1.0" encoding="utf-8"?>
<svg version="1.1" xmlns:xlink="http://www.w3.org/1999/xlink" width="338px" height="150px" xmlns="http://www.w3.org/2000/svg">
  <g transform="matrix(1 0 0 1 -1865 -879 )">
    <path d="M 0.765432098763085 5.56790123456562  L 7.55555555555316 0.0123456790100818  L 23.6049382716026 25.9382716049359  L 39.654320987652 31.4938271604915  L 51.3827160493802 36.4320987654298  L 65.5802469135779 45.6913580246891  L 92.7407407407381 67.296296296294  L 113.728395061726 82.1111111111088  L 118.049382716047 89.5185185185162  L 132.864197530862 90  L 133 95.0740740740717  L 140.888888888886 96  L 136.567901234565 106.185185185183  L 133 109.888888888887  L 151.999999999998 116.679012345677  L 163.728395061726 117  L 164 114.827160493825  L 164 109.888888888887  L 160.64197530864 106.185185185183  L 170.518518518516 95.0740740740717  L 184.098765432097 82  L 199.530864197528 82  L 221.135802469134 89.5185185185162  L 238.419753086418 95.0740740740717  L 245.827160493825 100  L 272.987654320985 100  L 287.8024691358 120.999999999998  L 292.740740740738 129.64197530864  L 310.64197530864 120.999999999998  L 325.456790123455 130  L 330.395061728393 140.135802469134  L 337.185185185183 140.135802469134  L 338 141  L 338 149.395061728393  L 329.777777777776 150  L 317.43209876543 134.580246913578  L 306.938271604936 129  L 296.444444444442 129  L 292.740740740738 134.580246913578  L 279.160493827158 125.320987654319  L 269.283950617281 109  L 250.765432098763 109  L 238.419753086418 106.185185185183  L 232.246913580244 100.01234567901  L 221.135802469134 96  L 211.259259259257 96  L 199.530864197528 90  L 190.888888888886 90  L 184.098765432097 95.0740740740717  L 176.691358024689 100.01234567901  L 176.691358024689 106.185185185183  L 176.691358024689 114.827160493825  L 176.691358024689 116.679012345677  L 181.01234567901 120.999999999998  L 176.691358024689 125.320987654319  L 176.691358024689 129.64197530864  L 167.43209876543 129.64197530864  L 163.728395061726 125  L 151.999999999998 125  L 136.567901234565 120.999999999998  L 129.160493827158 109.888888888887  L 129.160493827158 100.01234567901  L 125.456790123455 96  L 113.728395061726 96  L 106.320987654319 95.0740740740717  L 106.320987654319 85.8148148148125  L 98.2962962962938 79.0246913580224  L 87.8024691358 75.3209876543186  L 77.3086419753063 67.296296296294  L 71.7530864197506 59.8888888888865  L 65.5802469135779 54.9506172839483  L 55.7037037037012 45.6913580246891  L 51.3827160493802 40.7530864197507  L 45.8271604938247 40.7530864197507  L 39.654320987652 37  L 23.6049382716026 37  L 14.9629629629605 31.4938271604915  L 7.55555555555316 20.3827160493804  L 0.765432098763085 5.56790123456562  Z " fill-rule="nonzero" fill="#7f7f7f" stroke="none" transform="matrix(1 0 0 1 1865 879 )" />
  </g>
</svg>