<?xml version="1.0" encoding="utf-8"?>
<svg version="1.1" xmlns:xlink="http://www.w3.org/1999/xlink" width="315px" height="81px" xmlns="http://www.w3.org/2000/svg">
  <g transform="matrix(1 0 0 1 -1874 -795 )">
    <path d="M 0.155635062611964 80.6708407871199  L 3.78431372549016 73.1372549019608  L 26.3333333333333 64.8039215686274  L 41.0392156862745 47.6470588235294  L 55.2549019607841 25.5882352941177  L 60.1568627450979 15.2941176470588  L 63.5882352941176 15  L 64 13.3333333333334  L 74.8627450980393 13  L 86.627450980392 8.92156862745094  L 94.4705882352941 13.3333333333334  L 95 18.2352941176471  L 103.294117647059 18.2352941176471  L 107.705882352941 13  L 107.705882352941 8.92156862745094  L 115.058823529412 8  L 122.411764705882 5  L 133.686274509804 5  L 133.686274509804 8  L 142.509803921569 5  L 149.372549019608 0  L 160.156862745098 0  L 165.549019607843 0  L 178.294117647059 5  L 204.274509803921 15.2941176470588  L 213.588235294118 21.1764705882352  L 219.470588235294 25.5882352941177  L 234.176470588235 30  L 244.960784313726 34.4117647058823  L 251.823529411765 34.4117647058823  L 257.705882352941 34.4117647058823  L 264.56862745098 42.7450980392157  L 267.509803921569 47.6470588235294  L 270.450980392157 60.8823529411765  L 274.372549019608 64.8039215686274  L 289.078431372549 70  L 299.862745098039 70  L 308.196078431372 70.1960784313725  L 314.56862745098 73.1372549019608  L 311.627450980392 77.0588235294117  L 297.411764705882 78  L 274.372549019608 73.1372549019608  L 264.56862745098 64.8039215686274  L 261.137254901961 64.8039215686274  L 257.705882352941 57.9411764705882  L 261.137254901961 54.5098039215686  L 261.137254901961 47.6470588235294  L 251.823529411765 42.7450980392157  L 249.372549019608 38.8235294117646  L 239.56862745098 38.8235294117646  L 223.882352941177 34.4117647058823  L 213.588235294118 30  L 208.196078431372 25.5882352941177  L 204.274509803921 21.1764705882352  L 188.098039215686 15.2941176470588  L 172.901960784314 8.92156862745094  L 160.156862745098 8  L 157.705882352941 8  L 153.78431372549 5  L 149.372549019608 8  L 142.509803921569 13  L 133.686274509804 13  L 122.411764705882 11.6489361702128  L 112.946808510638 13.3333333333334  L 110.287234042553 18.2352941176471  L 107.705882352941 21.1764705882352  L 100.446808510638 26  L 89.5425531914893 26  L 86.627450980392 18.2352941176471  L 81.0319148936173 15.2941176470588  L 72.5212765957449 21.1764705882352  L 65.3404255319151 21.1764705882352  L 64 32.0125223613596  L 56.5062611806798 40.778175313059  L 52.7495527728088 47.6470588235294  L 43.8050089445437 55.6261180679786  L 39.1538461538462 64.8039215686274  L 31.819320214669 68.5062611806798  L 21.443649373882 74.4096601073345  L 9.45796064400724 78  L 0.155635062611964 80.6708407871199  Z " fill-rule="nonzero" fill="#00ffff" stroke="none" transform="matrix(1 0 0 1 1874 795 )" />
  </g>
</svg>