<?xml version="1.0" encoding="utf-8"?>
<svg version="1.1" xmlns:xlink="http://www.w3.org/1999/xlink" width="106px" height="180px" xmlns="http://www.w3.org/2000/svg">
  <g transform="matrix(1 0 0 1 -2159 -800 )">
    <path d="M 100.207792207792 179.843444227006  L 97.177489177489 175.324675324675  L 100.207792207792 163.636363636364  L 97 151.515151515152  L 97.177489177489 141.125541125541  L 92.848484848485 127.272727272727  L 85.9220779220777 112.554112554113  L 85 95.6709956709957  L 85.9220779220777 92.2077922077922  L 88.5194805194806 87.4458874458875  L 87.6536796536798 87  L 85 84.4155844155844  L 85 80.0865800865801  L 81.5930735930733 80  L 72.0692640692641 80  L 59.0822510822509 80  L 46.9610389610389 70.5627705627705  L 31.8095238095239 70  L 27.4805194805194 67.5324675324675  L 8.43290043290017 63.6363636363636  L 0.640692640692578 58.4415584415584  L 5.40259740259717 54.1125541125541  L 20.5541125541126 51.5151515151515  L 14.9264069264068 41.991341991342  L 6 22.077922077922  L 6 9.95670995670991  L 5.40259740259717 0.432900432900396  L 11.030303030303 0  L 14.9264069264068 0  L 24.8831168831171 6.49350649350652  L 20.5541125541126 9.95670995670991  L 11.030303030303 6.49350649350652  L 14.9264069264068 26.4069264069263  L 24.8831168831171 41.991341991342  L 27.4805194805194 41.991341991342  L 38.30303030303 47.1861471861472  L 38.30303030303 51.5151515151515  L 27.4805194805194 54.1125541125541  L 14.9264069264068 58.4415584415584  L 27.4805194805194 61  L 43.9307359307359 61  L 49.9913419913419 63.6363636363636  L 59.0822510822509 70.5627705627705  L 66.8744588744589 71  L 81.5930735930733 71  L 87.6536796536798 74.0259740259741  L 92.848484848485 80  L 92.848484848485 80.0865800865801  L 97 84.4155844155844  L 97.177489177489 87  L 97 92.2077922077922  L 92.848484848485 95.6709956709957  L 91.3659491193735 101.565557729941  L 91.3659491193735 110.371819960861  L 97 123.679060665362  L 105 141.125541125541  L 105 155.18590998043  L 105.06457925636 163.636363636364  L 106 167.123287671233  L 106 172.211350293542  L 104.086105675146 177.886497064579  L 100.207792207792 179.843444227006  Z " fill-rule="nonzero" fill="#00ffff" stroke="none" transform="matrix(1 0 0 1 2159 800 )" />
  </g>
</svg>