<?xml version="1.0" encoding="utf-8"?>
<svg version="1.1" xmlns:xlink="http://www.w3.org/1999/xlink" width="141px" height="868px" xmlns="http://www.w3.org/2000/svg">
  <defs>
    <mask fill="white" id="clip1971">
      <path d="M 92 490.55737704918  C 138.08922721785 219.69026063696  140.196721311475 0.393442622950829  140.196721311475 0.393442622950829  C 140.196721311475 0.393442622950829  119.571183497574 217.419415493282  74.6229508196721 490.55737704918  C 39.7029238242544 702.756709987459  0.852459016393368 867.606557377049  0.852459016393368 867.606557377049  C 0.852459016393368 867.606557377049  55.5850227472292 704.568773596408  92 490.55737704918  Z " fill-rule="evenodd" />
    </mask>
  </defs>
  <g transform="matrix(1 0 0 1 -2168 -316 )">
    <path d="M 92 490.55737704918  C 138.08922721785 219.69026063696  140.196721311475 0.393442622950829  140.196721311475 0.393442622950829  C 140.196721311475 0.393442622950829  119.571183497574 217.419415493282  74.6229508196721 490.55737704918  C 39.7029238242544 702.756709987459  0.852459016393368 867.606557377049  0.852459016393368 867.606557377049  C 0.852459016393368 867.606557377049  55.5850227472292 704.568773596408  92 490.55737704918  Z " fill-rule="nonzero" fill="#80ffff" stroke="none" transform="matrix(1 0 0 1 2168 316 )" />
    <path d="M 92 490.55737704918  C 138.08922721785 219.69026063696  140.196721311475 0.393442622950829  140.196721311475 0.393442622950829  C 140.196721311475 0.393442622950829  119.571183497574 217.419415493282  74.6229508196721 490.55737704918  C 39.7029238242544 702.756709987459  0.852459016393368 867.606557377049  0.852459016393368 867.606557377049  C 0.852459016393368 867.606557377049  55.5850227472292 704.568773596408  92 490.55737704918  Z " stroke-width="2" stroke="#ffffff" fill="none" transform="matrix(1 0 0 1 2168 316 )" mask="url(#clip1971)" />
  </g>
</svg>