<?xml version="1.0" encoding="utf-8"?>
<svg version="1.1" xmlns:xlink="http://www.w3.org/1999/xlink" width="314px" height="239px" xmlns="http://www.w3.org/2000/svg">
  <defs>
    <mask fill="white" id="clip1976">
      <path d="M 125 86  C 234.013158038191 167.432092730279  314 239  314 239  C 314 239  236.532195124909 160.84290731894  125 79  C 58.3990678722607 30.1278881458304  0 0  0 0  C 0 0  56.9799300881082 35.1894672141804  125 86  Z " fill-rule="evenodd" />
    </mask>
  </defs>
  <g transform="matrix(1 0 0 1 -2013 -54 )">
    <path d="M 125 86  C 234.013158038191 167.432092730279  314 239  314 239  C 314 239  236.532195124909 160.84290731894  125 79  C 58.3990678722607 30.1278881458304  0 0  0 0  C 0 0  56.9799300881082 35.1894672141804  125 86  Z " fill-rule="nonzero" fill="#80ffff" stroke="none" transform="matrix(1 0 0 1 2013 54 )" />
    <path d="M 125 86  C 234.013158038191 167.432092730279  314 239  314 239  C 314 239  236.532195124909 160.84290731894  125 79  C 58.3990678722607 30.1278881458304  0 0  0 0  C 0 0  56.9799300881082 35.1894672141804  125 86  Z " stroke-width="2" stroke="#ffffff" fill="none" transform="matrix(1 0 0 1 2013 54 )" mask="url(#clip1976)" />
  </g>
</svg>