<?xml version="1.0" encoding="utf-8"?>
<svg version="1.1" xmlns:xlink="http://www.w3.org/1999/xlink" width="1076px" height="1204px" xmlns="http://www.w3.org/2000/svg">
  <defs>
    <mask fill="white" id="clip1967">
      <path d="M 1072.53012048193 0.294117647058826  L 1060.58823529412 0.294117647058826  L 993.921568627451 61.078431372549  L 921.372549019608 123.823529411765  L 921 176.764705882353  L 903.725490196078 202.254901960784  L 872.35294117647 231.666666666667  L 805.686274509804 257.156862745098  L 762.549019607843 306.176470588235  L 719.411764705882 319.901960784314  L 674.883720930233 344.06976744186  L 667.906976744186 373.139534883721  L 660.93023255814 399.883720930233  L 646.976744186047 415  L 569.06976744186 447.558139534884  L 536.511627906977 476.627906976744  L 481.860465116279 496.395348837209  L 460 521.976744186047  L 460 546.395348837209  L 410.93023255814 581.279069767442  L 367.941176470588 613.529411764706  L 348.823529411765 657.64705882353  L 367.941176470588 682.64705882353  L 376.764705882353 704.705882352941  L 348.823529411765 753.235294117647  L 313.529411764706 803.235294117647  L 291.470588235294 813.529411764706  L 248.823529411765 792.941176470589  L 178.235294117647 776.764705882353  L 148.823529411765 753.235294117647  L 51 731.176470588235  L 51 691.470588235294  L 62.0588235294118 670  L 32.6470588235294 670  L 0.294117647058812 670.882352941176  L 0 675  L 32.6470588235294 675  L 50.2941176470588 675.294117647059  L 50.2941176470588 682.64705882353  L 45.3488372093023 691.470588235294  L 41.1627906976744 710.581395348837  L 38.8372093023256 728.255813953488  L 45.3488372093023 731.176470588235  L 88.6046511627907 745.46511627907  L 144.883720930233 757.093023255814  L 174.4 780.2  L 210 792.941176470589  L 244.4 798.2  L 274.4 810.2  L 287.6 827.4  L 313.529411764706 843.260869565217  L 348.823529411765 874.565217391304  L 363.04347826087 896.304347826087  L 394.347826086957 911.956521739131  L 452.608695652174 921  L 536.511627906977 921  L 569.06976744186 929.473684210526  L 587.368421052632 936.71052631579  L 603.815789473684 951.842105263158  L 624.868421052632 960.394736842105  L 615 975.526315789474  L 615 988.026315789473  L 637.368421052632 1000.52631578947  L 630.131578947368 1011.05263157895  L 610.394736842105 1024.21052631579  L 587.368421052632 1034.07894736842  L 551.842105263158 1056.44736842105  L 540.375939849624 1074.77443609023  L 536.511627906977 1094.32330827068  L 540 1108.98496240602  L 540 1128.53383458647  L 536.511627906977 1143.57142857143  L 551.842105263158 1154.47368421053  L 565.563909774436 1161.99248120301  L 560.300751879699 1171.76691729323  L 543.759398496241 1180.41353383459  L 540.375939849624 1190.18796992481  L 546.015037593985 1198.83458646617  L 549.398496240602 1203.72180451128  L 551.842105263158 1195.82706766917  L 549.398496240602 1190.18796992481  L 551.842105263158 1180.41353383459  L 565.563909774436 1175.52631578947  L 572.706766917293 1166.87969924812  L 575.338345864662 1159.36090225564  L 560.300751879699 1149.96240601504  L 549 1145.82706766917  L 549 1131.54135338346  L 555.789473684211 1124.02255639098  L 551.842105263158 1104.0977443609  L 549.398496240602 1086.42857142857  L 555.789473684211 1061.24060150376  L 577.593984962406 1049.21052631579  L 608.421052631579 1034.07894736842  L 644 1014.18032786885  L 644 1000.52631578947  L 639.590163934426 992.459016393443  L 624.868421052632 982.622950819672  L 630.131578947368 971.55737704918  L 637.368421052632 962.540983606557  L 624.868421052632 951.842105263158  L 608.421052631579 940  L 585.081967213115 921.521739130435  L 529.344262295082 914.590163934426  L 445.737704918033 907.622950819672  L 394.347826086957 903.125  L 363.04347826087 881.875  L 348.823529411765 861.25  L 321.25 843.260869565217  L 301.875 827.4  L 298.75 819.375  L 321.25 813.529411764706  L 343.125 783.75  L 359.375 757.093023255814  L 367.941176470588 739.375  L 376.764705882353 724.375  L 387 697.173913043478  L 387 682.64705882353  L 367.941176470588 675.294117647059  L 359.375 657.64705882353  L 367.941176470588 623.260869565217  L 386.521739130435 613.529411764706  L 403.04347826087 593.695652173913  L 428.260869565217 581.279069767442  L 459.767441860465 562.391304347826  L 472 546.395348837209  L 472 532.826086956522  L 467.391304347826 521.976744186047  L 481.860465116279 502.391304347826  L 536.511627906977 483.260869565217  L 575.338345864662 452.826086956522  L 615.657894736842 434.565217391304  L 646.976744186047 420.652173913044  L 667.906976744186 409.578313253012  L 667.906976744186 399.883720930233  L 674.883720930233 377.650602409639  L 678.55421686747 362.590361445783  L 682.771084337349 349.33734939759  L 694.21686746988 344.06976744186  L 706.265060240964 335.481927710843  L 735.783132530121 328.855421686747  L 746.024096385542 319.901960784314  L 762.549019607843 312.590361445783  L 776.746987951807 300.542168674699  L 788.192771084337 287.289156626506  L 811.084337349398 269.819277108434  L 839.397590361446 257.156862745098  L 847.831325301205 251.746987951807  L 865.301204819277 240.903614457831  L 886.385542168675 231.666666666667  L 914.698795180723 211.987951807229  L 921 198.132530120482  L 921 186.686746987952  L 927 176.764705882353  L 927 149.939759036145  L 932.77108433735 133.674698795181  L 941.204819277109 116.807228915663  L 977.951807228916 87.8915662650602  L 1022.53012048193 54.7590361445783  L 1053.85542168675 25.8433734939759  L 1075.5421686747 7.16867469879518  L 1072.53012048193 0.294117647058826  Z " fill-rule="evenodd" />
    </mask>
  </defs>
  <g transform="matrix(1 0 0 1 -210 -35 )">
    <path d="M 1072.53012048193 0.294117647058826  L 1060.58823529412 0.294117647058826  L 993.921568627451 61.078431372549  L 921.372549019608 123.823529411765  L 921 176.764705882353  L 903.725490196078 202.254901960784  L 872.35294117647 231.666666666667  L 805.686274509804 257.156862745098  L 762.549019607843 306.176470588235  L 719.411764705882 319.901960784314  L 674.883720930233 344.06976744186  L 667.906976744186 373.139534883721  L 660.93023255814 399.883720930233  L 646.976744186047 415  L 569.06976744186 447.558139534884  L 536.511627906977 476.627906976744  L 481.860465116279 496.395348837209  L 460 521.976744186047  L 460 546.395348837209  L 410.93023255814 581.279069767442  L 367.941176470588 613.529411764706  L 348.823529411765 657.64705882353  L 367.941176470588 682.64705882353  L 376.764705882353 704.705882352941  L 348.823529411765 753.235294117647  L 313.529411764706 803.235294117647  L 291.470588235294 813.529411764706  L 248.823529411765 792.941176470589  L 178.235294117647 776.764705882353  L 148.823529411765 753.235294117647  L 51 731.176470588235  L 51 691.470588235294  L 62.0588235294118 670  L 32.6470588235294 670  L 0.294117647058812 670.882352941176  L 0 675  L 32.6470588235294 675  L 50.2941176470588 675.294117647059  L 50.2941176470588 682.64705882353  L 45.3488372093023 691.470588235294  L 41.1627906976744 710.581395348837  L 38.8372093023256 728.255813953488  L 45.3488372093023 731.176470588235  L 88.6046511627907 745.46511627907  L 144.883720930233 757.093023255814  L 174.4 780.2  L 210 792.941176470589  L 244.4 798.2  L 274.4 810.2  L 287.6 827.4  L 313.529411764706 843.260869565217  L 348.823529411765 874.565217391304  L 363.04347826087 896.304347826087  L 394.347826086957 911.956521739131  L 452.608695652174 921  L 536.511627906977 921  L 569.06976744186 929.473684210526  L 587.368421052632 936.71052631579  L 603.815789473684 951.842105263158  L 624.868421052632 960.394736842105  L 615 975.526315789474  L 615 988.026315789473  L 637.368421052632 1000.52631578947  L 630.131578947368 1011.05263157895  L 610.394736842105 1024.21052631579  L 587.368421052632 1034.07894736842  L 551.842105263158 1056.44736842105  L 540.375939849624 1074.77443609023  L 536.511627906977 1094.32330827068  L 540 1108.98496240602  L 540 1128.53383458647  L 536.511627906977 1143.57142857143  L 551.842105263158 1154.47368421053  L 565.563909774436 1161.99248120301  L 560.300751879699 1171.76691729323  L 543.759398496241 1180.41353383459  L 540.375939849624 1190.18796992481  L 546.015037593985 1198.83458646617  L 549.398496240602 1203.72180451128  L 551.842105263158 1195.82706766917  L 549.398496240602 1190.18796992481  L 551.842105263158 1180.41353383459  L 565.563909774436 1175.52631578947  L 572.706766917293 1166.87969924812  L 575.338345864662 1159.36090225564  L 560.300751879699 1149.96240601504  L 549 1145.82706766917  L 549 1131.54135338346  L 555.789473684211 1124.02255639098  L 551.842105263158 1104.0977443609  L 549.398496240602 1086.42857142857  L 555.789473684211 1061.24060150376  L 577.593984962406 1049.21052631579  L 608.421052631579 1034.07894736842  L 644 1014.18032786885  L 644 1000.52631578947  L 639.590163934426 992.459016393443  L 624.868421052632 982.622950819672  L 630.131578947368 971.55737704918  L 637.368421052632 962.540983606557  L 624.868421052632 951.842105263158  L 608.421052631579 940  L 585.081967213115 921.521739130435  L 529.344262295082 914.590163934426  L 445.737704918033 907.622950819672  L 394.347826086957 903.125  L 363.04347826087 881.875  L 348.823529411765 861.25  L 321.25 843.260869565217  L 301.875 827.4  L 298.75 819.375  L 321.25 813.529411764706  L 343.125 783.75  L 359.375 757.093023255814  L 367.941176470588 739.375  L 376.764705882353 724.375  L 387 697.173913043478  L 387 682.64705882353  L 367.941176470588 675.294117647059  L 359.375 657.64705882353  L 367.941176470588 623.260869565217  L 386.521739130435 613.529411764706  L 403.04347826087 593.695652173913  L 428.260869565217 581.279069767442  L 459.767441860465 562.391304347826  L 472 546.395348837209  L 472 532.826086956522  L 467.391304347826 521.976744186047  L 481.860465116279 502.391304347826  L 536.511627906977 483.260869565217  L 575.338345864662 452.826086956522  L 615.657894736842 434.565217391304  L 646.976744186047 420.652173913044  L 667.906976744186 409.578313253012  L 667.906976744186 399.883720930233  L 674.883720930233 377.650602409639  L 678.55421686747 362.590361445783  L 682.771084337349 349.33734939759  L 694.21686746988 344.06976744186  L 706.265060240964 335.481927710843  L 735.783132530121 328.855421686747  L 746.024096385542 319.901960784314  L 762.549019607843 312.590361445783  L 776.746987951807 300.542168674699  L 788.192771084337 287.289156626506  L 811.084337349398 269.819277108434  L 839.397590361446 257.156862745098  L 847.831325301205 251.746987951807  L 865.301204819277 240.903614457831  L 886.385542168675 231.666666666667  L 914.698795180723 211.987951807229  L 921 198.132530120482  L 921 186.686746987952  L 927 176.764705882353  L 927 149.939759036145  L 932.77108433735 133.674698795181  L 941.204819277109 116.807228915663  L 977.951807228916 87.8915662650602  L 1022.53012048193 54.7590361445783  L 1053.85542168675 25.8433734939759  L 1075.5421686747 7.16867469879518  L 1072.53012048193 0.294117647058826  Z " fill-rule="nonzero" fill="#7f7f7f" stroke="none" fill-opacity="0.996078431372549" transform="matrix(1 0 0 1 210 35 )" />
    <path d="M 1072.53012048193 0.294117647058826  L 1060.58823529412 0.294117647058826  L 993.921568627451 61.078431372549  L 921.372549019608 123.823529411765  L 921 176.764705882353  L 903.725490196078 202.254901960784  L 872.35294117647 231.666666666667  L 805.686274509804 257.156862745098  L 762.549019607843 306.176470588235  L 719.411764705882 319.901960784314  L 674.883720930233 344.06976744186  L 667.906976744186 373.139534883721  L 660.93023255814 399.883720930233  L 646.976744186047 415  L 569.06976744186 447.558139534884  L 536.511627906977 476.627906976744  L 481.860465116279 496.395348837209  L 460 521.976744186047  L 460 546.395348837209  L 410.93023255814 581.279069767442  L 367.941176470588 613.529411764706  L 348.823529411765 657.64705882353  L 367.941176470588 682.64705882353  L 376.764705882353 704.705882352941  L 348.823529411765 753.235294117647  L 313.529411764706 803.235294117647  L 291.470588235294 813.529411764706  L 248.823529411765 792.941176470589  L 178.235294117647 776.764705882353  L 148.823529411765 753.235294117647  L 51 731.176470588235  L 51 691.470588235294  L 62.0588235294118 670  L 32.6470588235294 670  L 0.294117647058812 670.882352941176  L 0 675  L 32.6470588235294 675  L 50.2941176470588 675.294117647059  L 50.2941176470588 682.64705882353  L 45.3488372093023 691.470588235294  L 41.1627906976744 710.581395348837  L 38.8372093023256 728.255813953488  L 45.3488372093023 731.176470588235  L 88.6046511627907 745.46511627907  L 144.883720930233 757.093023255814  L 174.4 780.2  L 210 792.941176470589  L 244.4 798.2  L 274.4 810.2  L 287.6 827.4  L 313.529411764706 843.260869565217  L 348.823529411765 874.565217391304  L 363.04347826087 896.304347826087  L 394.347826086957 911.956521739131  L 452.608695652174 921  L 536.511627906977 921  L 569.06976744186 929.473684210526  L 587.368421052632 936.71052631579  L 603.815789473684 951.842105263158  L 624.868421052632 960.394736842105  L 615 975.526315789474  L 615 988.026315789473  L 637.368421052632 1000.52631578947  L 630.131578947368 1011.05263157895  L 610.394736842105 1024.21052631579  L 587.368421052632 1034.07894736842  L 551.842105263158 1056.44736842105  L 540.375939849624 1074.77443609023  L 536.511627906977 1094.32330827068  L 540 1108.98496240602  L 540 1128.53383458647  L 536.511627906977 1143.57142857143  L 551.842105263158 1154.47368421053  L 565.563909774436 1161.99248120301  L 560.300751879699 1171.76691729323  L 543.759398496241 1180.41353383459  L 540.375939849624 1190.18796992481  L 546.015037593985 1198.83458646617  L 549.398496240602 1203.72180451128  L 551.842105263158 1195.82706766917  L 549.398496240602 1190.18796992481  L 551.842105263158 1180.41353383459  L 565.563909774436 1175.52631578947  L 572.706766917293 1166.87969924812  L 575.338345864662 1159.36090225564  L 560.300751879699 1149.96240601504  L 549 1145.82706766917  L 549 1131.54135338346  L 555.789473684211 1124.02255639098  L 551.842105263158 1104.0977443609  L 549.398496240602 1086.42857142857  L 555.789473684211 1061.24060150376  L 577.593984962406 1049.21052631579  L 608.421052631579 1034.07894736842  L 644 1014.18032786885  L 644 1000.52631578947  L 639.590163934426 992.459016393443  L 624.868421052632 982.622950819672  L 630.131578947368 971.55737704918  L 637.368421052632 962.540983606557  L 624.868421052632 951.842105263158  L 608.421052631579 940  L 585.081967213115 921.521739130435  L 529.344262295082 914.590163934426  L 445.737704918033 907.622950819672  L 394.347826086957 903.125  L 363.04347826087 881.875  L 348.823529411765 861.25  L 321.25 843.260869565217  L 301.875 827.4  L 298.75 819.375  L 321.25 813.529411764706  L 343.125 783.75  L 359.375 757.093023255814  L 367.941176470588 739.375  L 376.764705882353 724.375  L 387 697.173913043478  L 387 682.64705882353  L 367.941176470588 675.294117647059  L 359.375 657.64705882353  L 367.941176470588 623.260869565217  L 386.521739130435 613.529411764706  L 403.04347826087 593.695652173913  L 428.260869565217 581.279069767442  L 459.767441860465 562.391304347826  L 472 546.395348837209  L 472 532.826086956522  L 467.391304347826 521.976744186047  L 481.860465116279 502.391304347826  L 536.511627906977 483.260869565217  L 575.338345864662 452.826086956522  L 615.657894736842 434.565217391304  L 646.976744186047 420.652173913044  L 667.906976744186 409.578313253012  L 667.906976744186 399.883720930233  L 674.883720930233 377.650602409639  L 678.55421686747 362.590361445783  L 682.771084337349 349.33734939759  L 694.21686746988 344.06976744186  L 706.265060240964 335.481927710843  L 735.783132530121 328.855421686747  L 746.024096385542 319.901960784314  L 762.549019607843 312.590361445783  L 776.746987951807 300.542168674699  L 788.192771084337 287.289156626506  L 811.084337349398 269.819277108434  L 839.397590361446 257.156862745098  L 847.831325301205 251.746987951807  L 865.301204819277 240.903614457831  L 886.385542168675 231.666666666667  L 914.698795180723 211.987951807229  L 921 198.132530120482  L 921 186.686746987952  L 927 176.764705882353  L 927 149.939759036145  L 932.77108433735 133.674698795181  L 941.204819277109 116.807228915663  L 977.951807228916 87.8915662650602  L 1022.53012048193 54.7590361445783  L 1053.85542168675 25.8433734939759  L 1075.5421686747 7.16867469879518  L 1072.53012048193 0.294117647058826  Z " stroke-width="2" stroke="#7f7f7f" fill="none" stroke-opacity="0.996078431372549" transform="matrix(1 0 0 1 210 35 )" mask="url(#clip1967)" />
  </g>
</svg>