<?xml version="1.0" encoding="utf-8"?>
<svg version="1.1" xmlns:xlink="http://www.w3.org/1999/xlink" width="2466px" height="1032px" xmlns="http://www.w3.org/2000/svg">
  <defs>
    <mask fill="white" id="clip1965">
      <path d="M 2451.29357798165 17.2110091743119  L 2465.66666666667 0.666666666666664  L 2341.22222222222 49.5555555555555  L 2225.66666666667 65.1111111111111  L 2075.66666666667 75.1111111111111  L 2015.66666666667 108.444444444444  L 1937.88888888889 119.555555555556  L 1840.11111111111 120  L 1770.01449275362 156.753623188406  L 1690.30434782609 175.594202898551  L 1583.05797101449 204.579710144928  L 1484.50724637681 274.144927536232  L 1455.52173913043 300.231884057971  L 1266.14285714286 386.857142857143  L 1073.28571428571 445.428571428571  L 856.142857142857 495.428571428571  L 585.885245901639 547.606557377049  L 295.72131147541 642.688524590164  L 177.688524590164 654.16393442623  L 128.508196721311 685.311475409836  L 100.639344262295 724.655737704918  L 54.7377049180328 757.44262295082  L 0.694915254237287 771.627118644068  L 0.694915254237287 780.101694915254  L 35.4406779661017 771.627118644068  L 62.5593220338983 767.389830508475  L 100.639344262295 747.050847457627  L 128.508196721311 724.655737704918  L 146.457627118644 685.311475409836  L 177.688524590164 669.932203389831  L 222.728813559322 659  L 270.186440677966 659  L 295.72131147541 654.16393442623  L 349 642.688524590164  L 419.338983050847 614.847457627119  L 562.440860215054 571.52688172043  L 682.870967741935 536.043010752688  L 762.440860215054 524.215053763441  L 856.142857142857 510.236559139785  L 936.63440860215 495.428571428571  L 988.189189189189 476.162162162162  L 1083.56790123457 453.506172839504  L 1167.51851851852 422.64197530864  L 1255.17283950617 396.098765432096  L 1292.20987654321 386.857142857143  L 1358.87654320987 354.123456790121  L 1449 313.38271604938  L 1455.52173913043 307.209876543208  L 1444 325.111111111109  L 1444 348.567901234566  L 1433.56790123457 403.506172839504  L 1416 502.888888888887  L 1416 536.043010752688  L 1433.56790123457 577.580246913578  L 1519 626.608695652174  L 1613.78260869565 676.173913043478  L 1653.78260869565 698.782608695652  L 1678.13043478261 730.086956521739  L 1695.52173913043 757.44262295082  L 1759.86956521739 809.217391304348  L 1783.89208633094 845.294964028777  L 1806.91366906475 862.561151079137  L 1835.69064748201 881.26618705036  L 1882.45323741007 918.676258992806  L 1930.65467625899 968.31654676259  L 1957 1007.1654676259  L 1957 1031.62589928058  L 1967 1031.62589928058  L 1967 1007.1654676259  L 1943.60431654676 968.31654676259  L 1868.06474820144 896.374100719425  L 1802.47826086957 845.294964028777  L 1770.01449275362 804  L 1715.52173913043 757.44262295082  L 1690.30434782609 717.913043478261  L 1644.21739130435 685.311475409836  L 1505.95652173913 609.217391304348  L 1444.67901234568 571.52688172043  L 1428.5652173913 524.215053763441  L 1433.56790123457 470.95652173913  L 1449 375  L 1455.52173913043 325.111111111109  L 1474 294  L 1519 258  L 1554 229  L 1589 213  L 1644.21739130435 191  L 1690.30434782609 183  L 1770.01449275362 169.30303030303  L 1815.66666666667 151.878787878788  L 1853.54545454545 129.151515151515  L 1903.54545454545 124  L 1937.88888888889 124  L 1986.12121212121 123.848484848485  L 2025.51515151515 112.484848484848  L 2060.46788990826 97.0275229357798  L 2090.74311926605 83.2660550458716  L 2151.29357798165 76  L 2232.02752293578 76  L 2293.49541284404 65.1111111111111  L 2350.37614678899 58.4954128440367  L 2410.00917431193 38.3119266055046  L 2451.29357798165 17.2110091743119  Z " fill-rule="evenodd" />
    </mask>
  </defs>
  <g transform="matrix(1 0 0 1 -201 -36 )">
    <path d="M 2451.29357798165 17.2110091743119  L 2465.66666666667 0.666666666666664  L 2341.22222222222 49.5555555555555  L 2225.66666666667 65.1111111111111  L 2075.66666666667 75.1111111111111  L 2015.66666666667 108.444444444444  L 1937.88888888889 119.555555555556  L 1840.11111111111 120  L 1770.01449275362 156.753623188406  L 1690.30434782609 175.594202898551  L 1583.05797101449 204.579710144928  L 1484.50724637681 274.144927536232  L 1455.52173913043 300.231884057971  L 1266.14285714286 386.857142857143  L 1073.28571428571 445.428571428571  L 856.142857142857 495.428571428571  L 585.885245901639 547.606557377049  L 295.72131147541 642.688524590164  L 177.688524590164 654.16393442623  L 128.508196721311 685.311475409836  L 100.639344262295 724.655737704918  L 54.7377049180328 757.44262295082  L 0.694915254237287 771.627118644068  L 0.694915254237287 780.101694915254  L 35.4406779661017 771.627118644068  L 62.5593220338983 767.389830508475  L 100.639344262295 747.050847457627  L 128.508196721311 724.655737704918  L 146.457627118644 685.311475409836  L 177.688524590164 669.932203389831  L 222.728813559322 659  L 270.186440677966 659  L 295.72131147541 654.16393442623  L 349 642.688524590164  L 419.338983050847 614.847457627119  L 562.440860215054 571.52688172043  L 682.870967741935 536.043010752688  L 762.440860215054 524.215053763441  L 856.142857142857 510.236559139785  L 936.63440860215 495.428571428571  L 988.189189189189 476.162162162162  L 1083.56790123457 453.506172839504  L 1167.51851851852 422.64197530864  L 1255.17283950617 396.098765432096  L 1292.20987654321 386.857142857143  L 1358.87654320987 354.123456790121  L 1449 313.38271604938  L 1455.52173913043 307.209876543208  L 1444 325.111111111109  L 1444 348.567901234566  L 1433.56790123457 403.506172839504  L 1416 502.888888888887  L 1416 536.043010752688  L 1433.56790123457 577.580246913578  L 1519 626.608695652174  L 1613.78260869565 676.173913043478  L 1653.78260869565 698.782608695652  L 1678.13043478261 730.086956521739  L 1695.52173913043 757.44262295082  L 1759.86956521739 809.217391304348  L 1783.89208633094 845.294964028777  L 1806.91366906475 862.561151079137  L 1835.69064748201 881.26618705036  L 1882.45323741007 918.676258992806  L 1930.65467625899 968.31654676259  L 1957 1007.1654676259  L 1957 1031.62589928058  L 1967 1031.62589928058  L 1967 1007.1654676259  L 1943.60431654676 968.31654676259  L 1868.06474820144 896.374100719425  L 1802.47826086957 845.294964028777  L 1770.01449275362 804  L 1715.52173913043 757.44262295082  L 1690.30434782609 717.913043478261  L 1644.21739130435 685.311475409836  L 1505.95652173913 609.217391304348  L 1444.67901234568 571.52688172043  L 1428.5652173913 524.215053763441  L 1433.56790123457 470.95652173913  L 1449 375  L 1455.52173913043 325.111111111109  L 1474 294  L 1519 258  L 1554 229  L 1589 213  L 1644.21739130435 191  L 1690.30434782609 183  L 1770.01449275362 169.30303030303  L 1815.66666666667 151.878787878788  L 1853.54545454545 129.151515151515  L 1903.54545454545 124  L 1937.88888888889 124  L 1986.12121212121 123.848484848485  L 2025.51515151515 112.484848484848  L 2060.46788990826 97.0275229357798  L 2090.74311926605 83.2660550458716  L 2151.29357798165 76  L 2232.02752293578 76  L 2293.49541284404 65.1111111111111  L 2350.37614678899 58.4954128440367  L 2410.00917431193 38.3119266055046  L 2451.29357798165 17.2110091743119  Z " fill-rule="nonzero" fill="#95f204" stroke="none" transform="matrix(1 0 0 1 201 36 )" />
    <path d="M 2451.29357798165 17.2110091743119  L 2465.66666666667 0.666666666666664  L 2341.22222222222 49.5555555555555  L 2225.66666666667 65.1111111111111  L 2075.66666666667 75.1111111111111  L 2015.66666666667 108.444444444444  L 1937.88888888889 119.555555555556  L 1840.11111111111 120  L 1770.01449275362 156.753623188406  L 1690.30434782609 175.594202898551  L 1583.05797101449 204.579710144928  L 1484.50724637681 274.144927536232  L 1455.52173913043 300.231884057971  L 1266.14285714286 386.857142857143  L 1073.28571428571 445.428571428571  L 856.142857142857 495.428571428571  L 585.885245901639 547.606557377049  L 295.72131147541 642.688524590164  L 177.688524590164 654.16393442623  L 128.508196721311 685.311475409836  L 100.639344262295 724.655737704918  L 54.7377049180328 757.44262295082  L 0.694915254237287 771.627118644068  L 0.694915254237287 780.101694915254  L 35.4406779661017 771.627118644068  L 62.5593220338983 767.389830508475  L 100.639344262295 747.050847457627  L 128.508196721311 724.655737704918  L 146.457627118644 685.311475409836  L 177.688524590164 669.932203389831  L 222.728813559322 659  L 270.186440677966 659  L 295.72131147541 654.16393442623  L 349 642.688524590164  L 419.338983050847 614.847457627119  L 562.440860215054 571.52688172043  L 682.870967741935 536.043010752688  L 762.440860215054 524.215053763441  L 856.142857142857 510.236559139785  L 936.63440860215 495.428571428571  L 988.189189189189 476.162162162162  L 1083.56790123457 453.506172839504  L 1167.51851851852 422.64197530864  L 1255.17283950617 396.098765432096  L 1292.20987654321 386.857142857143  L 1358.87654320987 354.123456790121  L 1449 313.38271604938  L 1455.52173913043 307.209876543208  L 1444 325.111111111109  L 1444 348.567901234566  L 1433.56790123457 403.506172839504  L 1416 502.888888888887  L 1416 536.043010752688  L 1433.56790123457 577.580246913578  L 1519 626.608695652174  L 1613.78260869565 676.173913043478  L 1653.78260869565 698.782608695652  L 1678.13043478261 730.086956521739  L 1695.52173913043 757.44262295082  L 1759.86956521739 809.217391304348  L 1783.89208633094 845.294964028777  L 1806.91366906475 862.561151079137  L 1835.69064748201 881.26618705036  L 1882.45323741007 918.676258992806  L 1930.65467625899 968.31654676259  L 1957 1007.1654676259  L 1957 1031.62589928058  L 1967 1031.62589928058  L 1967 1007.1654676259  L 1943.60431654676 968.31654676259  L 1868.06474820144 896.374100719425  L 1802.47826086957 845.294964028777  L 1770.01449275362 804  L 1715.52173913043 757.44262295082  L 1690.30434782609 717.913043478261  L 1644.21739130435 685.311475409836  L 1505.95652173913 609.217391304348  L 1444.67901234568 571.52688172043  L 1428.5652173913 524.215053763441  L 1433.56790123457 470.95652173913  L 1449 375  L 1455.52173913043 325.111111111109  L 1474 294  L 1519 258  L 1554 229  L 1589 213  L 1644.21739130435 191  L 1690.30434782609 183  L 1770.01449275362 169.30303030303  L 1815.66666666667 151.878787878788  L 1853.54545454545 129.151515151515  L 1903.54545454545 124  L 1937.88888888889 124  L 1986.12121212121 123.848484848485  L 2025.51515151515 112.484848484848  L 2060.46788990826 97.0275229357798  L 2090.74311926605 83.2660550458716  L 2151.29357798165 76  L 2232.02752293578 76  L 2293.49541284404 65.1111111111111  L 2350.37614678899 58.4954128440367  L 2410.00917431193 38.3119266055046  L 2451.29357798165 17.2110091743119  Z " stroke-width="2" stroke="#caf982" fill="none" transform="matrix(1 0 0 1 201 36 )" mask="url(#clip1965)" />
  </g>
</svg>