<?xml version="1.0" encoding="utf-8"?>
<svg version="1.1" xmlns:xlink="http://www.w3.org/1999/xlink" width="2901px" height="1204px" xmlns="http://www.w3.org/2000/svg">
  <defs>
    <mask fill="white" id="clip1961">
      <path d="M 1809.05405405405 32.3783783783784  L 1781.82926829268 0.341463414634148  L 1769.63414634146 49.1219512195122  L 1708.65853658537 102.780487804878  L 1679.39024390244 146.682926829268  L 1708.65853658537 163.756097560976  L 1723.29268292683 164  L 1708.65853658537 219.853658536585  L 1691.58536585366 273.512195121951  L 1652.56097560976 302.780487804878  L 1547.68292682927 344.243902439024  L 1479.39024390244 371.073170731707  L 1428.17073170732 397.90243902439  L 1428 439.365853658537  L 1428.17073170732 463.756097560976  L 1467.19512195122 490.585365853659  L 1479 510.09756097561  L 1479 561.317073170732  L 1450.12195121951 627.170731707317  L 1428.17073170732 683.268292682927  L 1408.65853658537 741.804878048781  L 1335.48780487805 785.707317073171  L 1023.62745098039 891.254901960784  L 729.509803921569 959.882352941176  L 402.058823529412 1063.80392156863  L 68.7254901960785 1161.8431372549  L 0.098039215686299 1187.33333333333  L 0.098039215686299 1203.01960784314  L 147.156862745098 1161.8431372549  L 341.274509803922 1112.82352941176  L 519.705882352941 1052.03921568627  L 802.058823529412 973.607843137255  L 872.647058823529 1020.66666666667  L 976.56862745098 1063.80392156863  L 1023.62745098039 1112.82352941176  L 1038 1138.3137254902  L 1038 1173.60784313725  L 1061 1187.33333333333  L 1061 1138.3137254902  L 1023.62745098039 1063.80392156863  L 921.666666666667 1020.66666666667  L 825.588235294118 973.607843137255  L 872.647058823529 959.882352941176  L 976.56862745098 926.549019607843  L 1090.29411764706 891.254901960784  L 1262.8431372549 840.274509803922  L 1356.96078431373 814.78431372549  L 1408.65853658537 785.707317073171  L 1439.3137254902 741.804878048781  L 1450.12195121951 700  L 1511.75675675676 700  L 1606.35135135135 700  L 1691.58536585366 700  L 1769.63414634146 700  L 1968.51351351351 700  L 2079.32432432432 667.513513513514  L 2125.27027027027 648.594594594595  L 2255 598  L 2311.75675675676 598  L 2395.54054054054 562  L 2498.24324324324 562  L 2541.48648648649 540.486486486486  L 2582.02702702703 490.585365853659  L 2755 464  L 2900.94594594595 464  L 2838.78378378378 439.365853658537  L 2565.81081081081 463.756097560976  L 2517.16216216216 490.585365853659  L 2498.24324324324 540.486486486486  L 2338.78378378378 562  L 2268.51351351351 562  L 2214.45945945946 597.243243243243  L 2125.27027027027 627.170731707317  L 2044.18918918919 667.513513513514  L 1917.16216216216 683  L 1652.56097560976 683  L 1479 683.268292682927  L 1479 597.243243243243  L 1511.75675675676 540.486486486486  L 1525.27027027027 510.09756097561  L 1450 439.365853658537  L 1450 397.90243902439  L 1479.39024390244 371  L 1547.68292682927 371  L 1606.35135135135 344.243902439024  L 1679.39024390244 303  L 1708.65853658537 303  L 1723.29268292683 243.189189189189  L 1744.18918918919 199.945945945946  L 1769.63414634146 183.72972972973  L 1723 146.682926829268  L 1723 102.780487804878  L 1781 83.7297297297297  L 1781 49.1219512195122  L 1809.05405405405 32.3783783783784  Z " fill-rule="evenodd" />
    </mask>
  </defs>
  <g transform="matrix(1 0 0 1 -845 -46 )">
    <path d="M 1809.05405405405 32.3783783783784  L 1781.82926829268 0.341463414634148  L 1769.63414634146 49.1219512195122  L 1708.65853658537 102.780487804878  L 1679.39024390244 146.682926829268  L 1708.65853658537 163.756097560976  L 1723.29268292683 164  L 1708.65853658537 219.853658536585  L 1691.58536585366 273.512195121951  L 1652.56097560976 302.780487804878  L 1547.68292682927 344.243902439024  L 1479.39024390244 371.073170731707  L 1428.17073170732 397.90243902439  L 1428 439.365853658537  L 1428.17073170732 463.756097560976  L 1467.19512195122 490.585365853659  L 1479 510.09756097561  L 1479 561.317073170732  L 1450.12195121951 627.170731707317  L 1428.17073170732 683.268292682927  L 1408.65853658537 741.804878048781  L 1335.48780487805 785.707317073171  L 1023.62745098039 891.254901960784  L 729.509803921569 959.882352941176  L 402.058823529412 1063.80392156863  L 68.7254901960785 1161.8431372549  L 0.098039215686299 1187.33333333333  L 0.098039215686299 1203.01960784314  L 147.156862745098 1161.8431372549  L 341.274509803922 1112.82352941176  L 519.705882352941 1052.03921568627  L 802.058823529412 973.607843137255  L 872.647058823529 1020.66666666667  L 976.56862745098 1063.80392156863  L 1023.62745098039 1112.82352941176  L 1038 1138.3137254902  L 1038 1173.60784313725  L 1061 1187.33333333333  L 1061 1138.3137254902  L 1023.62745098039 1063.80392156863  L 921.666666666667 1020.66666666667  L 825.588235294118 973.607843137255  L 872.647058823529 959.882352941176  L 976.56862745098 926.549019607843  L 1090.29411764706 891.254901960784  L 1262.8431372549 840.274509803922  L 1356.96078431373 814.78431372549  L 1408.65853658537 785.707317073171  L 1439.3137254902 741.804878048781  L 1450.12195121951 700  L 1511.75675675676 700  L 1606.35135135135 700  L 1691.58536585366 700  L 1769.63414634146 700  L 1968.51351351351 700  L 2079.32432432432 667.513513513514  L 2125.27027027027 648.594594594595  L 2255 598  L 2311.75675675676 598  L 2395.54054054054 562  L 2498.24324324324 562  L 2541.48648648649 540.486486486486  L 2582.02702702703 490.585365853659  L 2755 464  L 2900.94594594595 464  L 2838.78378378378 439.365853658537  L 2565.81081081081 463.756097560976  L 2517.16216216216 490.585365853659  L 2498.24324324324 540.486486486486  L 2338.78378378378 562  L 2268.51351351351 562  L 2214.45945945946 597.243243243243  L 2125.27027027027 627.170731707317  L 2044.18918918919 667.513513513514  L 1917.16216216216 683  L 1652.56097560976 683  L 1479 683.268292682927  L 1479 597.243243243243  L 1511.75675675676 540.486486486486  L 1525.27027027027 510.09756097561  L 1450 439.365853658537  L 1450 397.90243902439  L 1479.39024390244 371  L 1547.68292682927 371  L 1606.35135135135 344.243902439024  L 1679.39024390244 303  L 1708.65853658537 303  L 1723.29268292683 243.189189189189  L 1744.18918918919 199.945945945946  L 1769.63414634146 183.72972972973  L 1723 146.682926829268  L 1723 102.780487804878  L 1781 83.7297297297297  L 1781 49.1219512195122  L 1809.05405405405 32.3783783783784  Z " fill-rule="nonzero" fill="#f59a23" stroke="none" transform="matrix(1 0 0 1 845 46 )" />
    <path d="M 1809.05405405405 32.3783783783784  L 1781.82926829268 0.341463414634148  L 1769.63414634146 49.1219512195122  L 1708.65853658537 102.780487804878  L 1679.39024390244 146.682926829268  L 1708.65853658537 163.756097560976  L 1723.29268292683 164  L 1708.65853658537 219.853658536585  L 1691.58536585366 273.512195121951  L 1652.56097560976 302.780487804878  L 1547.68292682927 344.243902439024  L 1479.39024390244 371.073170731707  L 1428.17073170732 397.90243902439  L 1428 439.365853658537  L 1428.17073170732 463.756097560976  L 1467.19512195122 490.585365853659  L 1479 510.09756097561  L 1479 561.317073170732  L 1450.12195121951 627.170731707317  L 1428.17073170732 683.268292682927  L 1408.65853658537 741.804878048781  L 1335.48780487805 785.707317073171  L 1023.62745098039 891.254901960784  L 729.509803921569 959.882352941176  L 402.058823529412 1063.80392156863  L 68.7254901960785 1161.8431372549  L 0.098039215686299 1187.33333333333  L 0.098039215686299 1203.01960784314  L 147.156862745098 1161.8431372549  L 341.274509803922 1112.82352941176  L 519.705882352941 1052.03921568627  L 802.058823529412 973.607843137255  L 872.647058823529 1020.66666666667  L 976.56862745098 1063.80392156863  L 1023.62745098039 1112.82352941176  L 1038 1138.3137254902  L 1038 1173.60784313725  L 1061 1187.33333333333  L 1061 1138.3137254902  L 1023.62745098039 1063.80392156863  L 921.666666666667 1020.66666666667  L 825.588235294118 973.607843137255  L 872.647058823529 959.882352941176  L 976.56862745098 926.549019607843  L 1090.29411764706 891.254901960784  L 1262.8431372549 840.274509803922  L 1356.96078431373 814.78431372549  L 1408.65853658537 785.707317073171  L 1439.3137254902 741.804878048781  L 1450.12195121951 700  L 1511.75675675676 700  L 1606.35135135135 700  L 1691.58536585366 700  L 1769.63414634146 700  L 1968.51351351351 700  L 2079.32432432432 667.513513513514  L 2125.27027027027 648.594594594595  L 2255 598  L 2311.75675675676 598  L 2395.54054054054 562  L 2498.24324324324 562  L 2541.48648648649 540.486486486486  L 2582.02702702703 490.585365853659  L 2755 464  L 2900.94594594595 464  L 2838.78378378378 439.365853658537  L 2565.81081081081 463.756097560976  L 2517.16216216216 490.585365853659  L 2498.24324324324 540.486486486486  L 2338.78378378378 562  L 2268.51351351351 562  L 2214.45945945946 597.243243243243  L 2125.27027027027 627.170731707317  L 2044.18918918919 667.513513513514  L 1917.16216216216 683  L 1652.56097560976 683  L 1479 683.268292682927  L 1479 597.243243243243  L 1511.75675675676 540.486486486486  L 1525.27027027027 510.09756097561  L 1450 439.365853658537  L 1450 397.90243902439  L 1479.39024390244 371  L 1547.68292682927 371  L 1606.35135135135 344.243902439024  L 1679.39024390244 303  L 1708.65853658537 303  L 1723.29268292683 243.189189189189  L 1744.18918918919 199.945945945946  L 1769.63414634146 183.72972972973  L 1723 146.682926829268  L 1723 102.780487804878  L 1781 83.7297297297297  L 1781 49.1219512195122  L 1809.05405405405 32.3783783783784  Z " stroke-width="2" stroke="#f59a23" fill="none" transform="matrix(1 0 0 1 845 46 )" mask="url(#clip1961)" />
  </g>
</svg>