<?xml version="1.0" encoding="utf-8"?>
<svg version="1.1" xmlns:xlink="http://www.w3.org/1999/xlink" width="104px" height="86px" xmlns="http://www.w3.org/2000/svg">
  <defs>
    <mask fill="white" id="clip1975">
      <path d="M 67 27  C 95.5389393373425 50.5745137727004  104 86  104 86  C 104 86  103.945138686834 43.2633459097383  77 20  C 47.0318269849313 -5.87331181461209  0 1  0 1  C 0 1  37.5488592027609 2.67196467467255  67 27  Z " fill-rule="evenodd" />
    </mask>
  </defs>
  <g transform="matrix(1 0 0 1 -2226 -214 )">
    <path d="M 67 27  C 95.5389393373425 50.5745137727004  104 86  104 86  C 104 86  103.945138686834 43.2633459097383  77 20  C 47.0318269849313 -5.87331181461209  0 1  0 1  C 0 1  37.5488592027609 2.67196467467255  67 27  Z " fill-rule="nonzero" fill="#80ffff" stroke="none" transform="matrix(1 0 0 1 2226 214 )" />
    <path d="M 67 27  C 95.5389393373425 50.5745137727004  104 86  104 86  C 104 86  103.945138686834 43.2633459097383  77 20  C 47.0318269849313 -5.87331181461209  0 1  0 1  C 0 1  37.5488592027609 2.67196467467255  67 27  Z " stroke-width="2" stroke="#ffffff" fill="none" transform="matrix(1 0 0 1 2226 214 )" mask="url(#clip1975)" />
  </g>
</svg>