<?xml version="1.0" encoding="utf-8"?>
<svg version="1.1" xmlns:xlink="http://www.w3.org/1999/xlink" width="245px" height="512px" xmlns="http://www.w3.org/2000/svg">
  <defs>
    <mask fill="white" id="clip1970">
      <path d="M 133 305  C 151.896521420332 266.211634636767  168.25334143709 228.001990379562  182.171321304733 192.455396201952  C 224.553631319295 84.2107523151063  244.320754716981 0.660377358490564  244.320754716981 0.660377358490564  C 244.320754716981 0.660377358490564  200.543665497941 132.08182632807  123 293.11320754717  C 62.9566036051769 417.802580850022  0.924528301886767 511.981132075472  0.924528301886767 511.981132075472  C 0.924528301886767 511.981132075472  70.555873287849 433.177326811742  133 305  Z " fill-rule="evenodd" />
    </mask>
  </defs>
  <g transform="matrix(1 0 0 1 -2067 -305 )">
    <path d="M 133 305  C 151.896521420332 266.211634636767  168.25334143709 228.001990379562  182.171321304733 192.455396201952  C 224.553631319295 84.2107523151063  244.320754716981 0.660377358490564  244.320754716981 0.660377358490564  C 244.320754716981 0.660377358490564  200.543665497941 132.08182632807  123 293.11320754717  C 62.9566036051769 417.802580850022  0.924528301886767 511.981132075472  0.924528301886767 511.981132075472  C 0.924528301886767 511.981132075472  70.555873287849 433.177326811742  133 305  Z " fill-rule="nonzero" fill="#00ffff" stroke="none" transform="matrix(1 0 0 1 2067 305 )" />
    <path d="M 133 305  C 151.896521420332 266.211634636767  168.25334143709 228.001990379562  182.171321304733 192.455396201952  C 224.553631319295 84.2107523151063  244.320754716981 0.660377358490564  244.320754716981 0.660377358490564  C 244.320754716981 0.660377358490564  200.543665497941 132.08182632807  123 293.11320754717  C 62.9566036051769 417.802580850022  0.924528301886767 511.981132075472  0.924528301886767 511.981132075472  C 0.924528301886767 511.981132075472  70.555873287849 433.177326811742  133 305  Z " stroke-width="2" stroke="#ffffff" fill="none" transform="matrix(1 0 0 1 2067 305 )" mask="url(#clip1970)" />
  </g>
</svg>