<?xml version="1.0" encoding="utf-8"?>
<svg version="1.1" xmlns:xlink="http://www.w3.org/1999/xlink" width="2530px" height="472px" xmlns="http://www.w3.org/2000/svg">
  <defs>
    <mask fill="white" id="clip1963">
      <path d="M 164.538461538462 0.111111111111086  L 0.777777777777771 0.111111111111086  L 378.555555555555 22.3333333333333  C 378.555555555555 22.3333333333333  380.919334866283 51.0848993104809  400.777777777778 69  C 441.554208006667 105.786059036222  500.777777777778 104.555555555556  500.777777777778 104.555555555556  L 663 105  L 838.555555555555 129  L 909.666666666667 129  L 1143 105  L 1309.66666666667 104.555555555556  L 1348.58823529412 121  L 1410.35294117647 121  L 1439.76470588235 105  L 1503 105  L 1554.47058823529 93.7058823529411  L 1622.11764705882 79  L 1641.23529411765 79  L 1667.70588235294 61.3529411764705  L 1704.47058823529 51.0588235294117  L 1785.35294117647 36.3529411764705  L 1892.70588235294 23  L 1923.58823529412 23  L 1947.11764705882 61.3529411764705  L 1910.35294117647 93.7058823529411  L 1923.58823529412 129  L 1936.82352941176 145.176470588235  L 1961.82352941176 162.823529411765  L 2014.76470588235 190.764705882353  L 2051.52941176471 239.294117647059  L 2042.70588235294 267.235294117647  L 1978 298.117647058823  L 1841.23529411765 326.058823529412  L 1692.70588235294 373.117647058823  L 1544.17647058823 424.588235294118  L 1532.41176470588 449.588235294118  L 1439.76470588235 471.647058823529  L 1532.41176470588 458.411764705882  L 1554.47058823529 424.588235294118  L 1692.70588235294 383.411764705882  L 1848.58823529412 337.823529411765  L 1978 305.470588235294  L 2042.70588235294 277.529411764706  L 2078.47169811321 267.235294117647  L 2189.79245283019 249.754716981132  L 2304.88679245283 239  L 2395.45283018868 239  L 2508.66037735849 222  L 2529.41509433962 222  L 2489.79245283019 221.452830188679  L 2395.45283018868 232  L 2304.88679245283 232  L 2189.79245283019 244.652173913044  L 2078.47169811321 261.173913043478  L 2051.52941176471 267.235294117647  L 2056.91304347826 244.652173913044  L 2019.52173913043 190.764705882353  L 1961.82352941176 156.826086956522  L 1947.11764705882 145.176470588235  L 1929.95652173913 120.176470588235  L 1923.58823529412 110.739130434783  L 1915.17391304348 93.7058823529411  L 1947.11764705882 69  L 1956.04347826087 61.3529411764705  L 1929.95652173913 22.3333333333333  L 1892.70588235294 13.7058823529412  L 1785.35294117647 22.3333333333333  L 1704.47058823529 43.1176470588235  L 1667.70588235294 51.0588235294117  L 1641.23529411765 69  L 1622.11764705882 69  L 1554.47058823529 78.9999999999999  L 1503 93.7058823529411  L 1439.76470588235 100.351351351351  L 1410.35294117647 114  L 1348.58823529412 114  L 1309.66666666667 101  L 1143 101  L 909.666666666667 120.176470588235  L 838.555555555555 124.867768595041  L 663 94  L 500.777777777778 94  L 400.777777777778 61.3529411764705  L 384.318681318681 13.7058823529412  L 164.538461538462 0.111111111111086  Z " fill-rule="evenodd" />
    </mask>
  </defs>
  <g transform="matrix(1 0 0 1 -197 -771 )">
    <path d="M 164.538461538462 0.111111111111086  L 0.777777777777771 0.111111111111086  L 378.555555555555 22.3333333333333  C 378.555555555555 22.3333333333333  380.919334866283 51.0848993104809  400.777777777778 69  C 441.554208006667 105.786059036222  500.777777777778 104.555555555556  500.777777777778 104.555555555556  L 663 105  L 838.555555555555 129  L 909.666666666667 129  L 1143 105  L 1309.66666666667 104.555555555556  L 1348.58823529412 121  L 1410.35294117647 121  L 1439.76470588235 105  L 1503 105  L 1554.47058823529 93.7058823529411  L 1622.11764705882 79  L 1641.23529411765 79  L 1667.70588235294 61.3529411764705  L 1704.47058823529 51.0588235294117  L 1785.35294117647 36.3529411764705  L 1892.70588235294 23  L 1923.58823529412 23  L 1947.11764705882 61.3529411764705  L 1910.35294117647 93.7058823529411  L 1923.58823529412 129  L 1936.82352941176 145.176470588235  L 1961.82352941176 162.823529411765  L 2014.76470588235 190.764705882353  L 2051.52941176471 239.294117647059  L 2042.70588235294 267.235294117647  L 1978 298.117647058823  L 1841.23529411765 326.058823529412  L 1692.70588235294 373.117647058823  L 1544.17647058823 424.588235294118  L 1532.41176470588 449.588235294118  L 1439.76470588235 471.647058823529  L 1532.41176470588 458.411764705882  L 1554.47058823529 424.588235294118  L 1692.70588235294 383.411764705882  L 1848.58823529412 337.823529411765  L 1978 305.470588235294  L 2042.70588235294 277.529411764706  L 2078.47169811321 267.235294117647  L 2189.79245283019 249.754716981132  L 2304.88679245283 239  L 2395.45283018868 239  L 2508.66037735849 222  L 2529.41509433962 222  L 2489.79245283019 221.452830188679  L 2395.45283018868 232  L 2304.88679245283 232  L 2189.79245283019 244.652173913044  L 2078.47169811321 261.173913043478  L 2051.52941176471 267.235294117647  L 2056.91304347826 244.652173913044  L 2019.52173913043 190.764705882353  L 1961.82352941176 156.826086956522  L 1947.11764705882 145.176470588235  L 1929.95652173913 120.176470588235  L 1923.58823529412 110.739130434783  L 1915.17391304348 93.7058823529411  L 1947.11764705882 69  L 1956.04347826087 61.3529411764705  L 1929.95652173913 22.3333333333333  L 1892.70588235294 13.7058823529412  L 1785.35294117647 22.3333333333333  L 1704.47058823529 43.1176470588235  L 1667.70588235294 51.0588235294117  L 1641.23529411765 69  L 1622.11764705882 69  L 1554.47058823529 78.9999999999999  L 1503 93.7058823529411  L 1439.76470588235 100.351351351351  L 1410.35294117647 114  L 1348.58823529412 114  L 1309.66666666667 101  L 1143 101  L 909.666666666667 120.176470588235  L 838.555555555555 124.867768595041  L 663 94  L 500.777777777778 94  L 400.777777777778 61.3529411764705  L 384.318681318681 13.7058823529412  L 164.538461538462 0.111111111111086  Z " fill-rule="nonzero" fill="#d9001b" stroke="none" transform="matrix(1 0 0 1 197 771 )" />
    <path d="M 164.538461538462 0.111111111111086  L 0.777777777777771 0.111111111111086  L 378.555555555555 22.3333333333333  C 378.555555555555 22.3333333333333  380.919334866283 51.0848993104809  400.777777777778 69  C 441.554208006667 105.786059036222  500.777777777778 104.555555555556  500.777777777778 104.555555555556  L 663 105  L 838.555555555555 129  L 909.666666666667 129  L 1143 105  L 1309.66666666667 104.555555555556  L 1348.58823529412 121  L 1410.35294117647 121  L 1439.76470588235 105  L 1503 105  L 1554.47058823529 93.7058823529411  L 1622.11764705882 79  L 1641.23529411765 79  L 1667.70588235294 61.3529411764705  L 1704.47058823529 51.0588235294117  L 1785.35294117647 36.3529411764705  L 1892.70588235294 23  L 1923.58823529412 23  L 1947.11764705882 61.3529411764705  L 1910.35294117647 93.7058823529411  L 1923.58823529412 129  L 1936.82352941176 145.176470588235  L 1961.82352941176 162.823529411765  L 2014.76470588235 190.764705882353  L 2051.52941176471 239.294117647059  L 2042.70588235294 267.235294117647  L 1978 298.117647058823  L 1841.23529411765 326.058823529412  L 1692.70588235294 373.117647058823  L 1544.17647058823 424.588235294118  L 1532.41176470588 449.588235294118  L 1439.76470588235 471.647058823529  L 1532.41176470588 458.411764705882  L 1554.47058823529 424.588235294118  L 1692.70588235294 383.411764705882  L 1848.58823529412 337.823529411765  L 1978 305.470588235294  L 2042.70588235294 277.529411764706  L 2078.47169811321 267.235294117647  L 2189.79245283019 249.754716981132  L 2304.88679245283 239  L 2395.45283018868 239  L 2508.66037735849 222  L 2529.41509433962 222  L 2489.79245283019 221.452830188679  L 2395.45283018868 232  L 2304.88679245283 232  L 2189.79245283019 244.652173913044  L 2078.47169811321 261.173913043478  L 2051.52941176471 267.235294117647  L 2056.91304347826 244.652173913044  L 2019.52173913043 190.764705882353  L 1961.82352941176 156.826086956522  L 1947.11764705882 145.176470588235  L 1929.95652173913 120.176470588235  L 1923.58823529412 110.739130434783  L 1915.17391304348 93.7058823529411  L 1947.11764705882 69  L 1956.04347826087 61.3529411764705  L 1929.95652173913 22.3333333333333  L 1892.70588235294 13.7058823529412  L 1785.35294117647 22.3333333333333  L 1704.47058823529 43.1176470588235  L 1667.70588235294 51.0588235294117  L 1641.23529411765 69  L 1622.11764705882 69  L 1554.47058823529 78.9999999999999  L 1503 93.7058823529411  L 1439.76470588235 100.351351351351  L 1410.35294117647 114  L 1348.58823529412 114  L 1309.66666666667 101  L 1143 101  L 909.666666666667 120.176470588235  L 838.555555555555 124.867768595041  L 663 94  L 500.777777777778 94  L 400.777777777778 61.3529411764705  L 384.318681318681 13.7058823529412  L 164.538461538462 0.111111111111086  Z " stroke-width="2" stroke="#ec808d" fill="none" transform="matrix(1 0 0 1 197 771 )" mask="url(#clip1963)" />
  </g>
</svg>