<?xml version="1.0" encoding="utf-8"?>
<svg version="1.1" xmlns:xlink="http://www.w3.org/1999/xlink" width="823px" height="126px" xmlns="http://www.w3.org/2000/svg">
  <defs>
    <mask fill="white" id="clip1966">
      <path d="M 31.2881355932204 126  L 0.779661016949262 125.457627118644  L 95.6949152542375 98.3389830508474  L 195.694915254237 98  L 324.508474576271 98  L 490.610169491526 98  L 602.474576271187 66.1355932203389  L 753.322033898305 16.9830508474577  L 822.813559322034 0.0338983050849038  L 822.813559322034 16.9830508474577  L 709.254237288136 47.4915254237289  L 582.135593220339 98  L 490.610169491526 110.203389830509  L 363.491525423729 125.457627118644  L 309.254237288136 110  L 195.694915254237 110  L 95.6949152542375 110.203389830509  L 31.2881355932204 126  Z " fill-rule="evenodd" />
    </mask>
  </defs>
  <g transform="matrix(1 0 0 1 -1006 -1122 )">
    <path d="M 31.2881355932204 126  L 0.779661016949262 125.457627118644  L 95.6949152542375 98.3389830508474  L 195.694915254237 98  L 324.508474576271 98  L 490.610169491526 98  L 602.474576271187 66.1355932203389  L 753.322033898305 16.9830508474577  L 822.813559322034 0.0338983050849038  L 822.813559322034 16.9830508474577  L 709.254237288136 47.4915254237289  L 582.135593220339 98  L 490.610169491526 110.203389830509  L 363.491525423729 125.457627118644  L 309.254237288136 110  L 195.694915254237 110  L 95.6949152542375 110.203389830509  L 31.2881355932204 126  Z " fill-rule="nonzero" fill="#ec80db" stroke="none" fill-opacity="0.996078431372549" transform="matrix(1 0 0 1 1006 1122 )" />
    <path d="M 31.2881355932204 126  L 0.779661016949262 125.457627118644  L 95.6949152542375 98.3389830508474  L 195.694915254237 98  L 324.508474576271 98  L 490.610169491526 98  L 602.474576271187 66.1355932203389  L 753.322033898305 16.9830508474577  L 822.813559322034 0.0338983050849038  L 822.813559322034 16.9830508474577  L 709.254237288136 47.4915254237289  L 582.135593220339 98  L 490.610169491526 110.203389830509  L 363.491525423729 125.457627118644  L 309.254237288136 110  L 195.694915254237 110  L 95.6949152542375 110.203389830509  L 31.2881355932204 126  Z " stroke-width="2" stroke="#c280ff" fill="none" stroke-opacity="0.996078431372549" transform="matrix(1 0 0 1 1006 1122 )" mask="url(#clip1966)" />
  </g>
</svg>