<?xml version="1.0" encoding="utf-8"?>
<svg version="1.1" xmlns:xlink="http://www.w3.org/1999/xlink" width="601px" height="95px" xmlns="http://www.w3.org/2000/svg">
  <defs>
    <mask fill="white" id="clip1977">
      <path d="M 456.071428571428 37.1428571428571  C 209.945129297755 -13.2218536813114  0.714285714285325 24.6428571428571  0.714285714285325 24.6428571428571  C 0.714285714285325 24.6428571428571  213.693715677143 -30.6686342506875  456.071428571428 24.6428571428571  C 541.521400762743 44.1428571428571  600.714285714285 94.2857142857143  600.714285714285 94.2857142857143  C 600.714285714285 94.2857142857143  540.10098341396 54.3377860993191  456.071428571428 37.1428571428571  Z " fill-rule="evenodd" />
    </mask>
  </defs>
  <g transform="matrix(1 0 0 1 -2335 -270 )">
    <path d="M 456.071428571428 37.1428571428571  C 209.945129297755 -13.2218536813114  0.714285714285325 24.6428571428571  0.714285714285325 24.6428571428571  C 0.714285714285325 24.6428571428571  213.693715677143 -30.6686342506875  456.071428571428 24.6428571428571  C 541.521400762743 44.1428571428571  600.714285714285 94.2857142857143  600.714285714285 94.2857142857143  C 600.714285714285 94.2857142857143  540.10098341396 54.3377860993191  456.071428571428 37.1428571428571  Z " fill-rule="nonzero" fill="#80ffff" stroke="none" transform="matrix(1 0 0 1 2335 270 )" />
    <path d="M 456.071428571428 37.1428571428571  C 209.945129297755 -13.2218536813114  0.714285714285325 24.6428571428571  0.714285714285325 24.6428571428571  C 0.714285714285325 24.6428571428571  213.693715677143 -30.6686342506875  456.071428571428 24.6428571428571  C 541.521400762743 44.1428571428571  600.714285714285 94.2857142857143  600.714285714285 94.2857142857143  C 600.714285714285 94.2857142857143  540.10098341396 54.3377860993191  456.071428571428 37.1428571428571  Z " stroke-width="2" stroke="#ffffff" fill="none" transform="matrix(1 0 0 1 2335 270 )" mask="url(#clip1977)" />
  </g>
</svg>