<?xml version="1.0" encoding="utf-8"?>
<svg version="1.1" xmlns:xlink="http://www.w3.org/1999/xlink" width="86px" height="236px" xmlns="http://www.w3.org/2000/svg">
  <defs>
    <mask fill="white" id="clip1974">
      <path d="M 82.6129032258063 98.4193548387097  C 65.2729999749204 181.209730849661  0.354838709677551 235.516129032258  0.354838709677551 235.516129032258  C 0.354838709677551 235.516129032258  50.1633802380179 179.825801058759  69.7096774193546 98.4193548387097  C 82.2265789531116 46.2889455803082  70 0.0322580645161281  70 0.0322580645161281  C 70 0.0322580645161281  93.3708106413601 47.0551005439698  82.6129032258063 98.4193548387097  Z " fill-rule="evenodd" />
    </mask>
  </defs>
  <g transform="matrix(1 0 0 1 -2319 -79 )">
    <path d="M 82.6129032258063 98.4193548387097  C 65.2729999749204 181.209730849661  0.354838709677551 235.516129032258  0.354838709677551 235.516129032258  C 0.354838709677551 235.516129032258  50.1633802380179 179.825801058759  69.7096774193546 98.4193548387097  C 82.2265789531116 46.2889455803082  70 0.0322580645161281  70 0.0322580645161281  C 70 0.0322580645161281  93.3708106413601 47.0551005439698  82.6129032258063 98.4193548387097  Z " fill-rule="nonzero" fill="#80ffff" stroke="none" transform="matrix(1 0 0 1 2319 79 )" />
    <path d="M 82.6129032258063 98.4193548387097  C 65.2729999749204 181.209730849661  0.354838709677551 235.516129032258  0.354838709677551 235.516129032258  C 0.354838709677551 235.516129032258  50.1633802380179 179.825801058759  69.7096774193546 98.4193548387097  C 82.2265789531116 46.2889455803082  70 0.0322580645161281  70 0.0322580645161281  C 70 0.0322580645161281  93.3708106413601 47.0551005439698  82.6129032258063 98.4193548387097  Z " stroke-width="2" stroke="#ffffff" fill="none" transform="matrix(1 0 0 1 2319 79 )" mask="url(#clip1974)" />
  </g>
</svg>