<?xml version="1.0" encoding="utf-8"?>
<svg version="1.1" xmlns:xlink="http://www.w3.org/1999/xlink" width="577px" height="102px" xmlns="http://www.w3.org/2000/svg">
  <defs>
    <mask fill="white" id="clip1964">
      <path d="M 103.140845070423 0.197183098591609  L 0.323943661971953 0.197183098591609  L 103.140845070423 18.5070422535211  L 241.169014084507 46.6760563380282  L 289.056338028169 55.1267605633803  L 425.676056338029 88.9295774647887  L 576.380281690141 101.605633802817  L 472.154929577465 88.9295774647887  L 425.676056338029 76.2535211267606  L 289.056338028169 46.6760563380282  L 241.169014084507 32.5915492957747  L 103.140845070423 0.197183098591609  Z " fill-rule="evenodd" />
    </mask>
  </defs>
  <g transform="matrix(1 0 0 1 -2187 -866 )">
    <path d="M 103.140845070423 0.197183098591609  L 0.323943661971953 0.197183098591609  L 103.140845070423 18.5070422535211  L 241.169014084507 46.6760563380282  L 289.056338028169 55.1267605633803  L 425.676056338029 88.9295774647887  L 576.380281690141 101.605633802817  L 472.154929577465 88.9295774647887  L 425.676056338029 76.2535211267606  L 289.056338028169 46.6760563380282  L 241.169014084507 32.5915492957747  L 103.140845070423 0.197183098591609  Z " fill-rule="nonzero" fill="#ffff80" stroke="none" transform="matrix(1 0 0 1 2187 866 )" />
    <path d="M 103.140845070423 0.197183098591609  L 0.323943661971953 0.197183098591609  L 103.140845070423 18.5070422535211  L 241.169014084507 46.6760563380282  L 289.056338028169 55.1267605633803  L 425.676056338029 88.9295774647887  L 576.380281690141 101.605633802817  L 472.154929577465 88.9295774647887  L 425.676056338029 76.2535211267606  L 289.056338028169 46.6760563380282  L 241.169014084507 32.5915492957747  L 103.140845070423 0.197183098591609  Z " stroke-width="2" stroke="#ffff00" fill="none" transform="matrix(1 0 0 1 2187 866 )" mask="url(#clip1964)" />
  </g>
</svg>