<?xml version="1.0" encoding="utf-8"?>
<svg version="1.1" xmlns:xlink="http://www.w3.org/1999/xlink" width="2111px" height="599px" xmlns="http://www.w3.org/2000/svg">
  <defs>
    <mask fill="white" id="clip1962">
      <path d="M 478.125 259.0625  L 0 155.714285714286  L 211.428571428571 227.142857142857  L 534.285714285714 284.285714285714  L 748.571428571429 312.857142857143  L 1057.14285714286 350  L 1385.71428571429 350  L 1405.71428571429 441.428571428571  L 1448.57142857143 515.714285714286  L 1517.14285714286 598.571428571429  L 1557.14285714286 599  L 1471.42857142857 515.714285714286  L 1405.71428571429 367.142857142857  L 1558 344.285714285714  L 1725.71428571429 367  L 1772.8813559322 367  L 1908.47457627119 383.559322033898  L 2076.27118644068 412  L 2110.16949152542 412  L 2110.16949152542 397.118644067797  L 1937.28813559322 367.142857142857  L 1789.83050847458 350  L 1633.89830508475 334  L 1448.57142857143 334  L 1405.71428571429 334.406779661017  L 1289.83050847458 137.796610169492  L 1241.17647058824 80.2941176470588  L 1167.64705882353 11.1764705882353  L 1152.94117647059 0.882352941176464  L 1264.70588235294 137.796610169492  L 1357.35294117647 284.285714285714  L 1385.71428571429 334.406779661017  L 960.9375 312.857142857143  L 678.125 284.285714285714  L 478.125 259.0625  Z " fill-rule="evenodd" />
    </mask>
  </defs>
  <g transform="matrix(1 0 0 1 -200 -230 )">
    <path d="M 478.125 259.0625  L 0 155.714285714286  L 211.428571428571 227.142857142857  L 534.285714285714 284.285714285714  L 748.571428571429 312.857142857143  L 1057.14285714286 350  L 1385.71428571429 350  L 1405.71428571429 441.428571428571  L 1448.57142857143 515.714285714286  L 1517.14285714286 598.571428571429  L 1557.14285714286 599  L 1471.42857142857 515.714285714286  L 1405.71428571429 367.142857142857  L 1558 344.285714285714  L 1725.71428571429 367  L 1772.8813559322 367  L 1908.47457627119 383.559322033898  L 2076.27118644068 412  L 2110.16949152542 412  L 2110.16949152542 397.118644067797  L 1937.28813559322 367.142857142857  L 1789.83050847458 350  L 1633.89830508475 334  L 1448.57142857143 334  L 1405.71428571429 334.406779661017  L 1289.83050847458 137.796610169492  L 1241.17647058824 80.2941176470588  L 1167.64705882353 11.1764705882353  L 1152.94117647059 0.882352941176464  L 1264.70588235294 137.796610169492  L 1357.35294117647 284.285714285714  L 1385.71428571429 334.406779661017  L 960.9375 312.857142857143  L 678.125 284.285714285714  L 478.125 259.0625  Z " fill-rule="nonzero" fill="#ffff80" stroke="none" transform="matrix(1 0 0 1 200 230 )" />
    <path d="M 478.125 259.0625  L 0 155.714285714286  L 211.428571428571 227.142857142857  L 534.285714285714 284.285714285714  L 748.571428571429 312.857142857143  L 1057.14285714286 350  L 1385.71428571429 350  L 1405.71428571429 441.428571428571  L 1448.57142857143 515.714285714286  L 1517.14285714286 598.571428571429  L 1557.14285714286 599  L 1471.42857142857 515.714285714286  L 1405.71428571429 367.142857142857  L 1558 344.285714285714  L 1725.71428571429 367  L 1772.8813559322 367  L 1908.47457627119 383.559322033898  L 2076.27118644068 412  L 2110.16949152542 412  L 2110.16949152542 397.118644067797  L 1937.28813559322 367.142857142857  L 1789.83050847458 350  L 1633.89830508475 334  L 1448.57142857143 334  L 1405.71428571429 334.406779661017  L 1289.83050847458 137.796610169492  L 1241.17647058824 80.2941176470588  L 1167.64705882353 11.1764705882353  L 1152.94117647059 0.882352941176464  L 1264.70588235294 137.796610169492  L 1357.35294117647 284.285714285714  L 1385.71428571429 334.406779661017  L 960.9375 312.857142857143  L 678.125 284.285714285714  L 478.125 259.0625  Z " stroke-width="2" stroke="#ffff00" fill="none" transform="matrix(1 0 0 1 200 230 )" mask="url(#clip1962)" />
  </g>
</svg>