<?xml version="1.0" encoding="utf-8"?>
<svg version="1.1" xmlns:xlink="http://www.w3.org/1999/xlink" width="1806px" height="521px" xmlns="http://www.w3.org/2000/svg">
  <defs>
    <mask fill="white" id="clip1972">
      <path d="M 836.555555555556 123  C 1358.20328313916 -28.1063082370148  1806 6.88888888888891  1806 6.88888888888891  C 1806 6.88888888888891  1352.95628385875 -39.5547324104284  836.555555555556 109.666666666667  C 343.017907215981 252.281450779076  0.444444444444457 520.777777777778  0.444444444444457 520.777777777778  C 0.444444444444457 520.777777777778  348.458326850281 264.387695930396  836.555555555556 123  Z " fill-rule="evenodd" />
    </mask>
  </defs>
  <g transform="matrix(1 0 0 1 -494 -307 )">
    <path d="M 836.555555555556 123  C 1358.20328313916 -28.1063082370148  1806 6.88888888888891  1806 6.88888888888891  C 1806 6.88888888888891  1352.95628385875 -39.5547324104284  836.555555555556 109.666666666667  C 343.017907215981 252.281450779076  0.444444444444457 520.777777777778  0.444444444444457 520.777777777778  C 0.444444444444457 520.777777777778  348.458326850281 264.387695930396  836.555555555556 123  Z " fill-rule="nonzero" fill="#80ffff" stroke="none" transform="matrix(1 0 0 1 494 307 )" />
    <path d="M 836.555555555556 123  C 1358.20328313916 -28.1063082370148  1806 6.88888888888891  1806 6.88888888888891  C 1806 6.88888888888891  1352.95628385875 -39.5547324104284  836.555555555556 109.666666666667  C 343.017907215981 252.281450779076  0.444444444444457 520.777777777778  0.444444444444457 520.777777777778  C 0.444444444444457 520.777777777778  348.458326850281 264.387695930396  836.555555555556 123  Z " stroke-width="2" stroke="#ffffff" fill="none" transform="matrix(1 0 0 1 494 307 )" mask="url(#clip1972)" />
  </g>
</svg>