<?xml version="1.0" encoding="utf-8"?>
<svg version="1.1" xmlns:xlink="http://www.w3.org/1999/xlink" width="1153px" height="905px" xmlns="http://www.w3.org/2000/svg">
  <defs>
    <mask fill="white" id="clip1973">
      <path d="M 460 472.5  C 824.915830181335 179.407942275158  1152.5 0  1152.5 0  C 1152.5 0  819.74760996755 165.357772857831  460 455  C 180.61404941026 679.940949484955  0 905  0 905  C 0 905  185.164864109254 693.241302105961  460 472.5  Z " fill-rule="evenodd" />
    </mask>
  </defs>
  <g transform="matrix(1 0 0 1 -1150 -315 )">
    <path d="M 460 472.5  C 824.915830181335 179.407942275158  1152.5 0  1152.5 0  C 1152.5 0  819.74760996755 165.357772857831  460 455  C 180.61404941026 679.940949484955  0 905  0 905  C 0 905  185.164864109254 693.241302105961  460 472.5  Z " fill-rule="nonzero" fill="#80ffff" stroke="none" transform="matrix(1 0 0 1 1150 315 )" />
    <path d="M 460 472.5  C 824.915830181335 179.407942275158  1152.5 0  1152.5 0  C 1152.5 0  819.74760996755 165.357772857831  460 455  C 180.61404941026 679.940949484955  0 905  0 905  C 0 905  185.164864109254 693.241302105961  460 472.5  Z " stroke-width="2" stroke="#ffffff" fill="none" transform="matrix(1 0 0 1 1150 315 )" mask="url(#clip1973)" />
  </g>
</svg>