<?xml version="1.0" encoding="utf-8"?>
<svg version="1.1" xmlns:xlink="http://www.w3.org/1999/xlink" width="178px" height="119px" xmlns="http://www.w3.org/2000/svg">
  <defs>
    <mask fill="white" id="clip1969">
      <path d="M 33 0.60606060606051  L 13 9  L 0.878787878787762 9  L 24.3636363636363 15.7575757575758  L 125.121212121212 85.4545454545455  L 153.151515151515 110.454545454545  L 143.30303030303 118.030303030303  L 177.393939393939 110.454545454545  L 160.727272727273 106.666666666667  L 33 15.7575757575758  L 33 0.60606060606051  Z " fill-rule="evenodd" />
    </mask>
  </defs>
  <g transform="matrix(1 0 0 1 -1887 -960 )">
    <path d="M 33 0.60606060606051  L 13 9  L 0.878787878787762 9  L 24.3636363636363 15.7575757575758  L 125.121212121212 85.4545454545455  L 153.151515151515 110.454545454545  L 143.30303030303 118.030303030303  L 177.393939393939 110.454545454545  L 160.727272727273 106.666666666667  L 33 15.7575757575758  L 33 0.60606060606051  Z " fill-rule="nonzero" fill="#0000ff" stroke="none" transform="matrix(1 0 0 1 1887 960 )" />
    <path d="M 33 0.60606060606051  L 13 9  L 0.878787878787762 9  L 24.3636363636363 15.7575757575758  L 125.121212121212 85.4545454545455  L 153.151515151515 110.454545454545  L 143.30303030303 118.030303030303  L 177.393939393939 110.454545454545  L 160.727272727273 106.666666666667  L 33 15.7575757575758  L 33 0.60606060606051  Z " stroke-width="2" stroke="#8080ff" fill="none" transform="matrix(1 0 0 1 1887 960 )" mask="url(#clip1969)" />
  </g>
</svg>