<?xml version="1.0" encoding="utf-8"?>
<svg version="1.1" xmlns:xlink="http://www.w3.org/1999/xlink" width="70px" height="97px" xmlns="http://www.w3.org/2000/svg">
  <defs>
    <mask fill="white" id="clip1968">
      <path d="M 23.9696969696968 6.84848484848476  L 11.090909090909 0.787878787878753  L 16.3939393939393 11.3939393939394  L 0.484848484848499 12  L 17 17.4545454545454  L 42.9090909090908 81.8484848484848  L 34.5757575757575 90.9393939393939  L 43 96.2424242424242  L 57.3030303030303 90.9393939393939  L 69.4242424242423 87.1515151515151  L 57.3030303030303 81.8484848484848  L 34.5757575757575 17.4545454545454  L 42.9090909090908 12  L 34.5757575757575 0.787878787878753  L 23.9696969696968 6.84848484848476  Z " fill-rule="evenodd" />
    </mask>
  </defs>
  <g transform="matrix(1 0 0 1 -1873 -828 )">
    <path d="M 23.9696969696968 6.84848484848476  L 11.090909090909 0.787878787878753  L 16.3939393939393 11.3939393939394  L 0.484848484848499 12  L 17 17.4545454545454  L 42.9090909090908 81.8484848484848  L 34.5757575757575 90.9393939393939  L 43 96.2424242424242  L 57.3030303030303 90.9393939393939  L 69.4242424242423 87.1515151515151  L 57.3030303030303 81.8484848484848  L 34.5757575757575 17.4545454545454  L 42.9090909090908 12  L 34.5757575757575 0.787878787878753  L 23.9696969696968 6.84848484848476  Z " fill-rule="nonzero" fill="#0000ff" stroke="none" transform="matrix(1 0 0 1 1873 828 )" />
    <path d="M 23.9696969696968 6.84848484848476  L 11.090909090909 0.787878787878753  L 16.3939393939393 11.3939393939394  L 0.484848484848499 12  L 17 17.4545454545454  L 42.9090909090908 81.8484848484848  L 34.5757575757575 90.9393939393939  L 43 96.2424242424242  L 57.3030303030303 90.9393939393939  L 69.4242424242423 87.1515151515151  L 57.3030303030303 81.8484848484848  L 34.5757575757575 17.4545454545454  L 42.9090909090908 12  L 34.5757575757575 0.787878787878753  L 23.9696969696968 6.84848484848476  Z " stroke-width="2" stroke="#8080ff" fill="none" transform="matrix(1 0 0 1 1873 828 )" mask="url(#clip1968)" />
  </g>
</svg>