<?xml version="1.0" encoding="utf-8"?>
<svg version="1.1" xmlns:xlink="http://www.w3.org/1999/xlink" width="140px" height="122px" xmlns="http://www.w3.org/2000/svg">
  <defs>
    <mask fill="white" id="clip2075">
      <path d="M 139.090909090909 0.636363636363626  L 130.454545454545 0.636363636363626  L 125.909090909091 14.7272727272726  L 120.909090909091 26.090909090909  L 115 36.090909090909  L 107.727272727273 46.090909090909  L 80.9090909090912 53.3636363636364  L 74.0909090909095 54  L 70.0000000000005 54  L 70.0000000000005 61.090909090909  L 63.636363636364 66.090909090909  L 55.9090909090912 61.090909090909  L 50.0000000000002 61.090909090909  L 47.2727272727275 66.090909090909  L 42.7272727272727 71.5454545454545  L 36.818181818182 77.4545454545454  L 36.0000000000002 78  L 32.2727272727275 86.090909090909  L 9.09090909090924 94.2727272727273  L 3.63636363636374 95  L 0 102.909090909091  L 0 111.545454545455  L 0 117.909090909091  L 9.09090909090924 121.090909090909  L 9 117.909090909091  L 9 106.090909090909  L 9.09090909090924 102.909090909091  L 24.090909090909 95  L 42.7272727272727 91.090909090909  L 42.7272727272727 86.090909090909  L 42.7272727272727 81.090909090909  L 50.0000000000002 77.4545454545454  L 50.0000000000002 71.5454545454545  L 52.7272727272725 66.090909090909  L 60.9090909090908 68.8181818181818  L 67.2727272727273 71.5454545454545  L 70.0000000000005 68.8181818181818  L 74.0909090909095 61.090909090909  L 76.8181818181818 61  L 92.2727272727273 61  L 104.090909090909 54  L 111.363636363636 51.090909090909  L 120.909090909091 46.090909090909  L 125.909090909091 32.4545454545454  L 133.636363636364 21.5454545454545  L 134 10.1818181818181  L 139.090909090909 0.636363636363626  Z " fill-rule="evenodd" />
    </mask>
  </defs>
  <g transform="matrix(1 0 0 1 -1367 -518 )">
    <path d="M 139.090909090909 0.636363636363626  L 130.454545454545 0.636363636363626  L 125.909090909091 14.7272727272726  L 120.909090909091 26.090909090909  L 115 36.090909090909  L 107.727272727273 46.090909090909  L 80.9090909090912 53.3636363636364  L 74.0909090909095 54  L 70.0000000000005 54  L 70.0000000000005 61.090909090909  L 63.636363636364 66.090909090909  L 55.9090909090912 61.090909090909  L 50.0000000000002 61.090909090909  L 47.2727272727275 66.090909090909  L 42.7272727272727 71.5454545454545  L 36.818181818182 77.4545454545454  L 36.0000000000002 78  L 32.2727272727275 86.090909090909  L 9.09090909090924 94.2727272727273  L 3.63636363636374 95  L 0 102.909090909091  L 0 111.545454545455  L 0 117.909090909091  L 9.09090909090924 121.090909090909  L 9 117.909090909091  L 9 106.090909090909  L 9.09090909090924 102.909090909091  L 24.090909090909 95  L 42.7272727272727 91.090909090909  L 42.7272727272727 86.090909090909  L 42.7272727272727 81.090909090909  L 50.0000000000002 77.4545454545454  L 50.0000000000002 71.5454545454545  L 52.7272727272725 66.090909090909  L 60.9090909090908 68.8181818181818  L 67.2727272727273 71.5454545454545  L 70.0000000000005 68.8181818181818  L 74.0909090909095 61.090909090909  L 76.8181818181818 61  L 92.2727272727273 61  L 104.090909090909 54  L 111.363636363636 51.090909090909  L 120.909090909091 46.090909090909  L 125.909090909091 32.4545454545454  L 133.636363636364 21.5454545454545  L 134 10.1818181818181  L 139.090909090909 0.636363636363626  Z " fill-rule="nonzero" fill="#0000ff" stroke="none" transform="matrix(1 0 0 1 1367 518 )" />
    <path d="M 139.090909090909 0.636363636363626  L 130.454545454545 0.636363636363626  L 125.909090909091 14.7272727272726  L 120.909090909091 26.090909090909  L 115 36.090909090909  L 107.727272727273 46.090909090909  L 80.9090909090912 53.3636363636364  L 74.0909090909095 54  L 70.0000000000005 54  L 70.0000000000005 61.090909090909  L 63.636363636364 66.090909090909  L 55.9090909090912 61.090909090909  L 50.0000000000002 61.090909090909  L 47.2727272727275 66.090909090909  L 42.7272727272727 71.5454545454545  L 36.818181818182 77.4545454545454  L 36.0000000000002 78  L 32.2727272727275 86.090909090909  L 9.09090909090924 94.2727272727273  L 3.63636363636374 95  L 0 102.909090909091  L 0 111.545454545455  L 0 117.909090909091  L 9.09090909090924 121.090909090909  L 9 117.909090909091  L 9 106.090909090909  L 9.09090909090924 102.909090909091  L 24.090909090909 95  L 42.7272727272727 91.090909090909  L 42.7272727272727 86.090909090909  L 42.7272727272727 81.090909090909  L 50.0000000000002 77.4545454545454  L 50.0000000000002 71.5454545454545  L 52.7272727272725 66.090909090909  L 60.9090909090908 68.8181818181818  L 67.2727272727273 71.5454545454545  L 70.0000000000005 68.8181818181818  L 74.0909090909095 61.090909090909  L 76.8181818181818 61  L 92.2727272727273 61  L 104.090909090909 54  L 111.363636363636 51.090909090909  L 120.909090909091 46.090909090909  L 125.909090909091 32.4545454545454  L 133.636363636364 21.5454545454545  L 134 10.1818181818181  L 139.090909090909 0.636363636363626  Z " stroke-width="6" stroke="#0000ff" fill="none" transform="matrix(1 0 0 1 1367 518 )" mask="url(#clip2075)" />
  </g>
</svg>