<?xml version="1.0" encoding="utf-8"?>
<svg version="1.1" xmlns:xlink="http://www.w3.org/1999/xlink" width="118px" height="218px" xmlns="http://www.w3.org/2000/svg">
  <defs>
    <mask fill="white" id="clip2068">
      <path d="M 19.521739130435 2.38339920948624  L 10.826086956522 0.0118577075098756  L 6.08300395256924 15.0316205533597  L 8.84980237154173 26.4940711462451  L 13.5928853754942 31.2371541501976  L 8.84980237154173 36.3754940711463  L 0.154150197628496 45.4664031620554  L 0 51  L 8.84980237154173 54.1620553359685  L 14 52.5810276679842  L 10.826086956522 58.1146245059289  L 13.5928853754942 64.8339920948617  L 21.4980237154152 81.8300395256917  L 26.6363636363637 95.2687747035574  L 38.0988142292492 117.00790513834  L 52.328063241107 124.517786561265  L 68.5335968379447 130.841897233202  L 82.3675889328065 134.399209486166  L 79.205533596838 139.537549407115  L 79.205533596838 145.071146245059  L 76.0434782608697 146  L 72.0909090909092 150.209486166008  L 76.0434782608697 156.138339920949  L 79.205533596838 159.300395256917  L 92.2490118577077 163.648221343874  L 100.154150197629 172.343873517787  L 108.059288537549 177.086956521739  L 103.711462450593 186.177865612648  L 87.9011857707512 203.173913043478  L 68.5335968379447 212.660079051383  L 72.0909090909092 217.798418972332  L 92.2490118577077 207.916996047431  L 103.711462450593 195.268774703557  L 113.592885375494 181.0395256917  L 117.545454545455 181.0395256917  L 113.592885375494 172.343873517787  L 108.059288537549 166.810276679842  L 100.154150197629 159.300395256917  L 92.2490118577077 156.138339920949  L 85.924901185771 153.371541501976  L 87.9011857707512 150.209486166008  L 92.2490118577077 150.209486166008  L 95.806324110672 143.094861660079  L 92.2490118577077 139.537549407115  L 92.2490118577077 134.399209486166  L 92.2490118577077 130.841897233202  L 87.9011857707512 124.517786561265  L 64.9762845849805 122.146245059289  L 52.328063241107 117.00790513834  L 46.0039525691702 111.869565217391  L 38.0988142292492 90.1304347826087  L 26.6363636363637 64.8339920948617  L 29.4031620553362 62.8577075098815  L 29.4031620553362 58.1146245059289  L 29.4031620553362 52.5810276679842  L 23.8695652173915 45.4664031620554  L 21.4980237154152 45.4664031620554  L 17.1501976284587 45.4664031620554  L 17.1501976284587 41.1185770750989  L 26.6363636363637 36.3754940711463  L 26.6363636363637 31.2371541501976  L 21.4980237154152 26.4940711462451  L 17.1501976284587 21.7509881422925  L 17.1501976284587 17.7984189723321  L 17.1501976284587 8.31225296442688  L 19.521739130435 2.38339920948624  Z " fill-rule="evenodd" />
    </mask>
  </defs>
  <g transform="matrix(1 0 0 1 -1804 -649 )">
    <path d="M 19.521739130435 2.38339920948624  L 10.826086956522 0.0118577075098756  L 6.08300395256924 15.0316205533597  L 8.84980237154173 26.4940711462451  L 13.5928853754942 31.2371541501976  L 8.84980237154173 36.3754940711463  L 0.154150197628496 45.4664031620554  L 0 51  L 8.84980237154173 54.1620553359685  L 14 52.5810276679842  L 10.826086956522 58.1146245059289  L 13.5928853754942 64.8339920948617  L 21.4980237154152 81.8300395256917  L 26.6363636363637 95.2687747035574  L 38.0988142292492 117.00790513834  L 52.328063241107 124.517786561265  L 68.5335968379447 130.841897233202  L 82.3675889328065 134.399209486166  L 79.205533596838 139.537549407115  L 79.205533596838 145.071146245059  L 76.0434782608697 146  L 72.0909090909092 150.209486166008  L 76.0434782608697 156.138339920949  L 79.205533596838 159.300395256917  L 92.2490118577077 163.648221343874  L 100.154150197629 172.343873517787  L 108.059288537549 177.086956521739  L 103.711462450593 186.177865612648  L 87.9011857707512 203.173913043478  L 68.5335968379447 212.660079051383  L 72.0909090909092 217.798418972332  L 92.2490118577077 207.916996047431  L 103.711462450593 195.268774703557  L 113.592885375494 181.0395256917  L 117.545454545455 181.0395256917  L 113.592885375494 172.343873517787  L 108.059288537549 166.810276679842  L 100.154150197629 159.300395256917  L 92.2490118577077 156.138339920949  L 85.924901185771 153.371541501976  L 87.9011857707512 150.209486166008  L 92.2490118577077 150.209486166008  L 95.806324110672 143.094861660079  L 92.2490118577077 139.537549407115  L 92.2490118577077 134.399209486166  L 92.2490118577077 130.841897233202  L 87.9011857707512 124.517786561265  L 64.9762845849805 122.146245059289  L 52.328063241107 117.00790513834  L 46.0039525691702 111.869565217391  L 38.0988142292492 90.1304347826087  L 26.6363636363637 64.8339920948617  L 29.4031620553362 62.8577075098815  L 29.4031620553362 58.1146245059289  L 29.4031620553362 52.5810276679842  L 23.8695652173915 45.4664031620554  L 21.4980237154152 45.4664031620554  L 17.1501976284587 45.4664031620554  L 17.1501976284587 41.1185770750989  L 26.6363636363637 36.3754940711463  L 26.6363636363637 31.2371541501976  L 21.4980237154152 26.4940711462451  L 17.1501976284587 21.7509881422925  L 17.1501976284587 17.7984189723321  L 17.1501976284587 8.31225296442688  L 19.521739130435 2.38339920948624  Z " fill-rule="nonzero" fill="#0000ff" stroke="none" transform="matrix(1 0 0 1 1804 649 )" />
    <path d="M 19.521739130435 2.38339920948624  L 10.826086956522 0.0118577075098756  L 6.08300395256924 15.0316205533597  L 8.84980237154173 26.4940711462451  L 13.5928853754942 31.2371541501976  L 8.84980237154173 36.3754940711463  L 0.154150197628496 45.4664031620554  L 0 51  L 8.84980237154173 54.1620553359685  L 14 52.5810276679842  L 10.826086956522 58.1146245059289  L 13.5928853754942 64.8339920948617  L 21.4980237154152 81.8300395256917  L 26.6363636363637 95.2687747035574  L 38.0988142292492 117.00790513834  L 52.328063241107 124.517786561265  L 68.5335968379447 130.841897233202  L 82.3675889328065 134.399209486166  L 79.205533596838 139.537549407115  L 79.205533596838 145.071146245059  L 76.0434782608697 146  L 72.0909090909092 150.209486166008  L 76.0434782608697 156.138339920949  L 79.205533596838 159.300395256917  L 92.2490118577077 163.648221343874  L 100.154150197629 172.343873517787  L 108.059288537549 177.086956521739  L 103.711462450593 186.177865612648  L 87.9011857707512 203.173913043478  L 68.5335968379447 212.660079051383  L 72.0909090909092 217.798418972332  L 92.2490118577077 207.916996047431  L 103.711462450593 195.268774703557  L 113.592885375494 181.0395256917  L 117.545454545455 181.0395256917  L 113.592885375494 172.343873517787  L 108.059288537549 166.810276679842  L 100.154150197629 159.300395256917  L 92.2490118577077 156.138339920949  L 85.924901185771 153.371541501976  L 87.9011857707512 150.209486166008  L 92.2490118577077 150.209486166008  L 95.806324110672 143.094861660079  L 92.2490118577077 139.537549407115  L 92.2490118577077 134.399209486166  L 92.2490118577077 130.841897233202  L 87.9011857707512 124.517786561265  L 64.9762845849805 122.146245059289  L 52.328063241107 117.00790513834  L 46.0039525691702 111.869565217391  L 38.0988142292492 90.1304347826087  L 26.6363636363637 64.8339920948617  L 29.4031620553362 62.8577075098815  L 29.4031620553362 58.1146245059289  L 29.4031620553362 52.5810276679842  L 23.8695652173915 45.4664031620554  L 21.4980237154152 45.4664031620554  L 17.1501976284587 45.4664031620554  L 17.1501976284587 41.1185770750989  L 26.6363636363637 36.3754940711463  L 26.6363636363637 31.2371541501976  L 21.4980237154152 26.4940711462451  L 17.1501976284587 21.7509881422925  L 17.1501976284587 17.7984189723321  L 17.1501976284587 8.31225296442688  L 19.521739130435 2.38339920948624  Z " stroke-width="6" stroke="#0000ff" fill="none" transform="matrix(1 0 0 1 1804 649 )" mask="url(#clip2068)" />
  </g>
</svg>