<?xml version="1.0" encoding="utf-8"?>
<svg version="1.1" xmlns:xlink="http://www.w3.org/1999/xlink" width="55px" height="57px" xmlns="http://www.w3.org/2000/svg">
  <defs>
    <mask fill="white" id="clip2073">
      <path d="M 54.7422680412369 56.7182130584192  L 46.4948453608245 56.7182130584192  L 31.3745704467351 35.4123711340205  L 19.0034364261169 21.3230240549827  L 14.8797250859106 11.0137457044673  L 0.44673539518908 3.45360824742261  L 3.53951890034296 0.0171821305841604  L 22.0962199312712 11.0137457044673  L 25.8762886597938 19.2611683848797  L 41.3402061855668 35.4123711340205  L 47 49.5017182130583  L 54.7422680412369 56.7182130584192  Z " fill-rule="evenodd" />
    </mask>
  </defs>
  <g transform="matrix(1 0 0 1 -2137 -745 )">
    <path d="M 54.7422680412369 56.7182130584192  L 46.4948453608245 56.7182130584192  L 31.3745704467351 35.4123711340205  L 19.0034364261169 21.3230240549827  L 14.8797250859106 11.0137457044673  L 0.44673539518908 3.45360824742261  L 3.53951890034296 0.0171821305841604  L 22.0962199312712 11.0137457044673  L 25.8762886597938 19.2611683848797  L 41.3402061855668 35.4123711340205  L 47 49.5017182130583  L 54.7422680412369 56.7182130584192  Z " fill-rule="nonzero" fill="#0000ff" stroke="none" transform="matrix(1 0 0 1 2137 745 )" />
    <path d="M 54.7422680412369 56.7182130584192  L 46.4948453608245 56.7182130584192  L 31.3745704467351 35.4123711340205  L 19.0034364261169 21.3230240549827  L 14.8797250859106 11.0137457044673  L 0.44673539518908 3.45360824742261  L 3.53951890034296 0.0171821305841604  L 22.0962199312712 11.0137457044673  L 25.8762886597938 19.2611683848797  L 41.3402061855668 35.4123711340205  L 47 49.5017182130583  L 54.7422680412369 56.7182130584192  Z " stroke-width="6" stroke="#0000ff" fill="none" transform="matrix(1 0 0 1 2137 745 )" mask="url(#clip2073)" />
  </g>
</svg>