<?xml version="1.0" encoding="utf-8"?>
<svg version="1.1" xmlns:xlink="http://www.w3.org/1999/xlink" width="1302px" height="878px" xmlns="http://www.w3.org/2000/svg">
  <defs>
    <mask fill="white" id="clip1955">
      <path d="M 1013.43589743589 41.3662864385308  L 1019.7566539924 53.2801013941717  L 1023.05196451204 60.8846641318144  L 1027.61470215463 63.4195183776942  L 1031.41698352345 60.8846641318144  L 1036.23320659062 60.8846641318144  L 1044.59822560203 64  L 1056.25855513308 66.4613434727512  L 1060.56780735108 63.4195183776942  L 1069.69328263625 66.4613434727512  L 1073.74904942966 67  L 1077.55133079848 60.8846641318144  L 1087.94423320659 66.4613434727512  L 1092.76045627376 69.5031685678084  L 1098.08365019011 70  L 1099 67.7287705956926  L 1109.99746514576 67  L 1123.9391634981 67  L 1132.05069708492 66.4613434727512  L 1136 63.4195183776942  L 1136 53.2801013941717  L 1144.21799746515 46.1825095057034  L 1149.03422053232 41.3662864385308  L 1153.08998732573 39.084917617238  L 1154 35.2826362484168  L 1158.15969581749 35  L 1161.20152091255 35  L 1163.48288973384 35.2826362484168  L 1169.59051186017 30.5143570536838  L 1173.33583021223 30  L 1177.33083645443 33.8851435705378  L 1181.32584269663 36.8813982521858  L 1190.43945068664 36.8813982521858  L 1202.67415730337 39.084917617238  L 1209.04119850187 41.3662864385308  L 1217.53058676654 41.3662864385308  L 1222.89887640449 42.7490636704119  L 1225.64544319601 44.1223470661664  L 1232.26217228464 44.1223470661664  L 1235.00873907616 44.1223470661664  L 1236 47.1186017478144  L 1239.25343320849 49.3657927590502  L 1245.74531835206 50.3645443196015  L 1250.08823529412 53.2801013941717  L 1251 59.1568627450981  L 1253.51960784314 63.4195183776942  L 1256.1339869281 67  L 1261.36274509804 69.5031685678084  L 1265.93790849673 69.5031685678084  L 1267.57189542484 71.9019607843138  L 1269.53267973856 75.4967320261449  L 1271.98366013072 77.9477124183018  L 1274.92483660131 79.9084967320273  L 1278.51960784314 80  L 1281.1339869281 80  L 1281.1339869281 83.5032679738549  L 1281.1339869281 86.1176470588234  L 1278.51960784314 86.1176470588234  L 1278.51960784314 90.5294117647059  L 1278.51960784314 93.7973856209139  L 1274.92483660131 97.0653594771254  L 1274.92483660131 100.986928104576  L 1276.72222222222 103.928104575165  L 1276.72222222222 105.725490196078  L 1276.72222222222 111.117647058823  L 1274.92483660131 113.8954248366  L 1276.72222222222 117.653594771243  L 1276.72222222222 121.738562091502  L 1276.72222222222 124.67973856209  L 1274.23577235773 132.81300813008  L 1271.98366013072 136.959349593495  L 1270.90243902439 143.056910569105  L 1270.25203252033 146.552845528457  L 1268.62601626016 150.536585365854  L 1267.57189542484 152.81300813008  L 1266.67479674797 156.146341463415  L 1264.56097560976 158.666666666666  L 1261.36274509804 159.804878048781  L 1258.05691056911 160.617886178861  L 1253.51960784314 159.804878048781  L 1249.03252032521 156.146341463415  L 1247 155.252032520324  L 1243.8137254902 158.666666666666  L 1239.25343320849 159.804878048781  L 1233.1274509804 163.764705882353  L 1231.26470588235 164.941176470588  L 1226.85294117647 167.784313725492  L 1225.64544319601 171.019607843139  L 1222.89887640449 172.490196078433  L 1217.53058676654 174.549019607845  L 1212.83333333334 175  L 1209.04119850187 176.607843137256  L 1205.77450980392 177  L 1199.00980392157 177  L 1195.38235294118 175  L 1190.43945068664 172.490196078433  L 1186.79353680431 169.528426092159  L 1183.6816277678 171.019607843139  L 1177.33083645443 171.019607843139  L 1169.59051186017 169.528426092159  L 1165.96768402154 167.784313725492  L 1163.48288973384 171.019607843139  L 1163.48288973384 175  L 1159.98324356673 178.385397965288  L 1158.15969581749 184.010771992818  L 1154 186.375644994838  L 1153.08998732573 189.987616099071  L 1150.66873065015 192.567595459235  L 1149.03422053232 194.321981424149  L 1144.21799746515 192.567595459235  L 1142.10319917441 196.076367389062  L 1136.86692015209 196.076367389062  L 1132.19607843137 197  L 1131.0608875129 200.513931888545  L 1127.03611971104 202.887512899898  L 1125.69453044375 204.022703818368  L 1123.9391634981 207.737874097006  L 1121.77296181631 214.136222910217  L 1120.22497420021 217.64499484004  L 1115.05352798053 223.751824817518  L 1111.52554744526 226.671532846715  L 1103.37469586375 226.671532846715  L 1095.58880778589 222.656934306569  L 1086.22141119221 223.751824817518  L 1077.55133079848 222.656934306569  L 1073.74904942966 222.656934306569  L 1069.69328263625 220.223844282237  L 1062.49878345499 220.223844282237  L 1054.34793187348 217.64499484004  L 1048.6301703163 213.167883211679  L 1049.60340632603 217.64499484004  L 1051.5498783455 221.683698296835  L 1051.5498783455 223.751824817518  L 1049.60340632603 226.671532846715  L 1054.34793187348 229.104622871045  L 1065.17518248175 233.970802919708  L 1069.69328263625 235.065693430657  L 1075.75912408759 238.836982968368  L 1079.04379562044 241.148418491483  L 1082.65420560748 245.159768580328  L 1083.36626613262 249.521139296842  L 1084.70137961727 252.280373831776  L 1090.30885625278 252.280373831776  L 1096.98442367601 253  L 1101.87983978638 256.285714285714  L 1103.37469586375 257.88785046729  L 1103.37469586375 263.139296840233  L 1103.37469586375 269.369826435247  L 1100.36671117045 274.532265242544  L 1100.36671117045 278.626613262129  L 1100.36671117045 281.029817534492  L 1098.08365019011 284.581090407178  L 1095.58880778589 289.550034506557  L 1091.44789510007 296.037267080745  L 1084.70137961727 298.797791580399  L 1079.04379562044 301.420289855073  L 1075.75912408759 306.665286404416  L 1069.69328263625 315.360938578329  L 1065.17518248175 324.33264320221  L 1062.49878345499 328.473429951692  L 1062.49878345499 333.994478951  L 1054.34793187348 336.064872325741  L 1041.6204278813 333.994478951  L 1036.23320659062 331.648033126294  L 1029 337  L 1029 348.769230769231  L 1023.05196451204 357.384615384615  L 1019 369.487179487182  L 1013.43589743589 376.666666666664  L 987.79487179487 378.923076923077  L 962.153846153846 373.589743589741  L 958.871794871794 378.923076923077  L 963.79487179487 393.487179487178  L 963.79487179487 401.487179487178  L 962.153846153846 408.666666666668  L 958.871794871794 416.666666666668  L 944.512820512822 426.512820512822  L 939.79487179487 426.512820512822  L 939 438.614583333334  L 935.880208333334 443.302083333334  L 922.859375 448.25  L 922 454.239583333334  L 911.140625 455  L 911.140625 454.239583333334  L 905.932291666666 458.145833333334  L 896.817708333334 462.833333333334  L 891.609375 463  L 883.796875 469.083333333334  L 877.546875 476.635416666666  L 872.859375 486.53125  L 867.911458333334 494.34375  L 863.223958333334 504.760416666666  L 863.223958333334 512.052083333334  L 863.223958333334 521.166666666666  L 867.911458333334 530.28125  L 865.828125 538.09375  L 865.828125 547.989583333334  L 865.828125 554.239583333334  L 859.317708333334 557.625  L 851.765625 558  L 848.380208333334 561.270833333334  L 844.473958333334 564.65625  L 832.494791666666 570.385416666666  L 822.338541666666 571  L 811.401041666666 574.552083333334  L 813.484375 584.96875  L 805.671875 597.729166666666  L 798.640625 604.760416666666  L 789.005208333334 605  L 792.373134328358 620.358208955224  L 789.005208333334 630.308457711445  L 785.407960199006 630.308457711445  L 772.721393034827 626.825870646767  L 766.502487562188 615.631840796021  L 766.502487562188 623.840796019901  L 766 631  L 753.567164179104 631  L 741.378109452737 630.308457711445  L 734.910447761194 630.308457711445  L 734.910447761194 636.029850746268  L 718.990049751245 639.761194029851  L 709.288557213931 639.761194029851  L 699.089552238806 642  L 701.57711442786 647.472636815922  L 691.626865671642 648  L 691.626865671642 657.174129353235  L 691 661.900497512439  L 687 664.388059701492  L 687 675.333333333334  L 683.169154228856 678.069651741295  L 678.194029850746 684.039800995027  L 670.731343283582 687.273631840797  L 670 688  L 661.527363184081 690.258706467662  L 655.805970149253 690.258706467662  L 644.860696517412 691  L 637.398009950248 691  L 626.203980099501 691  L 622.970149253731 690.258706467662  L 609.537313432836 688  L 600.830845771143 688  L 595.358208955224 691  L 595.358208955224 697.223880597015  L 590.134328358209 700.208955223881  L 584.910447761194 701  L 577.945273631841 701  L 570.219013237063 703.73285198556  L 557.703971119133 710.712394705175  L 553.131167268352 714.322503008425  L 544.466907340554 719.376654632973  L 528.341756919373 726.115523465704  L 516.548736462094 729.725631768953  L 507.884476534296 730  L 497 726.115523465704  L 497 736.945848375451  L 499.942238267148 743.925391095067  L 503.07099879663 754.515042117929  L 507.884476534296 761.494584837545  L 503.07099879663 773.768953068592  L 499.942238267148 776.175691937424  L 494.647412755717 773.768953068592  L 477.800240673886 776.175691937424  L 467.691937424788 780.748495788208  L 458.787003610108 782.914560770157  L 438.811070998796 786.765342960289  L 426.777376654634 789.412755716006  L 417.872442839951 792.300842358605  L 408.486161251503 796.632972322504  C 408.486161251503 796.632972322504  403.432009626955 799.039711191338  394.767749699157 800.965102286403  C 386.103489771359 802.890493381467  376.957882069796 804.575210589652  376.957882069796 804.575210589652  L 373.107099879662 806.981949458484  L 364.442839951864 809.629362214201  L 362.036101083032 816.368231046931  L 357.703971119133 817  L 348.976744186047 813.317829457365  L 345.100775193798 806.981949458484  L 341.483204134366 796.632972322504  L 334.506459948319 792.300842358605  L 328.304909560723 792.300842358605  L 328.304909560723 796.632972322504  L 328.304909560723 800.965102286403  L 323.136950904394 806.981949458484  L 320.811369509045 813.317829457365  L 315.901808785529 817  L 315.901808785529 825.462532299743  L 315.901808785529 830.11369509044  L 310.7338501292 831  L 302.981912144704 831  L 293.529790660224 833.787439613527  L 286.444444444445 837.330112721415  L 277.60794044665 842.57899090157  L 271.983457402811 845.722084367245  L 271 849.36145574855  L 258.253101736973 854.82051282051  L 243.36476426799 857.632754342432  L 240.221670802315 858  L 231.950372208437 852.008271298593  L 226.656741108352 852.008271298593  L 219.708850289493 844.233250620347  L 216.565756823821 838.939619520262  L 206.640198511166 838.939619520262  L 196.383788254753 837.330112721415  L 182.666666666666 831  L 166.133333333334 831  L 153.866666666666 830.11369509044  L 149.6 817  L 144 809.629362214201  L 144 796.632972322504  L 149.6 789.412755716006  L 143.2 776.175691937424  L 143 765.466666666666  L 150 761.494584837545  L 150 749.466666666666  L 153.866666666666 744  L 143.2 744  L 135.733333333334 743.925391095067  L 126.133333333334 749.466666666666  L 116 754.515042117929  L 109.6 761.494584837545  L 100 749.466666666666  L 95.7333333333343 743.925391095067  L 88 730  L 88 714.322503008425  L 87.2 703.73285198556  L 79.7333333333343 691  L 71.2 687.273631840797  L 55.2 678.069651741295  L 36.5333333333342 675.333333333334  L 27.4666666666658 657.174129353235  L 23.2 647.472636815922  L 8.26666666666574 636.029850746268  L 0.799999999999955 620.358208955224  L 27.4666666666658 597.729166666666  L 42.9333333333343 564.65625  L 49.8666666666657 547.989583333334  L 71.2 561.270833333334  L 95.7333333333343 570.385416666666  L 105.333333333334 554.239583333334  L 116 547.989583333334  L 126.133333333334 538.09375  L 135.733333333334 521.166666666666  L 143.2 521  L 166.133333333334 521  L 182.666666666666 521.166666666666  L 196.383788254753 512.052083333334  L 182.666666666666 494.34375  L 197 458.145833333334  L 197 426.512820512822  L 226.656741108352 416.666666666668  L 243.36476426799 393.487179487178  L 271.983457402811 373.589743589741  L 315.901808785529 357.384615384615  L 315.901808785529 348.769230769231  L 272 331.648033126294  L 272 306.665286404416  L 272 289.550034506557  L 302.981912144704 285  L 348.976744186047 285  L 403.304347826087 263.139296840233  L 448.521739130435 245.159768580328  L 472.289855072463 235.065693430657  L 459 217.64499484004  L 459 194.321981424149  L 472.289855072463 186.375644994838  L 503.07099879663 176.607843137256  L 536 163.764705882353  L 536 146.552845528457  L 536 121.738562091502  L 536 105.725490196078  L 536 90.5294117647059  L 570.219013237063 97.0653594771254  L 584.910447761194 86.1176470588234  L 609.537313432836 97.0653594771254  L 655.805970149253 100.986928104576  L 670.731343283582 105.725490196078  L 701.57711442786 100.986928104576  L 699.089552238806 80  L 709.288557213931 75.4967320261449  L 734.910447761194 80  L 753.567164179104 80  L 741.378109452737 60.8846641318144  L 753.567164179104 59.1568627450981  L 766 36.8813982521858  L 780.333333333332 30.5143570536838  L 805.671875 30  L 822.338541666666 13.3333333333321  L 844.473958333334 33.8851435705378  L 855.076923076923 25.4188034188021  L 867.911458333334 21.3162393162381  L 881.059829059828 30.5143570536838  L 901.914529914531 25.4188034188021  L 911.140625 5.58974358974365  L 944.512820512822 0.461538461538566  L 968.239316239315 0.461538461538566  L 987.79487179487 21.3162393162381  L 1002.76923076923 33.8851435705378  L 1013.43589743589 41.3662864385308  Z " fill-rule="evenodd" />
    </mask>
    <filter x="1213px" y="339px" width="1302px" height="878px" filterUnits="userSpaceOnUse" id="filter1956">
      <feOffset dx="10" dy="10" in="SourceAlpha" result="shadowOffsetInner" />
      <feGaussianBlur stdDeviation="5" in="shadowOffsetInner" result="shadowGaussian" />
      <feComposite in2="shadowGaussian" operator="atop" in="SourceAlpha" result="shadowComposite" />
      <feColorMatrix type="matrix" values="0 0 0 0 1  0 0 0 0 1  0 0 0 0 0  0 0 0 0.996078431372549 0  " in="shadowComposite" />
    </filter>
    <g id="widget1957">
      <path d="M 1013.43589743589 41.3662864385308  L 1019.7566539924 53.2801013941717  L 1023.05196451204 60.8846641318144  L 1027.61470215463 63.4195183776942  L 1031.41698352345 60.8846641318144  L 1036.23320659062 60.8846641318144  L 1044.59822560203 64  L 1056.25855513308 66.4613434727512  L 1060.56780735108 63.4195183776942  L 1069.69328263625 66.4613434727512  L 1073.74904942966 67  L 1077.55133079848 60.8846641318144  L 1087.94423320659 66.4613434727512  L 1092.76045627376 69.5031685678084  L 1098.08365019011 70  L 1099 67.7287705956926  L 1109.99746514576 67  L 1123.9391634981 67  L 1132.05069708492 66.4613434727512  L 1136 63.4195183776942  L 1136 53.2801013941717  L 1144.21799746515 46.1825095057034  L 1149.03422053232 41.3662864385308  L 1153.08998732573 39.084917617238  L 1154 35.2826362484168  L 1158.15969581749 35  L 1161.20152091255 35  L 1163.48288973384 35.2826362484168  L 1169.59051186017 30.5143570536838  L 1173.33583021223 30  L 1177.33083645443 33.8851435705378  L 1181.32584269663 36.8813982521858  L 1190.43945068664 36.8813982521858  L 1202.67415730337 39.084917617238  L 1209.04119850187 41.3662864385308  L 1217.53058676654 41.3662864385308  L 1222.89887640449 42.7490636704119  L 1225.64544319601 44.1223470661664  L 1232.26217228464 44.1223470661664  L 1235.00873907616 44.1223470661664  L 1236 47.1186017478144  L 1239.25343320849 49.3657927590502  L 1245.74531835206 50.3645443196015  L 1250.08823529412 53.2801013941717  L 1251 59.1568627450981  L 1253.51960784314 63.4195183776942  L 1256.1339869281 67  L 1261.36274509804 69.5031685678084  L 1265.93790849673 69.5031685678084  L 1267.57189542484 71.9019607843138  L 1269.53267973856 75.4967320261449  L 1271.98366013072 77.9477124183018  L 1274.92483660131 79.9084967320273  L 1278.51960784314 80  L 1281.1339869281 80  L 1281.1339869281 83.5032679738549  L 1281.1339869281 86.1176470588234  L 1278.51960784314 86.1176470588234  L 1278.51960784314 90.5294117647059  L 1278.51960784314 93.7973856209139  L 1274.92483660131 97.0653594771254  L 1274.92483660131 100.986928104576  L 1276.72222222222 103.928104575165  L 1276.72222222222 105.725490196078  L 1276.72222222222 111.117647058823  L 1274.92483660131 113.8954248366  L 1276.72222222222 117.653594771243  L 1276.72222222222 121.738562091502  L 1276.72222222222 124.67973856209  L 1274.23577235773 132.81300813008  L 1271.98366013072 136.959349593495  L 1270.90243902439 143.056910569105  L 1270.25203252033 146.552845528457  L 1268.62601626016 150.536585365854  L 1267.57189542484 152.81300813008  L 1266.67479674797 156.146341463415  L 1264.56097560976 158.666666666666  L 1261.36274509804 159.804878048781  L 1258.05691056911 160.617886178861  L 1253.51960784314 159.804878048781  L 1249.03252032521 156.146341463415  L 1247 155.252032520324  L 1243.8137254902 158.666666666666  L 1239.25343320849 159.804878048781  L 1233.1274509804 163.764705882353  L 1231.26470588235 164.941176470588  L 1226.85294117647 167.784313725492  L 1225.64544319601 171.019607843139  L 1222.89887640449 172.490196078433  L 1217.53058676654 174.549019607845  L 1212.83333333334 175  L 1209.04119850187 176.607843137256  L 1205.77450980392 177  L 1199.00980392157 177  L 1195.38235294118 175  L 1190.43945068664 172.490196078433  L 1186.79353680431 169.528426092159  L 1183.6816277678 171.019607843139  L 1177.33083645443 171.019607843139  L 1169.59051186017 169.528426092159  L 1165.96768402154 167.784313725492  L 1163.48288973384 171.019607843139  L 1163.48288973384 175  L 1159.98324356673 178.385397965288  L 1158.15969581749 184.010771992818  L 1154 186.375644994838  L 1153.08998732573 189.987616099071  L 1150.66873065015 192.567595459235  L 1149.03422053232 194.321981424149  L 1144.21799746515 192.567595459235  L 1142.10319917441 196.076367389062  L 1136.86692015209 196.076367389062  L 1132.19607843137 197  L 1131.0608875129 200.513931888545  L 1127.03611971104 202.887512899898  L 1125.69453044375 204.022703818368  L 1123.9391634981 207.737874097006  L 1121.77296181631 214.136222910217  L 1120.22497420021 217.64499484004  L 1115.05352798053 223.751824817518  L 1111.52554744526 226.671532846715  L 1103.37469586375 226.671532846715  L 1095.58880778589 222.656934306569  L 1086.22141119221 223.751824817518  L 1077.55133079848 222.656934306569  L 1073.74904942966 222.656934306569  L 1069.69328263625 220.223844282237  L 1062.49878345499 220.223844282237  L 1054.34793187348 217.64499484004  L 1048.6301703163 213.167883211679  L 1049.60340632603 217.64499484004  L 1051.5498783455 221.683698296835  L 1051.5498783455 223.751824817518  L 1049.60340632603 226.671532846715  L 1054.34793187348 229.104622871045  L 1065.17518248175 233.970802919708  L 1069.69328263625 235.065693430657  L 1075.75912408759 238.836982968368  L 1079.04379562044 241.148418491483  L 1082.65420560748 245.159768580328  L 1083.36626613262 249.521139296842  L 1084.70137961727 252.280373831776  L 1090.30885625278 252.280373831776  L 1096.98442367601 253  L 1101.87983978638 256.285714285714  L 1103.37469586375 257.88785046729  L 1103.37469586375 263.139296840233  L 1103.37469586375 269.369826435247  L 1100.36671117045 274.532265242544  L 1100.36671117045 278.626613262129  L 1100.36671117045 281.029817534492  L 1098.08365019011 284.581090407178  L 1095.58880778589 289.550034506557  L 1091.44789510007 296.037267080745  L 1084.70137961727 298.797791580399  L 1079.04379562044 301.420289855073  L 1075.75912408759 306.665286404416  L 1069.69328263625 315.360938578329  L 1065.17518248175 324.33264320221  L 1062.49878345499 328.473429951692  L 1062.49878345499 333.994478951  L 1054.34793187348 336.064872325741  L 1041.6204278813 333.994478951  L 1036.23320659062 331.648033126294  L 1029 337  L 1029 348.769230769231  L 1023.05196451204 357.384615384615  L 1019 369.487179487182  L 1013.43589743589 376.666666666664  L 987.79487179487 378.923076923077  L 962.153846153846 373.589743589741  L 958.871794871794 378.923076923077  L 963.79487179487 393.487179487178  L 963.79487179487 401.487179487178  L 962.153846153846 408.666666666668  L 958.871794871794 416.666666666668  L 944.512820512822 426.512820512822  L 939.79487179487 426.512820512822  L 939 438.614583333334  L 935.880208333334 443.302083333334  L 922.859375 448.25  L 922 454.239583333334  L 911.140625 455  L 911.140625 454.239583333334  L 905.932291666666 458.145833333334  L 896.817708333334 462.833333333334  L 891.609375 463  L 883.796875 469.083333333334  L 877.546875 476.635416666666  L 872.859375 486.53125  L 867.911458333334 494.34375  L 863.223958333334 504.760416666666  L 863.223958333334 512.052083333334  L 863.223958333334 521.166666666666  L 867.911458333334 530.28125  L 865.828125 538.09375  L 865.828125 547.989583333334  L 865.828125 554.239583333334  L 859.317708333334 557.625  L 851.765625 558  L 848.380208333334 561.270833333334  L 844.473958333334 564.65625  L 832.494791666666 570.385416666666  L 822.338541666666 571  L 811.401041666666 574.552083333334  L 813.484375 584.96875  L 805.671875 597.729166666666  L 798.640625 604.760416666666  L 789.005208333334 605  L 792.373134328358 620.358208955224  L 789.005208333334 630.308457711445  L 785.407960199006 630.308457711445  L 772.721393034827 626.825870646767  L 766.502487562188 615.631840796021  L 766.502487562188 623.840796019901  L 766 631  L 753.567164179104 631  L 741.378109452737 630.308457711445  L 734.910447761194 630.308457711445  L 734.910447761194 636.029850746268  L 718.990049751245 639.761194029851  L 709.288557213931 639.761194029851  L 699.089552238806 642  L 701.57711442786 647.472636815922  L 691.626865671642 648  L 691.626865671642 657.174129353235  L 691 661.900497512439  L 687 664.388059701492  L 687 675.333333333334  L 683.169154228856 678.069651741295  L 678.194029850746 684.039800995027  L 670.731343283582 687.273631840797  L 670 688  L 661.527363184081 690.258706467662  L 655.805970149253 690.258706467662  L 644.860696517412 691  L 637.398009950248 691  L 626.203980099501 691  L 622.970149253731 690.258706467662  L 609.537313432836 688  L 600.830845771143 688  L 595.358208955224 691  L 595.358208955224 697.223880597015  L 590.134328358209 700.208955223881  L 584.910447761194 701  L 577.945273631841 701  L 570.219013237063 703.73285198556  L 557.703971119133 710.712394705175  L 553.131167268352 714.322503008425  L 544.466907340554 719.376654632973  L 528.341756919373 726.115523465704  L 516.548736462094 729.725631768953  L 507.884476534296 730  L 497 726.115523465704  L 497 736.945848375451  L 499.942238267148 743.925391095067  L 503.07099879663 754.515042117929  L 507.884476534296 761.494584837545  L 503.07099879663 773.768953068592  L 499.942238267148 776.175691937424  L 494.647412755717 773.768953068592  L 477.800240673886 776.175691937424  L 467.691937424788 780.748495788208  L 458.787003610108 782.914560770157  L 438.811070998796 786.765342960289  L 426.777376654634 789.412755716006  L 417.872442839951 792.300842358605  L 408.486161251503 796.632972322504  C 408.486161251503 796.632972322504  403.432009626955 799.039711191338  394.767749699157 800.965102286403  C 386.103489771359 802.890493381467  376.957882069796 804.575210589652  376.957882069796 804.575210589652  L 373.107099879662 806.981949458484  L 364.442839951864 809.629362214201  L 362.036101083032 816.368231046931  L 357.703971119133 817  L 348.976744186047 813.317829457365  L 345.100775193798 806.981949458484  L 341.483204134366 796.632972322504  L 334.506459948319 792.300842358605  L 328.304909560723 792.300842358605  L 328.304909560723 796.632972322504  L 328.304909560723 800.965102286403  L 323.136950904394 806.981949458484  L 320.811369509045 813.317829457365  L 315.901808785529 817  L 315.901808785529 825.462532299743  L 315.901808785529 830.11369509044  L 310.7338501292 831  L 302.981912144704 831  L 293.529790660224 833.787439613527  L 286.444444444445 837.330112721415  L 277.60794044665 842.57899090157  L 271.983457402811 845.722084367245  L 271 849.36145574855  L 258.253101736973 854.82051282051  L 243.36476426799 857.632754342432  L 240.221670802315 858  L 231.950372208437 852.008271298593  L 226.656741108352 852.008271298593  L 219.708850289493 844.233250620347  L 216.565756823821 838.939619520262  L 206.640198511166 838.939619520262  L 196.383788254753 837.330112721415  L 182.666666666666 831  L 166.133333333334 831  L 153.866666666666 830.11369509044  L 149.6 817  L 144 809.629362214201  L 144 796.632972322504  L 149.6 789.412755716006  L 143.2 776.175691937424  L 143 765.466666666666  L 150 761.494584837545  L 150 749.466666666666  L 153.866666666666 744  L 143.2 744  L 135.733333333334 743.925391095067  L 126.133333333334 749.466666666666  L 116 754.515042117929  L 109.6 761.494584837545  L 100 749.466666666666  L 95.7333333333343 743.925391095067  L 88 730  L 88 714.322503008425  L 87.2 703.73285198556  L 79.7333333333343 691  L 71.2 687.273631840797  L 55.2 678.069651741295  L 36.5333333333342 675.333333333334  L 27.4666666666658 657.174129353235  L 23.2 647.472636815922  L 8.26666666666574 636.029850746268  L 0.799999999999955 620.358208955224  L 27.4666666666658 597.729166666666  L 42.9333333333343 564.65625  L 49.8666666666657 547.989583333334  L 71.2 561.270833333334  L 95.7333333333343 570.385416666666  L 105.333333333334 554.239583333334  L 116 547.989583333334  L 126.133333333334 538.09375  L 135.733333333334 521.166666666666  L 143.2 521  L 166.133333333334 521  L 182.666666666666 521.166666666666  L 196.383788254753 512.052083333334  L 182.666666666666 494.34375  L 197 458.145833333334  L 197 426.512820512822  L 226.656741108352 416.666666666668  L 243.36476426799 393.487179487178  L 271.983457402811 373.589743589741  L 315.901808785529 357.384615384615  L 315.901808785529 348.769230769231  L 272 331.648033126294  L 272 306.665286404416  L 272 289.550034506557  L 302.981912144704 285  L 348.976744186047 285  L 403.304347826087 263.139296840233  L 448.521739130435 245.159768580328  L 472.289855072463 235.065693430657  L 459 217.64499484004  L 459 194.321981424149  L 472.289855072463 186.375644994838  L 503.07099879663 176.607843137256  L 536 163.764705882353  L 536 146.552845528457  L 536 121.738562091502  L 536 105.725490196078  L 536 90.5294117647059  L 570.219013237063 97.0653594771254  L 584.910447761194 86.1176470588234  L 609.537313432836 97.0653594771254  L 655.805970149253 100.986928104576  L 670.731343283582 105.725490196078  L 701.57711442786 100.986928104576  L 699.089552238806 80  L 709.288557213931 75.4967320261449  L 734.910447761194 80  L 753.567164179104 80  L 741.378109452737 60.8846641318144  L 753.567164179104 59.1568627450981  L 766 36.8813982521858  L 780.333333333332 30.5143570536838  L 805.671875 30  L 822.338541666666 13.3333333333321  L 844.473958333334 33.8851435705378  L 855.076923076923 25.4188034188021  L 867.911458333334 21.3162393162381  L 881.059829059828 30.5143570536838  L 901.914529914531 25.4188034188021  L 911.140625 5.58974358974365  L 944.512820512822 0.461538461538566  L 968.239316239315 0.461538461538566  L 987.79487179487 21.3162393162381  L 1002.76923076923 33.8851435705378  L 1013.43589743589 41.3662864385308  Z " fill-rule="nonzero" fill="#ffffff" stroke="none" fill-opacity="0" transform="matrix(1 0 0 1 1213 339 )" />
      <path d="M 1013.43589743589 41.3662864385308  L 1019.7566539924 53.2801013941717  L 1023.05196451204 60.8846641318144  L 1027.61470215463 63.4195183776942  L 1031.41698352345 60.8846641318144  L 1036.23320659062 60.8846641318144  L 1044.59822560203 64  L 1056.25855513308 66.4613434727512  L 1060.56780735108 63.4195183776942  L 1069.69328263625 66.4613434727512  L 1073.74904942966 67  L 1077.55133079848 60.8846641318144  L 1087.94423320659 66.4613434727512  L 1092.76045627376 69.5031685678084  L 1098.08365019011 70  L 1099 67.7287705956926  L 1109.99746514576 67  L 1123.9391634981 67  L 1132.05069708492 66.4613434727512  L 1136 63.4195183776942  L 1136 53.2801013941717  L 1144.21799746515 46.1825095057034  L 1149.03422053232 41.3662864385308  L 1153.08998732573 39.084917617238  L 1154 35.2826362484168  L 1158.15969581749 35  L 1161.20152091255 35  L 1163.48288973384 35.2826362484168  L 1169.59051186017 30.5143570536838  L 1173.33583021223 30  L 1177.33083645443 33.8851435705378  L 1181.32584269663 36.8813982521858  L 1190.43945068664 36.8813982521858  L 1202.67415730337 39.084917617238  L 1209.04119850187 41.3662864385308  L 1217.53058676654 41.3662864385308  L 1222.89887640449 42.7490636704119  L 1225.64544319601 44.1223470661664  L 1232.26217228464 44.1223470661664  L 1235.00873907616 44.1223470661664  L 1236 47.1186017478144  L 1239.25343320849 49.3657927590502  L 1245.74531835206 50.3645443196015  L 1250.08823529412 53.2801013941717  L 1251 59.1568627450981  L 1253.51960784314 63.4195183776942  L 1256.1339869281 67  L 1261.36274509804 69.5031685678084  L 1265.93790849673 69.5031685678084  L 1267.57189542484 71.9019607843138  L 1269.53267973856 75.4967320261449  L 1271.98366013072 77.9477124183018  L 1274.92483660131 79.9084967320273  L 1278.51960784314 80  L 1281.1339869281 80  L 1281.1339869281 83.5032679738549  L 1281.1339869281 86.1176470588234  L 1278.51960784314 86.1176470588234  L 1278.51960784314 90.5294117647059  L 1278.51960784314 93.7973856209139  L 1274.92483660131 97.0653594771254  L 1274.92483660131 100.986928104576  L 1276.72222222222 103.928104575165  L 1276.72222222222 105.725490196078  L 1276.72222222222 111.117647058823  L 1274.92483660131 113.8954248366  L 1276.72222222222 117.653594771243  L 1276.72222222222 121.738562091502  L 1276.72222222222 124.67973856209  L 1274.23577235773 132.81300813008  L 1271.98366013072 136.959349593495  L 1270.90243902439 143.056910569105  L 1270.25203252033 146.552845528457  L 1268.62601626016 150.536585365854  L 1267.57189542484 152.81300813008  L 1266.67479674797 156.146341463415  L 1264.56097560976 158.666666666666  L 1261.36274509804 159.804878048781  L 1258.05691056911 160.617886178861  L 1253.51960784314 159.804878048781  L 1249.03252032521 156.146341463415  L 1247 155.252032520324  L 1243.8137254902 158.666666666666  L 1239.25343320849 159.804878048781  L 1233.1274509804 163.764705882353  L 1231.26470588235 164.941176470588  L 1226.85294117647 167.784313725492  L 1225.64544319601 171.019607843139  L 1222.89887640449 172.490196078433  L 1217.53058676654 174.549019607845  L 1212.83333333334 175  L 1209.04119850187 176.607843137256  L 1205.77450980392 177  L 1199.00980392157 177  L 1195.38235294118 175  L 1190.43945068664 172.490196078433  L 1186.79353680431 169.528426092159  L 1183.6816277678 171.019607843139  L 1177.33083645443 171.019607843139  L 1169.59051186017 169.528426092159  L 1165.96768402154 167.784313725492  L 1163.48288973384 171.019607843139  L 1163.48288973384 175  L 1159.98324356673 178.385397965288  L 1158.15969581749 184.010771992818  L 1154 186.375644994838  L 1153.08998732573 189.987616099071  L 1150.66873065015 192.567595459235  L 1149.03422053232 194.321981424149  L 1144.21799746515 192.567595459235  L 1142.10319917441 196.076367389062  L 1136.86692015209 196.076367389062  L 1132.19607843137 197  L 1131.0608875129 200.513931888545  L 1127.03611971104 202.887512899898  L 1125.69453044375 204.022703818368  L 1123.9391634981 207.737874097006  L 1121.77296181631 214.136222910217  L 1120.22497420021 217.64499484004  L 1115.05352798053 223.751824817518  L 1111.52554744526 226.671532846715  L 1103.37469586375 226.671532846715  L 1095.58880778589 222.656934306569  L 1086.22141119221 223.751824817518  L 1077.55133079848 222.656934306569  L 1073.74904942966 222.656934306569  L 1069.69328263625 220.223844282237  L 1062.49878345499 220.223844282237  L 1054.34793187348 217.64499484004  L 1048.6301703163 213.167883211679  L 1049.60340632603 217.64499484004  L 1051.5498783455 221.683698296835  L 1051.5498783455 223.751824817518  L 1049.60340632603 226.671532846715  L 1054.34793187348 229.104622871045  L 1065.17518248175 233.970802919708  L 1069.69328263625 235.065693430657  L 1075.75912408759 238.836982968368  L 1079.04379562044 241.148418491483  L 1082.65420560748 245.159768580328  L 1083.36626613262 249.521139296842  L 1084.70137961727 252.280373831776  L 1090.30885625278 252.280373831776  L 1096.98442367601 253  L 1101.87983978638 256.285714285714  L 1103.37469586375 257.88785046729  L 1103.37469586375 263.139296840233  L 1103.37469586375 269.369826435247  L 1100.36671117045 274.532265242544  L 1100.36671117045 278.626613262129  L 1100.36671117045 281.029817534492  L 1098.08365019011 284.581090407178  L 1095.58880778589 289.550034506557  L 1091.44789510007 296.037267080745  L 1084.70137961727 298.797791580399  L 1079.04379562044 301.420289855073  L 1075.75912408759 306.665286404416  L 1069.69328263625 315.360938578329  L 1065.17518248175 324.33264320221  L 1062.49878345499 328.473429951692  L 1062.49878345499 333.994478951  L 1054.34793187348 336.064872325741  L 1041.6204278813 333.994478951  L 1036.23320659062 331.648033126294  L 1029 337  L 1029 348.769230769231  L 1023.05196451204 357.384615384615  L 1019 369.487179487182  L 1013.43589743589 376.666666666664  L 987.79487179487 378.923076923077  L 962.153846153846 373.589743589741  L 958.871794871794 378.923076923077  L 963.79487179487 393.487179487178  L 963.79487179487 401.487179487178  L 962.153846153846 408.666666666668  L 958.871794871794 416.666666666668  L 944.512820512822 426.512820512822  L 939.79487179487 426.512820512822  L 939 438.614583333334  L 935.880208333334 443.302083333334  L 922.859375 448.25  L 922 454.239583333334  L 911.140625 455  L 911.140625 454.239583333334  L 905.932291666666 458.145833333334  L 896.817708333334 462.833333333334  L 891.609375 463  L 883.796875 469.083333333334  L 877.546875 476.635416666666  L 872.859375 486.53125  L 867.911458333334 494.34375  L 863.223958333334 504.760416666666  L 863.223958333334 512.052083333334  L 863.223958333334 521.166666666666  L 867.911458333334 530.28125  L 865.828125 538.09375  L 865.828125 547.989583333334  L 865.828125 554.239583333334  L 859.317708333334 557.625  L 851.765625 558  L 848.380208333334 561.270833333334  L 844.473958333334 564.65625  L 832.494791666666 570.385416666666  L 822.338541666666 571  L 811.401041666666 574.552083333334  L 813.484375 584.96875  L 805.671875 597.729166666666  L 798.640625 604.760416666666  L 789.005208333334 605  L 792.373134328358 620.358208955224  L 789.005208333334 630.308457711445  L 785.407960199006 630.308457711445  L 772.721393034827 626.825870646767  L 766.502487562188 615.631840796021  L 766.502487562188 623.840796019901  L 766 631  L 753.567164179104 631  L 741.378109452737 630.308457711445  L 734.910447761194 630.308457711445  L 734.910447761194 636.029850746268  L 718.990049751245 639.761194029851  L 709.288557213931 639.761194029851  L 699.089552238806 642  L 701.57711442786 647.472636815922  L 691.626865671642 648  L 691.626865671642 657.174129353235  L 691 661.900497512439  L 687 664.388059701492  L 687 675.333333333334  L 683.169154228856 678.069651741295  L 678.194029850746 684.039800995027  L 670.731343283582 687.273631840797  L 670 688  L 661.527363184081 690.258706467662  L 655.805970149253 690.258706467662  L 644.860696517412 691  L 637.398009950248 691  L 626.203980099501 691  L 622.970149253731 690.258706467662  L 609.537313432836 688  L 600.830845771143 688  L 595.358208955224 691  L 595.358208955224 697.223880597015  L 590.134328358209 700.208955223881  L 584.910447761194 701  L 577.945273631841 701  L 570.219013237063 703.73285198556  L 557.703971119133 710.712394705175  L 553.131167268352 714.322503008425  L 544.466907340554 719.376654632973  L 528.341756919373 726.115523465704  L 516.548736462094 729.725631768953  L 507.884476534296 730  L 497 726.115523465704  L 497 736.945848375451  L 499.942238267148 743.925391095067  L 503.07099879663 754.515042117929  L 507.884476534296 761.494584837545  L 503.07099879663 773.768953068592  L 499.942238267148 776.175691937424  L 494.647412755717 773.768953068592  L 477.800240673886 776.175691937424  L 467.691937424788 780.748495788208  L 458.787003610108 782.914560770157  L 438.811070998796 786.765342960289  L 426.777376654634 789.412755716006  L 417.872442839951 792.300842358605  L 408.486161251503 796.632972322504  C 408.486161251503 796.632972322504  403.432009626955 799.039711191338  394.767749699157 800.965102286403  C 386.103489771359 802.890493381467  376.957882069796 804.575210589652  376.957882069796 804.575210589652  L 373.107099879662 806.981949458484  L 364.442839951864 809.629362214201  L 362.036101083032 816.368231046931  L 357.703971119133 817  L 348.976744186047 813.317829457365  L 345.100775193798 806.981949458484  L 341.483204134366 796.632972322504  L 334.506459948319 792.300842358605  L 328.304909560723 792.300842358605  L 328.304909560723 796.632972322504  L 328.304909560723 800.965102286403  L 323.136950904394 806.981949458484  L 320.811369509045 813.317829457365  L 315.901808785529 817  L 315.901808785529 825.462532299743  L 315.901808785529 830.11369509044  L 310.7338501292 831  L 302.981912144704 831  L 293.529790660224 833.787439613527  L 286.444444444445 837.330112721415  L 277.60794044665 842.57899090157  L 271.983457402811 845.722084367245  L 271 849.36145574855  L 258.253101736973 854.82051282051  L 243.36476426799 857.632754342432  L 240.221670802315 858  L 231.950372208437 852.008271298593  L 226.656741108352 852.008271298593  L 219.708850289493 844.233250620347  L 216.565756823821 838.939619520262  L 206.640198511166 838.939619520262  L 196.383788254753 837.330112721415  L 182.666666666666 831  L 166.133333333334 831  L 153.866666666666 830.11369509044  L 149.6 817  L 144 809.629362214201  L 144 796.632972322504  L 149.6 789.412755716006  L 143.2 776.175691937424  L 143 765.466666666666  L 150 761.494584837545  L 150 749.466666666666  L 153.866666666666 744  L 143.2 744  L 135.733333333334 743.925391095067  L 126.133333333334 749.466666666666  L 116 754.515042117929  L 109.6 761.494584837545  L 100 749.466666666666  L 95.7333333333343 743.925391095067  L 88 730  L 88 714.322503008425  L 87.2 703.73285198556  L 79.7333333333343 691  L 71.2 687.273631840797  L 55.2 678.069651741295  L 36.5333333333342 675.333333333334  L 27.4666666666658 657.174129353235  L 23.2 647.472636815922  L 8.26666666666574 636.029850746268  L 0.799999999999955 620.358208955224  L 27.4666666666658 597.729166666666  L 42.9333333333343 564.65625  L 49.8666666666657 547.989583333334  L 71.2 561.270833333334  L 95.7333333333343 570.385416666666  L 105.333333333334 554.239583333334  L 116 547.989583333334  L 126.133333333334 538.09375  L 135.733333333334 521.166666666666  L 143.2 521  L 166.133333333334 521  L 182.666666666666 521.166666666666  L 196.383788254753 512.052083333334  L 182.666666666666 494.34375  L 197 458.145833333334  L 197 426.512820512822  L 226.656741108352 416.666666666668  L 243.36476426799 393.487179487178  L 271.983457402811 373.589743589741  L 315.901808785529 357.384615384615  L 315.901808785529 348.769230769231  L 272 331.648033126294  L 272 306.665286404416  L 272 289.550034506557  L 302.981912144704 285  L 348.976744186047 285  L 403.304347826087 263.139296840233  L 448.521739130435 245.159768580328  L 472.289855072463 235.065693430657  L 459 217.64499484004  L 459 194.321981424149  L 472.289855072463 186.375644994838  L 503.07099879663 176.607843137256  L 536 163.764705882353  L 536 146.552845528457  L 536 121.738562091502  L 536 105.725490196078  L 536 90.5294117647059  L 570.219013237063 97.0653594771254  L 584.910447761194 86.1176470588234  L 609.537313432836 97.0653594771254  L 655.805970149253 100.986928104576  L 670.731343283582 105.725490196078  L 701.57711442786 100.986928104576  L 699.089552238806 80  L 709.288557213931 75.4967320261449  L 734.910447761194 80  L 753.567164179104 80  L 741.378109452737 60.8846641318144  L 753.567164179104 59.1568627450981  L 766 36.8813982521858  L 780.333333333332 30.5143570536838  L 805.671875 30  L 822.338541666666 13.3333333333321  L 844.473958333334 33.8851435705378  L 855.076923076923 25.4188034188021  L 867.911458333334 21.3162393162381  L 881.059829059828 30.5143570536838  L 901.914529914531 25.4188034188021  L 911.140625 5.58974358974365  L 944.512820512822 0.461538461538566  L 968.239316239315 0.461538461538566  L 987.79487179487 21.3162393162381  L 1002.76923076923 33.8851435705378  L 1013.43589743589 41.3662864385308  Z " stroke-width="6" stroke-dasharray="3,3" stroke="#ffff00" fill="none" transform="matrix(1 0 0 1 1213 339 )" mask="url(#clip1955)" />
    </g>
  </defs>
  <g transform="matrix(1 0 0 1 -1213 -339 )">
    <use xlink:href="#widget1957" filter="url(#filter1956)" />
    <use xlink:href="#widget1957" />
  </g>
</svg>