<?xml version="1.0" encoding="utf-8"?>
<svg version="1.1" xmlns:xlink="http://www.w3.org/1999/xlink" width="406px" height="183px" xmlns="http://www.w3.org/2000/svg">
  <defs>
    <mask fill="white" id="clip1979">
      <path d="M 303.532994923858 37.6086956521739  L 289.46192893401 31.1614906832298  L 303.532994923858 19.3416149068323  L 277.401015228426 9.67080745341615  L 247.248730964467 0  L 225.137055837563 9.67080745341615  L 196.994923857868 19.3416149068323  L 165.837563451777 31.1614906832298  L 139.705583756345 37.6086956521739  L 121 46.2049689440994  L 121 58.0248447204969  L 105.532994923858 67.695652173913  L 76.3857868020305 67.695652173913  L 36.1827411167513 67.695652173913  L 13.0659898477157 58.0248447204969  L 0 67.695652173913  L 0 76.2919254658385  L 65.3299492385787 85.9627329192547  L 92.4670050761421 85.9627329192547  L 120.609137055838 85.9627329192547  L 121 92.4099378881988  L 121 107.453416149068  L 115.583756345178 107.453416149068  L 106 122.496894409938  L 106 136.465838509317  L 105.532994923858 153.658385093168  L 120.609137055838 173  L 140 173  L 140 145.062111801242  L 139.705583756345 136.465838509317  L 182.92385786802 136.465838509317  L 225.137055837563 136.465838509317  L 255.289340101523 145.062111801242  L 295.492385786802 145.062111801242  L 321.624365482233 145.062111801242  L 338.710659898477 145.062111801242  L 345.746192893401 128.944099378882  L 356.802030456853 107.453416149068  L 368.862944162437 107.453416149068  L 388.964467005076 107.453416149068  L 396 107.453416149068  L 396 92.4099378881988  L 396 85.9627329192547  L 378.913705583756 85.9627329192547  L 378.913705583756 76.2919254658385  L 368.862944162437 67.695652173913  L 362.832487309645 58.0248447204969  L 345.746192893401 58.0248447204969  L 328.659898477157 37.6086956521739  L 303.532994923858 37.6086956521739  Z " fill-rule="evenodd" />
    </mask>
    <filter x="2130px" y="230px" width="406px" height="183px" filterUnits="userSpaceOnUse" id="filter1980">
      <feOffset dx="5" dy="5" in="SourceAlpha" result="shadowOffsetInner" />
      <feGaussianBlur stdDeviation="2.5" in="shadowOffsetInner" result="shadowGaussian" />
      <feComposite in2="shadowGaussian" operator="atop" in="SourceAlpha" result="shadowComposite" />
      <feColorMatrix type="matrix" values="0 0 0 0 0.850980392156863  0 0 0 0 0  0 0 0 0 0.105882352941176  0 0 0 0.996078431372549 0  " in="shadowComposite" />
    </filter>
    <g id="widget1981">
      <path d="M 303.532994923858 37.6086956521739  L 289.46192893401 31.1614906832298  L 303.532994923858 19.3416149068323  L 277.401015228426 9.67080745341615  L 247.248730964467 0  L 225.137055837563 9.67080745341615  L 196.994923857868 19.3416149068323  L 165.837563451777 31.1614906832298  L 139.705583756345 37.6086956521739  L 121 46.2049689440994  L 121 58.0248447204969  L 105.532994923858 67.695652173913  L 76.3857868020305 67.695652173913  L 36.1827411167513 67.695652173913  L 13.0659898477157 58.0248447204969  L 0 67.695652173913  L 0 76.2919254658385  L 65.3299492385787 85.9627329192547  L 92.4670050761421 85.9627329192547  L 120.609137055838 85.9627329192547  L 121 92.4099378881988  L 121 107.453416149068  L 115.583756345178 107.453416149068  L 106 122.496894409938  L 106 136.465838509317  L 105.532994923858 153.658385093168  L 120.609137055838 173  L 140 173  L 140 145.062111801242  L 139.705583756345 136.465838509317  L 182.92385786802 136.465838509317  L 225.137055837563 136.465838509317  L 255.289340101523 145.062111801242  L 295.492385786802 145.062111801242  L 321.624365482233 145.062111801242  L 338.710659898477 145.062111801242  L 345.746192893401 128.944099378882  L 356.802030456853 107.453416149068  L 368.862944162437 107.453416149068  L 388.964467005076 107.453416149068  L 396 107.453416149068  L 396 92.4099378881988  L 396 85.9627329192547  L 378.913705583756 85.9627329192547  L 378.913705583756 76.2919254658385  L 368.862944162437 67.695652173913  L 362.832487309645 58.0248447204969  L 345.746192893401 58.0248447204969  L 328.659898477157 37.6086956521739  L 303.532994923858 37.6086956521739  Z " fill-rule="nonzero" fill="#d9001b" stroke="none" transform="matrix(1 0 0 1 2130 230 )" />
      <path d="M 303.532994923858 37.6086956521739  L 289.46192893401 31.1614906832298  L 303.532994923858 19.3416149068323  L 277.401015228426 9.67080745341615  L 247.248730964467 0  L 225.137055837563 9.67080745341615  L 196.994923857868 19.3416149068323  L 165.837563451777 31.1614906832298  L 139.705583756345 37.6086956521739  L 121 46.2049689440994  L 121 58.0248447204969  L 105.532994923858 67.695652173913  L 76.3857868020305 67.695652173913  L 36.1827411167513 67.695652173913  L 13.0659898477157 58.0248447204969  L 0 67.695652173913  L 0 76.2919254658385  L 65.3299492385787 85.9627329192547  L 92.4670050761421 85.9627329192547  L 120.609137055838 85.9627329192547  L 121 92.4099378881988  L 121 107.453416149068  L 115.583756345178 107.453416149068  L 106 122.496894409938  L 106 136.465838509317  L 105.532994923858 153.658385093168  L 120.609137055838 173  L 140 173  L 140 145.062111801242  L 139.705583756345 136.465838509317  L 182.92385786802 136.465838509317  L 225.137055837563 136.465838509317  L 255.289340101523 145.062111801242  L 295.492385786802 145.062111801242  L 321.624365482233 145.062111801242  L 338.710659898477 145.062111801242  L 345.746192893401 128.944099378882  L 356.802030456853 107.453416149068  L 368.862944162437 107.453416149068  L 388.964467005076 107.453416149068  L 396 107.453416149068  L 396 92.4099378881988  L 396 85.9627329192547  L 378.913705583756 85.9627329192547  L 378.913705583756 76.2919254658385  L 368.862944162437 67.695652173913  L 362.832487309645 58.0248447204969  L 345.746192893401 58.0248447204969  L 328.659898477157 37.6086956521739  L 303.532994923858 37.6086956521739  Z " stroke-width="200" stroke="#d9001b" fill="none" transform="matrix(1 0 0 1 2130 230 )" mask="url(#clip1979)" />
    </g>
  </defs>
  <g transform="matrix(1 0 0 1 -2130 -230 )">
    <use xlink:href="#widget1981" filter="url(#filter1980)" />
    <use xlink:href="#widget1981" />
  </g>
</svg>