<?xml version="1.0" encoding="utf-8"?>
<svg version="1.1" xmlns:xlink="http://www.w3.org/1999/xlink" width="396px" height="173px" xmlns="http://www.w3.org/2000/svg">
  <g transform="matrix(1 0 0 1 -2130 -230 )">
    <path d="M 303.532994923858 38  L 289.46192893401 31.1614906832298  L 303.532994923858 19.3416149068323  L 277.401015228426 9.67080745341615  L 247.248730964467 0  L 225.137055837563 9.67080745341615  L 196.994923857868 19.3416149068323  L 165.837563451777 31.1614906832298  L 139.705583756345 37.6086956521739  L 121 46.2049689440994  L 121 58.0248447204969  L 105.532994923858 68  L 76.3857868020305 68  L 36.1827411167513 67.695652173913  L 13.0659898477157 58.0248447204969  L 0 67.695652173913  L 0 76.2919254658385  L 65.3299492385787 86  L 92.4670050761421 86  L 120.609137055838 86  L 121 92.4099378881988  L 121 107.453416149068  L 115.583756345178 107.453416149068  L 106 122.496894409938  L 106 136.465838509317  L 105.532994923858 153.658385093168  L 120.609137055838 173  L 140 173  L 140 145.062111801242  L 139.705583756345 136  L 182.92385786802 136  L 225.137055837563 136.465838509317  L 255.289340101523 145  L 295.492385786802 145  L 321.624365482233 145  L 338.710659898477 145  L 345.746192893401 128.944099378882  L 356.802030456853 107  L 368.862944162437 107  L 388.964467005076 107.453416149068  L 396 107.453416149068  L 396 92.4099378881988  L 396 86  L 378.913705583756 86  L 378.913705583756 76.2919254658385  L 368.862944162437 67.695652173913  L 362.832487309645 58  L 345.746192893401 58  L 328.659898477157 38  L 303.532994923858 38  Z " fill-rule="nonzero" fill="#d9001b" stroke="none" fill-opacity="0.8" transform="matrix(1 0 0 1 2130 230 )" />
  </g>
</svg>