<?xml version="1.0" encoding="utf-8"?>
<svg version="1.1" xmlns:xlink="http://www.w3.org/1999/xlink" width="92px" height="27px" xmlns="http://www.w3.org/2000/svg">
  <defs>
    <filter x="3599px" y="717px" width="92px" height="27px" filterUnits="userSpaceOnUse" id="filter1982">
      <feOffset dx="1" dy="1" in="SourceAlpha" result="shadowOffsetInner" />
      <feGaussianBlur stdDeviation="1.5" in="shadowOffsetInner" result="shadowGaussian" />
      <feComposite in2="shadowGaussian" operator="atop" in="SourceAlpha" result="shadowComposite" />
      <feColorMatrix type="matrix" values="0 0 0 0 1  0 0 0 0 1  0 0 0 0 1  0 0 0 0.996078431372549 0  " in="shadowComposite" />
    </filter>
    <g id="widget1983">
      <path d="M 3601.5 729  A 9.5 9.5 0 0 1 3611 719.5 L 3677 719.5  A 9.5 9.5 0 0 1 3686.5 729 L 3686.5 730  A 9.5 9.5 0 0 1 3677 739.5 L 3611 739.5  A 9.5 9.5 0 0 1 3601.5 730 L 3601.5 729  Z " fill-rule="nonzero" fill="#ffffff" stroke="none" />
      <path d="M 3601.5 729  A 9.5 9.5 0 0 1 3611 719.5 L 3677 719.5  A 9.5 9.5 0 0 1 3686.5 729 L 3686.5 730  A 9.5 9.5 0 0 1 3677 739.5 L 3611 739.5  A 9.5 9.5 0 0 1 3601.5 730 L 3601.5 729  Z " stroke-width="1" stroke="#797979" fill="none" />
    </g>
  </defs>
  <g transform="matrix(1 0 0 1 -3599 -717 )">
    <use xlink:href="#widget1983" filter="url(#filter1982)" />
    <use xlink:href="#widget1983" />
  </g>
</svg>