<?xml version="1.0" encoding="utf-8"?>
<svg version="1.1" xmlns:xlink="http://www.w3.org/1999/xlink" width="154px" height="27px" xmlns="http://www.w3.org/2000/svg">
  <defs>
    <filter x="3599px" y="773px" width="154px" height="27px" filterUnits="userSpaceOnUse" id="filter1992">
      <feOffset dx="1" dy="1" in="SourceAlpha" result="shadowOffsetInner" />
      <feGaussianBlur stdDeviation="1.5" in="shadowOffsetInner" result="shadowGaussian" />
      <feComposite in2="shadowGaussian" operator="atop" in="SourceAlpha" result="shadowComposite" />
      <feColorMatrix type="matrix" values="0 0 0 0 1  0 0 0 0 1  0 0 0 0 1  0 0 0 0.996078431372549 0  " in="shadowComposite" />
    </filter>
    <g id="widget1993">
      <path d="M 3601.5 785  A 9.5 9.5 0 0 1 3611 775.5 L 3739 775.5  A 9.5 9.5 0 0 1 3748.5 785 L 3748.5 786  A 9.5 9.5 0 0 1 3739 795.5 L 3611 795.5  A 9.5 9.5 0 0 1 3601.5 786 L 3601.5 785  Z " fill-rule="nonzero" fill="#ec80db" stroke="none" fill-opacity="0.996078431372549" />
      <path d="M 3601.5 785  A 9.5 9.5 0 0 1 3611 775.5 L 3739 775.5  A 9.5 9.5 0 0 1 3748.5 785 L 3748.5 786  A 9.5 9.5 0 0 1 3739 795.5 L 3611 795.5  A 9.5 9.5 0 0 1 3601.5 786 L 3601.5 785  Z " stroke-width="1" stroke="#797979" fill="none" />
    </g>
  </defs>
  <g transform="matrix(1 0 0 1 -3599 -773 )">
    <use xlink:href="#widget1993" filter="url(#filter1992)" />
    <use xlink:href="#widget1993" />
  </g>
</svg>