<?xml version="1.0" encoding="utf-8"?>
<svg version="1.1" xmlns:xlink="http://www.w3.org/1999/xlink" width="114px" height="27px" xmlns="http://www.w3.org/2000/svg">
  <defs>
    <filter x="3599px" y="808px" width="114px" height="27px" filterUnits="userSpaceOnUse" id="filter1994">
      <feOffset dx="1" dy="1" in="SourceAlpha" result="shadowOffsetInner" />
      <feGaussianBlur stdDeviation="1.5" in="shadowOffsetInner" result="shadowGaussian" />
      <feComposite in2="shadowGaussian" operator="atop" in="SourceAlpha" result="shadowComposite" />
      <feColorMatrix type="matrix" values="0 0 0 0 1  0 0 0 0 1  0 0 0 0 1  0 0 0 0.996078431372549 0  " in="shadowComposite" />
    </filter>
    <g id="widget1995">
      <path d="M 3601.5 820  A 9.5 9.5 0 0 1 3611 810.5 L 3699 810.5  A 9.5 9.5 0 0 1 3708.5 820 L 3708.5 821  A 9.5 9.5 0 0 1 3699 830.5 L 3611 830.5  A 9.5 9.5 0 0 1 3601.5 821 L 3601.5 820  Z " fill-rule="nonzero" fill="#ffffff" stroke="none" />
      <path d="M 3601.5 820  A 9.5 9.5 0 0 1 3611 810.5 L 3699 810.5  A 9.5 9.5 0 0 1 3708.5 820 L 3708.5 821  A 9.5 9.5 0 0 1 3699 830.5 L 3611 830.5  A 9.5 9.5 0 0 1 3601.5 821 L 3601.5 820  Z " stroke-width="1" stroke="#797979" fill="none" />
    </g>
  </defs>
  <g transform="matrix(1 0 0 1 -3599 -808 )">
    <use xlink:href="#widget1995" filter="url(#filter1994)" />
    <use xlink:href="#widget1995" />
  </g>
</svg>