<?xml version="1.0" encoding="utf-8"?>
<svg version="1.1" xmlns:xlink="http://www.w3.org/1999/xlink" width="314px" height="120px" xmlns="http://www.w3.org/2000/svg">
  <g transform="matrix(1 0 0 1 -1253 -1075 )">
    <path d="M 245.770992366412 1.11455108359118  L 249.505564387917 1.11455108359118  L 255 59.1515354363651  L 255 75.6187766714081  L 264.131955484896 100.118818508911  L 293.543720190779 98.3114383733579  L 297.518282988871 90.4794577859592  L 295.928457869634 66.3810559785792  L 298 55.5367751652583  L 304.990461049284 37.6637938247847  L 310.077901430843 27.6227930717094  L 311 23.0039327252949  L 308.170111287758 36.0572337042924  L 311 41.8810141410762  L 313.41653418124 52.7252949543971  L 314 64.1720358129026  L 312.621621621622 75.6187766714081  L 306.262321144674 90.4794577859592  L 293.543720190779 105.540958915572  L 271.286168521463 117.3893398042  L 247.279809220985 119.196719939754  L 224.386327503974 114.176219563217  L 206.262321144674 100.118818508911  L 196.405405405405 86.0614174546064  L 196.405405405405 90.4794577859592  L 196 95  L 0.504132231405038 95  L 0 29.699869508482  L 196.405405405405 36.0572337042924  L 207.984732824427 18.9955805544396  L 216.572519083969 12.0048212133386  L 226.30534351145 6.46042587384478  L 236.992366412213 2.3623945359581  L 245.770992366412 1.11455108359118  Z " fill-rule="nonzero" fill="#bac3c8" stroke="none" transform="matrix(1 0 0 1 1253 1075 )" />
  </g>
</svg>