<?xml version="1.0" encoding="utf-8"?>
<svg version="1.1" xmlns:xlink="http://www.w3.org/1999/xlink" width="53px" height="67px" xmlns="http://www.w3.org/2000/svg">
  <defs>
    <filter x="-1257px" y="3935px" width="53px" height="67px" filterUnits="userSpaceOnUse" id="filter2003">
      <feOffset dx="1" dy="1" in="SourceAlpha" result="shadowOffsetInner" />
      <feGaussianBlur stdDeviation="2.5" in="shadowOffsetInner" result="shadowGaussian" />
      <feComposite in2="shadowGaussian" operator="atop" in="SourceAlpha" result="shadowComposite" />
      <feColorMatrix type="matrix" values="0 0 0 0 0  0 0 0 0 0  0 0 0 0 0  0 0 0 0.698039215686274 0  " in="shadowComposite" />
    </filter>
    <g id="widget2004">
      <path d="M -1231.5 3995.04071174747  C -1239.9 3981.15966876767  -1252.5 3972.8310429798  -1252.5 3958.95  C -1252.5 3951.72571428571  -1248.3 3939.5  -1231.5 3939.5  C -1214.7 3939.5  -1210.5 3951.72571428571  -1210.5 3958.95  C -1210.5 3972.8310429798  -1223.1 3981.15966876767  -1231.5 3995.04071174747  Z " fill-rule="nonzero" fill="#558aa9" stroke="none" />
      <path d="M -1231.5 3996  C -1240.1 3981.75  -1253 3973.2  -1253 3958.95  C -1253 3951.54  -1248.7 3939  -1231.5 3939  C -1214.3 3939  -1210 3951.54  -1210 3958.95  C -1210 3973.2  -1222.9 3981.75  -1231.5 3996  Z M -1231.5 3994.08142349494  C -1223.3 3980.56933753535  -1211 3972.46208595959  -1211 3958.95  C -1211 3951.91142857143  -1215.1 3940  -1231.5 3940  C -1247.9 3940  -1252 3951.91142857143  -1252 3958.95  C -1252 3972.46208595959  -1239.7 3980.56933753535  -1231.5 3994.08142349494  Z " fill-rule="nonzero" fill="#ffffff" stroke="none" />
    </g>
  </defs>
  <g transform="matrix(1 0 0 1 1257 -3935 )">
    <use xlink:href="#widget2004" filter="url(#filter2003)" />
    <use xlink:href="#widget2004" />
  </g>
</svg>