<?xml version="1.0" encoding="utf-8"?>
<svg version="1.1" xmlns:xlink="http://www.w3.org/1999/xlink" width="96px" height="76px" xmlns="http://www.w3.org/2000/svg">
  <g transform="matrix(1 0 0 1 -1981 -375 )">
    <path d="M 20.0121457489877 11.0323886639676  L 17.9878542510121 4.95951417004045  L 27.5020242914977 0.708502024291477  L 38.4331983805666 11.0323886639676  L 51.1862348178136 12  L 56.0445344129553 5  L 91.2672064777325 5  L 95.5182186234815 11.0323886639676  L 85.1943319838056 34.7165991902834  L 95.5182186234815 50.9109311740891  L 93.6963562753035 61.0323886639676  L 89.4453441295545 63.8663967611336  L 70.6194331983802 66.2955465587044  L 67.7854251012145 74  L 52.6032388663966 74  L 8 75.2024291497975  L 8 40.7894736842105  L 0.781376518218394 39.1700404858299  L 0 29  L 11.5101214574897 29  L 7.46153846153834 23.1781376518218  L 1.99595141700388 21.5587044534412  L 0.781376518218394 13.0566801619433  L 20.0121457489877 11.0323886639676  Z " fill-rule="nonzero" fill="#516462" stroke="none" transform="matrix(1 0 0 1 1981 375 )" />
  </g>
</svg>