<?xml version="1.0" encoding="utf-8"?>
<svg version="1.1" xmlns:xlink="http://www.w3.org/1999/xlink" width="63px" height="79px" xmlns="http://www.w3.org/2000/svg">
  <g transform="matrix(1 0 0 1 -1502 -1091 )">
    <path d="M 9.88553259141509 5.92368839427672  L 8.7726550079492 0.041335453100146  L 0.982511923688435 0.041335453100146  L 3.84419713831494 20.2321144674086  L 5.43402225755153 33.4276629570747  L 7 45.3513513513512  L 7 57.9109697933227  L 8.7726550079492 64  L 12.1112877583464 71.2655007949124  L 14.9729729729729 79  L 27.2146263910968 78.7376788553258  L 44.8616852146265 76.8298887122417  L 48.9952305246425 71.2655007949124  L 46.9284578696343 57.9109697933227  L 47.8823529411766 46.3052464228936  L 50.9030206677267 37.5612082670907  L 54.8775834658186 30.0890302066773  L 60.1240063593004 22.1399046104927  L 62.6677265500794 17.0524642289349  L 59.3290937996821 15.939586645469  L 53.9236883942767 19.2782193958665  L 44.0667726550078 28.4992050874405  L 38 36.7662957074722  L 38 61.2496025437201  L 38.6613672496023 62.9984101748807  L 14 55.0492845786964  L 14 36.7662957074722  L 12.1112877583464 22.1399046104927  L 9.88553259141509 5.92368839427672  Z " fill-rule="nonzero" fill="#9d2630" stroke="none" transform="matrix(1 0 0 1 1502 1091 )" />
  </g>
</svg>