<?xml version="1.0" encoding="utf-8"?>
<svg version="1.1" xmlns:xlink="http://www.w3.org/1999/xlink" width="69px" height="69px" xmlns="http://www.w3.org/2000/svg">
  <defs>
    <mask fill="white" id="clip2000">
      <path d="M 47.8451178451178 36.6262626262626  C 48.6150392817059 37.3961840628507  49 38.331088664422  49 39.4309764309764  C 49 40.5308641975309  48.6150392817059 41.4657687991021  47.8451178451178 42.2356902356902  L 42.2356902356902 47.8451178451178  C 41.4657687991021 48.6150392817059  40.5308641975309 49  39.4309764309764 49  C 38.331088664422 49  37.3961840628507 48.6150392817059  36.6262626262626 47.8451178451178  L 24.5 35.7188552188552  L 12.3737373737374 47.8451178451178  C 11.6038159371493 48.6150392817059  10.668911335578 49  9.56902356902357 49  C 8.46913580246914 49  7.53423120089787 48.6150392817059  6.76430976430976 47.8451178451178  L 1.15488215488215 42.2356902356902  C 0.384960718294052 41.4657687991021  0 40.5308641975309  0 39.4309764309764  C 0 38.331088664422  0.384960718294052 37.3961840628507  1.15488215488215 36.6262626262626  L 13.2811447811448 24.5  L 1.15488215488215 12.3737373737374  C 0.384960718294052 11.6038159371493  0 10.668911335578  0 9.56902356902357  C 0 8.46913580246914  0.384960718294052 7.53423120089786  1.15488215488215 6.76430976430977  L 6.76430976430976 1.15488215488216  C 7.53423120089787 0.38496071829405  8.46913580246914 0  9.56902356902357 0  C 10.668911335578 0  11.6038159371493 0.38496071829405  12.3737373737374 1.15488215488216  L 24.5 13.2811447811448  L 36.6262626262626 1.15488215488216  C 37.3961840628507 0.38496071829405  38.331088664422 0  39.4309764309764 0  C 40.5308641975309 0  41.4657687991021 0.38496071829405  42.2356902356902 1.15488215488216  L 47.8451178451178 6.76430976430977  C 48.6150392817059 7.53423120089786  49 8.46913580246914  49 9.56902356902357  C 49 10.668911335578  48.6150392817059 11.6038159371493  47.8451178451178 12.3737373737374  L 35.7188552188552 24.5  L 47.8451178451178 36.6262626262626  Z " fill-rule="evenodd" />
    </mask>
    <filter x="2577px" y="210px" width="69px" height="69px" filterUnits="userSpaceOnUse" id="filter2001">
      <feOffset dx="5" dy="5" in="SourceAlpha" result="shadowOffsetInner" />
      <feGaussianBlur stdDeviation="5" in="shadowOffsetInner" result="shadowGaussian" />
      <feComposite in2="shadowGaussian" operator="atop" in="SourceAlpha" result="shadowComposite" />
      <feColorMatrix type="matrix" values="0 0 0 0 0  0 0 0 0 0  0 0 0 0 0  0 0 0 0.313725490196078 0  " in="shadowComposite" />
    </filter>
    <g id="widget2002">
      <path d="M 47.8451178451178 36.6262626262626  C 48.6150392817059 37.3961840628507  49 38.331088664422  49 39.4309764309764  C 49 40.5308641975309  48.6150392817059 41.4657687991021  47.8451178451178 42.2356902356902  L 42.2356902356902 47.8451178451178  C 41.4657687991021 48.6150392817059  40.5308641975309 49  39.4309764309764 49  C 38.331088664422 49  37.3961840628507 48.6150392817059  36.6262626262626 47.8451178451178  L 24.5 35.7188552188552  L 12.3737373737374 47.8451178451178  C 11.6038159371493 48.6150392817059  10.668911335578 49  9.56902356902357 49  C 8.46913580246914 49  7.53423120089787 48.6150392817059  6.76430976430976 47.8451178451178  L 1.15488215488215 42.2356902356902  C 0.384960718294052 41.4657687991021  0 40.5308641975309  0 39.4309764309764  C 0 38.331088664422  0.384960718294052 37.3961840628507  1.15488215488215 36.6262626262626  L 13.2811447811448 24.5  L 1.15488215488215 12.3737373737374  C 0.384960718294052 11.6038159371493  0 10.668911335578  0 9.56902356902357  C 0 8.46913580246914  0.384960718294052 7.53423120089786  1.15488215488215 6.76430976430977  L 6.76430976430976 1.15488215488216  C 7.53423120089787 0.38496071829405  8.46913580246914 0  9.56902356902357 0  C 10.668911335578 0  11.6038159371493 0.38496071829405  12.3737373737374 1.15488215488216  L 24.5 13.2811447811448  L 36.6262626262626 1.15488215488216  C 37.3961840628507 0.38496071829405  38.331088664422 0  39.4309764309764 0  C 40.5308641975309 0  41.4657687991021 0.38496071829405  42.2356902356902 1.15488215488216  L 47.8451178451178 6.76430976430977  C 48.6150392817059 7.53423120089786  49 8.46913580246914  49 9.56902356902357  C 49 10.668911335578  48.6150392817059 11.6038159371493  47.8451178451178 12.3737373737374  L 35.7188552188552 24.5  L 47.8451178451178 36.6262626262626  Z " fill-rule="nonzero" fill="#d9001b" stroke="none" transform="matrix(1 0 0 1 2582 215 )" />
      <path d="M 47.8451178451178 36.6262626262626  C 48.6150392817059 37.3961840628507  49 38.331088664422  49 39.4309764309764  C 49 40.5308641975309  48.6150392817059 41.4657687991021  47.8451178451178 42.2356902356902  L 42.2356902356902 47.8451178451178  C 41.4657687991021 48.6150392817059  40.5308641975309 49  39.4309764309764 49  C 38.331088664422 49  37.3961840628507 48.6150392817059  36.6262626262626 47.8451178451178  L 24.5 35.7188552188552  L 12.3737373737374 47.8451178451178  C 11.6038159371493 48.6150392817059  10.668911335578 49  9.56902356902357 49  C 8.46913580246914 49  7.53423120089787 48.6150392817059  6.76430976430976 47.8451178451178  L 1.15488215488215 42.2356902356902  C 0.384960718294052 41.4657687991021  0 40.5308641975309  0 39.4309764309764  C 0 38.331088664422  0.384960718294052 37.3961840628507  1.15488215488215 36.6262626262626  L 13.2811447811448 24.5  L 1.15488215488215 12.3737373737374  C 0.384960718294052 11.6038159371493  0 10.668911335578  0 9.56902356902357  C 0 8.46913580246914  0.384960718294052 7.53423120089786  1.15488215488215 6.76430976430977  L 6.76430976430976 1.15488215488216  C 7.53423120089787 0.38496071829405  8.46913580246914 0  9.56902356902357 0  C 10.668911335578 0  11.6038159371493 0.38496071829405  12.3737373737374 1.15488215488216  L 24.5 13.2811447811448  L 36.6262626262626 1.15488215488216  C 37.3961840628507 0.38496071829405  38.331088664422 0  39.4309764309764 0  C 40.5308641975309 0  41.4657687991021 0.38496071829405  42.2356902356902 1.15488215488216  L 47.8451178451178 6.76430976430977  C 48.6150392817059 7.53423120089786  49 8.46913580246914  49 9.56902356902357  C 49 10.668911335578  48.6150392817059 11.6038159371493  47.8451178451178 12.3737373737374  L 35.7188552188552 24.5  L 47.8451178451178 36.6262626262626  Z " stroke-width="10" stroke="#d9001b" fill="none" transform="matrix(1 0 0 1 2582 215 )" mask="url(#clip2000)" />
    </g>
  </defs>
  <g transform="matrix(1 0 0 1 -2577 -210 )">
    <use xlink:href="#widget2002" filter="url(#filter2001)" />
    <use xlink:href="#widget2002" />
  </g>
</svg>