<?xml version="1.0" encoding="utf-8"?>
<svg version="1.1" xmlns:xlink="http://www.w3.org/1999/xlink" width="31px" height="38px" xmlns="http://www.w3.org/2000/svg">
  <defs>
    <filter x="1850px" y="162px" width="31px" height="38px" filterUnits="userSpaceOnUse" id="filter2017">
      <feOffset dx="1" dy="1" in="SourceAlpha" result="shadowOffsetInner" />
      <feGaussianBlur stdDeviation="2.5" in="shadowOffsetInner" result="shadowGaussian" />
      <feComposite in2="shadowGaussian" operator="atop" in="SourceAlpha" result="shadowComposite" />
      <feColorMatrix type="matrix" values="0 0 0 0 0  0 0 0 0 0  0 0 0 0 0  0 0 0 0.698039215686274 0  " in="shadowComposite" />
    </filter>
    <g id="widget2018">
      <path d="M 1864.5 193.036928468354  C 1860.5 186.40734059591  1854.5 182.429587872444  1854.5 175.8  C 1854.5 172.345714285714  1856.5 166.5  1864.5 166.5  C 1872.5 166.5  1874.5 172.345714285714  1874.5 175.8  C 1874.5 182.429587872444  1868.5 186.40734059591  1864.5 193.036928468354  Z " fill-rule="nonzero" fill="#009dd9" stroke="none" />
      <path d="M 1864.5 194  C 1860.3 187  1854 182.8  1854 175.8  C 1854 172.16  1856.1 166  1864.5 166  C 1872.9 166  1875 172.16  1875 175.8  C 1875 182.8  1868.7 187  1864.5 194  Z M 1864.5 192.073856936707  C 1868.3 185.81468119182  1874 182.059175744887  1874 175.8  C 1874 172.531428571429  1872.1 167  1864.5 167  C 1856.9 167  1855 172.531428571429  1855 175.8  C 1855 182.059175744887  1860.7 185.81468119182  1864.5 192.073856936707  Z " fill-rule="nonzero" fill="#ffffff" stroke="none" />
    </g>
  </defs>
  <g transform="matrix(1 0 0 1 -1850 -162 )">
    <use xlink:href="#widget2018" filter="url(#filter2017)" />
    <use xlink:href="#widget2018" />
  </g>
</svg>