<?xml version="1.0" encoding="utf-8"?>
<svg version="1.1" xmlns:xlink="http://www.w3.org/1999/xlink" width="1346px" height="1235px" xmlns="http://www.w3.org/2000/svg">
  <defs>
    <mask fill="white" id="clip2019">
      <path d="M 742 103.444444444444  L 714.265486725664 97.0530973451328  L 706.010582010582 71.1693121693122  L 697.015873015873 51.5925925925926  L 690.666666666667 36.7777777777778  L 690 26.7248677248677  L 684.31746031746 17.7301587301587  L 675.322751322752 17  L 659.978835978836 9.26455026455027  L 647.809523809524 4.50264550264551  L 638.285714285714 10  L 627.174603174603 10  L 609.714285714286 4.50264550264551  L 589.079365079365 0.269841269841272  L 579.448717948718 0.269841269841272  L 579 14.1282051282051  L 576.884615384615 26.7248677248677  L 572.717948717949 41.051282051282  L 566.948717948718 49.3846153846154  L 560.538461538461 59.6410256410256  L 551.884615384615 67.3333333333333  L 533.615384615385 73.4230769230769  L 518.230769230769 71.1693121693122  L 507.653846153846 65.4102564102564  L 497.717948717949 63.8076923076923  L 494.833333333333 63.8076923076923  L 486.179487179487 63.8076923076923  L 482.012820512821 63.8076923076923  L 474.961538461538 63.8076923076923  L 468.871794871795 62  L 458.615384615385 62  L 454.128205128205 61.5641025641025  L 451.564102564103 65.4102564102564  L 448.038461538461 71.1693121693122  L 448 75.6666666666666  L 444.833333333333 79.1923076923077  L 437.461538461538 79.1923076923077  L 432.012820512821 81.1153846153846  L 426.564102564103 83.6794871794871  L 423.358974358974 87.2051282051282  L 423 90.4814814814814  L 420.604938271603 97.0530973451328  L 423 103.444444444444  L 423.358974358974 108.382716049383  L 423 113.62962962963  L 420 119.185185185185  L 409.493827160491 122.58024691358  L 402.703703703701 122.58024691358  L 388.814814814813 123  L 386.345679012343 127.827160493827  L 381.716049382714 132.765432098765  L 373.38271604938 138.320987654321  L 355.790123456788 144.185185185183  L 348.691358024689 144.185185185183  L 344.061728395059 145  L 340.666666666664 152.209876543208  L 332.333333333331 166.098765432096  L 332 172.888888888887  L 328.629629629627 177.209876543208  L 323.074074074072 189.555555555553  L 319.987654320985 196.654320987652  L 319 206.530864197529  L 319 219.185185185183  L 314.123456790121 227.209876543208  L 307.950617283948 231.22222222222  L 300.234567901232 234.308641975306  L 296.22222222222 235  L 291.901234567899 247.271604938269  L 284.8024691358 253.753086419751  L 279.246913580245 258.999999999998  L 270.049661399549 259  L 258.537246049661 259  L 244.090293453725 256.06546275395  L 227.160270880361 253.753086419751  L 209.778781038375 256.06546275395  L 190.139954853273 262  L 175.467268623025 262  L 163.954853273138 258.999999999998  L 155.3769751693 256.06546275395  L 146.573363431151 256.06546275395  L 135.654135338346 258.999999999998  L 120.992481203007 262  L 101.067669172932 272.90977443609  L 90.9172932330825 280.052631578947  L 86.781954887218 290.203007518797  L 82.6466165413533 303.360902255639  L 77.3834586466164 314.639097744361  L 66.1052631578946 321.406015037594  L 60.4661654135339 328.548872180451  L 61 334.764192139738  L 61 347.864628820961  L 62.8646288209607 362.711790393013  L 69.1965065502184 384.545851528384  L 76.1834061135371 397.427947598253  L 79.7142857142856 406.857142857143  L 77.3834586466164 419  L 69.1965065502184 433.047619047619  L 66.1052631578946 443.047619047619  L 66.1052631578946 451.619047619048  L 66.1052631578946 456.619047619047  L 64.2380952380952 463.52380952381  L 60.4661654135339 480.666666666667  L 57.0952380952381 487.809523809524  L 54.7142857142855 493.761904761905  L 49.952380952381 499.952380952381  L 39.952380952381 512.333333333333  L 33.5238095238094 518.52380952381  L 30.9047619047619 522.809523809524  L 24.2739726027398 528.041095890411  L 10.5753424657535 537.356164383562  L 0.712328767123381 543.383561643835  L 4.27397260273983 548.58904109589  L 13.8630136986301 553.520547945206  L 20.1643835616439 558.452054794521  L 39.952380952381 570.780821917808  L 49.952380952381 577.082191780822  L 66.1052631578946 586.123287671233  L 82.6466165413533 594.62091503268  L 90.9172932330825 597.888888888889  L 99.1633986928105 600.503267973856  L 117.790849673203 608.673202614379  L 126.614379084967 613.575163398693  L 142.300653594771 622.725490196078  L 150.470588235294 629.261437908497  L 163.954853273138 640.699346405229  L 171.385620915033 647.562091503268  L 185.764705882353 659.653594771242  L 194.261437908497 666.18954248366  L 209.778781038375 676.320261437908  L 227.160270880361 687.358208955224  L 244.090293453725 696.810945273632  L 258.537246049661 707.756218905473  L 266.786069651741 714.223880597015  L 279.246913580245 726.164179104478  L 291.901234567899 733.129353233831  L 300.234567901232 740.094527363184  L 314.123456790121 747.557213930348  L 328.629629629627 757.507462686567  L 337.432835820896 761.985074626866  L 348.691358024689 770.940298507463  L 362.308457711443 775.915422885572  L 366.786069651741 787.358208955224  L 366.786069651741 792.333333333333  L 362.308457711443 796.313432835821  L 340.666666666664 801.288557213931  L 337.432835820896 810.741293532338  L 332 824.174129353234  L 340.666666666664 828  L 352.358208955224 828  L 366.786069651741 828.154228855722  L 381.716049382714 819.696517412936  L 386.345679012343 815.231884057971  L 395.014492753623 816.971014492754  L 402.703703703701 819.696517412936  L 415.594202898551 828.154228855722  L 428.63768115942 832.333333333333  L 441.971014492754 838.130434782609  L 458.615384615385 843.347826086957  L 474.961538461538 848.855072463768  L 494.833333333333 855.551724137931  L 501.394636015326 866.662835249042  L 507.653846153846 879.306513409962  L 504.459770114943 886.969348659004  L 509.823754789272 889.651340996169  L 514.038314176245 894.249042145594  L 522.08429118774 903.444444444444  L 533.615384615385 907.275862068966  L 537.026819923372 910.340996168582  L 537 918.386973180077  L 537 929.498084291188  L 537.026819923372 936.011494252874  L 540.858237547893 944.823754789272  L 548.137931034483 953.636015325671  L 555.034482758621 958.616858237548  L 564.229885057471 966.27969348659  L 574.95785440613 972.026819923372  L 579.448717948718 975.091954022989  L 591.432950191571 980.455938697318  L 604.076628352491 983.521072796935  L 612.888888888889 984  L 622.08429118774 991.567049808429  L 622 995.781609195402  L 622 1009.95785440613  L 632.429118773946 1018.38697318008  L 638.285714285714 1032.18007662835  L 647.809523809524 1042.52490421456  L 659.978835978836 1047.88888888889  L 662.314176245211 1059.7662835249  L 670.360153256705 1071.64367816092  L 675.322751322752 1086.2030651341  L 675 1096.16475095785  L 675 1107.65900383142  L 675.322751322752 1127.34532374101  L 684.31746031746 1135.25899280576  L 675 1152.52517985612  L 675 1176.98561151079  L 675.322751322752 1189.21582733813  L 670.360153256705 1204.32374100719  L 662.314176245211 1217.9928057554  L 675.322751322752 1227.34532374101  L 697.015873015873 1234.53956834532  L 714.265486725664 1227.34532374101  L 734.071942446043 1211.51798561151  L 742 1199.28776978417  L 742 1183.46043165468  L 750.618705035971 1166  L 776.517985611511 1166  L 822.561151079137 1166.19424460432  L 855.654676258993 1170.51079136691  L 877.237410071943 1176.98561151079  L 904.575539568345 1194.97122302158  L 932.63309352518 1199.28776978417  L 955.654676258993 1189.21582733813  L 979.395683453238 1194.97122302158  L 1013.20863309353 1204  L 1044 1204  L 1060.8 1211  L 1080.8 1211  L 1102.4 1217.9928057554  L 1127.2 1227.34532374101  L 1148.8 1234.53956834532  L 1164 1235  L 1213.6 1227.34532374101  L 1242.4 1211.51798561151  L 1249 1199.28776978417  L 1249 1183.46043165468  L 1257.6 1176.98561151079  L 1258 1162.2  L 1258 1152.52517985612  L 1257.6 1147  L 1257.6 1141.4  L 1273.6 1135.25899280576  L 1273.6 1127.34532374101  L 1284 1107.65900383142  L 1291.2 1096.16475095785  L 1292 1079  L 1305.6 1063.8  L 1316.8 1047.88888888889  L 1324.8 1032.18007662835  L 1325 1026.2  L 1325 1009.95785440613  L 1329.6 991.567049808429  L 1338 972.026819923372  L 1338 958.616858237548  L 1329.6 936.011494252874  L 1338.4 910.340996168582  L 1345.6 879.306513409962  L 1338.4 855.551724137931  L 1325 832.333333333333  L 1316.8 801.288557213931  L 1305.6 792.333333333333  L 1316 770.940298507463  L 1316 757.507462686567  L 1305.6 733.129353233831  L 1292 714.223880597015  L 1291.2 696.810945273632  L 1284 696  L 1258 696  L 1249.6 676.320261437908  L 1257.6 671.380952380952  L 1263.04761904762 666.18954248366  L 1249.6 647.562091503268  L 1242.4 635.190476190476  L 1225.90476190476 594.62091503268  L 1206.85714285714 564.714285714286  L 1184.95238095238 543.383561643835  L 1164 537.356164383562  L 1148.8 518.52380952381  L 1102.4 493.761904761905  L 1052.57142857143 480.666666666667  L 1027.80952380952 463.52380952381  L 979.395683453238 443.047619047619  L 961.142857142857 433.047619047619  L 924.952380952381 397.427947598253  L 904.575539568345 378.130434782609  L 897.04347826087 378.130434782609  L 877.237410071943 368.565217391304  L 850.086956521739 358.130434782609  L 830.95652173913 347.864628820961  L 816.173913043478 334.764192139738  L 799.652173913044 321.406015037594  L 795.304347826087 303.360902255639  L 789 280.052631578947  L 789 256.06546275395  L 789 247.271604938269  L 789 232  L 807.478260869565 232  L 841.391304347826 235  L 855.654676258993 231.22222222222  L 864.869565217392 227.209876543208  L 871.826086956522 231.22222222222  L 885.739130434783 219.185185185183  L 877.237410071943 206.530864197529  L 864.869565217392 196.654320987652  L 860.521739130435 177.209876543208  L 860.521739130435 172.888888888887  L 855.654676258993 152.209876543208  L 850.086956521739 145  L 830.95652173913 138.320987654321  L 807.478260869565 122.58024691358  L 789.217391304348 109  L 776.517985611511 109  L 742 103.444444444444  Z " fill-rule="evenodd" />
    </mask>
  </defs>
  <g transform="matrix(1 0 0 1 -1043 -41 )">
    <path d="M 742 103.444444444444  L 714.265486725664 97.0530973451328  L 706.010582010582 71.1693121693122  L 697.015873015873 51.5925925925926  L 690.666666666667 36.7777777777778  L 690 26.7248677248677  L 684.31746031746 17.7301587301587  L 675.322751322752 17  L 659.978835978836 9.26455026455027  L 647.809523809524 4.50264550264551  L 638.285714285714 10  L 627.174603174603 10  L 609.714285714286 4.50264550264551  L 589.079365079365 0.269841269841272  L 579.448717948718 0.269841269841272  L 579 14.1282051282051  L 576.884615384615 26.7248677248677  L 572.717948717949 41.051282051282  L 566.948717948718 49.3846153846154  L 560.538461538461 59.6410256410256  L 551.884615384615 67.3333333333333  L 533.615384615385 73.4230769230769  L 518.230769230769 71.1693121693122  L 507.653846153846 65.4102564102564  L 497.717948717949 63.8076923076923  L 494.833333333333 63.8076923076923  L 486.179487179487 63.8076923076923  L 482.012820512821 63.8076923076923  L 474.961538461538 63.8076923076923  L 468.871794871795 62  L 458.615384615385 62  L 454.128205128205 61.5641025641025  L 451.564102564103 65.4102564102564  L 448.038461538461 71.1693121693122  L 448 75.6666666666666  L 444.833333333333 79.1923076923077  L 437.461538461538 79.1923076923077  L 432.012820512821 81.1153846153846  L 426.564102564103 83.6794871794871  L 423.358974358974 87.2051282051282  L 423 90.4814814814814  L 420.604938271603 97.0530973451328  L 423 103.444444444444  L 423.358974358974 108.382716049383  L 423 113.62962962963  L 420 119.185185185185  L 409.493827160491 122.58024691358  L 402.703703703701 122.58024691358  L 388.814814814813 123  L 386.345679012343 127.827160493827  L 381.716049382714 132.765432098765  L 373.38271604938 138.320987654321  L 355.790123456788 144.185185185183  L 348.691358024689 144.185185185183  L 344.061728395059 145  L 340.666666666664 152.209876543208  L 332.333333333331 166.098765432096  L 332 172.888888888887  L 328.629629629627 177.209876543208  L 323.074074074072 189.555555555553  L 319.987654320985 196.654320987652  L 319 206.530864197529  L 319 219.185185185183  L 314.123456790121 227.209876543208  L 307.950617283948 231.22222222222  L 300.234567901232 234.308641975306  L 296.22222222222 235  L 291.901234567899 247.271604938269  L 284.8024691358 253.753086419751  L 279.246913580245 258.999999999998  L 270.049661399549 259  L 258.537246049661 259  L 244.090293453725 256.06546275395  L 227.160270880361 253.753086419751  L 209.778781038375 256.06546275395  L 190.139954853273 262  L 175.467268623025 262  L 163.954853273138 258.999999999998  L 155.3769751693 256.06546275395  L 146.573363431151 256.06546275395  L 135.654135338346 258.999999999998  L 120.992481203007 262  L 101.067669172932 272.90977443609  L 90.9172932330825 280.052631578947  L 86.781954887218 290.203007518797  L 82.6466165413533 303.360902255639  L 77.3834586466164 314.639097744361  L 66.1052631578946 321.406015037594  L 60.4661654135339 328.548872180451  L 61 334.764192139738  L 61 347.864628820961  L 62.8646288209607 362.711790393013  L 69.1965065502184 384.545851528384  L 76.1834061135371 397.427947598253  L 79.7142857142856 406.857142857143  L 77.3834586466164 419  L 69.1965065502184 433.047619047619  L 66.1052631578946 443.047619047619  L 66.1052631578946 451.619047619048  L 66.1052631578946 456.619047619047  L 64.2380952380952 463.52380952381  L 60.4661654135339 480.666666666667  L 57.0952380952381 487.809523809524  L 54.7142857142855 493.761904761905  L 49.952380952381 499.952380952381  L 39.952380952381 512.333333333333  L 33.5238095238094 518.52380952381  L 30.9047619047619 522.809523809524  L 24.2739726027398 528.041095890411  L 10.5753424657535 537.356164383562  L 0.712328767123381 543.383561643835  L 4.27397260273983 548.58904109589  L 13.8630136986301 553.520547945206  L 20.1643835616439 558.452054794521  L 39.952380952381 570.780821917808  L 49.952380952381 577.082191780822  L 66.1052631578946 586.123287671233  L 82.6466165413533 594.62091503268  L 90.9172932330825 597.888888888889  L 99.1633986928105 600.503267973856  L 117.790849673203 608.673202614379  L 126.614379084967 613.575163398693  L 142.300653594771 622.725490196078  L 150.470588235294 629.261437908497  L 163.954853273138 640.699346405229  L 171.385620915033 647.562091503268  L 185.764705882353 659.653594771242  L 194.261437908497 666.18954248366  L 209.778781038375 676.320261437908  L 227.160270880361 687.358208955224  L 244.090293453725 696.810945273632  L 258.537246049661 707.756218905473  L 266.786069651741 714.223880597015  L 279.246913580245 726.164179104478  L 291.901234567899 733.129353233831  L 300.234567901232 740.094527363184  L 314.123456790121 747.557213930348  L 328.629629629627 757.507462686567  L 337.432835820896 761.985074626866  L 348.691358024689 770.940298507463  L 362.308457711443 775.915422885572  L 366.786069651741 787.358208955224  L 366.786069651741 792.333333333333  L 362.308457711443 796.313432835821  L 340.666666666664 801.288557213931  L 337.432835820896 810.741293532338  L 332 824.174129353234  L 340.666666666664 828  L 352.358208955224 828  L 366.786069651741 828.154228855722  L 381.716049382714 819.696517412936  L 386.345679012343 815.231884057971  L 395.014492753623 816.971014492754  L 402.703703703701 819.696517412936  L 415.594202898551 828.154228855722  L 428.63768115942 832.333333333333  L 441.971014492754 838.130434782609  L 458.615384615385 843.347826086957  L 474.961538461538 848.855072463768  L 494.833333333333 855.551724137931  L 501.394636015326 866.662835249042  L 507.653846153846 879.306513409962  L 504.459770114943 886.969348659004  L 509.823754789272 889.651340996169  L 514.038314176245 894.249042145594  L 522.08429118774 903.444444444444  L 533.615384615385 907.275862068966  L 537.026819923372 910.340996168582  L 537 918.386973180077  L 537 929.498084291188  L 537.026819923372 936.011494252874  L 540.858237547893 944.823754789272  L 548.137931034483 953.636015325671  L 555.034482758621 958.616858237548  L 564.229885057471 966.27969348659  L 574.95785440613 972.026819923372  L 579.448717948718 975.091954022989  L 591.432950191571 980.455938697318  L 604.076628352491 983.521072796935  L 612.888888888889 984  L 622.08429118774 991.567049808429  L 622 995.781609195402  L 622 1009.95785440613  L 632.429118773946 1018.38697318008  L 638.285714285714 1032.18007662835  L 647.809523809524 1042.52490421456  L 659.978835978836 1047.88888888889  L 662.314176245211 1059.7662835249  L 670.360153256705 1071.64367816092  L 675.322751322752 1086.2030651341  L 675 1096.16475095785  L 675 1107.65900383142  L 675.322751322752 1127.34532374101  L 684.31746031746 1135.25899280576  L 675 1152.52517985612  L 675 1176.98561151079  L 675.322751322752 1189.21582733813  L 670.360153256705 1204.32374100719  L 662.314176245211 1217.9928057554  L 675.322751322752 1227.34532374101  L 697.015873015873 1234.53956834532  L 714.265486725664 1227.34532374101  L 734.071942446043 1211.51798561151  L 742 1199.28776978417  L 742 1183.46043165468  L 750.618705035971 1166  L 776.517985611511 1166  L 822.561151079137 1166.19424460432  L 855.654676258993 1170.51079136691  L 877.237410071943 1176.98561151079  L 904.575539568345 1194.97122302158  L 932.63309352518 1199.28776978417  L 955.654676258993 1189.21582733813  L 979.395683453238 1194.97122302158  L 1013.20863309353 1204  L 1044 1204  L 1060.8 1211  L 1080.8 1211  L 1102.4 1217.9928057554  L 1127.2 1227.34532374101  L 1148.8 1234.53956834532  L 1164 1235  L 1213.6 1227.34532374101  L 1242.4 1211.51798561151  L 1249 1199.28776978417  L 1249 1183.46043165468  L 1257.6 1176.98561151079  L 1258 1162.2  L 1258 1152.52517985612  L 1257.6 1147  L 1257.6 1141.4  L 1273.6 1135.25899280576  L 1273.6 1127.34532374101  L 1284 1107.65900383142  L 1291.2 1096.16475095785  L 1292 1079  L 1305.6 1063.8  L 1316.8 1047.88888888889  L 1324.8 1032.18007662835  L 1325 1026.2  L 1325 1009.95785440613  L 1329.6 991.567049808429  L 1338 972.026819923372  L 1338 958.616858237548  L 1329.6 936.011494252874  L 1338.4 910.340996168582  L 1345.6 879.306513409962  L 1338.4 855.551724137931  L 1325 832.333333333333  L 1316.8 801.288557213931  L 1305.6 792.333333333333  L 1316 770.940298507463  L 1316 757.507462686567  L 1305.6 733.129353233831  L 1292 714.223880597015  L 1291.2 696.810945273632  L 1284 696  L 1258 696  L 1249.6 676.320261437908  L 1257.6 671.380952380952  L 1263.04761904762 666.18954248366  L 1249.6 647.562091503268  L 1242.4 635.190476190476  L 1225.90476190476 594.62091503268  L 1206.85714285714 564.714285714286  L 1184.95238095238 543.383561643835  L 1164 537.356164383562  L 1148.8 518.52380952381  L 1102.4 493.761904761905  L 1052.57142857143 480.666666666667  L 1027.80952380952 463.52380952381  L 979.395683453238 443.047619047619  L 961.142857142857 433.047619047619  L 924.952380952381 397.427947598253  L 904.575539568345 378.130434782609  L 897.04347826087 378.130434782609  L 877.237410071943 368.565217391304  L 850.086956521739 358.130434782609  L 830.95652173913 347.864628820961  L 816.173913043478 334.764192139738  L 799.652173913044 321.406015037594  L 795.304347826087 303.360902255639  L 789 280.052631578947  L 789 256.06546275395  L 789 247.271604938269  L 789 232  L 807.478260869565 232  L 841.391304347826 235  L 855.654676258993 231.22222222222  L 864.869565217392 227.209876543208  L 871.826086956522 231.22222222222  L 885.739130434783 219.185185185183  L 877.237410071943 206.530864197529  L 864.869565217392 196.654320987652  L 860.521739130435 177.209876543208  L 860.521739130435 172.888888888887  L 855.654676258993 152.209876543208  L 850.086956521739 145  L 830.95652173913 138.320987654321  L 807.478260869565 122.58024691358  L 789.217391304348 109  L 776.517985611511 109  L 742 103.444444444444  Z " fill-rule="nonzero" fill="#e7e7e7" stroke="none" transform="matrix(1 0 0 1 1043 41 )" />
    <path d="M 742 103.444444444444  L 714.265486725664 97.0530973451328  L 706.010582010582 71.1693121693122  L 697.015873015873 51.5925925925926  L 690.666666666667 36.7777777777778  L 690 26.7248677248677  L 684.31746031746 17.7301587301587  L 675.322751322752 17  L 659.978835978836 9.26455026455027  L 647.809523809524 4.50264550264551  L 638.285714285714 10  L 627.174603174603 10  L 609.714285714286 4.50264550264551  L 589.079365079365 0.269841269841272  L 579.448717948718 0.269841269841272  L 579 14.1282051282051  L 576.884615384615 26.7248677248677  L 572.717948717949 41.051282051282  L 566.948717948718 49.3846153846154  L 560.538461538461 59.6410256410256  L 551.884615384615 67.3333333333333  L 533.615384615385 73.4230769230769  L 518.230769230769 71.1693121693122  L 507.653846153846 65.4102564102564  L 497.717948717949 63.8076923076923  L 494.833333333333 63.8076923076923  L 486.179487179487 63.8076923076923  L 482.012820512821 63.8076923076923  L 474.961538461538 63.8076923076923  L 468.871794871795 62  L 458.615384615385 62  L 454.128205128205 61.5641025641025  L 451.564102564103 65.4102564102564  L 448.038461538461 71.1693121693122  L 448 75.6666666666666  L 444.833333333333 79.1923076923077  L 437.461538461538 79.1923076923077  L 432.012820512821 81.1153846153846  L 426.564102564103 83.6794871794871  L 423.358974358974 87.2051282051282  L 423 90.4814814814814  L 420.604938271603 97.0530973451328  L 423 103.444444444444  L 423.358974358974 108.382716049383  L 423 113.62962962963  L 420 119.185185185185  L 409.493827160491 122.58024691358  L 402.703703703701 122.58024691358  L 388.814814814813 123  L 386.345679012343 127.827160493827  L 381.716049382714 132.765432098765  L 373.38271604938 138.320987654321  L 355.790123456788 144.185185185183  L 348.691358024689 144.185185185183  L 344.061728395059 145  L 340.666666666664 152.209876543208  L 332.333333333331 166.098765432096  L 332 172.888888888887  L 328.629629629627 177.209876543208  L 323.074074074072 189.555555555553  L 319.987654320985 196.654320987652  L 319 206.530864197529  L 319 219.185185185183  L 314.123456790121 227.209876543208  L 307.950617283948 231.22222222222  L 300.234567901232 234.308641975306  L 296.22222222222 235  L 291.901234567899 247.271604938269  L 284.8024691358 253.753086419751  L 279.246913580245 258.999999999998  L 270.049661399549 259  L 258.537246049661 259  L 244.090293453725 256.06546275395  L 227.160270880361 253.753086419751  L 209.778781038375 256.06546275395  L 190.139954853273 262  L 175.467268623025 262  L 163.954853273138 258.999999999998  L 155.3769751693 256.06546275395  L 146.573363431151 256.06546275395  L 135.654135338346 258.999999999998  L 120.992481203007 262  L 101.067669172932 272.90977443609  L 90.9172932330825 280.052631578947  L 86.781954887218 290.203007518797  L 82.6466165413533 303.360902255639  L 77.3834586466164 314.639097744361  L 66.1052631578946 321.406015037594  L 60.4661654135339 328.548872180451  L 61 334.764192139738  L 61 347.864628820961  L 62.8646288209607 362.711790393013  L 69.1965065502184 384.545851528384  L 76.1834061135371 397.427947598253  L 79.7142857142856 406.857142857143  L 77.3834586466164 419  L 69.1965065502184 433.047619047619  L 66.1052631578946 443.047619047619  L 66.1052631578946 451.619047619048  L 66.1052631578946 456.619047619047  L 64.2380952380952 463.52380952381  L 60.4661654135339 480.666666666667  L 57.0952380952381 487.809523809524  L 54.7142857142855 493.761904761905  L 49.952380952381 499.952380952381  L 39.952380952381 512.333333333333  L 33.5238095238094 518.52380952381  L 30.9047619047619 522.809523809524  L 24.2739726027398 528.041095890411  L 10.5753424657535 537.356164383562  L 0.712328767123381 543.383561643835  L 4.27397260273983 548.58904109589  L 13.8630136986301 553.520547945206  L 20.1643835616439 558.452054794521  L 39.952380952381 570.780821917808  L 49.952380952381 577.082191780822  L 66.1052631578946 586.123287671233  L 82.6466165413533 594.62091503268  L 90.9172932330825 597.888888888889  L 99.1633986928105 600.503267973856  L 117.790849673203 608.673202614379  L 126.614379084967 613.575163398693  L 142.300653594771 622.725490196078  L 150.470588235294 629.261437908497  L 163.954853273138 640.699346405229  L 171.385620915033 647.562091503268  L 185.764705882353 659.653594771242  L 194.261437908497 666.18954248366  L 209.778781038375 676.320261437908  L 227.160270880361 687.358208955224  L 244.090293453725 696.810945273632  L 258.537246049661 707.756218905473  L 266.786069651741 714.223880597015  L 279.246913580245 726.164179104478  L 291.901234567899 733.129353233831  L 300.234567901232 740.094527363184  L 314.123456790121 747.557213930348  L 328.629629629627 757.507462686567  L 337.432835820896 761.985074626866  L 348.691358024689 770.940298507463  L 362.308457711443 775.915422885572  L 366.786069651741 787.358208955224  L 366.786069651741 792.333333333333  L 362.308457711443 796.313432835821  L 340.666666666664 801.288557213931  L 337.432835820896 810.741293532338  L 332 824.174129353234  L 340.666666666664 828  L 352.358208955224 828  L 366.786069651741 828.154228855722  L 381.716049382714 819.696517412936  L 386.345679012343 815.231884057971  L 395.014492753623 816.971014492754  L 402.703703703701 819.696517412936  L 415.594202898551 828.154228855722  L 428.63768115942 832.333333333333  L 441.971014492754 838.130434782609  L 458.615384615385 843.347826086957  L 474.961538461538 848.855072463768  L 494.833333333333 855.551724137931  L 501.394636015326 866.662835249042  L 507.653846153846 879.306513409962  L 504.459770114943 886.969348659004  L 509.823754789272 889.651340996169  L 514.038314176245 894.249042145594  L 522.08429118774 903.444444444444  L 533.615384615385 907.275862068966  L 537.026819923372 910.340996168582  L 537 918.386973180077  L 537 929.498084291188  L 537.026819923372 936.011494252874  L 540.858237547893 944.823754789272  L 548.137931034483 953.636015325671  L 555.034482758621 958.616858237548  L 564.229885057471 966.27969348659  L 574.95785440613 972.026819923372  L 579.448717948718 975.091954022989  L 591.432950191571 980.455938697318  L 604.076628352491 983.521072796935  L 612.888888888889 984  L 622.08429118774 991.567049808429  L 622 995.781609195402  L 622 1009.95785440613  L 632.429118773946 1018.38697318008  L 638.285714285714 1032.18007662835  L 647.809523809524 1042.52490421456  L 659.978835978836 1047.88888888889  L 662.314176245211 1059.7662835249  L 670.360153256705 1071.64367816092  L 675.322751322752 1086.2030651341  L 675 1096.16475095785  L 675 1107.65900383142  L 675.322751322752 1127.34532374101  L 684.31746031746 1135.25899280576  L 675 1152.52517985612  L 675 1176.98561151079  L 675.322751322752 1189.21582733813  L 670.360153256705 1204.32374100719  L 662.314176245211 1217.9928057554  L 675.322751322752 1227.34532374101  L 697.015873015873 1234.53956834532  L 714.265486725664 1227.34532374101  L 734.071942446043 1211.51798561151  L 742 1199.28776978417  L 742 1183.46043165468  L 750.618705035971 1166  L 776.517985611511 1166  L 822.561151079137 1166.19424460432  L 855.654676258993 1170.51079136691  L 877.237410071943 1176.98561151079  L 904.575539568345 1194.97122302158  L 932.63309352518 1199.28776978417  L 955.654676258993 1189.21582733813  L 979.395683453238 1194.97122302158  L 1013.20863309353 1204  L 1044 1204  L 1060.8 1211  L 1080.8 1211  L 1102.4 1217.9928057554  L 1127.2 1227.34532374101  L 1148.8 1234.53956834532  L 1164 1235  L 1213.6 1227.34532374101  L 1242.4 1211.51798561151  L 1249 1199.28776978417  L 1249 1183.46043165468  L 1257.6 1176.98561151079  L 1258 1162.2  L 1258 1152.52517985612  L 1257.6 1147  L 1257.6 1141.4  L 1273.6 1135.25899280576  L 1273.6 1127.34532374101  L 1284 1107.65900383142  L 1291.2 1096.16475095785  L 1292 1079  L 1305.6 1063.8  L 1316.8 1047.88888888889  L 1324.8 1032.18007662835  L 1325 1026.2  L 1325 1009.95785440613  L 1329.6 991.567049808429  L 1338 972.026819923372  L 1338 958.616858237548  L 1329.6 936.011494252874  L 1338.4 910.340996168582  L 1345.6 879.306513409962  L 1338.4 855.551724137931  L 1325 832.333333333333  L 1316.8 801.288557213931  L 1305.6 792.333333333333  L 1316 770.940298507463  L 1316 757.507462686567  L 1305.6 733.129353233831  L 1292 714.223880597015  L 1291.2 696.810945273632  L 1284 696  L 1258 696  L 1249.6 676.320261437908  L 1257.6 671.380952380952  L 1263.04761904762 666.18954248366  L 1249.6 647.562091503268  L 1242.4 635.190476190476  L 1225.90476190476 594.62091503268  L 1206.85714285714 564.714285714286  L 1184.95238095238 543.383561643835  L 1164 537.356164383562  L 1148.8 518.52380952381  L 1102.4 493.761904761905  L 1052.57142857143 480.666666666667  L 1027.80952380952 463.52380952381  L 979.395683453238 443.047619047619  L 961.142857142857 433.047619047619  L 924.952380952381 397.427947598253  L 904.575539568345 378.130434782609  L 897.04347826087 378.130434782609  L 877.237410071943 368.565217391304  L 850.086956521739 358.130434782609  L 830.95652173913 347.864628820961  L 816.173913043478 334.764192139738  L 799.652173913044 321.406015037594  L 795.304347826087 303.360902255639  L 789 280.052631578947  L 789 256.06546275395  L 789 247.271604938269  L 789 232  L 807.478260869565 232  L 841.391304347826 235  L 855.654676258993 231.22222222222  L 864.869565217392 227.209876543208  L 871.826086956522 231.22222222222  L 885.739130434783 219.185185185183  L 877.237410071943 206.530864197529  L 864.869565217392 196.654320987652  L 860.521739130435 177.209876543208  L 860.521739130435 172.888888888887  L 855.654676258993 152.209876543208  L 850.086956521739 145  L 830.95652173913 138.320987654321  L 807.478260869565 122.58024691358  L 789.217391304348 109  L 776.517985611511 109  L 742 103.444444444444  Z " stroke-width="8" stroke-dasharray="36,16" stroke="#d9001b" fill="none" transform="matrix(1 0 0 1 1043 41 )" mask="url(#clip2019)" />
  </g>
</svg>