<?xml version="1.0" encoding="utf-8"?>
<svg version="1.1" xmlns:xlink="http://www.w3.org/1999/xlink" width="43px" height="43px" xmlns="http://www.w3.org/2000/svg">
  <defs>
    <filter x="1607px" y="189px" width="43px" height="43px" filterUnits="userSpaceOnUse" id="filter2037">
      <feOffset dx="1" dy="1" in="SourceAlpha" result="shadowOffsetInner" />
      <feGaussianBlur stdDeviation="2.5" in="shadowOffsetInner" result="shadowGaussian" />
      <feComposite in2="shadowGaussian" operator="atop" in="SourceAlpha" result="shadowComposite" />
      <feColorMatrix type="matrix" values="0 0 0 0 0  0 0 0 0 0  0 0 0 0 0  0 0 0 0.698039215686274 0  " in="shadowComposite" />
    </filter>
    <g id="widget2038">
      <path d="M 1627.5 193  C 1636.74 193  1644 200.26  1644 209.5  C 1644 218.74  1636.74 226  1627.5 226  C 1618.26 226  1611 218.74  1611 209.5  C 1611 200.26  1618.26 193  1627.5 193  Z " fill-rule="nonzero" fill="#ec80db" stroke="none" fill-opacity="0.996078431372549" />
      <path d="M 1627.5 193.5  C 1636.46 193.5  1643.5 200.54  1643.5 209.5  C 1643.5 218.46  1636.46 225.5  1627.5 225.5  C 1618.54 225.5  1611.5 218.46  1611.5 209.5  C 1611.5 200.54  1618.54 193.5  1627.5 193.5  Z " stroke-width="1" stroke="#0000ff" fill="none" />
    </g>
  </defs>
  <g transform="matrix(1 0 0 1 -1607 -189 )">
    <use xlink:href="#widget2038" filter="url(#filter2037)" />
    <use xlink:href="#widget2038" />
  </g>
</svg>