<?xml version="1.0" encoding="utf-8"?>
<svg version="1.1" xmlns:xlink="http://www.w3.org/1999/xlink" width="40px" height="40px" xmlns="http://www.w3.org/2000/svg">
  <defs>
    <filter x="2105px" y="719px" width="40px" height="40px" filterUnits="userSpaceOnUse" id="filter2033">
      <feOffset dx="1" dy="1" in="SourceAlpha" result="shadowOffsetInner" />
      <feGaussianBlur stdDeviation="2.5" in="shadowOffsetInner" result="shadowGaussian" />
      <feComposite in2="shadowGaussian" operator="atop" in="SourceAlpha" result="shadowComposite" />
      <feColorMatrix type="matrix" values="0 0 0 0 0  0 0 0 0 0  0 0 0 0 0  0 0 0 0.698039215686274 0  " in="shadowComposite" />
    </filter>
    <g id="widget2034">
      <path d="M 2124 723  C 2132.4 723  2139 729.6  2139 738  C 2139 746.4  2132.4 753  2124 753  C 2115.6 753  2109 746.4  2109 738  C 2109 729.6  2115.6 723  2124 723  Z " fill-rule="nonzero" fill="#00ffff" stroke="none" />
      <path d="M 2124 723.5  C 2132.12 723.5  2138.5 729.88  2138.5 738  C 2138.5 746.12  2132.12 752.5  2124 752.5  C 2115.88 752.5  2109.5 746.12  2109.5 738  C 2109.5 729.88  2115.88 723.5  2124 723.5  Z " stroke-width="1" stroke="#ffffff" fill="none" />
    </g>
  </defs>
  <g transform="matrix(1 0 0 1 -2105 -719 )">
    <use xlink:href="#widget2034" filter="url(#filter2033)" />
    <use xlink:href="#widget2034" />
  </g>
</svg>