<?xml version="1.0" encoding="utf-8"?>
<svg version="1.1" xmlns:xlink="http://www.w3.org/1999/xlink" width="40px" height="40px" xmlns="http://www.w3.org/2000/svg">
  <defs>
    <filter x="2258px" y="636px" width="40px" height="40px" filterUnits="userSpaceOnUse" id="filter2035">
      <feOffset dx="1" dy="1" in="SourceAlpha" result="shadowOffsetInner" />
      <feGaussianBlur stdDeviation="2.5" in="shadowOffsetInner" result="shadowGaussian" />
      <feComposite in2="shadowGaussian" operator="atop" in="SourceAlpha" result="shadowComposite" />
      <feColorMatrix type="matrix" values="0 0 0 0 0  0 0 0 0 0  0 0 0 0 0  0 0 0 0.698039215686274 0  " in="shadowComposite" />
    </filter>
    <g id="widget2036">
      <path d="M 2277 640  C 2285.4 640  2292 646.6  2292 655  C 2292 663.4  2285.4 670  2277 670  C 2268.6 670  2262 663.4  2262 655  C 2262 646.6  2268.6 640  2277 640  Z " fill-rule="nonzero" fill="#ec80db" stroke="none" fill-opacity="0.996078431372549" />
      <path d="M 2277 640.5  C 2285.12 640.5  2291.5 646.88  2291.5 655  C 2291.5 663.12  2285.12 669.5  2277 669.5  C 2268.88 669.5  2262.5 663.12  2262.5 655  C 2262.5 646.88  2268.88 640.5  2277 640.5  Z " stroke-width="1" stroke="#0000ff" fill="none" />
    </g>
  </defs>
  <g transform="matrix(1 0 0 1 -2258 -636 )">
    <use xlink:href="#widget2036" filter="url(#filter2035)" />
    <use xlink:href="#widget2036" />
  </g>
</svg>