<?xml version="1.0" encoding="utf-8"?>
<svg version="1.1" xmlns:xlink="http://www.w3.org/1999/xlink" width="90px" height="90px" xmlns="http://www.w3.org/2000/svg">
  <g transform="matrix(1 0 0 1 -1879 -1165 )">
    <path d="M 50.625 75.3515625  C 51.640625 75.3515625  52.51953125 74.98046875  53.26171875 74.23828125  L 59.23828125 68.26171875  C 59.98046875 67.51953125  60.3515625 66.640625  60.3515625 65.625  C 60.3515625 64.609375  59.98046875 63.73046875  59.23828125 62.98828125  L 41.25 45  L 59.23828125 27.01171875  C 59.98046875 26.26953125  60.3515625 25.390625  60.3515625 24.375  C 60.3515625 23.359375  59.98046875 22.48046875  59.23828125 21.73828125  L 53.26171875 15.76171875  C 52.51953125 15.01953125  51.640625 14.6484375  50.625 14.6484375  C 49.609375 14.6484375  48.73046875 15.01953125  47.98828125 15.76171875  L 21.38671875 42.36328125  C 20.64453125 43.10546875  20.2734375 43.984375  20.2734375 45  C 20.2734375 46.015625  20.64453125 46.89453125  21.38671875 47.63671875  L 47.98828125 74.23828125  C 48.73046875 74.98046875  49.609375 75.3515625  50.625 75.3515625  Z M 83.96484375 22.412109375  C 87.98828125 29.306640625  90 36.8359375  90 45  C 90 53.1640625  87.98828125 60.693359375  83.96484375 67.587890625  C 79.94140625 74.482421875  74.482421875 79.94140625  67.587890625 83.96484375  C 60.693359375 87.98828125  53.1640625 90  45 90  C 36.8359375 90  29.306640625 87.98828125  22.412109375 83.96484375  C 15.517578125 79.94140625  10.05859375 74.482421875  6.03515625 67.587890625  C 2.01171875 60.693359375  0 53.1640625  0 45  C 0 36.8359375  2.01171875 29.306640625  6.03515625 22.412109375  C 10.05859375 15.517578125  15.517578125 10.05859375  22.412109375 6.03515625  C 29.306640625 2.01171874999999  36.8359375 0  45 0  C 53.1640625 0  60.693359375 2.01171874999999  67.587890625 6.03515625  C 74.482421875 10.05859375  79.94140625 15.517578125  83.96484375 22.412109375  Z " fill-rule="nonzero" fill="#02a7f0" stroke="none" fill-opacity="0.996078431372549" transform="matrix(1 0 0 1 1879 1165 )" />
  </g>
</svg>