<?xml version="1.0" encoding="utf-8"?>
<svg version="1.1" xmlns:xlink="http://www.w3.org/1999/xlink" width="42px" height="47px" xmlns="http://www.w3.org/2000/svg">
  <g transform="matrix(1 0 0 1 -1580 -484 )">
    <path d="M 6.48046875 39.2325721153846  C 6.82682291666667 38.8747996794872  7 38.4511217948718  7 37.9615384615385  C 7 37.4719551282051  6.82682291666667 37.0482772435898  6.48046875 36.6905048076923  C 6.13411458333333 36.3327323717949  5.72395833333333 36.1538461538462  5.25 36.1538461538462  C 4.77604166666667 36.1538461538462  4.36588541666667 36.3327323717949  4.01953125 36.6905048076923  C 3.67317708333333 37.0482772435898  3.5 37.4719551282051  3.5 37.9615384615385  C 3.5 38.4511217948718  3.67317708333333 38.8747996794872  4.01953125 39.2325721153846  C 4.36588541666667 39.5903445512821  4.77604166666667 39.7692307692308  5.25 39.7692307692308  C 5.72395833333333 39.7692307692308  6.13411458333333 39.5903445512821  6.48046875 39.2325721153846  Z M 37.912109375 23.9801682692308  C 38.3040364583333 23.1139823717949  38.5 22.3513621794872  38.5 21.6923076923077  C 38.5 20.7319711538462  38.14453125 19.8893229166667  37.43359375 19.1643629807692  C 36.72265625 18.4394030448718  35.9114583333333 18.0769230769231  35 18.0769230769231  L 25.375 18.0769230769231  C 25.375 16.9847756410256  25.8125 15.4830729166667  26.6875 13.5718149038462  C 27.5625 11.6605568910256  28 10.1494391025641  28 9.03846153846154  C 28 7.19310897435897  27.7083333333333 5.82792467948718  27.125 4.94290865384616  C 26.5416666666667 4.05789262820513  25.375 3.61538461538461  23.625 3.61538461538461  C 23.1510416666667 4.10496794871794  22.8046875 4.90524839743589  22.5859375 6.01622596153846  C 22.3671875 7.12720352564103  22.0891927083333 8.30879407051281  21.751953125 9.56099759615384  C 21.4147135416667 10.8132011217949  20.8723958333333 11.8441506410256  20.125 12.6538461538462  C 19.7239583333333 13.0869391025641  19.0221354166667 13.9437099358974  18.01953125 15.2241586538462  C 17.9466145833333 15.3183092948718  17.7369791666667 15.6007612179487  17.390625 16.0715144230769  C 17.0442708333333 16.5422676282051  16.7571614583333 16.9282852564103  16.529296875 17.2295673076923  C 16.3014322916667 17.5308493589744  15.9869791666667 17.9309895833333  15.5859375 18.4299879807692  C 15.1848958333333 18.9289863782051  14.8203125 19.3432491987179  14.4921875 19.6727764423077  C 14.1640625 20.0023036858974  13.8131510416667 20.3365384615385  13.439453125 20.6754807692308  C 13.0657552083333 21.0144230769231  12.701171875 21.2686298076923  12.345703125 21.4381009615385  C 11.990234375 21.6075721153846  11.6666666666667 21.6923076923077  11.375 21.6923076923077  L 11 21.6923076923077  L 11 39.7692307692308  L 11.375 39.7692307692308  C 11.6119791666667 39.7692307692308  11.8990885416667 39.7974759615385  12.236328125 39.8539663461538  C 12.5735677083333 39.9104567307692  12.8743489583333 39.9716546474359  13.138671875 40.0375600961538  C 13.4029947916667 40.1034655448718  13.7493489583333 40.20703125  14.177734375 40.3482572115385  C 14.6061197916667 40.4894831730769  14.9251302083333 40.5977564102564  15.134765625 40.6730769230769  C 15.3444010416667 40.7483974358974  15.66796875 40.8660857371795  16.10546875 41.0261418269231  C 16.54296875 41.1861979166667  16.8072916666667 41.2850560897436  16.8984375 41.3227163461538  C 20.7447916666667 42.6973157051282  23.8619791666667 43.3846153846154  26.25 43.3846153846154  L 29.55859375 43.3846153846154  C 33.05859375 43.3846153846154  34.80859375 41.8122996794872  34.80859375 38.6676682692308  C 34.80859375 38.1780849358974  34.7630208333333 37.6508413461538  34.671875 37.0859375  C 35.21875 36.7846554487179  35.6516927083333 36.2903645833333  35.970703125 35.6030649038462  C 36.2897135416667 34.915765224359  36.44921875 34.2237580128205  36.44921875 33.5270432692308  C 36.44921875 32.830328525641  36.28515625 32.1806891025641  35.95703125 31.578125  C 36.9231770833333 30.6366185897436  37.40625 29.5162259615385  37.40625 28.2169471153846  C 37.40625 27.7461939102564  37.3151041666667 27.2236578525641  37.1328125 26.6493389423077  C 36.9505208333333 26.0750200320513  36.72265625 25.6278044871795  36.44921875 25.3076923076923  C 37.0325520833333 25.2888621794872  37.5201822916667 24.8463541666667  37.912109375 23.9801682692308  Z M 39.921875 16.6081730769231  C 41.3072916666667 18.0392628205128  42 19.7245592948718  42 21.6640625  C 42 23.3399439102564  41.5533854166667 24.8745993589744  40.66015625 26.2680288461539  C 40.82421875 26.8894230769231  40.90625 27.5390625  40.90625 28.2169471153846  C 40.90625 29.6668669871795  40.5598958333333 31.0226362179487  39.8671875 32.2842548076923  C 39.921875 32.6796875  39.94921875 33.0845352564102  39.94921875 33.4987980769231  C 39.94921875 35.400641025641  39.40234375 37.0765224358974  38.30859375 38.5264423076923  C 38.3268229166667 41.1438301282051  37.5520833333333 43.2104366987179  35.984375 44.7262620192308  C 34.4166666666667 46.2420873397436  32.34765625 47  29.77734375 47  L 28.79296875 47  L 26.25 47  C 24.5 47  22.7727864583333 46.7881610576923  21.068359375 46.3644831730769  C 19.3639322916667 45.9408052884615  17.390625 45.3241185897436  15.1484375 44.5144230769231  C 13.0338541666667 43.7612179487179  11.7760416666667 43.3846153846154  11.375 43.3846153846154  L 3.5 43.3846153846154  C 2.53385416666667 43.3846153846154  1.708984375 43.0315504807692  1.025390625 42.3254206730769  C 0.341796875 41.6192908653846  0 40.7672275641026  0 39.7692307692308  L 0 21.6923076923077  C 0 20.6943108974359  0.341796875 19.8422475961538  1.025390625 19.1361177884615  C 1.708984375 18.4299879807692  2.53385416666667 18.0769230769231  3.5 18.0769230769231  L 10.9921875 18.0769230769231  C 11.6484375 17.625  12.8971354166667 16.1656650641026  14.73828125 13.6989182692308  C 15.7955729166667 12.2866586538462  16.7708333333333 11.0815304487179  17.6640625 10.0835336538462  C 18.1015625 9.61278044871795  18.4251302083333 8.80779246794871  18.634765625 7.66856971153846  C 18.8444010416667 6.5293469551282  19.1223958333333 5.33834134615384  19.46875 4.09555288461539  C 19.8151041666667 2.85276442307692  20.3802083333333 1.8359375  21.1640625 1.04507211538461  C 21.875 0.348357371794874  22.6953125 0  23.625 0  C 25.15625 0  26.5325520833333 0.305989583333337  27.75390625 0.91796875  C 28.9752604166667 1.52994791666666  29.9049479166667 2.48557692307692  30.54296875 3.78485576923077  C 31.1809895833333 5.08413461538461  31.5 6.83533653846154  31.5 9.03846153846154  C 31.5 10.7896634615385  31.0625 12.5973557692308  30.1875 14.4615384615385  L 35 14.4615384615385  C 36.8958333333333 14.4615384615385  38.5364583333333 15.1770833333333  39.921875 16.6081730769231  Z " fill-rule="nonzero" fill="#8400ff" stroke="none" transform="matrix(1 0 0 1 1580 484 )" />
  </g>
</svg>