<?xml version="1.0" encoding="utf-8"?>
<svg version="1.1" xmlns:xlink="http://www.w3.org/1999/xlink" width="271px" height="313px" xmlns="http://www.w3.org/2000/svg">
  <defs>
    <mask fill="white" id="clip2039">
      <path d="M 232.522931797312 1.63708605444146  L 233.908585858586 0.0684003496503496  L 246.046677299309 14.6304747883695  L 258.14875066454 30.7585572322415  L 267.657522594365 46.8866396761134  L 270.82711323764 53.7986750092013  L 268.810101010101 53.8994755244755  L 261.030196703881 68.1987486198013  L 249.216267942584 84.3268310636732  L 244.353041330334 89.9372003542309  L 239.332530545631 100.809570342321  L 235 110.326790057768  L 235 124.750342049255  L 237.925384277558 153.448749619945  L 240.232492463906 172.618130560539  L 244.353041330334 195.680866254165  L 248.162481962482 209.031468531469  L 256.609235209235 223.727772227772  L 263.797079225995 234.215982812368  L 266.270609711574 243.116269272896  L 266.270609711574 251.357275254866  L 265.11629548497 258.939000758278  L 263.797079225995 260.916842193951  L 258.14875066454 262.565043390345  L 253.408251186564 266.355906142051  L 250.110210539126 269.817128654478  L 247.306875988804 278.222954756087  L 246.046677299309 286.628780857697  L 244.353041330334 295.693887437863  L 242.854521114762 306.242375094785  L 241.535304855787 309.868417726852  L 239.332530545631 311.846259162524  L 235.098748353096 313  L 223.396081294876 313  L 212.51254715833 311.846259162524  L 198.166070341974 306.242375094785  L 186.825757575758 301.508741258741  L 177.381818181818 294.531905594406  L 174.09696969697 286.628780857697  L 174.09696969697 284.271853146853  L 173.412626262626 278.222954756087  L 167.527272727273 280.715034965035  L 159.588888888889 285.63986013986  L 148.228787878788 291.795891608392  L 142.75404040404 294.531905594406  L 130.983333333333 295.693887437863  L 113.190404040404 294.531905594406  L 99.6839531680441 291.795891608392  L 82.5753673094582 283.152574698029  L 60.1786730945822 271.493424189447  L 44.4698806244261 263.565201843611  L 15.4075036075036 251.357275254866  L 8.20388850915167 243.87964666912  L 1.82354370775424 238.016759556233  L 0.177003113845226 233.07959146117  L 1.82354370775424 223.727772227772  L 4.87914307914308 217.089180050718  L 13.0010212010212 209.031468531469  L 19.6188478188478 199.951510028433  L 19.6188478188478 190.631022823331  L 21.4237096237096 181.911857373396  L 25.9358641358641 178.003265964804  L 30 175.297318066549  L 30 163.571543840775  L 29.5455877455877 152.259178321678  L 32.1760430390865 143.040000760109  L 40.358410188845 135.159090909091  L 46.3092226613966 127.575573882639  L 51.8137241985068 113.300718303436  L 57.7645366710584 103.486755092733  L 64.3401844532279 101  L 83.8588493631972 101  L 93.3801493192798 103.486755092733  L 120.039789196311 119.337792642141  L 139.082389108476 129.80602006689  L 145.509266578832 131.23350562481  L 150.031884057971 127.575573882639  L 164.075801493193 111.962450592885  L 169.285423339082 103.486755092733  L 174.09696969697 89.9372003542309  L 178.855103884372 71.8748649724259  L 181.303161698284 66.3138609358122  L 186.825757575758 60.7528568991984  L 195.323856450686 57.6386946386946  L 205.561189127043 51.8552504406163  L 210.239352199683 46.8866396761134  L 211.709842223892 44.0339969947409  L 211.709842223892 36.3460238108999  L 212.51254715833 27.6405247644917  L 213.632790717088 22.779012310004  L 219.288521579431 14.6304747883695  L 226.188513231488 7.29000751314802  L 232.522931797312 1.63708605444146  Z " fill-rule="evenodd" />
    </mask>
  </defs>
  <g transform="matrix(1 0 0 1 -1998 -721 )">
    <path d="M 232.522931797312 1.63708605444146  L 233.908585858586 0.0684003496503496  L 246.046677299309 14.6304747883695  L 258.14875066454 30.7585572322415  L 267.657522594365 46.8866396761134  L 270.82711323764 53.7986750092013  L 268.810101010101 53.8994755244755  L 261.030196703881 68.1987486198013  L 249.216267942584 84.3268310636732  L 244.353041330334 89.9372003542309  L 239.332530545631 100.809570342321  L 235 110.326790057768  L 235 124.750342049255  L 237.925384277558 153.448749619945  L 240.232492463906 172.618130560539  L 244.353041330334 195.680866254165  L 248.162481962482 209.031468531469  L 256.609235209235 223.727772227772  L 263.797079225995 234.215982812368  L 266.270609711574 243.116269272896  L 266.270609711574 251.357275254866  L 265.11629548497 258.939000758278  L 263.797079225995 260.916842193951  L 258.14875066454 262.565043390345  L 253.408251186564 266.355906142051  L 250.110210539126 269.817128654478  L 247.306875988804 278.222954756087  L 246.046677299309 286.628780857697  L 244.353041330334 295.693887437863  L 242.854521114762 306.242375094785  L 241.535304855787 309.868417726852  L 239.332530545631 311.846259162524  L 235.098748353096 313  L 223.396081294876 313  L 212.51254715833 311.846259162524  L 198.166070341974 306.242375094785  L 186.825757575758 301.508741258741  L 177.381818181818 294.531905594406  L 174.09696969697 286.628780857697  L 174.09696969697 284.271853146853  L 173.412626262626 278.222954756087  L 167.527272727273 280.715034965035  L 159.588888888889 285.63986013986  L 148.228787878788 291.795891608392  L 142.75404040404 294.531905594406  L 130.983333333333 295.693887437863  L 113.190404040404 294.531905594406  L 99.6839531680441 291.795891608392  L 82.5753673094582 283.152574698029  L 60.1786730945822 271.493424189447  L 44.4698806244261 263.565201843611  L 15.4075036075036 251.357275254866  L 8.20388850915167 243.87964666912  L 1.82354370775424 238.016759556233  L 0.177003113845226 233.07959146117  L 1.82354370775424 223.727772227772  L 4.87914307914308 217.089180050718  L 13.0010212010212 209.031468531469  L 19.6188478188478 199.951510028433  L 19.6188478188478 190.631022823331  L 21.4237096237096 181.911857373396  L 25.9358641358641 178.003265964804  L 30 175.297318066549  L 30 163.571543840775  L 29.5455877455877 152.259178321678  L 32.1760430390865 143.040000760109  L 40.358410188845 135.159090909091  L 46.3092226613966 127.575573882639  L 51.8137241985068 113.300718303436  L 57.7645366710584 103.486755092733  L 64.3401844532279 101  L 83.8588493631972 101  L 93.3801493192798 103.486755092733  L 120.039789196311 119.337792642141  L 139.082389108476 129.80602006689  L 145.509266578832 131.23350562481  L 150.031884057971 127.575573882639  L 164.075801493193 111.962450592885  L 169.285423339082 103.486755092733  L 174.09696969697 89.9372003542309  L 178.855103884372 71.8748649724259  L 181.303161698284 66.3138609358122  L 186.825757575758 60.7528568991984  L 195.323856450686 57.6386946386946  L 205.561189127043 51.8552504406163  L 210.239352199683 46.8866396761134  L 211.709842223892 44.0339969947409  L 211.709842223892 36.3460238108999  L 212.51254715833 27.6405247644917  L 213.632790717088 22.779012310004  L 219.288521579431 14.6304747883695  L 226.188513231488 7.29000751314802  L 232.522931797312 1.63708605444146  Z " fill-rule="nonzero" fill="#caf982" stroke="none" fill-opacity="0.87843137254902" transform="matrix(1 0 0 1 1998 721 )" />
    <path d="M 232.522931797312 1.63708605444146  L 233.908585858586 0.0684003496503496  L 246.046677299309 14.6304747883695  L 258.14875066454 30.7585572322415  L 267.657522594365 46.8866396761134  L 270.82711323764 53.7986750092013  L 268.810101010101 53.8994755244755  L 261.030196703881 68.1987486198013  L 249.216267942584 84.3268310636732  L 244.353041330334 89.9372003542309  L 239.332530545631 100.809570342321  L 235 110.326790057768  L 235 124.750342049255  L 237.925384277558 153.448749619945  L 240.232492463906 172.618130560539  L 244.353041330334 195.680866254165  L 248.162481962482 209.031468531469  L 256.609235209235 223.727772227772  L 263.797079225995 234.215982812368  L 266.270609711574 243.116269272896  L 266.270609711574 251.357275254866  L 265.11629548497 258.939000758278  L 263.797079225995 260.916842193951  L 258.14875066454 262.565043390345  L 253.408251186564 266.355906142051  L 250.110210539126 269.817128654478  L 247.306875988804 278.222954756087  L 246.046677299309 286.628780857697  L 244.353041330334 295.693887437863  L 242.854521114762 306.242375094785  L 241.535304855787 309.868417726852  L 239.332530545631 311.846259162524  L 235.098748353096 313  L 223.396081294876 313  L 212.51254715833 311.846259162524  L 198.166070341974 306.242375094785  L 186.825757575758 301.508741258741  L 177.381818181818 294.531905594406  L 174.09696969697 286.628780857697  L 174.09696969697 284.271853146853  L 173.412626262626 278.222954756087  L 167.527272727273 280.715034965035  L 159.588888888889 285.63986013986  L 148.228787878788 291.795891608392  L 142.75404040404 294.531905594406  L 130.983333333333 295.693887437863  L 113.190404040404 294.531905594406  L 99.6839531680441 291.795891608392  L 82.5753673094582 283.152574698029  L 60.1786730945822 271.493424189447  L 44.4698806244261 263.565201843611  L 15.4075036075036 251.357275254866  L 8.20388850915167 243.87964666912  L 1.82354370775424 238.016759556233  L 0.177003113845226 233.07959146117  L 1.82354370775424 223.727772227772  L 4.87914307914308 217.089180050718  L 13.0010212010212 209.031468531469  L 19.6188478188478 199.951510028433  L 19.6188478188478 190.631022823331  L 21.4237096237096 181.911857373396  L 25.9358641358641 178.003265964804  L 30 175.297318066549  L 30 163.571543840775  L 29.5455877455877 152.259178321678  L 32.1760430390865 143.040000760109  L 40.358410188845 135.159090909091  L 46.3092226613966 127.575573882639  L 51.8137241985068 113.300718303436  L 57.7645366710584 103.486755092733  L 64.3401844532279 101  L 83.8588493631972 101  L 93.3801493192798 103.486755092733  L 120.039789196311 119.337792642141  L 139.082389108476 129.80602006689  L 145.509266578832 131.23350562481  L 150.031884057971 127.575573882639  L 164.075801493193 111.962450592885  L 169.285423339082 103.486755092733  L 174.09696969697 89.9372003542309  L 178.855103884372 71.8748649724259  L 181.303161698284 66.3138609358122  L 186.825757575758 60.7528568991984  L 195.323856450686 57.6386946386946  L 205.561189127043 51.8552504406163  L 210.239352199683 46.8866396761134  L 211.709842223892 44.0339969947409  L 211.709842223892 36.3460238108999  L 212.51254715833 27.6405247644917  L 213.632790717088 22.779012310004  L 219.288521579431 14.6304747883695  L 226.188513231488 7.29000751314802  L 232.522931797312 1.63708605444146  Z " stroke-width="8" stroke="#95f204" fill="none" transform="matrix(1 0 0 1 1998 721 )" mask="url(#clip2039)" />
  </g>
</svg>