<?xml version="1.0" encoding="utf-8"?>
<svg version="1.1" xmlns:xlink="http://www.w3.org/1999/xlink" width="27px" height="27px" xmlns="http://www.w3.org/2000/svg">
  <defs>
    <filter x="1323px" y="378px" width="27px" height="27px" filterUnits="userSpaceOnUse" id="filter2051">
      <feOffset dx="1" dy="1" in="SourceAlpha" result="shadowOffsetInner" />
      <feGaussianBlur stdDeviation="2.5" in="shadowOffsetInner" result="shadowGaussian" />
      <feComposite in2="shadowGaussian" operator="atop" in="SourceAlpha" result="shadowComposite" />
      <feColorMatrix type="matrix" values="0 0 0 0 0  0 0 0 0 0  0 0 0 0 0  0 0 0 0.698039215686274 0  " in="shadowComposite" />
    </filter>
    <g id="widget2052">
      <path d="M 1335.5 382.5  C 1339.98 382.5  1343.5 386.02  1343.5 390.5  C 1343.5 394.98  1339.98 398.5  1335.5 398.5  C 1331.02 398.5  1327.5 394.98  1327.5 390.5  C 1327.5 386.02  1331.02 382.5  1335.5 382.5  Z " fill-rule="nonzero" fill="#0000ff" stroke="none" />
      <path d="M 1335.5 382.5  C 1339.98 382.5  1343.5 386.02  1343.5 390.5  C 1343.5 394.98  1339.98 398.5  1335.5 398.5  C 1331.02 398.5  1327.5 394.98  1327.5 390.5  C 1327.5 386.02  1331.02 382.5  1335.5 382.5  Z " stroke-width="1" stroke="#ec80db" fill="none" stroke-opacity="0.996078431372549" />
    </g>
  </defs>
  <g transform="matrix(1 0 0 1 -1323 -378 )">
    <use xlink:href="#widget2052" filter="url(#filter2051)" />
    <use xlink:href="#widget2052" />
  </g>
</svg>