<?xml version="1.0" encoding="utf-8"?>
<svg version="1.1" xmlns:xlink="http://www.w3.org/1999/xlink" width="53px" height="61px" xmlns="http://www.w3.org/2000/svg">
  <defs>
    <filter x="2999px" y="611px" width="53px" height="61px" filterUnits="userSpaceOnUse" id="filter2077">
      <feOffset dx="1" dy="1" in="SourceAlpha" result="shadowOffsetInner" />
      <feGaussianBlur stdDeviation="2.5" in="shadowOffsetInner" result="shadowGaussian" />
      <feComposite in2="shadowGaussian" operator="atop" in="SourceAlpha" result="shadowComposite" />
      <feColorMatrix type="matrix" values="0 0 0 0 0  0 0 0 0 0  0 0 0 0 0  0 0 0 0.698039215686274 0  " in="shadowComposite" />
    </filter>
    <g id="widget2078">
      <path d="M 3024.5 665.108810771548  C 3016.1 652.701575859414  3003.5 645.257234912134  3003.5 632.85  C 3003.5 626.405714285714  3007.7 615.5  3024.5 615.5  C 3041.3 615.5  3045.5 626.405714285714  3045.5 632.85  C 3045.5 645.257234912134  3032.9 652.701575859414  3024.5 665.108810771548  Z " fill-rule="nonzero" fill="#558aa9" stroke="none" />
      <path d="M 3024.5 666  C 3015.9 653.25  3003 645.6  3003 632.85  C 3003 626.22  3007.3 615  3024.5 615  C 3041.7 615  3046 626.22  3046 632.85  C 3046 645.6  3033.1 653.25  3024.5 666  Z M 3024.5 664.217621543097  C 3032.7 652.153151718829  3045 644.914469824268  3045 632.85  C 3045 626.591428571429  3040.9 616  3024.5 616  C 3008.1 616  3004 626.591428571429  3004 632.85  C 3004 644.914469824268  3016.3 652.153151718829  3024.5 664.217621543097  Z " fill-rule="nonzero" fill="#ffffff" stroke="none" />
    </g>
  </defs>
  <g transform="matrix(1 0 0 1 -2999 -611 )">
    <use xlink:href="#widget2078" filter="url(#filter2077)" />
    <use xlink:href="#widget2078" />
  </g>
</svg>