<?xml version="1.0" encoding="utf-8"?>
<svg version="1.1" xmlns:xlink="http://www.w3.org/1999/xlink" width="36px" height="41px" xmlns="http://www.w3.org/2000/svg">
  <g transform="matrix(1 0 0 1 -3683 -561 )">
    <path d="M 5.5546875 34.2241586538462  C 5.8515625 33.9120592948718  6 33.5424679487179  6 33.1153846153846  C 6 32.6883012820513  5.8515625 32.3187099358974  5.5546875 32.0066105769231  C 5.2578125 31.6945112179487  4.90625 31.5384615384615  4.5 31.5384615384615  C 4.09375 31.5384615384615  3.7421875 31.6945112179487  3.4453125 32.0066105769231  C 3.1484375 32.3187099358974  3 32.6883012820513  3 33.1153846153846  C 3 33.5424679487179  3.1484375 33.9120592948718  3.4453125 34.2241586538462  C 3.7421875 34.5362580128205  4.09375 34.6923076923077  4.5 34.6923076923077  C 4.90625 34.6923076923077  5.2578125 34.5362580128205  5.5546875 34.2241586538462  Z M 32.49609375 20.9188701923077  C 32.83203125 20.1632612179487  33 19.4979967948718  33 18.9230769230769  C 33 18.0853365384615  32.6953125 17.3502604166667  32.0859375 16.7178485576923  C 31.4765625 16.0854366987179  30.78125 15.7692307692308  30 15.7692307692308  L 21.75 15.7692307692308  C 21.75 14.8165064102564  22.125 13.5065104166667  22.875 11.8392427884615  C 23.625 10.1719751602564  24 8.85376602564102  24 7.88461538461538  C 24 6.27483974358974  23.75 5.08393429487179  23.25 4.31189903846154  C 22.75 3.53986378205128  21.75 3.15384615384615  20.25 3.15384615384615  C 19.84375 3.58092948717948  19.546875 4.27904647435897  19.359375 5.24819711538462  C 19.171875 6.21734775641026  18.93359375 7.2480969551282  18.64453125 8.34044471153846  C 18.35546875 9.43279246794872  17.890625 10.3321314102564  17.25 11.0384615384615  C 16.90625 11.416266025641  16.3046875 12.1636618589744  15.4453125 13.2806490384615  C 15.3828125 13.3627804487179  15.203125 13.6091746794872  14.90625 14.0198317307692  C 14.609375 14.4304887820513  14.36328125 14.7672275641026  14.16796875 15.0300480769231  C 13.97265625 15.2928685897436  13.703125 15.6419270833333  13.359375 16.0772235576923  C 13.015625 16.5125200320513  12.703125 16.8738982371795  12.421875 17.1613581730769  C 12.140625 17.4488181089744  11.83984375 17.7403846153846  11.51953125 18.0360576923077  C 11.19921875 18.3317307692308  10.88671875 18.5534855769231  10.58203125 18.7013221153846  C 10.27734375 18.8491586538462  10 18.9230769230769  9.75 18.9230769230769  L 9 18.9230769230769  L 9 34.6923076923077  L 9.75 34.6923076923077  C 9.953125 34.6923076923077  10.19921875 34.7169471153846  10.48828125 34.7662259615385  C 10.77734375 34.8155048076923  11.03515625 34.868890224359  11.26171875 34.9263822115385  C 11.48828125 34.9838741987179  11.78515625 35.07421875  12.15234375 35.1974158653846  C 12.51953125 35.3206129807692  12.79296875 35.4150641025641  12.97265625 35.4807692307692  C 13.15234375 35.5464743589744  13.4296875 35.6491386217949  13.8046875 35.7887620192308  C 14.1796875 35.9283854166667  14.40625 36.0146233974359  14.484375 36.0474759615385  C 17.78125 37.2465945512821  20.453125 37.8461538461538  22.5 37.8461538461538  L 25.3359375 37.8461538461538  C 28.3359375 37.8461538461538  29.8359375 36.4745592948718  29.8359375 33.7313701923077  C 29.8359375 33.3042868589744  29.796875 32.8443509615385  29.71875 32.3515625  C 30.1875 32.0887419871795  30.55859375 31.6575520833333  30.83203125 31.0579927884615  C 31.10546875 30.4584334935897  31.2421875 29.8547676282051  31.2421875 29.2469951923077  C 31.2421875 28.6392227564103  31.1015625 28.072516025641  30.8203125 27.546875  C 31.6484375 26.7255608974359  32.0625 25.7481971153846  32.0625 24.6147836538462  C 32.0625 24.2041266025641  31.984375 23.748297275641  31.828125 23.2472956730769  C 31.671875 22.7462940705128  31.4765625 22.3561698717949  31.2421875 22.0769230769231  C 31.7421875 22.0604967948718  32.16015625 21.6744791666667  32.49609375 20.9188701923077  Z M 34.21875 14.4879807692308  C 35.40625 15.7363782051282  36 17.2065304487179  36 18.8984375  C 36 20.3603766025641  35.6171875 21.6991185897436  34.8515625 22.9146634615385  C 34.9921875 23.4567307692308  35.0625 24.0234375  35.0625 24.6147836538462  C 35.0625 25.8796073717949  34.765625 27.0622996794872  34.171875 28.1628605769231  C 34.21875 28.5078125  34.2421875 28.8609775641026  34.2421875 29.2223557692308  C 34.2421875 30.8814102564103  33.7734375 32.3433493589744  32.8359375 33.6081730769231  C 32.8515625 35.8914262820513  32.1875 37.6942107371795  30.84375 39.0165264423077  C 29.5 40.3388421474359  27.7265625 41  25.5234375 41  L 24.6796875 41  L 22.5 41  C 21 41  19.51953125 40.8152043269231  18.05859375 40.4456129807692  C 16.59765625 40.0760216346154  14.90625 39.5380608974359  12.984375 38.8317307692308  C 11.171875 38.1746794871795  10.09375 37.8461538461538  9.75 37.8461538461538  L 3 37.8461538461538  C 2.171875 37.8461538461538  1.46484375 37.5381610576923  0.87890625 36.9221754807692  C 0.29296875 36.3061899038462  0 35.5629006410256  0 34.6923076923077  L 0 18.9230769230769  C 0 18.052483974359  0.29296875 17.3091947115385  0.87890625 16.6932091346154  C 1.46484375 16.0772235576923  2.171875 15.7692307692308  3 15.7692307692308  L 9.421875 15.7692307692308  C 9.984375 15.375  11.0546875 14.1019631410256  12.6328125 11.9501201923077  C 13.5390625 10.7181490384615  14.375 9.66686698717948  15.140625 8.79627403846154  C 15.515625 8.38561698717948  15.79296875 7.68339342948718  15.97265625 6.68960336538462  C 16.15234375 5.69581330128205  16.390625 4.65685096153846  16.6875 3.57271634615385  C 16.984375 2.48858173076923  17.46875 1.6015625  18.140625 0.911658653846152  C 18.75 0.30388621794872  19.453125 0  20.25 0  C 21.5625 0  22.7421875 0.266927083333336  23.7890625 0.80078125  C 24.8359375 1.33463541666666  25.6328125 2.16826923076923  26.1796875 3.30168269230769  C 26.7265625 4.43509615384615  27 5.96274038461538  27 7.88461538461538  C 27 9.41225961538462  26.625 10.9891826923077  25.875 12.6153846153846  L 30 12.6153846153846  C 31.625 12.6153846153846  33.03125 13.2395833333333  34.21875 14.4879807692308  Z " fill-rule="nonzero" fill="#c280ff" stroke="none" transform="matrix(1 0 0 1 3683 561 )" />
  </g>
</svg>