<?xml version="1.0" encoding="utf-8"?>
<svg version="1.1" xmlns:xlink="http://www.w3.org/1999/xlink" width="32px" height="50px" xmlns="http://www.w3.org/2000/svg">
  <g transform="matrix(1 0 0 1 -1195 -680 )">
    <path d="M 0 25  C 0 25.5376344086022  0.195624195624195 26.0028949545079  0.586872586872587 26.3957816377171  L 23.5057915057915 49.4106699751861  C 23.8970398970399 49.8035566583954  24.3603603603604 50  24.8957528957529 50  C 25.4311454311454 50  25.8944658944659 49.8035566583954  26.2857142857143 49.4106699751861  L 31.4131274131274 44.2617866004963  C 31.8043758043758 43.868899917287  32 43.4036393713813  32 42.8660049627792  C 32 42.328370554177  31.8043758043758 41.8631100082713  31.4131274131274 41.470223325062  L 15.011583011583 25  L 31.4131274131274 8.52977667493797  C 31.8043758043758 8.1368899917287  32 7.67162944582299  32 7.13399503722084  C 32 6.59636062861869  31.8043758043758 6.13110008271298  31.4131274131274 5.73821339950372  L 26.2857142857143 0.589330024813894  C 25.8944658944659 0.19644334160463  25.4311454311454 0  24.8957528957529 0  C 24.3603603603604 0  23.8970398970399 0.19644334160463  23.5057915057915 0.589330024813894  L 0.586872586872587 23.6042183622829  C 0.195624195624195 23.9971050454921  0 24.4623655913978  0 25  Z " fill-rule="nonzero" fill="#00ffff" stroke="none" transform="matrix(1 0 0 1 1195 680 )" />
  </g>
</svg>