<?xml version="1.0" encoding="utf-8"?>
<svg version="1.1" xmlns:xlink="http://www.w3.org/1999/xlink" width="54px" height="54px" xmlns="http://www.w3.org/2000/svg">
  <defs>
    <filter x="2570px" y="237px" width="54px" height="54px" filterUnits="userSpaceOnUse" id="filter2086">
      <feOffset dx="1" dy="1" in="SourceAlpha" result="shadowOffsetInner" />
      <feGaussianBlur stdDeviation="2.5" in="shadowOffsetInner" result="shadowGaussian" />
      <feComposite in2="shadowGaussian" operator="atop" in="SourceAlpha" result="shadowComposite" />
      <feColorMatrix type="matrix" values="0 0 0 0 0  0 0 0 0 0  0 0 0 0 0  0 0 0 0.698039215686274 0  " in="shadowComposite" />
    </filter>
    <g id="widget2087">
      <path d="M 2596 245  C 2606.08 245  2614 252.92  2614 263  C 2614 273.08  2606.08 281  2596 281  C 2585.92 281  2578 273.08  2578 263  C 2578 252.92  2585.92 245  2596 245  Z " fill-rule="nonzero" fill="#00ffff" stroke="none" />
      <path d="M 2596 243.5  C 2606.92 243.5  2615.5 252.08  2615.5 263  C 2615.5 273.92  2606.92 282.5  2596 282.5  C 2585.08 282.5  2576.5 273.92  2576.5 263  C 2576.5 252.08  2585.08 243.5  2596 243.5  Z " stroke-width="5" stroke="#ffff00" fill="none" />
    </g>
  </defs>
  <g transform="matrix(1 0 0 1 -2570 -237 )">
    <use xlink:href="#widget2087" filter="url(#filter2086)" />
    <use xlink:href="#widget2087" />
  </g>
</svg>