<?xml version="1.0" encoding="utf-8"?>
<svg version="1.1" xmlns:xlink="http://www.w3.org/1999/xlink" width="155px" height="205px" xmlns="http://www.w3.org/2000/svg">
  <defs>
    <filter x="1617px" y="553px" width="155px" height="205px" filterUnits="userSpaceOnUse" id="filter2092">
      <feOffset dx="1" dy="1" in="SourceAlpha" result="shadowOffsetInner" />
      <feGaussianBlur stdDeviation="2.5" in="shadowOffsetInner" result="shadowGaussian" />
      <feComposite in2="shadowGaussian" operator="atop" in="SourceAlpha" result="shadowComposite" />
      <feColorMatrix type="matrix" values="0 0 0 0 0  0 0 0 0 0  0 0 0 0 0  0 0 0 0.698039215686274 0  " in="shadowComposite" />
    </filter>
    <g id="widget2093">
      <path d="M 1693.5 751.031318778631  C 1664.7 702.653888479157  1621.5 673.627430299473  1621.5 625.25  C 1621.5 600.085714285714  1635.9 557.5  1693.5 557.5  C 1751.1 557.5  1765.5 600.085714285714  1765.5 625.25  C 1765.5 673.627430299473  1722.3 702.653888479157  1693.5 751.031318778631  Z " fill-rule="nonzero" fill="#7f7f7f" stroke="none" fill-opacity="0.996078431372549" />
      <path d="M 1693.5 752  C 1664.5 703.25  1621 674  1621 625.25  C 1621 599.9  1635.5 557  1693.5 557  C 1751.5 557  1766 599.9  1766 625.25  C 1766 674  1722.5 703.25  1693.5 752  Z M 1693.5 750.062637557261  C 1722.1 702.057776958315  1765 673.254860598947  1765 625.25  C 1765 600.271428571429  1750.7 558  1693.5 558  C 1636.3 558  1622 600.271428571429  1622 625.25  C 1622 673.254860598947  1664.9 702.057776958315  1693.5 750.062637557261  Z " fill-rule="nonzero" fill="#ffffff" stroke="none" />
    </g>
  </defs>
  <g transform="matrix(1 0 0 1 -1617 -553 )">
    <use xlink:href="#widget2093" filter="url(#filter2092)" />
    <use xlink:href="#widget2093" />
  </g>
</svg>