<?xml version="1.0" encoding="utf-8"?>
<svg version="1.1" xmlns:xlink="http://www.w3.org/1999/xlink" width="31px" height="48px" xmlns="http://www.w3.org/2000/svg">
  <g transform="matrix(1 0 0 1 -4148 -5708 )">
    <path d="M 30.2330729166667 0.75  C 30.7443576388889 1.24999999999999  31 1.84210526315789  31 2.52631578947369  L 31 45.4736842105263  C 31 46.1578947368421  30.7443576388889 46.75  30.2330729166667 47.25  C 29.7217881944444 47.75  29.1163194444444 48  28.4166666666667 48  C 27.7170138888889 48  27.1115451388889 47.75  26.6002604166667 47.25  L 13.1588541666667 34  L 2.58333333333333 34  C 1.88368055555556 34.1052631578947  1.27821180555556 33.8552631578947  0.766927083333333 33.3552631578947  C 0.255642361111111 32.8552631578947  0 32.2631578947368  0 31.5789473684211  L 0 16.4210526315789  C 0 15.7368421052632  0.255642361111111 15.1447368421053  0.766927083333333 14.6447368421053  C 1.27821180555556 14.1447368421053  1.88368055555556 13.8947368421053  2.58333333333333 14  L 13.1588541666667 14  L 26.6002604166667 0.75  C 27.1115451388889 0.249999999999996  27.7170138888889 0  28.4166666666667 0  C 29.1163194444444 0  29.7217881944444 0.249999999999996  30.2330729166667 0.75  Z " fill-rule="nonzero" fill="#000000" stroke="none" transform="matrix(1 0 0 1 4148 5708 )" />
  </g>
</svg>