<?xml version="1.0" encoding="utf-8"?>
<svg version="1.1" xmlns:xlink="http://www.w3.org/1999/xlink" width="36px" height="40px" xmlns="http://www.w3.org/2000/svg">
  <g transform="matrix(1 0 0 1 -3949 -5714 )">
    <path d="M 34.11328125 13.2932692307692  C 35.37109375 15.8733974358974  36 18.6217948717949  36 21.5384615384615  C 36 24.0384615384615  35.5234375 26.426282051282  34.5703125 28.7019230769231  C 33.6171875 30.9775641025641  32.3359375 32.9407051282051  30.7265625 34.5913461538462  C 29.1171875 36.2419871794872  27.203125 37.5560897435897  24.984375 38.5336538461538  C 22.765625 39.5112179487179  20.4375 40  18 40  C 15.5625 40  13.234375 39.5112179487179  11.015625 38.5336538461538  C 8.796875 37.5560897435897  6.8828125 36.2419871794872  5.2734375 34.5913461538462  C 3.6640625 32.9407051282051  2.3828125 30.9775641025641  1.4296875 28.7019230769231  C 0.4765625 26.426282051282  0 24.0384615384615  0 21.5384615384615  C 0 18.6217948717949  0.62890625 15.8733974358974  1.88671875 13.2932692307692  C 3.14453125 10.713141025641  4.9140625 8.54967948717949  7.1953125 6.80288461538462  C 7.8671875 6.2900641025641  8.61328125 6.08974358974359  9.43359375 6.20192307692307  C 10.25390625 6.31410256410256  10.90625 6.71474358974359  11.390625 7.40384615384615  C 11.890625 8.07692307692307  12.08203125 8.83413461538462  11.96484375 9.67548076923077  C 11.84765625 10.5168269230769  11.4609375 11.1939102564103  10.8046875 11.7067307692308  C 9.2734375 12.8926282051282  8.08984375 14.3429487179487  7.25390625 16.0576923076923  C 6.41796875 17.7724358974359  6 19.599358974359  6 21.5384615384615  C 6 23.2051282051282  6.31640625 24.7956730769231  6.94921875 26.3100961538462  C 7.58203125 27.8245192307692  8.4375 29.1346153846154  9.515625 30.2403846153846  C 10.59375 31.3461538461538  11.87109375 32.2235576923077  13.34765625 32.8725961538462  C 14.82421875 33.5216346153846  16.375 33.8461538461538  18 33.8461538461538  C 19.625 33.8461538461538  21.17578125 33.5216346153846  22.65234375 32.8725961538462  C 24.12890625 32.2235576923077  25.40625 31.3461538461538  26.484375 30.2403846153846  C 27.5625 29.1346153846154  28.41796875 27.8245192307692  29.05078125 26.3100961538462  C 29.68359375 24.7956730769231  30 23.2051282051282  30 21.5384615384615  C 30 19.599358974359  29.58203125 17.7724358974359  28.74609375 16.0576923076923  C 27.91015625 14.3429487179487  26.7265625 12.8926282051282  25.1953125 11.7067307692308  C 24.5390625 11.1939102564103  24.15234375 10.5168269230769  24.03515625 9.67548076923077  C 23.91796875 8.83413461538462  24.109375 8.07692307692307  24.609375 7.40384615384615  C 25.09375 6.71474358974359  25.75 6.31410256410256  26.578125 6.20192307692307  C 27.40625 6.08974358974359  28.1484375 6.2900641025641  28.8046875 6.80288461538462  C 31.0859375 8.54967948717949  32.85546875 10.713141025641  34.11328125 13.2932692307692  Z M 20.109375 0.913461538461537  C 20.703125 1.52243589743589  21 2.24358974358974  21 3.07692307692307  L 21 18.4615384615385  C 21 19.2948717948718  20.703125 20.0160256410256  20.109375 20.625  C 19.515625 21.2339743589744  18.8125 21.5384615384615  18 21.5384615384615  C 17.1875 21.5384615384615  16.484375 21.2339743589744  15.890625 20.625  C 15.296875 20.0160256410256  15 19.2948717948718  15 18.4615384615385  L 15 3.07692307692307  C 15 2.24358974358974  15.296875 1.52243589743589  15.890625 0.913461538461537  C 16.484375 0.304487179487181  17.1875 0  18 0  C 18.8125 0  19.515625 0.304487179487181  20.109375 0.913461538461537  Z " fill-rule="nonzero" fill="#f2f2f2" stroke="none" transform="matrix(1 0 0 1 3949 5714 )" />
  </g>
</svg>