<?xml version="1.0" encoding="utf-8"?>
<svg version="1.1" xmlns:xlink="http://www.w3.org/1999/xlink" width="56px" height="48px" xmlns="http://www.w3.org/2000/svg">
  <g transform="matrix(1 0 0 1 -4135 -5707 )">
    <path d="M 25.2067307692308 4.11814345991561  C 25.6330128205128 4.54571026722925  25.8461538461538 5.0520393811533  26 5.63713080168776  L 26 42.3628691983122  C 25.8461538461538 42.9479606188467  25.6330128205128 43.4542897327707  25.2067307692308 43.8818565400844  C 24.7804487179487 44.309423347398  24.275641025641 44.5232067510549  23.6923076923077 44.5232067510549  C 23.1089743589744 44.5232067510549  22.6041666666667 44.309423347398  22.1778846153846 43.8818565400844  L 10.9711538461538 32.6413502109705  L 2.15384615384615 32.6413502109705  C 1.57051282051282 32.6413502109705  1.06570512820513 32.4275668073136  0.639423076923077 32  C 0.213141025641026 31.5724331926864  0 31.0661040787623  0 30.4810126582278  L 0 17.5189873417722  C 0 16.9338959212377  0.213141025641026 16.4275668073136  0.639423076923077 16  C 1.06570512820513 15.5724331926864  1.57051282051282 15.3586497890295  2.15384615384615 15.3586497890295  L 10.9711538461538 15.3586497890295  L 22.1778846153846 4.11814345991561  C 22.6041666666667 3.69057665260197  23.1089743589744 3.47679324894515  23.6923076923077 3.47679324894515  C 24.275641025641 3.47679324894515  24.7804487179487 3.69057665260197  25.2067307692308 4.11814345991561  Z M 37.3389423076923 19.2067510548523  C 38.292467948718 20.6919831223629  38.7692307692308 22.2897327707454  38.7692307692308 24  C 38.7692307692308 25.7102672292546  38.292467948718 27.3023909985935  37.3389423076923 28.7763713080169  C 36.3854166666667 30.2503516174402  35.1233974358974 31.3023909985935  33.5528846153846 31.9324894514768  C 33.3285256410256 32.0450070323488  33.0480769230769 32.1012658227848  32.7115384615385 32.1012658227848  C 32.1282051282051 32.1012658227848  31.6233974358974 31.8931082981716  31.1971153846154 31.4767932489451  C 30.7708333333333 31.0604781997187  30.5576923076923 30.5485232067511  30.5576923076923 29.9409282700422  C 30.5576923076923 29.4683544303797  30.6923076923077 29.0689170182841  30.9615384615385 28.7426160337553  C 31.2307692307692 28.4163150492264  31.5560897435897 28.1350210970464  31.9375 27.8987341772152  C 32.3189102564103 27.662447257384  32.7003205128205 27.4036568213783  33.0817307692308 27.1223628691983  C 33.463141025641 26.8410689170183  33.7884615384615 26.436005625879  34.0576923076923 25.9071729957806  C 34.3269230769231 25.3783403656821  34.4615384615385 24.7426160337553  34.4615384615385 24  C 34.4615384615385 23.2573839662447  34.3269230769231 22.6216596343179  34.0576923076923 22.0928270042194  C 33.7884615384615 21.563994374121  33.463141025641 21.1589310829817  33.0817307692308 20.8776371308017  C 32.7003205128205 20.5963431786217  32.3189102564103 20.337552742616  31.9375 20.1012658227848  C 31.5560897435897 19.8649789029536  31.2307692307692 19.5836849507736  30.9615384615385 19.2573839662447  C 30.6923076923077 18.9310829817159  30.5576923076923 18.5316455696203  30.5576923076923 18.0590717299578  C 30.5576923076923 17.4514767932489  30.7708333333333 16.9395218002813  31.1971153846154 16.5232067510549  C 31.6233974358974 16.1068917018284  32.1282051282051 15.8987341772152  32.7115384615385 15.8987341772152  C 33.0480769230769 15.8987341772152  33.3285256410256 15.9549929676512  33.5528846153846 16.0675105485232  C 35.1233974358974 16.6751054852321  36.3854166666667 17.7215189873418  37.3389423076923 19.2067510548523  Z M 44.5240384615385 14.464135021097  C 46.4310897435898 17.3783403656821  47.3846153846154 20.5569620253165  47.3846153846154 24  C 47.3846153846154 27.4430379746835  46.4310897435898 30.6216596343179  44.5240384615385 33.535864978903  C 42.6169871794872 36.450070323488  40.0929487179487 38.5710267229255  36.9519230769231 39.8987341772152  C 36.6602564102564 40.0112517580872  36.3798076923077 40.0675105485232  36.1105769230769 40.0675105485232  C 35.5048076923077 40.0675105485232  34.9887820512821 39.8537271448664  34.5625 39.4261603375527  C 34.136217948718 38.9985935302391  33.9230769230769 38.4922644163151  33.9230769230769 37.9071729957806  C 33.9230769230769 37.0295358649789  34.3605769230769 36.365682137834  35.2355769230769 35.915611814346  C 36.4919871794872 35.2630098452883  37.3445512820513 34.7679324894515  37.7932692307692 34.4303797468354  C 39.4535256410256 33.2151898734177  40.7491987179487 31.690576652602  41.6802884615385 29.8565400843882  C 42.6113782051282 28.0225035161744  43.0769230769231 26.070323488045  43.0769230769231 24  C 43.0769230769231 21.929676511955  42.6113782051282 19.9774964838256  41.6802884615385 18.1434599156118  C 40.7491987179487 16.309423347398  39.4535256410256 14.7848101265823  37.7932692307692 13.5696202531646  C 37.3445512820513 13.2320675105485  36.4919871794872 12.7369901547117  35.2355769230769 12.084388185654  C 34.3605769230769 11.634317862166  33.9230769230769 10.9704641350211  33.9230769230769 10.0928270042194  C 33.9230769230769 9.50773558368495  34.136217948718 9.0014064697609  34.5625 8.57383966244726  C 34.9887820512821 8.14627285513361  35.4935897435898 7.93248945147679  36.0769230769231 7.93248945147679  C 36.3685897435898 7.93248945147679  36.6602564102564 7.98874824191279  36.9519230769231 8.10126582278481  C 40.0929487179487 9.42897327707454  42.6169871794872 11.5499296765119  44.5240384615385 14.464135021097  Z M 51.7259615384615 9.73839662447257  C 54.5753205128205 14.070323488045  56 18.8241912798875  56 24  C 56 29.1758087201125  54.5753205128205 33.929676511955  51.7259615384615 38.2616033755274  C 48.8766025641026 42.5935302390999  45.0849358974359 45.7834036568214  40.3509615384615 47.831223628692  C 40.0592948717949 47.943741209564  39.7676282051282 48  39.4759615384615 48  C 38.8926282051282 48  38.3878205128205 47.7862165963432  37.9615384615385 47.3586497890295  C 37.5352564102564 46.9310829817159  37.3221153846154 46.4247538677918  37.3221153846154 45.8396624472574  C 37.3221153846154 45.0295358649789  37.7596153846154 44.365682137834  38.6346153846154 43.8481012658228  C 38.7916666666667 43.7580872011252  39.0440705128205 43.6399437412096  39.3918269230769 43.4936708860759  C 39.7395833333333 43.3473980309423  39.9919871794872 43.2292545710267  40.1490384615385 43.1392405063291  C 41.1810897435898 42.5766526019691  42.1009615384615 42.0028129395218  42.9086538461538 41.4177215189873  C 45.6682692307692 39.3699015471167  47.8221153846154 36.8157524613221  49.3701923076923 33.7552742616034  C 50.9182692307692 30.6947960618847  51.6923076923077 27.4430379746835  51.6923076923077 24  C 51.6923076923077 20.5569620253165  50.9182692307692 17.3052039381153  49.3701923076923 14.2447257383966  C 47.8221153846154 11.1842475386779  45.6682692307692 8.63009845288326  42.9086538461538 6.58227848101266  C 42.1009615384615 5.9971870604782  41.1810897435898 5.42334739803094  40.1490384615385 4.86075949367089  C 39.9919871794872 4.77074542897327  39.7395833333333 4.65260196905766  39.3918269230769 4.50632911392405  C 39.0440705128205 4.36005625879043  38.7916666666667 4.24191279887482  38.6346153846154 4.15189873417722  C 37.7596153846154 3.63431786216596  37.3221153846154 2.97046413502109  37.3221153846154 2.16033755274262  C 37.3221153846154 1.57524613220815  37.5352564102564 1.0689170182841  37.9615384615385 0.641350210970463  C 38.3878205128205 0.213783403656819  38.8926282051282 0  39.4759615384615 0  C 39.7676282051282 0  40.0592948717949 0.0562587904360026  40.3509615384615 0.168776371308018  C 45.0849358974359 2.21659634317862  48.8766025641026 5.40646976090014  51.7259615384615 9.73839662447257  Z " fill-rule="nonzero" fill="#ffffff" stroke="none" fill-opacity="0.996078431372549" transform="matrix(1 0 0 1 4135 5707 )" />
  </g>
</svg>