<?xml version="1.0" encoding="utf-8"?>
<svg version="1.1" xmlns:xlink="http://www.w3.org/1999/xlink" width="770px" height="475px" xmlns="http://www.w3.org/2000/svg">
  <g transform="matrix(1 0 0 1 -1446 -86 )">
    <path d="M 592 188.714285714286  L 592 164  L 662.688311688312 164  L 673.077922077922 148.454545454545  L 656.194805194805 136.766233766234  L 645.805194805195 103  L 579.571428571428 69.2337662337662  L 538.012987012987 69  L 513.337662337662 12.0909090909091  L 479.571428571428 1  L 466.584415584416 1  L 419.831168831169 0.402597402597394  L 419 22.4805194805195  L 395.155844155844 40.6623376623376  L 395.155844155844 48.4545454545454  L 321.12987012987 31.5714285714286  L 292.558441558441 60.1428571428571  L 286.064935064935 69.2337662337662  L 252.298701298701 87.4155844155844  L 226.324675324675 96.5064935064935  L 205.545454545455 126.376623376623  L 205 153  L 183.467532467532 153  L 183 165  L 105.545454545455 171.831168831169  L 57.4935064935064 165  L 23.7272727272727 188.714285714286  L 1 222.48051948052  L 1 249.753246753247  L 14.6363636363635 271.831168831169  L 57.4935064935064 286.116883116883  L 95.1558441558441 325.077922077922  L 143.207792207792 344.558441558442  L 191.25974025974 360.142857142857  L 226.324675324675 373.12987012987  L 252.298701298701 406.896103896104  L 300.350649350649 440.662337662338  L 321.12987012987 448.454545454546  L 370.480519480519 449  L 436.714285714286 461.441558441558  L 466.584415584416 474.428571428571  L 538.012987012987 461.441558441558  L 628.922077922078 448.454545454546  L 674 458.844155844156  L 740.61038961039 474.428571428571  L 769.181818181818 461.441558441558  L 758.792207792208 440.662337662338  L 714.636363636364 406.896103896104  L 725.025974025974 360.142857142857  L 770 313.38961038961  L 714.636363636364 286.116883116883  L 673.077922077922 249.753246753247  L 628.922077922078 230.272727272727  L 608.142857142857 222.48051948052  L 592 188.714285714286  Z " fill-rule="nonzero" fill="#95f204" stroke="none" fill-opacity="0.498039215686275" transform="matrix(1 0 0 1 1446 86 )" />
  </g>
</svg>