<?xml version="1.0" encoding="utf-8"?>
<svg version="1.1" xmlns:xlink="http://www.w3.org/1999/xlink" width="195px" height="75px" xmlns="http://www.w3.org/2000/svg">
  <g transform="matrix(1 0 0 1 -1572 -680 )">
    <path d="M 0.859744990892523 75  L 2.35897435897436 11  L 38.897435897436 11  L 41.6752136752139 0.848925848925939  L 54.9789983844887 3.04708990088633  L 53.5250403877196 11  L 91.0048465266534 11  L 120.5 11.1486486486486  L 114.190476190476 5.7432432432432  L 127.285714285714 0.848925848925939  L 137.047619047619 11  L 149.190476190476 11  L 153.683060109289 6  L 191.205828779599 6  L 191.205828779599 14.272264067346  L 182.462659380692 32.9179589425491  L 194.848816029144 50.4559887756609  L 193.027322404371 56.7327573475115  L 188.109289617486 62.8249150790134  L 172.262295081967 67.07096440703  L 166.979963570127 67.07096440703  L 166.979963570127 74.2707871806233  L 0.859744990892523 75  Z " fill-rule="nonzero" fill="#70817f" stroke="none" transform="matrix(1 0 0 1 1572 680 )" />
  </g>
</svg>