<?xml version="1.0" encoding="utf-8"?>
<svg version="1.1" xmlns:xlink="http://www.w3.org/1999/xlink" width="1509px" height="817px" xmlns="http://www.w3.org/2000/svg">
  <g transform="matrix(1 0 0 1 -970 -357 )">
    <path d="M 527 16.375  L 492.625 0.75  L 478.5625 42.9375  L 461.375 66.375  L 400.4375 111  L 353.5625 111  L 266.0625 96.0625  L 153.5625 77.3125  L 103.5625 52.3125  L 64.5 96.0625  L 41.0625 133.5625  L 0.4375 147.625  L 16.0625 175.75  L 50.4375 188.25  L 125.4375 189  L 198.875 189  L 258.25 207  L 298.875 216.375  L 337.9375 230.4375  L 372.3125 261.6875  L 419.1875 300.75  L 478.5625 349.1875  L 493 408.5625  L 509 436.6875  L 509 463.25  L 462 536.6875  L 462 569.5  L 461.375 608.5625  L 478.5625 639.8125  L 508.25 685.125  L 527 725.75  L 527 761.6875  L 527 797.625  L 544.1875 816  L 582 816  L 582 780.4375  L 581.6875 761.6875  L 605.125 739.8125  L 606 717.9375  L 605.125 685.125  L 606 674.1875  L 605.125 652.3125  L 606 627.3125  L 648.875 597.625  L 723 560.125  L 723 528.875  L 747.3125 511  L 808.25 511  L 831.6875 511.6875  L 859.8125 528.875  L 873.875 511.6875  L 933.25 528.875  L 952 550.75  L 962.9375 569.5  L 1006.6875 550.75  L 1031 536.6875  L 1031 511.6875  L 1112.9375 528.875  L 1134.8125 536  L 1181.6875 536  L 1192.625 536  L 1223.875 536  L 1242.625 550  L 1262.9375 550  L 1294.1875 550  L 1320.75 550  L 1339.5 560  L 1369.1875 560  L 1402 550  L 1422.3125 550  L 1433.25 521.0625  L 1433.25 511.6875  L 1434 499.1875  L 1450.4375 491.375  L 1451 474.1875  L 1472.3125 463.25  L 1481.6875 436.6875  L 1494.1875 427.3125  L 1495 411.6875  L 1495 396.0625  L 1495 372.625  L 1495 349.1875  L 1495 338.25  L 1508.25 319.5  L 1495 300.75  L 1481 261.6875  L 1481 242.9375  L 1472.3125 216.375  L 1472.3125 207  L 1451 188.25  L 1450.4375 176  L 1434 176  L 1422.3125 147.625  L 1414.5 121.0625  L 1387.9375 96.0625  L 1339.5 66.375  L 1294.1875 42.9375  L 1255.125 35.125  C 1255.125 35.125  1223.875 88.25  1223.875 77.3125  C 1223.875 66.375  1192 96.0625  1192 96.0625  L 1192 121.0625  L 1223.875 147.625  L 1242 175.75  L 1242 189  L 1209.8125 216.375  L 1150.4375 207  L 1112.9375 175.75  L 1053.5625 189  L 1023.875 189  L 962.9375 207  L 905.125 189  L 873.875 189  L 797.3125 188.25  L 747.3125 161.6875  L 722.3125 133.5625  L 708.25 110.125  L 677 96.0625  L 614.5 77.3125  L 561.375 52.3125  L 544.1875 35.125  L 527 16.375  Z " fill-rule="nonzero" fill="#c280ff" stroke="none" fill-opacity="0.498039215686275" transform="matrix(1 0 0 1 970 357 )" />
  </g>
</svg>