<?xml version="1.0" encoding="utf-8"?>
<svg version="1.1" xmlns:xlink="http://www.w3.org/1999/xlink" width="251px" height="37px" xmlns="http://www.w3.org/2000/svg">
  <g transform="matrix(1 0 0 1 -3483 -496 )">
    <path d="M 3486 506  A 7 7 0 0 1 3493 499 L 3724 499  A 7 7 0 0 1 3731 506 L 3731 523  A 7 7 0 0 1 3724 530 L 3493 530  A 7 7 0 0 1 3486 523 L 3486 506  Z " fill-rule="nonzero" fill="#c280ff" stroke="none" fill-opacity="0.498039215686275" />
    <path d="M 3484.5 506  A 8.5 8.5 0 0 1 3493 497.5 L 3724 497.5  A 8.5 8.5 0 0 1 3732.5 506 L 3732.5 523  A 8.5 8.5 0 0 1 3724 531.5 L 3493 531.5  A 8.5 8.5 0 0 1 3484.5 523 L 3484.5 506  Z " stroke-width="3" stroke="#c280ff" fill="none" stroke-opacity="0.498039215686275" />
  </g>
</svg>