<?xml version="1.0" encoding="utf-8"?>
<svg version="1.1" xmlns:xlink="http://www.w3.org/1999/xlink" width="407px" height="33px" xmlns="http://www.w3.org/2000/svg">
  <g transform="matrix(1 0 0 1 -3407 -546 )">
    <path d="M 3410 556  A 7 7 0 0 1 3417 549 L 3804 549  A 7 7 0 0 1 3811 556 L 3811 569  A 7 7 0 0 1 3804 576 L 3417 576  A 7 7 0 0 1 3410 569 L 3410 556  Z " fill-rule="nonzero" fill="#6478b3" stroke="none" fill-opacity="0" />
    <path d="M 3408.5 556  A 8.5 8.5 0 0 1 3417 547.5 L 3804 547.5  A 8.5 8.5 0 0 1 3812.5 556 L 3812.5 569  A 8.5 8.5 0 0 1 3804 577.5 L 3417 577.5  A 8.5 8.5 0 0 1 3408.5 569 L 3408.5 556  Z " stroke-width="3" stroke="#c280ff" fill="none" stroke-opacity="0.498039215686275" />
  </g>
</svg>