<?xml version="1.0" encoding="utf-8"?>
<svg version="1.1" xmlns:xlink="http://www.w3.org/1999/xlink" width="407px" height="33px" xmlns="http://www.w3.org/2000/svg">
  <g transform="matrix(1 0 0 1 -3000 -678 )">
    <path d="M 3003 688  A 7 7 0 0 1 3010 681 L 3397 681  A 7 7 0 0 1 3404 688 L 3404 701  A 7 7 0 0 1 3397 708 L 3010 708  A 7 7 0 0 1 3003 701 L 3003 688  Z " fill-rule="nonzero" fill="#d6b878" stroke="none" />
    <path d="M 3001.5 688  A 8.5 8.5 0 0 1 3010 679.5 L 3397 679.5  A 8.5 8.5 0 0 1 3405.5 688 L 3405.5 701  A 8.5 8.5 0 0 1 3397 709.5 L 3010 709.5  A 8.5 8.5 0 0 1 3001.5 701 L 3001.5 688  Z " stroke-width="3" stroke="#95f204" fill="none" stroke-opacity="0.498039215686275" />
  </g>
</svg>