<?xml version="1.0" encoding="utf-8"?>
<svg version="1.1" xmlns:xlink="http://www.w3.org/1999/xlink" width="251px" height="37px" xmlns="http://www.w3.org/2000/svg">
  <g transform="matrix(1 0 0 1 -3078 -496 )">
    <path d="M 3081 506  A 7 7 0 0 1 3088 499 L 3319 499  A 7 7 0 0 1 3326 506 L 3326 523  A 7 7 0 0 1 3319 530 L 3088 530  A 7 7 0 0 1 3081 523 L 3081 506  Z " fill-rule="nonzero" fill="#bad36d" stroke="none" fill-opacity="0" />
    <path d="M 3079.5 506  A 8.5 8.5 0 0 1 3088 497.5 L 3319 497.5  A 8.5 8.5 0 0 1 3327.5 506 L 3327.5 523  A 8.5 8.5 0 0 1 3319 531.5 L 3088 531.5  A 8.5 8.5 0 0 1 3079.5 523 L 3079.5 506  Z " stroke-width="3" stroke="#95f204" fill="none" stroke-opacity="0.498039215686275" />
  </g>
</svg>