<?xml version="1.0" encoding="utf-8"?>
<svg version="1.1" xmlns:xlink="http://www.w3.org/1999/xlink" width="84px" height="108px" xmlns="http://www.w3.org/2000/svg">
  <defs>
    <filter x="2314px" y="547px" width="84px" height="108px" filterUnits="userSpaceOnUse" id="filter2009">
      <feOffset dx="1" dy="1" in="SourceAlpha" result="shadowOffsetInner" />
      <feGaussianBlur stdDeviation="2.5" in="shadowOffsetInner" result="shadowGaussian" />
      <feComposite in2="shadowGaussian" operator="atop" in="SourceAlpha" result="shadowComposite" />
      <feColorMatrix type="matrix" values="0 0 0 0 0  0 0 0 0 0  0 0 0 0 0  0 0 0 0.698039215686274 0  " in="shadowComposite" />
    </filter>
    <g id="widget2010">
      <path d="M 2355 644.206626260953  C 2341.2 621.550231545202  2320.5 607.956394715751  2320.5 585.3  C 2320.5 573.488571428571  2327.4 553.5  2355 553.5  C 2382.6 553.5  2389.5 573.488571428571  2389.5 585.3  C 2389.5 607.956394715751  2368.8 621.550231545202  2355 644.206626260953  Z " fill-rule="nonzero" fill="#558aa9" stroke="none" />
      <path d="M 2355 649  C 2340.2 624.5  2318 609.8  2318 585.3  C 2318 572.56  2325.4 551  2355 551  C 2384.6 551  2392 572.56  2392 585.3  C 2392 609.8  2369.8 624.5  2355 649  Z M 2355 643.247951513143  C 2368.6 620.960277854242  2389 607.587673658901  2389 585.3  C 2389 573.674285714286  2382.2 554  2355 554  C 2327.8 554  2321 573.674285714286  2321 585.3  C 2321 607.587673658901  2341.4 620.960277854242  2355 643.247951513143  Z " fill-rule="nonzero" fill="#ffffff" stroke="none" />
    </g>
  </defs>
  <g transform="matrix(1 0 0 1 -2314 -547 )">
    <use xlink:href="#widget2010" filter="url(#filter2009)" />
    <use xlink:href="#widget2010" />
  </g>
</svg>