<?xml version="1.0" encoding="utf-8"?>
<svg version="1.1" xmlns:xlink="http://www.w3.org/1999/xlink" width="41px" height="34px" xmlns="http://www.w3.org/2000/svg">
  <defs>
    <mask fill="white" id="clip2094">
      <path d="M 4.47775665840101 26.3354083612294  C 4.7143819693736 26.5722810157326  5.00734185875896 26.7183902240405  5.31293602896487 26.7737360319283  C 5.43348707444829 30.2811632708967  8.03859107518177 32.6993070055496  11.6716089158371 33.0285714285714  L 34.5099815906185 33.0285714285714  L 34.5921870852482 32.9796783751922  C 37.9879063634276 32.8074733420976  41 29.8757876567309  41 26.5177895113861  C 41 23.2668944963807  38.8120691429236 20.2995077675676  35.5491433560699 19.4720835841618  L 35.2076743783757 19.3943813131313  L 35.1402237161152 18.9386679938444  C 34.2654729399239 13.6717140548045  30.4924515197248 10.3557171370438  27.2105552341102 10.3557171370438  C 25.0837515397073 10.3557171370438  23.3468969864984 10.8891327273613  21.9447161316658 11.8640808271498  C 20.6715692054391 9.47052813698843  18.1677775081169 7.84243657126282  15.2862771084952 7.84243657126282  C 11.1201062820843 7.84243657126282  7.74218570613867 11.2438966634174  7.74218570613867 15.4391000391412  C 7.74218570613867 17.3787552399675  8.46539868360698 19.148792069648  9.65485041713579 20.492182228867  C 9.60883367530332 20.5131781059706  9.56303349517285 20.5343619570184  9.51740338989112 20.5557152558303  C 9.16539524621912 20.7195200434081  8.83446543450312 20.8959251992611  8.50479317537279 21.0983326588135  C 7.98323779228011 20.967560000416  7.41049037371646 21.1074169792097  7.00345903161891 21.5189242478426  L 4.47569317607007 24.0643051964616  L 4.34363030688227 24.2139112603804  C 3.84633106509674 24.8518148940343  3.90410857036621 25.7639963115394  4.47775665840101 26.3354083612294  Z M 26.0947975585894 4.5552588890463  C 25.4736893769404 3.93397815138337  24.4687734817141 3.93397815138337  23.849728782396 4.55941461304405  L 21.3240264091781 7.10271769966416  L 21.1919635399903 7.25232376358299  C 20.7029182275288 7.88814953523802  20.7606957327985 8.78994164274875  21.3240264091781 9.35927583043985  C 21.9430711084962 9.98471229210053  22.9479870037225 9.98679015409939  23.5711586677027 9.3634315544376  L 26.0989245232518 6.81805060581861  L 26.2309873924396 6.66844454189978  C 26.7179692225697 6.028463046247  26.6601917173002 5.1245930767374  26.0947975585894 4.5552588890463  Z M 1.58681791258537 17.0583610188261  L 5.16076930998195 17.0583610188261  L 5.34648271977735 17.0286644682788  C 6.14505038189779 16.9330828163307  6.74552374023639 16.2515440807004  6.7475872225676 15.443255763139  C 6.7475872225676 14.5601644136181  6.03774930068258 13.843302024007  5.16076930998195 13.7299003322259  L 1.58681791258537 13.7299003322259  L 1.40110450278997 13.8516134720025  C 0.602536840669533 13.9471951239507  0 14.6287338595809  0 15.4391000391412  C 0 16.3221913886621  0.709837921884741 17.0390537782732  1.58681791258537 17.0583610188261  Z M 4.47569317607007 4.5552588890463  C 3.85664847675169 5.18069535070696  3.85458499442075 6.19676986815568  4.47569317607007 6.82220632981635  L 7.00345903161891 9.3634315544376  L 7.15409324178623 9.49433686036658  C 7.78551883509077 9.98679015409939  8.68107016677092 9.92861001813096  9.2464643254817 9.36135369243872  C 9.86757250713074 8.73799509277693  9.86963598946195 7.72607629932596  9.25059129014384 7.09856197566642  L 6.72076195226352 4.5552588890463  L 6.57219122442714 4.42227572111845  C 5.94076563112287 3.92774456538675  5.04108733478031 3.98592470135518  4.47569317607007 4.5552588890463  Z M 16.7337209302324 5.24303121067314  L 16.7337209302324 1.64625209062458  L 16.8648410917566 1.45924451072604  C 16.7678574221966 0.653034055163464  16.091035217609 0.0462983514926395  15.2862771084952 0.0462983514926395  C 14.4092971177946 0.0462983514926395  13.6973957135786 0.763160741103713  13.6348837209301 1.64625209062458  L 13.6348837209301 5.24510907267202  L 13.7077131252341 5.43211665257055  C 13.8026333124629 6.23624924613426  14.4794555170508 6.84090708780622  15.2842136261643 6.84090708780622  C 16.1611936168649 6.84090708780622  16.8730950210809 6.12612256019401  16.7337209302324 5.24303121067314  Z M 15.2862771084952 11.0423440495267  C 17.3834878786976 11.0423440495267  19.133594457291 12.5301044075867  19.5559622636521 14.5147221800336  C 19.5262117696115 14.5661587243692  19.4970629791031 14.617660423054  19.4684839065171 14.6692432099257  C 19.3377982483872 14.9044500843964  19.2176517562357 15.1438570816255  19.1059365968667 15.3916643243714  C 17.8243740139164 14.8771492864668  16.5027626002486 14.7007441306138  15.1790433533858 15.055654503699  C 14.8987015383651 15.1312567133503  14.622575389736 15.232059659552  14.3548805738895 15.3559632809249  C 13.1667646241383 15.8956662941788  12.2191333472171 16.6711337187477  11.5193387870904 17.6585595215278  C 11.1392147467135 17.0071700099856  10.9199484959716 16.2501061647887  10.9199484959716 15.4411779011401  C 10.9199484959716 13.012157224458  12.8740662634856 11.0423440495267  15.2862771084952 11.0423440495267  Z M 32.0775420828475 20.9106256289155  C 32.1028360811952 21.7842511626638  32.821607200909 22.4793714791798  33.7005736434917 22.4793714791798  C 36.0697781553932 22.4793714791798  37.7560447119068 24.3862272114956  37.7560447119068 26.5198895727653  C 37.7560447119068 28.0130332133783  36.3185024724792 29.4935764857161  34.7081179110086 29.7245832374283  L 34.46571709351 29.7497839739788  L 16.5449192641615 29.7497839739788  L 13.5370412939805 29.7497839739788  L 11.7959710743802 29.7497839739788  C 9.81250003728104 29.5922793705386  8.55201578628703 28.3868441388764  8.55201578628703 26.5198895727653  C 8.55201578628703 24.9007422494002  9.64387338162966 23.7541087363557  12.2660178770083 22.9644856577755  C 12.5147421940943 22.8888834481242  12.733956846441 22.7565795812345  12.9152305012662 22.5843745481399  C 13.1766018175257 22.336567305394  13.3536598059596 22.0068576688592  13.4042478026551 21.6372468661196  C 13.5201786284153 20.7930221916802  13.7625794459142 20.1105022434394  14.1440972543255 19.5602861620883  C 14.5256150627365 19.0100700807373  15.0441420288645 18.5963579890344  15.7144329850784 18.29184908905  C 15.8261481444477 18.2414476159492  15.9252163046429 18.2036465111235  16.0285001312292 18.1763457131939  C 16.6102620932266 18.0188411097537  17.3184940469622 18.1385446083682  18.066774831415 18.4640541221446  C 18.1110393285236 18.4829546745574  18.1574116588278 18.5018552269703  18.201676155936 18.5228558407623  C 18.5009884697173 18.6635599531688  19.2302987554095 19.1024727814222  19.3441217479742 19.1444740090062  C 20.2799996868393 19.4909841365746  20.9271044779012 19.0730719221133  21.3233771186821 18.4871547973158  C 21.3929356141382 18.3842517897349  21.4456314440292 18.2876489662916  21.4941116075291 18.1826458973315  L 21.565777936181 18.0146409869953  C 21.6163659328763 17.8907373656223  21.7913160881145 17.399323002889  21.812394420071 17.3405212842713  L 21.9557270773747 16.9751106042901  C 22.1327850658086 16.5319976532783  22.3583232177423 16.1098853160586  22.6281258667843 15.7150737767686  C 22.6639590311101 15.6625722422885  22.7019000286319 15.6121707691876  22.7398410261534 15.5617692960868  C 23.0876335034343 15.0934556085246  23.4965531433889 14.7007441306138  23.9834626115822 14.392035107871  C 24.8055175578825 13.8712198858288  25.8531106561166 13.5877115996364  27.2105552341102 13.5877115996364  C 27.6890333695207 13.5877115996364  28.8462337939282 14.1148270058163  29.7821117327932 15.0199534602525  C 30.0476987154441 15.2761609485152  30.2922073661387 15.5554691119492  30.5156376848768 15.8557778891751  C 31.4494077905462 17.1158147166966  32.0143070869784 18.7832634517834  32.0775420828475 20.9106256289155  Z " fill-rule="evenodd" />
    </mask>
  </defs>
  <g transform="matrix(1 0 0 1 -3786 -5720 )">
    <path d="M 4.47775665840101 26.3354083612294  C 4.7143819693736 26.5722810157326  5.00734185875896 26.7183902240405  5.31293602896487 26.7737360319283  C 5.43348707444829 30.2811632708967  8.03859107518177 32.6993070055496  11.6716089158371 33.0285714285714  L 34.5099815906185 33.0285714285714  L 34.5921870852482 32.9796783751922  C 37.9879063634276 32.8074733420976  41 29.8757876567309  41 26.5177895113861  C 41 23.2668944963807  38.8120691429236 20.2995077675676  35.5491433560699 19.4720835841618  L 35.2076743783757 19.3943813131313  L 35.1402237161152 18.9386679938444  C 34.2654729399239 13.6717140548045  30.4924515197248 10.3557171370438  27.2105552341102 10.3557171370438  C 25.0837515397073 10.3557171370438  23.3468969864984 10.8891327273613  21.9447161316658 11.8640808271498  C 20.6715692054391 9.47052813698843  18.1677775081169 7.84243657126282  15.2862771084952 7.84243657126282  C 11.1201062820843 7.84243657126282  7.74218570613867 11.2438966634174  7.74218570613867 15.4391000391412  C 7.74218570613867 17.3787552399675  8.46539868360698 19.148792069648  9.65485041713579 20.492182228867  C 9.60883367530332 20.5131781059706  9.56303349517285 20.5343619570184  9.51740338989112 20.5557152558303  C 9.16539524621912 20.7195200434081  8.83446543450312 20.8959251992611  8.50479317537279 21.0983326588135  C 7.98323779228011 20.967560000416  7.41049037371646 21.1074169792097  7.00345903161891 21.5189242478426  L 4.47569317607007 24.0643051964616  L 4.34363030688227 24.2139112603804  C 3.84633106509674 24.8518148940343  3.90410857036621 25.7639963115394  4.47775665840101 26.3354083612294  Z M 26.0947975585894 4.5552588890463  C 25.4736893769404 3.93397815138337  24.4687734817141 3.93397815138337  23.849728782396 4.55941461304405  L 21.3240264091781 7.10271769966416  L 21.1919635399903 7.25232376358299  C 20.7029182275288 7.88814953523802  20.7606957327985 8.78994164274875  21.3240264091781 9.35927583043985  C 21.9430711084962 9.98471229210053  22.9479870037225 9.98679015409939  23.5711586677027 9.3634315544376  L 26.0989245232518 6.81805060581861  L 26.2309873924396 6.66844454189978  C 26.7179692225697 6.028463046247  26.6601917173002 5.1245930767374  26.0947975585894 4.5552588890463  Z M 1.58681791258537 17.0583610188261  L 5.16076930998195 17.0583610188261  L 5.34648271977735 17.0286644682788  C 6.14505038189779 16.9330828163307  6.74552374023639 16.2515440807004  6.7475872225676 15.443255763139  C 6.7475872225676 14.5601644136181  6.03774930068258 13.843302024007  5.16076930998195 13.7299003322259  L 1.58681791258537 13.7299003322259  L 1.40110450278997 13.8516134720025  C 0.602536840669533 13.9471951239507  0 14.6287338595809  0 15.4391000391412  C 0 16.3221913886621  0.709837921884741 17.0390537782732  1.58681791258537 17.0583610188261  Z M 4.47569317607007 4.5552588890463  C 3.85664847675169 5.18069535070696  3.85458499442075 6.19676986815568  4.47569317607007 6.82220632981635  L 7.00345903161891 9.3634315544376  L 7.15409324178623 9.49433686036658  C 7.78551883509077 9.98679015409939  8.68107016677092 9.92861001813096  9.2464643254817 9.36135369243872  C 9.86757250713074 8.73799509277693  9.86963598946195 7.72607629932596  9.25059129014384 7.09856197566642  L 6.72076195226352 4.5552588890463  L 6.57219122442714 4.42227572111845  C 5.94076563112287 3.92774456538675  5.04108733478031 3.98592470135518  4.47569317607007 4.5552588890463  Z M 16.7337209302324 5.24303121067314  L 16.7337209302324 1.64625209062458  L 16.8648410917566 1.45924451072604  C 16.7678574221966 0.653034055163464  16.091035217609 0.0462983514926395  15.2862771084952 0.0462983514926395  C 14.4092971177946 0.0462983514926395  13.6973957135786 0.763160741103713  13.6348837209301 1.64625209062458  L 13.6348837209301 5.24510907267202  L 13.7077131252341 5.43211665257055  C 13.8026333124629 6.23624924613426  14.4794555170508 6.84090708780622  15.2842136261643 6.84090708780622  C 16.1611936168649 6.84090708780622  16.8730950210809 6.12612256019401  16.7337209302324 5.24303121067314  Z M 15.2862771084952 11.0423440495267  C 17.3834878786976 11.0423440495267  19.133594457291 12.5301044075867  19.5559622636521 14.5147221800336  C 19.5262117696115 14.5661587243692  19.4970629791031 14.617660423054  19.4684839065171 14.6692432099257  C 19.3377982483872 14.9044500843964  19.2176517562357 15.1438570816255  19.1059365968667 15.3916643243714  C 17.8243740139164 14.8771492864668  16.5027626002486 14.7007441306138  15.1790433533858 15.055654503699  C 14.8987015383651 15.1312567133503  14.622575389736 15.232059659552  14.3548805738895 15.3559632809249  C 13.1667646241383 15.8956662941788  12.2191333472171 16.6711337187477  11.5193387870904 17.6585595215278  C 11.1392147467135 17.0071700099856  10.9199484959716 16.2501061647887  10.9199484959716 15.4411779011401  C 10.9199484959716 13.012157224458  12.8740662634856 11.0423440495267  15.2862771084952 11.0423440495267  Z M 32.0775420828475 20.9106256289155  C 32.1028360811952 21.7842511626638  32.821607200909 22.4793714791798  33.7005736434917 22.4793714791798  C 36.0697781553932 22.4793714791798  37.7560447119068 24.3862272114956  37.7560447119068 26.5198895727653  C 37.7560447119068 28.0130332133783  36.3185024724792 29.4935764857161  34.7081179110086 29.7245832374283  L 34.46571709351 29.7497839739788  L 16.5449192641615 29.7497839739788  L 13.5370412939805 29.7497839739788  L 11.7959710743802 29.7497839739788  C 9.81250003728104 29.5922793705386  8.55201578628703 28.3868441388764  8.55201578628703 26.5198895727653  C 8.55201578628703 24.9007422494002  9.64387338162966 23.7541087363557  12.2660178770083 22.9644856577755  C 12.5147421940943 22.8888834481242  12.733956846441 22.7565795812345  12.9152305012662 22.5843745481399  C 13.1766018175257 22.336567305394  13.3536598059596 22.0068576688592  13.4042478026551 21.6372468661196  C 13.5201786284153 20.7930221916802  13.7625794459142 20.1105022434394  14.1440972543255 19.5602861620883  C 14.5256150627365 19.0100700807373  15.0441420288645 18.5963579890344  15.7144329850784 18.29184908905  C 15.8261481444477 18.2414476159492  15.9252163046429 18.2036465111235  16.0285001312292 18.1763457131939  C 16.6102620932266 18.0188411097537  17.3184940469622 18.1385446083682  18.066774831415 18.4640541221446  C 18.1110393285236 18.4829546745574  18.1574116588278 18.5018552269703  18.201676155936 18.5228558407623  C 18.5009884697173 18.6635599531688  19.2302987554095 19.1024727814222  19.3441217479742 19.1444740090062  C 20.2799996868393 19.4909841365746  20.9271044779012 19.0730719221133  21.3233771186821 18.4871547973158  C 21.3929356141382 18.3842517897349  21.4456314440292 18.2876489662916  21.4941116075291 18.1826458973315  L 21.565777936181 18.0146409869953  C 21.6163659328763 17.8907373656223  21.7913160881145 17.399323002889  21.812394420071 17.3405212842713  L 21.9557270773747 16.9751106042901  C 22.1327850658086 16.5319976532783  22.3583232177423 16.1098853160586  22.6281258667843 15.7150737767686  C 22.6639590311101 15.6625722422885  22.7019000286319 15.6121707691876  22.7398410261534 15.5617692960868  C 23.0876335034343 15.0934556085246  23.4965531433889 14.7007441306138  23.9834626115822 14.392035107871  C 24.8055175578825 13.8712198858288  25.8531106561166 13.5877115996364  27.2105552341102 13.5877115996364  C 27.6890333695207 13.5877115996364  28.8462337939282 14.1148270058163  29.7821117327932 15.0199534602525  C 30.0476987154441 15.2761609485152  30.2922073661387 15.5554691119492  30.5156376848768 15.8557778891751  C 31.4494077905462 17.1158147166966  32.0143070869784 18.7832634517834  32.0775420828475 20.9106256289155  Z " fill-rule="nonzero" fill="#000000" stroke="none" fill-opacity="0" transform="matrix(1 0 0 1 3786 5720 )" />
    <path d="M 4.47775665840101 26.3354083612294  C 4.7143819693736 26.5722810157326  5.00734185875896 26.7183902240405  5.31293602896487 26.7737360319283  C 5.43348707444829 30.2811632708967  8.03859107518177 32.6993070055496  11.6716089158371 33.0285714285714  L 34.5099815906185 33.0285714285714  L 34.5921870852482 32.9796783751922  C 37.9879063634276 32.8074733420976  41 29.8757876567309  41 26.5177895113861  C 41 23.2668944963807  38.8120691429236 20.2995077675676  35.5491433560699 19.4720835841618  L 35.2076743783757 19.3943813131313  L 35.1402237161152 18.9386679938444  C 34.2654729399239 13.6717140548045  30.4924515197248 10.3557171370438  27.2105552341102 10.3557171370438  C 25.0837515397073 10.3557171370438  23.3468969864984 10.8891327273613  21.9447161316658 11.8640808271498  C 20.6715692054391 9.47052813698843  18.1677775081169 7.84243657126282  15.2862771084952 7.84243657126282  C 11.1201062820843 7.84243657126282  7.74218570613867 11.2438966634174  7.74218570613867 15.4391000391412  C 7.74218570613867 17.3787552399675  8.46539868360698 19.148792069648  9.65485041713579 20.492182228867  C 9.60883367530332 20.5131781059706  9.56303349517285 20.5343619570184  9.51740338989112 20.5557152558303  C 9.16539524621912 20.7195200434081  8.83446543450312 20.8959251992611  8.50479317537279 21.0983326588135  C 7.98323779228011 20.967560000416  7.41049037371646 21.1074169792097  7.00345903161891 21.5189242478426  L 4.47569317607007 24.0643051964616  L 4.34363030688227 24.2139112603804  C 3.84633106509674 24.8518148940343  3.90410857036621 25.7639963115394  4.47775665840101 26.3354083612294  Z " stroke-width="2" stroke="#797979" fill="none" transform="matrix(1 0 0 1 3786 5720 )" mask="url(#clip2094)" />
    <path d="M 26.0947975585894 4.5552588890463  C 25.4736893769404 3.93397815138337  24.4687734817141 3.93397815138337  23.849728782396 4.55941461304405  L 21.3240264091781 7.10271769966416  L 21.1919635399903 7.25232376358299  C 20.7029182275288 7.88814953523802  20.7606957327985 8.78994164274875  21.3240264091781 9.35927583043985  C 21.9430711084962 9.98471229210053  22.9479870037225 9.98679015409939  23.5711586677027 9.3634315544376  L 26.0989245232518 6.81805060581861  L 26.2309873924396 6.66844454189978  C 26.7179692225697 6.028463046247  26.6601917173002 5.1245930767374  26.0947975585894 4.5552588890463  Z " stroke-width="2" stroke="#797979" fill="none" transform="matrix(1 0 0 1 3786 5720 )" mask="url(#clip2094)" />
    <path d="M 1.58681791258537 17.0583610188261  L 5.16076930998195 17.0583610188261  L 5.34648271977735 17.0286644682788  C 6.14505038189779 16.9330828163307  6.74552374023639 16.2515440807004  6.7475872225676 15.443255763139  C 6.7475872225676 14.5601644136181  6.03774930068258 13.843302024007  5.16076930998195 13.7299003322259  L 1.58681791258537 13.7299003322259  L 1.40110450278997 13.8516134720025  C 0.602536840669533 13.9471951239507  0 14.6287338595809  0 15.4391000391412  C 0 16.3221913886621  0.709837921884741 17.0390537782732  1.58681791258537 17.0583610188261  Z " stroke-width="2" stroke="#797979" fill="none" transform="matrix(1 0 0 1 3786 5720 )" mask="url(#clip2094)" />
    <path d="M 4.47569317607007 4.5552588890463  C 3.85664847675169 5.18069535070696  3.85458499442075 6.19676986815568  4.47569317607007 6.82220632981635  L 7.00345903161891 9.3634315544376  L 7.15409324178623 9.49433686036658  C 7.78551883509077 9.98679015409939  8.68107016677092 9.92861001813096  9.2464643254817 9.36135369243872  C 9.86757250713074 8.73799509277693  9.86963598946195 7.72607629932596  9.25059129014384 7.09856197566642  L 6.72076195226352 4.5552588890463  L 6.57219122442714 4.42227572111845  C 5.94076563112287 3.92774456538675  5.04108733478031 3.98592470135518  4.47569317607007 4.5552588890463  Z " stroke-width="2" stroke="#797979" fill="none" transform="matrix(1 0 0 1 3786 5720 )" mask="url(#clip2094)" />
    <path d="M 16.7337209302324 5.24303121067314  L 16.7337209302324 1.64625209062458  L 16.8648410917566 1.45924451072604  C 16.7678574221966 0.653034055163464  16.091035217609 0.0462983514926395  15.2862771084952 0.0462983514926395  C 14.4092971177946 0.0462983514926395  13.6973957135786 0.763160741103713  13.6348837209301 1.64625209062458  L 13.6348837209301 5.24510907267202  L 13.7077131252341 5.43211665257055  C 13.8026333124629 6.23624924613426  14.4794555170508 6.84090708780622  15.2842136261643 6.84090708780622  C 16.1611936168649 6.84090708780622  16.8730950210809 6.12612256019401  16.7337209302324 5.24303121067314  Z " stroke-width="2" stroke="#797979" fill="none" transform="matrix(1 0 0 1 3786 5720 )" mask="url(#clip2094)" />
    <path d="M 15.2862771084952 11.0423440495267  C 17.3834878786976 11.0423440495267  19.133594457291 12.5301044075867  19.5559622636521 14.5147221800336  C 19.5262117696115 14.5661587243692  19.4970629791031 14.617660423054  19.4684839065171 14.6692432099257  C 19.3377982483872 14.9044500843964  19.2176517562357 15.1438570816255  19.1059365968667 15.3916643243714  C 17.8243740139164 14.8771492864668  16.5027626002486 14.7007441306138  15.1790433533858 15.055654503699  C 14.8987015383651 15.1312567133503  14.622575389736 15.232059659552  14.3548805738895 15.3559632809249  C 13.1667646241383 15.8956662941788  12.2191333472171 16.6711337187477  11.5193387870904 17.6585595215278  C 11.1392147467135 17.0071700099856  10.9199484959716 16.2501061647887  10.9199484959716 15.4411779011401  C 10.9199484959716 13.012157224458  12.8740662634856 11.0423440495267  15.2862771084952 11.0423440495267  Z " stroke-width="2" stroke="#797979" fill="none" transform="matrix(1 0 0 1 3786 5720 )" mask="url(#clip2094)" />
    <path d="M 32.0775420828475 20.9106256289155  C 32.1028360811952 21.7842511626638  32.821607200909 22.4793714791798  33.7005736434917 22.4793714791798  C 36.0697781553932 22.4793714791798  37.7560447119068 24.3862272114956  37.7560447119068 26.5198895727653  C 37.7560447119068 28.0130332133783  36.3185024724792 29.4935764857161  34.7081179110086 29.7245832374283  L 34.46571709351 29.7497839739788  L 16.5449192641615 29.7497839739788  L 13.5370412939805 29.7497839739788  L 11.7959710743802 29.7497839739788  C 9.81250003728104 29.5922793705386  8.55201578628703 28.3868441388764  8.55201578628703 26.5198895727653  C 8.55201578628703 24.9007422494002  9.64387338162966 23.7541087363557  12.2660178770083 22.9644856577755  C 12.5147421940943 22.8888834481242  12.733956846441 22.7565795812345  12.9152305012662 22.5843745481399  C 13.1766018175257 22.336567305394  13.3536598059596 22.0068576688592  13.4042478026551 21.6372468661196  C 13.5201786284153 20.7930221916802  13.7625794459142 20.1105022434394  14.1440972543255 19.5602861620883  C 14.5256150627365 19.0100700807373  15.0441420288645 18.5963579890344  15.7144329850784 18.29184908905  C 15.8261481444477 18.2414476159492  15.9252163046429 18.2036465111235  16.0285001312292 18.1763457131939  C 16.6102620932266 18.0188411097537  17.3184940469622 18.1385446083682  18.066774831415 18.4640541221446  C 18.1110393285236 18.4829546745574  18.1574116588278 18.5018552269703  18.201676155936 18.5228558407623  C 18.5009884697173 18.6635599531688  19.2302987554095 19.1024727814222  19.3441217479742 19.1444740090062  C 20.2799996868393 19.4909841365746  20.9271044779012 19.0730719221133  21.3233771186821 18.4871547973158  C 21.3929356141382 18.3842517897349  21.4456314440292 18.2876489662916  21.4941116075291 18.1826458973315  L 21.565777936181 18.0146409869953  C 21.6163659328763 17.8907373656223  21.7913160881145 17.399323002889  21.812394420071 17.3405212842713  L 21.9557270773747 16.9751106042901  C 22.1327850658086 16.5319976532783  22.3583232177423 16.1098853160586  22.6281258667843 15.7150737767686  C 22.6639590311101 15.6625722422885  22.7019000286319 15.6121707691876  22.7398410261534 15.5617692960868  C 23.0876335034343 15.0934556085246  23.4965531433889 14.7007441306138  23.9834626115822 14.392035107871  C 24.8055175578825 13.8712198858288  25.8531106561166 13.5877115996364  27.2105552341102 13.5877115996364  C 27.6890333695207 13.5877115996364  28.8462337939282 14.1148270058163  29.7821117327932 15.0199534602525  C 30.0476987154441 15.2761609485152  30.2922073661387 15.5554691119492  30.5156376848768 15.8557778891751  C 31.4494077905462 17.1158147166966  32.0143070869784 18.7832634517834  32.0775420828475 20.9106256289155  Z " stroke-width="2" stroke="#797979" fill="none" transform="matrix(1 0 0 1 3786 5720 )" mask="url(#clip2094)" />
  </g>
</svg>