<?xml version="1.0" encoding="utf-8"?>
<svg version="1.1" xmlns:xlink="http://www.w3.org/1999/xlink" width="74px" height="98px" xmlns="http://www.w3.org/2000/svg">
  <g transform="matrix(1 0 0 1 -2308 -649 )">
    <path d="M 2345 742.206626260953  C 2331.2 719.550231545202  2310.5 705.956394715751  2310.5 683.3  C 2310.5 671.488571428571  2317.4 651.5  2345 651.5  C 2372.6 651.5  2379.5 671.488571428571  2379.5 683.3  C 2379.5 705.956394715751  2358.8 719.550231545202  2345 742.206626260953  Z " fill-rule="nonzero" fill="#558aa9" stroke="none" />
    <path d="M 2345 747  C 2330.2 722.5  2308 707.8  2308 683.3  C 2308 670.56  2315.4 649  2345 649  C 2374.6 649  2382 670.56  2382 683.3  C 2382 707.8  2359.8 722.5  2345 747  Z M 2345 741.247951513143  C 2358.6 718.960277854242  2379 705.587673658901  2379 683.3  C 2379 671.674285714286  2372.2 652  2345 652  C 2317.8 652  2311 671.674285714286  2311 683.3  C 2311 705.587673658901  2331.4 718.960277854242  2345 741.247951513143  Z " fill-rule="nonzero" fill="#ffffff" stroke="none" />
  </g>
</svg>