<?xml version="1.0" encoding="utf-8"?>
<svg version="1.1" xmlns:xlink="http://www.w3.org/1999/xlink" width="27px" height="27px" xmlns="http://www.w3.org/2000/svg">
  <defs>
    <filter x="1870px" y="461px" width="27px" height="27px" filterUnits="userSpaceOnUse" id="filter2041">
      <feOffset dx="1" dy="1" in="SourceAlpha" result="shadowOffsetInner" />
      <feGaussianBlur stdDeviation="2.5" in="shadowOffsetInner" result="shadowGaussian" />
      <feComposite in2="shadowGaussian" operator="atop" in="SourceAlpha" result="shadowComposite" />
      <feColorMatrix type="matrix" values="0 0 0 0 0  0 0 0 0 0  0 0 0 0 0  0 0 0 0.698039215686274 0  " in="shadowComposite" />
    </filter>
    <g id="widget2042">
      <path d="M 1882.5 466.5  C 1886.42 466.5  1889.5 469.58  1889.5 473.5  C 1889.5 477.42  1886.42 480.5  1882.5 480.5  C 1878.58 480.5  1875.5 477.42  1875.5 473.5  C 1875.5 469.58  1878.58 466.5  1882.5 466.5  Z " fill-rule="nonzero" fill="#8400ff" stroke="none" />
      <path d="M 1882.5 466  C 1886.7 466  1890 469.3  1890 473.5  C 1890 477.7  1886.7 481  1882.5 481  C 1878.3 481  1875 477.7  1875 473.5  C 1875 469.3  1878.3 466  1882.5 466  Z " stroke-width="2" stroke="#ffff00" fill="none" stroke-opacity="0.996078431372549" />
    </g>
  </defs>
  <g transform="matrix(1 0 0 1 -1870 -461 )">
    <use xlink:href="#widget2042" filter="url(#filter2041)" />
    <use xlink:href="#widget2042" />
  </g>
</svg>