<?xml version="1.0" encoding="utf-8"?>
<svg version="1.1" xmlns:xlink="http://www.w3.org/1999/xlink" width="67px" height="90px" xmlns="http://www.w3.org/2000/svg">
  <defs>
    <filter x="2014px" y="930px" width="67px" height="90px" filterUnits="userSpaceOnUse" id="filter2049">
      <feOffset dx="3" dy="3" in="SourceAlpha" result="shadowOffsetInner" />
      <feGaussianBlur stdDeviation="2.5" in="shadowOffsetInner" result="shadowGaussian" />
      <feComposite in2="shadowGaussian" operator="atop" in="SourceAlpha" result="shadowComposite" />
      <feColorMatrix type="matrix" values="0 0 0 0 0.501960784313725  0 0 0 0 1  0 0 0 0 1  0 0 0 0.866666666666667 0  " in="shadowComposite" />
    </filter>
    <g id="widget2050">
      <path d="M 2044.5 1007.0133991818  C 2034.1 988.931322573417  2018.5 978.082076608385  2018.5 960  C 2018.5 950.528571428571  2023.7 934.5  2044.5 934.5  C 2065.3 934.5  2070.5 950.528571428571  2070.5 960  C 2070.5 978.082076608385  2054.9 988.931322573417  2044.5 1007.0133991818  Z " fill-rule="nonzero" fill="#8080ff" stroke="none" fill-opacity="0.996078431372549" />
      <path d="M 2044.5 1012  C 2033.1 992  2016 980  2016 960  C 2016 949.6  2021.7 932  2044.5 932  C 2067.3 932  2073 949.6  2073 960  C 2073 980  2055.9 992  2044.5 1012  Z M 2044.5 1006.01607901816  C 2054.7 988.3175870881  2070 977.698491930063  2070 960  C 2070 950.714285714286  2064.9 935  2044.5 935  C 2024.1 935  2019 950.714285714286  2019 960  C 2019 977.698491930063  2034.3 988.3175870881  2044.5 1006.01607901816  Z " fill-rule="nonzero" fill="#0000ff" stroke="none" />
    </g>
  </defs>
  <g transform="matrix(1 0 0 1 -2014 -930 )">
    <use xlink:href="#widget2050" filter="url(#filter2049)" />
    <use xlink:href="#widget2050" />
  </g>
</svg>