<?xml version="1.0" encoding="utf-8"?>
<svg version="1.1" xmlns:xlink="http://www.w3.org/1999/xlink" width="55px" height="55px" xmlns="http://www.w3.org/2000/svg">
  <g transform="matrix(1 0 0 1 -3379 -268 )">
    <path d="M 41.25 25.5305989583333  C 42.0138888888889 25.9602864583333  42.3958333333333 26.6167534722222  42.3958333333333 27.5  C 42.3958333333333 28.3832465277778  42.0138888888889 29.0397135416667  41.25 29.4694010416667  L 21.7708333333333 40.927734375  C 21.4127604166667 41.142578125  21.0308159722222 41.25  20.625 41.25  C 20.2430555555556 41.25  19.8611111111111 41.1545138888889  19.4791666666667 40.9635416666667  C 18.7152777777778 40.5099826388889  18.3333333333333 39.8415798611111  19 38.9583333333333  L 19 16.0416666666667  C 18.3333333333333 15.1584201388889  18.7152777777778 14.4900173611111  19.4791666666667 14.0364583333333  C 20.2669270833333 13.6067708333333  21.0308159722222 13.6187065972222  21.7708333333333 14.072265625  L 41.25 25.5305989583333  Z M 44.365234375 37.275390625  C 46.1078559027778 34.2914496527778  46.9791666666667 31.0329861111111  46.9791666666667 27.5  C 46.9791666666667 23.9670138888889  46.1078559027778 20.7085503472222  44.365234375 17.724609375  C 42.6226128472222 14.7406684027778  40.2593315972222 12.3773871527778  37.275390625 10.634765625  C 34.2914496527778 8.89214409722222  31.0329861111111 8.02083333333334  27.5 8.02083333333334  C 23.9670138888889 8.02083333333334  20.7085503472222 8.89214409722222  17.724609375 10.634765625  C 14.7406684027778 12.3773871527778  12.3773871527778 14.7406684027778  10.634765625 17.724609375  C 8.89214409722222 20.7085503472222  8.02083333333333 23.9670138888889  8.02083333333333 27.5  C 8.02083333333333 31.0329861111111  8.89214409722222 34.2914496527778  10.634765625 37.275390625  C 12.3773871527778 40.2593315972222  14.7406684027778 42.6226128472222  17.724609375 44.365234375  C 20.7085503472222 46.1078559027778  23.9670138888889 46.9791666666667  27.5 46.9791666666667  C 31.0329861111111 46.9791666666667  34.2914496527778 46.1078559027778  37.275390625 44.365234375  C 40.2593315972222 42.6226128472222  42.6226128472222 40.2593315972222  44.365234375 37.275390625  Z M 51.3118489583333 13.6962890625  C 53.7706163194444 17.9096137152778  55 22.5108506944444  55 27.5  C 55 32.4891493055556  53.7706163194444 37.0903862847222  51.3118489583333 41.3037109375  C 48.8530815972222 45.5170355902778  45.5170355902778 48.8530815972222  41.3037109375 51.3118489583333  C 37.0903862847222 53.7706163194445  32.4891493055556 55  27.5 55  C 22.5108506944444 55  17.9096137152778 53.7706163194445  13.6962890625 51.3118489583333  C 9.48296440972222 48.8530815972222  6.14691840277778 45.5170355902778  3.68815104166667 41.3037109375  C 1.22938368055556 37.0903862847222  0 32.4891493055556  0 27.5  C 0 22.5108506944444  1.22938368055556 17.9096137152778  3.68815104166667 13.6962890625  C 6.14691840277778 9.48296440972222  9.48296440972222 6.14691840277777  13.6962890625 3.68815104166666  C 17.9096137152778 1.22938368055555  22.5108506944444 0  27.5 0  C 32.4891493055556 0  37.0903862847222 1.22938368055555  41.3037109375 3.68815104166666  C 45.5170355902778 6.14691840277777  48.8530815972222 9.48296440972222  51.3118489583333 13.6962890625  Z " fill-rule="nonzero" fill="#333333" stroke="none" transform="matrix(1 0 0 1 3379 268 )" />
  </g>
</svg>