<?xml version="1.0" encoding="utf-8"?>
<svg version="1.1" xmlns:xlink="http://www.w3.org/1999/xlink" width="48px" height="61px" xmlns="http://www.w3.org/2000/svg">
  <defs>
    <filter x="694px" y="205px" width="48px" height="61px" filterUnits="userSpaceOnUse" id="filter1789">
      <feOffset dx="1" dy="1" in="SourceAlpha" result="shadowOffsetInner" />
      <feGaussianBlur stdDeviation="2.5" in="shadowOffsetInner" result="shadowGaussian" />
      <feComposite in2="shadowGaussian" operator="atop" in="SourceAlpha" result="shadowComposite" />
      <feColorMatrix type="matrix" values="0 0 0 0 0  0 0 0 0 0  0 0 0 0 0  0 0 0 0.698039215686274 0  " in="shadowComposite" />
    </filter>
    <g id="widget1790">
      <path d="M 717 259.032647389354  C 709.6 246.654706085757  698.5 239.227941303598  698.5 226.85  C 698.5 220.405714285714  702.2 209.5  717 209.5  C 731.8 209.5  735.5 220.405714285714  735.5 226.85  C 735.5 239.227941303598  724.4 246.654706085757  717 259.032647389354  Z " fill-rule="nonzero" fill="#80ffff" stroke="none" />
      <path d="M 717 260  C 709.4 247.25  698 239.6  698 226.85  C 698 220.22  701.8 209  717 209  C 732.2 209  736 220.22  736 226.85  C 736 239.6  724.6 247.25  717 260  Z M 717 258.065294778709  C 724.2 246.059412171513  735 238.855882607196  735 226.85  C 735 220.591428571429  731.4 210  717 210  C 702.6 210  699 220.591428571429  699 226.85  C 699 238.855882607196  709.8 246.059412171513  717 258.065294778709  Z " fill-rule="nonzero" fill="#ffffff" stroke="none" />
    </g>
  </defs>
  <g transform="matrix(1 0 0 1 -694 -205 )">
    <use xlink:href="#widget1790" filter="url(#filter1789)" />
    <use xlink:href="#widget1790" />
  </g>
</svg>