<?xml version="1.0" encoding="utf-8"?>
<svg version="1.1" xmlns:xlink="http://www.w3.org/1999/xlink" width="20px" height="46px" xmlns="http://www.w3.org/2000/svg">
  <g transform="matrix(1 0 0 1 -698 -721 )">
    <path d="M 19.1428571428571 34.0740740740741  C 19.5064935064935 34.0740740740741  19.7575757575758 34.2426697530864  19.8961038961039 34.5798611111111  C 20.034632034632 34.9170524691358  19.991341991342 35.2276234567901  19.7662337662338 35.5115740740741  L 10.6753246753247 45.7337962962963  C 10.5021645021645 45.9112654320988  10.3030303030303 46  10.0779220779221 46  C 9.83549783549784 46  9.62770562770563 45.9112654320988  9.45454545454546 45.7337962962963  L 0.233766233766234 35.5115740740741  C 0.00865800865800864 35.2276234567901  -0.0346320346320347 34.9170524691358  0.103896103896104 34.5798611111111  C 0.25974025974026 34.2426697530864  0.510822510822511 34.0740740740741  0.857142857142857 34.0740740740741  L 7 34.0740740740741  L 7 0.851851851851851  C 6.67532467532468 0.60339506172839  6.75324675324675 0.399305555555557  6.90909090909091 0.239583333333335  C 7.06493506493507 0.0798611111111134  7.26406926406927 0  7.50649350649351 0  L 12.4935064935065 0  C 12.7359307359307 0  12.9350649350649 0.0798611111111134  13.0909090909091 0.239583333333335  C 13.2467532467532 0.399305555555557  13.3246753246753 0.60339506172839  13 0.851851851851851  L 13 34.0740740740741  L 19.1428571428571 34.0740740740741  Z " fill-rule="nonzero" fill="#000000" stroke="none" transform="matrix(1 0 0 1 698 721 )" />
  </g>
</svg>