<?xml version="1.0" encoding="utf-8"?>
<svg version="1.1" xmlns:xlink="http://www.w3.org/1999/xlink" width="19px" height="44px" xmlns="http://www.w3.org/2000/svg">
  <g transform="matrix(1 0 0 1 -1175 -856 )">
    <path d="M 18.1857142857143 32.5925925925926  C 18.5311688311688 32.5925925925926  18.769696969697 32.7538580246914  18.9012987012987 33.0763888888889  C 19.0329004329004 33.3989197530864  18.9917748917749 33.695987654321  18.7779220779221 33.9675925925926  L 10.1415584415584 43.7453703703704  C 9.97705627705628 43.9151234567901  9.78787878787879 44  9.57402597402597 44  C 9.34372294372294 44  9.14632034632035 43.9151234567901  8.98181818181818 43.7453703703704  L 0.222077922077922 33.9675925925926  C 0.00822510822510821 33.695987654321  -0.0329004329004329 33.3989197530864  0.0987012987012987 33.0763888888889  C 0.246753246753247 32.7538580246914  0.485281385281385 32.5925925925926  0.814285714285714 32.5925925925926  L 6.34155844155844 32.5925925925926  L 6.34155844155844 0.814814814814814  C 6.34155844155844 0.577160493827156  6.41558441558442 0.381944444444446  6.56363636363636 0.229166666666668  C 6.71168831168831 0.0763888888888911  6.9008658008658 0  7.13116883116883 0  L 11.8688311688312 0  C 12.0991341991342 0  12.2883116883117 0.0763888888888911  12.4363636363636 0.229166666666668  C 12.5844155844156 0.381944444444446  12.6584415584416 0.577160493827156  12.6584415584416 0.814814814814814  L 12.6584415584416 32.5925925925926  L 18.1857142857143 32.5925925925926  Z " fill-rule="nonzero" fill="#000000" stroke="none" transform="matrix(1 0 0 1 1175 856 )" />
  </g>
</svg>