<?xml version="1.0" encoding="utf-8"?>
<svg version="1.1" xmlns:xlink="http://www.w3.org/1999/xlink" width="19px" height="44px" xmlns="http://www.w3.org/2000/svg">
  <g transform="matrix(1 0 0 1 -167 -574 )">
    <path d="M 18.7779220779221 10.0324074074074  C 18.9917748917749 10.304012345679  19.0329004329004 10.6010802469136  18.9012987012987 10.9236111111111  C 18.7532467532468 11.2461419753086  18.5147186147186 11.4074074074074  18.1857142857143 11.4074074074074  L 12.6584415584416 11.4074074074074  L 12.6584415584416 43.1851851851852  C 12.6584415584416 43.4228395061728  12.5844155844156 43.6180555555556  12.4363636363636 43.7708333333333  C 12.2883116883117 43.9236111111111  12.0991341991342 44  11.8688311688312 44  L 7.13116883116883 44  C 6.9008658008658 44  6.71168831168831 43.9236111111111  6.56363636363636 43.7708333333333  C 6.41558441558442 43.6180555555556  6.34155844155844 43.4228395061728  6.34155844155844 43.1851851851852  L 6.34155844155844 11.4074074074074  L 0.814285714285714 11.4074074074074  C 0.468831168831169 11.4074074074074  0.23030303030303 11.2461419753086  0.0987012987012987 10.9236111111111  C -0.0329004329004329 10.6010802469136  0.00822510822510821 10.304012345679  0.222077922077922 10.0324074074074  L 8.85844155844156 0.254629629629632  C 9.02294372294372 0.0848765432098757  9.21212121212121 0  9.42597402597403 0  C 9.65627705627706 0  9.85367965367965 0.0848765432098757  10.0181818181818 0.254629629629632  L 18.7779220779221 10.0324074074074  Z " fill-rule="nonzero" fill="#000000" stroke="none" transform="matrix(1 0 0 1 167 574 )" />
  </g>
</svg>