<?xml version="1.0" encoding="utf-8"?>
<svg version="1.1" xmlns:xlink="http://www.w3.org/1999/xlink" width="168px" height="141px" xmlns="http://www.w3.org/2000/svg">
  <g transform="matrix(1 0 0 1 -250 -240 )">
    <path d="M 60.7788461538462 119.169034090909  C 63.3365384615385 121.705965909091  64.6153846153846 124.710227272727  64.6153846153846 128.181818181818  C 64.6153846153846 131.653409090909  63.3365384615385 134.657670454545  60.7788461538462 137.194602272727  C 58.2211538461539 139.731534090909  55.1923076923077 141  51.6923076923077 141  C 48.1923076923077 141  45.1634615384615 139.731534090909  42.6057692307692 137.194602272727  C 40.0480769230769 134.657670454545  38.7692307692308 131.653409090909  38.7692307692308 128.181818181818  C 38.7692307692308 124.710227272727  40.0480769230769 121.705965909091  42.6057692307692 119.169034090909  C 45.1634615384615 116.632102272727  48.1923076923077 115.363636363636  51.6923076923077 115.363636363636  C 55.1923076923077 115.363636363636  58.2211538461539 116.632102272727  60.7788461538462 119.169034090909  Z M 151.240384615385 119.169034090909  C 153.798076923077 121.705965909091  155.076923076923 124.710227272727  155.076923076923 128.181818181818  C 155.076923076923 131.653409090909  153.798076923077 134.657670454545  151.240384615385 137.194602272727  C 148.682692307692 139.731534090909  145.653846153846 141  142.153846153846 141  C 138.653846153846 141  135.625 139.731534090909  133.067307692308 137.194602272727  C 130.509615384615 134.657670454545  129.230769230769 131.653409090909  129.230769230769 128.181818181818  C 129.230769230769 124.710227272727  130.509615384615 121.705965909091  133.067307692308 119.169034090909  C 135.625 116.632102272727  138.653846153846 115.363636363636  142.153846153846 115.363636363636  C 145.653846153846 115.363636363636  148.682692307692 116.632102272727  151.240384615385 119.169034090909  Z M 166.081730769231 14.7208806818182  C 167.360576923077 15.9893465909091  168 17.4914772727273  168 19.2272727272727  L 168 70.5  C 168 72.1022727272727  167.444711538462 73.5209517045455  166.334134615385 74.7560369318182  C 165.223557692308 75.9911221590909  163.860576923077 76.7088068181818  162.245192307692 76.9090909090909  L 56.8413461538462 89.1264204545455  C 57.7163461538462 93.1321022727273  58.1538461538462 95.46875  58.1538461538462 96.1363636363636  C 58.1538461538462 97.2045454545454  57.3461538461538 99.3409090909091  55.7307692307692 102  L 148.615384615385 102  C 150.365384615385 102.545454545455  151.879807692308 103.1796875  153.158653846154 104.448153409091  C 154.4375 105.716619318182  155.076923076923 107.21875  155.076923076923 108.954545454545  C 155.076923076923 110.690340909091  154.4375 112.192471590909  153.158653846154 113.4609375  C 151.879807692308 114.729403409091  150.365384615385 115.363636363636  148.615384615385 115  L 45.2307692307692 115  C 43.4807692307692 115.363636363636  41.9663461538462 114.729403409091  40.6875 113.4609375  C 39.4086538461538 112.192471590909  38.7692307692308 110.690340909091  38.7692307692308 108.954545454545  C 38.7692307692308 108.220170454545  39.0384615384615 107.168678977273  39.5769230769231 105.800071022727  C 40.1153846153846 104.431463068182  40.6538461538462 103.229758522727  41.1923076923077 102.194957386364  C 41.7307692307692 101.16015625  42.4543269230769 99.8249289772727  43.3629807692308 98.1892755681818  C 44.2716346153846 96.5536221590909  44.7932692307692 95.5688920454545  44.9278846153846 95.2350852272727  L 27.0576923076923 13  L 6.46153846153846 13  C 4.71153846153846 12.8181818181818  3.19711538461539 12.1839488636363  1.91826923076923 10.9154829545455  C 0.639423076923077 9.64701704545454  0 8.14488636363636  0 6.4090909090909  C 0 4.67329545454545  0.639423076923077 3.17116477272725  1.91826923076923 1.90269886363637  C 3.19711538461539 0.634232954545441  4.71153846153846 0  6.46153846153846 0  L 32.3076923076923 0  C 33.3846153846154 0  34.34375 0.216974431818172  35.1850961538462 0.650923295454548  C 36.0264423076923 1.08487215909091  36.6826923076923 1.60227272727273  37.1538461538462 2.203125  C 37.625 2.80397727272727  38.0625 3.6218039772727  38.4663461538462 4.65660511363637  C 38.8701923076923 5.69140624999999  39.1394230769231 6.55930397727273  39.2740384615385 7.26029829545455  C 39.4086538461539 7.96129261363637  39.59375 8.94602272727272  39.8293269230769 10.2144886363636  C 40.0649038461539 11.4829545454545  40.2163461538462 12.3508522727273  40.2836538461538 13  L 161.538461538462 13  C 163.288461538462 12.8181818181818  164.802884615385 13.4524147727273  166.081730769231 14.7208806818182  Z " fill-rule="nonzero" fill="#333333" stroke="none" transform="matrix(1 0 0 1 250 240 )" />
  </g>
</svg>