<?xml version="1.0" encoding="utf-8"?>
<svg version="1.1" xmlns:xlink="http://www.w3.org/1999/xlink" width="44px" height="19px" xmlns="http://www.w3.org/2000/svg">
  <g transform="matrix(1 0 0 1 -659 -938 )">
    <path d="M 43.7708333333333 6.54746423927178  C 43.9236111111111 6.69570871261378  44 6.88513220632856  44 7.11573472041612  L 44 11.8595578673602  C 44 12.0901603814478  43.9236111111111 12.2795838751625  43.7708333333333 12.4278283485046  C 43.6180555555556 12.5760728218466  43.4228395061728 12.6501950585176  43.1851851851852 12.6501950585176  L 11.4074074074074 12.6501950585176  L 11.4074074074074 18.184655396619  C 11.4074074074074 18.5305591677503  11.2461419753086 18.7693974859124  10.9236111111111 18.9011703511053  C 10.6010802469136 19.0329432162982  10.304012345679 18.9917641959254  10.0324074074074 18.777633289987  L 0.25462962962963 10.1300390117035  C 0.0848765432098768 9.96532293021239  0 9.77589943649761  0 9.56176853055917  C 0 9.33116601647161  0.0848765432098768 9.13350671868227  0.25462962962963 8.96879063719116  L 10.0324074074074 0.222366710013004  C 10.304012345679 -0.00823580407456048  10.6010802469136 -0.0576506285218938  10.9236111111111 0.0741222366710022  C 11.2461419753086 0.222366710013004  11.4074074074074 0.461205028175119  11.4074074074074 0.790637191157346  L 11.4074074074074 6.32509752925878  L 43.1851851851852 6.32509752925878  C 43.4228395061728 6.32509752925878  43.6180555555556 6.39921976592978  43.7708333333333 6.54746423927178  Z " fill-rule="nonzero" fill="#000000" stroke="none" transform="matrix(1 0 0 1 659 938 )" />
  </g>
</svg>