<?xml version="1.0" encoding="utf-8"?>
<svg version="1.1" xmlns:xlink="http://www.w3.org/1999/xlink" width="44px" height="19px" xmlns="http://www.w3.org/2000/svg">
  <g transform="matrix(1 0 0 1 -195 -184 )">
    <path d="M 43.7453703703704 8.86996098829649  C 43.9151234567901 9.0346770697876  44 9.22410056350238  44 9.43823146944083  C 44 9.66883398352839  43.9151234567901 9.86649328131773  43.7453703703704 10.0312093628088  L 33.9675925925926 18.777633289987  C 33.695987654321 19.0082358040746  33.3989197530864 19.0576506285219  33.0763888888889 18.925877763329  C 32.7538580246914 18.777633289987  32.5925925925926 18.5387949718249  32.5925925925926 18.2093628088427  L 32.5925925925926 12.6749024707412  L 0.814814814814815 12.6749024707412  C 0.577160493827161 12.6749024707412  0.381944444444444 12.6007802340702  0.229166666666667 12.4525357607282  C 0.0763888888888889 12.3042912873862  0 12.1148677936714  0 11.8842652795839  L 0 7.14044213263979  C 0 6.90983961855223  0.0763888888888889 6.72041612483745  0.229166666666667 6.57217165149545  C 0.381944444444444 6.42392717815345  0.577160493827161 6.34980494148244  0.814814814814815 6.34980494148244  L 32.5925925925926 6.34980494148244  L 32.5925925925926 0.815344603381015  C 32.5925925925926 0.469440832249675  32.7538580246914 0.230602514087558  33.0763888888889 0.0988296488946688  C 33.3989197530864 -0.0329432162982251  33.695987654321 0.00823580407455415  33.9675925925926 0.222366710013004  L 43.7453703703704 8.86996098829649  Z " fill-rule="nonzero" fill="#000000" stroke="none" transform="matrix(1 0 0 1 195 184 )" />
  </g>
</svg>