<?xml version="1.0" encoding="utf-8"?>
<svg version="1.1" xmlns:xlink="http://www.w3.org/1999/xlink" width="38px" height="16px" xmlns="http://www.w3.org/2000/svg">
  <g transform="matrix(1 0 0 1 -290 -426 )">
    <path d="M 37.7800925925926 7.46944083224967  C 37.9266975308642 7.60814911140009  38 7.76766363242306  38 7.9479843953186  C 38 8.14217598612917  37.9266975308642 8.30862592110966  37.7800925925926 8.44733420026008  L 29.3356481481481 15.8127438231469  C 29.1010802469136 16.0069354139575  28.8445216049383 16.0485478977026  28.5659722222222 15.9375812743823  C 28.2874228395062 15.8127438231469  28.1481481481481 15.6116168183788  28.1481481481481 15.334200260078  L 28.1481481481481 10.6736020806242  L 0.703703703703704 10.6736020806242  C 0.498456790123457 10.6736020806242  0.329861111111111 10.6111833550065  0.197916666666667 10.4863459037711  C 0.0659722222222222 10.3615084525358  0 10.2019939315128  0 10.0078023407022  L 0 6.01300390117035  C 0 5.81881231035977  0.0659722222222222 5.6592977893368  0.197916666666667 5.53446033810143  C 0.329861111111111 5.40962288686606  0.498456790123457 5.34720416124837  0.703703703703704 5.34720416124837  L 28.1481481481481 5.34720416124837  L 28.1481481481481 0.686605981794539  C 28.1481481481481 0.395318595578674  28.2874228395062 0.194191590810576  28.5659722222222 0.0832249674902474  C 28.8445216049383 -0.0277416558300843  29.1010802469136 0.00693541395751929  29.3356481481481 0.187256176853056  L 37.7800925925926 7.46944083224967  Z " fill-rule="nonzero" fill="#000000" stroke="none" transform="matrix(1 0 0 1 290 426 )" />
  </g>
</svg>