<?xml version="1.0" encoding="utf-8"?>
<svg version="1.1" xmlns:xlink="http://www.w3.org/1999/xlink" width="16px" height="38px" xmlns="http://www.w3.org/2000/svg">
  <g transform="matrix(1 0 0 1 -266 -642 )">
    <path d="M 15.812987012987 8.66435185185185  C 15.9930735930736 8.89891975308642  16.0277056277056 9.15547839506173  15.9168831168831 9.43402777777778  C 15.7922077922078 9.71257716049382  15.591341991342 9.85185185185185  15.3142857142857 9.85185185185185  L 10.6597402597403 9.85185185185185  L 10.6597402597403 37.2962962962963  C 10.6597402597403 37.5015432098765  10.5974025974026 37.6701388888889  10.4727272727273 37.8020833333333  C 10.3480519480519 37.9340277777778  10.1887445887446 38  9.9948051948052 38  L 6.00519480519481 38  C 5.81125541125541 38  5.65194805194805 37.9340277777778  5.52727272727273 37.8020833333333  C 5.4025974025974 37.6701388888889  5.34025974025974 37.5015432098765  5.34025974025974 37.2962962962963  L 5.34025974025974 9.85185185185185  L 0.685714285714286 9.85185185185185  C 0.394805194805195 9.85185185185185  0.193939393939394 9.71257716049382  0.0831168831168831 9.43402777777778  C -0.0277056277056277 9.15547839506173  0.00692640692640691 8.89891975308642  0.187012987012987 8.66435185185185  L 7.45974025974026 0.219907407407409  C 7.5982683982684 0.0733024691358017  7.75757575757576 0  7.93766233766234 0  C 8.13160173160173 0  8.2978354978355 0.0733024691358017  8.43636363636364 0.219907407407409  L 15.812987012987 8.66435185185185  Z " fill-rule="nonzero" fill="#000000" stroke="none" transform="matrix(1 0 0 1 266 642 )" />
  </g>
</svg>