<?xml version="1.0" encoding="utf-8"?>
<svg version="1.1" xmlns:xlink="http://www.w3.org/1999/xlink" width="38px" height="16px" xmlns="http://www.w3.org/2000/svg">
  <g transform="matrix(1 0 0 1 -690 -861 )">
    <path d="M 37.8020833333333 5.51365409622887  C 37.9340277777778 5.63849154746424  38 5.79800606848721  38 5.99219765929779  L 38 9.98699609882965  C 38 10.1811876896402  37.9340277777778 10.3407022106632  37.8020833333333 10.4655396618986  C 37.6701388888889 10.5903771131339  37.5015432098765 10.6527958387516  37.2962962962963 10.6527958387516  L 9.85185185185185 10.6527958387516  L 9.85185185185185 15.3133940182055  C 9.85185185185185 15.6046814044213  9.71257716049383 15.8058084091894  9.43402777777778 15.9167750325098  C 9.15547839506173 16.0277416558301  8.89891975308642 15.9930645860425  8.66435185185185 15.8127438231469  L 0.219907407407407 8.53055916775033  C 0.0733024691358027 8.39185088859991  0 8.23233636757694  0 8.0520156046814  C 0 7.85782401387083  0.0733024691358027 7.69137407889033  0.219907407407407 7.55266579973992  L 8.66435185185185 0.187256176853056  C 8.89891975308642 -0.00693541395752462  9.15547839506173 -0.0485478977026474  9.43402777777778 0.062418725617686  C 9.71257716049383 0.187256176853056  9.85185185185185 0.388383181621153  9.85185185185185 0.665799739921976  L 9.85185185185185 5.32639791937581  L 37.2962962962963 5.32639791937581  C 37.5015432098765 5.32639791937581  37.6701388888889 5.3888166449935  37.8020833333333 5.51365409622887  Z " fill-rule="nonzero" fill="#000000" stroke="none" transform="matrix(1 0 0 1 690 861 )" />
  </g>
</svg>