<?xml version="1.0" encoding="utf-8"?>
<svg version="1.1" xmlns:xlink="http://www.w3.org/1999/xlink" width="96px" height="96px" xmlns="http://www.w3.org/2000/svg">
  <g transform="matrix(1 0 0 1 -159 -224 )">
    <path d="M 55.4375 24.5625  C 55.8125 24.9375  56 25.4166666666666  56 26  L 56 54  C 56 54.5833333333333  55.8125 55.0625  55.4375 55.4375  C 55.0625 55.8125  54.5833333333334 56  54 56  L 34 56  C 33.4166666666667 56  32.9375 55.8125  32.5625 55.4375  C 32.1875 55.0625  32 54.5833333333333  32 54  L 32 50  C 32 49.4166666666667  32.1875 48.9375  32.5625 48.5625  C 32.9375 48.1875  33.4166666666667 48  34 48  L 48 48  L 48 26  C 48 25.4166666666666  48.1875 24.9375  48.5625 24.5625  C 48.9375 24.1875  49.4166666666667 24  50 24  L 54 24  C 54.5833333333334 24  55.0625 24.1875  55.4375 24.5625  Z M 77.4375 65.0625  C 80.4791666666667 59.8541666666666  82 54.1666666666667  82 48  C 82 41.8333333333333  80.4791666666667 36.1458333333333  77.4375 30.9375  C 74.3958333333334 25.7291666666666  70.2708333333334 21.6041666666666  65.0625 18.5625  C 59.8541666666667 15.5208333333333  54.1666666666667 14  48 14  C 41.8333333333333 14  36.1458333333333 15.5208333333333  30.9375 18.5625  C 25.7291666666667 21.6041666666666  21.6041666666667 25.7291666666666  18.5625 30.9375  C 15.5208333333333 36.1458333333333  14 41.8333333333333  14 48  C 14 54.1666666666667  15.5208333333333 59.8541666666666  18.5625 65.0625  C 21.6041666666667 70.2708333333333  25.7291666666667 74.3958333333333  30.9375 77.4375  C 34.0823086211493 79.2740682347512  37.4018110450997 80.5561735301768  40.8960072718513 81.2838158862769  C 43.1887891647245 81.7612719620923  45.556786740774 82  48 82  C 54.1666666666667 82  59.8541666666667 80.4791666666667  65.0625 77.4375  C 70.2708333333334 74.3958333333333  74.3958333333334 70.2708333333333  77.4375 65.0625  Z M 89.5625 23.90625  C 93.8541666666666 31.2604166666666  96 39.2916666666666  96 48  C 96 56.7083333333333  93.8541666666666 64.7395833333333  89.5625 72.09375  C 85.2708333333334 79.4479166666667  79.4479166666667 85.2708333333333  72.09375 89.5625  C 64.7395833333334 93.8541666666667  56.7083333333333 96  48 96  C 39.2916666666667 96  31.2604166666667 93.8541666666667  23.90625 89.5625  C 16.5520833333333 85.2708333333333  10.7291666666667 79.4479166666667  6.4375 72.09375  C 2.14583333333331 64.7395833333333  0 56.7083333333333  0 48  C 0 39.2916666666666  2.14583333333331 31.2604166666666  6.4375 23.90625  C 10.7291666666667 16.5520833333333  16.5520833333333 10.7291666666666  23.90625 6.4375  C 31.2604166666667 2.14583333333331  39.2916666666667 0  48 0  C 56.7083333333333 0  64.7395833333334 2.14583333333331  72.09375 6.4375  C 79.4479166666667 10.7291666666666  85.2708333333334 16.5520833333333  89.5625 23.90625  Z " fill-rule="nonzero" fill="#555555" stroke="none" transform="matrix(1 0 0 1 159 224 )" />
  </g>
</svg>