<?xml version="1.0" encoding="utf-8"?>
<svg version="1.1" xmlns:xlink="http://www.w3.org/1999/xlink" width="31px" height="14px" xmlns="http://www.w3.org/2000/svg">
  <g transform="matrix(1 0 0 1 -865 -907 )">
    <path d="M 30.8385416666667 4.82444733420026  C 30.9461805555556 4.93368010403121  31 5.07325530992631  31 5.24317295188557  L 31 8.73862158647594  C 31 8.9085392284352  30.9461805555556 9.0481144343303  30.8385416666667 9.15734720416125  C 30.7309027777778 9.2665799739922  30.5933641975309 9.32119635890767  30.4259259259259 9.32119635890767  L 8.03703703703704 9.32119635890767  L 8.03703703703704 13.3992197659298  C 8.03703703703704 13.6540962288687  7.92341820987654 13.8300823580407  7.69618055555556 13.927178153446  C 7.46894290123457 14.0242739488513  7.2596450617284 13.9939315127872  7.06828703703704 13.8361508452536  L 0.179398148148148 7.46423927178154  C 0.0597993827160496 7.34286952752492  0 7.20329432162982  0 7.04551365409623  C 0 6.87559601213697  0.0597993827160496 6.72995231902904  0.179398148148148 6.60858257477243  L 7.06828703703704 0.163849154746424  C 7.2596450617284 -0.00606848721283404  7.46894290123457 -0.0424794104898165  7.69618055555556 0.0546163849154753  C 7.92341820987654 0.163849154746424  8.03703703703704 0.339835283918509  8.03703703703704 0.582574772431729  L 8.03703703703704 4.66059817945384  L 30.4259259259259 4.66059817945384  C 30.5933641975309 4.66059817945384  30.7309027777778 4.71521456436931  30.8385416666667 4.82444733420026  Z " fill-rule="nonzero" fill="#000000" stroke="none" transform="matrix(1 0 0 1 865 907 )" />
  </g>
</svg>