<?xml version="1.0" encoding="utf-8"?>
<svg version="1.1" xmlns:xlink="http://www.w3.org/1999/xlink" width="23px" height="10px" xmlns="http://www.w3.org/2000/svg">
  <g transform="matrix(1 0 0 1 -776 -227 )">
    <path d="M 22.8668981481481 4.66840052015605  C 22.9556327160494 4.75509319462505  23 4.85478977026441  23 4.96749024707412  C 23 5.08885999133073  22.9556327160494 5.19289120069354  22.8668981481481 5.27958387516255  L 17.755787037037 9.88296488946684  C 17.6138117283951 10.0043346337234  17.4585262345679 10.0303424360642  17.2899305555556 9.96098829648895  C 17.1213348765432 9.88296488946684  17.037037037037 9.75726051148678  17.037037037037 9.58387516254876  L 17.037037037037 6.67100130039012  L 0.425925925925926 6.67100130039012  C 0.301697530864198 6.67100130039012  0.199652777777778 6.63198959687906  0.119791666666667 6.55396618985696  C 0.0399305555555556 6.47594278283485  0 6.37624620719549  0 6.25487646293888  L 0 3.75812743823147  C 0 3.63675769397486  0.0399305555555556 3.5370611183355  0.119791666666667 3.45903771131339  C 0.199652777777778 3.38101430429129  0.301697530864198 3.34200260078023  0.425925925925926 3.34200260078023  L 17.037037037037 3.34200260078023  L 17.037037037037 0.429128738621587  C 17.037037037037 0.247074122236671  17.1213348765432 0.12136974425661  17.2899305555556 0.0520156046814046  C 17.4585262345679 -0.0173385348938027  17.6138117283951 0.00433463372344955  17.755787037037 0.11703511053316  L 22.8668981481481 4.66840052015605  Z " fill-rule="nonzero" fill="#000000" stroke="none" transform="matrix(1 0 0 1 776 227 )" />
  </g>
</svg>