<?xml version="1.0" encoding="utf-8"?>
<svg version="1.1" xmlns:xlink="http://www.w3.org/1999/xlink" width="10px" height="23px" xmlns="http://www.w3.org/2000/svg">
  <g transform="matrix(1 0 0 1 -806 -288 )">
    <path d="M 9.57142857142857 17.037037037037  C 9.75324675324675 17.037037037037  9.87878787878788 17.1213348765432  9.94805194805195 17.2899305555556  C 10.017316017316 17.4585262345679  9.995670995671 17.6138117283951  9.88311688311688 17.755787037037  L 5.33766233766234 22.8668981481481  C 5.25108225108225 22.9556327160494  5.15151515151515 23  5.03896103896104 23  C 4.91774891774892 23  4.81385281385281 22.9556327160494  4.72727272727273 22.8668981481481  L 0.116883116883117 17.755787037037  C 0.00432900432900432 17.6138117283951  -0.0173160173160173 17.4585262345679  0.051948051948052 17.2899305555556  C 0.12987012987013 17.1213348765432  0.255411255411255 17.037037037037  0.428571428571429 17.037037037037  L 3.33766233766234 17.037037037037  L 3.33766233766234 0.425925925925925  C 3.33766233766234 0.301697530864195  3.37662337662338 0.199652777777778  3.45454545454545 0.119791666666668  C 3.53246753246753 0.0399305555555567  3.63203463203463 0  3.75324675324675 0  L 6.24675324675325 0  C 6.36796536796537 0  6.46753246753247 0.0399305555555567  6.54545454545455 0.119791666666668  C 6.62337662337662 0.199652777777778  6.66233766233766 0.301697530864195  6.66233766233766 0.425925925925925  L 6.66233766233766 17.037037037037  L 9.57142857142857 17.037037037037  Z " fill-rule="nonzero" fill="#000000" stroke="none" transform="matrix(1 0 0 1 806 288 )" />
  </g>
</svg>