<?xml version="1.0" encoding="utf-8"?>
<svg version="1.1" xmlns:xlink="http://www.w3.org/1999/xlink" width="135px" height="216px" xmlns="http://www.w3.org/2000/svg">
  <g transform="matrix(1 0 0 1 -1546 -176 )">
    <path d="M 1613 176.5  C 1627.728 176.5  1639.3 188.072  1639.3 202.8  C 1639.3 217.528  1627.728 229.1  1613 229.1  C 1598.272 229.1  1586.7 217.528  1586.7 202.8  C 1586.7 188.072  1598.272 176.5  1613 176.5  Z " fill-rule="nonzero" fill="#ffffff" stroke="none" />
    <path d="M 1613 176.5  C 1627.728 176.5  1639.3 188.072  1639.3 202.8  C 1639.3 217.528  1627.728 229.1  1613 229.1  C 1598.272 229.1  1586.7 217.528  1586.7 202.8  C 1586.7 188.072  1598.272 176.5  1613 176.5  Z " stroke-width="1" stroke="#000000" fill="none" />
    <path d="M 1546 256.4  L 1680 256.4  M 1613 229.6  L 1613 324  M 1559.4 391  L 1613 324  M 1613 324  L 1666.6 391  " stroke-width="1" stroke="#000000" fill="none" />
  </g>
</svg>