<?xml version="1.0" encoding="utf-8"?>
<svg version="1.1" xmlns:xlink="http://www.w3.org/1999/xlink" width="124px" height="124px" xmlns="http://www.w3.org/2000/svg">
  <g transform="matrix(1 0 0 1 -260 -300 )">
    <path d="M 71.6067708333333 31.7265625  C 72.0911458333333 32.2109375  72.3333333333333 32.8298611111111  72 33.5833333333333  L 72 69.75  C 72.3333333333333 70.5034722222222  72.0911458333333 71.1223958333333  71.6067708333333 71.6067708333333  C 71.1223958333333 72.0911458333333  70.5034722222222 72.3333333333333  69.75 72  L 43.9166666666667 72  C 43.1631944444445 72.3333333333333  42.5442708333333 72.0911458333333  42.0598958333333 71.6067708333333  C 41.5755208333333 71.1223958333333  41.3333333333333 70.5034722222222  41.3333333333333 69.75  L 41.3333333333333 64.5833333333333  C 41.3333333333333 63.8298611111111  41.5755208333333 63.2109375  42.0598958333333 62.7265625  C 42.5442708333333 62.2421875  43.1631944444445 62  43.9166666666667 62  L 62 62  L 62 33.5833333333333  C 62 32.8298611111111  62.2421875 32.2109375  62.7265625 31.7265625  C 63.2109375 31.2421875  63.8298611111111 31  64.5833333333333 31  L 69.75 31  C 70.5034722222222 31  71.1223958333333 31.2421875  71.6067708333333 31.7265625  Z M 100.0234375 84.0390625  C 103.952256944444 77.3116319444444  105.916666666667 69.9652777777778  105.916666666667 62  C 105.916666666667 54.0347222222222  103.952256944444 46.6883680555556  100.0234375 39.9609375  C 96.0946180555556 33.2335069444444  90.7664930555556 27.9053819444444  84.0390625 23.9765625  C 77.3116319444444 20.0477430555556  69.9652777777778 18.0833333333333  62 18.0833333333333  C 54.0347222222222 18.0833333333333  46.6883680555556 20.0477430555556  39.9609375 23.9765625  C 33.2335069444444 27.9053819444444  27.9053819444444 33.2335069444444  23.9765625 39.9609375  C 20.0477430555556 46.6883680555556  18.0833333333333 54.0347222222222  18.0833333333333 62  C 18.0833333333333 69.9652777777778  20.0477430555556 77.3116319444444  23.9765625 84.0390625  C 27.9053819444444 90.7664930555555  33.2335069444444 96.0946180555556  39.9609375 100.0234375  C 46.6883680555556 103.952256944444  54.0347222222222 105.916666666667  62 105.916666666667  C 69.9652777777778 105.916666666667  77.3116319444444 103.952256944444  84.0390625 100.0234375  C 90.7664930555556 96.0946180555556  96.0946180555556 90.7664930555555  100.0234375 84.0390625  Z M 115.684895833333 30.87890625  C 121.228298611111 40.3780381944444  124 50.7517361111111  124 62  C 124 73.2482638888889  121.228298611111 83.6219618055555  115.684895833333 93.12109375  C 110.141493055556 102.620225694444  102.620225694444 110.141493055556  93.12109375 115.684895833333  C 83.6219618055556 121.228298611111  73.2482638888889 124  62 124  C 50.7517361111111 124  40.3780381944444 121.228298611111  30.87890625 115.684895833333  C 21.3797743055556 110.141493055556  13.8585069444444 102.620225694444  8.31510416666667 93.12109375  C 2.77170138888889 83.6219618055555  0 73.2482638888889  0 62  C 0 50.7517361111111  2.77170138888889 40.3780381944444  8.31510416666667 30.87890625  C 13.8585069444444 21.3797743055556  21.3797743055556 13.8585069444444  30.87890625 8.31510416666666  C 40.3780381944444 2.77170138888888  50.7517361111111 0  62 0  C 73.2482638888889 0  83.6219618055556 2.77170138888888  93.12109375 8.31510416666666  C 102.620225694444 13.8585069444444  110.141493055556 21.3797743055556  115.684895833333 30.87890625  Z " fill-rule="nonzero" fill="#555555" stroke="none" transform="matrix(1 0 0 1 260 300 )" />
  </g>
</svg>