<?xml version="1.0" encoding="utf-8"?>
<svg version="1.1" xmlns:xlink="http://www.w3.org/1999/xlink" width="39px" height="17px" xmlns="http://www.w3.org/2000/svg">
  <g transform="matrix(1 0 0 1 -1041 -846 )">
    <path d="M 38.796875 5.85825747724317  C 38.9322916666667 5.99089726918075  39 6.16038144776766  39 6.3667100130039  L 39 10.6111833550065  C 39 10.8175119202427  38.9322916666667 10.9869960988296  38.796875 11.1196358907672  C 38.6614583333333 11.2522756827048  38.4884259259259 11.3185955786736  38.2777777777778 11  L 10.1111111111111 11  L 10.1111111111111 16.2704811443433  C 10.1111111111111 16.5799739921977  9.9681712962963 16.7936714347638  9.68229166666667 16.9115734720416  C 9.39641203703704 17.0294755093195  9.13310185185185 16.9926311226701  8.89236111111111 16.8010403120936  L 0.225694444444444 9.06371911573472  C 0.0752314814814817 8.91634156913741  0 8.7468573905505  0 8.55526657997399  C 0 8.34893801473775  0.0752314814814817 8.17208495882098  0.225694444444444 8.02470741222367  L 8.89236111111111 0.198959687906372  C 9.13310185185185 -0.00736887732986991  9.39641203703704 -0.0515821413090629  9.68229166666667 0.0663198959687914  C 9.9681712962963 0.198959687906372  10.1111111111111 0.412657130472475  10.1111111111111 0.707412223667099  L 10.1111111111111 5.6592977893368  L 38.2777777777778 5.6592977893368  C 38.4884259259259 5.6592977893368  38.6614583333333 5.72561768530559  38.796875 5.85825747724317  Z " fill-rule="nonzero" fill="#000000" stroke="none" transform="matrix(1 0 0 1 1041 846 )" />
  </g>
</svg>