<?xml version="1.0" encoding="utf-8"?>
<svg version="1.1" xmlns:xlink="http://www.w3.org/1999/xlink" width="45px" height="20px" xmlns="http://www.w3.org/2000/svg">
  <g transform="matrix(1 0 0 1 -1545 -690 )">
    <path d="M 44.765625 6.89206762028609  C 44.921875 7.0481144343303  45 7.24750758560901  45 7.49024707412224  L 45 12.4837451235371  C 45 12.7264846120503  44.921875 12.925877763329  44.765625 13.0819245773732  C 44.609375 13.2379713914174  44.4097222222222 13.3159947984395  44.1666666666667 13  L 11.6666666666667 13  L 11.6666666666667 19.1417425227568  C 11.6666666666667 19.5058517555267  11.5017361111111 19.7572605114868  11.171875 19.8959687906372  C 10.8420138888889 20.0346770697876  10.5381944444444 19.9913307325531  10.2604166666667 19.7659297789337  L 0.260416666666667 10.6631989596879  C 0.0868055555555558 10.4898136107499  0 10.2904204594712  0 10.0650195058518  C 0 9.82228001733853  0.0868055555555558 9.61421759861292  0.260416666666667 9.4408322496749  L 10.2604166666667 0.23407022106632  C 10.5381944444444 -0.00866926744690577  10.8420138888889 -0.0606848721283093  11.171875 0.0780234070221075  C 11.5017361111111 0.23407022106632  11.6666666666667 0.485478977026441  11.6666666666667 0.83224967490247  L 11.6666666666667 7  L 44.1666666666667 7  C 44.4097222222222 6.65799739921977  44.609375 6.73602080624187  44.765625 6.89206762028609  Z " fill-rule="nonzero" fill="#000000" stroke="none" transform="matrix(1 0 0 1 1545 690 )" />
  </g>
</svg>