<?xml version="1.0" encoding="utf-8"?>
<svg version="1.1" xmlns:xlink="http://www.w3.org/1999/xlink" width="142px" height="119px" xmlns="http://www.w3.org/2000/svg">
  <g transform="matrix(1 0 0 1 -880 -606 )">
    <path d="M 51.3725961538462 100.575284090909  C 53.5344551282051 102.716382575758  54.6153846153846 105.251893939394  54.6153846153846 108.181818181818  C 54.6153846153846 111.111742424242  53.5344551282051 113.647253787879  51.3725961538462 115.788352272727  C 49.2107371794872 117.929450757576  46.650641025641 119  43.6923076923077 119  C 40.7339743589744 119  38.1738782051282 117.929450757576  36.0120192307692 115.788352272727  C 33.8501602564103 113.647253787879  32.7692307692308 111.111742424242  32.7692307692308 108.181818181818  C 32.7692307692308 105.251893939394  33.8501602564103 102.716382575758  36.0120192307692 100.575284090909  C 38.1738782051282 98.4341856060606  40.7339743589744 97.3636363636364  43.6923076923077 97.3636363636364  C 46.650641025641 97.3636363636364  49.2107371794872 98.4341856060606  51.3725961538462 100.575284090909  Z M 127.834134615385 100.575284090909  C 129.995993589744 102.716382575758  131.076923076923 105.251893939394  131.076923076923 108.181818181818  C 131.076923076923 111.111742424242  129.995993589744 113.647253787879  127.834134615385 115.788352272727  C 125.672275641026 117.929450757576  123.112179487179 119  120.153846153846 119  C 117.195512820513 119  114.635416666667 117.929450757576  112.473557692308 115.788352272727  C 110.311698717949 113.647253787879  109.230769230769 111.111742424242  109.230769230769 108.181818181818  C 109.230769230769 105.251893939394  110.311698717949 102.716382575758  112.473557692308 100.575284090909  C 114.635416666667 98.4341856060606  117.195512820513 97.3636363636364  120.153846153846 97.3636363636364  C 123.112179487179 97.3636363636364  125.672275641026 98.4341856060606  127.834134615385 100.575284090909  Z M 140.378605769231 12.4240056818182  C 141.45953525641 13.4945549242424  142 14.7623106060606  142 16.2272727272727  L 142 59.5  C 142 60.8522727272727  141.530649038462 62.0495975378788  140.591947115385 63.0919744318182  C 139.653245192308 64.1343513257576  138.501201923077 64.7400568181818  137.135817307692 64.9090909090909  L 48.0444711538462 75.2201704545455  C 48.7840544871795 78.6008522727273  49.1538461538462 80.5729166666667  49.1538461538462 81.1363636363636  C 49.1538461538462 82.0378787878788  48.4711538461538 83.8409090909091  47.1057692307692 86  L 125.615384615385 86  C 127.094551282051 86.5454545454545  128.374599358974 87.0807291666667  129.455528846154 88.1512784090909  C 130.536458333333 89.2218276515152  131.076923076923 90.4895833333333  131.076923076923 91.9545454545455  C 131.076923076923 93.4195075757576  130.536458333333 94.6872632575758  129.455528846154 95.7578125  C 128.374599358974 96.8283617424242  127.094551282051 97.3636363636364  125.615384615385 97  L 38.2307692307692 97  C 36.7516025641026 97.3636363636364  35.4715544871795 96.8283617424242  34.390625 95.7578125  C 33.3096955128205 94.6872632575758  32.7692307692308 93.4195075757576  32.7692307692308 91.9545454545455  C 32.7692307692308 91.3347537878788  32.9967948717949 90.4473248106061  33.4519230769231 89.2922585227273  C 33.9070512820513 88.1371922348485  34.3621794871795 87.1229876893939  34.8173076923077 86.2496448863636  C 35.2724358974359 85.3763020833333  35.8840144230769 84.2494081439394  36.6520432692308 82.8689630681818  C 37.4200721153846 81.4885179924242  37.8609775641026 80.6574337121212  37.9747596153846 80.3757102272727  L 22.8701923076923 11  L 5.46153846153846 11  C 3.9823717948718 10.8181818181818  2.70232371794872 10.2829071969697  1.62139423076923 9.21235795454545  C 0.540464743589744 8.14180871212121  0 6.87405303030303  0 5.4090909090909  C 0 3.94412878787878  0.540464743589744 2.67637310606059  1.62139423076923 1.60582386363637  C 2.70232371794872 0.53527462121211  3.9823717948718 0  5.46153846153846 0  L 27.3076923076923 0  C 28.2179487179487 0  29.0286458333333 0.183120265151507  29.7397836538462 0.549360795454548  C 30.450921474359 0.915601325757575  31.005608974359 1.35227272727273  31.4038461538462 1.859375  C 31.8020833333333 2.36647727272727  32.171875 3.05669981060604  32.5132211538462 3.93004261363637  C 32.8545673076923 4.80338541666666  33.0821314102564 5.53586647727273  33.1959134615385 6.12748579545455  C 33.3096955128205 6.71910511363637  33.4661458333333 7.55018939393938  33.6652644230769 8.62073863636363  C 33.8643830128205 9.69128787878786  33.9923878205128 10.4237689393939  34.0492788461538 11  L 136.538461538462 11  C 138.017628205128 10.8181818181818  139.297676282051 11.3534564393939  140.378605769231 12.4240056818182  Z " fill-rule="nonzero" fill="#333333" stroke="none" transform="matrix(1 0 0 1 880 606 )" />
  </g>
</svg>