<?xml version="1.0" encoding="utf-8"?>
<svg version="1.1" xmlns:xlink="http://www.w3.org/1999/xlink" width="20px" height="45px" xmlns="http://www.w3.org/2000/svg">
  <g transform="matrix(1 0 0 1 -559 -738 )">
    <path d="M 19.1428571428571 33.3333333333333  C 19.5064935064935 33.3333333333333  19.7575757575758 33.4982638888889  19.8961038961039 33.828125  C 20.034632034632 34.1579861111111  19.991341991342 34.4618055555556  19.7662337662338 34.7395833333333  L 10.6753246753247 44.7395833333333  C 10.5021645021645 44.9131944444444  10.3030303030303 45  10.0779220779221 45  C 9.83549783549784 45  9.62770562770563 44.9131944444444  9.45454545454546 44.7395833333333  L 0.233766233766234 34.7395833333333  C 0.00865800865800864 34.4618055555556  -0.0346320346320347 34.1579861111111  0.103896103896104 33.828125  C 0.25974025974026 33.4982638888889  0.510822510822511 33.3333333333333  0.857142857142857 33.3333333333333  L 7 33.3333333333333  L 7 0.833333333333332  C 6.67532467532468 0.590277777777773  6.75324675324675 0.390625000000001  6.90909090909091 0.234375000000002  C 7.06493506493507 0.0781250000000022  7.26406926406927 0  7.50649350649351 0  L 12.4935064935065 0  C 12.7359307359307 0  12.9350649350649 0.0781250000000022  13.0909090909091 0.234375000000002  C 13.2467532467532 0.390625000000001  13.3246753246753 0.590277777777773  13 0.833333333333332  L 13 33.3333333333333  L 19.1428571428571 33.3333333333333  Z " fill-rule="nonzero" fill="#000000" stroke="none" transform="matrix(1 0 0 1 559 738 )" />
  </g>
</svg>