<?xml version="1.0" encoding="utf-8"?>
<svg version="1.1" xmlns:xlink="http://www.w3.org/1999/xlink" width="53px" height="120px" xmlns="http://www.w3.org/2000/svg">
  <g transform="matrix(1 0 0 1 -381 0 )">
    <path d="M 52.3805194805195 27.3611111111111  C 52.9770562770563 28.1018518518518  53.0917748917749 28.912037037037  52.7246753246753 29.7916666666667  C 52.3116883116883 30.6712962962963  51.6463203463203 31.1111111111111  50.7285714285714 32  L 35 32  L 35 117.777777777778  C 35.3103896103896 118.425925925926  35.1038961038961 118.958333333333  34.6909090909091 119.375  C 34.2779220779221 119.791666666667  33.7502164502164 120  33.1077922077922 120  L 19.8922077922078 120  C 19.2497835497836 120  18.7220779220779 119.791666666667  18.3090909090909 119.375  C 17.8961038961039 118.958333333333  17.6896103896104 118.425925925926  18 117.777777777778  L 18 32  L 2.27142857142857 32  C 1.30779220779221 31.1111111111111  0.642424242424242 30.6712962962963  0.275324675324675 29.7916666666667  C -0.0917748917748918 28.912037037037  0.0229437229437229 28.1018518518518  0.61948051948052 27.3611111111111  L 24.7103896103896 0.694444444444451  C 25.1692640692641 0.231481481481479  25.6969696969697 0  26.2935064935065 0  C 26.9359307359307 0  27.4865800865801 0.231481481481479  27.9454545454545 0.694444444444451  L 52.3805194805195 27.3611111111111  Z " fill-rule="nonzero" fill="#00ffff" stroke="none" transform="matrix(1 0 0 1 381 0 )" />
  </g>
</svg>