<?xml version="1.0" encoding="utf-8"?>
<svg version="1.1" xmlns:xlink="http://www.w3.org/1999/xlink" width="12px" height="438.5px" preserveAspectRatio="xMidYMin meet" viewBox="645 407  10 438.5" xmlns="http://www.w3.org/2000/svg">
  <path d="M 645.5 413.5  A 5 5 0 0 1 650.5 418.5 L 650.5 834.5  A 5 5 0 0 0 655.5 840 L 1465 840  A 5 5 0 0 0 1470.5 835 L 1470.5 554.5  A 5 5 0 0 0 1465.5 550 L 1055 550  A 5 5 0 0 0 1050.5 555 L 1050.5 594.5  A 5 5 0 0 1 1045.5 600 L 955.25 600  A 0.25 0.25 0 0 0 955.5 600.25 L 955.5 600  " stroke-width="3" stroke="#02a7f0" fill="none" />
</svg>