<?xml version="1.0" encoding="utf-8"?>
<svg version="1.1" xmlns:xlink="http://www.w3.org/1999/xlink" width="27px" height="26px" xmlns="http://www.w3.org/2000/svg">
  <g transform="matrix(1 0 0 1 -3760 -1007 )">
    <path d="M 2.07692307692308 19.9642857142857  L 2.07692307692308 24.1428571428571  L 6.75 24.1428571428571  L 6.75 19.9642857142857  L 2.07692307692308 19.9642857142857  Z M 7.78846153846154 19.9642857142857  L 7.78846153846154 24.1428571428571  L 12.9807692307692 24.1428571428571  L 12.9807692307692 19.9642857142857  L 7.78846153846154 19.9642857142857  Z M 2.07692307692308 14.3928571428571  L 2.07692307692308 19.0357142857143  L 6.75 19.0357142857143  L 6.75 14.3928571428571  L 2.07692307692308 14.3928571428571  Z M 7.78846153846154 14.3928571428571  L 7.78846153846154 19.0357142857143  L 12.9807692307692 19.0357142857143  L 12.9807692307692 14.3928571428571  L 7.78846153846154 14.3928571428571  Z M 2.07692307692308 9.28571428571428  L 2.07692307692308 13.4642857142857  L 6.75 13.4642857142857  L 6.75 9.28571428571428  L 2.07692307692308 9.28571428571428  Z M 14.0192307692308 19.9642857142857  L 14.0192307692308 24.1428571428571  L 19.2115384615385 24.1428571428571  L 19.2115384615385 19.9642857142857  L 14.0192307692308 19.9642857142857  Z M 7.78846153846154 9.28571428571428  L 7.78846153846154 13.4642857142857  L 12.9807692307692 13.4642857142857  L 12.9807692307692 9.28571428571428  L 7.78846153846154 9.28571428571428  Z M 20.25 19.9642857142857  L 20.25 24.1428571428571  L 24.9230769230769 24.1428571428571  L 24.9230769230769 19.9642857142857  L 20.25 19.9642857142857  Z M 14.0192307692308 14.3928571428571  L 14.0192307692308 19.0357142857143  L 19.2115384615385 19.0357142857143  L 19.2115384615385 14.3928571428571  L 14.0192307692308 14.3928571428571  Z M 8.15354567307692 6.82645089285714  C 8.25631009615385 6.73456101190476  8.30769230769231 6.62574404761904  8.30769230769231 6.5  L 8.30769230769231 2.32142857142857  C 8.30769230769231 2.19568452380952  8.25631009615385 2.08686755952381  8.15354567307692 1.99497767857143  C 8.05078125 1.90308779761905  7.92908653846154 1.85714285714286  7.78846153846154 1.85714285714286  L 6.75 1.85714285714286  C 6.609375 1.85714285714286  6.48768028846154 1.90308779761905  6.38491586538462 1.99497767857143  C 6.28215144230769 2.08686755952381  6.23076923076923 2.19568452380952  6.23076923076923 2.32142857142857  L 6.23076923076923 6.5  C 6.23076923076923 6.62574404761904  6.28215144230769 6.73456101190476  6.38491586538462 6.82645089285714  C 6.48768028846154 6.91834077380952  6.609375 6.96428571428572  6.75 6.96428571428572  L 7.78846153846154 6.96428571428572  C 7.92908653846154 6.96428571428572  8.05078125 6.91834077380952  8.15354567307692 6.82645089285714  Z M 20.25 14.3928571428571  L 20.25 19.0357142857143  L 24.9230769230769 19.0357142857143  L 24.9230769230769 14.3928571428571  L 20.25 14.3928571428571  Z M 14.0192307692308 9.28571428571428  L 14.0192307692308 13.4642857142857  L 19.2115384615385 13.4642857142857  L 19.2115384615385 9.28571428571428  L 14.0192307692308 9.28571428571428  Z M 20.25 9.28571428571428  L 20.25 13.4642857142857  L 24.9230769230769 13.4642857142857  L 24.9230769230769 9.28571428571428  L 20.25 9.28571428571428  Z M 20.6150841346154 6.82645089285714  C 20.7178485576923 6.73456101190476  20.7692307692308 6.62574404761904  20.7692307692308 6.5  L 20.7692307692308 2.32142857142857  C 20.7692307692308 2.19568452380952  20.7178485576923 2.08686755952381  20.6150841346154 1.99497767857143  C 20.5123197115385 1.90308779761905  20.390625 1.85714285714286  20.25 1.85714285714286  L 19.2115384615385 1.85714285714286  C 19.0709134615385 1.85714285714286  18.94921875 1.90308779761905  18.8464543269231 1.99497767857143  C 18.7436899038462 2.08686755952381  18.6923076923077 2.19568452380952  18.6923076923077 2.32142857142857  L 18.6923076923077 6.5  C 18.6923076923077 6.62574404761904  18.7436899038462 6.73456101190476  18.8464543269231 6.82645089285714  C 18.94921875 6.91834077380952  19.0709134615385 6.96428571428572  19.2115384615385 6.96428571428572  L 20.25 6.96428571428572  C 20.390625 6.96428571428572  20.5123197115385 6.91834077380952  20.6150841346154 6.82645089285714  Z M 26.3834134615385 4.265625  C 26.7944711538462 4.63318452380952  27 5.06845238095238  27 5.57142857142857  L 27 24.1428571428571  C 27 24.6458333333333  26.7944711538462 25.0811011904762  26.3834134615385 25.4486607142857  C 25.9723557692308 25.8162202380952  25.4855769230769 26  24.9230769230769 26  L 2.07692307692308 26  C 1.51442307692308 26  1.02764423076923 25.8162202380952  0.616586538461538 25.4486607142857  C 0.205528846153846 25.0811011904762  0 24.6458333333333  0 24.1428571428571  L 0 5.57142857142857  C 0 5.06845238095238  0.205528846153846 4.63318452380952  0.616586538461538 4.265625  C 1.02764423076923 3.89806547619047  1.51442307692308 3.71428571428572  2.07692307692308 3.71428571428572  L 4.15384615384615 3.71428571428572  L 4.15384615384615 2.32142857142857  C 4.15384615384615 1.68303571428572  4.40805288461539 1.13653273809524  4.91646634615385 0.681919642857144  C 5.42487980769231 0.227306547619048  6.03605769230769 0  6.75 0  L 7.78846153846154 0  C 8.50240384615385 0  9.11358173076923 0.227306547619048  9.62199519230769 0.681919642857144  C 10.1304086538462 1.13653273809524  10.3846153846154 1.68303571428572  10.3846153846154 2.32142857142857  L 10.3846153846154 3.71428571428572  L 16.6153846153846 3.71428571428572  L 16.6153846153846 2.32142857142857  C 16.6153846153846 1.68303571428572  16.8695913461538 1.13653273809524  17.3780048076923 0.681919642857144  C 17.8864182692308 0.227306547619048  18.4975961538462 0  19.2115384615385 0  L 20.25 0  C 20.9639423076923 0  21.5751201923077 0.227306547619048  22.0835336538462 0.681919642857144  C 22.5919471153846 1.13653273809524  22.8461538461538 1.68303571428572  22.8461538461538 2.32142857142857  L 22.8461538461538 3.71428571428572  L 24.9230769230769 3.71428571428572  C 25.4855769230769 3.71428571428572  25.9723557692308 3.89806547619047  26.3834134615385 4.265625  Z " fill-rule="nonzero" fill="#8c8c8c" stroke="none" transform="matrix(1 0 0 1 3760 1007 )" />
  </g>
</svg>