<?xml version="1.0" encoding="utf-8"?>
<svg version="1.1" xmlns:xlink="http://www.w3.org/1999/xlink" width="569px" height="204px" xmlns="http://www.w3.org/2000/svg">
  <g transform="matrix(1 0 0 1 -3049 -654 )">
    <path d="M 0 170.25  C 0 170.25  17.5564543868456 167.344583027068  62.8888888888888 152.5  C 79.7008397525952 146.994749660267  113.176024042643 114.798103060708  132.534435261708 116.5  C 162.970362094025 119.175777993053  178.403144531051 159.21914226925  200.10101010101 173.5  C 234.913779901627 196.412678260128  268.707070707071 200.5  268.707070707071 200.5  C 268.707070707071 200.5  317.253307872794 194.900277351218  356.023875114784 155.5  C 374.730759649054 136.489278943817  361.663186798188 86.4863372467128  389.027548209366 68.25  C 412.727823691277 52.4555069353252  441.744916893808 39.287055412307  469.338533431982 28.8660013631517  C 469.525279019691 28.7954746940483  469.71195940947 28.7250738609561  469.898572512006 28.6547989014925  C 519.982858766118 9.79400542850527  565.220385674931 0  565.220385674931 0  " stroke-width="2" stroke="#ec80db" fill="none" stroke-opacity="0.996078431372549" transform="matrix(1 0 0 1 3050 655 )" />
  </g>
</svg>