<?xml version="1.0" encoding="utf-8"?>
<svg version="1.1" xmlns:xlink="http://www.w3.org/1999/xlink" width="104px" height="6px" preserveAspectRatio="xMinYMid meet" viewBox="3046 857  104 4" xmlns="http://www.w3.org/2000/svg">
  <g transform="matrix(-0.956304755963037 -0.292371704722741 0.292371704722735 -0.956304755963049 5809.48483961666 2586.23332660331 )">
    <path d="M 566 30.75  C 566 30.75  548.443545613154 33.6554169729318  503.111111111111 48.5000000000002  C 486.299160247405 54.0052503397335  452.823975957357 86.2018969392923  433.465564738292 84.5000000000002  C 403.029637905975 81.8242220069469  387.596855468949 41.7808577307499  365.89898989899 27.5000000000002  C 331.086220098373 4.58732173987232  297.292929292929 0.500000000000232  297.292929292929 0.500000000000232  C 297.292929292929 0.500000000000232  248.746692127206 6.09972264878229  209.976124885216 45.5000000000002  C 191.269240350946 64.5107210561835  204.336813201812 114.513662753287  176.972451790634 132.75  C 153.272176308723 148.544493064675  124.255083106192 161.712944587693  96.6614665680184 172.133998636848  C 96.4747209803094 172.204525305952  96.2880405905296 172.274926139044  96.1014274879943 172.345201098507  C 46.0171412338822 191.205994571495  0.779614325068847 201  0.779614325068847 201  " stroke-width="2" stroke="#00ffff" fill="none" transform="matrix(1 0 0 1 3049 671 )" />
  </g>
</svg>