<?xml version="1.0" encoding="utf-8"?>
<svg version="1.1" xmlns:xlink="http://www.w3.org/1999/xlink" width="840px" height="475px" xmlns="http://www.w3.org/2000/svg">
  <defs>
    <mask fill="white" id="clip1132">
      <path d="M 20.5 539.5  C 9.4 539.5  0.5 530.6  0.5 519.5  L 0.5 85.5  C 0.5 74.4  9.4 65.5  20.5 65.5  L 819.5 65.5  C 830.6 65.5  839.5 74.4  839.5 85.5  L 839.5 519.5  C 839.5 530.6  830.6 539.5  819.5 539.5  L 20.5 539.5  " fill-rule="evenodd" />
    </mask>
  </defs>
  <g transform="matrix(1 0 0 1 0 -65 )">
    <path d="M 0 65  L 840 65  L 840 540  L 0 540  L 0 65  " fill-rule="nonzero" fill="#cccccc" stroke="none" mask="url(#clip1132)" />
    <path d="M 33 98  L 807 98  L 807 507  L 33 507  L 33 98  " fill-rule="nonzero" fill="#ffffff" stroke="none" mask="url(#clip1132)" />
    <path d="M 472.425 207.5  C 452.475 207.5  436.8 191.825  436.8 171.875  C 436.8 151.925  452.475 136.25  472.425 136.25  C 492.375 136.25  508.05 151.925  508.05 171.875  C 508.05 191.825  492.375 207.5  472.425 207.5  " fill-rule="nonzero" fill="#cccccc" stroke="none" mask="url(#clip1132)" />
    <path d="M 45 495  L 45 283.25  L 232.5 187  L 495 364.375  L 645 244.75  L 795 364.375  L 795 495  L 45 495  " fill-rule="nonzero" fill="#169bd5" stroke="none" mask="url(#clip1132)" />
    <path d="M 20 535  C 11.675 535  5 528.325  5 520  L 5 85  C 5 76.675  11.675 70  20 70  L 820 70  C 828.325 70  835 76.675  835 85  L 835 520  C 835 528.325  828.325 535  820 535  L 20 535  Z " stroke-width="10" stroke="#ec80db" fill="none" stroke-opacity="0.996078431372549" mask="url(#clip1132)" />
  </g>
</svg>