<?xml version="1.0" encoding="utf-8"?>
<svg version="1.1" xmlns:xlink="http://www.w3.org/1999/xlink" width="32px" height="32px" xmlns="http://www.w3.org/2000/svg">
  <defs>
    <filter x="3383px" y="672px" width="32px" height="32px" filterUnits="userSpaceOnUse" id="filter1135">
      <feOffset dx="1" dy="1" in="SourceAlpha" result="shadowOffsetInner" />
      <feGaussianBlur stdDeviation="2.5" in="shadowOffsetInner" result="shadowGaussian" />
      <feComposite in2="shadowGaussian" operator="atop" in="SourceAlpha" result="shadowComposite" />
      <feColorMatrix type="matrix" values="0 0 0 0 0  0 0 0 0 0  0 0 0 0 0  0 0 0 0.698039215686274 0  " in="shadowComposite" />
    </filter>
    <g id="widget1136">
      <path d="M 3398 676  C 3404.16 676  3409 680.84  3409 687  C 3409 693.16  3404.16 698  3398 698  C 3391.84 698  3387 693.16  3387 687  C 3387 680.84  3391.84 676  3398 676  Z " fill-rule="nonzero" fill="#d9001b" stroke="none" />
      <path d="M 3398 676.5  C 3403.88 676.5  3408.5 681.12  3408.5 687  C 3408.5 692.88  3403.88 697.5  3398 697.5  C 3392.12 697.5  3387.5 692.88  3387.5 687  C 3387.5 681.12  3392.12 676.5  3398 676.5  Z " stroke-width="1" stroke="#ffffff" fill="none" />
    </g>
  </defs>
  <g transform="matrix(1 0 0 1 -3383 -672 )">
    <use xlink:href="#widget1136" filter="url(#filter1135)" />
    <use xlink:href="#widget1136" />
  </g>
</svg>