<?xml version="1.0" encoding="utf-8"?>
<svg version="1.1" xmlns:xlink="http://www.w3.org/1999/xlink" width="96px" height="100px" xmlns="http://www.w3.org/2000/svg">
  <g transform="matrix(1 0 0 1 -3182 -309 )">
    <path d="M 77.8173302107728 62.4511446119486  C 79.5222482435597 58.4868788386376  80.3747072599532 54.3271915131212  80.3747072599532 49.9720826353992  C 80.3747072599532 45.6169737576773  79.5222482435597 41.4572864321608  77.8173302107728 37.4930206588498  C 76.112412177986 33.5287548855388  73.807962529274 30.1042248278429  70.903981264637 27.2194304857621  C 68 24.3346361436814  64.5526932084309 22.0454122464173  60.5620608899297 20.3517587939699  C 56.5714285714286 18.6581053415224  52.384074941452 17.8112786152987  48 17.8112786152987  C 43.615925058548 17.8112786152987  39.4285714285714 18.6581053415224  35.4379391100703 20.3517587939699  C 31.4473067915691 22.0454122464173  28 24.3346361436814  25.096018735363 27.2194304857621  C 22.192037470726 30.1042248278429  19.8875878220141 33.5287548855388  18.1826697892272 37.4930206588498  C 16.4777517564403 41.4572864321608  15.6252927400468 45.6169737576773  15.6252927400468 49.9720826353992  C 15.6252927400468 54.3271915131212  16.4777517564403 58.4868788386376  18.1826697892272 62.4511446119486  C 19.8875878220141 66.4154103852596  22.192037470726 69.8399404429555  25.096018735363 72.7247347850363  C 28 75.6095291271171  31.4473067915691 77.8987530243812  35.4379391100703 79.5924064768286  C 39.4285714285714 81.286059929276  43.615925058548 82.1328866554997  48 82.1328866554997  C 52.384074941452 82.1328866554997  56.5714285714286 81.286059929276  60.5620608899297 79.5924064768286  C 64.5526932084309 77.8987530243812  68 75.6095291271171  70.903981264637 72.7247347850363  C 73.807962529274 69.8399404429555  76.112412177986 66.4154103852596  77.8173302107728 62.4511446119486  Z M 95.6627634660422 63.8190954773869  C 96 64.2657733109994  96.0749414519906 64.8055090266145  95.8875878220141 65.4383026242323  C 95.7377049180328 65.9966499162479  95.3629976580796 66.3688814442583  94.7634660421546 66.5549972082635  L 78 71.9151312116136  L 78 89.000558347292  C 78.3512880562061 89.5961287921087  78.1077283372365 90.0800297785222  77.6206088992974 90.4522613065327  C 77.0585480093677 90.8244928345431  76.5152224824356 90.8989391401452  75.9906323185012 90.6756002233389  L 59.5784543325527 85.427135678392  L 49.4613583138173 99.2741485203797  C 49.0866510538642 99.7580495067932  48.5995316159251 100  48 100  C 47.4004683840749 100  46.9133489461358 99.7580495067932  46.5386416861827 99.2741485203797  L 36.4215456674473 85.427135678392  L 20.0093676814988 90.6756002233389  C 19.4847775175644 90.8989391401452  18.9414519906323 90.8244928345431  18.3793911007026 90.4522613065327  C 17.8922716627635 90.0800297785222  17.6487119437939 89.5961287921087  18 89.000558347292  L 18 71.9151312116136  L 1.23653395784543 66.5549972082635  C 0.637002341920374 66.3688814442583  0.262295081967213 65.9966499162479  0.112412177985948 65.4383026242323  C -0.074941451990632 64.8055090266145  0 64.2657733109994  0.337236533957845 63.8190954773869  L 10.4543325526932 49.9720826353992  L 0.337236533957845 36.1250697934115  C 0 35.6411688069979  -0.074941451990632 35.1014330913828  0.112412177985948 34.5058626465662  C 0.262295081967213 33.9475153545505  0.637002341920374 33.5752838265401  1.23653395784543 33.3891680625349  L 18 28.0290340591848  L 18 10.9436069235064  C 17.6487119437939 10.3480364786897  17.8922716627635 9.86413549227618  18.3793911007026 9.49190396426577  C 18.9414519906323 9.11967243625534  19.4847775175644 9.04522613065326  20.0093676814988 9.26856504745952  L 36.4215456674473 14.5170295924065  L 46.5386416861827 0.670016750418756  C 46.8758782201405 0.223338916806248  47.3629976580796 0  48 0  C 48.6370023419204 0  49.1241217798595 0.223338916806248  49.4613583138173 0.670016750418756  L 59.5784543325527 14.5170295924065  L 75.9906323185012 9.26856504745952  C 76.5152224824356 9.04522613065326  77.0585480093677 9.11967243625534  77.6206088992974 9.49190396426577  C 78.1077283372365 9.86413549227618  78.3512880562061 10.3480364786897  78 10.9436069235064  L 78 28.0290340591848  L 94.7634660421546 33.3891680625349  C 95.3629976580796 33.5752838265401  95.7377049180328 33.9475153545505  95.8875878220141 34.5058626465662  C 96.0749414519906 35.1014330913828  96 35.6411688069979  95.6627634660422 36.1250697934115  L 85.5456674473068 49.9720826353992  L 95.6627634660422 63.8190954773869  Z " fill-rule="nonzero" fill="#333333" stroke="none" transform="matrix(1 0 0 1 3182 309 )" />
  </g>
</svg>