<?xml version="1.0" encoding="utf-8"?>
<svg version="1.1" xmlns:xlink="http://www.w3.org/1999/xlink" width="40px" height="40px" xmlns="http://www.w3.org/2000/svg">
  <defs>
    <filter x="601px" y="-633px" width="40px" height="40px" filterUnits="userSpaceOnUse" id="filter1097">
      <feOffset dx="1" dy="1" in="SourceAlpha" result="shadowOffsetInner" />
      <feGaussianBlur stdDeviation="2.5" in="shadowOffsetInner" result="shadowGaussian" />
      <feComposite in2="shadowGaussian" operator="atop" in="SourceAlpha" result="shadowComposite" />
      <feColorMatrix type="matrix" values="0 0 0 0 0  0 0 0 0 0  0 0 0 0 0  0 0 0 0.698039215686274 0  " in="shadowComposite" />
    </filter>
    <g id="widget1098">
      <path d="M 620 -629  C 628.4 -629  635 -622.4  635 -614  C 635 -605.6  628.4 -599  620 -599  C 611.6 -599  605 -605.6  605 -614  C 605 -622.4  611.6 -629  620 -629  Z " fill-rule="nonzero" fill="#caf982" stroke="none" />
      <path d="M 620 -628.5  C 628.12 -628.5  634.5 -622.12  634.5 -614  C 634.5 -605.88  628.12 -599.5  620 -599.5  C 611.88 -599.5  605.5 -605.88  605.5 -614  C 605.5 -622.12  611.88 -628.5  620 -628.5  Z " stroke-width="1" stroke="#ffffff" fill="none" />
    </g>
  </defs>
  <g transform="matrix(1 0 0 1 -601 633 )">
    <use xlink:href="#widget1098" filter="url(#filter1097)" />
    <use xlink:href="#widget1098" />
  </g>
</svg>