<?xml version="1.0" encoding="utf-8"?>
<svg version="1.1" xmlns:xlink="http://www.w3.org/1999/xlink" width="405px" height="229px" xmlns="http://www.w3.org/2000/svg">
  <g transform="matrix(1 0 0 1 -1828 852 )">
    <path d="M 1828 -852  L 2233 -852  L 2233 -623  L 1828 -623  L 1828 -852  " fill-rule="nonzero" fill="#cccccc" stroke="none" />
    <path d="M 1844 -836  L 2217 -836  L 2217 -639  L 1844 -639  L 1844 -836  " fill-rule="nonzero" fill="#ffffff" stroke="none" />
    <path d="M 2055.775 -783.3  C 2046.157 -783.3  2038.6 -790.857  2038.6 -800.475  C 2038.6 -810.093  2046.157 -817.65  2055.775 -817.65  C 2065.393 -817.65  2072.95 -810.093  2072.95 -800.475  C 2072.95 -790.857  2065.393 -783.3  2055.775 -783.3  " fill-rule="nonzero" fill="#cccccc" stroke="none" />
    <path d="M 1850 -645  L 1850 -747.3  L 1940.5 -793.8  L 2067.2 -708.102222222222  L 2139.6 -765.9  L 2212 -708.102222222222  L 2212 -645  L 1850 -645  " fill-rule="nonzero" fill="#169bd5" stroke="none" />
  </g>
</svg>