<?xml version="1.0" encoding="utf-8"?>
<svg version="1.1" xmlns:xlink="http://www.w3.org/1999/xlink" width="85px" height="70px" xmlns="http://www.w3.org/2000/svg">
  <g transform="matrix(1 0 0 1 -3715 -30 )">
    <path d="M 34.5854591836735 64.01171875  C 34.5493197278912 64.2122395833333  34.5854591836735 64.4583333333333  34.6938775510204 64.75  C 34.6938775510204 64.8958333333333  34.7119472789116 65.2604166666667  34.7480867346939 65.84375  C 34.7842261904762 66.4270833333333  34.7932610544218 66.91015625  34.7751913265306 67.29296875  C 34.7571215986395 67.67578125  34.702912414966 68.1041666666667  34.6125637755102 68.578125  C 34.5222151360544 69.0520833333333  34.3415178571429 69.4075520833333  34.0704719387755 69.64453125  C 33.7994260204082 69.8815104166667  33.4289965986395 70  32.9591836734694 70  L 15.6122448979592 70  C 11.3116496598639 70  7.63446003401361 68.4596354166667  4.58067602040816 65.37890625  C 1.52689200680272 62.2981770833333  0 58.5885416666667  0 54.25  L 0 15.75  C 0 11.4114583333333  1.52689200680272 7.70182291666666  4.58067602040816 4.62109375  C 7.63446003401361 1.54036458333332  11.3116496598639 0  15.6122448979592 0  L 32.9591836734694 0  C 33.4289965986395 0  33.8355654761905 0.173177083333323  34.1788903061224 0.519531250000002  C 34.5222151360544 0.865885416666664  34.6938775510204 1.27604166666666  34.6938775510204 1.75  C 34.6938775510204 1.89583333333333  34.7119472789116 2.26041666666666  34.7480867346939 2.84375  C 34.7842261904762 3.42708333333333  34.7932610544218 3.91015625  34.7751913265306 4.29296875  C 34.7571215986395 4.67578125  34.702912414966 5.10416666666666  34.6125637755102 5.578125  C 34.5222151360544 6.05208333333332  34.3415178571429 6.40755208333333  34.0704719387755 6.64453125  C 33.7994260204082 6.88151041666666  33.4289965986395 7  32.9591836734694 7  L 15.6122448979592 7  C 13.2270408163265 7  11.1851615646259 7.85677083333332  9.48660714285714 9.5703125  C 7.78805272108844 11.2838541666667  6.93877551020408 13.34375  7 15.75  L 7 54.25  C 6.93877551020408 56.65625  7.78805272108844 58.7161458333333  9.48660714285714 60.4296875  C 11.1851615646259 62.1432291666667  13.2270408163265 63  15.6122448979592 63  L 31.2244897959184 63  L 31.8207908163265 63  L 32.5255102040816 63  C 32.5255102040816 63  32.7333120748299 63.0182291666667  33.1489158163265 63.0546875  C 33.5645195578231 63.0911458333333  33.7723214285714 63.1458333333333  33.7723214285714 63.21875  C 33.7723214285714 63.2916666666667  33.9168792517007 63.3919270833333  34.2059948979592 63.51953125  C 34.4951105442177 63.6471354166667  34.6215986394558 63.8111979166667  34.5854591836735 64.01171875  Z M 83.9700255102041 32.5390625  C 84.656675170068 33.2317708333333  85 34.0520833333333  85 35  C 85 35.9479166666667  84.656675170068 36.7682291666667  83.9700255102041 37.4609375  L 54.4802295918367 67.2109375  C 53.7935799319728 67.9036458333333  52.9804421768708 68.25  52.0408163265306 68.25  C 51.1011904761905 68.25  50.2880527210884 67.9036458333333  49.6014030612245 67.2109375  C 48.9147534013605 66.5182291666667  48.5714285714286 65.6979166666667  48 64.75  L 48 49  L 24.2857142857143 49  C 23.3460884353741 49  22.5329506802721 48.6536458333333  21.8463010204082 47.9609375  C 21.1596513605442 47.2682291666667  20.8163265306122 46.4479166666667  21 45.5  L 21 24.5  C 20.8163265306122 23.5520833333333  21.1596513605442 22.7317708333333  21.8463010204082 22.0390625  C 22.5329506802721 21.3463541666667  23.3460884353741 21  24.2857142857143 21  L 48 21  L 48 5.25  C 48.5714285714286 4.30208333333332  48.9147534013605 3.48177083333332  49.6014030612245 2.7890625  C 50.2880527210884 2.09635416666666  51.1011904761905 1.75  52.0408163265306 1.75  C 52.9804421768708 1.75  53.7935799319728 2.09635416666666  54.4802295918367 2.7890625  L 83.9700255102041 32.5390625  Z " fill-rule="nonzero" fill="#169bd5" stroke="none" transform="matrix(1 0 0 1 3715 30 )" />
  </g>
</svg>