<?xml version="1.0" encoding="utf-8"?>
<svg version="1.1" xmlns:xlink="http://www.w3.org/1999/xlink" width="98px" height="98px" xmlns="http://www.w3.org/2000/svg">
  <defs>
    <mask fill="white" id="clip1154">
      <path d="M 95.6902356902357 73.2525252525252  C 97.2300785634119 74.7923681257014  98 76.662177328844  98 78.8619528619529  C 98 81.0617283950617  97.2300785634119 82.9315375982043  95.6902356902357 84.4713804713805  L 84.4713804713805 95.6902356902357  C 82.9315375982043 97.2300785634119  81.0617283950617 98  78.8619528619529 98  C 76.662177328844 98  74.7923681257015 97.2300785634119  73.2525252525253 95.6902356902357  L 49 71.4377104377105  L 24.7474747474747 95.6902356902357  C 23.2076318742985 97.2300785634119  21.337822671156 98  19.1380471380471 98  C 16.9382716049383 98  15.0684624017957 97.2300785634119  13.5286195286195 95.6902356902357  L 2.30976430976431 84.4713804713805  C 0.769921436588104 82.9315375982043  0 81.0617283950617  0 78.8619528619529  C 0 76.662177328844  0.769921436588104 74.7923681257014  2.30976430976431 73.2525252525252  L 26.5622895622896 49  L 2.30976430976431 24.7474747474747  C 0.769921436588104 23.2076318742985  0 21.337822671156  0 19.1380471380471  C 0 16.9382716049383  0.769921436588104 15.0684624017957  2.30976430976431 13.5286195286195  L 13.5286195286195 2.30976430976431  C 15.0684624017957 0.7699214365881  16.9382716049383 0  19.1380471380471 0  C 21.337822671156 0  23.2076318742985 0.7699214365881  24.7474747474747 2.30976430976431  L 49 26.5622895622896  L 73.2525252525253 2.30976430976431  C 74.7923681257015 0.7699214365881  76.662177328844 0  78.8619528619529 0  C 81.0617283950617 0  82.9315375982043 0.7699214365881  84.4713804713805 2.30976430976431  L 95.6902356902357 13.5286195286195  C 97.2300785634119 15.0684624017957  98 16.9382716049383  98 19.1380471380471  C 98 21.337822671156  97.2300785634119 23.2076318742985  95.6902356902357 24.7474747474747  L 71.4377104377104 49  L 95.6902356902357 73.2525252525252  Z " fill-rule="evenodd" />
    </mask>
  </defs>
  <g transform="matrix(1 0 0 1 -2885 -200 )">
    <path d="M 95.6902356902357 73.2525252525252  C 97.2300785634119 74.7923681257014  98 76.662177328844  98 78.8619528619529  C 98 81.0617283950617  97.2300785634119 82.9315375982043  95.6902356902357 84.4713804713805  L 84.4713804713805 95.6902356902357  C 82.9315375982043 97.2300785634119  81.0617283950617 98  78.8619528619529 98  C 76.662177328844 98  74.7923681257015 97.2300785634119  73.2525252525253 95.6902356902357  L 49 71.4377104377105  L 24.7474747474747 95.6902356902357  C 23.2076318742985 97.2300785634119  21.337822671156 98  19.1380471380471 98  C 16.9382716049383 98  15.0684624017957 97.2300785634119  13.5286195286195 95.6902356902357  L 2.30976430976431 84.4713804713805  C 0.769921436588104 82.9315375982043  0 81.0617283950617  0 78.8619528619529  C 0 76.662177328844  0.769921436588104 74.7923681257014  2.30976430976431 73.2525252525252  L 26.5622895622896 49  L 2.30976430976431 24.7474747474747  C 0.769921436588104 23.2076318742985  0 21.337822671156  0 19.1380471380471  C 0 16.9382716049383  0.769921436588104 15.0684624017957  2.30976430976431 13.5286195286195  L 13.5286195286195 2.30976430976431  C 15.0684624017957 0.7699214365881  16.9382716049383 0  19.1380471380471 0  C 21.337822671156 0  23.2076318742985 0.7699214365881  24.7474747474747 2.30976430976431  L 49 26.5622895622896  L 73.2525252525253 2.30976430976431  C 74.7923681257015 0.7699214365881  76.662177328844 0  78.8619528619529 0  C 81.0617283950617 0  82.9315375982043 0.7699214365881  84.4713804713805 2.30976430976431  L 95.6902356902357 13.5286195286195  C 97.2300785634119 15.0684624017957  98 16.9382716049383  98 19.1380471380471  C 98 21.337822671156  97.2300785634119 23.2076318742985  95.6902356902357 24.7474747474747  L 71.4377104377104 49  L 95.6902356902357 73.2525252525252  Z " fill-rule="nonzero" fill="#000000" stroke="none" transform="matrix(1 0 0 1 2885 200 )" />
    <path d="M 95.6902356902357 73.2525252525252  C 97.2300785634119 74.7923681257014  98 76.662177328844  98 78.8619528619529  C 98 81.0617283950617  97.2300785634119 82.9315375982043  95.6902356902357 84.4713804713805  L 84.4713804713805 95.6902356902357  C 82.9315375982043 97.2300785634119  81.0617283950617 98  78.8619528619529 98  C 76.662177328844 98  74.7923681257015 97.2300785634119  73.2525252525253 95.6902356902357  L 49 71.4377104377105  L 24.7474747474747 95.6902356902357  C 23.2076318742985 97.2300785634119  21.337822671156 98  19.1380471380471 98  C 16.9382716049383 98  15.0684624017957 97.2300785634119  13.5286195286195 95.6902356902357  L 2.30976430976431 84.4713804713805  C 0.769921436588104 82.9315375982043  0 81.0617283950617  0 78.8619528619529  C 0 76.662177328844  0.769921436588104 74.7923681257014  2.30976430976431 73.2525252525252  L 26.5622895622896 49  L 2.30976430976431 24.7474747474747  C 0.769921436588104 23.2076318742985  0 21.337822671156  0 19.1380471380471  C 0 16.9382716049383  0.769921436588104 15.0684624017957  2.30976430976431 13.5286195286195  L 13.5286195286195 2.30976430976431  C 15.0684624017957 0.7699214365881  16.9382716049383 0  19.1380471380471 0  C 21.337822671156 0  23.2076318742985 0.7699214365881  24.7474747474747 2.30976430976431  L 49 26.5622895622896  L 73.2525252525253 2.30976430976431  C 74.7923681257015 0.7699214365881  76.662177328844 0  78.8619528619529 0  C 81.0617283950617 0  82.9315375982043 0.7699214365881  84.4713804713805 2.30976430976431  L 95.6902356902357 13.5286195286195  C 97.2300785634119 15.0684624017957  98 16.9382716049383  98 19.1380471380471  C 98 21.337822671156  97.2300785634119 23.2076318742985  95.6902356902357 24.7474747474747  L 71.4377104377104 49  L 95.6902356902357 73.2525252525252  Z " stroke-width="8" stroke="#ffffff" fill="none" transform="matrix(1 0 0 1 2885 200 )" mask="url(#clip1154)" />
  </g>
</svg>