<?xml version="1.0" encoding="utf-8"?>
<svg version="1.1" xmlns:xlink="http://www.w3.org/1999/xlink" width="1997px" height="213px" xmlns="http://www.w3.org/2000/svg">
  <g transform="matrix(1 0 0 1 -927 -983 )">
    <path d="M 1993.20826952527 209.430321592649  L 1 207.648706896552  C 1 207.648706896552  -1.14676576708507 169.73552731578  5 136  C 8.892460982903 114.636858993798  20.2038182385743 112.068247610302  35 96.0000000000005  C 56.0257042723163 73.1666617864003  88.1808134612106 74.3632782824325  145 64.8620689655172  C 204.317316456264 54.9431265430662  367.570851765741 61.7957201697236  435.872800402212 64.8620689655172  C 543.259356441325 69.6830827633457  649.899802945094 -20.3249936700577  726.456008044243 5.40517241379303  C 849.285303687749 46.687497899713  996.998994469583 5.40517241379303  996.998994469583 5.40517241379303  C 996.998994469583 5.40517241379303  1130.74845675688 117.833258331074  1267.54198089492 46.8448275862079  C 1333.54515915935 12.5927525798079  1341.33465653061 79.7016765910603  1437.8838612368 46.8448275862079  C 1521.50513471411 18.3875081851984  1525.35888480709 85.8476989318951  1648.30618401207 46.8448275862079  C 1766.46104675506 9.36227253830612  1789.93979612442 73.9343130257348  1848.70839617898 82.8793103448274  C 1848.70839858542 82.8793107111037  1926.42339678218 86.2532081783138  1965 121.568513119533  C 1975.9374102089 131.581265528382  1982.88040756534 136.546548266643  1986.92955589587 152.003062787136  C 1993.1558726321 175.770321278845  1992.96094701934 209.561921075676  1993.20826952527 209.430321592649  Z " fill-rule="nonzero" fill="#ffff80" stroke="none" fill-opacity="0.0980392156862745" transform="matrix(1 0 0 1 928 984 )" />
    <path d="M 1 207.648706896552  C 1 207.648706896552  -1.14676576708507 169.73552731578  5 136  C 8.892460982903 114.636858993798  20.2038182385743 112.068247610302  35 96.0000000000005  C 56.0257042723163 73.1666617864003  88.1808134612106 74.3632782824325  145 64.8620689655172  C 204.317316456264 54.9431265430662  367.570851765741 61.7957201697236  435.872800402212 64.8620689655172  C 543.259356441325 69.6830827633457  649.899802945094 -20.3249936700577  726.456008044243 5.40517241379303  C 849.285303687749 46.687497899713  996.998994469583 5.40517241379303  996.998994469583 5.40517241379303  C 996.998994469583 5.40517241379303  1130.74845675688 117.833258331074  1267.54198089492 46.8448275862079  C 1333.54515915935 12.5927525798079  1341.33465653061 79.7016765910603  1437.8838612368 46.8448275862079  C 1521.50513471411 18.3875081851984  1525.35888480709 85.8476989318951  1648.30618401207 46.8448275862079  C 1766.46104675506 9.36227253830612  1789.93979612442 73.9343130257348  1848.70839617898 82.8793103448274  C 1848.70839858542 82.8793107111037  1926.42339678218 86.2532081783138  1965 121.568513119533  C 1975.9374102089 131.581265528382  1982.88040756534 136.546548266643  1986.92955589587 152.003062787136  C 1993.1558726321 175.770321278845  1992.96094701934 209.561921075676  1993.20826952527 209.430321592649  " stroke-width="2" stroke="#f59a23" fill="none" stroke-opacity="0.996078431372549" transform="matrix(1 0 0 1 928 984 )" />
  </g>
</svg>