<?xml version="1.0" encoding="utf-8"?>
<svg version="1.1" xmlns:xlink="http://www.w3.org/1999/xlink" width="82px" height="82px" xmlns="http://www.w3.org/2000/svg">
  <defs>
    <mask fill="white" id="clip1171">
      <path d="M 80.0673400673401 61.2929292929293  C 81.3557800224467 62.5813692480359  82 64.1459034792368  82 65.986531986532  C 82 67.8271604938272  81.3557800224467 69.391694725028  80.0673400673401 70.6801346801347  L 70.6801346801347 80.0673400673401  C 69.3916947250281 81.3557800224467  67.8271604938272 82  65.986531986532 82  C 64.1459034792368 82  62.5813692480359 81.3557800224467  61.2929292929293 80.0673400673401  L 41 59.7744107744108  L 20.7070707070707 80.0673400673401  C 19.4186307519641 81.3557800224467  17.8540965207632 82  16.013468013468 82  C 14.1728395061728 82  12.6083052749719 81.3557800224467  11.3198653198653 80.0673400673401  L 1.93265993265993 70.6801346801347  C 0.644219977553312 69.391694725028  0 67.8271604938272  0 65.986531986532  C 0 64.1459034792368  0.644219977553312 62.5813692480359  1.93265993265993 61.2929292929293  L 22.2255892255892 41  L 1.93265993265993 20.7070707070707  C 0.644219977553312 19.4186307519641  0 17.8540965207632  0 16.013468013468  C 0 14.1728395061728  0.644219977553312 12.6083052749719  1.93265993265993 11.3198653198653  L 11.3198653198653 1.93265993265993  C 12.6083052749719 0.644219977553308  14.1728395061728 0  16.013468013468 0  C 17.8540965207632 0  19.4186307519641 0.644219977553308  20.7070707070707 1.93265993265993  L 41 22.2255892255892  L 61.2929292929293 1.93265993265993  C 62.5813692480359 0.644219977553308  64.1459034792368 0  65.986531986532 0  C 67.8271604938272 0  69.3916947250281 0.644219977553308  70.6801346801347 1.93265993265993  L 80.0673400673401 11.3198653198653  C 81.3557800224467 12.6083052749719  82 14.1728395061728  82 16.013468013468  C 82 17.8540965207632  81.3557800224467 19.4186307519641  80.0673400673401 20.7070707070707  L 59.7744107744108 41  L 80.0673400673401 61.2929292929293  Z " fill-rule="evenodd" />
    </mask>
  </defs>
  <g transform="matrix(1 0 0 1 -2953 -200 )">
    <path d="M 80.0673400673401 61.2929292929293  C 81.3557800224467 62.5813692480359  82 64.1459034792368  82 65.986531986532  C 82 67.8271604938272  81.3557800224467 69.391694725028  80.0673400673401 70.6801346801347  L 70.6801346801347 80.0673400673401  C 69.3916947250281 81.3557800224467  67.8271604938272 82  65.986531986532 82  C 64.1459034792368 82  62.5813692480359 81.3557800224467  61.2929292929293 80.0673400673401  L 41 59.7744107744108  L 20.7070707070707 80.0673400673401  C 19.4186307519641 81.3557800224467  17.8540965207632 82  16.013468013468 82  C 14.1728395061728 82  12.6083052749719 81.3557800224467  11.3198653198653 80.0673400673401  L 1.93265993265993 70.6801346801347  C 0.644219977553312 69.391694725028  0 67.8271604938272  0 65.986531986532  C 0 64.1459034792368  0.644219977553312 62.5813692480359  1.93265993265993 61.2929292929293  L 22.2255892255892 41  L 1.93265993265993 20.7070707070707  C 0.644219977553312 19.4186307519641  0 17.8540965207632  0 16.013468013468  C 0 14.1728395061728  0.644219977553312 12.6083052749719  1.93265993265993 11.3198653198653  L 11.3198653198653 1.93265993265993  C 12.6083052749719 0.644219977553308  14.1728395061728 0  16.013468013468 0  C 17.8540965207632 0  19.4186307519641 0.644219977553308  20.7070707070707 1.93265993265993  L 41 22.2255892255892  L 61.2929292929293 1.93265993265993  C 62.5813692480359 0.644219977553308  64.1459034792368 0  65.986531986532 0  C 67.8271604938272 0  69.3916947250281 0.644219977553308  70.6801346801347 1.93265993265993  L 80.0673400673401 11.3198653198653  C 81.3557800224467 12.6083052749719  82 14.1728395061728  82 16.013468013468  C 82 17.8540965207632  81.3557800224467 19.4186307519641  80.0673400673401 20.7070707070707  L 59.7744107744108 41  L 80.0673400673401 61.2929292929293  Z " fill-rule="nonzero" fill="#000000" stroke="none" transform="matrix(1 0 0 1 2953 200 )" />
    <path d="M 80.0673400673401 61.2929292929293  C 81.3557800224467 62.5813692480359  82 64.1459034792368  82 65.986531986532  C 82 67.8271604938272  81.3557800224467 69.391694725028  80.0673400673401 70.6801346801347  L 70.6801346801347 80.0673400673401  C 69.3916947250281 81.3557800224467  67.8271604938272 82  65.986531986532 82  C 64.1459034792368 82  62.5813692480359 81.3557800224467  61.2929292929293 80.0673400673401  L 41 59.7744107744108  L 20.7070707070707 80.0673400673401  C 19.4186307519641 81.3557800224467  17.8540965207632 82  16.013468013468 82  C 14.1728395061728 82  12.6083052749719 81.3557800224467  11.3198653198653 80.0673400673401  L 1.93265993265993 70.6801346801347  C 0.644219977553312 69.391694725028  0 67.8271604938272  0 65.986531986532  C 0 64.1459034792368  0.644219977553312 62.5813692480359  1.93265993265993 61.2929292929293  L 22.2255892255892 41  L 1.93265993265993 20.7070707070707  C 0.644219977553312 19.4186307519641  0 17.8540965207632  0 16.013468013468  C 0 14.1728395061728  0.644219977553312 12.6083052749719  1.93265993265993 11.3198653198653  L 11.3198653198653 1.93265993265993  C 12.6083052749719 0.644219977553308  14.1728395061728 0  16.013468013468 0  C 17.8540965207632 0  19.4186307519641 0.644219977553308  20.7070707070707 1.93265993265993  L 41 22.2255892255892  L 61.2929292929293 1.93265993265993  C 62.5813692480359 0.644219977553308  64.1459034792368 0  65.986531986532 0  C 67.8271604938272 0  69.3916947250281 0.644219977553308  70.6801346801347 1.93265993265993  L 80.0673400673401 11.3198653198653  C 81.3557800224467 12.6083052749719  82 14.1728395061728  82 16.013468013468  C 82 17.8540965207632  81.3557800224467 19.4186307519641  80.0673400673401 20.7070707070707  L 59.7744107744108 41  L 80.0673400673401 61.2929292929293  Z " stroke-width="8" stroke="#ffffff" fill="none" transform="matrix(1 0 0 1 2953 200 )" mask="url(#clip1171)" />
  </g>
</svg>