<?xml version="1.0" encoding="utf-8"?>
<svg version="1.1" xmlns:xlink="http://www.w3.org/1999/xlink" width="40px" height="40px" xmlns="http://www.w3.org/2000/svg">
  <defs>
    <filter x="14px" y="194px" width="40px" height="40px" filterUnits="userSpaceOnUse" id="filter1174">
      <feOffset dx="1" dy="1" in="SourceAlpha" result="shadowOffsetInner" />
      <feGaussianBlur stdDeviation="2.5" in="shadowOffsetInner" result="shadowGaussian" />
      <feComposite in2="shadowGaussian" operator="atop" in="SourceAlpha" result="shadowComposite" />
      <feColorMatrix type="matrix" values="0 0 0 0 0  0 0 0 0 0  0 0 0 0 0  0 0 0 0.698039215686274 0  " in="shadowComposite" />
    </filter>
    <g id="widget1175">
      <path d="M 33 198  C 41.4 198  48 204.6  48 213  C 48 221.4  41.4 228  33 228  C 24.6 228  18 221.4  18 213  C 18 204.6  24.6 198  33 198  Z " fill-rule="nonzero" fill="#95f204" stroke="none" />
      <path d="M 33 198.5  C 41.12 198.5  47.5 204.88  47.5 213  C 47.5 221.12  41.12 227.5  33 227.5  C 24.88 227.5  18.5 221.12  18.5 213  C 18.5 204.88  24.88 198.5  33 198.5  Z " stroke-width="1" stroke="#ffffff" fill="none" />
    </g>
  </defs>
  <g transform="matrix(1 0 0 1 -14 -194 )">
    <use xlink:href="#widget1175" filter="url(#filter1174)" />
    <use xlink:href="#widget1175" />
  </g>
</svg>