<?xml version="1.0" encoding="utf-8"?>
<svg version="1.1" xmlns:xlink="http://www.w3.org/1999/xlink" width="40px" height="40px" xmlns="http://www.w3.org/2000/svg">
  <defs>
    <filter x="14px" y="40px" width="40px" height="40px" filterUnits="userSpaceOnUse" id="filter1172">
      <feOffset dx="1" dy="1" in="SourceAlpha" result="shadowOffsetInner" />
      <feGaussianBlur stdDeviation="2.5" in="shadowOffsetInner" result="shadowGaussian" />
      <feComposite in2="shadowGaussian" operator="atop" in="SourceAlpha" result="shadowComposite" />
      <feColorMatrix type="matrix" values="0 0 0 0 0  0 0 0 0 0  0 0 0 0 0  0 0 0 0.698039215686274 0  " in="shadowComposite" />
    </filter>
    <g id="widget1173">
      <path d="M 33 44  C 41.4 44  48 50.6  48 59  C 48 67.4  41.4 74  33 74  C 24.6 74  18 67.4  18 59  C 18 50.6  24.6 44  33 44  Z " fill-rule="nonzero" fill="#d9001b" stroke="none" />
      <path d="M 33 44.5  C 41.12 44.5  47.5 50.88  47.5 59  C 47.5 67.12  41.12 73.5  33 73.5  C 24.88 73.5  18.5 67.12  18.5 59  C 18.5 50.88  24.88 44.5  33 44.5  Z " stroke-width="1" stroke="#ffffff" fill="none" />
    </g>
  </defs>
  <g transform="matrix(1 0 0 1 -14 -40 )">
    <use xlink:href="#widget1173" filter="url(#filter1172)" />
    <use xlink:href="#widget1173" />
  </g>
</svg>