<?xml version="1.0" encoding="utf-8"?>
<svg version="1.1" xmlns:xlink="http://www.w3.org/1999/xlink" width="846px" height="477px" xmlns="http://www.w3.org/2000/svg">
  <g transform="matrix(1 0 0 1 6 -1 )">
    <path d="M -6 1  L 840 1  L 840 478  L -6 478  L -6 1  " fill-rule="nonzero" fill="#cccccc" stroke="none" />
    <path d="M 27 34  L 807 34  L 807 445  L 27 445  L 27 34  " fill-rule="nonzero" fill="#ffffff" stroke="none" />
    <path d="M 469.695 144.1  C 449.661 144.1  433.92 128.359  433.92 108.325  C 433.92 88.291  449.661 72.55  469.695 72.55  C 489.729 72.55  505.47 88.291  505.47 108.325  C 505.47 128.359  489.729 144.1  469.695 144.1  " fill-rule="nonzero" fill="#cccccc" stroke="none" />
    <path d="M 39 433  L 39 220.15  L 228 123.4  L 492.6 302.078723404255  L 643.8 181.45  L 795 302.078723404255  L 795 433  L 39 433  " fill-rule="nonzero" fill="#169bd5" stroke="none" />
    <path d="M -5.5 477.5  L -5.5 1.5  L 839.5 1.5  L 839.5 477.5  L -5.5 477.5  Z " stroke-width="1" stroke="#f2f2f2" fill="none" />
  </g>
</svg>