<?xml version="1.0" encoding="utf-8"?>
<svg version="1.1" xmlns:xlink="http://www.w3.org/1999/xlink" width="83px" height="71px" xmlns="http://www.w3.org/2000/svg">
  <g transform="matrix(1 0 0 1 -2738 -200 )">
    <path d="M 53.3571428571429 55.607421875  C 53.7585565476191 55.607421875  54.1136532738095 55.4533420138889  54.4224330357143 55.1451822916667  L 61.1847098214286 48.396484375  C 61.4934895833333 48.0883246527778  61.6478794642857 47.7339409722222  61.6478794642857 47.3333333333333  C 61.6478794642857 46.9327256944444  61.4934895833333 46.5783420138889  61.1847098214286 46.2701822916667  L 50.3928571428571 35.5  L 61.1847098214286 24.7298177083333  C 61.4934895833333 24.4216579861111  61.6478794642857 24.0672743055556  61.6478794642857 23.6666666666667  C 61.6478794642857 23.2660590277778  61.4934895833333 22.9116753472222  61.1847098214286 22.603515625  L 54.4224330357143 15.8548177083333  C 54.1136532738095 15.5466579861111  53.7585565476191 15.392578125  53.3571428571429 15.392578125  C 52.9557291666667 15.392578125  52.6006324404762 15.5466579861111  52.2918526785714 15.8548177083333  L 41.5 26.625  L 30.7081473214286 15.8548177083333  C 30.3993675595238 15.5466579861111  30.0442708333333 15.392578125  29.6428571428571 15.392578125  C 29.241443452381 15.392578125  28.8863467261905 15.5466579861111  28.5775669642857 15.8548177083333  L 21.8152901785714 22.603515625  C 21.5065104166667 22.9116753472222  21.3521205357143 23.2660590277778  21.3521205357143 23.6666666666667  C 21.3521205357143 24.0672743055556  21.5065104166667 24.4216579861111  21.8152901785714 24.7298177083333  L 32.6071428571429 35.5  L 21.8152901785714 46.2701822916667  C 21.5065104166667 46.5783420138889  21.3521205357143 46.9327256944444  21.3521205357143 47.3333333333333  C 21.3521205357143 47.7339409722222  21.5065104166667 48.0883246527778  21.8152901785714 48.396484375  L 28.5775669642857 55.1451822916667  C 28.8863467261905 55.4533420138889  29.241443452381 55.607421875  29.6428571428571 55.607421875  C 30.0442708333333 55.607421875  30.3993675595238 55.4533420138889  30.7081473214286 55.1451822916667  L 41.5 44.375  L 52.2918526785714 55.1451822916667  C 52.6006324404762 55.4533420138889  52.9557291666667 55.607421875  53.3571428571429 55.607421875  Z M 80.8231026785714 2.17252604166667  C 82.2743675595238 3.62087673611111  83 5.36197916666667  83 7.39583333333333  L 83 63.6041666666667  C 83 65.6380208333333  82.2743675595238 67.3791232638889  80.8231026785714 68.8274739583333  C 79.3718377976191 70.2758246527778  77.6272321428572 71  75.5892857142857 71  L 7.41071428571429 71  C 5.37276785714286 71  3.62816220238095 70.2758246527778  2.17689732142857 68.8274739583333  C 0.72563244047619 67.3791232638889  0 65.6380208333333  0 63.6041666666667  L 0 7.39583333333333  C 0 5.36197916666667  0.72563244047619 3.62087673611111  2.17689732142857 2.17252604166667  C 3.62816220238095 0.724175347222215  5.37276785714286 0  7.41071428571429 0  L 75.5892857142857 0  C 77.6272321428572 0  79.3718377976191 0.724175347222215  80.8231026785714 2.17252604166667  Z " fill-rule="nonzero" fill="#d9001b" stroke="none" transform="matrix(1 0 0 1 2738 200 )" />
  </g>
</svg>