<?xml version="1.0" encoding="utf-8"?>
<svg version="1.1" xmlns:xlink="http://www.w3.org/1999/xlink" width="40px" height="40px" xmlns="http://www.w3.org/2000/svg">
  <defs>
    <linearGradient gradientUnits="userSpaceOnUse" x1="3620" y1="314.643364592214" x2="3620" y2="330" id="LinearGradient1116">
      <stop id="Stop1117" stop-color="#ffffff" offset="0" />
      <stop id="Stop1118" stop-color="#02a7f0" stop-opacity="0.996078431372549" offset="1" />
    </linearGradient>
  </defs>
  <g transform="matrix(1 0 0 1 -3600 -290 )">
    <path d="M 3620 290  C 3631.2 290  3640 298.8  3640 310  C 3640 321.2  3631.2 330  3620 330  C 3608.8 330  3600 321.2  3600 310  C 3600 298.8  3608.8 290  3620 290  Z " fill-rule="nonzero" fill="url(#LinearGradient1116)" stroke="none" />
    <path d="M 3620 290.5  C 3630.92 290.5  3639.5 299.08  3639.5 310  C 3639.5 320.92  3630.92 329.5  3620 329.5  C 3609.08 329.5  3600.5 320.92  3600.5 310  C 3600.5 299.08  3609.08 290.5  3620 290.5  Z " stroke-width="1" stroke="#797979" fill="none" />
  </g>
</svg>