<?xml version="1.0" encoding="utf-8"?>
<svg version="1.1" xmlns:xlink="http://www.w3.org/1999/xlink" width="48px" height="48px" xmlns="http://www.w3.org/2000/svg">
  <g transform="matrix(1 0 0 1 -887 -550 )">
    <path d="M 44.59375 17.40625  L 40.09375 12.90625  L 29 24  L 40.09375 35.09375  L 44.59375 30.59375  C 45.1979166666667 29.9479166666667  45.9270833333333 29.8020833333333  46.78125 30.15625  C 47.59375 30.5104166666667  48 31.125  48 32  L 48 46  C 48 46.5416666666667  47.8020833333333 47.0104166666667  47.40625 47.40625  C 47.0104166666667 47.8020833333333  46.5416666666667 48  46 48  L 32 48  C 31.125 48  30.5104166666667 47.5833333333333  30.15625 46.75  C 29.8020833333333 45.9375  29.9479166666667 45.21875  30.59375 44.59375  L 35.09375 40.09375  L 24 29  L 12.90625 40.09375  L 17.40625 44.59375  C 18.0520833333333 45.21875  18.1979166666667 45.9375  17.84375 46.75  C 17.4895833333333 47.5833333333333  16.875 48  16 48  L 2 48  C 1.45833333333333 48  0.989583333333333 47.8020833333333  0.59375 47.40625  C 0.197916666666667 47.0104166666667  0 46.5416666666667  0 46  L 0 32  C 0 31.125  0.416666666666667 30.5104166666667  1.25 30.15625  C 2.0625 29.8020833333333  2.78125 29.9479166666667  3.40625 30.59375  L 7.90625 35.09375  L 19 24  L 7.90625 12.90625  L 3.40625 17.40625  C 3.01041666666667 17.8020833333333  2.54166666666667 18  2 18  C 1.75 18  1.5 17.9479166666667  1.25 17.84375  C 0.416666666666667 17.4895833333333  0 16.875  0 16  L 0 2  C 0 1.45833333333333  0.197916666666667 0.989583333333327  0.59375 0.593749999999998  C 0.989583333333333 0.197916666666664  1.45833333333333 0  2 0  L 16 0  C 16.875 0  17.4895833333333 0.416666666666663  17.84375 1.25  C 18.1979166666667 2.0625  18.0520833333333 2.78125  17.40625 3.40625  L 12.90625 7.90625  L 24 19  L 35.09375 7.90625  L 30.59375 3.40625  C 29.9479166666667 2.78125  29.8020833333333 2.0625  30.15625 1.25  C 30.5104166666667 0.416666666666663  31.125 0  32 0  L 46 0  C 46.5416666666667 0  47.0104166666667 0.197916666666664  47.40625 0.593749999999998  C 47.8020833333333 0.989583333333327  48 1.45833333333333  48 2  L 48 16  C 48 16.875  47.59375 17.4895833333333  46.78125 17.84375  C 46.5104166666667 17.9479166666667  46.25 18  46 18  C 45.4583333333333 18  44.9895833333333 17.8020833333333  44.59375 17.40625  Z " fill-rule="nonzero" fill="#02a7f0" stroke="none" transform="matrix(1 0 0 1 887 550 )" />
  </g>
</svg>