<?xml version="1.0" encoding="utf-8"?>
<svg version="1.1" xmlns:xlink="http://www.w3.org/1999/xlink" width="12px" height="12px" viewBox="2553 9960  12 12" xmlns="http://www.w3.org/2000/svg">
  <path d="M 2559 9960  C 2562.36 9960  2565 9962.64  2565 9966  C 2565 9969.36  2562.36 9972  2559 9972  C 2555.64 9972  2553 9969.36  2553 9966  C 2553 9962.64  2555.64 9960  2559 9960  Z " fill-rule="nonzero" fill="#169bd5" stroke="none" />
  <path d="M 2559 9960.5  C 2562.08 9960.5  2564.5 9962.92  2564.5 9966  C 2564.5 9969.08  2562.08 9971.5  2559 9971.5  C 2555.92 9971.5  2553.5 9969.08  2553.5 9966  C 2553.5 9962.92  2555.92 9960.5  2559 9960.5  Z " stroke-width="1" stroke="#797979" fill="none" />
  <path d="M 2559 9969  C 2557.32 9969  2556 9967.68  2556 9966  C 2556 9964.32  2557.32 9963  2559 9963  C 2560.68 9963  2562 9964.32  2562 9966  C 2562 9967.68  2560.68 9969  2559 9969  " fill-rule="nonzero" fill="#797979" stroke="none" />
</svg>