<?xml version="1.0" encoding="utf-8"?>
<svg version="1.1" xmlns:xlink="http://www.w3.org/1999/xlink" width="323px" height="323px" xmlns="http://www.w3.org/2000/svg">
  <g transform="matrix(1 0 0 1 323 -8715 )">
    <path d="M -161.5 8715  C -71.06 8715  0 8786.06  0 8876.5  C 0 8966.94  -71.06 9038  -161.5 9038  C -251.94 9038  -323 8966.94  -323 8876.5  C -323 8786.06  -251.94 8715  -161.5 8715  Z " fill-rule="nonzero" fill="#ffffff" stroke="none" />
    <path d="M -161.5 8715.5  C -71.34 8715.5  -0.5 8786.34  -0.5 8876.5  C -0.5 8966.66  -71.34 9037.5  -161.5 9037.5  C -251.66 9037.5  -322.5 8966.66  -322.5 8876.5  C -322.5 8786.34  -251.66 8715.5  -161.5 8715.5  Z " stroke-width="1" stroke="#797979" fill="none" />
  </g>
</svg>